M48
;GenerationSoftware,Autodesk,EAGLE,9.6.2*%
;CreationDate,2022-06-02T20:02:24Z*%
FMAT,2
ICI,OFF
METRIC,TZ,000.000
T9C0.305
T8C0.350
T7C0.381
T6C0.432
T5C0.650
T4C1.000
T3C1.016
T2C2.032
T1C3.302
%
G90
M71
T1
X290830Y38100
X215900Y38100
X165100Y53340
X163830Y64008
X165100Y112268
X313690Y5080
X365760Y10160
X365760Y38100
X314960Y53340
X313690Y64008
X365760Y69088
X238760Y5080
X290830Y10160
X215900Y69088
X240030Y53340
X13970Y64008
X66040Y69088
X66040Y97028
X15240Y112268
X238760Y64008
X290830Y69088
X290830Y97028
X240030Y112268
X140970Y69088
X13970Y5080
X66040Y10160
X66040Y38100
X15240Y53340
X215900Y97028
X88900Y64008
X90170Y53340
X140970Y97028
X88900Y5080
X140970Y10160
X140970Y38100
X90170Y112268
X365760Y97028
X314960Y112268
X163830Y5080
X215900Y10160
T2
X226822Y70104
X231394Y70104
X226822Y11176
X231394Y11176
X151892Y70104
X156464Y70104
X301752Y11176
X306324Y11176
X6604Y70104
X76962Y70104
X81534Y70104
X76962Y11176
X81534Y11176
X156464Y11176
X6604Y11176
X2032Y11176
X2032Y70104
X306324Y70104
X301752Y70104
X151892Y11176
T3
X340360Y1270
X342900Y1270
X345440Y1270
X350520Y1270
X353060Y1270
X355600Y1270
X358140Y1270
X360680Y1270
X363220Y1270
X363220Y57150
X360680Y57150
X358140Y57150
X355600Y57150
X353060Y57150
X350520Y57150
X347980Y57150
X345440Y57150
X338455Y43815
X340995Y43815
X320040Y12700
X322580Y12700
X18796Y116078
X21336Y116078
X23876Y116078
X26416Y116078
X28956Y116078
X31496Y116078
X34036Y116078
X36576Y116078
X39116Y116078
X41656Y116078
X27940Y60198
X30480Y60198
X33020Y60198
X35560Y60198
X38100Y60198
X40640Y60198
X43180Y60198
X45720Y60198
X50800Y60198
X53340Y60198
X55880Y60198
X58420Y60198
X60960Y60198
X63500Y60198
X63500Y116078
X60960Y116078
X58420Y116078
X55880Y116078
X53340Y116078
X50800Y116078
X48260Y116078
X45720Y116078
X38735Y102743
X41275Y102743
X20320Y71628
X22860Y71628
X93726Y116078
X96266Y116078
X98806Y116078
X101346Y116078
X103886Y116078
X106426Y116078
X108966Y116078
X111506Y116078
X114046Y116078
X116586Y116078
X102870Y60198
X105410Y60198
X107950Y60198
X110490Y60198
X113030Y60198
X115570Y60198
X118110Y60198
X120650Y60198
X125730Y60198
X128270Y60198
X130810Y60198
X133350Y60198
X135890Y60198
X138430Y60198
X138430Y116078
X135890Y116078
X133350Y116078
X130810Y116078
X128270Y116078
X195580Y1270
X125730Y116078
X123190Y116078
X120650Y116078
X113665Y102743
X116205Y102743
X95250Y71628
X97790Y71628
X168656Y116078
X171196Y116078
X173736Y116078
X176276Y116078
X178816Y116078
X181356Y116078
X183896Y116078
X186436Y116078
X188976Y116078
X191516Y116078
X177800Y60198
X180340Y60198
X182880Y60198
X185420Y60198
X187960Y60198
X190500Y60198
X193040Y60198
X195580Y60198
X200660Y60198
X203200Y60198
X205740Y60198
X208280Y60198
X210820Y60198
X322580Y71628
X213360Y60198
X213360Y116078
X210820Y116078
X208280Y116078
X205740Y116078
X203200Y116078
X200660Y116078
X198120Y116078
X195580Y116078
X188595Y102743
X191135Y102743
X170180Y71628
X172720Y71628
X243586Y116078
X246126Y116078
X248666Y116078
X253746Y116078
X256286Y116078
X258826Y116078
X261366Y116078
X263906Y116078
X266446Y116078
X252730Y60198
X255270Y60198
X257810Y60198
X260350Y60198
X262890Y60198
X265430Y60198
X267970Y60198
X270510Y60198
X275590Y60198
X278130Y60198
X280670Y60198
X283210Y60198
X285750Y60198
X288290Y60198
X288290Y116078
X285750Y116078
X283210Y116078
X280670Y116078
X278130Y116078
X275590Y116078
X273050Y116078
X270510Y116078
X263525Y102743
X266065Y102743
X245110Y71628
X247650Y71628
X318516Y116078
X321056Y116078
X323596Y116078
X326136Y116078
X328676Y116078
X331216Y116078
X333756Y116078
X336296Y116078
X338836Y116078
X341376Y116078
X327660Y60198
X330200Y60198
X332740Y60198
X335280Y60198
X337820Y60198
X18796Y57150
X21336Y57150
X23876Y57150
X26416Y57150
X28956Y57150
X31496Y57150
X34036Y57150
X36576Y57150
X39116Y57150
X41656Y57150
X27940Y1270
X30480Y1270
X33020Y1270
X35560Y1270
X38100Y1270
X40640Y1270
X43180Y1270
X45720Y1270
X50800Y1270
X53340Y1270
X55880Y1270
X58420Y1270
X60960Y1270
X63500Y1270
X63500Y57150
X60960Y57150
X58420Y57150
X55880Y57150
X53340Y57150
X50800Y57150
X48260Y57150
X45720Y57150
X340360Y60198
X342900Y60198
X345440Y60198
X350520Y60198
X353060Y60198
X355600Y60198
X358140Y60198
X360680Y60198
X363220Y60198
X363220Y116078
X38735Y43815
X41275Y43815
X20320Y12700
X22860Y12700
X93726Y57150
X96266Y57150
X98806Y57150
X101346Y57150
X103886Y57150
X106426Y57150
X108966Y57150
X111506Y57150
X114046Y57150
X116586Y57150
X102870Y1270
X105410Y1270
X107950Y1270
X110490Y1270
X113030Y1270
X115570Y1270
X118110Y1270
X120650Y1270
X125730Y1270
X128270Y1270
X130810Y1270
X133350Y1270
X135890Y1270
X138430Y1270
X138430Y57150
X135890Y57150
X133350Y57150
X130810Y57150
X128270Y57150
X125730Y57150
X123190Y57150
X120650Y57150
X360680Y116078
X358140Y116078
X355600Y116078
X353060Y116078
X350520Y116078
X347980Y116078
X345440Y116078
X338455Y102743
X340995Y102743
X320040Y71628
X113665Y43815
X116205Y43815
X95250Y12700
X97790Y12700
X168656Y57150
X171196Y57150
X173736Y57150
X176276Y57150
X178816Y57150
X181356Y57150
X183896Y57150
X186436Y57150
X188976Y57150
X191516Y57150
X177800Y1270
X180340Y1270
X182880Y1270
X185420Y1270
X187960Y1270
X190500Y1270
X193040Y1270
X251206Y116078
X200660Y1270
X203200Y1270
X205740Y1270
X208280Y1270
X210820Y1270
X213360Y1270
X213360Y57150
X210820Y57150
X208280Y57150
X205740Y57150
X203200Y57150
X200660Y57150
X198120Y57150
X195580Y57150
X188595Y43815
X191135Y43815
X170180Y12700
X172720Y12700
X243586Y57150
X246126Y57150
X248666Y57150
X251206Y57150
X253746Y57150
X256286Y57150
X258826Y57150
X261366Y57150
X263906Y57150
X266446Y57150
X252730Y1270
X255270Y1270
X257810Y1270
X260350Y1270
X262890Y1270
X265430Y1270
X267970Y1270
X270510Y1270
X275590Y1270
X278130Y1270
X280670Y1270
X283210Y1270
X285750Y1270
X288290Y1270
X288290Y57150
X285750Y57150
X283210Y57150
X280670Y57150
X278130Y57150
X275590Y57150
X273050Y57150
X270510Y57150
X263525Y43815
X266065Y43815
X245110Y12700
X247650Y12700
X318516Y57150
X321056Y57150
X323596Y57150
X326136Y57150
X328676Y57150
X331216Y57150
X333756Y57150
X336296Y57150
X338836Y57150
X341376Y57150
X327660Y1270
X330200Y1270
X332740Y1270
X335280Y1270
X337820Y1270
T4
X4064Y91183
X4064Y83183
X78994Y32255
X78994Y24255
X303784Y32255
X303784Y24255
X153924Y32255
X153924Y24255
X228854Y32255
X228854Y24255
X4064Y32255
X4064Y24255
X303784Y91183
X303784Y83183
X228854Y91183
X228854Y83183
X153924Y91183
X153924Y83183
X78994Y91183
X78994Y83183
T5
X79835Y44800
X4905Y97948
X4905Y103728
X4905Y44800
X304625Y39020
X304625Y44800
X304625Y97948
X229695Y39020
X229695Y44800
X229695Y97948
X229695Y103728
X154765Y39020
X154765Y44800
X154765Y97948
X154765Y103728
X4905Y39020
X304625Y103728
X79835Y39020
X79835Y97948
X79835Y103728
T6
X48895Y95758
X48895Y36830
X48895Y38100
X50165Y36830
X50165Y38100
X51435Y36830
X51435Y38100
X52705Y36830
X52705Y38100
X53975Y36830
X53975Y38100
X123825Y36830
X123825Y38100
X125095Y36830
X125095Y38100
X126365Y36830
X126365Y38100
X127635Y36830
X127635Y38100
X128905Y36830
X128905Y38100
X128905Y97028
X52705Y95758
X52705Y97028
X53975Y95758
X53975Y97028
X203835Y36830
X203835Y38100
X198755Y36830
X198755Y38100
X200025Y36830
X200025Y38100
X201295Y36830
X201295Y38100
X273685Y36830
X273685Y38100
X274955Y36830
X274955Y38100
X276225Y36830
X276225Y38100
X348615Y36830
X348615Y38100
X349885Y36830
X273685Y95758
X273685Y97028
X274955Y95758
X274955Y97028
X276225Y95758
X276225Y97028
X277495Y95758
X277495Y97028
X278765Y95758
X278765Y97028
X349885Y38100
X351155Y36830
X351155Y38100
X352425Y36830
X352425Y38100
X353695Y36830
X353695Y38100
X277495Y36830
X277495Y38100
X278765Y36830
X278765Y38100
X202565Y36830
X202565Y38100
X48895Y97028
X198755Y95758
X198755Y97028
X200025Y95758
X200025Y97028
X201295Y95758
X201295Y97028
X202565Y95758
X202565Y97028
X203835Y95758
X203835Y97028
X50165Y95758
X50165Y97028
X51435Y95758
X51435Y97028
X123825Y95758
X123825Y97028
X125095Y95758
X125095Y97028
X126365Y95758
X126365Y97028
X348615Y95758
X348615Y97028
X349885Y95758
X349885Y97028
X351155Y95758
X351155Y97028
X352425Y95758
X352425Y97028
X353695Y95758
X353695Y97028
X127635Y95758
X127635Y97028
X128905Y95758
T7
X36830Y8636
X36830Y7620
X38100Y39116
X316738Y37084
X27686Y19304
X261620Y66548
X166878Y37084
X186690Y8636
X241808Y37084
X186690Y7620
X187960Y39116
X261620Y67564
X166878Y96012
X177546Y78232
X316738Y96012
X113030Y98044
X252476Y19304
X17018Y37084
X38100Y98044
X327406Y78232
X261620Y8636
X337820Y98044
X261620Y7620
X262890Y39116
X336550Y66548
X336550Y67564
X111760Y8636
X111760Y7620
X113030Y39116
X177546Y19304
X102616Y19304
X327406Y19304
X336550Y8636
X241808Y96012
X336550Y7620
X36830Y67564
X36830Y66548
X27686Y78232
X17018Y96012
X111760Y67564
X111760Y66548
X102616Y78232
X91948Y37084
X91948Y96012
X186690Y67564
X186690Y66548
X187960Y98044
X252476Y78232
X262890Y98044
X337820Y39116
T8
X227965Y46228
X227965Y37592
X258064Y41275
X249301Y42545
X249301Y40005
X110458Y45180
X249288Y34938
X35528Y45180
X249301Y37465
X3175Y46228
X3175Y37592
X24511Y42545
X24511Y40005
X24498Y34938
X24511Y37465
X24511Y45085
X249301Y45085
X332994Y41275
X324231Y42545
X260318Y45180
X324231Y40005
X324218Y34938
X324231Y37465
X324231Y45085
X78105Y46228
X108204Y41275
X78105Y37592
X99441Y42545
X99441Y40005
X33274Y41275
X99428Y34938
X99441Y37465
X99441Y45085
X153035Y46228
X153035Y37592
X174371Y42545
X174371Y40005
X174358Y34938
X174371Y37465
X174371Y45085
X35528Y104108
X185388Y45180
X33274Y100203
X183134Y41275
X335248Y45180
X24511Y98933
X24498Y93866
X24511Y96393
X183134Y100203
X185388Y104108
X24511Y104013
X260318Y104108
X258064Y100203
X3175Y105156
X3175Y96520
X108204Y100203
X110458Y104108
X174371Y104013
X174371Y96393
X174358Y93866
X174371Y98933
X174371Y101473
X302895Y46228
X153035Y96520
X153035Y105156
X78105Y105156
X324231Y104013
X324231Y96393
X324218Y93866
X324231Y98933
X324231Y101473
X78105Y96520
X302895Y96520
X24511Y101473
X302895Y105156
X99441Y101473
X335248Y104108
X302895Y37592
X332994Y100203
X99441Y98933
X99428Y93866
X99441Y96393
X249301Y104013
X249301Y96393
X249288Y93866
X249301Y98933
X249301Y101473
X99441Y104013
X227965Y96520
X227965Y105156
T9
X204470Y19050
X207010Y21590
X207010Y20320
X207010Y19050
X207010Y25400
X207010Y24130
X207010Y26670
X157226Y45466
X157353Y37465
X191770Y11430
X198120Y11430
X196850Y11430
X188849Y15240
X193040Y16510
X189230Y20320
X166370Y19050
X165100Y19050
X163830Y19050
X207010Y39370
X200660Y44704
X209550Y52070
X182626Y49530
X180086Y49530
X185166Y49530
X204470Y52070
X207010Y52070
X176149Y8763
X170180Y1905
X171450Y1905
X172720Y1905
X158750Y22860
X160020Y22860
X158750Y21590
X160020Y21590
X152400Y26670
X152400Y27940
X152400Y29210
X152400Y30480
X161544Y762
X160020Y1778
X174737Y34100
X188722Y32766
X188722Y30734
X157480Y22860
X157480Y21590
X212090Y2540
X209550Y2540
X207010Y2540
X204470Y2540
X201930Y2540
X214630Y2540
X199390Y2540
X196850Y2540
X194310Y2540
X212090Y55880
X209550Y55880
X207010Y55880
X204470Y55880
X201930Y55880
X214630Y55880
X214630Y50165
X212344Y49530
X189230Y2159
X186690Y2159
X184150Y2159
X181610Y2159
X179070Y2159
X176530Y2159
X199390Y56261
X196850Y56261
X194310Y56261
X190246Y56261
X192786Y56261
X187706Y56261
X185166Y56261
X182626Y56261
X180086Y56261
X177546Y56261
X175006Y56261
X172466Y56261
X169926Y56261
X167386Y56261
X163830Y10160
X211455Y34544
X209550Y12700
X206375Y13716
X197612Y21082
X202692Y18415
X200406Y22733
X195453Y27940
X203073Y28702
X206375Y28702
X211709Y39370
X189230Y23622
X191770Y8636
X176657Y18542
X154940Y57150
X155575Y50800
X175006Y51689
X164084Y36449
X178308Y26289
X179959Y14605
X200279Y13589
X166751Y44450
X172466Y54229
X196850Y52070
X194310Y40640
X193929Y34798
X191516Y30734
X167386Y13970
X199390Y49149
X194056Y43942
X178689Y41275
X184785Y42545
X179070Y30861
X169418Y47117
X178562Y36195
X182880Y32893
X189738Y26416
X210058Y48260
X192786Y47879
X160655Y30607
X157480Y31750
X189865Y42672
X163830Y49530
X189865Y46609
X161290Y53594
X167640Y53340
X176530Y43815
X170815Y37465
X168910Y41910
X184658Y45720
X152400Y2921
X198374Y47752
X152400Y2032
X202311Y40513
X198222Y28550
X197739Y34569
X196494Y35941
X179070Y8788
X184150Y8788
X184150Y6350
X171450Y17780
X157988Y40513
X157988Y42164
X154178Y41148
X160782Y49530
X161290Y42545
X184277Y11176
X195326Y47625
X163576Y48514
X192405Y36322
X190246Y36322
X194183Y31750
X195326Y29464
X205232Y39116
X204216Y39878
X153670Y55118
X207772Y37084
X209804Y37084
X209804Y39624
X209677Y34544
X160020Y2921
X157480Y2921
X160655Y27940
X198120Y2794
X181610Y37465
X166624Y46482
X188976Y18669
X159360Y35560
X166370Y13462
X164084Y37592
X169926Y49784
X199390Y50038
X212090Y50800
X153670Y53086
X207264Y13208
X166116Y12192
X153670Y54102
X201803Y47752
X204470Y9398
X151130Y21336
X152146Y34036
X162814Y43434
X169418Y43434
X196850Y54356
X172466Y46990
X209296Y49022
X207010Y17526
X209550Y54356
X162814Y45466
X190246Y53340
X210820Y29210
X212090Y53340
X214630Y48768
X190881Y14986
X191440Y39827
X199390Y41808
X207010Y30480
X209296Y29464
X204978Y29464
X203708Y29464
X201168Y28956
X202438Y29464
X196850Y27940
X205994Y36576
X192786Y13208
X160655Y25654
X198120Y20066
X199390Y47752
X200406Y21844
X172466Y49530
X160655Y29464
X160655Y47752
X160045Y36627
X177292Y49530
X180086Y51308
X202184Y19812
X201930Y8382
X201930Y11430
X155956Y21590
X199517Y30480
X194056Y49530
X198120Y43434
X197561Y29718
X193802Y47752
X195050Y26416
X177546Y47879
X195453Y45720
X177800Y22860
X192786Y31242
X193294Y40640
X196850Y18796
X197739Y47117
X200660Y47752
X178460Y12700
X183007Y13970
X182880Y17780
X180975Y25908
X179070Y20320
X178943Y28829
X180594Y15494
X182880Y21590
X188976Y28956
X168656Y39624
X160020Y19050
X156972Y39624
X156972Y44323
X177800Y25400
X177292Y32766
X182880Y30226
X182880Y22860
X179070Y21336
X181356Y11176
X209550Y41910
X207518Y47244
X209550Y47244
X168402Y13716
X191770Y2794
X198120Y7620
X191770Y7620
X194818Y20066
X184658Y19558
X184658Y15240
X184658Y25146
X176530Y17145
X180975Y28194
X188976Y25908
X179070Y11430
X188595Y11430
X161290Y9652
X183896Y46355
X209550Y13589
X160655Y26670
X157480Y1778
X189611Y32766
X189103Y35306
X184658Y27686
X184023Y36195
X189916Y15977
X179121Y6731
X229870Y5334
X257810Y27940
X248412Y6350
X227838Y7620
X229108Y7620
X226568Y7620
X234950Y762
X232410Y762
X243586Y35306
X236474Y46482
X244983Y32004
X263652Y31750
X284480Y26670
X284480Y25400
X284480Y24130
X284480Y22860
X284480Y21590
X284480Y20320
X284480Y19050
X279400Y21590
X279400Y20320
X279400Y19050
X281940Y21590
X281940Y20320
X281940Y19050
X281940Y25400
X281940Y24130
X281940Y26670
X232156Y45466
X232283Y37465
X266700Y11430
X273050Y11430
X271780Y11430
X263779Y15240
X267970Y16510
X264160Y20320
X241300Y19050
X240030Y19050
X238760Y19050
X281940Y39370
X275590Y44704
X284480Y52070
X257556Y49530
X255016Y49530
X260096Y49530
X279400Y52070
X281940Y52070
X251079Y8763
X245110Y1905
X246380Y1905
X247650Y1905
X233680Y22860
X234950Y22860
X233680Y21590
X234950Y21590
X227330Y26670
X227330Y27940
X227330Y29210
X227330Y30480
X236474Y762
X234950Y1778
X249667Y34100
X263652Y32766
X263652Y30734
X232410Y22860
X232410Y21590
X287020Y2540
X284480Y2540
X281940Y2540
X279400Y2540
X276860Y2540
X289560Y2540
X274320Y2540
X271780Y2540
X269240Y2540
X287020Y55880
X284480Y55880
X281940Y55880
X279400Y55880
X276860Y55880
X289560Y55880
X289560Y50165
X287274Y49530
X264160Y2159
X261620Y2159
X259080Y2159
X256540Y2159
X254000Y2159
X251460Y2159
X274320Y56261
X271780Y56261
X269240Y56261
X265176Y56261
X267716Y56261
X262636Y56261
X260096Y56261
X257556Y56261
X255016Y56261
X252476Y56261
X249936Y56261
X247396Y56261
X244856Y56261
X242316Y56261
X238760Y10160
X286385Y34544
X284480Y12700
X281305Y13716
X272542Y21082
X277622Y18415
X275336Y22733
X270383Y27940
X278003Y28702
X281305Y28702
X286639Y39370
X264160Y23622
X266700Y8636
X251587Y18542
X229870Y57150
X230505Y50800
X249936Y51689
X239014Y36449
X253238Y26289
X254889Y14605
X275209Y13589
X241681Y44450
X247396Y54229
X271780Y52070
X269240Y40640
X268859Y34798
X266446Y30734
X242316Y13970
X274320Y49149
X268986Y43942
X253619Y41275
X259715Y42545
X254000Y30861
X244348Y47117
X253492Y36195
X257810Y32893
X264668Y26416
X284988Y48260
X267716Y47879
X235585Y30607
X232410Y31750
X264795Y42672
X238760Y49530
X264795Y46609
X236220Y53594
X242570Y53340
X251460Y43815
X245745Y37465
X243840Y41910
X259588Y45720
X227330Y2921
X273304Y47752
X227330Y2032
X277241Y40513
X273152Y28550
X272669Y34569
X271424Y35941
X254000Y8788
X259080Y8788
X259080Y6350
X246380Y17780
X232918Y40513
X232918Y42164
X229108Y41148
X235712Y49530
X236220Y42545
X259207Y11176
X270256Y47625
X238506Y48514
X267335Y36322
X265176Y36322
X269113Y31750
X270256Y29464
X280162Y39116
X279146Y39878
X228600Y55118
X282702Y37084
X284734Y37084
X284734Y39624
X284607Y34544
X234950Y2921
X232410Y2921
X235585Y27940
X273050Y2794
X256540Y37465
X241554Y46482
X263906Y18669
X234290Y35560
X241300Y13462
X239014Y37592
X244856Y49784
X274320Y50038
X287020Y50800
X228600Y53086
X282194Y13208
X241046Y12192
X228600Y54102
X276733Y47752
X279400Y9398
X226060Y21336
X227076Y34036
X237744Y43434
X244348Y43434
X271780Y54356
X247396Y46990
X284226Y49022
X281940Y17526
X284480Y54356
X237744Y45466
X265176Y53340
X285750Y29210
X287020Y53340
X289560Y48768
X265811Y14986
X266370Y39827
X274320Y41808
X281940Y30480
X284226Y29464
X279908Y29464
X278638Y29464
X276098Y28956
X277368Y29464
X271780Y27940
X280924Y36576
X267716Y13208
X235585Y25654
X273050Y20066
X274320Y47752
X275336Y21844
X247396Y49530
X235585Y29464
X235585Y47752
X234975Y36627
X252222Y49530
X255016Y51308
X277114Y19812
X276860Y8382
X276860Y11430
X230886Y21590
X274447Y30480
X268986Y49530
X273050Y43434
X272491Y29718
X268732Y47752
X269980Y26416
X252476Y47879
X270383Y45720
X252730Y22860
X267716Y31242
X268224Y40640
X271780Y18796
X272669Y47117
X275590Y47752
X253390Y12700
X257937Y13970
X257810Y17780
X255905Y25908
X254000Y20320
X253873Y28829
X255524Y15494
X257810Y21590
X263906Y28956
X243586Y39624
X234950Y19050
X231902Y39624
X231902Y44323
X252730Y25400
X252222Y32766
X257810Y30226
X257810Y22860
X254000Y21336
X256286Y11176
X284480Y41910
X282448Y47244
X284480Y47244
X243332Y13716
X266700Y2794
X273050Y7620
X266700Y7620
X269748Y20066
X259588Y19558
X259588Y15240
X259588Y25146
X251460Y17145
X255905Y28194
X263906Y25908
X254000Y11430
X263525Y11430
X236220Y9652
X258826Y46355
X284480Y13589
X235585Y26670
X232410Y1778
X264541Y32766
X264033Y35306
X259588Y27686
X258953Y36195
X264846Y15977
X254051Y6731
X304800Y5334
X332740Y27940
X323342Y6350
X302768Y7620
X304038Y7620
X301498Y7620
X309880Y762
X307340Y762
X318516Y35306
X311404Y46482
X319913Y32004
X338582Y31750
X359410Y26670
X359410Y25400
X359410Y24130
X359410Y22860
X359410Y21590
X359410Y20320
X359410Y19050
X354330Y21590
X354330Y20320
X354330Y19050
X356870Y21590
X356870Y20320
X356870Y19050
X356870Y25400
X356870Y24130
X356870Y26670
X307086Y45466
X307213Y37465
X341630Y11430
X347980Y11430
X346710Y11430
X338709Y15240
X342900Y16510
X339090Y20320
X316230Y19050
X314960Y19050
X313690Y19050
X356870Y39370
X350520Y44704
X359410Y52070
X332486Y49530
X329946Y49530
X335026Y49530
X354330Y52070
X356870Y52070
X326009Y8763
X320040Y1905
X321310Y1905
X322580Y1905
X308610Y22860
X309880Y22860
X308610Y21590
X309880Y21590
X302260Y26670
X302260Y27940
X302260Y29210
X302260Y30480
X311404Y762
X309880Y1778
X324597Y34100
X338582Y32766
X338582Y30734
X307340Y22860
X307340Y21590
X361950Y2540
X359410Y2540
X356870Y2540
X354330Y2540
X351790Y2540
X364490Y2540
X349250Y2540
X346710Y2540
X344170Y2540
X361950Y55880
X359410Y55880
X356870Y55880
X354330Y55880
X351790Y55880
X364490Y55880
X364490Y50165
X362204Y49530
X339090Y2159
X336550Y2159
X334010Y2159
X331470Y2159
X328930Y2159
X326390Y2159
X349250Y56261
X346710Y56261
X344170Y56261
X340106Y56261
X342646Y56261
X337566Y56261
X335026Y56261
X332486Y56261
X329946Y56261
X327406Y56261
X324866Y56261
X322326Y56261
X319786Y56261
X317246Y56261
X313690Y10160
X361315Y34544
X359410Y12700
X356235Y13716
X347472Y21082
X352552Y18415
X350266Y22733
X345313Y27940
X352933Y28702
X356235Y28702
X361569Y39370
X339090Y23622
X341630Y8636
X326517Y18542
X304800Y57150
X305435Y50800
X324866Y51689
X313944Y36449
X328168Y26289
X329819Y14605
X350139Y13589
X316611Y44450
X322326Y54229
X346710Y52070
X344170Y40640
X343789Y34798
X341376Y30734
X317246Y13970
X349250Y49149
X343916Y43942
X328549Y41275
X334645Y42545
X328930Y30861
X319278Y47117
X328422Y36195
X332740Y32893
X339598Y26416
X359918Y48260
X342646Y47879
X310515Y30607
X307340Y31750
X339725Y42672
X313690Y49530
X339725Y46609
X311150Y53594
X317500Y53340
X326390Y43815
X320675Y37465
X318770Y41910
X334518Y45720
X302260Y2921
X348234Y47752
X302260Y2032
X352171Y40513
X348082Y28550
X347599Y34569
X346354Y35941
X328930Y8788
X334010Y8788
X334010Y6350
X321310Y17780
X307848Y40513
X307848Y42164
X304038Y41148
X310642Y49530
X311150Y42545
X334137Y11176
X345186Y47625
X313436Y48514
X342265Y36322
X340106Y36322
X344043Y31750
X345186Y29464
X355092Y39116
X354076Y39878
X303530Y55118
X357632Y37084
X359664Y37084
X359664Y39624
X359537Y34544
X309880Y2921
X307340Y2921
X310515Y27940
X347980Y2794
X331470Y37465
X316484Y46482
X338836Y18669
X309220Y35560
X316230Y13462
X313944Y37592
X319786Y49784
X349250Y50038
X361950Y50800
X303530Y53086
X357124Y13208
X315976Y12192
X303530Y54102
X351663Y47752
X354330Y9398
X300990Y21336
X302006Y34036
X312674Y43434
X319278Y43434
X346710Y54356
X322326Y46990
X359156Y49022
X356870Y17526
X359410Y54356
X312674Y45466
X340106Y53340
X360680Y29210
X361950Y53340
X364490Y48768
X340741Y14986
X341300Y39827
X349250Y41808
X356870Y30480
X359156Y29464
X354838Y29464
X353568Y29464
X351028Y28956
X352298Y29464
X346710Y27940
X355854Y36576
X342646Y13208
X310515Y25654
X347980Y20066
X349250Y47752
X350266Y21844
X322326Y49530
X310515Y29464
X310515Y47752
X309905Y36627
X327152Y49530
X329946Y51308
X352044Y19812
X351790Y8382
X351790Y11430
X305816Y21590
X349377Y30480
X343916Y49530
X347980Y43434
X347421Y29718
X343662Y47752
X344910Y26416
X327406Y47879
X345313Y45720
X327660Y22860
X342646Y31242
X343154Y40640
X346710Y18796
X347599Y47117
X350520Y47752
X328320Y12700
X332867Y13970
X332740Y17780
X330835Y25908
X328930Y20320
X328803Y28829
X330454Y15494
X332740Y21590
X338836Y28956
X318516Y39624
X309880Y19050
X306832Y39624
X306832Y44323
X327660Y25400
X327152Y32766
X332740Y30226
X332740Y22860
X328930Y21336
X331216Y11176
X359410Y41910
X357378Y47244
X359410Y47244
X318262Y13716
X341630Y2794
X347980Y7620
X341630Y7620
X344678Y20066
X334518Y19558
X334518Y15240
X334518Y25146
X326390Y17145
X330835Y28194
X338836Y25908
X328930Y11430
X338455Y11430
X311150Y9652
X333756Y46355
X359410Y13589
X310515Y26670
X307340Y1778
X339471Y32766
X338963Y35306
X334518Y27686
X333883Y36195
X339776Y15977
X328981Y6731
X5080Y64262
X33020Y86868
X23622Y65278
X3048Y66548
X4318Y66548
X1778Y66548
X10160Y59690
X7620Y59690
X18796Y94234
X11684Y105410
X20193Y90932
X38862Y90678
X59690Y85598
X59690Y84328
X59690Y83058
X59690Y81788
X59690Y80518
X59690Y79248
X59690Y77978
X54610Y80518
X54610Y79248
X54610Y77978
X57150Y80518
X57150Y79248
X57150Y77978
X57150Y84328
X57150Y83058
X57150Y85598
X7366Y104394
X7493Y96393
X41910Y70358
X48260Y70358
X46990Y70358
X38989Y74168
X43180Y75438
X39370Y79248
X16510Y77978
X15240Y77978
X13970Y77978
X57150Y98298
X50800Y103632
X59690Y110998
X32766Y108458
X30226Y108458
X35306Y108458
X54610Y110998
X57150Y110998
X26289Y67691
X20320Y60833
X21590Y60833
X22860Y60833
X8890Y81788
X10160Y81788
X8890Y80518
X10160Y80518
X2540Y85598
X2540Y86868
X2540Y88138
X2540Y89408
X11684Y59690
X10160Y60706
X24877Y93027
X38862Y91694
X38862Y89662
X7620Y81788
X7620Y80518
X62230Y61468
X59690Y61468
X57150Y61468
X54610Y61468
X52070Y61468
X64770Y61468
X49530Y61468
X46990Y61468
X44450Y61468
X62230Y114808
X59690Y114808
X57150Y114808
X54610Y114808
X52070Y114808
X64770Y114808
X64770Y109093
X62484Y108458
X39370Y61087
X36830Y61087
X34290Y61087
X31750Y61087
X29210Y61087
X26670Y61087
X49530Y115189
X46990Y115189
X44450Y115189
X40386Y115189
X42926Y115189
X37846Y115189
X35306Y115189
X32766Y115189
X30226Y115189
X27686Y115189
X25146Y115189
X22606Y115189
X20066Y115189
X17526Y115189
X13970Y69088
X61595Y93472
X59690Y71628
X56515Y72644
X47752Y80010
X52832Y77343
X50546Y81661
X45593Y86868
X53213Y87630
X56515Y87630
X61849Y98298
X39370Y82550
X41910Y67564
X26797Y77470
X5080Y116078
X5715Y109728
X25146Y110617
X14224Y95377
X28448Y85217
X30099Y73533
X50419Y72517
X16891Y103378
X22606Y113157
X46990Y110998
X44450Y99568
X44069Y93726
X41656Y89662
X17526Y72898
X49530Y108077
X44196Y102870
X28829Y100203
X34925Y101473
X29210Y89789
X19558Y106045
X28702Y95123
X33020Y91821
X39878Y85344
X60198Y107188
X42926Y106807
X10795Y89535
X7620Y90678
X40005Y101600
X13970Y108458
X40005Y105537
X11430Y112522
X17780Y112268
X26670Y102743
X20955Y96393
X19050Y100838
X34798Y104648
X2540Y61849
X48514Y106680
X2540Y60960
X52451Y99441
X48362Y87478
X47879Y93497
X46634Y94869
X29210Y67716
X34290Y67716
X34290Y65278
X21590Y76708
X8128Y99441
X8128Y101092
X4318Y100076
X10922Y108458
X11430Y101473
X34417Y70104
X45466Y106553
X13716Y107442
X42545Y95250
X40386Y95250
X44323Y90678
X45466Y88392
X55372Y98044
X54356Y98806
X3810Y114046
X57912Y96012
X59944Y96012
X59944Y98552
X59817Y93472
X10160Y61849
X7620Y61849
X10795Y86868
X48260Y61722
X31750Y96393
X16764Y105410
X39116Y77597
X9500Y94488
X16510Y72390
X14224Y96520
X20066Y108712
X49530Y108966
X62230Y109728
X3810Y112014
X57404Y72136
X16256Y71120
X3810Y113030
X51943Y106680
X54610Y68326
X1270Y80264
X2286Y92964
X12954Y102362
X19558Y102362
X46990Y113284
X22606Y105918
X59436Y107950
X57150Y76454
X59690Y113284
X12954Y104394
X40386Y112268
X60960Y88138
X62230Y112268
X64770Y107696
X41021Y73914
X41580Y98755
X49530Y100736
X57150Y89408
X59436Y88392
X55118Y88392
X53848Y88392
X51308Y87884
X52578Y88392
X46990Y86868
X56134Y95504
X42926Y72136
X10795Y84582
X48260Y78994
X49530Y106680
X50546Y80772
X22606Y108458
X10795Y88392
X10795Y106680
X10185Y95555
X27432Y108458
X30226Y110236
X52324Y78740
X52070Y67310
X52070Y70358
X6096Y80518
X49657Y89408
X44196Y108458
X48260Y102362
X47701Y88646
X43942Y106680
X45190Y85344
X27686Y106807
X45593Y104648
X27940Y81788
X42926Y90170
X43434Y99568
X46990Y77724
X47879Y106045
X50800Y106680
X28600Y71628
X33147Y72898
X33020Y76708
X31115Y84836
X29210Y79248
X29083Y87757
X30734Y74422
X33020Y80518
X39116Y87884
X18796Y98552
X10160Y77978
X7112Y98552
X7112Y103251
X27940Y84328
X27432Y91694
X33020Y89154
X33020Y81788
X29210Y80264
X31496Y70104
X114935Y46609
X57658Y106172
X59690Y106172
X18542Y72644
X41910Y61722
X48260Y66548
X41910Y66548
X44958Y78994
X34798Y78486
X34798Y74168
X34798Y84074
X26670Y76073
X31115Y87122
X39116Y84836
X29210Y70358
X38735Y70358
X5080Y5334
X11430Y68580
X34036Y105283
X59690Y72517
X10795Y85598
X7620Y60706
X39751Y91694
X39243Y94234
X34798Y86614
X34163Y95123
X33020Y27940
X23622Y6350
X3048Y7620
X4318Y7620
X1778Y7620
X10160Y762
X7620Y762
X18796Y35306
X40056Y74905
X29261Y65659
X80010Y64262
X11684Y46482
X20193Y32004
X38862Y31750
X107950Y86868
X98552Y65278
X77978Y66548
X79248Y66548
X76708Y66548
X85090Y59690
X82550Y59690
X93726Y94234
X86614Y105410
X95123Y90932
X113792Y90678
X134620Y85598
X134620Y84328
X134620Y83058
X134620Y81788
X134620Y80518
X134620Y79248
X134620Y77978
X129540Y80518
X129540Y79248
X129540Y77978
X132080Y80518
X132080Y79248
X132080Y77978
X132080Y84328
X132080Y83058
X132080Y85598
X82296Y104394
X82423Y96393
X116840Y70358
X123190Y70358
X121920Y70358
X113919Y74168
X118110Y75438
X114300Y79248
X91440Y77978
X90170Y77978
X88900Y77978
X132080Y98298
X125730Y103632
X134620Y110998
X107696Y108458
X105156Y108458
X110236Y108458
X129540Y110998
X132080Y110998
X101219Y67691
X95250Y60833
X96520Y60833
X97790Y60833
X83820Y81788
X85090Y81788
X83820Y80518
X85090Y80518
X77470Y85598
X77470Y86868
X77470Y88138
X77470Y89408
X86614Y59690
X85090Y60706
X99807Y93027
X113792Y91694
X113792Y89662
X82550Y81788
X82550Y80518
X137160Y61468
X134620Y61468
X132080Y61468
X129540Y61468
X127000Y61468
X139700Y61468
X124460Y61468
X121920Y61468
X119380Y61468
X137160Y114808
X134620Y114808
X132080Y114808
X129540Y114808
X127000Y114808
X139700Y114808
X139700Y109093
X137414Y108458
X114300Y61087
X111760Y61087
X109220Y61087
X106680Y61087
X104140Y61087
X101600Y61087
X124460Y115189
X121920Y115189
X119380Y115189
X115316Y115189
X117856Y115189
X112776Y115189
X110236Y115189
X107696Y115189
X105156Y115189
X102616Y115189
X100076Y115189
X97536Y115189
X94996Y115189
X92456Y115189
X88900Y69088
X136525Y93472
X134620Y71628
X131445Y72644
X122682Y80010
X127762Y77343
X125476Y81661
X120523Y86868
X128143Y87630
X131445Y87630
X136779Y98298
X114300Y82550
X116840Y67564
X101727Y77470
X80010Y116078
X80645Y109728
X100076Y110617
X89154Y95377
X103378Y85217
X105029Y73533
X125349Y72517
X91821Y103378
X97536Y113157
X121920Y110998
X119380Y99568
X118999Y93726
X116586Y89662
X92456Y72898
X124460Y108077
X119126Y102870
X103759Y100203
X109855Y101473
X104140Y89789
X94488Y106045
X103632Y95123
X107950Y91821
X114808Y85344
X135128Y107188
X117856Y106807
X85725Y89535
X82550Y90678
X114935Y101600
X88900Y108458
X114935Y105537
X86360Y112522
X92710Y112268
X101600Y102743
X95885Y96393
X93980Y100838
X109728Y104648
X77470Y61849
X123444Y106680
X77470Y60960
X127381Y99441
X123292Y87478
X122809Y93497
X121564Y94869
X104140Y67716
X109220Y67716
X109220Y65278
X96520Y76708
X83058Y99441
X83058Y101092
X79248Y100076
X85852Y108458
X86360Y101473
X109347Y70104
X120396Y106553
X88646Y107442
X117475Y95250
X115316Y95250
X119253Y90678
X120396Y88392
X130302Y98044
X129286Y98806
X78740Y114046
X132842Y96012
X134874Y96012
X134874Y98552
X134747Y93472
X85090Y61849
X82550Y61849
X85725Y86868
X123190Y61722
X106680Y96393
X91694Y105410
X114046Y77597
X59690Y26670
X84430Y94488
X91440Y72390
X89154Y96520
X94996Y108712
X124460Y108966
X137160Y109728
X78740Y112014
X132334Y72136
X91186Y71120
X78740Y113030
X126873Y106680
X129540Y68326
X76200Y80264
X77216Y92964
X87884Y102362
X94488Y102362
X121920Y113284
X97536Y105918
X134366Y107950
X132080Y76454
X134620Y113284
X87884Y104394
X115316Y112268
X135890Y88138
X137160Y112268
X139700Y107696
X115951Y73914
X116510Y98755
X124460Y100736
X132080Y89408
X134366Y88392
X130048Y88392
X128778Y88392
X126238Y87884
X127508Y88392
X121920Y86868
X131064Y95504
X117856Y72136
X85725Y84582
X59690Y25400
X123190Y78994
X124460Y106680
X125476Y80772
X97536Y108458
X85725Y88392
X85725Y106680
X85115Y95555
X102362Y108458
X105156Y110236
X127254Y78740
X127000Y67310
X127000Y70358
X81026Y80518
X124587Y89408
X119126Y108458
X123190Y102362
X122631Y88646
X118872Y106680
X120120Y85344
X102616Y106807
X120523Y104648
X102870Y81788
X117856Y90170
X118364Y99568
X121920Y77724
X122809Y106045
X125730Y106680
X103530Y71628
X108077Y72898
X107950Y76708
X106045Y84836
X104140Y79248
X104013Y87757
X105664Y74422
X107950Y80518
X114046Y87884
X93726Y98552
X85090Y77978
X82042Y98552
X82042Y103251
X102870Y84328
X102362Y91694
X107950Y89154
X107950Y81788
X104140Y80264
X106426Y70104
X134620Y100838
X132588Y106172
X134620Y106172
X93472Y72644
X116840Y61722
X123190Y66548
X116840Y66548
X119888Y78994
X109728Y78486
X109728Y74168
X109728Y84074
X101600Y76073
X106045Y87122
X114046Y84836
X104140Y70358
X113665Y70358
X59690Y24130
X86360Y68580
X108966Y105283
X134620Y72517
X85725Y85598
X82550Y60706
X114681Y91694
X114173Y94234
X109728Y86614
X109093Y95123
X59690Y22860
X59690Y21590
X59690Y20320
X59690Y19050
X54610Y21590
X54610Y20320
X54610Y19050
X57150Y21590
X114986Y74905
X104191Y65659
X154940Y64262
X57150Y20320
X57150Y19050
X57150Y25400
X182880Y86868
X173482Y65278
X152908Y66548
X154178Y66548
X151638Y66548
X160020Y59690
X157480Y59690
X168656Y94234
X161544Y105410
X170053Y90932
X188722Y90678
X209550Y85598
X209550Y84328
X209550Y83058
X209550Y81788
X209550Y80518
X209550Y79248
X209550Y77978
X204470Y80518
X204470Y79248
X204470Y77978
X207010Y80518
X207010Y79248
X207010Y77978
X207010Y84328
X207010Y83058
X207010Y85598
X157226Y104394
X157353Y96393
X191770Y70358
X198120Y70358
X196850Y70358
X188849Y74168
X193040Y75438
X189230Y79248
X166370Y77978
X165100Y77978
X163830Y77978
X207010Y98298
X200660Y103632
X209550Y110998
X182626Y108458
X180086Y108458
X185166Y108458
X204470Y110998
X207010Y110998
X176149Y67691
X170180Y60833
X171450Y60833
X172720Y60833
X158750Y81788
X160020Y81788
X158750Y80518
X160020Y80518
X152400Y85598
X152400Y86868
X152400Y88138
X152400Y89408
X161544Y59690
X160020Y60706
X174737Y93027
X188722Y91694
X188722Y89662
X157480Y81788
X157480Y80518
X212090Y61468
X209550Y61468
X207010Y61468
X204470Y61468
X201930Y61468
X214630Y61468
X199390Y61468
X196850Y61468
X194310Y61468
X212090Y114808
X209550Y114808
X207010Y114808
X204470Y114808
X201930Y114808
X214630Y114808
X214630Y109093
X212344Y108458
X189230Y61087
X186690Y61087
X184150Y61087
X181610Y61087
X179070Y61087
X176530Y61087
X199390Y115189
X196850Y115189
X194310Y115189
X190246Y115189
X192786Y115189
X187706Y115189
X185166Y115189
X182626Y115189
X180086Y115189
X177546Y115189
X175006Y115189
X172466Y115189
X169926Y115189
X167386Y115189
X163830Y69088
X211455Y93472
X209550Y71628
X206375Y72644
X197612Y80010
X202692Y77343
X200406Y81661
X195453Y86868
X203073Y87630
X206375Y87630
X211709Y98298
X189230Y82550
X191770Y67564
X176657Y77470
X154940Y116078
X155575Y109728
X175006Y110617
X164084Y95377
X178308Y85217
X179959Y73533
X200279Y72517
X166751Y103378
X172466Y113157
X196850Y110998
X194310Y99568
X193929Y93726
X191516Y89662
X167386Y72898
X199390Y108077
X194056Y102870
X178689Y100203
X184785Y101473
X179070Y89789
X169418Y106045
X178562Y95123
X182880Y91821
X189738Y85344
X210058Y107188
X192786Y106807
X160655Y89535
X157480Y90678
X189865Y101600
X163830Y108458
X189865Y105537
X161290Y112522
X167640Y112268
X176530Y102743
X170815Y96393
X168910Y100838
X184658Y104648
X152400Y61849
X198374Y106680
X152400Y60960
X202311Y99441
X198222Y87478
X197739Y93497
X196494Y94869
X179070Y67716
X184150Y67716
X184150Y65278
X171450Y76708
X157988Y99441
X157988Y101092
X154178Y100076
X160782Y108458
X161290Y101473
X184277Y70104
X195326Y106553
X163576Y107442
X192405Y95250
X190246Y95250
X194183Y90678
X195326Y88392
X205232Y98044
X204216Y98806
X153670Y114046
X207772Y96012
X209804Y96012
X209804Y98552
X209677Y93472
X160020Y61849
X157480Y61849
X160655Y86868
X198120Y61722
X181610Y96393
X166624Y105410
X188976Y77597
X57150Y24130
X159360Y94488
X166370Y72390
X164084Y96520
X169926Y108712
X199390Y108966
X212090Y109728
X153670Y112014
X207264Y72136
X166116Y71120
X153670Y113030
X201803Y106680
X204470Y68326
X151130Y80264
X152146Y92964
X162814Y102362
X169418Y102362
X196850Y113284
X172466Y105918
X209296Y107950
X207010Y76454
X209550Y113284
X162814Y104394
X190246Y112268
X210820Y88138
X212090Y112268
X214630Y107696
X190881Y73914
X191440Y98755
X199390Y100736
X207010Y89408
X209296Y88392
X204978Y88392
X203708Y88392
X201168Y87884
X202438Y88392
X196850Y86868
X205994Y95504
X192786Y72136
X160655Y84582
X57150Y26670
X198120Y78994
X199390Y106680
X200406Y80772
X172466Y108458
X160655Y88392
X160655Y106680
X160045Y95555
X177292Y108458
X180086Y110236
X202184Y78740
X201930Y67310
X201930Y70358
X155956Y80518
X199517Y89408
X194056Y108458
X198120Y102362
X197561Y88646
X193802Y106680
X195050Y85344
X177546Y106807
X195453Y104648
X177800Y81788
X192786Y90170
X193294Y99568
X196850Y77724
X197739Y106045
X200660Y106680
X178460Y71628
X183007Y72898
X182880Y76708
X180975Y84836
X179070Y79248
X178943Y87757
X180594Y74422
X182880Y80518
X188976Y87884
X168656Y98552
X160020Y77978
X156972Y98552
X156972Y103251
X177800Y84328
X177292Y91694
X182880Y89154
X182880Y81788
X179070Y80264
X181356Y70104
X209550Y100838
X207518Y106172
X209550Y106172
X168402Y72644
X191770Y61722
X198120Y66548
X191770Y66548
X194818Y78994
X184658Y78486
X184658Y74168
X184658Y84074
X176530Y76073
X180975Y87122
X188976Y84836
X179070Y70358
X188595Y70358
X7366Y45466
X161290Y68580
X183896Y105283
X209550Y72517
X160655Y85598
X157480Y60706
X189611Y91694
X189103Y94234
X184658Y86614
X184023Y95123
X7493Y37465
X41910Y11430
X48260Y11430
X46990Y11430
X38989Y15240
X43180Y16510
X39370Y20320
X16510Y19050
X189916Y74905
X179121Y65659
X229870Y64262
X15240Y19050
X13970Y19050
X57150Y39370
X257810Y86868
X248412Y65278
X227838Y66548
X229108Y66548
X226568Y66548
X234950Y59690
X232410Y59690
X243586Y94234
X236474Y105410
X244983Y90932
X263652Y90678
X284480Y85598
X284480Y84328
X284480Y83058
X284480Y81788
X284480Y80518
X284480Y79248
X284480Y77978
X279400Y80518
X279400Y79248
X279400Y77978
X281940Y80518
X281940Y79248
X281940Y77978
X281940Y84328
X281940Y83058
X281940Y85598
X232156Y104394
X232283Y96393
X266700Y70358
X273050Y70358
X271780Y70358
X263779Y74168
X267970Y75438
X264160Y79248
X241300Y77978
X240030Y77978
X238760Y77978
X281940Y98298
X275590Y103632
X284480Y110998
X257556Y108458
X255016Y108458
X260096Y108458
X279400Y110998
X281940Y110998
X251079Y67691
X245110Y60833
X246380Y60833
X247650Y60833
X233680Y81788
X234950Y81788
X233680Y80518
X234950Y80518
X227330Y85598
X227330Y86868
X227330Y88138
X227330Y89408
X236474Y59690
X234950Y60706
X249667Y93027
X263652Y91694
X263652Y89662
X232410Y81788
X232410Y80518
X287020Y61468
X284480Y61468
X281940Y61468
X279400Y61468
X276860Y61468
X289560Y61468
X274320Y61468
X271780Y61468
X269240Y61468
X287020Y114808
X284480Y114808
X281940Y114808
X279400Y114808
X276860Y114808
X289560Y114808
X289560Y109093
X287274Y108458
X264160Y61087
X261620Y61087
X259080Y61087
X256540Y61087
X254000Y61087
X251460Y61087
X274320Y115189
X271780Y115189
X269240Y115189
X265176Y115189
X267716Y115189
X262636Y115189
X260096Y115189
X257556Y115189
X255016Y115189
X252476Y115189
X249936Y115189
X247396Y115189
X244856Y115189
X242316Y115189
X238760Y69088
X286385Y93472
X284480Y71628
X281305Y72644
X272542Y80010
X277622Y77343
X275336Y81661
X270383Y86868
X278003Y87630
X281305Y87630
X286639Y98298
X264160Y82550
X266700Y67564
X251587Y77470
X229870Y116078
X230505Y109728
X249936Y110617
X239014Y95377
X253238Y85217
X254889Y73533
X275209Y72517
X241681Y103378
X247396Y113157
X271780Y110998
X269240Y99568
X268859Y93726
X266446Y89662
X242316Y72898
X274320Y108077
X268986Y102870
X253619Y100203
X259715Y101473
X254000Y89789
X244348Y106045
X253492Y95123
X257810Y91821
X264668Y85344
X284988Y107188
X267716Y106807
X235585Y89535
X232410Y90678
X264795Y101600
X238760Y108458
X264795Y105537
X236220Y112522
X242570Y112268
X251460Y102743
X245745Y96393
X243840Y100838
X259588Y104648
X227330Y61849
X273304Y106680
X227330Y60960
X277241Y99441
X273152Y87478
X272669Y93497
X271424Y94869
X254000Y67716
X259080Y67716
X259080Y65278
X246380Y76708
X232918Y99441
X232918Y101092
X229108Y100076
X235712Y108458
X236220Y101473
X259207Y70104
X270256Y106553
X238506Y107442
X267335Y95250
X265176Y95250
X269113Y90678
X270256Y88392
X280162Y98044
X279146Y98806
X228600Y114046
X282702Y96012
X284734Y96012
X284734Y98552
X284607Y93472
X234950Y61849
X232410Y61849
X235585Y86868
X273050Y61722
X256540Y96393
X241554Y105410
X263906Y77597
X50800Y44704
X234290Y94488
X241300Y72390
X239014Y96520
X244856Y108712
X274320Y108966
X287020Y109728
X228600Y112014
X282194Y72136
X241046Y71120
X228600Y113030
X276733Y106680
X279400Y68326
X226060Y80264
X227076Y92964
X237744Y102362
X244348Y102362
X271780Y113284
X247396Y105918
X284226Y107950
X281940Y76454
X284480Y113284
X237744Y104394
X265176Y112268
X285750Y88138
X287020Y112268
X289560Y107696
X265811Y73914
X266370Y98755
X274320Y100736
X281940Y89408
X284226Y88392
X279908Y88392
X278638Y88392
X276098Y87884
X277368Y88392
X271780Y86868
X280924Y95504
X267716Y72136
X235585Y84582
X59690Y52070
X273050Y78994
X274320Y106680
X275336Y80772
X247396Y108458
X235585Y88392
X235585Y106680
X234975Y95555
X252222Y108458
X255016Y110236
X277114Y78740
X276860Y67310
X276860Y70358
X230886Y80518
X274447Y89408
X268986Y108458
X273050Y102362
X272491Y88646
X268732Y106680
X269980Y85344
X252476Y106807
X270383Y104648
X252730Y81788
X267716Y90170
X268224Y99568
X271780Y77724
X272669Y106045
X275590Y106680
X32766Y49530
X257937Y72898
X257810Y76708
X255905Y84836
X254000Y79248
X253873Y87757
X255524Y74422
X257810Y80518
X263906Y87884
X243586Y98552
X234950Y77978
X231902Y98552
X231902Y103251
X252730Y84328
X252222Y91694
X257810Y89154
X257810Y81788
X254000Y80264
X256286Y70104
X284480Y100838
X282448Y106172
X284480Y106172
X243332Y72644
X266700Y61722
X273050Y66548
X266700Y66548
X269748Y78994
X259588Y78486
X259588Y74168
X259588Y84074
X251460Y76073
X255905Y87122
X263906Y84836
X254000Y70358
X263525Y70358
X30226Y49530
X236220Y68580
X258826Y105283
X284480Y72517
X235585Y85598
X232410Y60706
X264541Y91694
X264033Y94234
X259588Y86614
X258953Y95123
X35306Y49530
X54610Y52070
X57150Y52070
X26289Y8763
X20320Y1905
X21590Y1905
X22860Y1905
X8890Y22860
X264846Y74905
X254051Y65659
X304800Y64262
X10160Y22860
X8890Y21590
X10160Y21590
X332740Y86868
X323342Y65278
X302768Y66548
X304038Y66548
X301498Y66548
X309880Y59690
X307340Y59690
X318516Y94234
X311404Y105410
X319913Y90932
X338582Y90678
X359410Y85598
X359410Y84328
X359410Y83058
X359410Y81788
X359410Y80518
X359410Y79248
X359410Y77978
X354330Y80518
X354330Y79248
X354330Y77978
X356870Y80518
X356870Y79248
X356870Y77978
X356870Y84328
X356870Y83058
X356870Y85598
X307086Y104394
X307213Y96393
X341630Y70358
X347980Y70358
X346710Y70358
X338709Y74168
X342900Y75438
X339090Y79248
X316230Y77978
X314960Y77978
X313690Y77978
X356870Y98298
X350520Y103632
X359410Y110998
X332486Y108458
X329946Y108458
X335026Y108458
X354330Y110998
X356870Y110998
X326009Y67691
X320040Y60833
X321310Y60833
X322580Y60833
X308610Y81788
X309880Y81788
X308610Y80518
X309880Y80518
X302260Y85598
X302260Y86868
X302260Y88138
X302260Y89408
X311404Y59690
X309880Y60706
X324597Y93027
X338582Y91694
X338582Y89662
X307340Y81788
X307340Y80518
X361950Y61468
X359410Y61468
X356870Y61468
X354330Y61468
X351790Y61468
X364490Y61468
X349250Y61468
X346710Y61468
X344170Y61468
X361950Y114808
X359410Y114808
X356870Y114808
X354330Y114808
X351790Y114808
X364490Y114808
X364490Y109093
X362204Y108458
X339090Y61087
X336550Y61087
X334010Y61087
X331470Y61087
X328930Y61087
X326390Y61087
X349250Y115189
X346710Y115189
X344170Y115189
X340106Y115189
X342646Y115189
X337566Y115189
X335026Y115189
X332486Y115189
X329946Y115189
X327406Y115189
X324866Y115189
X322326Y115189
X319786Y115189
X317246Y115189
X313690Y69088
X361315Y93472
X359410Y71628
X356235Y72644
X347472Y80010
X352552Y77343
X350266Y81661
X345313Y86868
X352933Y87630
X356235Y87630
X361569Y98298
X339090Y82550
X341630Y67564
X326517Y77470
X304800Y116078
X305435Y109728
X324866Y110617
X313944Y95377
X328168Y85217
X329819Y73533
X350139Y72517
X316611Y103378
X322326Y113157
X346710Y110998
X344170Y99568
X343789Y93726
X341376Y89662
X317246Y72898
X349250Y108077
X343916Y102870
X328549Y100203
X334645Y101473
X328930Y89789
X319278Y106045
X328422Y95123
X332740Y91821
X339598Y85344
X359918Y107188
X342646Y106807
X310515Y89535
X307340Y90678
X339725Y101600
X313690Y108458
X339725Y105537
X311150Y112522
X317500Y112268
X326390Y102743
X320675Y96393
X318770Y100838
X334518Y104648
X302260Y61849
X348234Y106680
X302260Y60960
X352171Y99441
X348082Y87478
X347599Y93497
X346354Y94869
X328930Y67716
X334010Y67716
X334010Y65278
X321310Y76708
X307848Y99441
X307848Y101092
X304038Y100076
X310642Y108458
X311150Y101473
X334137Y70104
X345186Y106553
X313436Y107442
X342265Y95250
X340106Y95250
X344043Y90678
X345186Y88392
X355092Y98044
X354076Y98806
X303530Y114046
X357632Y96012
X359664Y96012
X359664Y98552
X359537Y93472
X309880Y61849
X307340Y61849
X310515Y86868
X347980Y61722
X331470Y96393
X316484Y105410
X338836Y77597
X2540Y26670
X309220Y94488
X316230Y72390
X313944Y96520
X319786Y108712
X349250Y108966
X361950Y109728
X303530Y112014
X357124Y72136
X315976Y71120
X303530Y113030
X351663Y106680
X354330Y68326
X300990Y80264
X302006Y92964
X312674Y102362
X319278Y102362
X346710Y113284
X322326Y105918
X359156Y107950
X356870Y76454
X359410Y113284
X312674Y104394
X340106Y112268
X360680Y88138
X361950Y112268
X364490Y107696
X340741Y73914
X341300Y98755
X349250Y100736
X356870Y89408
X359156Y88392
X354838Y88392
X353568Y88392
X351028Y87884
X352298Y88392
X346710Y86868
X355854Y95504
X342646Y72136
X310515Y84582
X2540Y27940
X347980Y78994
X349250Y106680
X350266Y80772
X322326Y108458
X310515Y88392
X310515Y106680
X309905Y95555
X327152Y108458
X329946Y110236
X352044Y78740
X351790Y67310
X351790Y70358
X305816Y80518
X349377Y89408
X343916Y108458
X347980Y102362
X347421Y88646
X343662Y106680
X344910Y85344
X327406Y106807
X345313Y104648
X327660Y81788
X342646Y90170
X343154Y99568
X346710Y77724
X347599Y106045
X350520Y106680
X328320Y71628
X332867Y72898
X332740Y76708
X330835Y84836
X328930Y79248
X328803Y87757
X330454Y74422
X332740Y80518
X338836Y87884
X318516Y98552
X309880Y77978
X306832Y98552
X306832Y103251
X327660Y84328
X327152Y91694
X332740Y89154
X332740Y81788
X328930Y80264
X331216Y70104
X359410Y100838
X357378Y106172
X359410Y106172
X318262Y72644
X341630Y61722
X347980Y66548
X341630Y66548
X344678Y78994
X334518Y78486
X334518Y74168
X334518Y84074
X326390Y76073
X330835Y87122
X338836Y84836
X328930Y70358
X338455Y70358
X2540Y29210
X311150Y68580
X333756Y105283
X359410Y72517
X310515Y85598
X307340Y60706
X339471Y91694
X338963Y94234
X334518Y86614
X333883Y95123
X2540Y30480
X11684Y762
X10160Y1778
X24877Y34100
X38862Y32766
X38862Y30734
X7620Y22860
X7620Y21590
X339776Y74905
X328981Y65659
X62230Y2540
X59690Y2540
X57150Y2540
X54610Y2540
X52070Y2540
X64770Y2540
X49530Y2540
X46990Y2540
X44450Y2540
X62230Y55880
X59690Y55880
X57150Y55880
X54610Y55880
X52070Y55880
X64770Y55880
X64770Y50165
X62484Y49530
X39370Y2159
X36830Y2159
X34290Y2159
X31750Y2159
X29210Y2159
X26670Y2159
X49530Y56261
X46990Y56261
X44450Y56261
X40386Y56261
X42926Y56261
X37846Y56261
X35306Y56261
X32766Y56261
X30226Y56261
X27686Y56261
X25146Y56261
X22606Y56261
X20066Y56261
X17526Y56261
X13970Y10160
X61595Y34544
X59690Y12700
X56515Y13716
X47752Y21082
X52832Y18415
X50546Y22733
X45593Y27940
X53213Y28702
X56515Y28702
X61849Y39370
X39370Y23622
X41910Y8636
X26797Y18542
X5080Y57150
X5715Y50800
X25146Y51689
X14224Y36449
X28448Y26289
X30099Y14605
X50419Y13589
X16891Y44450
X22606Y54229
X46990Y52070
X44450Y40640
X44069Y34798
X41656Y30734
X17526Y13970
X49530Y49149
X44196Y43942
X28829Y41275
X34925Y42545
X29210Y30861
X19558Y47117
X28702Y36195
X33020Y32893
X39878Y26416
X60198Y48260
X42926Y47879
X10795Y30607
X7620Y31750
X40005Y42672
X13970Y49530
X40005Y46609
X11430Y53594
X17780Y53340
X26670Y43815
X20955Y37465
X19050Y41910
X34798Y45720
X2540Y2921
X48514Y47752
X2540Y2032
X52451Y40513
X48362Y28550
X47879Y34569
X46634Y35941
X59690Y100838
X29210Y8788
X34290Y8788
X34290Y6350
X21590Y17780
X8128Y40513
X8128Y42164
X4318Y41148
X10922Y49530
X11430Y42545
X34417Y11176
X45466Y47625
X13716Y48514
X42545Y36322
X40386Y36322
X44323Y31750
X45466Y29464
X55372Y39116
X54356Y39878
X3810Y55118
X57912Y37084
X59944Y37084
X59944Y39624
X59817Y34544
X10160Y2921
X7620Y2921
X10795Y27940
X48260Y2794
X31750Y37465
X16764Y46482
X39116Y18669
X9500Y35560
X16510Y13462
X14224Y37592
X20066Y49784
X49530Y50038
X62230Y50800
X3810Y53086
X57404Y13208
X16256Y12192
X3810Y54102
X51943Y47752
X54610Y9398
X1270Y21336
X2286Y34036
X12954Y43434
X19558Y43434
X46990Y54356
X22606Y46990
X59436Y49022
X57150Y17526
X59690Y54356
X12954Y45466
X40386Y53340
X60960Y29210
X62230Y53340
X64770Y48768
X41021Y14986
X41580Y39827
X49530Y41808
X57150Y30480
X59436Y29464
X55118Y29464
X53848Y29464
X51308Y28956
X52578Y29464
X46990Y27940
X56134Y36576
X42926Y13208
X10795Y25654
X48260Y20066
X49530Y47752
X50546Y21844
X22606Y49530
X10795Y29464
X10795Y47752
X10185Y36627
X27432Y49530
X30226Y51308
X52324Y19812
X52070Y8382
X52070Y11430
X6096Y21590
X49657Y30480
X44196Y49530
X48260Y43434
X47701Y29718
X43942Y47752
X45190Y26416
X27686Y47879
X45593Y45720
X27940Y22860
X42926Y31242
X43434Y40640
X46990Y18796
X47879Y47117
X50800Y47752
X28600Y12700
X33147Y13970
X33020Y17780
X31115Y25908
X29210Y20320
X29083Y28829
X30734Y15494
X33020Y21590
X39116Y28956
X18796Y39624
X10160Y19050
X7112Y39624
X7112Y44323
X27940Y25400
X27432Y32766
X33020Y30226
X33020Y22860
X29210Y21336
X31496Y11176
X59690Y41910
X57658Y47244
X59690Y47244
X18542Y13716
X41910Y2794
X48260Y7620
X41910Y7620
X44958Y20066
X34798Y19558
X34798Y15240
X34798Y25146
X26670Y17145
X31115Y28194
X39116Y25908
X29210Y11430
X38735Y11430
X11430Y9652
X34036Y46355
X59690Y13589
X10795Y26670
X7620Y1778
X39751Y32766
X39243Y35306
X34798Y27686
X34163Y36195
X40056Y15977
X29261Y6731
X80010Y5334
X107950Y27940
X98552Y6350
X77978Y7620
X79248Y7620
X76708Y7620
X85090Y762
X82550Y762
X93726Y35306
X86614Y46482
X95123Y32004
X113792Y31750
X134620Y26670
X134620Y25400
X134620Y24130
X134620Y22860
X134620Y21590
X134620Y20320
X134620Y19050
X129540Y21590
X129540Y20320
X129540Y19050
X132080Y21590
X132080Y20320
X132080Y19050
X132080Y25400
X132080Y24130
X132080Y26670
X82296Y45466
X82423Y37465
X116840Y11430
X123190Y11430
X121920Y11430
X113919Y15240
X118110Y16510
X114300Y20320
X91440Y19050
X90170Y19050
X88900Y19050
X132080Y39370
X125730Y44704
X134620Y52070
X107696Y49530
X105156Y49530
X110236Y49530
X129540Y52070
X132080Y52070
X101219Y8763
X95250Y1905
X96520Y1905
X97790Y1905
X83820Y22860
X85090Y22860
X83820Y21590
X85090Y21590
X77470Y26670
X77470Y27940
X77470Y29210
X77470Y30480
X86614Y762
X85090Y1778
X99807Y34100
X113792Y32766
X113792Y30734
X82550Y22860
X82550Y21590
X137160Y2540
X134620Y2540
X132080Y2540
X129540Y2540
X127000Y2540
X139700Y2540
X124460Y2540
X121920Y2540
X119380Y2540
X137160Y55880
X134620Y55880
X132080Y55880
X129540Y55880
X127000Y55880
X139700Y55880
X139700Y50165
X137414Y49530
X114300Y2159
X111760Y2159
X109220Y2159
X106680Y2159
X104140Y2159
X101600Y2159
X124460Y56261
X121920Y56261
X119380Y56261
X115316Y56261
X117856Y56261
X112776Y56261
X110236Y56261
X107696Y56261
X105156Y56261
X102616Y56261
X100076Y56261
X97536Y56261
X94996Y56261
X92456Y56261
X88900Y10160
X136525Y34544
X134620Y12700
X131445Y13716
X122682Y21082
X127762Y18415
X125476Y22733
X120523Y27940
X128143Y28702
X131445Y28702
X136779Y39370
X114300Y23622
X116840Y8636
X101727Y18542
X80010Y57150
X80645Y50800
X100076Y51689
X89154Y36449
X103378Y26289
X105029Y14605
X125349Y13589
X91821Y44450
X97536Y54229
X121920Y52070
X119380Y40640
X118999Y34798
X116586Y30734
X92456Y13970
X124460Y49149
X119126Y43942
X103759Y41275
X109855Y42545
X104140Y30861
X94488Y47117
X103632Y36195
X107950Y32893
X114808Y26416
X135128Y48260
X117856Y47879
X85725Y30607
X82550Y31750
X114935Y42672
X88900Y49530
X86360Y53594
X92710Y53340
X101600Y43815
X95885Y37465
X93980Y41910
X109728Y45720
X77470Y2921
X123444Y47752
X77470Y2032
X127381Y40513
X123292Y28550
X122809Y34569
X121564Y35941
X104140Y8788
X109220Y8788
X109220Y6350
X96520Y17780
X83058Y40513
X83058Y42164
X79248Y41148
X85852Y49530
X86360Y42545
X109347Y11176
X120396Y47625
X88646Y48514
X117475Y36322
X115316Y36322
X119253Y31750
X120396Y29464
X130302Y39116
X129286Y39878
X78740Y55118
X132842Y37084
X134874Y37084
X134874Y39624
X134747Y34544
X85090Y2921
X82550Y2921
X85725Y27940
X123190Y2794
X106680Y37465
X91694Y46482
X114046Y18669
X84430Y35560
X91440Y13462
X89154Y37592
X94996Y49784
X124460Y50038
X137160Y50800
X78740Y53086
X132334Y13208
X91186Y12192
X78740Y54102
X126873Y47752
X129540Y9398
X76200Y21336
X77216Y34036
X87884Y43434
X94488Y43434
X121920Y54356
X97536Y46990
X134366Y49022
X132080Y17526
X134620Y54356
X87884Y45466
X115316Y53340
X135890Y29210
X137160Y53340
X139700Y48768
X115951Y14986
X116510Y39827
X124460Y41808
X132080Y30480
X134366Y29464
X130048Y29464
X128778Y29464
X126238Y28956
X127508Y29464
X121920Y27940
X131064Y36576
X117856Y13208
X85725Y25654
X123190Y20066
X124460Y47752
X125476Y21844
X97536Y49530
X85725Y29464
X85725Y47752
X85115Y36627
X102362Y49530
X105156Y51308
X127254Y19812
X127000Y8382
X127000Y11430
X81026Y21590
X124587Y30480
X119126Y49530
X123190Y43434
X122631Y29718
X118872Y47752
X120120Y26416
X102616Y47879
X120523Y45720
X102870Y22860
X117856Y31242
X118364Y40640
X121920Y18796
X122809Y47117
X125730Y47752
X103530Y12700
X108077Y13970
X107950Y17780
X106045Y25908
X104140Y20320
X104013Y28829
X105664Y15494
X107950Y21590
X114046Y28956
X93726Y39624
X85090Y19050
X82042Y39624
X82042Y44323
X102870Y25400
X102362Y32766
X107950Y30226
X107950Y22860
X104140Y21336
X106426Y11176
X134620Y41910
X132588Y47244
X134620Y47244
X93472Y13716
X116840Y2794
X123190Y7620
X116840Y7620
X119888Y20066
X109728Y19558
X109728Y15240
X109728Y25146
X101600Y17145
X106045Y28194
X114046Y25908
X104140Y11430
X113665Y11430
X86360Y9652
X108966Y46355
X134620Y13589
X85725Y26670
X82550Y1778
X114681Y32766
X114173Y35306
X109728Y27686
X109093Y36195
X114986Y15977
X104191Y6731
X154940Y5334
X182880Y27940
X173482Y6350
X152908Y7620
X154178Y7620
X151638Y7620
X160020Y762
X157480Y762
X168656Y35306
X161544Y46482
X170053Y32004
X188722Y31750
X209550Y26670
X209550Y25400
X209550Y24130
X209550Y22860
X209550Y21590
X209550Y20320
X209550Y19050
X204470Y21590
X204470Y20320
X253390Y71628
M30