M48
;GenerationSoftware,Autodesk,EAGLE,9.6.2*%
;CreationDate,2021-12-27T19:24:59Z*%
FMAT,2
ICI,OFF
METRIC,TZ,000.000
T8C0.305
T7C0.381
T6C0.400
T5C0.432
T4C0.650
T3C1.016
T2C2.032
T1C3.302
%
G90
M71
T1
X138938Y97028
X88138Y112268
X86868Y181864
X138938Y186944
X15240Y230124
X13970Y64008
X159766Y64008
X211836Y69088
X211836Y97028
X161036Y112268
X138938Y214884
X88138Y230124
X159766Y5080
X211836Y10160
X13970Y122936
X66040Y128016
X66040Y155956
X15240Y171196
X211836Y38100
X161036Y53340
X211836Y214884
X161036Y230124
X86868Y122936
X138938Y128016
X138938Y155956
X88138Y171196
X66040Y69088
X66040Y97028
X15240Y112268
X86868Y64008
X159766Y122936
X211836Y128016
X211836Y155956
X161036Y171196
X159766Y181864
X211836Y186944
X138938Y69088
X13970Y5080
X66040Y10160
X66040Y38100
X15240Y53340
X13970Y181864
X66040Y186944
X86868Y5080
X138938Y10160
X138938Y38100
X88138Y53340
X66040Y214884
T2
X74930Y70104
X79502Y70104
X147828Y70104
X152400Y70104
X147828Y187960
X152400Y187960
X2032Y129032
X6604Y129032
X74930Y187960
X79502Y187960
X74930Y129032
X79502Y129032
X147828Y11176
X152400Y11176
X147828Y129032
X74930Y11176
X152400Y129032
X2032Y11176
X2032Y187960
X6604Y187960
X2032Y70104
X6604Y70104
X6604Y11176
X79502Y11176
T3
X20320Y12700
X209296Y175006
X206756Y175006
X204216Y175006
X201676Y175006
X199136Y175006
X196596Y175006
X194056Y175006
X168656Y189484
X191516Y175006
X165481Y158496
X165481Y161036
X166116Y130556
X168656Y130556
X18796Y233934
X21336Y233934
X23876Y233934
X26416Y233934
X28956Y233934
X31496Y233934
X34036Y233934
X36576Y233934
X39116Y233934
X41656Y233934
X27940Y178054
X30480Y178054
X33020Y178054
X35560Y178054
X38100Y178054
X40640Y178054
X43180Y178054
X45720Y178054
X50800Y178054
X53340Y178054
X55880Y178054
X58420Y178054
X50800Y60198
X60960Y178054
X63500Y178054
X63500Y233934
X60960Y233934
X58420Y233934
X55880Y233934
X53340Y233934
X50800Y233934
X48260Y233934
X45720Y233934
X19685Y217424
X19685Y219964
X20320Y189484
X22860Y189484
X55880Y119126
X91694Y233934
X94234Y233934
X96774Y233934
X101854Y233934
X104394Y233934
X106934Y233934
X109474Y233934
X112014Y233934
X114554Y233934
X100838Y178054
X103378Y178054
X105918Y178054
X108458Y178054
X110998Y178054
X18796Y57150
X21336Y57150
X23876Y57150
X26416Y57150
X28956Y57150
X31496Y57150
X34036Y57150
X36576Y57150
X39116Y57150
X41656Y57150
X27940Y1270
X30480Y1270
X33020Y1270
X35560Y1270
X38100Y1270
X40640Y1270
X43180Y1270
X45720Y1270
X50800Y1270
X53340Y1270
X55880Y1270
X58420Y1270
X60960Y1270
X63500Y1270
X63500Y57150
X60960Y57150
X58420Y57150
X55880Y57150
X53340Y57150
X50800Y57150
X48260Y57150
X45720Y57150
X113538Y178054
X116078Y178054
X118618Y178054
X123698Y178054
X126238Y178054
X128778Y178054
X131318Y178054
X133858Y178054
X136398Y178054
X136398Y233934
X19685Y40640
X19685Y43180
X133858Y233934
X22860Y12700
X131318Y233934
X128778Y233934
X126238Y233934
X123698Y233934
X91694Y57150
X94234Y57150
X96774Y57150
X99314Y57150
X101854Y57150
X104394Y57150
X106934Y57150
X109474Y57150
X112014Y57150
X114554Y57150
X100838Y1270
X103378Y1270
X105918Y1270
X108458Y1270
X110998Y1270
X113538Y1270
X116078Y1270
X118618Y1270
X123698Y1270
X126238Y1270
X128778Y1270
X131318Y1270
X133858Y1270
X136398Y1270
X136398Y57150
X133858Y57150
X131318Y57150
X128778Y57150
X126238Y57150
X123698Y57150
X121158Y57150
X118618Y57150
X121158Y233934
X118618Y233934
X92583Y217424
X92583Y219964
X93218Y189484
X95758Y189484
X164592Y233934
X167132Y233934
X169672Y233934
X172212Y233934
X92583Y40640
X92583Y43180
X93218Y12700
X95758Y12700
X174752Y233934
X177292Y233934
X179832Y233934
X182372Y233934
X164592Y57150
X167132Y57150
X169672Y57150
X172212Y57150
X174752Y57150
X177292Y57150
X179832Y57150
X182372Y57150
X184912Y57150
X187452Y57150
X173736Y1270
X176276Y1270
X178816Y1270
X181356Y1270
X183896Y1270
X186436Y1270
X188976Y1270
X191516Y1270
X196596Y1270
X199136Y1270
X201676Y1270
X204216Y1270
X206756Y1270
X209296Y1270
X209296Y57150
X206756Y57150
X204216Y57150
X201676Y57150
X199136Y57150
X196596Y57150
X194056Y57150
X191516Y57150
X184912Y233934
X187452Y233934
X173736Y178054
X176276Y178054
X178816Y178054
X123698Y116078
X181356Y178054
X183896Y178054
X186436Y178054
X188976Y178054
X165481Y40640
X165481Y43180
X166116Y12700
X168656Y12700
X191516Y178054
X196596Y178054
X199136Y178054
X201676Y178054
X18796Y116078
X21336Y116078
X23876Y116078
X26416Y116078
X28956Y116078
X31496Y116078
X34036Y116078
X36576Y116078
X39116Y116078
X41656Y116078
X27940Y60198
X30480Y60198
X33020Y60198
X35560Y60198
X38100Y60198
X40640Y60198
X43180Y60198
X45720Y60198
X53340Y60198
X55880Y60198
X58420Y60198
X60960Y60198
X63500Y60198
X63500Y116078
X60960Y116078
X58420Y116078
X55880Y116078
X53340Y116078
X50800Y116078
X48260Y116078
X45720Y116078
X204216Y178054
X206756Y178054
X209296Y178054
X209296Y233934
X206756Y233934
X204216Y233934
X201676Y233934
X199136Y233934
X196596Y233934
X194056Y233934
X19685Y99568
X19685Y102108
X20320Y71628
X22860Y71628
X191516Y233934
X165481Y217424
X165481Y219964
X166116Y189484
X91694Y116078
X94234Y116078
X96774Y116078
X99314Y116078
X101854Y116078
X104394Y116078
X106934Y116078
X109474Y116078
X112014Y116078
X114554Y116078
X100838Y60198
X103378Y60198
X105918Y60198
X108458Y60198
X110998Y60198
X113538Y60198
X116078Y60198
X118618Y60198
X123698Y60198
X126238Y60198
X128778Y60198
X131318Y60198
X133858Y60198
X136398Y60198
X136398Y116078
X133858Y116078
X131318Y116078
X128778Y116078
X126238Y116078
X99314Y233934
X121158Y116078
X118618Y116078
X92583Y99568
X92583Y102108
X93218Y71628
X95758Y71628
X164592Y116078
X167132Y116078
X169672Y116078
X172212Y116078
X174752Y116078
X177292Y116078
X179832Y116078
X182372Y116078
X184912Y116078
X187452Y116078
X173736Y60198
X176276Y60198
X178816Y60198
X181356Y60198
X183896Y60198
X186436Y60198
X188976Y60198
X191516Y60198
X196596Y60198
X199136Y60198
X201676Y60198
X204216Y60198
X206756Y60198
X209296Y60198
X209296Y116078
X206756Y116078
X204216Y116078
X201676Y116078
X199136Y116078
X196596Y116078
X194056Y116078
X191516Y116078
X165481Y99568
X165481Y102108
X166116Y71628
X168656Y71628
X18796Y175006
X21336Y175006
X23876Y175006
X26416Y175006
X28956Y175006
X31496Y175006
X34036Y175006
X36576Y175006
X39116Y175006
X41656Y175006
X27940Y119126
X30480Y119126
X33020Y119126
X35560Y119126
X38100Y119126
X40640Y119126
X43180Y119126
X45720Y119126
X50800Y119126
X53340Y119126
X58420Y119126
X60960Y119126
X63500Y119126
X63500Y175006
X60960Y175006
X58420Y175006
X55880Y175006
X53340Y175006
X50800Y175006
X48260Y175006
X45720Y175006
X19685Y158496
X19685Y161036
X20320Y130556
X22860Y130556
X91694Y175006
X94234Y175006
X96774Y175006
X99314Y175006
X101854Y175006
X104394Y175006
X106934Y175006
X109474Y175006
X112014Y175006
X114554Y175006
X100838Y119126
X103378Y119126
X105918Y119126
X108458Y119126
X110998Y119126
X113538Y119126
X116078Y119126
X118618Y119126
X123698Y119126
X126238Y119126
X128778Y119126
X131318Y119126
X133858Y119126
X136398Y119126
X136398Y175006
X133858Y175006
X131318Y175006
X128778Y175006
X126238Y175006
X123698Y175006
X121158Y175006
X118618Y175006
X92583Y158496
X92583Y161036
X93218Y130556
X95758Y130556
X164592Y175006
X167132Y175006
X169672Y175006
X172212Y175006
X174752Y175006
X177292Y175006
X179832Y175006
X182372Y175006
X184912Y175006
X187452Y175006
X173736Y119126
X176276Y119126
X178816Y119126
X181356Y119126
X183896Y119126
X186436Y119126
X188976Y119126
X191516Y119126
X196596Y119126
X199136Y119126
X201676Y119126
X204216Y119126
X206756Y119126
X209296Y119126
T4
X150701Y221584
X4905Y162656
X77803Y162656
X77803Y156876
X150701Y162656
X150701Y156876
X4905Y221584
X4905Y215804
X77803Y221584
X77803Y215804
X4905Y156876
X150701Y215804
X4905Y44800
X4905Y39020
X77803Y44800
X77803Y39020
X150701Y44800
X150701Y39020
X4905Y103728
X4905Y97948
X77803Y103728
X77803Y97948
X150701Y103728
X150701Y97948
T5
X197866Y155956
X199136Y154686
X199136Y155956
X48260Y154686
X48260Y155956
X49530Y154686
X49530Y155956
X121158Y213614
X121158Y214884
X122428Y213614
X122428Y214884
X123698Y213614
X123698Y214884
X124968Y213614
X124968Y214884
X126238Y213614
X126238Y214884
X50800Y154686
X50800Y155956
X52070Y154686
X121158Y154686
X121158Y155956
X122428Y154686
X122428Y155956
X123698Y154686
X123698Y155956
X124968Y154686
X121158Y95758
X124968Y155956
X126238Y154686
X126238Y155956
X52070Y155956
X53340Y154686
X53340Y155956
X123698Y95758
X123698Y97028
X124968Y95758
X124968Y97028
X194056Y95758
X48260Y36830
X48260Y38100
X49530Y36830
X49530Y38100
X50800Y36830
X50800Y38100
X52070Y36830
X52070Y38100
X53340Y36830
X53340Y38100
X194056Y213614
X194056Y214884
X195326Y213614
X195326Y214884
X196596Y213614
X121158Y36830
X121158Y38100
X122428Y36830
X122428Y38100
X123698Y36830
X123698Y38100
X124968Y36830
X124968Y38100
X126238Y36830
X126238Y38100
X196596Y214884
X197866Y213614
X197866Y214884
X199136Y213614
X194056Y36830
X194056Y38100
X195326Y36830
X195326Y38100
X196596Y36830
X197866Y36830
X197866Y38100
X199136Y36830
X199136Y38100
X199136Y214884
X48260Y213614
X48260Y214884
X48260Y95758
X48260Y97028
X49530Y95758
X49530Y97028
X50800Y95758
X50800Y97028
X52070Y95758
X52070Y97028
X53340Y95758
X53340Y97028
X49530Y213614
X49530Y214884
X50800Y213614
X50800Y214884
X52070Y213614
X52070Y214884
X53340Y213614
X53340Y214884
X194056Y97028
X195326Y95758
X195326Y97028
X196596Y95758
X196596Y97028
X197866Y95758
X197866Y97028
X199136Y95758
X199136Y97028
X196596Y38100
X126238Y95758
X126238Y97028
X121158Y97028
X122428Y95758
X122428Y97028
X194056Y154686
X194056Y155956
X195326Y154686
X195326Y155956
X196596Y154686
X196596Y155956
X197866Y154686
T6
X1255Y96520
X5435Y96520
X1255Y164084
X1255Y155448
X1255Y223012
X1255Y214376
X147051Y164084
X147051Y155448
X151231Y155448
X151231Y164084
X5435Y155448
X151231Y96520
X151231Y105156
X5435Y214376
X74153Y164084
X74153Y155448
X78333Y155448
X78333Y164084
X5435Y223012
X147051Y223012
X147051Y214376
X151231Y214376
X151231Y223012
X5435Y164084
X5435Y105156
X147051Y105156
X74153Y223012
X74153Y214376
X78333Y214376
X78333Y223012
X78333Y105156
X74153Y105156
X78333Y46228
X74153Y96520
X1255Y46228
X1255Y37592
X5435Y37592
X5435Y46228
X147051Y96520
X74153Y46228
X74153Y37592
X78333Y37592
X78333Y96520
X147051Y46228
X147051Y37592
X151231Y37592
X151231Y46228
X1255Y105156
T7
X36830Y7620
X109728Y8890
X109728Y7620
X2134Y50038
X147930Y108966
X109728Y126746
X109728Y125476
X2134Y167894
X36830Y67818
X36830Y66548
X109728Y67818
X109728Y66548
X147930Y50038
X2134Y108966
X182626Y8890
X182626Y7620
X75032Y50038
X182626Y66548
X75032Y167894
X36830Y126746
X36830Y125476
X182626Y126746
X182626Y125476
X147930Y167894
X36830Y185674
X36830Y184404
X109728Y185674
X109728Y184404
X75032Y226822
X182626Y185674
X182626Y184404
X2134Y226822
X75032Y108966
X147930Y226822
X182626Y67818
X36830Y8890
T8
X7366Y104394
X8255Y96393
X8255Y97663
X24130Y98933
X24130Y100203
X41910Y70358
X48260Y70358
X46990Y70358
X39370Y74168
X39370Y75438
X39370Y76708
X39370Y77978
X39370Y79248
X3810Y81788
X3810Y83058
X3810Y84328
X6350Y80518
X6350Y81788
X6350Y83058
X7620Y80518
X7620Y81788
X7620Y83058
X8890Y80518
X8890Y81788
X8890Y83058
X10160Y80518
X10160Y81788
X10160Y83058
X2540Y85598
X2540Y86868
X2540Y88138
X2540Y89408
X2540Y90678
X2540Y81788
X2540Y83058
X2540Y84328
X3810Y85598
X16510Y77978
X15240Y77978
X13970Y77978
X57150Y98298
X50800Y102108
X52070Y102108
X59690Y110998
X39116Y103124
X43180Y103124
X32766Y108458
X30226Y108458
X35306Y108458
X54610Y110998
X57150Y110998
X27432Y69088
X24130Y96393
X20320Y60833
X21590Y60833
X22860Y60833
X48260Y62738
X48260Y61468
X21590Y76708
X2794Y105156
X7112Y98806
X7112Y103251
X8128Y99314
X8128Y101092
X4318Y100076
X34417Y70104
X49530Y101092
X43688Y93472
X45466Y88392
X54864Y98044
X52832Y98806
X4064Y87376
X34544Y100203
X15494Y108458
X10668Y113538
X57912Y96012
X59944Y96012
X59944Y98552
X59944Y92710
X5588Y94488
X9906Y62357
X12954Y60452
X7620Y62357
X32004Y96393
X16510Y72390
X14224Y96520
X20066Y108712
X49530Y108966
X62230Y109728
X8636Y113538
X57404Y72136
X16256Y71374
X12700Y96520
X9652Y113538
X51943Y106680
X41910Y68580
X12446Y102362
X24130Y103632
X46990Y113284
X22606Y105918
X59436Y107950
X57150Y76454
X59690Y113284
X12446Y104394
X25908Y99949
X40386Y112268
X60960Y88138
X62230Y112268
X64770Y109474
X41148Y73914
X41910Y99060
X57150Y89408
X59436Y88392
X55118Y88392
X53848Y88392
X51308Y87884
X52578Y88392
X46990Y86868
X55118Y94234
X10160Y91948
X36576Y104140
X47244Y73152
X47752Y78994
X49530Y106680
X8128Y91948
X27686Y109474
X50546Y80772
X22606Y108458
X4064Y90678
X30226Y110236
X52324Y78740
X52070Y67310
X52070Y73152
X9144Y91948
X35306Y106680
X59690Y72898
X49530Y89408
X44704Y107950
X48260Y102108
X47752Y88646
X44704Y106680
X45190Y85344
X27686Y105918
X45466Y105156
X27686Y81534
X41910Y101092
X42926Y90170
X46482Y77724
X47498Y106680
X50800Y106680
X28600Y71628
X33020Y72898
X33020Y76708
X30988Y84836
X29210Y79248
X29210Y86868
X38608Y87884
X30734Y74422
X33020Y80518
X5080Y110998
X5588Y107188
X27940Y84328
X27940Y92202
X33020Y89154
X33020Y81788
X29210Y80264
X31496Y70104
X59690Y100838
X57658Y106172
X59690Y106172
X16510Y61722
X18542Y72644
X41910Y61722
X41910Y67310
X44958Y78994
X34798Y78232
X34798Y74168
X34798Y84074
X26670Y76073
X31242Y86868
X39116Y84836
X29210Y77470
X29210Y70358
X38735Y70358
X10160Y73406
X10160Y70358
X11430Y68580
X17018Y97282
X77978Y64262
X105918Y86868
X96520Y65278
X75946Y66548
X77216Y66548
X74676Y66548
X83058Y59690
X80518Y59690
X84328Y59690
X89662Y94234
X96774Y93726
X84328Y105410
X75438Y114808
X75438Y116078
X77978Y116078
X77978Y114808
X77978Y113538
X79248Y113538
X93091Y90932
X111760Y90678
X132588Y85598
X132588Y84328
X132588Y83058
X132588Y81788
X132588Y80518
X132588Y79248
X132588Y77978
X127508Y80518
X127508Y79248
X127508Y77978
X130048Y80518
X130048Y79248
X130048Y77978
X130048Y84328
X130048Y83058
X130048Y85598
X80264Y104394
X81153Y96393
X81153Y97663
X97028Y98933
X97028Y100203
X114808Y70358
X121158Y70358
X119888Y70358
X112268Y74168
X112268Y75438
X112268Y76708
X112268Y77978
X112268Y79248
X76708Y81788
X76708Y83058
X76708Y84328
X79248Y80518
X79248Y81788
X79248Y83058
X80518Y80518
X80518Y81788
X80518Y83058
X81788Y80518
X81788Y81788
X81788Y83058
X83058Y80518
X83058Y81788
X83058Y83058
X75438Y85598
X75438Y86868
X75438Y88138
X75438Y89408
X75438Y90678
X75438Y81788
X75438Y83058
X75438Y84328
X76708Y85598
X89408Y77978
X88138Y77978
X86868Y77978
X130048Y98298
X123698Y102108
X124968Y102108
X132588Y110998
X112014Y103124
X116078Y103124
X105664Y108458
X103124Y108458
X108204Y108458
X127508Y110998
X130048Y110998
X100330Y69088
X97028Y96393
X93218Y60833
X94488Y60833
X95758Y60833
X121158Y62738
X121158Y61468
X94488Y76708
X75692Y105156
X80010Y98806
X80010Y103251
X81026Y99314
X81026Y101092
X77216Y100076
X107315Y70104
X122428Y101092
X116586Y93472
X118364Y88392
X127762Y98044
X125730Y98806
X76962Y87376
X107442Y100203
X88392Y108458
X83566Y113538
X130810Y96012
X132842Y96012
X132842Y98552
X132842Y92710
X78486Y94488
X82804Y62357
X85852Y60452
X80518Y62357
X104902Y96393
X89408Y72390
X87122Y96520
X92964Y108712
X122428Y108966
X135128Y109728
X81534Y113538
X130302Y72136
X89154Y71374
X85598Y96520
X82550Y113538
X124841Y106680
X114808Y68580
X85344Y102362
X97028Y103632
X119888Y113284
X95504Y105918
X132334Y107950
X130048Y76454
X132588Y113284
X85344Y104394
X98806Y99949
X113284Y112268
X133858Y88138
X135128Y112268
X137668Y109474
X114046Y73914
X114808Y99060
X130048Y89408
X132334Y88392
X128016Y88392
X126746Y88392
X124206Y87884
X125476Y88392
X119888Y86868
X128016Y94234
X83058Y91948
X109474Y104140
X120142Y73152
X120650Y78994
X122428Y106680
X81026Y91948
X100584Y109474
X123444Y80772
X95504Y108458
X76962Y90678
X103124Y110236
X125222Y78740
X124968Y67310
X124968Y73152
X82042Y91948
X108204Y106680
X132588Y72898
X122428Y89408
X117602Y107950
X121158Y102108
X120650Y88646
X117602Y106680
X118088Y85344
X100584Y105918
X118364Y105156
X100584Y81534
X114808Y101092
X115824Y90170
X119380Y77724
X120396Y106680
X123698Y106680
X101498Y71628
X105918Y72898
X105918Y76708
X103886Y84836
X102108Y79248
X102108Y86868
X111506Y87884
X103632Y74422
X105918Y80518
X77978Y110998
X78486Y107188
X100838Y84328
X100838Y92202
X105918Y89154
X105918Y81788
X102108Y80264
X104394Y70104
X132588Y100838
X130556Y106172
X132588Y106172
X89408Y61722
X91440Y72644
X114808Y61722
X114808Y67310
X117856Y78994
X107696Y78232
X107696Y74168
X107696Y84074
X99568Y76073
X104140Y86868
X112014Y84836
X102108Y77470
X102108Y70358
X111633Y70358
X83058Y73406
X83058Y70358
X84328Y68580
X89916Y97282
X150876Y64262
X178816Y86868
X169418Y65278
X148844Y66548
X150114Y66548
X147574Y66548
X155956Y59690
X153416Y59690
X157226Y59690
X162560Y94234
X169672Y93726
X157226Y105410
X148336Y114808
X148336Y116078
X150876Y116078
X150876Y114808
X150876Y113538
X152146Y113538
X165989Y90932
X184658Y90678
X205486Y85598
X205486Y84328
X205486Y83058
X205486Y81788
X205486Y80518
X205486Y79248
X205486Y77978
X200406Y80518
X200406Y79248
X200406Y77978
X202946Y80518
X202946Y79248
X202946Y77978
X202946Y84328
X202946Y83058
X202946Y85598
X153162Y104394
X154051Y96393
X154051Y97663
X169926Y98933
X169926Y100203
X187706Y70358
X194056Y70358
X192786Y70358
X185166Y74168
X185166Y75438
X185166Y76708
X185166Y77978
X185166Y79248
X149606Y81788
X149606Y83058
X149606Y84328
X152146Y80518
X152146Y81788
X152146Y83058
X153416Y80518
X153416Y81788
X153416Y83058
X154686Y80518
X154686Y81788
X154686Y83058
X155956Y80518
X155956Y81788
X155956Y83058
X148336Y85598
X148336Y86868
X148336Y88138
X148336Y89408
X148336Y90678
X148336Y81788
X148336Y83058
X148336Y84328
X149606Y85598
X162306Y77978
X161036Y77978
X159766Y77978
X202946Y98298
X196596Y102108
X197866Y102108
X205486Y110998
X184912Y103124
X188976Y103124
X178562Y108458
X176022Y108458
X181102Y108458
X200406Y110998
X202946Y110998
X173228Y69088
X169926Y96393
X166116Y60833
X167386Y60833
X168656Y60833
X194056Y62738
X194056Y61468
X167386Y76708
X148590Y105156
X152908Y98806
X152908Y103251
X153924Y99314
X153924Y101092
X150114Y100076
X180213Y70104
X195326Y101092
X189484Y93472
X191262Y88392
X200660Y98044
X198628Y98806
X149860Y87376
X180340Y100203
X161290Y108458
X156464Y113538
X203708Y96012
X205740Y96012
X205740Y98552
X205740Y92710
X151384Y94488
X155702Y62357
X158750Y60452
X153416Y62357
X177800Y96393
X162306Y72390
X160020Y96520
X165862Y108712
X195326Y108966
X208026Y109728
X154432Y113538
X203200Y72136
X162052Y71374
X158496Y96520
X155448Y113538
X197739Y106680
X187706Y68580
X158242Y102362
X169926Y103632
X192786Y113284
X168402Y105918
X205232Y107950
X202946Y76454
X205486Y113284
X158242Y104394
X171704Y99949
X186182Y112268
X206756Y88138
X208026Y112268
X210566Y109474
X186944Y73914
X187706Y99060
X202946Y89408
X205232Y88392
X200914Y88392
X199644Y88392
X197104Y87884
X198374Y88392
X192786Y86868
X200914Y94234
X155956Y91948
X182372Y104140
X193040Y73152
X193548Y78994
X195326Y106680
X153924Y91948
X173482Y109474
X196342Y80772
X168402Y108458
X149860Y90678
X176022Y110236
X198120Y78740
X197866Y67310
X197866Y73152
X154940Y91948
X181102Y106680
X205486Y72898
X195326Y89408
X190500Y107950
X194056Y102108
X193548Y88646
X190500Y106680
X190986Y85344
X173482Y105918
X191262Y105156
X173482Y81534
X187706Y101092
X188722Y90170
X192278Y77724
X193294Y106680
X196596Y106680
X174396Y71628
X178816Y72898
X178816Y76708
X176784Y84836
X175006Y79248
X175006Y86868
X184404Y87884
X176530Y74422
X178816Y80518
X150876Y110998
X151384Y107188
X173736Y84328
X173736Y92202
X178816Y89154
X178816Y81788
X175006Y80264
X177292Y70104
X205486Y100838
X203454Y106172
X205486Y106172
X162306Y61722
X164338Y72644
X187706Y61722
X187706Y67310
X190754Y78994
X180594Y78232
X180594Y74168
X180594Y84074
X172466Y76073
X177038Y86868
X184912Y84836
X175006Y77470
X175006Y70358
X184531Y70358
X155956Y73406
X155956Y70358
X157226Y68580
X162814Y97282
X5080Y123190
X33020Y145796
X23622Y124206
X3048Y125476
X4318Y125476
X1778Y125476
X10160Y118618
X7620Y118618
X11430Y118618
X16764Y153162
X23876Y152654
X11430Y164338
X2540Y173736
X2540Y175006
X5080Y175006
X5080Y173736
X5080Y172466
X6350Y172466
X20193Y149860
X38862Y149606
X59690Y144526
X59690Y143256
X59690Y141986
X59690Y140716
X59690Y139446
X59690Y138176
X59690Y136906
X54610Y139446
X54610Y138176
X54610Y136906
X57150Y139446
X57150Y138176
X57150Y136906
X57150Y143256
X57150Y141986
X57150Y144526
X7366Y163322
X8255Y155321
X8255Y156591
X24130Y157861
X24130Y159131
X41910Y129286
X48260Y129286
X46990Y129286
X39370Y133096
X39370Y134366
X39370Y135636
X39370Y136906
X39370Y138176
X3810Y140716
X3810Y141986
X3810Y143256
X6350Y139446
X6350Y140716
X6350Y141986
X7620Y139446
X7620Y140716
X7620Y141986
X8890Y139446
X8890Y140716
X8890Y141986
X10160Y139446
X10160Y140716
X10160Y141986
X2540Y144526
X2540Y145796
X2540Y147066
X2540Y148336
X2540Y149606
X2540Y140716
X2540Y141986
X2540Y143256
X3810Y144526
X16510Y136906
X15240Y136906
X13970Y136906
X57150Y157226
X50800Y161036
X52070Y161036
X59690Y169926
X39116Y162052
X43180Y162052
X32766Y167386
X30226Y167386
X35306Y167386
X54610Y169926
X57150Y169926
X27432Y128016
X24130Y155321
X20320Y119761
X21590Y119761
X22860Y119761
X48260Y121666
X48260Y120396
X21590Y135636
X2794Y164084
X7112Y157734
X7112Y162179
X8128Y158242
X8128Y160020
X4318Y159004
X34417Y129032
X49530Y160020
X43688Y152400
X45466Y147320
X54864Y156972
X52832Y157734
X4064Y146304
X34544Y159131
X15494Y167386
X10668Y172466
X57912Y154940
X59944Y154940
X59944Y157480
X59944Y151638
X5588Y153416
X9906Y121285
X12954Y119380
X7620Y121285
X32004Y155321
X16510Y131318
X14224Y155448
X20066Y167640
X49530Y167894
X62230Y168656
X8636Y172466
X57404Y131064
X16256Y130302
X12700Y155448
X9652Y172466
X51943Y165608
X41910Y127508
X12446Y161290
X24130Y162560
X46990Y172212
X22606Y164846
X59436Y166878
X57150Y135382
X59690Y172212
X12446Y163322
X25908Y158877
X40386Y171196
X60960Y147066
X62230Y171196
X64770Y168402
X41148Y132842
X41910Y157988
X57150Y148336
X59436Y147320
X55118Y147320
X53848Y147320
X51308Y146812
X52578Y147320
X46990Y145796
X55118Y153162
X10160Y150876
X36576Y163068
X47244Y132080
X47752Y137922
X49530Y165608
X8128Y150876
X27686Y168402
X50546Y139700
X22606Y167386
X4064Y149606
X30226Y169164
X52324Y137668
X52070Y126238
X52070Y132080
X9144Y150876
X35306Y165608
X59690Y131826
X49530Y148336
X44704Y166878
X48260Y161036
X47752Y147574
X44704Y165608
X45190Y144272
X27686Y164846
X45466Y164084
X27686Y140462
X41910Y160020
X42926Y149098
X46482Y136652
X47498Y165608
X50800Y165608
X28600Y130556
X33020Y131826
X33020Y135636
X30988Y143764
X29210Y138176
X29210Y145796
X38608Y146812
X30734Y133350
X33020Y139446
X5080Y169926
X5588Y166116
X27940Y143256
X27940Y151130
X33020Y148082
X33020Y140716
X29210Y139192
X31496Y129032
X59690Y159766
X57658Y165100
X59690Y165100
X16510Y120650
X18542Y131572
X41910Y120650
X41910Y126238
X44958Y137922
X34798Y137160
X34798Y133096
X34798Y143002
X26670Y135001
X31242Y145796
X39116Y143764
X29210Y136398
X29210Y129286
X38735Y129286
X10160Y132334
X10160Y129286
X11430Y127508
X17018Y156210
X77978Y123190
X105918Y145796
X96520Y124206
X75946Y125476
X77216Y125476
X74676Y125476
X83058Y118618
X80518Y118618
X84328Y118618
X89662Y153162
X96774Y152654
X84328Y164338
X75438Y173736
X75438Y175006
X77978Y175006
X77978Y173736
X77978Y172466
X79248Y172466
X93091Y149860
X111760Y149606
X132588Y144526
X132588Y143256
X132588Y141986
X132588Y140716
X132588Y139446
X132588Y138176
X132588Y136906
X127508Y139446
X127508Y138176
X127508Y136906
X130048Y139446
X130048Y138176
X130048Y136906
X130048Y143256
X130048Y141986
X130048Y144526
X80264Y163322
X81153Y155321
X81153Y156591
X97028Y157861
X97028Y159131
X114808Y129286
X121158Y129286
X119888Y129286
X112268Y133096
X112268Y134366
X112268Y135636
X112268Y136906
X112268Y138176
X76708Y140716
X76708Y141986
X76708Y143256
X79248Y139446
X79248Y140716
X79248Y141986
X80518Y139446
X80518Y140716
X80518Y141986
X81788Y139446
X81788Y140716
X81788Y141986
X83058Y139446
X83058Y140716
X83058Y141986
X75438Y144526
X75438Y145796
X75438Y147066
X75438Y148336
X75438Y149606
X75438Y140716
X75438Y141986
X75438Y143256
X76708Y144526
X89408Y136906
X88138Y136906
X86868Y136906
X130048Y157226
X123698Y161036
X124968Y161036
X132588Y169926
X112014Y162052
X116078Y162052
X105664Y167386
X103124Y167386
X108204Y167386
X127508Y169926
X130048Y169926
X100330Y128016
X97028Y155321
X93218Y119761
X94488Y119761
X95758Y119761
X121158Y121666
X121158Y120396
X94488Y135636
X75692Y164084
X80010Y157734
X80010Y162179
X81026Y158242
X81026Y160020
X77216Y159004
X107315Y129032
X122428Y160020
X116586Y152400
X118364Y147320
X127762Y156972
X125730Y157734
X76962Y146304
X107442Y159131
X88392Y167386
X83566Y172466
X130810Y154940
X132842Y154940
X132842Y157480
X132842Y151638
X78486Y153416
X82804Y121285
X85852Y119380
X100838Y25400
X104902Y155321
X89408Y131318
X87122Y155448
X92964Y167640
X122428Y167894
X135128Y168656
X81534Y172466
X130302Y131064
X89154Y130302
X85598Y155448
X82550Y172466
X124841Y165608
X114808Y127508
X85344Y161290
X97028Y162560
X119888Y172212
X95504Y164846
X132334Y166878
X130048Y135382
X132588Y172212
X85344Y163322
X98806Y158877
X113284Y171196
X133858Y147066
X135128Y171196
X137668Y168402
X114046Y132842
X114808Y157988
X130048Y148336
X132334Y147320
X128016Y147320
X126746Y147320
X124206Y146812
X125476Y147320
X119888Y145796
X128016Y153162
X83058Y150876
X109474Y163068
X120142Y132080
X120650Y137922
X122428Y165608
X81026Y150876
X100584Y168402
X123444Y139700
X95504Y167386
X76962Y149606
X103124Y169164
X125222Y137668
X124968Y126238
X124968Y132080
X82042Y150876
X108204Y165608
X132588Y131826
X122428Y148336
X117602Y166878
X121158Y161036
X120650Y147574
X117602Y165608
X118088Y144272
X100584Y164846
X118364Y164084
X100584Y140462
X114808Y160020
X115824Y149098
X119380Y136652
X120396Y165608
X123698Y165608
X101498Y130556
X105918Y131826
X105918Y135636
X103886Y143764
X102108Y138176
X102108Y145796
X111506Y146812
X103632Y133350
X105918Y139446
X77978Y169926
X78486Y166116
X100838Y143256
X100838Y151130
X105918Y148082
X105918Y140716
X102108Y139192
X104394Y129032
X132588Y159766
X130556Y165100
X132588Y165100
X89408Y120650
X91440Y131572
X114808Y120650
X114808Y126238
X117856Y137922
X107696Y137160
X107696Y133096
X107696Y143002
X99568Y135001
X104140Y145796
X112014Y143764
X102108Y136398
X102108Y129286
X111633Y129286
X83058Y132334
X83058Y129286
X84328Y127508
X89916Y156210
X150876Y123190
X5080Y5334
X33020Y27940
X178816Y145796
X169418Y124206
X148844Y125476
X150114Y125476
X147574Y125476
X155956Y118618
X153416Y118618
X157226Y118618
X162560Y153162
X169672Y152654
X157226Y164338
X148336Y173736
X148336Y175006
X150876Y175006
X150876Y173736
X150876Y172466
X152146Y172466
X165989Y149860
X184658Y149606
X205486Y144526
X205486Y143256
X205486Y141986
X205486Y140716
X205486Y139446
X205486Y138176
X205486Y136906
X200406Y139446
X200406Y138176
X200406Y136906
X202946Y139446
X202946Y138176
X202946Y136906
X202946Y143256
X202946Y141986
X202946Y144526
X153162Y163322
X154051Y155321
X154051Y156591
X169926Y157861
X169926Y159131
X187706Y129286
X194056Y129286
X192786Y129286
X185166Y133096
X185166Y134366
X185166Y135636
X185166Y136906
X185166Y138176
X149606Y140716
X149606Y141986
X149606Y143256
X152146Y139446
X152146Y140716
X152146Y141986
X153416Y139446
X153416Y140716
X153416Y141986
X154686Y139446
X154686Y140716
X154686Y141986
X155956Y139446
X155956Y140716
X155956Y141986
X148336Y144526
X148336Y145796
X148336Y147066
X148336Y148336
X148336Y149606
X148336Y140716
X148336Y141986
X148336Y143256
X149606Y144526
X162306Y136906
X161036Y136906
X159766Y136906
X202946Y157226
X196596Y161036
X197866Y161036
X205486Y169926
X184912Y162052
X188976Y162052
X178562Y167386
X176022Y167386
X181102Y167386
X200406Y169926
X202946Y169926
X173228Y128016
X169926Y155321
X166116Y119761
X167386Y119761
X168656Y119761
X194056Y121666
X194056Y120396
X167386Y135636
X23622Y6350
X148590Y164084
X152908Y157734
X152908Y162179
X153924Y158242
X153924Y160020
X150114Y159004
X180213Y129032
X195326Y160020
X189484Y152400
X191262Y147320
X200660Y156972
X198628Y157734
X149860Y146304
X180340Y159131
X161290Y167386
X156464Y172466
X203708Y154940
X205740Y154940
X205740Y157480
X205740Y151638
X151384Y153416
X155702Y121285
X158750Y119380
X153416Y121285
X177800Y155321
X162306Y131318
X160020Y155448
X165862Y167640
X195326Y167894
X208026Y168656
X154432Y172466
X203200Y131064
X162052Y130302
X158496Y155448
X155448Y172466
X197739Y165608
X187706Y127508
X158242Y161290
X169926Y162560
X192786Y172212
X168402Y164846
X205232Y166878
X202946Y135382
X205486Y172212
X158242Y163322
X171704Y158877
X186182Y171196
X206756Y147066
X208026Y171196
X210566Y168402
X186944Y132842
X187706Y157988
X202946Y148336
X205232Y147320
X200914Y147320
X199644Y147320
X197104Y146812
X198374Y147320
X192786Y145796
X200914Y153162
X155956Y150876
X182372Y163068
X193040Y132080
X193548Y137922
X195326Y165608
X153924Y150876
X173482Y168402
X196342Y139700
X168402Y167386
X149860Y149606
X176022Y169164
X198120Y137668
X197866Y126238
X197866Y132080
X154940Y150876
X181102Y165608
X205486Y131826
X195326Y148336
X190500Y166878
X194056Y161036
X193548Y147574
X190500Y165608
X190986Y144272
X173482Y164846
X191262Y164084
X173482Y140462
X187706Y160020
X188722Y149098
X192278Y136652
X193294Y165608
X196596Y165608
X174396Y130556
X178816Y131826
X178816Y135636
X176784Y143764
X175006Y138176
X175006Y145796
X184404Y146812
X176530Y133350
X178816Y139446
X150876Y169926
X151384Y166116
X173736Y143256
X173736Y151130
X178816Y148082
X178816Y140716
X175006Y139192
X177292Y129032
X205486Y159766
X203454Y165100
X205486Y165100
X162306Y120650
X164338Y131572
X187706Y120650
X187706Y126238
X190754Y137922
X180594Y137160
X180594Y133096
X180594Y143002
X172466Y135001
X177038Y145796
X184912Y143764
X175006Y136398
X175006Y129286
X184531Y129286
X155956Y132334
X155956Y129286
X157226Y127508
X162814Y156210
X5080Y182118
X3048Y7620
X4318Y7620
X33020Y204724
X23622Y183134
X3048Y184404
X4318Y184404
X1778Y184404
X10160Y177546
X7620Y177546
X11430Y177546
X16764Y212090
X23876Y211582
X11430Y223266
X2540Y232664
X2540Y233934
X5080Y233934
X5080Y232664
X5080Y231394
X6350Y231394
X20193Y208788
X38862Y208534
X59690Y203454
X59690Y202184
X59690Y200914
X59690Y199644
X59690Y198374
X59690Y197104
X59690Y195834
X54610Y198374
X54610Y197104
X54610Y195834
X57150Y198374
X57150Y197104
X57150Y195834
X57150Y202184
X57150Y200914
X57150Y203454
X7366Y222250
X8255Y214249
X8255Y215519
X24130Y216789
X24130Y218059
X41910Y188214
X48260Y188214
X46990Y188214
X39370Y192024
X39370Y193294
X39370Y194564
X39370Y195834
X39370Y197104
X3810Y199644
X3810Y200914
X3810Y202184
X6350Y198374
X6350Y199644
X6350Y200914
X7620Y198374
X7620Y199644
X7620Y200914
X8890Y198374
X8890Y199644
X8890Y200914
X10160Y198374
X10160Y199644
X10160Y200914
X2540Y203454
X2540Y204724
X2540Y205994
X2540Y207264
X2540Y208534
X2540Y199644
X2540Y200914
X2540Y202184
X3810Y203454
X16510Y195834
X15240Y195834
X13970Y195834
X57150Y216154
X50800Y219964
X52070Y219964
X59690Y228854
X39116Y220980
X43180Y220980
X32766Y226314
X30226Y226314
X35306Y226314
X54610Y228854
X57150Y228854
X27432Y186944
X24130Y214249
X20320Y178689
X21590Y178689
X22860Y178689
X48260Y180594
X48260Y179324
X21590Y194564
X1778Y7620
X2794Y223012
X7112Y216662
X7112Y221107
X8128Y217170
X8128Y218948
X4318Y217932
X34417Y187960
X49530Y218948
X43688Y211328
X45466Y206248
X54864Y215900
X52832Y216662
X4064Y205232
X34544Y218059
X15494Y226314
X10668Y231394
X57912Y213868
X59944Y213868
X59944Y216408
X59944Y210566
X5588Y212344
X9906Y180213
X12954Y178308
X7620Y180213
X32004Y214249
X16510Y190246
X14224Y214376
X20066Y226568
X49530Y226822
X62230Y227584
X8636Y231394
X57404Y189992
X16256Y189230
X12700Y214376
X9652Y231394
X51943Y224536
X41910Y186436
X12446Y220218
X24130Y221488
X46990Y231140
X22606Y223774
X59436Y225806
X57150Y194310
X59690Y231140
X12446Y222250
X25908Y217805
X40386Y230124
X60960Y205994
X62230Y230124
X64770Y227330
X41148Y191770
X41910Y216916
X57150Y207264
X59436Y206248
X55118Y206248
X53848Y206248
X51308Y205740
X52578Y206248
X46990Y204724
X55118Y212090
X10160Y209804
X36576Y221996
X47244Y191008
X47752Y196850
X49530Y224536
X8128Y209804
X27686Y227330
X50546Y198628
X22606Y226314
X4064Y208534
X30226Y228092
X52324Y196596
X52070Y185166
X52070Y191008
X9144Y209804
X35306Y224536
X59690Y190754
X49530Y207264
X44704Y225806
X48260Y219964
X47752Y206502
X44704Y224536
X45190Y203200
X27686Y223774
X45466Y223012
X27686Y199390
X41910Y218948
X42926Y208026
X46482Y195580
X47498Y224536
X50800Y224536
X28600Y189484
X33020Y190754
X33020Y194564
X30988Y202692
X29210Y197104
X29210Y204724
X38608Y205740
X30734Y192278
X33020Y198374
X5080Y228854
X5588Y225044
X27940Y202184
X27940Y210058
X33020Y207010
X33020Y199644
X29210Y198120
X31496Y187960
X59690Y218694
X57658Y224028
X59690Y224028
X16510Y179578
X18542Y190500
X41910Y179578
X41910Y185166
X44958Y196850
X34798Y196088
X34798Y192024
X34798Y201930
X26670Y193929
X31242Y204724
X39116Y202692
X29210Y195326
X29210Y188214
X38735Y188214
X10160Y191262
X10160Y188214
X11430Y186436
X17018Y215138
X77978Y182118
X10160Y762
X7620Y762
X105918Y204724
X96520Y183134
X75946Y184404
X77216Y184404
X74676Y184404
X83058Y177546
X80518Y177546
X84328Y177546
X89662Y212090
X96774Y211582
X84328Y223266
X75438Y232664
X75438Y233934
X77978Y233934
X77978Y232664
X77978Y231394
X79248Y231394
X93091Y208788
X111760Y208534
X132588Y203454
X132588Y202184
X132588Y200914
X132588Y199644
X132588Y198374
X132588Y197104
X132588Y195834
X127508Y198374
X127508Y197104
X127508Y195834
X130048Y198374
X130048Y197104
X130048Y195834
X130048Y202184
X130048Y200914
X130048Y203454
X80264Y222250
X81153Y214249
X81153Y215519
X97028Y216789
X97028Y218059
X114808Y188214
X121158Y188214
X119888Y188214
X112268Y192024
X112268Y193294
X112268Y194564
X112268Y195834
X112268Y197104
X76708Y199644
X76708Y200914
X76708Y202184
X79248Y198374
X79248Y199644
X79248Y200914
X80518Y198374
X80518Y199644
X80518Y200914
X81788Y198374
X81788Y199644
X81788Y200914
X83058Y198374
X83058Y199644
X83058Y200914
X75438Y203454
X75438Y204724
X75438Y205994
X75438Y207264
X75438Y208534
X75438Y199644
X75438Y200914
X75438Y202184
X76708Y203454
X89408Y195834
X88138Y195834
X86868Y195834
X130048Y216154
X123698Y219964
X124968Y219964
X132588Y228854
X112014Y220980
X116078Y220980
X105664Y226314
X103124Y226314
X108204Y226314
X127508Y228854
X130048Y228854
X100330Y186944
X97028Y214249
X93218Y178689
X94488Y178689
X95758Y178689
X121158Y180594
X121158Y179324
X94488Y194564
X11430Y762
X75692Y223012
X80010Y216662
X80010Y221107
X81026Y217170
X81026Y218948
X77216Y217932
X107315Y187960
X122428Y218948
X116586Y211328
X118364Y206248
X127762Y215900
X125730Y216662
X76962Y205232
X107442Y218059
X88392Y226314
X83566Y231394
X130810Y213868
X132842Y213868
X132842Y216408
X132842Y210566
X78486Y212344
X82804Y180213
X85852Y178308
X80518Y180213
X104902Y214249
X89408Y190246
X87122Y214376
X92964Y226568
X122428Y226822
X135128Y227584
X81534Y231394
X130302Y189992
X89154Y189230
X85598Y214376
X82550Y231394
X124841Y224536
X114808Y186436
X85344Y220218
X97028Y221488
X119888Y231140
X95504Y223774
X132334Y225806
X130048Y194310
X132588Y231140
X85344Y222250
X98806Y217805
X113284Y230124
X133858Y205994
X135128Y230124
X137668Y227330
X114046Y191770
X114808Y216916
X130048Y207264
X132334Y206248
X128016Y206248
X126746Y206248
X124206Y205740
X125476Y206248
X119888Y204724
X128016Y212090
X83058Y209804
X109474Y221996
X120142Y191008
X120650Y196850
X122428Y224536
X81026Y209804
X100584Y227330
X123444Y198628
X95504Y226314
X76962Y208534
X103124Y228092
X125222Y196596
X124968Y185166
X124968Y191008
X82042Y209804
X108204Y224536
X132588Y190754
X122428Y207264
X117602Y225806
X121158Y219964
X120650Y206502
X117602Y224536
X118088Y203200
X100584Y223774
X118364Y223012
X100584Y199390
X114808Y218948
X115824Y208026
X119380Y195580
X120396Y224536
X123698Y224536
X101498Y189484
X105918Y190754
X105918Y194564
X103886Y202692
X102108Y197104
X102108Y204724
X111506Y205740
X103632Y192278
X105918Y198374
X77978Y228854
X78486Y225044
X100838Y202184
X100838Y210058
X105918Y207010
X105918Y199644
X102108Y198120
X104394Y187960
X132588Y218694
X130556Y224028
X132588Y224028
X89408Y179578
X91440Y190500
X114808Y179578
X114808Y185166
X117856Y196850
X107696Y196088
X107696Y192024
X107696Y201930
X99568Y193929
X104140Y204724
X112014Y202692
X102108Y195326
X102108Y188214
X111633Y188214
X83058Y191262
X83058Y188214
X84328Y186436
X89916Y215138
X150876Y182118
X16764Y35306
X23876Y34798
X178816Y204724
X169418Y183134
X148844Y184404
X150114Y184404
X147574Y184404
X155956Y177546
X153416Y177546
X157226Y177546
X162560Y212090
X169672Y211582
X157226Y223266
X148336Y232664
X148336Y233934
X150876Y233934
X150876Y232664
X150876Y231394
X152146Y231394
X165989Y208788
X184658Y208534
X205486Y203454
X205486Y202184
X205486Y200914
X205486Y199644
X205486Y198374
X205486Y197104
X205486Y195834
X200406Y198374
X200406Y197104
X200406Y195834
X202946Y198374
X202946Y197104
X202946Y195834
X202946Y202184
X202946Y200914
X202946Y203454
X153162Y222250
X154051Y214249
X154051Y215519
X169926Y216789
X169926Y218059
X187706Y188214
X194056Y188214
X192786Y188214
X185166Y192024
X185166Y193294
X185166Y194564
X185166Y195834
X185166Y197104
X149606Y199644
X149606Y200914
X149606Y202184
X152146Y198374
X152146Y199644
X152146Y200914
X153416Y198374
X153416Y199644
X153416Y200914
X154686Y198374
X154686Y199644
X154686Y200914
X155956Y198374
X155956Y199644
X155956Y200914
X148336Y203454
X148336Y204724
X11430Y46482
X148336Y207264
X148336Y208534
X148336Y199644
X148336Y200914
X148336Y202184
X149606Y203454
X162306Y195834
X161036Y195834
X159766Y195834
X202946Y216154
X196596Y219964
X197866Y219964
X205486Y228854
X184912Y220980
X188976Y220980
X178562Y226314
X176022Y226314
X181102Y226314
X200406Y228854
X202946Y228854
X173228Y186944
X169926Y214249
X166116Y178689
X167386Y178689
X168656Y178689
X194056Y180594
X194056Y179324
X167386Y194564
X2540Y55880
X148590Y223012
X152908Y216662
X152908Y221107
X153924Y217170
X153924Y218948
X150114Y217932
X180213Y187960
X195326Y218948
X189484Y211328
X191262Y206248
X200660Y215900
X198628Y216662
X149860Y205232
X180340Y218059
X161290Y226314
X156464Y231394
X203708Y213868
X205740Y213868
X205740Y216408
X205740Y210566
X151384Y212344
X155702Y180213
X158750Y178308
X153416Y180213
X177800Y214249
X162306Y190246
X160020Y214376
X165862Y226568
X195326Y226822
X208026Y227584
X154432Y231394
X203200Y189992
X162052Y189230
X158496Y214376
X155448Y231394
X197739Y224536
X187706Y186436
X158242Y220218
X169926Y221488
X192786Y231140
X168402Y223774
X205232Y225806
X202946Y194310
X205486Y231140
X158242Y222250
X171704Y217805
X186182Y230124
X206756Y205994
X208026Y230124
X210566Y227330
X186944Y191770
X187706Y216916
X202946Y207264
X205232Y206248
X200914Y206248
X199644Y206248
X197104Y205740
X198374Y206248
X192786Y204724
X200914Y212090
X155956Y209804
X182372Y221996
X193040Y191008
X193548Y196850
X195326Y224536
X153924Y209804
X173482Y227330
X196342Y198628
X168402Y226314
X149860Y208534
X176022Y228092
X198120Y196596
X197866Y185166
X197866Y191008
X154940Y209804
X181102Y224536
X205486Y190754
X195326Y207264
X190500Y225806
X194056Y219964
X193548Y206502
X190500Y224536
X190986Y203200
X173482Y223774
X191262Y223012
X173482Y199390
X187706Y218948
X188722Y208026
X192278Y195580
X193294Y224536
X196596Y224536
X174396Y189484
X178816Y190754
X178816Y194564
X176784Y202692
X175006Y197104
X175006Y204724
X184404Y205740
X176530Y192278
X178816Y198374
X150876Y228854
X151384Y225044
X173736Y202184
X173736Y210058
X178816Y207010
X178816Y199644
X175006Y198120
X177292Y187960
X205486Y218694
X203454Y224028
X205486Y224028
X162306Y179578
X164338Y190500
X187706Y179578
X187706Y185166
X190754Y196850
X180594Y196088
X180594Y192024
X180594Y201930
X172466Y193929
X177038Y204724
X184912Y202692
X175006Y195326
X175006Y188214
X184531Y188214
X155956Y191262
X155956Y188214
X157226Y186436
X162814Y215138
X2540Y57150
X5080Y57150
X5080Y55880
X5080Y54610
X6350Y54610
X20193Y32004
X38862Y31750
X59690Y26670
X59690Y25400
X59690Y24130
X59690Y22860
X59690Y21590
X59690Y20320
X59690Y19050
X54610Y21590
X54610Y20320
X54610Y19050
X57150Y21590
X57150Y20320
X57150Y19050
X57150Y25400
X57150Y24130
X57150Y26670
X7366Y45466
X8255Y37465
X8255Y38735
X24130Y40005
X24130Y41275
X41910Y11430
X48260Y11430
X46990Y11430
X39370Y15240
X39370Y16510
X39370Y17780
X39370Y19050
X39370Y20320
X3810Y22860
X3810Y24130
X3810Y25400
X6350Y21590
X6350Y22860
X6350Y24130
X7620Y21590
X7620Y22860
X7620Y24130
X8890Y21590
X8890Y22860
X8890Y24130
X10160Y21590
X10160Y22860
X10160Y24130
X2540Y26670
X2540Y27940
X2540Y29210
X2540Y30480
X2540Y31750
X2540Y22860
X2540Y24130
X2540Y25400
X3810Y26670
X16510Y19050
X15240Y19050
X13970Y19050
X57150Y39370
X50800Y43180
X52070Y43180
X59690Y52070
X39116Y44196
X43180Y44196
X32766Y49530
X30226Y49530
X35306Y49530
X54610Y52070
X57150Y52070
X27432Y10160
X24130Y37465
X20320Y1905
X21590Y1905
X22860Y1905
X48260Y3810
X48260Y2540
X21590Y17780
X2794Y46228
X7112Y39878
X7112Y44323
X8128Y40386
X8128Y42164
X4318Y41148
X34417Y11176
X49530Y42164
X43688Y34544
X45466Y29464
X54864Y39116
X52832Y39878
X4064Y28448
X34544Y41275
X15494Y49530
X10668Y54610
X57912Y37084
X59944Y37084
X59944Y39624
X59944Y33782
X5588Y35560
X9906Y3429
X12954Y1524
X7620Y3429
X32004Y37465
X16510Y13462
X14224Y37592
X20066Y49784
X49530Y50038
X62230Y50800
X8636Y54610
X57404Y13208
X16256Y12446
X12700Y37592
X9652Y54610
X51943Y47752
X41910Y9652
X12446Y43434
X24130Y44704
X46990Y54356
X22606Y46990
X59436Y49022
X57150Y17526
X59690Y54356
X12446Y45466
X25908Y41021
X40386Y53340
X60960Y29210
X62230Y53340
X64770Y50546
X41148Y14986
X41910Y40132
X57150Y30480
X59436Y29464
X55118Y29464
X53848Y29464
X51308Y28956
X52578Y29464
X46990Y27940
X55118Y35306
X10160Y33020
X36576Y45212
X47244Y14224
X47752Y20066
X49530Y47752
X8128Y33020
X27686Y50546
X50546Y21844
X22606Y49530
X4064Y31750
X30226Y51308
X52324Y19812
X52070Y8382
X52070Y14224
X9144Y33020
X35306Y47752
X59690Y13970
X49530Y30480
X44704Y49022
X48260Y43180
X47752Y29718
X44704Y47752
X45190Y26416
X27686Y46990
X45466Y46228
X27686Y22606
X41910Y42164
X42926Y31242
X46482Y18796
X47498Y47752
X50800Y47752
X28600Y12700
X33020Y13970
X33020Y17780
X30988Y25908
X29210Y20320
X29210Y27940
X38608Y28956
X30734Y15494
X33020Y21590
X5080Y52070
X5588Y48260
X27940Y25400
X27940Y33274
X33020Y30226
X33020Y22860
X29210Y21336
X31496Y11176
X59690Y41910
X57658Y47244
X59690Y47244
X16510Y2794
X18542Y13716
X41910Y2794
X41910Y8382
X44958Y20066
X34798Y19304
X34798Y15240
X34798Y25146
X26670Y17145
X31242Y27940
X39116Y25908
X29210Y18542
X29210Y11430
X38735Y11430
X10160Y14478
X10160Y11430
X11430Y9652
X17018Y38354
X77978Y5334
X105918Y27940
X96520Y6350
X75946Y7620
X77216Y7620
X74676Y7620
X83058Y762
X80518Y762
X84328Y762
X89662Y35306
X96774Y34798
X84328Y46482
X75438Y55880
X75438Y57150
X77978Y57150
X77978Y55880
X77978Y54610
X79248Y54610
X93091Y32004
X111760Y31750
X132588Y26670
X132588Y25400
X132588Y24130
X132588Y22860
X132588Y21590
X132588Y20320
X132588Y19050
X127508Y21590
X127508Y20320
X127508Y19050
X130048Y21590
X130048Y20320
X130048Y19050
X130048Y25400
X130048Y24130
X130048Y26670
X80264Y45466
X81153Y37465
X81153Y38735
X97028Y40005
X97028Y41275
X114808Y11430
X121158Y11430
X119888Y11430
X112268Y15240
X112268Y16510
X112268Y17780
X112268Y19050
X112268Y20320
X76708Y22860
X76708Y24130
X76708Y25400
X79248Y21590
X79248Y22860
X79248Y24130
X80518Y21590
X80518Y22860
X80518Y121285
X80518Y24130
X81788Y21590
X81788Y22860
X81788Y24130
X83058Y21590
X83058Y22860
X83058Y24130
X75438Y26670
X75438Y27940
X75438Y29210
X75438Y30480
X75438Y31750
X75438Y22860
X75438Y24130
X75438Y25400
X76708Y26670
X89408Y19050
X88138Y19050
X86868Y19050
X130048Y39370
X123698Y43180
X124968Y43180
X132588Y52070
X112014Y44196
X116078Y44196
X105664Y49530
X103124Y49530
X108204Y49530
X127508Y52070
X130048Y52070
X100330Y10160
X97028Y37465
X93218Y1905
X94488Y1905
X95758Y1905
X121158Y3810
X121158Y2540
X94488Y17780
X75692Y46228
X80010Y39878
X80010Y44323
X81026Y40386
X81026Y42164
X77216Y41148
X107315Y11176
X122428Y42164
X116586Y34544
X118364Y29464
X127762Y39116
X125730Y39878
X76962Y28448
X107442Y41275
X88392Y49530
X83566Y54610
X130810Y37084
X132842Y37084
X132842Y39624
X132842Y33782
X78486Y35560
X82804Y3429
X85852Y1524
X80518Y3429
X104902Y37465
X89408Y13462
X87122Y37592
X92964Y49784
X122428Y50038
X135128Y50800
X81534Y54610
X130302Y13208
X89154Y12446
X85598Y37592
X82550Y54610
X124841Y47752
X114808Y9652
X85344Y43434
X97028Y44704
X119888Y54356
X95504Y46990
X132334Y49022
X130048Y17526
X132588Y54356
X85344Y45466
X98806Y41021
X113284Y53340
X133858Y29210
X135128Y53340
X137668Y50546
X114046Y14986
X114808Y40132
X130048Y30480
X132334Y29464
X128016Y29464
X126746Y29464
X124206Y28956
X125476Y29464
X119888Y27940
X128016Y35306
X83058Y33020
X109474Y45212
X120142Y14224
X120650Y20066
X122428Y47752
X81026Y33020
X100584Y50546
X123444Y21844
X95504Y49530
X76962Y31750
X103124Y51308
X125222Y19812
X124968Y8382
X124968Y14224
X82042Y33020
X108204Y47752
X132588Y13970
X122428Y30480
X117602Y49022
X121158Y43180
X120650Y29718
X117602Y47752
X118088Y26416
X100584Y46990
X118364Y46228
X100584Y22606
X114808Y42164
X115824Y31242
X119380Y18796
X120396Y47752
X123698Y47752
X101498Y12700
X105918Y13970
X105918Y17780
X103886Y25908
X102108Y20320
X102108Y27940
X111506Y28956
X103632Y15494
X105918Y21590
X77978Y52070
X78486Y48260
X100838Y33274
X105918Y30226
X105918Y22860
X102108Y21336
X104394Y11176
X132588Y41910
X130556Y47244
X132588Y47244
X89408Y2794
X91440Y13716
X114808Y2794
X114808Y8382
X117856Y20066
X107696Y19304
X107696Y15240
X107696Y25146
X99568Y17145
X104140Y27940
X112014Y25908
X102108Y18542
X102108Y11430
X111633Y11430
X83058Y14478
X83058Y11430
X84328Y9652
X89916Y38354
X150876Y5334
X178816Y27940
X169418Y6350
X148844Y7620
X150114Y7620
X147574Y7620
X155956Y762
X153416Y762
X157226Y762
X162560Y35306
X169672Y34798
X157226Y46482
X148336Y55880
X148336Y57150
X150876Y57150
X150876Y55880
X150876Y54610
X152146Y54610
X165989Y32004
X184658Y31750
X205486Y26670
X205486Y25400
X205486Y24130
X205486Y22860
X205486Y21590
X205486Y20320
X205486Y19050
X200406Y21590
X200406Y20320
X200406Y19050
X202946Y21590
X202946Y20320
X202946Y19050
X202946Y25400
X202946Y24130
X202946Y26670
X153162Y45466
X154051Y37465
X154051Y38735
X169926Y40005
X169926Y41275
X187706Y11430
X194056Y11430
X192786Y11430
X185166Y15240
X185166Y16510
X185166Y17780
X185166Y19050
X185166Y20320
X149606Y22860
X149606Y24130
X149606Y25400
X152146Y21590
X152146Y22860
X152146Y24130
X153416Y21590
X153416Y22860
X153416Y24130
X154686Y21590
X154686Y22860
X154686Y24130
X155956Y21590
X155956Y22860
X155956Y24130
X148336Y26670
X148336Y27940
X148336Y29210
X148336Y30480
X148336Y31750
X148336Y22860
X148336Y24130
X148336Y25400
X149606Y26670
X162306Y19050
X161036Y19050
X159766Y19050
X202946Y39370
X196596Y43180
X197866Y43180
X205486Y52070
X184912Y44196
X188976Y44196
X178562Y49530
X176022Y49530
X181102Y49530
X200406Y52070
X202946Y52070
X173228Y10160
X169926Y37465
X166116Y1905
X167386Y1905
X168656Y1905
X194056Y3810
X194056Y2540
X167386Y17780
X148590Y46228
X152908Y39878
X152908Y44323
X153924Y40386
X153924Y42164
X150114Y41148
X180213Y11176
X195326Y42164
X189484Y34544
X191262Y29464
X200660Y39116
X198628Y39878
X149860Y28448
X180340Y41275
X161290Y49530
X156464Y54610
X203708Y37084
X205740Y37084
X205740Y39624
X205740Y33782
X151384Y35560
X155702Y3429
X158750Y1524
X153416Y3429
X177800Y37465
X162306Y13462
X160020Y37592
X165862Y49784
X195326Y50038
X208026Y50800
X154432Y54610
X203200Y13208
X162052Y12446
X158496Y37592
X155448Y54610
X197739Y47752
X187706Y9652
X158242Y43434
X169926Y44704
X192786Y54356
X168402Y46990
X205232Y49022
X202946Y17526
X205486Y54356
X158242Y45466
X171704Y41021
X186182Y53340
X206756Y29210
X208026Y53340
X210566Y50546
X186944Y14986
X187706Y40132
X202946Y30480
X205232Y29464
X200914Y29464
X199644Y29464
X197104Y28956
X198374Y29464
X192786Y27940
X200914Y35306
X155956Y33020
X182372Y45212
X193040Y14224
X193548Y20066
X195326Y47752
X153924Y33020
X173482Y50546
X196342Y21844
X168402Y49530
X149860Y31750
X176022Y51308
X198120Y19812
X197866Y8382
X197866Y14224
X154940Y33020
X181102Y47752
X205486Y13970
X195326Y30480
X190500Y49022
X194056Y43180
X193548Y29718
X190500Y47752
X190986Y26416
X173482Y46990
X191262Y46228
X173482Y22606
X187706Y42164
X188722Y31242
X192278Y18796
X193294Y47752
X196596Y47752
X174396Y12700
X178816Y13970
X178816Y17780
X176784Y25908
X175006Y20320
X175006Y27940
X184404Y28956
X176530Y15494
X178816Y21590
X150876Y52070
X151384Y48260
X173736Y25400
X173736Y33274
X178816Y30226
X178816Y22860
X175006Y21336
X177292Y11176
X205486Y41910
X203454Y47244
X205486Y47244
X162306Y2794
X164338Y13716
X187706Y2794
X187706Y8382
X190754Y20066
X180594Y19304
X180594Y15240
X180594Y25146
X172466Y17145
X177038Y27940
X184912Y25908
X175006Y18542
X175006Y11430
X184531Y11430
X155956Y14478
X155956Y11430
X157226Y9652
X162814Y38354
X5080Y64262
X33020Y86868
X23622Y65278
X3048Y66548
X4318Y66548
X1778Y66548
X10160Y59690
X7620Y59690
X11430Y59690
X16764Y94234
X23876Y93726
X11430Y105410
X2540Y114808
X2540Y116078
X5080Y116078
X5080Y114808
X5080Y113538
X6350Y113538
X20193Y90932
X38862Y90678
X59690Y85598
X59690Y84328
X59690Y83058
X59690Y81788
X59690Y80518
X59690Y79248
X59690Y77978
X54610Y80518
X54610Y79248
X54610Y77978
X57150Y80518
X57150Y79248
X57150Y77978
X57150Y84328
X57150Y83058
X57150Y85598
X148336Y205994
M30