G04 EAGLE Gerber RS-274X export*
G75*
%MOMM*%
%FSLAX34Y34*%
%LPD*%
%INSolderpaste Top*%
%IPPOS*%
%AMOC8*
5,1,8,0,0,1.08239X$1,22.5*%
G01*
%ADD10R,1.000000X1.100000*%
%ADD11R,1.400000X1.600000*%
%ADD12R,1.000000X2.000000*%
%ADD13R,1.200000X2.200000*%
%ADD14R,1.100000X1.000000*%
%ADD15R,1.000000X0.300000*%
%ADD16R,1.000000X0.600000*%
%ADD17R,1.200000X0.600000*%
%ADD18R,1.000000X2.800000*%
%ADD19R,0.300000X0.660000*%
%ADD20R,1.524000X0.762000*%
%ADD21R,1.200000X2.000000*%
%ADD22R,0.600000X1.350000*%
%ADD23R,1.200000X1.400000*%
%ADD24R,0.900000X1.500000*%
%ADD25R,1.500000X0.900000*%
%ADD26R,1.330000X1.330000*%
%ADD27R,1.600000X0.700000*%
%ADD28R,2.200000X1.200000*%
%ADD29R,1.600000X1.200000*%
%ADD30R,3.000000X1.400000*%
%ADD31R,1.470000X1.270000*%
%ADD32R,2.800000X2.400000*%
%ADD33R,2.235200X1.219200*%
%ADD34R,2.200000X3.600000*%
%ADD35R,0.800000X0.400000*%
%ADD36R,0.900000X0.800000*%
%ADD37R,0.660000X0.300000*%
%ADD38R,1.200000X0.550000*%
%ADD39R,0.550000X1.200000*%
%ADD40R,1.000000X4.600000*%
%ADD41R,1.600000X3.400000*%
%ADD42R,0.250000X0.637500*%
%ADD43R,0.500000X0.640000*%

G36*
X799445Y2138694D02*
X799445Y2138694D01*
X799448Y2138691D01*
X800543Y2138871D01*
X800549Y2138877D01*
X800554Y2138874D01*
X801582Y2139293D01*
X801586Y2139300D01*
X801591Y2139298D01*
X802500Y2139936D01*
X802503Y2139943D01*
X802508Y2139943D01*
X803252Y2140766D01*
X803253Y2140774D01*
X803259Y2140775D01*
X803801Y2141743D01*
X803800Y2141752D01*
X803806Y2141754D01*
X804119Y2142818D01*
X804116Y2142826D01*
X804121Y2142829D01*
X804189Y2143937D01*
X804185Y2143944D01*
X804189Y2143947D01*
X804019Y2145055D01*
X804013Y2145061D01*
X804016Y2145066D01*
X803604Y2146108D01*
X803597Y2146112D01*
X803599Y2146117D01*
X802965Y2147042D01*
X802957Y2147044D01*
X802958Y2147050D01*
X802135Y2147810D01*
X802126Y2147811D01*
X802126Y2147817D01*
X801154Y2148374D01*
X801146Y2148373D01*
X801144Y2148379D01*
X800072Y2148706D01*
X800064Y2148703D01*
X800061Y2148708D01*
X798944Y2148789D01*
X798941Y2148788D01*
X798940Y2148789D01*
X786940Y2148789D01*
X786937Y2148787D01*
X786930Y2148787D01*
X786929Y2148788D01*
X785985Y2148569D01*
X785979Y2148563D01*
X785974Y2148565D01*
X785102Y2148142D01*
X785099Y2148134D01*
X785093Y2148136D01*
X784337Y2147529D01*
X784335Y2147521D01*
X784329Y2147521D01*
X783728Y2146761D01*
X783728Y2146752D01*
X783722Y2146751D01*
X783304Y2145876D01*
X783306Y2145868D01*
X783301Y2145866D01*
X783089Y2144920D01*
X783092Y2144913D01*
X783087Y2144909D01*
X783091Y2143940D01*
X783091Y2143939D01*
X783110Y2142871D01*
X783115Y2142864D01*
X783111Y2142860D01*
X783367Y2141823D01*
X783374Y2141818D01*
X783371Y2141812D01*
X783852Y2140858D01*
X783859Y2140855D01*
X783858Y2140849D01*
X784539Y2140026D01*
X784547Y2140024D01*
X784547Y2140018D01*
X785394Y2139367D01*
X785402Y2139367D01*
X785403Y2139361D01*
X786374Y2138914D01*
X786382Y2138916D01*
X786384Y2138911D01*
X787430Y2138692D01*
X787437Y2138695D01*
X787440Y2138691D01*
X799440Y2138691D01*
X799445Y2138694D01*
G37*
G36*
X1538585Y370854D02*
X1538585Y370854D01*
X1538588Y370851D01*
X1539683Y371031D01*
X1539689Y371037D01*
X1539694Y371034D01*
X1540722Y371453D01*
X1540726Y371460D01*
X1540731Y371458D01*
X1541640Y372096D01*
X1541643Y372103D01*
X1541648Y372103D01*
X1542392Y372926D01*
X1542393Y372934D01*
X1542399Y372935D01*
X1542941Y373903D01*
X1542940Y373912D01*
X1542946Y373914D01*
X1543259Y374978D01*
X1543256Y374986D01*
X1543261Y374989D01*
X1543329Y376097D01*
X1543325Y376104D01*
X1543329Y376107D01*
X1543159Y377215D01*
X1543153Y377221D01*
X1543156Y377226D01*
X1542744Y378268D01*
X1542737Y378272D01*
X1542739Y378277D01*
X1542105Y379202D01*
X1542097Y379204D01*
X1542098Y379210D01*
X1541275Y379970D01*
X1541266Y379971D01*
X1541266Y379977D01*
X1540294Y380534D01*
X1540286Y380533D01*
X1540284Y380539D01*
X1539212Y380866D01*
X1539204Y380863D01*
X1539201Y380868D01*
X1538084Y380949D01*
X1538081Y380948D01*
X1538080Y380949D01*
X1526080Y380949D01*
X1526077Y380947D01*
X1526070Y380947D01*
X1526069Y380948D01*
X1525125Y380729D01*
X1525119Y380723D01*
X1525114Y380725D01*
X1524242Y380302D01*
X1524239Y380294D01*
X1524233Y380296D01*
X1523477Y379689D01*
X1523475Y379681D01*
X1523469Y379681D01*
X1522868Y378921D01*
X1522868Y378912D01*
X1522862Y378911D01*
X1522444Y378036D01*
X1522446Y378028D01*
X1522441Y378026D01*
X1522229Y377080D01*
X1522232Y377073D01*
X1522227Y377069D01*
X1522231Y376100D01*
X1522231Y376099D01*
X1522250Y375031D01*
X1522255Y375024D01*
X1522251Y375020D01*
X1522507Y373983D01*
X1522514Y373978D01*
X1522511Y373972D01*
X1522992Y373018D01*
X1522999Y373015D01*
X1522998Y373009D01*
X1523679Y372186D01*
X1523687Y372184D01*
X1523687Y372178D01*
X1524534Y371527D01*
X1524542Y371527D01*
X1524543Y371521D01*
X1525514Y371074D01*
X1525522Y371076D01*
X1525524Y371071D01*
X1526570Y370852D01*
X1526577Y370855D01*
X1526580Y370851D01*
X1538580Y370851D01*
X1538585Y370854D01*
G37*
G36*
X799445Y1549414D02*
X799445Y1549414D01*
X799448Y1549411D01*
X800543Y1549591D01*
X800549Y1549597D01*
X800554Y1549594D01*
X801582Y1550013D01*
X801586Y1550020D01*
X801591Y1550018D01*
X802500Y1550656D01*
X802503Y1550663D01*
X802508Y1550663D01*
X803252Y1551486D01*
X803253Y1551494D01*
X803259Y1551495D01*
X803801Y1552463D01*
X803800Y1552472D01*
X803806Y1552474D01*
X804119Y1553538D01*
X804116Y1553546D01*
X804121Y1553549D01*
X804189Y1554657D01*
X804185Y1554664D01*
X804189Y1554667D01*
X804019Y1555775D01*
X804013Y1555781D01*
X804016Y1555786D01*
X803604Y1556828D01*
X803597Y1556832D01*
X803599Y1556837D01*
X802965Y1557762D01*
X802957Y1557764D01*
X802958Y1557770D01*
X802135Y1558530D01*
X802126Y1558531D01*
X802126Y1558537D01*
X801154Y1559094D01*
X801146Y1559093D01*
X801144Y1559099D01*
X800072Y1559426D01*
X800064Y1559423D01*
X800061Y1559428D01*
X798944Y1559509D01*
X798941Y1559508D01*
X798940Y1559509D01*
X786940Y1559509D01*
X786937Y1559507D01*
X786930Y1559507D01*
X786929Y1559508D01*
X785985Y1559289D01*
X785979Y1559283D01*
X785974Y1559285D01*
X785102Y1558862D01*
X785099Y1558854D01*
X785093Y1558856D01*
X784337Y1558249D01*
X784335Y1558241D01*
X784329Y1558241D01*
X783728Y1557481D01*
X783728Y1557472D01*
X783722Y1557471D01*
X783304Y1556596D01*
X783306Y1556588D01*
X783301Y1556586D01*
X783089Y1555640D01*
X783092Y1555633D01*
X783087Y1555629D01*
X783091Y1554660D01*
X783091Y1554659D01*
X783110Y1553591D01*
X783115Y1553584D01*
X783111Y1553580D01*
X783367Y1552543D01*
X783374Y1552538D01*
X783371Y1552532D01*
X783852Y1551578D01*
X783859Y1551575D01*
X783858Y1551569D01*
X784539Y1550746D01*
X784547Y1550744D01*
X784547Y1550738D01*
X785394Y1550087D01*
X785402Y1550087D01*
X785403Y1550081D01*
X786374Y1549634D01*
X786382Y1549636D01*
X786384Y1549631D01*
X787430Y1549412D01*
X787437Y1549415D01*
X787440Y1549411D01*
X799440Y1549411D01*
X799445Y1549414D01*
G37*
G36*
X1538585Y960134D02*
X1538585Y960134D01*
X1538588Y960131D01*
X1539683Y960311D01*
X1539689Y960317D01*
X1539694Y960314D01*
X1540722Y960733D01*
X1540726Y960740D01*
X1540731Y960738D01*
X1541640Y961376D01*
X1541643Y961383D01*
X1541648Y961383D01*
X1542392Y962206D01*
X1542393Y962214D01*
X1542399Y962215D01*
X1542941Y963183D01*
X1542940Y963192D01*
X1542946Y963194D01*
X1543259Y964258D01*
X1543256Y964266D01*
X1543261Y964269D01*
X1543329Y965377D01*
X1543325Y965384D01*
X1543329Y965387D01*
X1543159Y966495D01*
X1543153Y966501D01*
X1543156Y966506D01*
X1542744Y967548D01*
X1542737Y967552D01*
X1542739Y967557D01*
X1542105Y968482D01*
X1542097Y968484D01*
X1542098Y968490D01*
X1541275Y969250D01*
X1541266Y969251D01*
X1541266Y969257D01*
X1540294Y969814D01*
X1540286Y969813D01*
X1540284Y969819D01*
X1539212Y970146D01*
X1539204Y970143D01*
X1539201Y970148D01*
X1538084Y970229D01*
X1538081Y970228D01*
X1538080Y970229D01*
X1526080Y970229D01*
X1526077Y970227D01*
X1526070Y970227D01*
X1526069Y970228D01*
X1525125Y970009D01*
X1525119Y970003D01*
X1525114Y970005D01*
X1524242Y969582D01*
X1524239Y969574D01*
X1524233Y969576D01*
X1523477Y968969D01*
X1523475Y968961D01*
X1523469Y968961D01*
X1522868Y968201D01*
X1522868Y968192D01*
X1522862Y968191D01*
X1522444Y967316D01*
X1522446Y967308D01*
X1522441Y967306D01*
X1522229Y966360D01*
X1522232Y966353D01*
X1522227Y966349D01*
X1522231Y965380D01*
X1522231Y965379D01*
X1522250Y964311D01*
X1522255Y964304D01*
X1522251Y964300D01*
X1522507Y963263D01*
X1522514Y963258D01*
X1522511Y963252D01*
X1522992Y962298D01*
X1522999Y962295D01*
X1522998Y962289D01*
X1523679Y961466D01*
X1523687Y961464D01*
X1523687Y961458D01*
X1524534Y960807D01*
X1524542Y960807D01*
X1524543Y960801D01*
X1525514Y960354D01*
X1525522Y960356D01*
X1525524Y960351D01*
X1526570Y960132D01*
X1526577Y960135D01*
X1526580Y960131D01*
X1538580Y960131D01*
X1538585Y960134D01*
G37*
G36*
X799445Y960134D02*
X799445Y960134D01*
X799448Y960131D01*
X800543Y960311D01*
X800549Y960317D01*
X800554Y960314D01*
X801582Y960733D01*
X801586Y960740D01*
X801591Y960738D01*
X802500Y961376D01*
X802503Y961383D01*
X802508Y961383D01*
X803252Y962206D01*
X803253Y962214D01*
X803259Y962215D01*
X803801Y963183D01*
X803800Y963192D01*
X803806Y963194D01*
X804119Y964258D01*
X804116Y964266D01*
X804121Y964269D01*
X804189Y965377D01*
X804185Y965384D01*
X804189Y965387D01*
X804019Y966495D01*
X804013Y966501D01*
X804016Y966506D01*
X803604Y967548D01*
X803597Y967552D01*
X803599Y967557D01*
X802965Y968482D01*
X802957Y968484D01*
X802958Y968490D01*
X802135Y969250D01*
X802126Y969251D01*
X802126Y969257D01*
X801154Y969814D01*
X801146Y969813D01*
X801144Y969819D01*
X800072Y970146D01*
X800064Y970143D01*
X800061Y970148D01*
X798944Y970229D01*
X798941Y970228D01*
X798940Y970229D01*
X786940Y970229D01*
X786937Y970227D01*
X786930Y970227D01*
X786929Y970228D01*
X785985Y970009D01*
X785979Y970003D01*
X785974Y970005D01*
X785102Y969582D01*
X785099Y969574D01*
X785093Y969576D01*
X784337Y968969D01*
X784335Y968961D01*
X784329Y968961D01*
X783728Y968201D01*
X783728Y968192D01*
X783722Y968191D01*
X783304Y967316D01*
X783306Y967308D01*
X783301Y967306D01*
X783089Y966360D01*
X783092Y966353D01*
X783087Y966349D01*
X783091Y965380D01*
X783091Y965379D01*
X783110Y964311D01*
X783115Y964304D01*
X783111Y964300D01*
X783367Y963263D01*
X783374Y963258D01*
X783371Y963252D01*
X783852Y962298D01*
X783859Y962295D01*
X783858Y962289D01*
X784539Y961466D01*
X784547Y961464D01*
X784547Y961458D01*
X785394Y960807D01*
X785402Y960807D01*
X785403Y960801D01*
X786374Y960354D01*
X786382Y960356D01*
X786384Y960351D01*
X787430Y960132D01*
X787437Y960135D01*
X787440Y960131D01*
X799440Y960131D01*
X799445Y960134D01*
G37*
G36*
X799445Y370854D02*
X799445Y370854D01*
X799448Y370851D01*
X800543Y371031D01*
X800549Y371037D01*
X800554Y371034D01*
X801582Y371453D01*
X801586Y371460D01*
X801591Y371458D01*
X802500Y372096D01*
X802503Y372103D01*
X802508Y372103D01*
X803252Y372926D01*
X803253Y372934D01*
X803259Y372935D01*
X803801Y373903D01*
X803800Y373912D01*
X803806Y373914D01*
X804119Y374978D01*
X804116Y374986D01*
X804121Y374989D01*
X804189Y376097D01*
X804185Y376104D01*
X804189Y376107D01*
X804019Y377215D01*
X804013Y377221D01*
X804016Y377226D01*
X803604Y378268D01*
X803597Y378272D01*
X803599Y378277D01*
X802965Y379202D01*
X802957Y379204D01*
X802958Y379210D01*
X802135Y379970D01*
X802126Y379971D01*
X802126Y379977D01*
X801154Y380534D01*
X801146Y380533D01*
X801144Y380539D01*
X800072Y380866D01*
X800064Y380863D01*
X800061Y380868D01*
X798944Y380949D01*
X798941Y380948D01*
X798940Y380949D01*
X786940Y380949D01*
X786937Y380947D01*
X786930Y380947D01*
X786929Y380948D01*
X785985Y380729D01*
X785979Y380723D01*
X785974Y380725D01*
X785102Y380302D01*
X785099Y380294D01*
X785093Y380296D01*
X784337Y379689D01*
X784335Y379681D01*
X784329Y379681D01*
X783728Y378921D01*
X783728Y378912D01*
X783722Y378911D01*
X783304Y378036D01*
X783306Y378028D01*
X783301Y378026D01*
X783089Y377080D01*
X783092Y377073D01*
X783087Y377069D01*
X783091Y376100D01*
X783091Y376099D01*
X783110Y375031D01*
X783115Y375024D01*
X783111Y375020D01*
X783367Y373983D01*
X783374Y373978D01*
X783371Y373972D01*
X783852Y373018D01*
X783859Y373015D01*
X783858Y373009D01*
X784539Y372186D01*
X784547Y372184D01*
X784547Y372178D01*
X785394Y371527D01*
X785402Y371527D01*
X785403Y371521D01*
X786374Y371074D01*
X786382Y371076D01*
X786384Y371071D01*
X787430Y370852D01*
X787437Y370855D01*
X787440Y370851D01*
X799440Y370851D01*
X799445Y370854D01*
G37*
G36*
X60305Y370854D02*
X60305Y370854D01*
X60308Y370851D01*
X61403Y371031D01*
X61409Y371037D01*
X61414Y371034D01*
X62442Y371453D01*
X62446Y371460D01*
X62451Y371458D01*
X63360Y372096D01*
X63363Y372103D01*
X63368Y372103D01*
X64112Y372926D01*
X64113Y372934D01*
X64119Y372935D01*
X64661Y373903D01*
X64660Y373912D01*
X64666Y373914D01*
X64979Y374978D01*
X64976Y374986D01*
X64981Y374989D01*
X65049Y376097D01*
X65045Y376104D01*
X65049Y376107D01*
X64879Y377215D01*
X64873Y377221D01*
X64876Y377226D01*
X64464Y378268D01*
X64457Y378272D01*
X64459Y378277D01*
X63825Y379202D01*
X63817Y379204D01*
X63818Y379210D01*
X62995Y379970D01*
X62986Y379971D01*
X62986Y379977D01*
X62014Y380534D01*
X62006Y380533D01*
X62004Y380539D01*
X60932Y380866D01*
X60924Y380863D01*
X60921Y380868D01*
X59804Y380949D01*
X59801Y380948D01*
X59800Y380949D01*
X47800Y380949D01*
X47797Y380947D01*
X47790Y380947D01*
X47789Y380948D01*
X46845Y380729D01*
X46839Y380723D01*
X46834Y380725D01*
X45962Y380302D01*
X45959Y380294D01*
X45953Y380296D01*
X45197Y379689D01*
X45195Y379681D01*
X45189Y379681D01*
X44588Y378921D01*
X44588Y378912D01*
X44582Y378911D01*
X44164Y378036D01*
X44166Y378028D01*
X44161Y378026D01*
X43949Y377080D01*
X43952Y377073D01*
X43947Y377069D01*
X43951Y376100D01*
X43951Y376099D01*
X43970Y375031D01*
X43975Y375024D01*
X43971Y375020D01*
X44227Y373983D01*
X44234Y373978D01*
X44231Y373972D01*
X44712Y373018D01*
X44719Y373015D01*
X44718Y373009D01*
X45399Y372186D01*
X45407Y372184D01*
X45407Y372178D01*
X46254Y371527D01*
X46262Y371527D01*
X46263Y371521D01*
X47234Y371074D01*
X47242Y371076D01*
X47244Y371071D01*
X48290Y370852D01*
X48297Y370855D01*
X48300Y370851D01*
X60300Y370851D01*
X60305Y370854D01*
G37*
G36*
X1538585Y1549414D02*
X1538585Y1549414D01*
X1538588Y1549411D01*
X1539683Y1549591D01*
X1539689Y1549597D01*
X1539694Y1549594D01*
X1540722Y1550013D01*
X1540726Y1550020D01*
X1540731Y1550018D01*
X1541640Y1550656D01*
X1541643Y1550663D01*
X1541648Y1550663D01*
X1542392Y1551486D01*
X1542393Y1551494D01*
X1542399Y1551495D01*
X1542941Y1552463D01*
X1542940Y1552472D01*
X1542946Y1552474D01*
X1543259Y1553538D01*
X1543256Y1553546D01*
X1543261Y1553549D01*
X1543329Y1554657D01*
X1543325Y1554664D01*
X1543329Y1554667D01*
X1543159Y1555775D01*
X1543153Y1555781D01*
X1543156Y1555786D01*
X1542744Y1556828D01*
X1542737Y1556832D01*
X1542739Y1556837D01*
X1542105Y1557762D01*
X1542097Y1557764D01*
X1542098Y1557770D01*
X1541275Y1558530D01*
X1541266Y1558531D01*
X1541266Y1558537D01*
X1540294Y1559094D01*
X1540286Y1559093D01*
X1540284Y1559099D01*
X1539212Y1559426D01*
X1539204Y1559423D01*
X1539201Y1559428D01*
X1538084Y1559509D01*
X1538081Y1559508D01*
X1538080Y1559509D01*
X1526080Y1559509D01*
X1526077Y1559507D01*
X1526070Y1559507D01*
X1526069Y1559508D01*
X1525125Y1559289D01*
X1525119Y1559283D01*
X1525114Y1559285D01*
X1524242Y1558862D01*
X1524239Y1558854D01*
X1524233Y1558856D01*
X1523477Y1558249D01*
X1523475Y1558241D01*
X1523469Y1558241D01*
X1522868Y1557481D01*
X1522868Y1557472D01*
X1522862Y1557471D01*
X1522444Y1556596D01*
X1522446Y1556588D01*
X1522441Y1556586D01*
X1522229Y1555640D01*
X1522232Y1555633D01*
X1522227Y1555629D01*
X1522231Y1554660D01*
X1522231Y1554659D01*
X1522250Y1553591D01*
X1522255Y1553584D01*
X1522251Y1553580D01*
X1522507Y1552543D01*
X1522514Y1552538D01*
X1522511Y1552532D01*
X1522992Y1551578D01*
X1522999Y1551575D01*
X1522998Y1551569D01*
X1523679Y1550746D01*
X1523687Y1550744D01*
X1523687Y1550738D01*
X1524534Y1550087D01*
X1524542Y1550087D01*
X1524543Y1550081D01*
X1525514Y1549634D01*
X1525522Y1549636D01*
X1525524Y1549631D01*
X1526570Y1549412D01*
X1526577Y1549415D01*
X1526580Y1549411D01*
X1538580Y1549411D01*
X1538585Y1549414D01*
G37*
G36*
X60305Y1549414D02*
X60305Y1549414D01*
X60308Y1549411D01*
X61403Y1549591D01*
X61409Y1549597D01*
X61414Y1549594D01*
X62442Y1550013D01*
X62446Y1550020D01*
X62451Y1550018D01*
X63360Y1550656D01*
X63363Y1550663D01*
X63368Y1550663D01*
X64112Y1551486D01*
X64113Y1551494D01*
X64119Y1551495D01*
X64661Y1552463D01*
X64660Y1552472D01*
X64666Y1552474D01*
X64979Y1553538D01*
X64976Y1553546D01*
X64981Y1553549D01*
X65049Y1554657D01*
X65045Y1554664D01*
X65049Y1554667D01*
X64879Y1555775D01*
X64873Y1555781D01*
X64876Y1555786D01*
X64464Y1556828D01*
X64457Y1556832D01*
X64459Y1556837D01*
X63825Y1557762D01*
X63817Y1557764D01*
X63818Y1557770D01*
X62995Y1558530D01*
X62986Y1558531D01*
X62986Y1558537D01*
X62014Y1559094D01*
X62006Y1559093D01*
X62004Y1559099D01*
X60932Y1559426D01*
X60924Y1559423D01*
X60921Y1559428D01*
X59804Y1559509D01*
X59801Y1559508D01*
X59800Y1559509D01*
X47800Y1559509D01*
X47797Y1559507D01*
X47790Y1559507D01*
X47789Y1559508D01*
X46845Y1559289D01*
X46839Y1559283D01*
X46834Y1559285D01*
X45962Y1558862D01*
X45959Y1558854D01*
X45953Y1558856D01*
X45197Y1558249D01*
X45195Y1558241D01*
X45189Y1558241D01*
X44588Y1557481D01*
X44588Y1557472D01*
X44582Y1557471D01*
X44164Y1556596D01*
X44166Y1556588D01*
X44161Y1556586D01*
X43949Y1555640D01*
X43952Y1555633D01*
X43947Y1555629D01*
X43951Y1554660D01*
X43951Y1554659D01*
X43970Y1553591D01*
X43975Y1553584D01*
X43971Y1553580D01*
X44227Y1552543D01*
X44234Y1552538D01*
X44231Y1552532D01*
X44712Y1551578D01*
X44719Y1551575D01*
X44718Y1551569D01*
X45399Y1550746D01*
X45407Y1550744D01*
X45407Y1550738D01*
X46254Y1550087D01*
X46262Y1550087D01*
X46263Y1550081D01*
X47234Y1549634D01*
X47242Y1549636D01*
X47244Y1549631D01*
X48290Y1549412D01*
X48297Y1549415D01*
X48300Y1549411D01*
X60300Y1549411D01*
X60305Y1549414D01*
G37*
G36*
X60305Y2138694D02*
X60305Y2138694D01*
X60308Y2138691D01*
X61403Y2138871D01*
X61409Y2138877D01*
X61414Y2138874D01*
X62442Y2139293D01*
X62446Y2139300D01*
X62451Y2139298D01*
X63360Y2139936D01*
X63363Y2139943D01*
X63368Y2139943D01*
X64112Y2140766D01*
X64113Y2140774D01*
X64119Y2140775D01*
X64661Y2141743D01*
X64660Y2141752D01*
X64666Y2141754D01*
X64979Y2142818D01*
X64976Y2142826D01*
X64981Y2142829D01*
X65049Y2143937D01*
X65045Y2143944D01*
X65049Y2143947D01*
X64879Y2145055D01*
X64873Y2145061D01*
X64876Y2145066D01*
X64464Y2146108D01*
X64457Y2146112D01*
X64459Y2146117D01*
X63825Y2147042D01*
X63817Y2147044D01*
X63818Y2147050D01*
X62995Y2147810D01*
X62986Y2147811D01*
X62986Y2147817D01*
X62014Y2148374D01*
X62006Y2148373D01*
X62004Y2148379D01*
X60932Y2148706D01*
X60924Y2148703D01*
X60921Y2148708D01*
X59804Y2148789D01*
X59801Y2148788D01*
X59800Y2148789D01*
X47800Y2148789D01*
X47797Y2148787D01*
X47790Y2148787D01*
X47789Y2148788D01*
X46845Y2148569D01*
X46839Y2148563D01*
X46834Y2148565D01*
X45962Y2148142D01*
X45959Y2148134D01*
X45953Y2148136D01*
X45197Y2147529D01*
X45195Y2147521D01*
X45189Y2147521D01*
X44588Y2146761D01*
X44588Y2146752D01*
X44582Y2146751D01*
X44164Y2145876D01*
X44166Y2145868D01*
X44161Y2145866D01*
X43949Y2144920D01*
X43952Y2144913D01*
X43947Y2144909D01*
X43951Y2143940D01*
X43951Y2143939D01*
X43970Y2142871D01*
X43975Y2142864D01*
X43971Y2142860D01*
X44227Y2141823D01*
X44234Y2141818D01*
X44231Y2141812D01*
X44712Y2140858D01*
X44719Y2140855D01*
X44718Y2140849D01*
X45399Y2140026D01*
X45407Y2140024D01*
X45407Y2140018D01*
X46254Y2139367D01*
X46262Y2139367D01*
X46263Y2139361D01*
X47234Y2138914D01*
X47242Y2138916D01*
X47244Y2138911D01*
X48290Y2138692D01*
X48297Y2138695D01*
X48300Y2138691D01*
X60300Y2138691D01*
X60305Y2138694D01*
G37*
G36*
X1538585Y2138694D02*
X1538585Y2138694D01*
X1538588Y2138691D01*
X1539683Y2138871D01*
X1539689Y2138877D01*
X1539694Y2138874D01*
X1540722Y2139293D01*
X1540726Y2139300D01*
X1540731Y2139298D01*
X1541640Y2139936D01*
X1541643Y2139943D01*
X1541648Y2139943D01*
X1542392Y2140766D01*
X1542393Y2140774D01*
X1542399Y2140775D01*
X1542941Y2141743D01*
X1542940Y2141752D01*
X1542946Y2141754D01*
X1543259Y2142818D01*
X1543256Y2142826D01*
X1543261Y2142829D01*
X1543329Y2143937D01*
X1543325Y2143944D01*
X1543329Y2143947D01*
X1543159Y2145055D01*
X1543153Y2145061D01*
X1543156Y2145066D01*
X1542744Y2146108D01*
X1542737Y2146112D01*
X1542739Y2146117D01*
X1542105Y2147042D01*
X1542097Y2147044D01*
X1542098Y2147050D01*
X1541275Y2147810D01*
X1541266Y2147811D01*
X1541266Y2147817D01*
X1540294Y2148374D01*
X1540286Y2148373D01*
X1540284Y2148379D01*
X1539212Y2148706D01*
X1539204Y2148703D01*
X1539201Y2148708D01*
X1538084Y2148789D01*
X1538081Y2148788D01*
X1538080Y2148789D01*
X1526080Y2148789D01*
X1526077Y2148787D01*
X1526070Y2148787D01*
X1526069Y2148788D01*
X1525125Y2148569D01*
X1525119Y2148563D01*
X1525114Y2148565D01*
X1524242Y2148142D01*
X1524239Y2148134D01*
X1524233Y2148136D01*
X1523477Y2147529D01*
X1523475Y2147521D01*
X1523469Y2147521D01*
X1522868Y2146761D01*
X1522868Y2146752D01*
X1522862Y2146751D01*
X1522444Y2145876D01*
X1522446Y2145868D01*
X1522441Y2145866D01*
X1522229Y2144920D01*
X1522232Y2144913D01*
X1522227Y2144909D01*
X1522231Y2143940D01*
X1522231Y2143939D01*
X1522250Y2142871D01*
X1522255Y2142864D01*
X1522251Y2142860D01*
X1522507Y2141823D01*
X1522514Y2141818D01*
X1522511Y2141812D01*
X1522992Y2140858D01*
X1522999Y2140855D01*
X1522998Y2140849D01*
X1523679Y2140026D01*
X1523687Y2140024D01*
X1523687Y2140018D01*
X1524534Y2139367D01*
X1524542Y2139367D01*
X1524543Y2139361D01*
X1525514Y2138914D01*
X1525522Y2138916D01*
X1525524Y2138911D01*
X1526570Y2138692D01*
X1526577Y2138695D01*
X1526580Y2138691D01*
X1538580Y2138691D01*
X1538585Y2138694D01*
G37*
G36*
X60305Y960134D02*
X60305Y960134D01*
X60308Y960131D01*
X61403Y960311D01*
X61409Y960317D01*
X61414Y960314D01*
X62442Y960733D01*
X62446Y960740D01*
X62451Y960738D01*
X63360Y961376D01*
X63363Y961383D01*
X63368Y961383D01*
X64112Y962206D01*
X64113Y962214D01*
X64119Y962215D01*
X64661Y963183D01*
X64660Y963192D01*
X64666Y963194D01*
X64979Y964258D01*
X64976Y964266D01*
X64981Y964269D01*
X65049Y965377D01*
X65045Y965384D01*
X65049Y965387D01*
X64879Y966495D01*
X64873Y966501D01*
X64876Y966506D01*
X64464Y967548D01*
X64457Y967552D01*
X64459Y967557D01*
X63825Y968482D01*
X63817Y968484D01*
X63818Y968490D01*
X62995Y969250D01*
X62986Y969251D01*
X62986Y969257D01*
X62014Y969814D01*
X62006Y969813D01*
X62004Y969819D01*
X60932Y970146D01*
X60924Y970143D01*
X60921Y970148D01*
X59804Y970229D01*
X59801Y970228D01*
X59800Y970229D01*
X47800Y970229D01*
X47797Y970227D01*
X47790Y970227D01*
X47789Y970228D01*
X46845Y970009D01*
X46839Y970003D01*
X46834Y970005D01*
X45962Y969582D01*
X45959Y969574D01*
X45953Y969576D01*
X45197Y968969D01*
X45195Y968961D01*
X45189Y968961D01*
X44588Y968201D01*
X44588Y968192D01*
X44582Y968191D01*
X44164Y967316D01*
X44166Y967308D01*
X44161Y967306D01*
X43949Y966360D01*
X43952Y966353D01*
X43947Y966349D01*
X43951Y965380D01*
X43951Y965379D01*
X43970Y964311D01*
X43975Y964304D01*
X43971Y964300D01*
X44227Y963263D01*
X44234Y963258D01*
X44231Y963252D01*
X44712Y962298D01*
X44719Y962295D01*
X44718Y962289D01*
X45399Y961466D01*
X45407Y961464D01*
X45407Y961458D01*
X46254Y960807D01*
X46262Y960807D01*
X46263Y960801D01*
X47234Y960354D01*
X47242Y960356D01*
X47244Y960351D01*
X48290Y960132D01*
X48297Y960135D01*
X48300Y960131D01*
X60300Y960131D01*
X60305Y960134D01*
G37*
G36*
X799445Y457255D02*
X799445Y457255D01*
X799448Y457251D01*
X800554Y457444D01*
X800559Y457449D01*
X800559Y457450D01*
X800564Y457447D01*
X801599Y457880D01*
X801603Y457887D01*
X801608Y457885D01*
X802521Y458538D01*
X802523Y458546D01*
X802529Y458545D01*
X803273Y459384D01*
X803274Y459393D01*
X803279Y459393D01*
X803818Y460377D01*
X803817Y460385D01*
X803818Y460386D01*
X803822Y460387D01*
X803823Y460389D01*
X804005Y461030D01*
X804129Y461466D01*
X804127Y461471D01*
X804129Y461473D01*
X804127Y461475D01*
X804131Y461477D01*
X804189Y462597D01*
X804186Y462602D01*
X804189Y462606D01*
X804071Y463651D01*
X804065Y463657D01*
X804069Y463662D01*
X803721Y464656D01*
X803714Y464660D01*
X803716Y464665D01*
X803156Y465557D01*
X803149Y465560D01*
X803149Y465565D01*
X802405Y466309D01*
X802397Y466311D01*
X802397Y466316D01*
X801505Y466876D01*
X801497Y466876D01*
X801496Y466881D01*
X800502Y467229D01*
X800494Y467226D01*
X800491Y467231D01*
X799446Y467349D01*
X799442Y467347D01*
X799440Y467349D01*
X787440Y467349D01*
X787437Y467347D01*
X787434Y467347D01*
X787432Y467349D01*
X786436Y467191D01*
X786430Y467185D01*
X786425Y467188D01*
X785489Y466813D01*
X785485Y466806D01*
X785479Y466808D01*
X784650Y466234D01*
X784647Y466226D01*
X784642Y466227D01*
X783961Y465483D01*
X783960Y465474D01*
X783954Y465474D01*
X783456Y464597D01*
X783457Y464589D01*
X783452Y464586D01*
X783264Y463962D01*
X783161Y463621D01*
X783162Y463618D01*
X783161Y463617D01*
X783164Y463613D01*
X783159Y463610D01*
X783091Y462603D01*
X783092Y462601D01*
X783091Y462600D01*
X783100Y461519D01*
X783105Y461512D01*
X783101Y461508D01*
X783351Y460456D01*
X783357Y460451D01*
X783354Y460446D01*
X783831Y459476D01*
X783839Y459473D01*
X783837Y459467D01*
X784518Y458628D01*
X784526Y458626D01*
X784526Y458620D01*
X785377Y457954D01*
X785385Y457953D01*
X785386Y457948D01*
X786363Y457487D01*
X786371Y457489D01*
X786374Y457484D01*
X787429Y457252D01*
X787437Y457255D01*
X787440Y457251D01*
X799440Y457251D01*
X799445Y457255D01*
G37*
G36*
X1538585Y1046535D02*
X1538585Y1046535D01*
X1538588Y1046531D01*
X1539694Y1046724D01*
X1539699Y1046729D01*
X1539699Y1046730D01*
X1539704Y1046727D01*
X1540739Y1047160D01*
X1540743Y1047167D01*
X1540748Y1047165D01*
X1541661Y1047818D01*
X1541663Y1047826D01*
X1541669Y1047825D01*
X1542413Y1048664D01*
X1542414Y1048673D01*
X1542419Y1048673D01*
X1542958Y1049657D01*
X1542957Y1049665D01*
X1542958Y1049666D01*
X1542962Y1049667D01*
X1542963Y1049669D01*
X1543145Y1050310D01*
X1543269Y1050746D01*
X1543267Y1050751D01*
X1543269Y1050753D01*
X1543267Y1050755D01*
X1543271Y1050757D01*
X1543329Y1051877D01*
X1543326Y1051882D01*
X1543329Y1051886D01*
X1543211Y1052931D01*
X1543205Y1052937D01*
X1543209Y1052942D01*
X1542861Y1053936D01*
X1542854Y1053940D01*
X1542856Y1053945D01*
X1542296Y1054837D01*
X1542289Y1054840D01*
X1542289Y1054845D01*
X1541545Y1055589D01*
X1541537Y1055591D01*
X1541537Y1055596D01*
X1540645Y1056156D01*
X1540637Y1056156D01*
X1540636Y1056161D01*
X1539642Y1056509D01*
X1539634Y1056506D01*
X1539631Y1056511D01*
X1538586Y1056629D01*
X1538582Y1056627D01*
X1538580Y1056629D01*
X1526580Y1056629D01*
X1526577Y1056627D01*
X1526574Y1056627D01*
X1526572Y1056629D01*
X1525576Y1056471D01*
X1525570Y1056465D01*
X1525565Y1056468D01*
X1524629Y1056093D01*
X1524625Y1056086D01*
X1524619Y1056088D01*
X1523790Y1055514D01*
X1523787Y1055506D01*
X1523782Y1055507D01*
X1523101Y1054763D01*
X1523100Y1054754D01*
X1523094Y1054754D01*
X1522596Y1053877D01*
X1522597Y1053869D01*
X1522592Y1053866D01*
X1522404Y1053242D01*
X1522301Y1052901D01*
X1522302Y1052898D01*
X1522301Y1052897D01*
X1522304Y1052893D01*
X1522299Y1052890D01*
X1522231Y1051883D01*
X1522232Y1051881D01*
X1522231Y1051880D01*
X1522240Y1050799D01*
X1522245Y1050792D01*
X1522241Y1050788D01*
X1522491Y1049736D01*
X1522497Y1049731D01*
X1522494Y1049726D01*
X1522971Y1048756D01*
X1522979Y1048753D01*
X1522977Y1048747D01*
X1523658Y1047908D01*
X1523666Y1047906D01*
X1523666Y1047900D01*
X1524517Y1047234D01*
X1524525Y1047233D01*
X1524526Y1047228D01*
X1525503Y1046767D01*
X1525511Y1046769D01*
X1525514Y1046764D01*
X1526569Y1046532D01*
X1526577Y1046535D01*
X1526580Y1046531D01*
X1538580Y1046531D01*
X1538585Y1046535D01*
G37*
G36*
X60305Y2225095D02*
X60305Y2225095D01*
X60308Y2225091D01*
X61414Y2225284D01*
X61419Y2225289D01*
X61419Y2225290D01*
X61424Y2225287D01*
X62459Y2225720D01*
X62463Y2225727D01*
X62468Y2225725D01*
X63381Y2226378D01*
X63383Y2226386D01*
X63389Y2226385D01*
X64133Y2227224D01*
X64134Y2227233D01*
X64139Y2227233D01*
X64678Y2228217D01*
X64677Y2228225D01*
X64678Y2228226D01*
X64682Y2228227D01*
X64683Y2228229D01*
X64865Y2228870D01*
X64989Y2229306D01*
X64987Y2229311D01*
X64989Y2229313D01*
X64987Y2229315D01*
X64991Y2229317D01*
X65049Y2230437D01*
X65046Y2230442D01*
X65049Y2230446D01*
X64931Y2231491D01*
X64925Y2231497D01*
X64929Y2231502D01*
X64581Y2232496D01*
X64574Y2232500D01*
X64576Y2232505D01*
X64016Y2233397D01*
X64009Y2233400D01*
X64009Y2233405D01*
X63265Y2234149D01*
X63257Y2234151D01*
X63257Y2234156D01*
X62365Y2234716D01*
X62357Y2234716D01*
X62356Y2234721D01*
X61362Y2235069D01*
X61354Y2235066D01*
X61351Y2235071D01*
X60306Y2235189D01*
X60302Y2235187D01*
X60300Y2235189D01*
X48300Y2235189D01*
X48297Y2235187D01*
X48294Y2235187D01*
X48292Y2235189D01*
X47296Y2235031D01*
X47290Y2235025D01*
X47285Y2235028D01*
X46349Y2234653D01*
X46345Y2234646D01*
X46339Y2234648D01*
X45510Y2234074D01*
X45507Y2234066D01*
X45502Y2234067D01*
X44821Y2233323D01*
X44820Y2233314D01*
X44814Y2233314D01*
X44316Y2232437D01*
X44317Y2232429D01*
X44312Y2232426D01*
X44124Y2231802D01*
X44021Y2231461D01*
X44022Y2231458D01*
X44021Y2231457D01*
X44024Y2231453D01*
X44019Y2231450D01*
X43951Y2230443D01*
X43952Y2230441D01*
X43951Y2230440D01*
X43960Y2229359D01*
X43965Y2229352D01*
X43961Y2229348D01*
X44211Y2228296D01*
X44217Y2228291D01*
X44214Y2228286D01*
X44691Y2227316D01*
X44699Y2227313D01*
X44697Y2227307D01*
X45378Y2226468D01*
X45386Y2226466D01*
X45386Y2226460D01*
X46237Y2225794D01*
X46245Y2225793D01*
X46246Y2225788D01*
X47223Y2225327D01*
X47231Y2225329D01*
X47234Y2225324D01*
X48289Y2225092D01*
X48297Y2225095D01*
X48300Y2225091D01*
X60300Y2225091D01*
X60305Y2225095D01*
G37*
G36*
X799445Y2225095D02*
X799445Y2225095D01*
X799448Y2225091D01*
X800554Y2225284D01*
X800559Y2225289D01*
X800559Y2225290D01*
X800564Y2225287D01*
X801599Y2225720D01*
X801603Y2225727D01*
X801608Y2225725D01*
X802521Y2226378D01*
X802523Y2226386D01*
X802529Y2226385D01*
X803273Y2227224D01*
X803274Y2227233D01*
X803279Y2227233D01*
X803818Y2228217D01*
X803817Y2228225D01*
X803818Y2228226D01*
X803822Y2228227D01*
X803823Y2228229D01*
X804005Y2228870D01*
X804129Y2229306D01*
X804127Y2229311D01*
X804129Y2229313D01*
X804127Y2229315D01*
X804131Y2229317D01*
X804189Y2230437D01*
X804186Y2230442D01*
X804189Y2230446D01*
X804071Y2231491D01*
X804065Y2231497D01*
X804069Y2231502D01*
X803721Y2232496D01*
X803714Y2232500D01*
X803716Y2232505D01*
X803156Y2233397D01*
X803149Y2233400D01*
X803149Y2233405D01*
X802405Y2234149D01*
X802397Y2234151D01*
X802397Y2234156D01*
X801505Y2234716D01*
X801497Y2234716D01*
X801496Y2234721D01*
X800502Y2235069D01*
X800494Y2235066D01*
X800491Y2235071D01*
X799446Y2235189D01*
X799442Y2235187D01*
X799440Y2235189D01*
X787440Y2235189D01*
X787437Y2235187D01*
X787434Y2235187D01*
X787432Y2235189D01*
X786436Y2235031D01*
X786430Y2235025D01*
X786425Y2235028D01*
X785489Y2234653D01*
X785485Y2234646D01*
X785479Y2234648D01*
X784650Y2234074D01*
X784647Y2234066D01*
X784642Y2234067D01*
X783961Y2233323D01*
X783960Y2233314D01*
X783954Y2233314D01*
X783456Y2232437D01*
X783457Y2232429D01*
X783452Y2232426D01*
X783264Y2231802D01*
X783161Y2231461D01*
X783162Y2231458D01*
X783161Y2231457D01*
X783164Y2231453D01*
X783159Y2231450D01*
X783091Y2230443D01*
X783092Y2230441D01*
X783091Y2230440D01*
X783100Y2229359D01*
X783105Y2229352D01*
X783101Y2229348D01*
X783351Y2228296D01*
X783357Y2228291D01*
X783354Y2228286D01*
X783831Y2227316D01*
X783839Y2227313D01*
X783837Y2227307D01*
X784518Y2226468D01*
X784526Y2226466D01*
X784526Y2226460D01*
X785377Y2225794D01*
X785385Y2225793D01*
X785386Y2225788D01*
X786363Y2225327D01*
X786371Y2225329D01*
X786374Y2225324D01*
X787429Y2225092D01*
X787437Y2225095D01*
X787440Y2225091D01*
X799440Y2225091D01*
X799445Y2225095D01*
G37*
G36*
X60305Y1046535D02*
X60305Y1046535D01*
X60308Y1046531D01*
X61414Y1046724D01*
X61419Y1046729D01*
X61419Y1046730D01*
X61424Y1046727D01*
X62459Y1047160D01*
X62463Y1047167D01*
X62468Y1047165D01*
X63381Y1047818D01*
X63383Y1047826D01*
X63389Y1047825D01*
X64133Y1048664D01*
X64134Y1048673D01*
X64139Y1048673D01*
X64678Y1049657D01*
X64677Y1049665D01*
X64678Y1049666D01*
X64682Y1049667D01*
X64683Y1049669D01*
X64865Y1050310D01*
X64989Y1050746D01*
X64987Y1050751D01*
X64989Y1050753D01*
X64987Y1050755D01*
X64991Y1050757D01*
X65049Y1051877D01*
X65046Y1051882D01*
X65049Y1051886D01*
X64931Y1052931D01*
X64925Y1052937D01*
X64929Y1052942D01*
X64581Y1053936D01*
X64574Y1053940D01*
X64576Y1053945D01*
X64016Y1054837D01*
X64009Y1054840D01*
X64009Y1054845D01*
X63265Y1055589D01*
X63257Y1055591D01*
X63257Y1055596D01*
X62365Y1056156D01*
X62357Y1056156D01*
X62356Y1056161D01*
X61362Y1056509D01*
X61354Y1056506D01*
X61351Y1056511D01*
X60306Y1056629D01*
X60302Y1056627D01*
X60300Y1056629D01*
X48300Y1056629D01*
X48297Y1056627D01*
X48294Y1056627D01*
X48292Y1056629D01*
X47296Y1056471D01*
X47290Y1056465D01*
X47285Y1056468D01*
X46349Y1056093D01*
X46345Y1056086D01*
X46339Y1056088D01*
X45510Y1055514D01*
X45507Y1055506D01*
X45502Y1055507D01*
X44821Y1054763D01*
X44820Y1054754D01*
X44814Y1054754D01*
X44316Y1053877D01*
X44317Y1053869D01*
X44312Y1053866D01*
X44124Y1053242D01*
X44021Y1052901D01*
X44022Y1052898D01*
X44021Y1052897D01*
X44024Y1052893D01*
X44019Y1052890D01*
X43951Y1051883D01*
X43952Y1051881D01*
X43951Y1051880D01*
X43960Y1050799D01*
X43965Y1050792D01*
X43961Y1050788D01*
X44211Y1049736D01*
X44217Y1049731D01*
X44214Y1049726D01*
X44691Y1048756D01*
X44699Y1048753D01*
X44697Y1048747D01*
X45378Y1047908D01*
X45386Y1047906D01*
X45386Y1047900D01*
X46237Y1047234D01*
X46245Y1047233D01*
X46246Y1047228D01*
X47223Y1046767D01*
X47231Y1046769D01*
X47234Y1046764D01*
X48289Y1046532D01*
X48297Y1046535D01*
X48300Y1046531D01*
X60300Y1046531D01*
X60305Y1046535D01*
G37*
G36*
X1538585Y2225095D02*
X1538585Y2225095D01*
X1538588Y2225091D01*
X1539694Y2225284D01*
X1539699Y2225289D01*
X1539699Y2225290D01*
X1539704Y2225287D01*
X1540739Y2225720D01*
X1540743Y2225727D01*
X1540748Y2225725D01*
X1541661Y2226378D01*
X1541663Y2226386D01*
X1541669Y2226385D01*
X1542413Y2227224D01*
X1542414Y2227233D01*
X1542419Y2227233D01*
X1542958Y2228217D01*
X1542957Y2228225D01*
X1542958Y2228226D01*
X1542962Y2228227D01*
X1542963Y2228229D01*
X1543145Y2228870D01*
X1543269Y2229306D01*
X1543267Y2229311D01*
X1543269Y2229313D01*
X1543267Y2229315D01*
X1543271Y2229317D01*
X1543329Y2230437D01*
X1543326Y2230442D01*
X1543329Y2230446D01*
X1543211Y2231491D01*
X1543205Y2231497D01*
X1543209Y2231502D01*
X1542861Y2232496D01*
X1542854Y2232500D01*
X1542856Y2232505D01*
X1542296Y2233397D01*
X1542289Y2233400D01*
X1542289Y2233405D01*
X1541545Y2234149D01*
X1541537Y2234151D01*
X1541537Y2234156D01*
X1540645Y2234716D01*
X1540637Y2234716D01*
X1540636Y2234721D01*
X1539642Y2235069D01*
X1539634Y2235066D01*
X1539631Y2235071D01*
X1538586Y2235189D01*
X1538582Y2235187D01*
X1538580Y2235189D01*
X1526580Y2235189D01*
X1526577Y2235187D01*
X1526574Y2235187D01*
X1526572Y2235189D01*
X1525576Y2235031D01*
X1525570Y2235025D01*
X1525565Y2235028D01*
X1524629Y2234653D01*
X1524625Y2234646D01*
X1524619Y2234648D01*
X1523790Y2234074D01*
X1523787Y2234066D01*
X1523782Y2234067D01*
X1523101Y2233323D01*
X1523100Y2233314D01*
X1523094Y2233314D01*
X1522596Y2232437D01*
X1522597Y2232429D01*
X1522592Y2232426D01*
X1522404Y2231802D01*
X1522301Y2231461D01*
X1522302Y2231458D01*
X1522301Y2231457D01*
X1522304Y2231453D01*
X1522299Y2231450D01*
X1522231Y2230443D01*
X1522232Y2230441D01*
X1522231Y2230440D01*
X1522240Y2229359D01*
X1522245Y2229352D01*
X1522241Y2229348D01*
X1522491Y2228296D01*
X1522497Y2228291D01*
X1522494Y2228286D01*
X1522971Y2227316D01*
X1522979Y2227313D01*
X1522977Y2227307D01*
X1523658Y2226468D01*
X1523666Y2226466D01*
X1523666Y2226460D01*
X1524517Y2225794D01*
X1524525Y2225793D01*
X1524526Y2225788D01*
X1525503Y2225327D01*
X1525511Y2225329D01*
X1525514Y2225324D01*
X1526569Y2225092D01*
X1526577Y2225095D01*
X1526580Y2225091D01*
X1538580Y2225091D01*
X1538585Y2225095D01*
G37*
G36*
X799445Y1046535D02*
X799445Y1046535D01*
X799448Y1046531D01*
X800554Y1046724D01*
X800559Y1046729D01*
X800559Y1046730D01*
X800564Y1046727D01*
X801599Y1047160D01*
X801603Y1047167D01*
X801608Y1047165D01*
X802521Y1047818D01*
X802523Y1047826D01*
X802529Y1047825D01*
X803273Y1048664D01*
X803274Y1048673D01*
X803279Y1048673D01*
X803818Y1049657D01*
X803817Y1049665D01*
X803818Y1049666D01*
X803822Y1049667D01*
X803823Y1049669D01*
X804005Y1050310D01*
X804129Y1050746D01*
X804127Y1050751D01*
X804129Y1050753D01*
X804127Y1050755D01*
X804131Y1050757D01*
X804189Y1051877D01*
X804186Y1051882D01*
X804189Y1051886D01*
X804071Y1052931D01*
X804065Y1052937D01*
X804069Y1052942D01*
X803721Y1053936D01*
X803714Y1053940D01*
X803716Y1053945D01*
X803156Y1054837D01*
X803149Y1054840D01*
X803149Y1054845D01*
X802405Y1055589D01*
X802397Y1055591D01*
X802397Y1055596D01*
X801505Y1056156D01*
X801497Y1056156D01*
X801496Y1056161D01*
X800502Y1056509D01*
X800494Y1056506D01*
X800491Y1056511D01*
X799446Y1056629D01*
X799442Y1056627D01*
X799440Y1056629D01*
X787440Y1056629D01*
X787437Y1056627D01*
X787434Y1056627D01*
X787432Y1056629D01*
X786436Y1056471D01*
X786430Y1056465D01*
X786425Y1056468D01*
X785489Y1056093D01*
X785485Y1056086D01*
X785479Y1056088D01*
X784650Y1055514D01*
X784647Y1055506D01*
X784642Y1055507D01*
X783961Y1054763D01*
X783960Y1054754D01*
X783954Y1054754D01*
X783456Y1053877D01*
X783457Y1053869D01*
X783452Y1053866D01*
X783264Y1053242D01*
X783161Y1052901D01*
X783162Y1052898D01*
X783161Y1052897D01*
X783164Y1052893D01*
X783159Y1052890D01*
X783091Y1051883D01*
X783092Y1051881D01*
X783091Y1051880D01*
X783100Y1050799D01*
X783105Y1050792D01*
X783101Y1050788D01*
X783351Y1049736D01*
X783357Y1049731D01*
X783354Y1049726D01*
X783831Y1048756D01*
X783839Y1048753D01*
X783837Y1048747D01*
X784518Y1047908D01*
X784526Y1047906D01*
X784526Y1047900D01*
X785377Y1047234D01*
X785385Y1047233D01*
X785386Y1047228D01*
X786363Y1046767D01*
X786371Y1046769D01*
X786374Y1046764D01*
X787429Y1046532D01*
X787437Y1046535D01*
X787440Y1046531D01*
X799440Y1046531D01*
X799445Y1046535D01*
G37*
G36*
X60305Y457255D02*
X60305Y457255D01*
X60308Y457251D01*
X61414Y457444D01*
X61419Y457449D01*
X61419Y457450D01*
X61424Y457447D01*
X62459Y457880D01*
X62463Y457887D01*
X62468Y457885D01*
X63381Y458538D01*
X63383Y458546D01*
X63389Y458545D01*
X64133Y459384D01*
X64134Y459393D01*
X64139Y459393D01*
X64678Y460377D01*
X64677Y460385D01*
X64678Y460386D01*
X64682Y460387D01*
X64683Y460389D01*
X64865Y461030D01*
X64989Y461466D01*
X64987Y461471D01*
X64989Y461473D01*
X64987Y461475D01*
X64991Y461477D01*
X65049Y462597D01*
X65046Y462602D01*
X65049Y462606D01*
X64931Y463651D01*
X64925Y463657D01*
X64929Y463662D01*
X64581Y464656D01*
X64574Y464660D01*
X64576Y464665D01*
X64016Y465557D01*
X64009Y465560D01*
X64009Y465565D01*
X63265Y466309D01*
X63257Y466311D01*
X63257Y466316D01*
X62365Y466876D01*
X62357Y466876D01*
X62356Y466881D01*
X61362Y467229D01*
X61354Y467226D01*
X61351Y467231D01*
X60306Y467349D01*
X60302Y467347D01*
X60300Y467349D01*
X48300Y467349D01*
X48297Y467347D01*
X48294Y467347D01*
X48292Y467349D01*
X47296Y467191D01*
X47290Y467185D01*
X47285Y467188D01*
X46349Y466813D01*
X46345Y466806D01*
X46339Y466808D01*
X45510Y466234D01*
X45507Y466226D01*
X45502Y466227D01*
X44821Y465483D01*
X44820Y465474D01*
X44814Y465474D01*
X44316Y464597D01*
X44317Y464589D01*
X44312Y464586D01*
X44124Y463962D01*
X44021Y463621D01*
X44022Y463618D01*
X44021Y463617D01*
X44024Y463613D01*
X44019Y463610D01*
X43951Y462603D01*
X43952Y462601D01*
X43951Y462600D01*
X43960Y461519D01*
X43965Y461512D01*
X43961Y461508D01*
X44211Y460456D01*
X44217Y460451D01*
X44214Y460446D01*
X44691Y459476D01*
X44699Y459473D01*
X44697Y459467D01*
X45378Y458628D01*
X45386Y458626D01*
X45386Y458620D01*
X46237Y457954D01*
X46245Y457953D01*
X46246Y457948D01*
X47223Y457487D01*
X47231Y457489D01*
X47234Y457484D01*
X48289Y457252D01*
X48297Y457255D01*
X48300Y457251D01*
X60300Y457251D01*
X60305Y457255D01*
G37*
G36*
X1538585Y457255D02*
X1538585Y457255D01*
X1538588Y457251D01*
X1539694Y457444D01*
X1539699Y457449D01*
X1539699Y457450D01*
X1539704Y457447D01*
X1540739Y457880D01*
X1540743Y457887D01*
X1540748Y457885D01*
X1541661Y458538D01*
X1541663Y458546D01*
X1541669Y458545D01*
X1542413Y459384D01*
X1542414Y459393D01*
X1542419Y459393D01*
X1542958Y460377D01*
X1542957Y460385D01*
X1542958Y460386D01*
X1542962Y460387D01*
X1542963Y460389D01*
X1543145Y461030D01*
X1543269Y461466D01*
X1543267Y461471D01*
X1543269Y461473D01*
X1543267Y461475D01*
X1543271Y461477D01*
X1543329Y462597D01*
X1543326Y462602D01*
X1543329Y462606D01*
X1543211Y463651D01*
X1543205Y463657D01*
X1543209Y463662D01*
X1542861Y464656D01*
X1542854Y464660D01*
X1542856Y464665D01*
X1542296Y465557D01*
X1542289Y465560D01*
X1542289Y465565D01*
X1541545Y466309D01*
X1541537Y466311D01*
X1541537Y466316D01*
X1540645Y466876D01*
X1540637Y466876D01*
X1540636Y466881D01*
X1539642Y467229D01*
X1539634Y467226D01*
X1539631Y467231D01*
X1538586Y467349D01*
X1538582Y467347D01*
X1538580Y467349D01*
X1526580Y467349D01*
X1526577Y467347D01*
X1526574Y467347D01*
X1526572Y467349D01*
X1525576Y467191D01*
X1525570Y467185D01*
X1525565Y467188D01*
X1524629Y466813D01*
X1524625Y466806D01*
X1524619Y466808D01*
X1523790Y466234D01*
X1523787Y466226D01*
X1523782Y466227D01*
X1523101Y465483D01*
X1523100Y465474D01*
X1523094Y465474D01*
X1522596Y464597D01*
X1522597Y464589D01*
X1522592Y464586D01*
X1522404Y463962D01*
X1522301Y463621D01*
X1522302Y463618D01*
X1522301Y463617D01*
X1522304Y463613D01*
X1522299Y463610D01*
X1522231Y462603D01*
X1522232Y462601D01*
X1522231Y462600D01*
X1522240Y461519D01*
X1522245Y461512D01*
X1522241Y461508D01*
X1522491Y460456D01*
X1522497Y460451D01*
X1522494Y460446D01*
X1522971Y459476D01*
X1522979Y459473D01*
X1522977Y459467D01*
X1523658Y458628D01*
X1523666Y458626D01*
X1523666Y458620D01*
X1524517Y457954D01*
X1524525Y457953D01*
X1524526Y457948D01*
X1525503Y457487D01*
X1525511Y457489D01*
X1525514Y457484D01*
X1526569Y457252D01*
X1526577Y457255D01*
X1526580Y457251D01*
X1538580Y457251D01*
X1538585Y457255D01*
G37*
G36*
X799445Y1635815D02*
X799445Y1635815D01*
X799448Y1635811D01*
X800554Y1636004D01*
X800559Y1636009D01*
X800559Y1636010D01*
X800564Y1636007D01*
X801599Y1636440D01*
X801603Y1636447D01*
X801608Y1636445D01*
X802521Y1637098D01*
X802523Y1637106D01*
X802529Y1637105D01*
X803273Y1637944D01*
X803274Y1637953D01*
X803279Y1637953D01*
X803818Y1638937D01*
X803817Y1638945D01*
X803818Y1638946D01*
X803822Y1638947D01*
X803823Y1638949D01*
X804005Y1639590D01*
X804129Y1640026D01*
X804127Y1640031D01*
X804129Y1640033D01*
X804127Y1640035D01*
X804131Y1640037D01*
X804189Y1641157D01*
X804186Y1641162D01*
X804189Y1641166D01*
X804071Y1642211D01*
X804065Y1642217D01*
X804069Y1642222D01*
X803721Y1643216D01*
X803714Y1643220D01*
X803716Y1643225D01*
X803156Y1644117D01*
X803149Y1644120D01*
X803149Y1644125D01*
X802405Y1644869D01*
X802397Y1644871D01*
X802397Y1644876D01*
X801505Y1645436D01*
X801497Y1645436D01*
X801496Y1645441D01*
X800502Y1645789D01*
X800494Y1645786D01*
X800491Y1645791D01*
X799446Y1645909D01*
X799442Y1645907D01*
X799440Y1645909D01*
X787440Y1645909D01*
X787437Y1645907D01*
X787434Y1645907D01*
X787432Y1645909D01*
X786436Y1645751D01*
X786430Y1645745D01*
X786425Y1645748D01*
X785489Y1645373D01*
X785485Y1645366D01*
X785479Y1645368D01*
X784650Y1644794D01*
X784647Y1644786D01*
X784642Y1644787D01*
X783961Y1644043D01*
X783960Y1644034D01*
X783954Y1644034D01*
X783456Y1643157D01*
X783457Y1643149D01*
X783452Y1643146D01*
X783264Y1642522D01*
X783161Y1642181D01*
X783162Y1642178D01*
X783161Y1642177D01*
X783164Y1642173D01*
X783159Y1642170D01*
X783091Y1641163D01*
X783092Y1641161D01*
X783091Y1641160D01*
X783100Y1640079D01*
X783105Y1640072D01*
X783101Y1640068D01*
X783351Y1639016D01*
X783357Y1639011D01*
X783354Y1639006D01*
X783831Y1638036D01*
X783839Y1638033D01*
X783837Y1638027D01*
X784518Y1637188D01*
X784526Y1637186D01*
X784526Y1637180D01*
X785377Y1636514D01*
X785385Y1636513D01*
X785386Y1636508D01*
X786363Y1636047D01*
X786371Y1636049D01*
X786374Y1636044D01*
X787429Y1635812D01*
X787437Y1635815D01*
X787440Y1635811D01*
X799440Y1635811D01*
X799445Y1635815D01*
G37*
G36*
X1538585Y1635815D02*
X1538585Y1635815D01*
X1538588Y1635811D01*
X1539694Y1636004D01*
X1539699Y1636009D01*
X1539699Y1636010D01*
X1539704Y1636007D01*
X1540739Y1636440D01*
X1540743Y1636447D01*
X1540748Y1636445D01*
X1541661Y1637098D01*
X1541663Y1637106D01*
X1541669Y1637105D01*
X1542413Y1637944D01*
X1542414Y1637953D01*
X1542419Y1637953D01*
X1542958Y1638937D01*
X1542957Y1638945D01*
X1542958Y1638946D01*
X1542962Y1638947D01*
X1542963Y1638949D01*
X1543145Y1639590D01*
X1543269Y1640026D01*
X1543267Y1640031D01*
X1543269Y1640033D01*
X1543267Y1640035D01*
X1543271Y1640037D01*
X1543329Y1641157D01*
X1543326Y1641162D01*
X1543329Y1641166D01*
X1543211Y1642211D01*
X1543205Y1642217D01*
X1543209Y1642222D01*
X1542861Y1643216D01*
X1542854Y1643220D01*
X1542856Y1643225D01*
X1542296Y1644117D01*
X1542289Y1644120D01*
X1542289Y1644125D01*
X1541545Y1644869D01*
X1541537Y1644871D01*
X1541537Y1644876D01*
X1540645Y1645436D01*
X1540637Y1645436D01*
X1540636Y1645441D01*
X1539642Y1645789D01*
X1539634Y1645786D01*
X1539631Y1645791D01*
X1538586Y1645909D01*
X1538582Y1645907D01*
X1538580Y1645909D01*
X1526580Y1645909D01*
X1526577Y1645907D01*
X1526574Y1645907D01*
X1526572Y1645909D01*
X1525576Y1645751D01*
X1525570Y1645745D01*
X1525565Y1645748D01*
X1524629Y1645373D01*
X1524625Y1645366D01*
X1524619Y1645368D01*
X1523790Y1644794D01*
X1523787Y1644786D01*
X1523782Y1644787D01*
X1523101Y1644043D01*
X1523100Y1644034D01*
X1523094Y1644034D01*
X1522596Y1643157D01*
X1522597Y1643149D01*
X1522592Y1643146D01*
X1522404Y1642522D01*
X1522301Y1642181D01*
X1522302Y1642178D01*
X1522301Y1642177D01*
X1522304Y1642173D01*
X1522299Y1642170D01*
X1522231Y1641163D01*
X1522232Y1641161D01*
X1522231Y1641160D01*
X1522240Y1640079D01*
X1522245Y1640072D01*
X1522241Y1640068D01*
X1522491Y1639016D01*
X1522497Y1639011D01*
X1522494Y1639006D01*
X1522971Y1638036D01*
X1522979Y1638033D01*
X1522977Y1638027D01*
X1523658Y1637188D01*
X1523666Y1637186D01*
X1523666Y1637180D01*
X1524517Y1636514D01*
X1524525Y1636513D01*
X1524526Y1636508D01*
X1525503Y1636047D01*
X1525511Y1636049D01*
X1525514Y1636044D01*
X1526569Y1635812D01*
X1526577Y1635815D01*
X1526580Y1635811D01*
X1538580Y1635811D01*
X1538585Y1635815D01*
G37*
G36*
X60305Y1635815D02*
X60305Y1635815D01*
X60308Y1635811D01*
X61414Y1636004D01*
X61419Y1636009D01*
X61419Y1636010D01*
X61424Y1636007D01*
X62459Y1636440D01*
X62463Y1636447D01*
X62468Y1636445D01*
X63381Y1637098D01*
X63383Y1637106D01*
X63389Y1637105D01*
X64133Y1637944D01*
X64134Y1637953D01*
X64139Y1637953D01*
X64678Y1638937D01*
X64677Y1638945D01*
X64678Y1638946D01*
X64682Y1638947D01*
X64683Y1638949D01*
X64865Y1639590D01*
X64989Y1640026D01*
X64987Y1640031D01*
X64989Y1640033D01*
X64987Y1640035D01*
X64991Y1640037D01*
X65049Y1641157D01*
X65046Y1641162D01*
X65049Y1641166D01*
X64931Y1642211D01*
X64925Y1642217D01*
X64929Y1642222D01*
X64581Y1643216D01*
X64574Y1643220D01*
X64576Y1643225D01*
X64016Y1644117D01*
X64009Y1644120D01*
X64009Y1644125D01*
X63265Y1644869D01*
X63257Y1644871D01*
X63257Y1644876D01*
X62365Y1645436D01*
X62357Y1645436D01*
X62356Y1645441D01*
X61362Y1645789D01*
X61354Y1645786D01*
X61351Y1645791D01*
X60306Y1645909D01*
X60302Y1645907D01*
X60300Y1645909D01*
X48300Y1645909D01*
X48297Y1645907D01*
X48294Y1645907D01*
X48292Y1645909D01*
X47296Y1645751D01*
X47290Y1645745D01*
X47285Y1645748D01*
X46349Y1645373D01*
X46345Y1645366D01*
X46339Y1645368D01*
X45510Y1644794D01*
X45507Y1644786D01*
X45502Y1644787D01*
X44821Y1644043D01*
X44820Y1644034D01*
X44814Y1644034D01*
X44316Y1643157D01*
X44317Y1643149D01*
X44312Y1643146D01*
X44124Y1642522D01*
X44021Y1642181D01*
X44022Y1642178D01*
X44021Y1642177D01*
X44024Y1642173D01*
X44019Y1642170D01*
X43951Y1641163D01*
X43952Y1641161D01*
X43951Y1641160D01*
X43960Y1640079D01*
X43965Y1640072D01*
X43961Y1640068D01*
X44211Y1639016D01*
X44217Y1639011D01*
X44214Y1639006D01*
X44691Y1638036D01*
X44699Y1638033D01*
X44697Y1638027D01*
X45378Y1637188D01*
X45386Y1637186D01*
X45386Y1637180D01*
X46237Y1636514D01*
X46245Y1636513D01*
X46246Y1636508D01*
X47223Y1636047D01*
X47231Y1636049D01*
X47234Y1636044D01*
X48289Y1635812D01*
X48297Y1635815D01*
X48300Y1635811D01*
X60300Y1635811D01*
X60305Y1635815D01*
G37*
G36*
X754644Y2138694D02*
X754644Y2138694D01*
X754646Y2138691D01*
X755779Y2138841D01*
X755785Y2138847D01*
X755790Y2138844D01*
X756860Y2139242D01*
X756864Y2139249D01*
X756870Y2139247D01*
X757825Y2139874D01*
X757828Y2139882D01*
X757833Y2139881D01*
X758625Y2140704D01*
X758626Y2140712D01*
X758632Y2140713D01*
X759221Y2141692D01*
X759220Y2141700D01*
X759225Y2141702D01*
X759581Y2142787D01*
X759579Y2142795D01*
X759583Y2142798D01*
X759689Y2143935D01*
X759684Y2143944D01*
X759688Y2143949D01*
X759481Y2145086D01*
X759475Y2145092D01*
X759478Y2145097D01*
X759023Y2146159D01*
X759016Y2146163D01*
X759018Y2146169D01*
X758338Y2147104D01*
X758330Y2147106D01*
X758331Y2147112D01*
X757460Y2147872D01*
X757452Y2147872D01*
X757451Y2147878D01*
X756432Y2148425D01*
X756424Y2148424D01*
X756422Y2148429D01*
X755308Y2148736D01*
X755300Y2148733D01*
X755297Y2148738D01*
X754142Y2148789D01*
X754141Y2148788D01*
X754140Y2148789D01*
X748140Y2148789D01*
X748137Y2148787D01*
X748132Y2148787D01*
X748131Y2148788D01*
X747050Y2148576D01*
X747045Y2148570D01*
X747040Y2148573D01*
X746034Y2148126D01*
X746030Y2148119D01*
X746024Y2148121D01*
X745143Y2147461D01*
X745140Y2147453D01*
X745135Y2147453D01*
X744422Y2146614D01*
X744422Y2146606D01*
X744416Y2146605D01*
X743908Y2145628D01*
X743909Y2145620D01*
X743904Y2145618D01*
X743626Y2144553D01*
X743629Y2144545D01*
X743625Y2144542D01*
X743591Y2143442D01*
X743595Y2143436D01*
X743591Y2143433D01*
X743746Y2142358D01*
X743752Y2142352D01*
X743749Y2142347D01*
X744139Y2141333D01*
X744146Y2141329D01*
X744145Y2141323D01*
X744751Y2140421D01*
X744759Y2140419D01*
X744758Y2140413D01*
X745550Y2139669D01*
X745558Y2139668D01*
X745558Y2139662D01*
X746496Y2139113D01*
X746504Y2139114D01*
X746506Y2139108D01*
X747542Y2138781D01*
X747550Y2138784D01*
X747553Y2138779D01*
X748636Y2138691D01*
X748639Y2138693D01*
X748640Y2138691D01*
X754640Y2138691D01*
X754644Y2138694D01*
G37*
G36*
X1493784Y2138694D02*
X1493784Y2138694D01*
X1493786Y2138691D01*
X1494919Y2138841D01*
X1494925Y2138847D01*
X1494930Y2138844D01*
X1496000Y2139242D01*
X1496004Y2139249D01*
X1496010Y2139247D01*
X1496965Y2139874D01*
X1496968Y2139882D01*
X1496973Y2139881D01*
X1497765Y2140704D01*
X1497766Y2140712D01*
X1497772Y2140713D01*
X1498361Y2141692D01*
X1498360Y2141700D01*
X1498365Y2141702D01*
X1498721Y2142787D01*
X1498719Y2142795D01*
X1498723Y2142798D01*
X1498829Y2143935D01*
X1498824Y2143944D01*
X1498828Y2143949D01*
X1498621Y2145086D01*
X1498615Y2145092D01*
X1498618Y2145097D01*
X1498163Y2146159D01*
X1498156Y2146163D01*
X1498158Y2146169D01*
X1497478Y2147104D01*
X1497470Y2147106D01*
X1497471Y2147112D01*
X1496600Y2147872D01*
X1496592Y2147872D01*
X1496591Y2147878D01*
X1495572Y2148425D01*
X1495564Y2148424D01*
X1495562Y2148429D01*
X1494448Y2148736D01*
X1494440Y2148733D01*
X1494437Y2148738D01*
X1493282Y2148789D01*
X1493281Y2148788D01*
X1493280Y2148789D01*
X1487280Y2148789D01*
X1487277Y2148787D01*
X1487272Y2148787D01*
X1487271Y2148788D01*
X1486190Y2148576D01*
X1486185Y2148570D01*
X1486180Y2148573D01*
X1485174Y2148126D01*
X1485170Y2148119D01*
X1485164Y2148121D01*
X1484283Y2147461D01*
X1484280Y2147453D01*
X1484275Y2147453D01*
X1483562Y2146614D01*
X1483562Y2146606D01*
X1483556Y2146605D01*
X1483048Y2145628D01*
X1483049Y2145620D01*
X1483044Y2145618D01*
X1482766Y2144553D01*
X1482769Y2144545D01*
X1482765Y2144542D01*
X1482731Y2143442D01*
X1482735Y2143436D01*
X1482731Y2143433D01*
X1482886Y2142358D01*
X1482892Y2142352D01*
X1482889Y2142347D01*
X1483279Y2141333D01*
X1483286Y2141329D01*
X1483285Y2141323D01*
X1483891Y2140421D01*
X1483899Y2140419D01*
X1483898Y2140413D01*
X1484690Y2139669D01*
X1484698Y2139668D01*
X1484698Y2139662D01*
X1485636Y2139113D01*
X1485644Y2139114D01*
X1485646Y2139108D01*
X1486682Y2138781D01*
X1486690Y2138784D01*
X1486693Y2138779D01*
X1487776Y2138691D01*
X1487779Y2138693D01*
X1487780Y2138691D01*
X1493780Y2138691D01*
X1493784Y2138694D01*
G37*
G36*
X15504Y2138694D02*
X15504Y2138694D01*
X15506Y2138691D01*
X16639Y2138841D01*
X16645Y2138847D01*
X16650Y2138844D01*
X17720Y2139242D01*
X17724Y2139249D01*
X17730Y2139247D01*
X18685Y2139874D01*
X18688Y2139882D01*
X18693Y2139881D01*
X19485Y2140704D01*
X19486Y2140712D01*
X19492Y2140713D01*
X20081Y2141692D01*
X20080Y2141700D01*
X20085Y2141702D01*
X20441Y2142787D01*
X20439Y2142795D01*
X20443Y2142798D01*
X20549Y2143935D01*
X20544Y2143944D01*
X20548Y2143949D01*
X20341Y2145086D01*
X20335Y2145092D01*
X20338Y2145097D01*
X19883Y2146159D01*
X19876Y2146163D01*
X19878Y2146169D01*
X19198Y2147104D01*
X19190Y2147106D01*
X19191Y2147112D01*
X18320Y2147872D01*
X18312Y2147872D01*
X18311Y2147878D01*
X17292Y2148425D01*
X17284Y2148424D01*
X17282Y2148429D01*
X16168Y2148736D01*
X16160Y2148733D01*
X16157Y2148738D01*
X15002Y2148789D01*
X15001Y2148788D01*
X15000Y2148789D01*
X9000Y2148789D01*
X8997Y2148787D01*
X8992Y2148787D01*
X8991Y2148788D01*
X7910Y2148576D01*
X7905Y2148570D01*
X7900Y2148573D01*
X6894Y2148126D01*
X6890Y2148119D01*
X6884Y2148121D01*
X6003Y2147461D01*
X6000Y2147453D01*
X5995Y2147453D01*
X5282Y2146614D01*
X5282Y2146606D01*
X5276Y2146605D01*
X4768Y2145628D01*
X4769Y2145620D01*
X4764Y2145618D01*
X4486Y2144553D01*
X4489Y2144545D01*
X4485Y2144542D01*
X4451Y2143442D01*
X4455Y2143436D01*
X4451Y2143433D01*
X4606Y2142358D01*
X4612Y2142352D01*
X4609Y2142347D01*
X4999Y2141333D01*
X5006Y2141329D01*
X5005Y2141323D01*
X5611Y2140421D01*
X5619Y2140419D01*
X5618Y2140413D01*
X6410Y2139669D01*
X6418Y2139668D01*
X6418Y2139662D01*
X7356Y2139113D01*
X7364Y2139114D01*
X7366Y2139108D01*
X8402Y2138781D01*
X8410Y2138784D01*
X8413Y2138779D01*
X9496Y2138691D01*
X9499Y2138693D01*
X9500Y2138691D01*
X15500Y2138691D01*
X15504Y2138694D01*
G37*
G36*
X15504Y1549414D02*
X15504Y1549414D01*
X15506Y1549411D01*
X16639Y1549561D01*
X16645Y1549567D01*
X16650Y1549564D01*
X17720Y1549962D01*
X17724Y1549969D01*
X17730Y1549967D01*
X18685Y1550594D01*
X18688Y1550602D01*
X18693Y1550601D01*
X19485Y1551424D01*
X19486Y1551432D01*
X19492Y1551433D01*
X20081Y1552412D01*
X20080Y1552420D01*
X20085Y1552422D01*
X20441Y1553507D01*
X20439Y1553515D01*
X20443Y1553518D01*
X20549Y1554655D01*
X20544Y1554664D01*
X20548Y1554669D01*
X20341Y1555806D01*
X20335Y1555812D01*
X20338Y1555817D01*
X19883Y1556879D01*
X19876Y1556883D01*
X19878Y1556889D01*
X19198Y1557824D01*
X19190Y1557826D01*
X19191Y1557832D01*
X18320Y1558592D01*
X18312Y1558592D01*
X18311Y1558598D01*
X17292Y1559145D01*
X17284Y1559144D01*
X17282Y1559149D01*
X16168Y1559456D01*
X16160Y1559453D01*
X16157Y1559458D01*
X15002Y1559509D01*
X15001Y1559508D01*
X15000Y1559509D01*
X9000Y1559509D01*
X8997Y1559507D01*
X8992Y1559507D01*
X8991Y1559508D01*
X7910Y1559296D01*
X7905Y1559290D01*
X7900Y1559293D01*
X6894Y1558846D01*
X6890Y1558839D01*
X6884Y1558841D01*
X6003Y1558181D01*
X6000Y1558173D01*
X5995Y1558173D01*
X5282Y1557334D01*
X5282Y1557326D01*
X5276Y1557325D01*
X4768Y1556348D01*
X4769Y1556340D01*
X4764Y1556338D01*
X4486Y1555273D01*
X4489Y1555265D01*
X4485Y1555262D01*
X4451Y1554162D01*
X4455Y1554156D01*
X4451Y1554153D01*
X4606Y1553078D01*
X4612Y1553072D01*
X4609Y1553067D01*
X4999Y1552053D01*
X5006Y1552049D01*
X5005Y1552043D01*
X5611Y1551141D01*
X5619Y1551139D01*
X5618Y1551133D01*
X6410Y1550389D01*
X6418Y1550388D01*
X6418Y1550382D01*
X7356Y1549833D01*
X7364Y1549834D01*
X7366Y1549828D01*
X8402Y1549501D01*
X8410Y1549504D01*
X8413Y1549499D01*
X9496Y1549411D01*
X9499Y1549413D01*
X9500Y1549411D01*
X15500Y1549411D01*
X15504Y1549414D01*
G37*
G36*
X754644Y1549414D02*
X754644Y1549414D01*
X754646Y1549411D01*
X755779Y1549561D01*
X755785Y1549567D01*
X755790Y1549564D01*
X756860Y1549962D01*
X756864Y1549969D01*
X756870Y1549967D01*
X757825Y1550594D01*
X757828Y1550602D01*
X757833Y1550601D01*
X758625Y1551424D01*
X758626Y1551432D01*
X758632Y1551433D01*
X759221Y1552412D01*
X759220Y1552420D01*
X759225Y1552422D01*
X759581Y1553507D01*
X759579Y1553515D01*
X759583Y1553518D01*
X759689Y1554655D01*
X759684Y1554664D01*
X759688Y1554669D01*
X759481Y1555806D01*
X759475Y1555812D01*
X759478Y1555817D01*
X759023Y1556879D01*
X759016Y1556883D01*
X759018Y1556889D01*
X758338Y1557824D01*
X758330Y1557826D01*
X758331Y1557832D01*
X757460Y1558592D01*
X757452Y1558592D01*
X757451Y1558598D01*
X756432Y1559145D01*
X756424Y1559144D01*
X756422Y1559149D01*
X755308Y1559456D01*
X755300Y1559453D01*
X755297Y1559458D01*
X754142Y1559509D01*
X754141Y1559508D01*
X754140Y1559509D01*
X748140Y1559509D01*
X748137Y1559507D01*
X748132Y1559507D01*
X748131Y1559508D01*
X747050Y1559296D01*
X747045Y1559290D01*
X747040Y1559293D01*
X746034Y1558846D01*
X746030Y1558839D01*
X746024Y1558841D01*
X745143Y1558181D01*
X745140Y1558173D01*
X745135Y1558173D01*
X744422Y1557334D01*
X744422Y1557326D01*
X744416Y1557325D01*
X743908Y1556348D01*
X743909Y1556340D01*
X743904Y1556338D01*
X743626Y1555273D01*
X743629Y1555265D01*
X743625Y1555262D01*
X743591Y1554162D01*
X743595Y1554156D01*
X743591Y1554153D01*
X743746Y1553078D01*
X743752Y1553072D01*
X743749Y1553067D01*
X744139Y1552053D01*
X744146Y1552049D01*
X744145Y1552043D01*
X744751Y1551141D01*
X744759Y1551139D01*
X744758Y1551133D01*
X745550Y1550389D01*
X745558Y1550388D01*
X745558Y1550382D01*
X746496Y1549833D01*
X746504Y1549834D01*
X746506Y1549828D01*
X747542Y1549501D01*
X747550Y1549504D01*
X747553Y1549499D01*
X748636Y1549411D01*
X748639Y1549413D01*
X748640Y1549411D01*
X754640Y1549411D01*
X754644Y1549414D01*
G37*
G36*
X15504Y960134D02*
X15504Y960134D01*
X15506Y960131D01*
X16639Y960281D01*
X16645Y960287D01*
X16650Y960284D01*
X17720Y960682D01*
X17724Y960689D01*
X17730Y960687D01*
X18685Y961314D01*
X18688Y961322D01*
X18693Y961321D01*
X19485Y962144D01*
X19486Y962152D01*
X19492Y962153D01*
X20081Y963132D01*
X20080Y963140D01*
X20085Y963142D01*
X20441Y964227D01*
X20439Y964235D01*
X20443Y964238D01*
X20549Y965375D01*
X20544Y965384D01*
X20548Y965389D01*
X20341Y966526D01*
X20335Y966532D01*
X20338Y966537D01*
X19883Y967599D01*
X19876Y967603D01*
X19878Y967609D01*
X19198Y968544D01*
X19190Y968546D01*
X19191Y968552D01*
X18320Y969312D01*
X18312Y969312D01*
X18311Y969318D01*
X17292Y969865D01*
X17284Y969864D01*
X17282Y969869D01*
X16168Y970176D01*
X16160Y970173D01*
X16157Y970178D01*
X15002Y970229D01*
X15001Y970228D01*
X15000Y970229D01*
X9000Y970229D01*
X8997Y970227D01*
X8992Y970227D01*
X8991Y970228D01*
X7910Y970016D01*
X7905Y970010D01*
X7900Y970013D01*
X6894Y969566D01*
X6890Y969559D01*
X6884Y969561D01*
X6003Y968901D01*
X6000Y968893D01*
X5995Y968893D01*
X5282Y968054D01*
X5282Y968046D01*
X5276Y968045D01*
X4768Y967068D01*
X4769Y967060D01*
X4764Y967058D01*
X4486Y965993D01*
X4489Y965985D01*
X4485Y965982D01*
X4451Y964882D01*
X4455Y964876D01*
X4451Y964873D01*
X4606Y963798D01*
X4612Y963792D01*
X4609Y963787D01*
X4999Y962773D01*
X5006Y962769D01*
X5005Y962763D01*
X5611Y961861D01*
X5619Y961859D01*
X5618Y961853D01*
X6410Y961109D01*
X6418Y961108D01*
X6418Y961102D01*
X7356Y960553D01*
X7364Y960554D01*
X7366Y960548D01*
X8402Y960221D01*
X8410Y960224D01*
X8413Y960219D01*
X9496Y960131D01*
X9499Y960133D01*
X9500Y960131D01*
X15500Y960131D01*
X15504Y960134D01*
G37*
G36*
X1493784Y1549414D02*
X1493784Y1549414D01*
X1493786Y1549411D01*
X1494919Y1549561D01*
X1494925Y1549567D01*
X1494930Y1549564D01*
X1496000Y1549962D01*
X1496004Y1549969D01*
X1496010Y1549967D01*
X1496965Y1550594D01*
X1496968Y1550602D01*
X1496973Y1550601D01*
X1497765Y1551424D01*
X1497766Y1551432D01*
X1497772Y1551433D01*
X1498361Y1552412D01*
X1498360Y1552420D01*
X1498365Y1552422D01*
X1498721Y1553507D01*
X1498719Y1553515D01*
X1498723Y1553518D01*
X1498829Y1554655D01*
X1498824Y1554664D01*
X1498828Y1554669D01*
X1498621Y1555806D01*
X1498615Y1555812D01*
X1498618Y1555817D01*
X1498163Y1556879D01*
X1498156Y1556883D01*
X1498158Y1556889D01*
X1497478Y1557824D01*
X1497470Y1557826D01*
X1497471Y1557832D01*
X1496600Y1558592D01*
X1496592Y1558592D01*
X1496591Y1558598D01*
X1495572Y1559145D01*
X1495564Y1559144D01*
X1495562Y1559149D01*
X1494448Y1559456D01*
X1494440Y1559453D01*
X1494437Y1559458D01*
X1493282Y1559509D01*
X1493281Y1559508D01*
X1493280Y1559509D01*
X1487280Y1559509D01*
X1487277Y1559507D01*
X1487272Y1559507D01*
X1487271Y1559508D01*
X1486190Y1559296D01*
X1486185Y1559290D01*
X1486180Y1559293D01*
X1485174Y1558846D01*
X1485170Y1558839D01*
X1485164Y1558841D01*
X1484283Y1558181D01*
X1484280Y1558173D01*
X1484275Y1558173D01*
X1483562Y1557334D01*
X1483562Y1557326D01*
X1483556Y1557325D01*
X1483048Y1556348D01*
X1483049Y1556340D01*
X1483044Y1556338D01*
X1482766Y1555273D01*
X1482769Y1555265D01*
X1482765Y1555262D01*
X1482731Y1554162D01*
X1482735Y1554156D01*
X1482731Y1554153D01*
X1482886Y1553078D01*
X1482892Y1553072D01*
X1482889Y1553067D01*
X1483279Y1552053D01*
X1483286Y1552049D01*
X1483285Y1552043D01*
X1483891Y1551141D01*
X1483899Y1551139D01*
X1483898Y1551133D01*
X1484690Y1550389D01*
X1484698Y1550388D01*
X1484698Y1550382D01*
X1485636Y1549833D01*
X1485644Y1549834D01*
X1485646Y1549828D01*
X1486682Y1549501D01*
X1486690Y1549504D01*
X1486693Y1549499D01*
X1487776Y1549411D01*
X1487779Y1549413D01*
X1487780Y1549411D01*
X1493780Y1549411D01*
X1493784Y1549414D01*
G37*
G36*
X754644Y960134D02*
X754644Y960134D01*
X754646Y960131D01*
X755779Y960281D01*
X755785Y960287D01*
X755790Y960284D01*
X756860Y960682D01*
X756864Y960689D01*
X756870Y960687D01*
X757825Y961314D01*
X757828Y961322D01*
X757833Y961321D01*
X758625Y962144D01*
X758626Y962152D01*
X758632Y962153D01*
X759221Y963132D01*
X759220Y963140D01*
X759225Y963142D01*
X759581Y964227D01*
X759579Y964235D01*
X759583Y964238D01*
X759689Y965375D01*
X759684Y965384D01*
X759688Y965389D01*
X759481Y966526D01*
X759475Y966532D01*
X759478Y966537D01*
X759023Y967599D01*
X759016Y967603D01*
X759018Y967609D01*
X758338Y968544D01*
X758330Y968546D01*
X758331Y968552D01*
X757460Y969312D01*
X757452Y969312D01*
X757451Y969318D01*
X756432Y969865D01*
X756424Y969864D01*
X756422Y969869D01*
X755308Y970176D01*
X755300Y970173D01*
X755297Y970178D01*
X754142Y970229D01*
X754141Y970228D01*
X754140Y970229D01*
X748140Y970229D01*
X748137Y970227D01*
X748132Y970227D01*
X748131Y970228D01*
X747050Y970016D01*
X747045Y970010D01*
X747040Y970013D01*
X746034Y969566D01*
X746030Y969559D01*
X746024Y969561D01*
X745143Y968901D01*
X745140Y968893D01*
X745135Y968893D01*
X744422Y968054D01*
X744422Y968046D01*
X744416Y968045D01*
X743908Y967068D01*
X743909Y967060D01*
X743904Y967058D01*
X743626Y965993D01*
X743629Y965985D01*
X743625Y965982D01*
X743591Y964882D01*
X743595Y964876D01*
X743591Y964873D01*
X743746Y963798D01*
X743752Y963792D01*
X743749Y963787D01*
X744139Y962773D01*
X744146Y962769D01*
X744145Y962763D01*
X744751Y961861D01*
X744759Y961859D01*
X744758Y961853D01*
X745550Y961109D01*
X745558Y961108D01*
X745558Y961102D01*
X746496Y960553D01*
X746504Y960554D01*
X746506Y960548D01*
X747542Y960221D01*
X747550Y960224D01*
X747553Y960219D01*
X748636Y960131D01*
X748639Y960133D01*
X748640Y960131D01*
X754640Y960131D01*
X754644Y960134D01*
G37*
G36*
X754644Y370854D02*
X754644Y370854D01*
X754646Y370851D01*
X755779Y371001D01*
X755785Y371007D01*
X755790Y371004D01*
X756860Y371402D01*
X756864Y371409D01*
X756870Y371407D01*
X757825Y372034D01*
X757828Y372042D01*
X757833Y372041D01*
X758625Y372864D01*
X758626Y372872D01*
X758632Y372873D01*
X759221Y373852D01*
X759220Y373860D01*
X759225Y373862D01*
X759581Y374947D01*
X759579Y374955D01*
X759583Y374958D01*
X759689Y376095D01*
X759684Y376104D01*
X759688Y376109D01*
X759481Y377246D01*
X759475Y377252D01*
X759478Y377257D01*
X759023Y378319D01*
X759016Y378323D01*
X759018Y378329D01*
X758338Y379264D01*
X758330Y379266D01*
X758331Y379272D01*
X757460Y380032D01*
X757452Y380032D01*
X757451Y380038D01*
X756432Y380585D01*
X756424Y380584D01*
X756422Y380589D01*
X755308Y380896D01*
X755300Y380893D01*
X755297Y380898D01*
X754142Y380949D01*
X754141Y380948D01*
X754140Y380949D01*
X748140Y380949D01*
X748137Y380947D01*
X748132Y380947D01*
X748131Y380948D01*
X747050Y380736D01*
X747045Y380730D01*
X747040Y380733D01*
X746034Y380286D01*
X746030Y380279D01*
X746024Y380281D01*
X745143Y379621D01*
X745140Y379613D01*
X745135Y379613D01*
X744422Y378774D01*
X744422Y378766D01*
X744416Y378765D01*
X743908Y377788D01*
X743909Y377780D01*
X743904Y377778D01*
X743626Y376713D01*
X743629Y376705D01*
X743625Y376702D01*
X743591Y375602D01*
X743595Y375596D01*
X743591Y375593D01*
X743746Y374518D01*
X743752Y374512D01*
X743749Y374507D01*
X744139Y373493D01*
X744146Y373489D01*
X744145Y373483D01*
X744751Y372581D01*
X744759Y372579D01*
X744758Y372573D01*
X745550Y371829D01*
X745558Y371828D01*
X745558Y371822D01*
X746496Y371273D01*
X746504Y371274D01*
X746506Y371268D01*
X747542Y370941D01*
X747550Y370944D01*
X747553Y370939D01*
X748636Y370851D01*
X748639Y370853D01*
X748640Y370851D01*
X754640Y370851D01*
X754644Y370854D01*
G37*
G36*
X1493784Y370854D02*
X1493784Y370854D01*
X1493786Y370851D01*
X1494919Y371001D01*
X1494925Y371007D01*
X1494930Y371004D01*
X1496000Y371402D01*
X1496004Y371409D01*
X1496010Y371407D01*
X1496965Y372034D01*
X1496968Y372042D01*
X1496973Y372041D01*
X1497765Y372864D01*
X1497766Y372872D01*
X1497772Y372873D01*
X1498361Y373852D01*
X1498360Y373860D01*
X1498365Y373862D01*
X1498721Y374947D01*
X1498719Y374955D01*
X1498723Y374958D01*
X1498829Y376095D01*
X1498824Y376104D01*
X1498828Y376109D01*
X1498621Y377246D01*
X1498615Y377252D01*
X1498618Y377257D01*
X1498163Y378319D01*
X1498156Y378323D01*
X1498158Y378329D01*
X1497478Y379264D01*
X1497470Y379266D01*
X1497471Y379272D01*
X1496600Y380032D01*
X1496592Y380032D01*
X1496591Y380038D01*
X1495572Y380585D01*
X1495564Y380584D01*
X1495562Y380589D01*
X1494448Y380896D01*
X1494440Y380893D01*
X1494437Y380898D01*
X1493282Y380949D01*
X1493281Y380948D01*
X1493280Y380949D01*
X1487280Y380949D01*
X1487277Y380947D01*
X1487272Y380947D01*
X1487271Y380948D01*
X1486190Y380736D01*
X1486185Y380730D01*
X1486180Y380733D01*
X1485174Y380286D01*
X1485170Y380279D01*
X1485164Y380281D01*
X1484283Y379621D01*
X1484280Y379613D01*
X1484275Y379613D01*
X1483562Y378774D01*
X1483562Y378766D01*
X1483556Y378765D01*
X1483048Y377788D01*
X1483049Y377780D01*
X1483044Y377778D01*
X1482766Y376713D01*
X1482769Y376705D01*
X1482765Y376702D01*
X1482731Y375602D01*
X1482735Y375596D01*
X1482731Y375593D01*
X1482886Y374518D01*
X1482892Y374512D01*
X1482889Y374507D01*
X1483279Y373493D01*
X1483286Y373489D01*
X1483285Y373483D01*
X1483891Y372581D01*
X1483899Y372579D01*
X1483898Y372573D01*
X1484690Y371829D01*
X1484698Y371828D01*
X1484698Y371822D01*
X1485636Y371273D01*
X1485644Y371274D01*
X1485646Y371268D01*
X1486682Y370941D01*
X1486690Y370944D01*
X1486693Y370939D01*
X1487776Y370851D01*
X1487779Y370853D01*
X1487780Y370851D01*
X1493780Y370851D01*
X1493784Y370854D01*
G37*
G36*
X15504Y370854D02*
X15504Y370854D01*
X15506Y370851D01*
X16639Y371001D01*
X16645Y371007D01*
X16650Y371004D01*
X17720Y371402D01*
X17724Y371409D01*
X17730Y371407D01*
X18685Y372034D01*
X18688Y372042D01*
X18693Y372041D01*
X19485Y372864D01*
X19486Y372872D01*
X19492Y372873D01*
X20081Y373852D01*
X20080Y373860D01*
X20085Y373862D01*
X20441Y374947D01*
X20439Y374955D01*
X20443Y374958D01*
X20549Y376095D01*
X20544Y376104D01*
X20548Y376109D01*
X20341Y377246D01*
X20335Y377252D01*
X20338Y377257D01*
X19883Y378319D01*
X19876Y378323D01*
X19878Y378329D01*
X19198Y379264D01*
X19190Y379266D01*
X19191Y379272D01*
X18320Y380032D01*
X18312Y380032D01*
X18311Y380038D01*
X17292Y380585D01*
X17284Y380584D01*
X17282Y380589D01*
X16168Y380896D01*
X16160Y380893D01*
X16157Y380898D01*
X15002Y380949D01*
X15001Y380948D01*
X15000Y380949D01*
X9000Y380949D01*
X8997Y380947D01*
X8992Y380947D01*
X8991Y380948D01*
X7910Y380736D01*
X7905Y380730D01*
X7900Y380733D01*
X6894Y380286D01*
X6890Y380279D01*
X6884Y380281D01*
X6003Y379621D01*
X6000Y379613D01*
X5995Y379613D01*
X5282Y378774D01*
X5282Y378766D01*
X5276Y378765D01*
X4768Y377788D01*
X4769Y377780D01*
X4764Y377778D01*
X4486Y376713D01*
X4489Y376705D01*
X4485Y376702D01*
X4451Y375602D01*
X4455Y375596D01*
X4451Y375593D01*
X4606Y374518D01*
X4612Y374512D01*
X4609Y374507D01*
X4999Y373493D01*
X5006Y373489D01*
X5005Y373483D01*
X5611Y372581D01*
X5619Y372579D01*
X5618Y372573D01*
X6410Y371829D01*
X6418Y371828D01*
X6418Y371822D01*
X7356Y371273D01*
X7364Y371274D01*
X7366Y371268D01*
X8402Y370941D01*
X8410Y370944D01*
X8413Y370939D01*
X9496Y370851D01*
X9499Y370853D01*
X9500Y370851D01*
X15500Y370851D01*
X15504Y370854D01*
G37*
G36*
X1493784Y960134D02*
X1493784Y960134D01*
X1493786Y960131D01*
X1494919Y960281D01*
X1494925Y960287D01*
X1494930Y960284D01*
X1496000Y960682D01*
X1496004Y960689D01*
X1496010Y960687D01*
X1496965Y961314D01*
X1496968Y961322D01*
X1496973Y961321D01*
X1497765Y962144D01*
X1497766Y962152D01*
X1497772Y962153D01*
X1498361Y963132D01*
X1498360Y963140D01*
X1498365Y963142D01*
X1498721Y964227D01*
X1498719Y964235D01*
X1498723Y964238D01*
X1498829Y965375D01*
X1498824Y965384D01*
X1498828Y965389D01*
X1498621Y966526D01*
X1498615Y966532D01*
X1498618Y966537D01*
X1498163Y967599D01*
X1498156Y967603D01*
X1498158Y967609D01*
X1497478Y968544D01*
X1497470Y968546D01*
X1497471Y968552D01*
X1496600Y969312D01*
X1496592Y969312D01*
X1496591Y969318D01*
X1495572Y969865D01*
X1495564Y969864D01*
X1495562Y969869D01*
X1494448Y970176D01*
X1494440Y970173D01*
X1494437Y970178D01*
X1493282Y970229D01*
X1493281Y970228D01*
X1493280Y970229D01*
X1487280Y970229D01*
X1487277Y970227D01*
X1487272Y970227D01*
X1487271Y970228D01*
X1486190Y970016D01*
X1486185Y970010D01*
X1486180Y970013D01*
X1485174Y969566D01*
X1485170Y969559D01*
X1485164Y969561D01*
X1484283Y968901D01*
X1484280Y968893D01*
X1484275Y968893D01*
X1483562Y968054D01*
X1483562Y968046D01*
X1483556Y968045D01*
X1483048Y967068D01*
X1483049Y967060D01*
X1483044Y967058D01*
X1482766Y965993D01*
X1482769Y965985D01*
X1482765Y965982D01*
X1482731Y964882D01*
X1482735Y964876D01*
X1482731Y964873D01*
X1482886Y963798D01*
X1482892Y963792D01*
X1482889Y963787D01*
X1483279Y962773D01*
X1483286Y962769D01*
X1483285Y962763D01*
X1483891Y961861D01*
X1483899Y961859D01*
X1483898Y961853D01*
X1484690Y961109D01*
X1484698Y961108D01*
X1484698Y961102D01*
X1485636Y960553D01*
X1485644Y960554D01*
X1485646Y960548D01*
X1486682Y960221D01*
X1486690Y960224D01*
X1486693Y960219D01*
X1487776Y960131D01*
X1487779Y960133D01*
X1487780Y960131D01*
X1493780Y960131D01*
X1493784Y960134D01*
G37*
G36*
X754643Y2225093D02*
X754643Y2225093D01*
X754645Y2225091D01*
X755737Y2225192D01*
X755743Y2225197D01*
X755748Y2225194D01*
X756791Y2225535D01*
X756796Y2225542D01*
X756801Y2225540D01*
X757742Y2226104D01*
X757745Y2226112D01*
X757751Y2226111D01*
X758543Y2226871D01*
X758544Y2226879D01*
X758550Y2226880D01*
X759153Y2227797D01*
X759152Y2227805D01*
X759158Y2227807D01*
X759541Y2228835D01*
X759539Y2228843D01*
X759544Y2228846D01*
X759689Y2229934D01*
X759685Y2229941D01*
X759689Y2229945D01*
X759583Y2231082D01*
X759578Y2231088D01*
X759581Y2231093D01*
X759225Y2232178D01*
X759218Y2232183D01*
X759221Y2232188D01*
X758632Y2233167D01*
X758624Y2233170D01*
X758625Y2233176D01*
X757833Y2233999D01*
X757825Y2234000D01*
X757825Y2234006D01*
X756870Y2234633D01*
X756862Y2234632D01*
X756860Y2234638D01*
X755790Y2235036D01*
X755782Y2235034D01*
X755779Y2235039D01*
X754646Y2235189D01*
X754643Y2235187D01*
X754642Y2235187D01*
X754640Y2235189D01*
X748640Y2235189D01*
X748637Y2235187D01*
X748635Y2235187D01*
X748634Y2235189D01*
X747501Y2235039D01*
X747495Y2235033D01*
X747490Y2235036D01*
X746420Y2234638D01*
X746416Y2234631D01*
X746410Y2234633D01*
X745455Y2234006D01*
X745452Y2233998D01*
X745447Y2233999D01*
X744655Y2233176D01*
X744654Y2233168D01*
X744648Y2233167D01*
X744059Y2232188D01*
X744060Y2232180D01*
X744055Y2232178D01*
X743699Y2231093D01*
X743702Y2231085D01*
X743697Y2231082D01*
X743591Y2229945D01*
X743595Y2229938D01*
X743591Y2229934D01*
X743736Y2228846D01*
X743742Y2228840D01*
X743739Y2228835D01*
X744123Y2227807D01*
X744129Y2227802D01*
X744128Y2227797D01*
X744730Y2226880D01*
X744738Y2226877D01*
X744737Y2226871D01*
X745529Y2226111D01*
X745537Y2226110D01*
X745538Y2226104D01*
X746479Y2225540D01*
X746487Y2225541D01*
X746489Y2225535D01*
X747532Y2225194D01*
X747540Y2225196D01*
X747543Y2225192D01*
X748636Y2225091D01*
X748638Y2225093D01*
X748640Y2225091D01*
X754640Y2225091D01*
X754643Y2225093D01*
G37*
G36*
X15503Y2225093D02*
X15503Y2225093D01*
X15505Y2225091D01*
X16597Y2225192D01*
X16603Y2225197D01*
X16608Y2225194D01*
X17651Y2225535D01*
X17656Y2225542D01*
X17661Y2225540D01*
X18602Y2226104D01*
X18605Y2226112D01*
X18611Y2226111D01*
X19403Y2226871D01*
X19404Y2226879D01*
X19410Y2226880D01*
X20013Y2227797D01*
X20012Y2227805D01*
X20018Y2227807D01*
X20401Y2228835D01*
X20399Y2228843D01*
X20404Y2228846D01*
X20549Y2229934D01*
X20545Y2229941D01*
X20549Y2229945D01*
X20443Y2231082D01*
X20438Y2231088D01*
X20441Y2231093D01*
X20085Y2232178D01*
X20078Y2232183D01*
X20081Y2232188D01*
X19492Y2233167D01*
X19484Y2233170D01*
X19485Y2233176D01*
X18693Y2233999D01*
X18685Y2234000D01*
X18685Y2234006D01*
X17730Y2234633D01*
X17722Y2234632D01*
X17720Y2234638D01*
X16650Y2235036D01*
X16642Y2235034D01*
X16639Y2235039D01*
X15506Y2235189D01*
X15503Y2235187D01*
X15502Y2235187D01*
X15500Y2235189D01*
X9500Y2235189D01*
X9497Y2235187D01*
X9495Y2235187D01*
X9494Y2235189D01*
X8361Y2235039D01*
X8355Y2235033D01*
X8350Y2235036D01*
X7280Y2234638D01*
X7276Y2234631D01*
X7270Y2234633D01*
X6315Y2234006D01*
X6312Y2233998D01*
X6307Y2233999D01*
X5515Y2233176D01*
X5514Y2233168D01*
X5508Y2233167D01*
X4919Y2232188D01*
X4920Y2232180D01*
X4915Y2232178D01*
X4559Y2231093D01*
X4562Y2231085D01*
X4557Y2231082D01*
X4451Y2229945D01*
X4455Y2229938D01*
X4451Y2229934D01*
X4596Y2228846D01*
X4602Y2228840D01*
X4599Y2228835D01*
X4983Y2227807D01*
X4989Y2227802D01*
X4988Y2227797D01*
X5590Y2226880D01*
X5598Y2226877D01*
X5597Y2226871D01*
X6389Y2226111D01*
X6397Y2226110D01*
X6398Y2226104D01*
X7339Y2225540D01*
X7347Y2225541D01*
X7349Y2225535D01*
X8392Y2225194D01*
X8400Y2225196D01*
X8403Y2225192D01*
X9496Y2225091D01*
X9498Y2225093D01*
X9500Y2225091D01*
X15500Y2225091D01*
X15503Y2225093D01*
G37*
G36*
X1493783Y2225093D02*
X1493783Y2225093D01*
X1493785Y2225091D01*
X1494877Y2225192D01*
X1494883Y2225197D01*
X1494888Y2225194D01*
X1495931Y2225535D01*
X1495936Y2225542D01*
X1495941Y2225540D01*
X1496882Y2226104D01*
X1496885Y2226112D01*
X1496891Y2226111D01*
X1497683Y2226871D01*
X1497684Y2226879D01*
X1497690Y2226880D01*
X1498293Y2227797D01*
X1498292Y2227805D01*
X1498298Y2227807D01*
X1498681Y2228835D01*
X1498679Y2228843D01*
X1498684Y2228846D01*
X1498829Y2229934D01*
X1498825Y2229941D01*
X1498829Y2229945D01*
X1498723Y2231082D01*
X1498718Y2231088D01*
X1498721Y2231093D01*
X1498365Y2232178D01*
X1498358Y2232183D01*
X1498361Y2232188D01*
X1497772Y2233167D01*
X1497764Y2233170D01*
X1497765Y2233176D01*
X1496973Y2233999D01*
X1496965Y2234000D01*
X1496965Y2234006D01*
X1496010Y2234633D01*
X1496002Y2234632D01*
X1496000Y2234638D01*
X1494930Y2235036D01*
X1494922Y2235034D01*
X1494919Y2235039D01*
X1493786Y2235189D01*
X1493783Y2235187D01*
X1493782Y2235187D01*
X1493780Y2235189D01*
X1487780Y2235189D01*
X1487777Y2235187D01*
X1487775Y2235187D01*
X1487774Y2235189D01*
X1486641Y2235039D01*
X1486635Y2235033D01*
X1486630Y2235036D01*
X1485560Y2234638D01*
X1485556Y2234631D01*
X1485550Y2234633D01*
X1484595Y2234006D01*
X1484592Y2233998D01*
X1484587Y2233999D01*
X1483795Y2233176D01*
X1483794Y2233168D01*
X1483788Y2233167D01*
X1483199Y2232188D01*
X1483200Y2232180D01*
X1483195Y2232178D01*
X1482839Y2231093D01*
X1482842Y2231085D01*
X1482837Y2231082D01*
X1482731Y2229945D01*
X1482735Y2229938D01*
X1482731Y2229934D01*
X1482876Y2228846D01*
X1482882Y2228840D01*
X1482879Y2228835D01*
X1483263Y2227807D01*
X1483269Y2227802D01*
X1483268Y2227797D01*
X1483870Y2226880D01*
X1483878Y2226877D01*
X1483877Y2226871D01*
X1484669Y2226111D01*
X1484677Y2226110D01*
X1484678Y2226104D01*
X1485619Y2225540D01*
X1485627Y2225541D01*
X1485629Y2225535D01*
X1486672Y2225194D01*
X1486680Y2225196D01*
X1486683Y2225192D01*
X1487776Y2225091D01*
X1487778Y2225093D01*
X1487780Y2225091D01*
X1493780Y2225091D01*
X1493783Y2225093D01*
G37*
G36*
X1493783Y1046533D02*
X1493783Y1046533D01*
X1493785Y1046531D01*
X1494877Y1046632D01*
X1494883Y1046637D01*
X1494888Y1046634D01*
X1495931Y1046975D01*
X1495936Y1046982D01*
X1495941Y1046980D01*
X1496882Y1047544D01*
X1496885Y1047552D01*
X1496891Y1047551D01*
X1497683Y1048311D01*
X1497684Y1048319D01*
X1497690Y1048320D01*
X1498293Y1049237D01*
X1498292Y1049245D01*
X1498298Y1049247D01*
X1498681Y1050275D01*
X1498679Y1050283D01*
X1498684Y1050286D01*
X1498829Y1051374D01*
X1498825Y1051381D01*
X1498829Y1051385D01*
X1498723Y1052522D01*
X1498718Y1052528D01*
X1498721Y1052533D01*
X1498365Y1053618D01*
X1498358Y1053623D01*
X1498361Y1053628D01*
X1497772Y1054607D01*
X1497764Y1054610D01*
X1497765Y1054616D01*
X1496973Y1055439D01*
X1496965Y1055440D01*
X1496965Y1055446D01*
X1496010Y1056073D01*
X1496002Y1056072D01*
X1496000Y1056078D01*
X1494930Y1056476D01*
X1494922Y1056474D01*
X1494919Y1056479D01*
X1493786Y1056629D01*
X1493783Y1056627D01*
X1493782Y1056627D01*
X1493780Y1056629D01*
X1487780Y1056629D01*
X1487777Y1056627D01*
X1487775Y1056627D01*
X1487774Y1056629D01*
X1486641Y1056479D01*
X1486635Y1056473D01*
X1486630Y1056476D01*
X1485560Y1056078D01*
X1485556Y1056071D01*
X1485550Y1056073D01*
X1484595Y1055446D01*
X1484592Y1055438D01*
X1484587Y1055439D01*
X1483795Y1054616D01*
X1483794Y1054608D01*
X1483788Y1054607D01*
X1483199Y1053628D01*
X1483200Y1053620D01*
X1483195Y1053618D01*
X1482839Y1052533D01*
X1482842Y1052525D01*
X1482837Y1052522D01*
X1482731Y1051385D01*
X1482735Y1051378D01*
X1482731Y1051374D01*
X1482876Y1050286D01*
X1482882Y1050280D01*
X1482879Y1050275D01*
X1483263Y1049247D01*
X1483269Y1049242D01*
X1483268Y1049237D01*
X1483870Y1048320D01*
X1483878Y1048317D01*
X1483877Y1048311D01*
X1484669Y1047551D01*
X1484677Y1047550D01*
X1484678Y1047544D01*
X1485619Y1046980D01*
X1485627Y1046981D01*
X1485629Y1046975D01*
X1486672Y1046634D01*
X1486680Y1046636D01*
X1486683Y1046632D01*
X1487776Y1046531D01*
X1487778Y1046533D01*
X1487780Y1046531D01*
X1493780Y1046531D01*
X1493783Y1046533D01*
G37*
G36*
X1493783Y1635813D02*
X1493783Y1635813D01*
X1493785Y1635811D01*
X1494877Y1635912D01*
X1494883Y1635917D01*
X1494888Y1635914D01*
X1495931Y1636255D01*
X1495936Y1636262D01*
X1495941Y1636260D01*
X1496882Y1636824D01*
X1496885Y1636832D01*
X1496891Y1636831D01*
X1497683Y1637591D01*
X1497684Y1637599D01*
X1497690Y1637600D01*
X1498293Y1638517D01*
X1498292Y1638525D01*
X1498298Y1638527D01*
X1498681Y1639555D01*
X1498679Y1639563D01*
X1498684Y1639566D01*
X1498829Y1640654D01*
X1498825Y1640661D01*
X1498829Y1640665D01*
X1498723Y1641802D01*
X1498718Y1641808D01*
X1498721Y1641813D01*
X1498365Y1642898D01*
X1498358Y1642903D01*
X1498361Y1642908D01*
X1497772Y1643887D01*
X1497764Y1643890D01*
X1497765Y1643896D01*
X1496973Y1644719D01*
X1496965Y1644720D01*
X1496965Y1644726D01*
X1496010Y1645353D01*
X1496002Y1645352D01*
X1496000Y1645358D01*
X1494930Y1645756D01*
X1494922Y1645754D01*
X1494919Y1645759D01*
X1493786Y1645909D01*
X1493783Y1645907D01*
X1493782Y1645907D01*
X1493780Y1645909D01*
X1487780Y1645909D01*
X1487777Y1645907D01*
X1487775Y1645907D01*
X1487774Y1645909D01*
X1486641Y1645759D01*
X1486635Y1645753D01*
X1486630Y1645756D01*
X1485560Y1645358D01*
X1485556Y1645351D01*
X1485550Y1645353D01*
X1484595Y1644726D01*
X1484592Y1644718D01*
X1484587Y1644719D01*
X1483795Y1643896D01*
X1483794Y1643888D01*
X1483788Y1643887D01*
X1483199Y1642908D01*
X1483200Y1642900D01*
X1483195Y1642898D01*
X1482839Y1641813D01*
X1482842Y1641805D01*
X1482837Y1641802D01*
X1482731Y1640665D01*
X1482735Y1640658D01*
X1482731Y1640654D01*
X1482876Y1639566D01*
X1482882Y1639560D01*
X1482879Y1639555D01*
X1483263Y1638527D01*
X1483269Y1638522D01*
X1483268Y1638517D01*
X1483870Y1637600D01*
X1483878Y1637597D01*
X1483877Y1637591D01*
X1484669Y1636831D01*
X1484677Y1636830D01*
X1484678Y1636824D01*
X1485619Y1636260D01*
X1485627Y1636261D01*
X1485629Y1636255D01*
X1486672Y1635914D01*
X1486680Y1635916D01*
X1486683Y1635912D01*
X1487776Y1635811D01*
X1487778Y1635813D01*
X1487780Y1635811D01*
X1493780Y1635811D01*
X1493783Y1635813D01*
G37*
G36*
X754643Y1046533D02*
X754643Y1046533D01*
X754645Y1046531D01*
X755737Y1046632D01*
X755743Y1046637D01*
X755748Y1046634D01*
X756791Y1046975D01*
X756796Y1046982D01*
X756801Y1046980D01*
X757742Y1047544D01*
X757745Y1047552D01*
X757751Y1047551D01*
X758543Y1048311D01*
X758544Y1048319D01*
X758550Y1048320D01*
X759153Y1049237D01*
X759152Y1049245D01*
X759158Y1049247D01*
X759541Y1050275D01*
X759539Y1050283D01*
X759544Y1050286D01*
X759689Y1051374D01*
X759685Y1051381D01*
X759689Y1051385D01*
X759583Y1052522D01*
X759578Y1052528D01*
X759581Y1052533D01*
X759225Y1053618D01*
X759218Y1053623D01*
X759221Y1053628D01*
X758632Y1054607D01*
X758624Y1054610D01*
X758625Y1054616D01*
X757833Y1055439D01*
X757825Y1055440D01*
X757825Y1055446D01*
X756870Y1056073D01*
X756862Y1056072D01*
X756860Y1056078D01*
X755790Y1056476D01*
X755782Y1056474D01*
X755779Y1056479D01*
X754646Y1056629D01*
X754643Y1056627D01*
X754642Y1056627D01*
X754640Y1056629D01*
X748640Y1056629D01*
X748637Y1056627D01*
X748635Y1056627D01*
X748634Y1056629D01*
X747501Y1056479D01*
X747495Y1056473D01*
X747490Y1056476D01*
X746420Y1056078D01*
X746416Y1056071D01*
X746410Y1056073D01*
X745455Y1055446D01*
X745452Y1055438D01*
X745447Y1055439D01*
X744655Y1054616D01*
X744654Y1054608D01*
X744648Y1054607D01*
X744059Y1053628D01*
X744060Y1053620D01*
X744055Y1053618D01*
X743699Y1052533D01*
X743702Y1052525D01*
X743697Y1052522D01*
X743591Y1051385D01*
X743595Y1051378D01*
X743591Y1051374D01*
X743736Y1050286D01*
X743742Y1050280D01*
X743739Y1050275D01*
X744123Y1049247D01*
X744129Y1049242D01*
X744128Y1049237D01*
X744730Y1048320D01*
X744738Y1048317D01*
X744737Y1048311D01*
X745529Y1047551D01*
X745537Y1047550D01*
X745538Y1047544D01*
X746479Y1046980D01*
X746487Y1046981D01*
X746489Y1046975D01*
X747532Y1046634D01*
X747540Y1046636D01*
X747543Y1046632D01*
X748636Y1046531D01*
X748638Y1046533D01*
X748640Y1046531D01*
X754640Y1046531D01*
X754643Y1046533D01*
G37*
G36*
X15503Y457253D02*
X15503Y457253D01*
X15505Y457251D01*
X16597Y457352D01*
X16603Y457357D01*
X16608Y457354D01*
X17651Y457695D01*
X17656Y457702D01*
X17661Y457700D01*
X18602Y458264D01*
X18605Y458272D01*
X18611Y458271D01*
X19403Y459031D01*
X19404Y459039D01*
X19410Y459040D01*
X20013Y459957D01*
X20012Y459965D01*
X20018Y459967D01*
X20401Y460995D01*
X20399Y461003D01*
X20404Y461006D01*
X20549Y462094D01*
X20545Y462101D01*
X20549Y462105D01*
X20443Y463242D01*
X20438Y463248D01*
X20441Y463253D01*
X20085Y464338D01*
X20078Y464343D01*
X20081Y464348D01*
X19492Y465327D01*
X19484Y465330D01*
X19485Y465336D01*
X18693Y466159D01*
X18685Y466160D01*
X18685Y466166D01*
X17730Y466793D01*
X17722Y466792D01*
X17720Y466798D01*
X16650Y467196D01*
X16642Y467194D01*
X16639Y467199D01*
X15506Y467349D01*
X15503Y467347D01*
X15502Y467347D01*
X15500Y467349D01*
X9500Y467349D01*
X9497Y467347D01*
X9495Y467347D01*
X9494Y467349D01*
X8361Y467199D01*
X8355Y467193D01*
X8350Y467196D01*
X7280Y466798D01*
X7276Y466791D01*
X7270Y466793D01*
X6315Y466166D01*
X6312Y466158D01*
X6307Y466159D01*
X5515Y465336D01*
X5514Y465328D01*
X5508Y465327D01*
X4919Y464348D01*
X4920Y464340D01*
X4915Y464338D01*
X4559Y463253D01*
X4562Y463245D01*
X4557Y463242D01*
X4451Y462105D01*
X4455Y462098D01*
X4451Y462094D01*
X4596Y461006D01*
X4602Y461000D01*
X4599Y460995D01*
X4983Y459967D01*
X4989Y459962D01*
X4988Y459957D01*
X5590Y459040D01*
X5598Y459037D01*
X5597Y459031D01*
X6389Y458271D01*
X6397Y458270D01*
X6398Y458264D01*
X7339Y457700D01*
X7347Y457701D01*
X7349Y457695D01*
X8392Y457354D01*
X8400Y457356D01*
X8403Y457352D01*
X9496Y457251D01*
X9498Y457253D01*
X9500Y457251D01*
X15500Y457251D01*
X15503Y457253D01*
G37*
G36*
X754643Y457253D02*
X754643Y457253D01*
X754645Y457251D01*
X755737Y457352D01*
X755743Y457357D01*
X755748Y457354D01*
X756791Y457695D01*
X756796Y457702D01*
X756801Y457700D01*
X757742Y458264D01*
X757745Y458272D01*
X757751Y458271D01*
X758543Y459031D01*
X758544Y459039D01*
X758550Y459040D01*
X759153Y459957D01*
X759152Y459965D01*
X759158Y459967D01*
X759541Y460995D01*
X759539Y461003D01*
X759544Y461006D01*
X759689Y462094D01*
X759685Y462101D01*
X759689Y462105D01*
X759583Y463242D01*
X759578Y463248D01*
X759581Y463253D01*
X759225Y464338D01*
X759218Y464343D01*
X759221Y464348D01*
X758632Y465327D01*
X758624Y465330D01*
X758625Y465336D01*
X757833Y466159D01*
X757825Y466160D01*
X757825Y466166D01*
X756870Y466793D01*
X756862Y466792D01*
X756860Y466798D01*
X755790Y467196D01*
X755782Y467194D01*
X755779Y467199D01*
X754646Y467349D01*
X754643Y467347D01*
X754642Y467347D01*
X754640Y467349D01*
X748640Y467349D01*
X748637Y467347D01*
X748635Y467347D01*
X748634Y467349D01*
X747501Y467199D01*
X747495Y467193D01*
X747490Y467196D01*
X746420Y466798D01*
X746416Y466791D01*
X746410Y466793D01*
X745455Y466166D01*
X745452Y466158D01*
X745447Y466159D01*
X744655Y465336D01*
X744654Y465328D01*
X744648Y465327D01*
X744059Y464348D01*
X744060Y464340D01*
X744055Y464338D01*
X743699Y463253D01*
X743702Y463245D01*
X743697Y463242D01*
X743591Y462105D01*
X743595Y462098D01*
X743591Y462094D01*
X743736Y461006D01*
X743742Y461000D01*
X743739Y460995D01*
X744123Y459967D01*
X744129Y459962D01*
X744128Y459957D01*
X744730Y459040D01*
X744738Y459037D01*
X744737Y459031D01*
X745529Y458271D01*
X745537Y458270D01*
X745538Y458264D01*
X746479Y457700D01*
X746487Y457701D01*
X746489Y457695D01*
X747532Y457354D01*
X747540Y457356D01*
X747543Y457352D01*
X748636Y457251D01*
X748638Y457253D01*
X748640Y457251D01*
X754640Y457251D01*
X754643Y457253D01*
G37*
G36*
X1493783Y457253D02*
X1493783Y457253D01*
X1493785Y457251D01*
X1494877Y457352D01*
X1494883Y457357D01*
X1494888Y457354D01*
X1495931Y457695D01*
X1495936Y457702D01*
X1495941Y457700D01*
X1496882Y458264D01*
X1496885Y458272D01*
X1496891Y458271D01*
X1497683Y459031D01*
X1497684Y459039D01*
X1497690Y459040D01*
X1498293Y459957D01*
X1498292Y459965D01*
X1498298Y459967D01*
X1498681Y460995D01*
X1498679Y461003D01*
X1498684Y461006D01*
X1498829Y462094D01*
X1498825Y462101D01*
X1498829Y462105D01*
X1498723Y463242D01*
X1498718Y463248D01*
X1498721Y463253D01*
X1498365Y464338D01*
X1498358Y464343D01*
X1498361Y464348D01*
X1497772Y465327D01*
X1497764Y465330D01*
X1497765Y465336D01*
X1496973Y466159D01*
X1496965Y466160D01*
X1496965Y466166D01*
X1496010Y466793D01*
X1496002Y466792D01*
X1496000Y466798D01*
X1494930Y467196D01*
X1494922Y467194D01*
X1494919Y467199D01*
X1493786Y467349D01*
X1493783Y467347D01*
X1493782Y467347D01*
X1493780Y467349D01*
X1487780Y467349D01*
X1487777Y467347D01*
X1487775Y467347D01*
X1487774Y467349D01*
X1486641Y467199D01*
X1486635Y467193D01*
X1486630Y467196D01*
X1485560Y466798D01*
X1485556Y466791D01*
X1485550Y466793D01*
X1484595Y466166D01*
X1484592Y466158D01*
X1484587Y466159D01*
X1483795Y465336D01*
X1483794Y465328D01*
X1483788Y465327D01*
X1483199Y464348D01*
X1483200Y464340D01*
X1483195Y464338D01*
X1482839Y463253D01*
X1482842Y463245D01*
X1482837Y463242D01*
X1482731Y462105D01*
X1482735Y462098D01*
X1482731Y462094D01*
X1482876Y461006D01*
X1482882Y461000D01*
X1482879Y460995D01*
X1483263Y459967D01*
X1483269Y459962D01*
X1483268Y459957D01*
X1483870Y459040D01*
X1483878Y459037D01*
X1483877Y459031D01*
X1484669Y458271D01*
X1484677Y458270D01*
X1484678Y458264D01*
X1485619Y457700D01*
X1485627Y457701D01*
X1485629Y457695D01*
X1486672Y457354D01*
X1486680Y457356D01*
X1486683Y457352D01*
X1487776Y457251D01*
X1487778Y457253D01*
X1487780Y457251D01*
X1493780Y457251D01*
X1493783Y457253D01*
G37*
G36*
X15503Y1046533D02*
X15503Y1046533D01*
X15505Y1046531D01*
X16597Y1046632D01*
X16603Y1046637D01*
X16608Y1046634D01*
X17651Y1046975D01*
X17656Y1046982D01*
X17661Y1046980D01*
X18602Y1047544D01*
X18605Y1047552D01*
X18611Y1047551D01*
X19403Y1048311D01*
X19404Y1048319D01*
X19410Y1048320D01*
X20013Y1049237D01*
X20012Y1049245D01*
X20018Y1049247D01*
X20401Y1050275D01*
X20399Y1050283D01*
X20404Y1050286D01*
X20549Y1051374D01*
X20545Y1051381D01*
X20549Y1051385D01*
X20443Y1052522D01*
X20438Y1052528D01*
X20441Y1052533D01*
X20085Y1053618D01*
X20078Y1053623D01*
X20081Y1053628D01*
X19492Y1054607D01*
X19484Y1054610D01*
X19485Y1054616D01*
X18693Y1055439D01*
X18685Y1055440D01*
X18685Y1055446D01*
X17730Y1056073D01*
X17722Y1056072D01*
X17720Y1056078D01*
X16650Y1056476D01*
X16642Y1056474D01*
X16639Y1056479D01*
X15506Y1056629D01*
X15503Y1056627D01*
X15502Y1056627D01*
X15500Y1056629D01*
X9500Y1056629D01*
X9497Y1056627D01*
X9495Y1056627D01*
X9494Y1056629D01*
X8361Y1056479D01*
X8355Y1056473D01*
X8350Y1056476D01*
X7280Y1056078D01*
X7276Y1056071D01*
X7270Y1056073D01*
X6315Y1055446D01*
X6312Y1055438D01*
X6307Y1055439D01*
X5515Y1054616D01*
X5514Y1054608D01*
X5508Y1054607D01*
X4919Y1053628D01*
X4920Y1053620D01*
X4915Y1053618D01*
X4559Y1052533D01*
X4562Y1052525D01*
X4557Y1052522D01*
X4451Y1051385D01*
X4455Y1051378D01*
X4451Y1051374D01*
X4596Y1050286D01*
X4602Y1050280D01*
X4599Y1050275D01*
X4983Y1049247D01*
X4989Y1049242D01*
X4988Y1049237D01*
X5590Y1048320D01*
X5598Y1048317D01*
X5597Y1048311D01*
X6389Y1047551D01*
X6397Y1047550D01*
X6398Y1047544D01*
X7339Y1046980D01*
X7347Y1046981D01*
X7349Y1046975D01*
X8392Y1046634D01*
X8400Y1046636D01*
X8403Y1046632D01*
X9496Y1046531D01*
X9498Y1046533D01*
X9500Y1046531D01*
X15500Y1046531D01*
X15503Y1046533D01*
G37*
G36*
X15503Y1635813D02*
X15503Y1635813D01*
X15505Y1635811D01*
X16597Y1635912D01*
X16603Y1635917D01*
X16608Y1635914D01*
X17651Y1636255D01*
X17656Y1636262D01*
X17661Y1636260D01*
X18602Y1636824D01*
X18605Y1636832D01*
X18611Y1636831D01*
X19403Y1637591D01*
X19404Y1637599D01*
X19410Y1637600D01*
X20013Y1638517D01*
X20012Y1638525D01*
X20018Y1638527D01*
X20401Y1639555D01*
X20399Y1639563D01*
X20404Y1639566D01*
X20549Y1640654D01*
X20545Y1640661D01*
X20549Y1640665D01*
X20443Y1641802D01*
X20438Y1641808D01*
X20441Y1641813D01*
X20085Y1642898D01*
X20078Y1642903D01*
X20081Y1642908D01*
X19492Y1643887D01*
X19484Y1643890D01*
X19485Y1643896D01*
X18693Y1644719D01*
X18685Y1644720D01*
X18685Y1644726D01*
X17730Y1645353D01*
X17722Y1645352D01*
X17720Y1645358D01*
X16650Y1645756D01*
X16642Y1645754D01*
X16639Y1645759D01*
X15506Y1645909D01*
X15503Y1645907D01*
X15502Y1645907D01*
X15500Y1645909D01*
X9500Y1645909D01*
X9497Y1645907D01*
X9495Y1645907D01*
X9494Y1645909D01*
X8361Y1645759D01*
X8355Y1645753D01*
X8350Y1645756D01*
X7280Y1645358D01*
X7276Y1645351D01*
X7270Y1645353D01*
X6315Y1644726D01*
X6312Y1644718D01*
X6307Y1644719D01*
X5515Y1643896D01*
X5514Y1643888D01*
X5508Y1643887D01*
X4919Y1642908D01*
X4920Y1642900D01*
X4915Y1642898D01*
X4559Y1641813D01*
X4562Y1641805D01*
X4557Y1641802D01*
X4451Y1640665D01*
X4455Y1640658D01*
X4451Y1640654D01*
X4596Y1639566D01*
X4602Y1639560D01*
X4599Y1639555D01*
X4983Y1638527D01*
X4989Y1638522D01*
X4988Y1638517D01*
X5590Y1637600D01*
X5598Y1637597D01*
X5597Y1637591D01*
X6389Y1636831D01*
X6397Y1636830D01*
X6398Y1636824D01*
X7339Y1636260D01*
X7347Y1636261D01*
X7349Y1636255D01*
X8392Y1635914D01*
X8400Y1635916D01*
X8403Y1635912D01*
X9496Y1635811D01*
X9498Y1635813D01*
X9500Y1635811D01*
X15500Y1635811D01*
X15503Y1635813D01*
G37*
G36*
X754643Y1635813D02*
X754643Y1635813D01*
X754645Y1635811D01*
X755737Y1635912D01*
X755743Y1635917D01*
X755748Y1635914D01*
X756791Y1636255D01*
X756796Y1636262D01*
X756801Y1636260D01*
X757742Y1636824D01*
X757745Y1636832D01*
X757751Y1636831D01*
X758543Y1637591D01*
X758544Y1637599D01*
X758550Y1637600D01*
X759153Y1638517D01*
X759152Y1638525D01*
X759158Y1638527D01*
X759541Y1639555D01*
X759539Y1639563D01*
X759544Y1639566D01*
X759689Y1640654D01*
X759685Y1640661D01*
X759689Y1640665D01*
X759583Y1641802D01*
X759578Y1641808D01*
X759581Y1641813D01*
X759225Y1642898D01*
X759218Y1642903D01*
X759221Y1642908D01*
X758632Y1643887D01*
X758624Y1643890D01*
X758625Y1643896D01*
X757833Y1644719D01*
X757825Y1644720D01*
X757825Y1644726D01*
X756870Y1645353D01*
X756862Y1645352D01*
X756860Y1645358D01*
X755790Y1645756D01*
X755782Y1645754D01*
X755779Y1645759D01*
X754646Y1645909D01*
X754643Y1645907D01*
X754642Y1645907D01*
X754640Y1645909D01*
X748640Y1645909D01*
X748637Y1645907D01*
X748635Y1645907D01*
X748634Y1645909D01*
X747501Y1645759D01*
X747495Y1645753D01*
X747490Y1645756D01*
X746420Y1645358D01*
X746416Y1645351D01*
X746410Y1645353D01*
X745455Y1644726D01*
X745452Y1644718D01*
X745447Y1644719D01*
X744655Y1643896D01*
X744654Y1643888D01*
X744648Y1643887D01*
X744059Y1642908D01*
X744060Y1642900D01*
X744055Y1642898D01*
X743699Y1641813D01*
X743702Y1641805D01*
X743697Y1641802D01*
X743591Y1640665D01*
X743595Y1640658D01*
X743591Y1640654D01*
X743736Y1639566D01*
X743742Y1639560D01*
X743739Y1639555D01*
X744123Y1638527D01*
X744129Y1638522D01*
X744128Y1638517D01*
X744730Y1637600D01*
X744738Y1637597D01*
X744737Y1637591D01*
X745529Y1636831D01*
X745537Y1636830D01*
X745538Y1636824D01*
X746479Y1636260D01*
X746487Y1636261D01*
X746489Y1636255D01*
X747532Y1635914D01*
X747540Y1635916D01*
X747543Y1635912D01*
X748636Y1635811D01*
X748638Y1635813D01*
X748640Y1635811D01*
X754640Y1635811D01*
X754643Y1635813D01*
G37*
D10*
X12700Y550300D03*
X12700Y567300D03*
X38100Y550300D03*
X38100Y567300D03*
D11*
X11400Y482600D03*
X39400Y482600D03*
D12*
X340360Y516900D03*
X289560Y516900D03*
X238760Y516900D03*
X365760Y549900D03*
X314960Y549900D03*
X264160Y549900D03*
X213360Y549900D03*
X187960Y549900D03*
X213360Y516900D03*
X238760Y549900D03*
X264160Y516900D03*
X289560Y549900D03*
X314960Y516900D03*
X340360Y549900D03*
X365760Y516900D03*
X187960Y516900D03*
X391160Y549900D03*
X416560Y549900D03*
X391160Y516900D03*
X416560Y516900D03*
D13*
X304600Y34200D03*
X304800Y67200D03*
X279200Y34200D03*
X279400Y67200D03*
X330100Y34200D03*
X330300Y67200D03*
X355400Y34200D03*
X355600Y67200D03*
X380800Y34200D03*
X381000Y67200D03*
X406300Y34200D03*
X406500Y67200D03*
X457000Y34200D03*
X457200Y67200D03*
X431600Y34200D03*
X431800Y67200D03*
X609800Y550000D03*
X609600Y517000D03*
X635200Y550000D03*
X635000Y517000D03*
X584300Y550000D03*
X584100Y517000D03*
X559000Y550000D03*
X558800Y517000D03*
X533600Y550000D03*
X533400Y517000D03*
X508100Y550000D03*
X507900Y517000D03*
X457400Y550000D03*
X457200Y517000D03*
X482800Y550000D03*
X482600Y517000D03*
D12*
X609600Y34300D03*
X558800Y34300D03*
X508000Y34300D03*
X635000Y67300D03*
X584200Y67300D03*
X533400Y67300D03*
X508000Y67300D03*
X533400Y34300D03*
X558800Y67300D03*
X584200Y34300D03*
X609600Y67300D03*
X635000Y34300D03*
D10*
X63500Y480450D03*
X63500Y497450D03*
D14*
X258200Y400050D03*
X275200Y400050D03*
X135500Y495300D03*
X118500Y495300D03*
X258200Y425450D03*
X275200Y425450D03*
D15*
X60100Y411600D03*
X60100Y416600D03*
D16*
X60100Y386850D03*
X60100Y394600D03*
D15*
X60100Y401600D03*
X60100Y406600D03*
X60100Y426600D03*
X60100Y421600D03*
D16*
X60100Y451350D03*
X60100Y443600D03*
D15*
X60100Y436600D03*
X60100Y431600D03*
D17*
X99000Y463550D03*
X99000Y450850D03*
X99000Y438150D03*
X99000Y425450D03*
X99000Y412750D03*
X99000Y400050D03*
X99000Y387350D03*
X99000Y374650D03*
X155000Y374650D03*
X155000Y387350D03*
X155000Y400050D03*
X155000Y412750D03*
X155000Y425450D03*
X155000Y438150D03*
X155000Y450850D03*
X155000Y463550D03*
D14*
X87240Y360680D03*
X70240Y360680D03*
D10*
X82550Y497450D03*
X82550Y480450D03*
D18*
X10400Y520700D03*
X40400Y520700D03*
D10*
X444500Y389500D03*
X444500Y372500D03*
X393700Y372500D03*
X393700Y389500D03*
D19*
X412600Y371800D03*
X419100Y390200D03*
X425600Y390200D03*
X412600Y390200D03*
X419100Y371800D03*
X425600Y371800D03*
D20*
X480060Y450850D03*
X535940Y450850D03*
X480060Y412750D03*
X535940Y412750D03*
D21*
X129600Y570150D03*
X73600Y570150D03*
D22*
X116600Y533400D03*
X106600Y533400D03*
X96600Y533400D03*
X86600Y533400D03*
D14*
X563000Y381000D03*
X580000Y381000D03*
X563000Y406400D03*
X580000Y406400D03*
X601100Y381000D03*
X618100Y381000D03*
X601100Y406400D03*
X618100Y406400D03*
D20*
X391160Y450850D03*
X447040Y450850D03*
X391160Y412750D03*
X447040Y412750D03*
D23*
X332500Y425450D03*
X302500Y425450D03*
X332500Y400050D03*
X302500Y400050D03*
X332500Y450850D03*
X302500Y450850D03*
D14*
X258200Y450850D03*
X275200Y450850D03*
D24*
X610400Y323680D03*
X597700Y323680D03*
X585000Y323680D03*
X572300Y323680D03*
X559600Y323680D03*
X546900Y323680D03*
X534200Y323680D03*
X521500Y323680D03*
X508800Y323680D03*
X496100Y323680D03*
X483400Y323680D03*
X470700Y323680D03*
X458000Y323680D03*
X445300Y323680D03*
D25*
X430400Y298450D03*
X430400Y285750D03*
X430400Y273050D03*
X430400Y260350D03*
X430400Y247650D03*
X430400Y234950D03*
X430400Y222250D03*
X430400Y209550D03*
X430400Y196850D03*
X430400Y184150D03*
D24*
X445300Y158920D03*
X458000Y158920D03*
X470700Y158920D03*
X483400Y158920D03*
X496100Y158920D03*
X508800Y158920D03*
X521500Y158920D03*
X534200Y158920D03*
X546900Y158920D03*
X559600Y158920D03*
X572300Y158920D03*
X585000Y158920D03*
X597700Y158920D03*
X610400Y158920D03*
D26*
X536980Y256610D03*
X555190Y238160D03*
X555190Y256460D03*
X555190Y274760D03*
X536890Y274760D03*
X537190Y238060D03*
X518590Y238160D03*
X518490Y256460D03*
X518590Y274760D03*
D14*
X618100Y431800D03*
X601100Y431800D03*
X563000Y431800D03*
X580000Y431800D03*
D27*
X145640Y272550D03*
X145640Y261550D03*
X145640Y250550D03*
X145640Y283550D03*
X145640Y294550D03*
X145640Y305550D03*
X145640Y316550D03*
X145640Y327550D03*
X145640Y338550D03*
D28*
X44640Y195550D03*
X44640Y350550D03*
D11*
X140640Y204550D03*
D29*
X139640Y350550D03*
D11*
X201900Y304800D03*
X229900Y304800D03*
D10*
X228600Y351400D03*
X228600Y334400D03*
D30*
X191900Y177800D03*
X239900Y177800D03*
D10*
X177800Y351400D03*
X177800Y334400D03*
X203200Y334400D03*
X203200Y351400D03*
D31*
X139700Y130900D03*
X139700Y173900D03*
D32*
X20320Y168760D03*
X20320Y54760D03*
X81320Y168760D03*
X81320Y54760D03*
D33*
X184912Y277114D03*
X184912Y254000D03*
X184912Y230886D03*
D34*
X246890Y254000D03*
D35*
X322200Y324000D03*
X322200Y317500D03*
X322200Y311000D03*
X338200Y311000D03*
X338200Y317500D03*
X338200Y324000D03*
D36*
X302100Y308000D03*
X302100Y327000D03*
X281100Y317500D03*
D14*
X376800Y336550D03*
X359800Y336550D03*
X376800Y317500D03*
X359800Y317500D03*
D37*
X339400Y272900D03*
X321000Y279400D03*
X321000Y285900D03*
X321000Y272900D03*
X339400Y279400D03*
X339400Y285900D03*
D14*
X376800Y279400D03*
X359800Y279400D03*
X359800Y298450D03*
X376800Y298450D03*
X359800Y260350D03*
X376800Y260350D03*
D36*
X302100Y269900D03*
X302100Y288900D03*
X281100Y279400D03*
D35*
X322200Y133500D03*
X322200Y127000D03*
X322200Y120500D03*
X338200Y120500D03*
X338200Y127000D03*
X338200Y133500D03*
D36*
X302100Y193700D03*
X302100Y212700D03*
X281100Y203200D03*
D14*
X376800Y127000D03*
X359800Y127000D03*
X414900Y127000D03*
X397900Y127000D03*
D35*
X322200Y247800D03*
X322200Y241300D03*
X322200Y234800D03*
X338200Y234800D03*
X338200Y241300D03*
X338200Y247800D03*
D36*
X302100Y231800D03*
X302100Y250800D03*
X281100Y241300D03*
D14*
X376800Y241300D03*
X359800Y241300D03*
X376800Y222250D03*
X359800Y222250D03*
D10*
X88900Y33900D03*
X88900Y16900D03*
D38*
X37799Y34900D03*
X37799Y25400D03*
X37799Y15900D03*
X63801Y15900D03*
X63801Y34900D03*
D10*
X171450Y480450D03*
X171450Y497450D03*
X12700Y16900D03*
X12700Y33900D03*
D39*
X130200Y88599D03*
X139700Y88599D03*
X149200Y88599D03*
X149200Y114601D03*
X130200Y114601D03*
D14*
X245500Y101600D03*
X262500Y101600D03*
D40*
X225900Y75100D03*
X205900Y75100D03*
D41*
X249900Y23100D03*
X181900Y23100D03*
D14*
X275200Y349250D03*
X258200Y349250D03*
X160900Y12700D03*
X143900Y12700D03*
D10*
X114300Y169300D03*
X114300Y186300D03*
D23*
X332500Y349250D03*
X302500Y349250D03*
D35*
X322200Y209700D03*
X322200Y203200D03*
X322200Y196700D03*
X338200Y196700D03*
X338200Y203200D03*
X338200Y209700D03*
D36*
X282100Y174600D03*
X282100Y155600D03*
X303100Y165100D03*
D14*
X376800Y203200D03*
X359800Y203200D03*
X376800Y184150D03*
X359800Y184150D03*
D35*
X322200Y171600D03*
X322200Y165100D03*
X322200Y158600D03*
X338200Y158600D03*
X338200Y165100D03*
X338200Y171600D03*
D36*
X282100Y136500D03*
X282100Y117500D03*
X303100Y127000D03*
D14*
X376800Y165100D03*
X359800Y165100D03*
X376800Y146050D03*
X359800Y146050D03*
D42*
X170300Y91413D03*
X175300Y111788D03*
X170300Y111788D03*
X180300Y111788D03*
X185300Y111788D03*
X175300Y91413D03*
X180300Y91413D03*
X185300Y91413D03*
D43*
X181200Y101600D03*
X174400Y101600D03*
D10*
X254000Y118500D03*
X254000Y135500D03*
X482600Y59300D03*
X482600Y42300D03*
D14*
X258200Y374650D03*
X275200Y374650D03*
D23*
X332500Y374650D03*
X302500Y374650D03*
D10*
X751840Y550300D03*
X751840Y567300D03*
X777240Y550300D03*
X777240Y567300D03*
D11*
X750540Y482600D03*
X778540Y482600D03*
D12*
X1079500Y516900D03*
X1028700Y516900D03*
X977900Y516900D03*
X1104900Y549900D03*
X1054100Y549900D03*
X1003300Y549900D03*
X952500Y549900D03*
X927100Y549900D03*
X952500Y516900D03*
X977900Y549900D03*
X1003300Y516900D03*
X1028700Y549900D03*
X1054100Y516900D03*
X1079500Y549900D03*
X1104900Y516900D03*
X927100Y516900D03*
X1130300Y549900D03*
X1155700Y549900D03*
X1130300Y516900D03*
X1155700Y516900D03*
D13*
X1043740Y34200D03*
X1043940Y67200D03*
X1018340Y34200D03*
X1018540Y67200D03*
X1069240Y34200D03*
X1069440Y67200D03*
X1094540Y34200D03*
X1094740Y67200D03*
X1119940Y34200D03*
X1120140Y67200D03*
X1145440Y34200D03*
X1145640Y67200D03*
X1196140Y34200D03*
X1196340Y67200D03*
X1170740Y34200D03*
X1170940Y67200D03*
X1348940Y550000D03*
X1348740Y517000D03*
X1374340Y550000D03*
X1374140Y517000D03*
X1323440Y550000D03*
X1323240Y517000D03*
X1298140Y550000D03*
X1297940Y517000D03*
X1272740Y550000D03*
X1272540Y517000D03*
X1247240Y550000D03*
X1247040Y517000D03*
X1196540Y550000D03*
X1196340Y517000D03*
X1221940Y550000D03*
X1221740Y517000D03*
D12*
X1348740Y34300D03*
X1297940Y34300D03*
X1247140Y34300D03*
X1374140Y67300D03*
X1323340Y67300D03*
X1272540Y67300D03*
X1247140Y67300D03*
X1272540Y34300D03*
X1297940Y67300D03*
X1323340Y34300D03*
X1348740Y67300D03*
X1374140Y34300D03*
D10*
X802640Y480450D03*
X802640Y497450D03*
D14*
X997340Y400050D03*
X1014340Y400050D03*
X874640Y495300D03*
X857640Y495300D03*
X997340Y425450D03*
X1014340Y425450D03*
D15*
X799240Y411600D03*
X799240Y416600D03*
D16*
X799240Y386850D03*
X799240Y394600D03*
D15*
X799240Y401600D03*
X799240Y406600D03*
X799240Y426600D03*
X799240Y421600D03*
D16*
X799240Y451350D03*
X799240Y443600D03*
D15*
X799240Y436600D03*
X799240Y431600D03*
D17*
X838140Y463550D03*
X838140Y450850D03*
X838140Y438150D03*
X838140Y425450D03*
X838140Y412750D03*
X838140Y400050D03*
X838140Y387350D03*
X838140Y374650D03*
X894140Y374650D03*
X894140Y387350D03*
X894140Y400050D03*
X894140Y412750D03*
X894140Y425450D03*
X894140Y438150D03*
X894140Y450850D03*
X894140Y463550D03*
D14*
X826380Y360680D03*
X809380Y360680D03*
D10*
X821690Y497450D03*
X821690Y480450D03*
D18*
X749540Y520700D03*
X779540Y520700D03*
D10*
X1183640Y389500D03*
X1183640Y372500D03*
X1132840Y372500D03*
X1132840Y389500D03*
D19*
X1151740Y371800D03*
X1158240Y390200D03*
X1164740Y390200D03*
X1151740Y390200D03*
X1158240Y371800D03*
X1164740Y371800D03*
D20*
X1219200Y450850D03*
X1275080Y450850D03*
X1219200Y412750D03*
X1275080Y412750D03*
D21*
X868740Y570150D03*
X812740Y570150D03*
D22*
X855740Y533400D03*
X845740Y533400D03*
X835740Y533400D03*
X825740Y533400D03*
D14*
X1302140Y381000D03*
X1319140Y381000D03*
X1302140Y406400D03*
X1319140Y406400D03*
X1340240Y381000D03*
X1357240Y381000D03*
X1340240Y406400D03*
X1357240Y406400D03*
D20*
X1130300Y450850D03*
X1186180Y450850D03*
X1130300Y412750D03*
X1186180Y412750D03*
D23*
X1071640Y425450D03*
X1041640Y425450D03*
X1071640Y400050D03*
X1041640Y400050D03*
X1071640Y450850D03*
X1041640Y450850D03*
D14*
X997340Y450850D03*
X1014340Y450850D03*
D24*
X1349540Y323680D03*
X1336840Y323680D03*
X1324140Y323680D03*
X1311440Y323680D03*
X1298740Y323680D03*
X1286040Y323680D03*
X1273340Y323680D03*
X1260640Y323680D03*
X1247940Y323680D03*
X1235240Y323680D03*
X1222540Y323680D03*
X1209840Y323680D03*
X1197140Y323680D03*
X1184440Y323680D03*
D25*
X1169540Y298450D03*
X1169540Y285750D03*
X1169540Y273050D03*
X1169540Y260350D03*
X1169540Y247650D03*
X1169540Y234950D03*
X1169540Y222250D03*
X1169540Y209550D03*
X1169540Y196850D03*
X1169540Y184150D03*
D24*
X1184440Y158920D03*
X1197140Y158920D03*
X1209840Y158920D03*
X1222540Y158920D03*
X1235240Y158920D03*
X1247940Y158920D03*
X1260640Y158920D03*
X1273340Y158920D03*
X1286040Y158920D03*
X1298740Y158920D03*
X1311440Y158920D03*
X1324140Y158920D03*
X1336840Y158920D03*
X1349540Y158920D03*
D26*
X1276120Y256610D03*
X1294330Y238160D03*
X1294330Y256460D03*
X1294330Y274760D03*
X1276030Y274760D03*
X1276330Y238060D03*
X1257730Y238160D03*
X1257630Y256460D03*
X1257730Y274760D03*
D14*
X1357240Y431800D03*
X1340240Y431800D03*
X1302140Y431800D03*
X1319140Y431800D03*
D27*
X884780Y272550D03*
X884780Y261550D03*
X884780Y250550D03*
X884780Y283550D03*
X884780Y294550D03*
X884780Y305550D03*
X884780Y316550D03*
X884780Y327550D03*
X884780Y338550D03*
D28*
X783780Y195550D03*
X783780Y350550D03*
D11*
X879780Y204550D03*
D29*
X878780Y350550D03*
D11*
X941040Y304800D03*
X969040Y304800D03*
D10*
X967740Y351400D03*
X967740Y334400D03*
D30*
X931040Y177800D03*
X979040Y177800D03*
D10*
X916940Y351400D03*
X916940Y334400D03*
X942340Y334400D03*
X942340Y351400D03*
D31*
X878840Y130900D03*
X878840Y173900D03*
D32*
X759460Y168760D03*
X759460Y54760D03*
X820460Y168760D03*
X820460Y54760D03*
D33*
X924052Y277114D03*
X924052Y254000D03*
X924052Y230886D03*
D34*
X986030Y254000D03*
D35*
X1061340Y324000D03*
X1061340Y317500D03*
X1061340Y311000D03*
X1077340Y311000D03*
X1077340Y317500D03*
X1077340Y324000D03*
D36*
X1041240Y308000D03*
X1041240Y327000D03*
X1020240Y317500D03*
D14*
X1115940Y336550D03*
X1098940Y336550D03*
X1115940Y317500D03*
X1098940Y317500D03*
D37*
X1078540Y272900D03*
X1060140Y279400D03*
X1060140Y285900D03*
X1060140Y272900D03*
X1078540Y279400D03*
X1078540Y285900D03*
D14*
X1115940Y279400D03*
X1098940Y279400D03*
X1098940Y298450D03*
X1115940Y298450D03*
X1098940Y260350D03*
X1115940Y260350D03*
D36*
X1041240Y269900D03*
X1041240Y288900D03*
X1020240Y279400D03*
D35*
X1061340Y133500D03*
X1061340Y127000D03*
X1061340Y120500D03*
X1077340Y120500D03*
X1077340Y127000D03*
X1077340Y133500D03*
D36*
X1041240Y193700D03*
X1041240Y212700D03*
X1020240Y203200D03*
D14*
X1115940Y127000D03*
X1098940Y127000D03*
X1154040Y127000D03*
X1137040Y127000D03*
D35*
X1061340Y247800D03*
X1061340Y241300D03*
X1061340Y234800D03*
X1077340Y234800D03*
X1077340Y241300D03*
X1077340Y247800D03*
D36*
X1041240Y231800D03*
X1041240Y250800D03*
X1020240Y241300D03*
D14*
X1115940Y241300D03*
X1098940Y241300D03*
X1115940Y222250D03*
X1098940Y222250D03*
D10*
X828040Y33900D03*
X828040Y16900D03*
D38*
X776939Y34900D03*
X776939Y25400D03*
X776939Y15900D03*
X802941Y15900D03*
X802941Y34900D03*
D10*
X910590Y480450D03*
X910590Y497450D03*
X751840Y16900D03*
X751840Y33900D03*
D39*
X869340Y88599D03*
X878840Y88599D03*
X888340Y88599D03*
X888340Y114601D03*
X869340Y114601D03*
D14*
X984640Y101600D03*
X1001640Y101600D03*
D40*
X965040Y75100D03*
X945040Y75100D03*
D41*
X989040Y23100D03*
X921040Y23100D03*
D14*
X1014340Y349250D03*
X997340Y349250D03*
X900040Y12700D03*
X883040Y12700D03*
D10*
X853440Y169300D03*
X853440Y186300D03*
D23*
X1071640Y349250D03*
X1041640Y349250D03*
D35*
X1061340Y209700D03*
X1061340Y203200D03*
X1061340Y196700D03*
X1077340Y196700D03*
X1077340Y203200D03*
X1077340Y209700D03*
D36*
X1021240Y174600D03*
X1021240Y155600D03*
X1042240Y165100D03*
D14*
X1115940Y203200D03*
X1098940Y203200D03*
X1115940Y184150D03*
X1098940Y184150D03*
D35*
X1061340Y171600D03*
X1061340Y165100D03*
X1061340Y158600D03*
X1077340Y158600D03*
X1077340Y165100D03*
X1077340Y171600D03*
D36*
X1021240Y136500D03*
X1021240Y117500D03*
X1042240Y127000D03*
D14*
X1115940Y165100D03*
X1098940Y165100D03*
X1115940Y146050D03*
X1098940Y146050D03*
D42*
X909440Y91413D03*
X914440Y111788D03*
X909440Y111788D03*
X919440Y111788D03*
X924440Y111788D03*
X914440Y91413D03*
X919440Y91413D03*
X924440Y91413D03*
D43*
X920340Y101600D03*
X913540Y101600D03*
D10*
X993140Y118500D03*
X993140Y135500D03*
X1221740Y59300D03*
X1221740Y42300D03*
D14*
X997340Y374650D03*
X1014340Y374650D03*
D23*
X1071640Y374650D03*
X1041640Y374650D03*
D10*
X1490980Y550300D03*
X1490980Y567300D03*
X1516380Y550300D03*
X1516380Y567300D03*
D11*
X1489680Y482600D03*
X1517680Y482600D03*
D12*
X1818640Y516900D03*
X1767840Y516900D03*
X1717040Y516900D03*
X1844040Y549900D03*
X1793240Y549900D03*
X1742440Y549900D03*
X1691640Y549900D03*
X1666240Y549900D03*
X1691640Y516900D03*
X1717040Y549900D03*
X1742440Y516900D03*
X1767840Y549900D03*
X1793240Y516900D03*
X1818640Y549900D03*
X1844040Y516900D03*
X1666240Y516900D03*
X1869440Y549900D03*
X1894840Y549900D03*
X1869440Y516900D03*
X1894840Y516900D03*
D13*
X1782880Y34200D03*
X1783080Y67200D03*
X1757480Y34200D03*
X1757680Y67200D03*
X1808380Y34200D03*
X1808580Y67200D03*
X1833680Y34200D03*
X1833880Y67200D03*
X1859080Y34200D03*
X1859280Y67200D03*
X1884580Y34200D03*
X1884780Y67200D03*
X1935280Y34200D03*
X1935480Y67200D03*
X1909880Y34200D03*
X1910080Y67200D03*
X2088080Y550000D03*
X2087880Y517000D03*
X2113480Y550000D03*
X2113280Y517000D03*
X2062580Y550000D03*
X2062380Y517000D03*
X2037280Y550000D03*
X2037080Y517000D03*
X2011880Y550000D03*
X2011680Y517000D03*
X1986380Y550000D03*
X1986180Y517000D03*
X1935680Y550000D03*
X1935480Y517000D03*
X1961080Y550000D03*
X1960880Y517000D03*
D12*
X2087880Y34300D03*
X2037080Y34300D03*
X1986280Y34300D03*
X2113280Y67300D03*
X2062480Y67300D03*
X2011680Y67300D03*
X1986280Y67300D03*
X2011680Y34300D03*
X2037080Y67300D03*
X2062480Y34300D03*
X2087880Y67300D03*
X2113280Y34300D03*
D10*
X1541780Y480450D03*
X1541780Y497450D03*
D14*
X1736480Y400050D03*
X1753480Y400050D03*
X1613780Y495300D03*
X1596780Y495300D03*
X1736480Y425450D03*
X1753480Y425450D03*
D15*
X1538380Y411600D03*
X1538380Y416600D03*
D16*
X1538380Y386850D03*
X1538380Y394600D03*
D15*
X1538380Y401600D03*
X1538380Y406600D03*
X1538380Y426600D03*
X1538380Y421600D03*
D16*
X1538380Y451350D03*
X1538380Y443600D03*
D15*
X1538380Y436600D03*
X1538380Y431600D03*
D17*
X1577280Y463550D03*
X1577280Y450850D03*
X1577280Y438150D03*
X1577280Y425450D03*
X1577280Y412750D03*
X1577280Y400050D03*
X1577280Y387350D03*
X1577280Y374650D03*
X1633280Y374650D03*
X1633280Y387350D03*
X1633280Y400050D03*
X1633280Y412750D03*
X1633280Y425450D03*
X1633280Y438150D03*
X1633280Y450850D03*
X1633280Y463550D03*
D14*
X1565520Y360680D03*
X1548520Y360680D03*
D10*
X1560830Y497450D03*
X1560830Y480450D03*
D18*
X1488680Y520700D03*
X1518680Y520700D03*
D10*
X1922780Y389500D03*
X1922780Y372500D03*
X1871980Y372500D03*
X1871980Y389500D03*
D19*
X1890880Y371800D03*
X1897380Y390200D03*
X1903880Y390200D03*
X1890880Y390200D03*
X1897380Y371800D03*
X1903880Y371800D03*
D20*
X1958340Y450850D03*
X2014220Y450850D03*
X1958340Y412750D03*
X2014220Y412750D03*
D21*
X1607880Y570150D03*
X1551880Y570150D03*
D22*
X1594880Y533400D03*
X1584880Y533400D03*
X1574880Y533400D03*
X1564880Y533400D03*
D14*
X2041280Y381000D03*
X2058280Y381000D03*
X2041280Y406400D03*
X2058280Y406400D03*
X2079380Y381000D03*
X2096380Y381000D03*
X2079380Y406400D03*
X2096380Y406400D03*
D20*
X1869440Y450850D03*
X1925320Y450850D03*
X1869440Y412750D03*
X1925320Y412750D03*
D23*
X1810780Y425450D03*
X1780780Y425450D03*
X1810780Y400050D03*
X1780780Y400050D03*
X1810780Y450850D03*
X1780780Y450850D03*
D14*
X1736480Y450850D03*
X1753480Y450850D03*
D24*
X2088680Y323680D03*
X2075980Y323680D03*
X2063280Y323680D03*
X2050580Y323680D03*
X2037880Y323680D03*
X2025180Y323680D03*
X2012480Y323680D03*
X1999780Y323680D03*
X1987080Y323680D03*
X1974380Y323680D03*
X1961680Y323680D03*
X1948980Y323680D03*
X1936280Y323680D03*
X1923580Y323680D03*
D25*
X1908680Y298450D03*
X1908680Y285750D03*
X1908680Y273050D03*
X1908680Y260350D03*
X1908680Y247650D03*
X1908680Y234950D03*
X1908680Y222250D03*
X1908680Y209550D03*
X1908680Y196850D03*
X1908680Y184150D03*
D24*
X1923580Y158920D03*
X1936280Y158920D03*
X1948980Y158920D03*
X1961680Y158920D03*
X1974380Y158920D03*
X1987080Y158920D03*
X1999780Y158920D03*
X2012480Y158920D03*
X2025180Y158920D03*
X2037880Y158920D03*
X2050580Y158920D03*
X2063280Y158920D03*
X2075980Y158920D03*
X2088680Y158920D03*
D26*
X2015260Y256610D03*
X2033470Y238160D03*
X2033470Y256460D03*
X2033470Y274760D03*
X2015170Y274760D03*
X2015470Y238060D03*
X1996870Y238160D03*
X1996770Y256460D03*
X1996870Y274760D03*
D14*
X2096380Y431800D03*
X2079380Y431800D03*
X2041280Y431800D03*
X2058280Y431800D03*
D27*
X1623920Y272550D03*
X1623920Y261550D03*
X1623920Y250550D03*
X1623920Y283550D03*
X1623920Y294550D03*
X1623920Y305550D03*
X1623920Y316550D03*
X1623920Y327550D03*
X1623920Y338550D03*
D28*
X1522920Y195550D03*
X1522920Y350550D03*
D11*
X1618920Y204550D03*
D29*
X1617920Y350550D03*
D11*
X1680180Y304800D03*
X1708180Y304800D03*
D10*
X1706880Y351400D03*
X1706880Y334400D03*
D30*
X1670180Y177800D03*
X1718180Y177800D03*
D10*
X1656080Y351400D03*
X1656080Y334400D03*
X1681480Y334400D03*
X1681480Y351400D03*
D31*
X1617980Y130900D03*
X1617980Y173900D03*
D32*
X1498600Y168760D03*
X1498600Y54760D03*
X1559600Y168760D03*
X1559600Y54760D03*
D33*
X1663192Y277114D03*
X1663192Y254000D03*
X1663192Y230886D03*
D34*
X1725170Y254000D03*
D35*
X1800480Y324000D03*
X1800480Y317500D03*
X1800480Y311000D03*
X1816480Y311000D03*
X1816480Y317500D03*
X1816480Y324000D03*
D36*
X1780380Y308000D03*
X1780380Y327000D03*
X1759380Y317500D03*
D14*
X1855080Y336550D03*
X1838080Y336550D03*
X1855080Y317500D03*
X1838080Y317500D03*
D37*
X1817680Y272900D03*
X1799280Y279400D03*
X1799280Y285900D03*
X1799280Y272900D03*
X1817680Y279400D03*
X1817680Y285900D03*
D14*
X1855080Y279400D03*
X1838080Y279400D03*
X1838080Y298450D03*
X1855080Y298450D03*
X1838080Y260350D03*
X1855080Y260350D03*
D36*
X1780380Y269900D03*
X1780380Y288900D03*
X1759380Y279400D03*
D35*
X1800480Y133500D03*
X1800480Y127000D03*
X1800480Y120500D03*
X1816480Y120500D03*
X1816480Y127000D03*
X1816480Y133500D03*
D36*
X1780380Y193700D03*
X1780380Y212700D03*
X1759380Y203200D03*
D14*
X1855080Y127000D03*
X1838080Y127000D03*
X1893180Y127000D03*
X1876180Y127000D03*
D35*
X1800480Y247800D03*
X1800480Y241300D03*
X1800480Y234800D03*
X1816480Y234800D03*
X1816480Y241300D03*
X1816480Y247800D03*
D36*
X1780380Y231800D03*
X1780380Y250800D03*
X1759380Y241300D03*
D14*
X1855080Y241300D03*
X1838080Y241300D03*
X1855080Y222250D03*
X1838080Y222250D03*
D10*
X1567180Y33900D03*
X1567180Y16900D03*
D38*
X1516079Y34900D03*
X1516079Y25400D03*
X1516079Y15900D03*
X1542081Y15900D03*
X1542081Y34900D03*
D10*
X1649730Y480450D03*
X1649730Y497450D03*
X1490980Y16900D03*
X1490980Y33900D03*
D39*
X1608480Y88599D03*
X1617980Y88599D03*
X1627480Y88599D03*
X1627480Y114601D03*
X1608480Y114601D03*
D14*
X1723780Y101600D03*
X1740780Y101600D03*
D40*
X1704180Y75100D03*
X1684180Y75100D03*
D41*
X1728180Y23100D03*
X1660180Y23100D03*
D14*
X1753480Y349250D03*
X1736480Y349250D03*
X1639180Y12700D03*
X1622180Y12700D03*
D10*
X1592580Y169300D03*
X1592580Y186300D03*
D23*
X1810780Y349250D03*
X1780780Y349250D03*
D35*
X1800480Y209700D03*
X1800480Y203200D03*
X1800480Y196700D03*
X1816480Y196700D03*
X1816480Y203200D03*
X1816480Y209700D03*
D36*
X1760380Y174600D03*
X1760380Y155600D03*
X1781380Y165100D03*
D14*
X1855080Y203200D03*
X1838080Y203200D03*
X1855080Y184150D03*
X1838080Y184150D03*
D35*
X1800480Y171600D03*
X1800480Y165100D03*
X1800480Y158600D03*
X1816480Y158600D03*
X1816480Y165100D03*
X1816480Y171600D03*
D36*
X1760380Y136500D03*
X1760380Y117500D03*
X1781380Y127000D03*
D14*
X1855080Y165100D03*
X1838080Y165100D03*
X1855080Y146050D03*
X1838080Y146050D03*
D42*
X1648580Y91413D03*
X1653580Y111788D03*
X1648580Y111788D03*
X1658580Y111788D03*
X1663580Y111788D03*
X1653580Y91413D03*
X1658580Y91413D03*
X1663580Y91413D03*
D43*
X1659480Y101600D03*
X1652680Y101600D03*
D10*
X1732280Y118500D03*
X1732280Y135500D03*
X1960880Y59300D03*
X1960880Y42300D03*
D14*
X1736480Y374650D03*
X1753480Y374650D03*
D23*
X1810780Y374650D03*
X1780780Y374650D03*
D10*
X12700Y1139580D03*
X12700Y1156580D03*
X38100Y1139580D03*
X38100Y1156580D03*
D11*
X11400Y1071880D03*
X39400Y1071880D03*
D12*
X340360Y1106180D03*
X289560Y1106180D03*
X238760Y1106180D03*
X365760Y1139180D03*
X314960Y1139180D03*
X264160Y1139180D03*
X213360Y1139180D03*
X187960Y1139180D03*
X213360Y1106180D03*
X238760Y1139180D03*
X264160Y1106180D03*
X289560Y1139180D03*
X314960Y1106180D03*
X340360Y1139180D03*
X365760Y1106180D03*
X187960Y1106180D03*
X391160Y1139180D03*
X416560Y1139180D03*
X391160Y1106180D03*
X416560Y1106180D03*
D13*
X304600Y623480D03*
X304800Y656480D03*
X279200Y623480D03*
X279400Y656480D03*
X330100Y623480D03*
X330300Y656480D03*
X355400Y623480D03*
X355600Y656480D03*
X380800Y623480D03*
X381000Y656480D03*
X406300Y623480D03*
X406500Y656480D03*
X457000Y623480D03*
X457200Y656480D03*
X431600Y623480D03*
X431800Y656480D03*
X609800Y1139280D03*
X609600Y1106280D03*
X635200Y1139280D03*
X635000Y1106280D03*
X584300Y1139280D03*
X584100Y1106280D03*
X559000Y1139280D03*
X558800Y1106280D03*
X533600Y1139280D03*
X533400Y1106280D03*
X508100Y1139280D03*
X507900Y1106280D03*
X457400Y1139280D03*
X457200Y1106280D03*
X482800Y1139280D03*
X482600Y1106280D03*
D12*
X609600Y623580D03*
X558800Y623580D03*
X508000Y623580D03*
X635000Y656580D03*
X584200Y656580D03*
X533400Y656580D03*
X508000Y656580D03*
X533400Y623580D03*
X558800Y656580D03*
X584200Y623580D03*
X609600Y656580D03*
X635000Y623580D03*
D10*
X63500Y1069730D03*
X63500Y1086730D03*
D14*
X258200Y989330D03*
X275200Y989330D03*
X135500Y1084580D03*
X118500Y1084580D03*
X258200Y1014730D03*
X275200Y1014730D03*
D15*
X60100Y1000880D03*
X60100Y1005880D03*
D16*
X60100Y976130D03*
X60100Y983880D03*
D15*
X60100Y990880D03*
X60100Y995880D03*
X60100Y1015880D03*
X60100Y1010880D03*
D16*
X60100Y1040630D03*
X60100Y1032880D03*
D15*
X60100Y1025880D03*
X60100Y1020880D03*
D17*
X99000Y1052830D03*
X99000Y1040130D03*
X99000Y1027430D03*
X99000Y1014730D03*
X99000Y1002030D03*
X99000Y989330D03*
X99000Y976630D03*
X99000Y963930D03*
X155000Y963930D03*
X155000Y976630D03*
X155000Y989330D03*
X155000Y1002030D03*
X155000Y1014730D03*
X155000Y1027430D03*
X155000Y1040130D03*
X155000Y1052830D03*
D14*
X87240Y949960D03*
X70240Y949960D03*
D10*
X82550Y1086730D03*
X82550Y1069730D03*
D18*
X10400Y1109980D03*
X40400Y1109980D03*
D10*
X444500Y978780D03*
X444500Y961780D03*
X393700Y961780D03*
X393700Y978780D03*
D19*
X412600Y961080D03*
X419100Y979480D03*
X425600Y979480D03*
X412600Y979480D03*
X419100Y961080D03*
X425600Y961080D03*
D20*
X480060Y1040130D03*
X535940Y1040130D03*
X480060Y1002030D03*
X535940Y1002030D03*
D21*
X129600Y1159430D03*
X73600Y1159430D03*
D22*
X116600Y1122680D03*
X106600Y1122680D03*
X96600Y1122680D03*
X86600Y1122680D03*
D14*
X563000Y970280D03*
X580000Y970280D03*
X563000Y995680D03*
X580000Y995680D03*
X601100Y970280D03*
X618100Y970280D03*
X601100Y995680D03*
X618100Y995680D03*
D20*
X391160Y1040130D03*
X447040Y1040130D03*
X391160Y1002030D03*
X447040Y1002030D03*
D23*
X332500Y1014730D03*
X302500Y1014730D03*
X332500Y989330D03*
X302500Y989330D03*
X332500Y1040130D03*
X302500Y1040130D03*
D14*
X258200Y1040130D03*
X275200Y1040130D03*
D24*
X610400Y912960D03*
X597700Y912960D03*
X585000Y912960D03*
X572300Y912960D03*
X559600Y912960D03*
X546900Y912960D03*
X534200Y912960D03*
X521500Y912960D03*
X508800Y912960D03*
X496100Y912960D03*
X483400Y912960D03*
X470700Y912960D03*
X458000Y912960D03*
X445300Y912960D03*
D25*
X430400Y887730D03*
X430400Y875030D03*
X430400Y862330D03*
X430400Y849630D03*
X430400Y836930D03*
X430400Y824230D03*
X430400Y811530D03*
X430400Y798830D03*
X430400Y786130D03*
X430400Y773430D03*
D24*
X445300Y748200D03*
X458000Y748200D03*
X470700Y748200D03*
X483400Y748200D03*
X496100Y748200D03*
X508800Y748200D03*
X521500Y748200D03*
X534200Y748200D03*
X546900Y748200D03*
X559600Y748200D03*
X572300Y748200D03*
X585000Y748200D03*
X597700Y748200D03*
X610400Y748200D03*
D26*
X536980Y845890D03*
X555190Y827440D03*
X555190Y845740D03*
X555190Y864040D03*
X536890Y864040D03*
X537190Y827340D03*
X518590Y827440D03*
X518490Y845740D03*
X518590Y864040D03*
D14*
X618100Y1021080D03*
X601100Y1021080D03*
X563000Y1021080D03*
X580000Y1021080D03*
D27*
X145640Y861830D03*
X145640Y850830D03*
X145640Y839830D03*
X145640Y872830D03*
X145640Y883830D03*
X145640Y894830D03*
X145640Y905830D03*
X145640Y916830D03*
X145640Y927830D03*
D28*
X44640Y784830D03*
X44640Y939830D03*
D11*
X140640Y793830D03*
D29*
X139640Y939830D03*
D11*
X201900Y894080D03*
X229900Y894080D03*
D10*
X228600Y940680D03*
X228600Y923680D03*
D30*
X191900Y767080D03*
X239900Y767080D03*
D10*
X177800Y940680D03*
X177800Y923680D03*
X203200Y923680D03*
X203200Y940680D03*
D31*
X139700Y720180D03*
X139700Y763180D03*
D32*
X20320Y758040D03*
X20320Y644040D03*
X81320Y758040D03*
X81320Y644040D03*
D33*
X184912Y866394D03*
X184912Y843280D03*
X184912Y820166D03*
D34*
X246890Y843280D03*
D35*
X322200Y913280D03*
X322200Y906780D03*
X322200Y900280D03*
X338200Y900280D03*
X338200Y906780D03*
X338200Y913280D03*
D36*
X302100Y897280D03*
X302100Y916280D03*
X281100Y906780D03*
D14*
X376800Y925830D03*
X359800Y925830D03*
X376800Y906780D03*
X359800Y906780D03*
D37*
X339400Y862180D03*
X321000Y868680D03*
X321000Y875180D03*
X321000Y862180D03*
X339400Y868680D03*
X339400Y875180D03*
D14*
X376800Y868680D03*
X359800Y868680D03*
X359800Y887730D03*
X376800Y887730D03*
X359800Y849630D03*
X376800Y849630D03*
D36*
X302100Y859180D03*
X302100Y878180D03*
X281100Y868680D03*
D35*
X322200Y722780D03*
X322200Y716280D03*
X322200Y709780D03*
X338200Y709780D03*
X338200Y716280D03*
X338200Y722780D03*
D36*
X302100Y782980D03*
X302100Y801980D03*
X281100Y792480D03*
D14*
X376800Y716280D03*
X359800Y716280D03*
X414900Y716280D03*
X397900Y716280D03*
D35*
X322200Y837080D03*
X322200Y830580D03*
X322200Y824080D03*
X338200Y824080D03*
X338200Y830580D03*
X338200Y837080D03*
D36*
X302100Y821080D03*
X302100Y840080D03*
X281100Y830580D03*
D14*
X376800Y830580D03*
X359800Y830580D03*
X376800Y811530D03*
X359800Y811530D03*
D10*
X88900Y623180D03*
X88900Y606180D03*
D38*
X37799Y624180D03*
X37799Y614680D03*
X37799Y605180D03*
X63801Y605180D03*
X63801Y624180D03*
D10*
X171450Y1069730D03*
X171450Y1086730D03*
X12700Y606180D03*
X12700Y623180D03*
D39*
X130200Y677879D03*
X139700Y677879D03*
X149200Y677879D03*
X149200Y703881D03*
X130200Y703881D03*
D14*
X245500Y690880D03*
X262500Y690880D03*
D40*
X225900Y664380D03*
X205900Y664380D03*
D41*
X249900Y612380D03*
X181900Y612380D03*
D14*
X275200Y938530D03*
X258200Y938530D03*
X160900Y601980D03*
X143900Y601980D03*
D10*
X114300Y758580D03*
X114300Y775580D03*
D23*
X332500Y938530D03*
X302500Y938530D03*
D35*
X322200Y798980D03*
X322200Y792480D03*
X322200Y785980D03*
X338200Y785980D03*
X338200Y792480D03*
X338200Y798980D03*
D36*
X282100Y763880D03*
X282100Y744880D03*
X303100Y754380D03*
D14*
X376800Y792480D03*
X359800Y792480D03*
X376800Y773430D03*
X359800Y773430D03*
D35*
X322200Y760880D03*
X322200Y754380D03*
X322200Y747880D03*
X338200Y747880D03*
X338200Y754380D03*
X338200Y760880D03*
D36*
X282100Y725780D03*
X282100Y706780D03*
X303100Y716280D03*
D14*
X376800Y754380D03*
X359800Y754380D03*
X376800Y735330D03*
X359800Y735330D03*
D42*
X170300Y680693D03*
X175300Y701068D03*
X170300Y701068D03*
X180300Y701068D03*
X185300Y701068D03*
X175300Y680693D03*
X180300Y680693D03*
X185300Y680693D03*
D43*
X181200Y690880D03*
X174400Y690880D03*
D10*
X254000Y707780D03*
X254000Y724780D03*
X482600Y648580D03*
X482600Y631580D03*
D14*
X258200Y963930D03*
X275200Y963930D03*
D23*
X332500Y963930D03*
X302500Y963930D03*
D10*
X751840Y1139580D03*
X751840Y1156580D03*
X777240Y1139580D03*
X777240Y1156580D03*
D11*
X750540Y1071880D03*
X778540Y1071880D03*
D12*
X1079500Y1106180D03*
X1028700Y1106180D03*
X977900Y1106180D03*
X1104900Y1139180D03*
X1054100Y1139180D03*
X1003300Y1139180D03*
X952500Y1139180D03*
X927100Y1139180D03*
X952500Y1106180D03*
X977900Y1139180D03*
X1003300Y1106180D03*
X1028700Y1139180D03*
X1054100Y1106180D03*
X1079500Y1139180D03*
X1104900Y1106180D03*
X927100Y1106180D03*
X1130300Y1139180D03*
X1155700Y1139180D03*
X1130300Y1106180D03*
X1155700Y1106180D03*
D13*
X1043740Y623480D03*
X1043940Y656480D03*
X1018340Y623480D03*
X1018540Y656480D03*
X1069240Y623480D03*
X1069440Y656480D03*
X1094540Y623480D03*
X1094740Y656480D03*
X1119940Y623480D03*
X1120140Y656480D03*
X1145440Y623480D03*
X1145640Y656480D03*
X1196140Y623480D03*
X1196340Y656480D03*
X1170740Y623480D03*
X1170940Y656480D03*
X1348940Y1139280D03*
X1348740Y1106280D03*
X1374340Y1139280D03*
X1374140Y1106280D03*
X1323440Y1139280D03*
X1323240Y1106280D03*
X1298140Y1139280D03*
X1297940Y1106280D03*
X1272740Y1139280D03*
X1272540Y1106280D03*
X1247240Y1139280D03*
X1247040Y1106280D03*
X1196540Y1139280D03*
X1196340Y1106280D03*
X1221940Y1139280D03*
X1221740Y1106280D03*
D12*
X1348740Y623580D03*
X1297940Y623580D03*
X1247140Y623580D03*
X1374140Y656580D03*
X1323340Y656580D03*
X1272540Y656580D03*
X1247140Y656580D03*
X1272540Y623580D03*
X1297940Y656580D03*
X1323340Y623580D03*
X1348740Y656580D03*
X1374140Y623580D03*
D10*
X802640Y1069730D03*
X802640Y1086730D03*
D14*
X997340Y989330D03*
X1014340Y989330D03*
X874640Y1084580D03*
X857640Y1084580D03*
X997340Y1014730D03*
X1014340Y1014730D03*
D15*
X799240Y1000880D03*
X799240Y1005880D03*
D16*
X799240Y976130D03*
X799240Y983880D03*
D15*
X799240Y990880D03*
X799240Y995880D03*
X799240Y1015880D03*
X799240Y1010880D03*
D16*
X799240Y1040630D03*
X799240Y1032880D03*
D15*
X799240Y1025880D03*
X799240Y1020880D03*
D17*
X838140Y1052830D03*
X838140Y1040130D03*
X838140Y1027430D03*
X838140Y1014730D03*
X838140Y1002030D03*
X838140Y989330D03*
X838140Y976630D03*
X838140Y963930D03*
X894140Y963930D03*
X894140Y976630D03*
X894140Y989330D03*
X894140Y1002030D03*
X894140Y1014730D03*
X894140Y1027430D03*
X894140Y1040130D03*
X894140Y1052830D03*
D14*
X826380Y949960D03*
X809380Y949960D03*
D10*
X821690Y1086730D03*
X821690Y1069730D03*
D18*
X749540Y1109980D03*
X779540Y1109980D03*
D10*
X1183640Y978780D03*
X1183640Y961780D03*
X1132840Y961780D03*
X1132840Y978780D03*
D19*
X1151740Y961080D03*
X1158240Y979480D03*
X1164740Y979480D03*
X1151740Y979480D03*
X1158240Y961080D03*
X1164740Y961080D03*
D20*
X1219200Y1040130D03*
X1275080Y1040130D03*
X1219200Y1002030D03*
X1275080Y1002030D03*
D21*
X868740Y1159430D03*
X812740Y1159430D03*
D22*
X855740Y1122680D03*
X845740Y1122680D03*
X835740Y1122680D03*
X825740Y1122680D03*
D14*
X1302140Y970280D03*
X1319140Y970280D03*
X1302140Y995680D03*
X1319140Y995680D03*
X1340240Y970280D03*
X1357240Y970280D03*
X1340240Y995680D03*
X1357240Y995680D03*
D20*
X1130300Y1040130D03*
X1186180Y1040130D03*
X1130300Y1002030D03*
X1186180Y1002030D03*
D23*
X1071640Y1014730D03*
X1041640Y1014730D03*
X1071640Y989330D03*
X1041640Y989330D03*
X1071640Y1040130D03*
X1041640Y1040130D03*
D14*
X997340Y1040130D03*
X1014340Y1040130D03*
D24*
X1349540Y912960D03*
X1336840Y912960D03*
X1324140Y912960D03*
X1311440Y912960D03*
X1298740Y912960D03*
X1286040Y912960D03*
X1273340Y912960D03*
X1260640Y912960D03*
X1247940Y912960D03*
X1235240Y912960D03*
X1222540Y912960D03*
X1209840Y912960D03*
X1197140Y912960D03*
X1184440Y912960D03*
D25*
X1169540Y887730D03*
X1169540Y875030D03*
X1169540Y862330D03*
X1169540Y849630D03*
X1169540Y836930D03*
X1169540Y824230D03*
X1169540Y811530D03*
X1169540Y798830D03*
X1169540Y786130D03*
X1169540Y773430D03*
D24*
X1184440Y748200D03*
X1197140Y748200D03*
X1209840Y748200D03*
X1222540Y748200D03*
X1235240Y748200D03*
X1247940Y748200D03*
X1260640Y748200D03*
X1273340Y748200D03*
X1286040Y748200D03*
X1298740Y748200D03*
X1311440Y748200D03*
X1324140Y748200D03*
X1336840Y748200D03*
X1349540Y748200D03*
D26*
X1276120Y845890D03*
X1294330Y827440D03*
X1294330Y845740D03*
X1294330Y864040D03*
X1276030Y864040D03*
X1276330Y827340D03*
X1257730Y827440D03*
X1257630Y845740D03*
X1257730Y864040D03*
D14*
X1357240Y1021080D03*
X1340240Y1021080D03*
X1302140Y1021080D03*
X1319140Y1021080D03*
D27*
X884780Y861830D03*
X884780Y850830D03*
X884780Y839830D03*
X884780Y872830D03*
X884780Y883830D03*
X884780Y894830D03*
X884780Y905830D03*
X884780Y916830D03*
X884780Y927830D03*
D28*
X783780Y784830D03*
X783780Y939830D03*
D11*
X879780Y793830D03*
D29*
X878780Y939830D03*
D11*
X941040Y894080D03*
X969040Y894080D03*
D10*
X967740Y940680D03*
X967740Y923680D03*
D30*
X931040Y767080D03*
X979040Y767080D03*
D10*
X916940Y940680D03*
X916940Y923680D03*
X942340Y923680D03*
X942340Y940680D03*
D31*
X878840Y720180D03*
X878840Y763180D03*
D32*
X759460Y758040D03*
X759460Y644040D03*
X820460Y758040D03*
X820460Y644040D03*
D33*
X924052Y866394D03*
X924052Y843280D03*
X924052Y820166D03*
D34*
X986030Y843280D03*
D35*
X1061340Y913280D03*
X1061340Y906780D03*
X1061340Y900280D03*
X1077340Y900280D03*
X1077340Y906780D03*
X1077340Y913280D03*
D36*
X1041240Y897280D03*
X1041240Y916280D03*
X1020240Y906780D03*
D14*
X1115940Y925830D03*
X1098940Y925830D03*
X1115940Y906780D03*
X1098940Y906780D03*
D37*
X1078540Y862180D03*
X1060140Y868680D03*
X1060140Y875180D03*
X1060140Y862180D03*
X1078540Y868680D03*
X1078540Y875180D03*
D14*
X1115940Y868680D03*
X1098940Y868680D03*
X1098940Y887730D03*
X1115940Y887730D03*
X1098940Y849630D03*
X1115940Y849630D03*
D36*
X1041240Y859180D03*
X1041240Y878180D03*
X1020240Y868680D03*
D35*
X1061340Y722780D03*
X1061340Y716280D03*
X1061340Y709780D03*
X1077340Y709780D03*
X1077340Y716280D03*
X1077340Y722780D03*
D36*
X1041240Y782980D03*
X1041240Y801980D03*
X1020240Y792480D03*
D14*
X1115940Y716280D03*
X1098940Y716280D03*
X1154040Y716280D03*
X1137040Y716280D03*
D35*
X1061340Y837080D03*
X1061340Y830580D03*
X1061340Y824080D03*
X1077340Y824080D03*
X1077340Y830580D03*
X1077340Y837080D03*
D36*
X1041240Y821080D03*
X1041240Y840080D03*
X1020240Y830580D03*
D14*
X1115940Y830580D03*
X1098940Y830580D03*
X1115940Y811530D03*
X1098940Y811530D03*
D10*
X828040Y623180D03*
X828040Y606180D03*
D38*
X776939Y624180D03*
X776939Y614680D03*
X776939Y605180D03*
X802941Y605180D03*
X802941Y624180D03*
D10*
X910590Y1069730D03*
X910590Y1086730D03*
X751840Y606180D03*
X751840Y623180D03*
D39*
X869340Y677879D03*
X878840Y677879D03*
X888340Y677879D03*
X888340Y703881D03*
X869340Y703881D03*
D14*
X984640Y690880D03*
X1001640Y690880D03*
D40*
X965040Y664380D03*
X945040Y664380D03*
D41*
X989040Y612380D03*
X921040Y612380D03*
D14*
X1014340Y938530D03*
X997340Y938530D03*
X900040Y601980D03*
X883040Y601980D03*
D10*
X853440Y758580D03*
X853440Y775580D03*
D23*
X1071640Y938530D03*
X1041640Y938530D03*
D35*
X1061340Y798980D03*
X1061340Y792480D03*
X1061340Y785980D03*
X1077340Y785980D03*
X1077340Y792480D03*
X1077340Y798980D03*
D36*
X1021240Y763880D03*
X1021240Y744880D03*
X1042240Y754380D03*
D14*
X1115940Y792480D03*
X1098940Y792480D03*
X1115940Y773430D03*
X1098940Y773430D03*
D35*
X1061340Y760880D03*
X1061340Y754380D03*
X1061340Y747880D03*
X1077340Y747880D03*
X1077340Y754380D03*
X1077340Y760880D03*
D36*
X1021240Y725780D03*
X1021240Y706780D03*
X1042240Y716280D03*
D14*
X1115940Y754380D03*
X1098940Y754380D03*
X1115940Y735330D03*
X1098940Y735330D03*
D42*
X909440Y680693D03*
X914440Y701068D03*
X909440Y701068D03*
X919440Y701068D03*
X924440Y701068D03*
X914440Y680693D03*
X919440Y680693D03*
X924440Y680693D03*
D43*
X920340Y690880D03*
X913540Y690880D03*
D10*
X993140Y707780D03*
X993140Y724780D03*
X1221740Y648580D03*
X1221740Y631580D03*
D14*
X997340Y963930D03*
X1014340Y963930D03*
D23*
X1071640Y963930D03*
X1041640Y963930D03*
D10*
X1490980Y1139580D03*
X1490980Y1156580D03*
X1516380Y1139580D03*
X1516380Y1156580D03*
D11*
X1489680Y1071880D03*
X1517680Y1071880D03*
D12*
X1818640Y1106180D03*
X1767840Y1106180D03*
X1717040Y1106180D03*
X1844040Y1139180D03*
X1793240Y1139180D03*
X1742440Y1139180D03*
X1691640Y1139180D03*
X1666240Y1139180D03*
X1691640Y1106180D03*
X1717040Y1139180D03*
X1742440Y1106180D03*
X1767840Y1139180D03*
X1793240Y1106180D03*
X1818640Y1139180D03*
X1844040Y1106180D03*
X1666240Y1106180D03*
X1869440Y1139180D03*
X1894840Y1139180D03*
X1869440Y1106180D03*
X1894840Y1106180D03*
D13*
X1782880Y623480D03*
X1783080Y656480D03*
X1757480Y623480D03*
X1757680Y656480D03*
X1808380Y623480D03*
X1808580Y656480D03*
X1833680Y623480D03*
X1833880Y656480D03*
X1859080Y623480D03*
X1859280Y656480D03*
X1884580Y623480D03*
X1884780Y656480D03*
X1935280Y623480D03*
X1935480Y656480D03*
X1909880Y623480D03*
X1910080Y656480D03*
X2088080Y1139280D03*
X2087880Y1106280D03*
X2113480Y1139280D03*
X2113280Y1106280D03*
X2062580Y1139280D03*
X2062380Y1106280D03*
X2037280Y1139280D03*
X2037080Y1106280D03*
X2011880Y1139280D03*
X2011680Y1106280D03*
X1986380Y1139280D03*
X1986180Y1106280D03*
X1935680Y1139280D03*
X1935480Y1106280D03*
X1961080Y1139280D03*
X1960880Y1106280D03*
D12*
X2087880Y623580D03*
X2037080Y623580D03*
X1986280Y623580D03*
X2113280Y656580D03*
X2062480Y656580D03*
X2011680Y656580D03*
X1986280Y656580D03*
X2011680Y623580D03*
X2037080Y656580D03*
X2062480Y623580D03*
X2087880Y656580D03*
X2113280Y623580D03*
D10*
X1541780Y1069730D03*
X1541780Y1086730D03*
D14*
X1736480Y989330D03*
X1753480Y989330D03*
X1613780Y1084580D03*
X1596780Y1084580D03*
X1736480Y1014730D03*
X1753480Y1014730D03*
D15*
X1538380Y1000880D03*
X1538380Y1005880D03*
D16*
X1538380Y976130D03*
X1538380Y983880D03*
D15*
X1538380Y990880D03*
X1538380Y995880D03*
X1538380Y1015880D03*
X1538380Y1010880D03*
D16*
X1538380Y1040630D03*
X1538380Y1032880D03*
D15*
X1538380Y1025880D03*
X1538380Y1020880D03*
D17*
X1577280Y1052830D03*
X1577280Y1040130D03*
X1577280Y1027430D03*
X1577280Y1014730D03*
X1577280Y1002030D03*
X1577280Y989330D03*
X1577280Y976630D03*
X1577280Y963930D03*
X1633280Y963930D03*
X1633280Y976630D03*
X1633280Y989330D03*
X1633280Y1002030D03*
X1633280Y1014730D03*
X1633280Y1027430D03*
X1633280Y1040130D03*
X1633280Y1052830D03*
D14*
X1565520Y949960D03*
X1548520Y949960D03*
D10*
X1560830Y1086730D03*
X1560830Y1069730D03*
D18*
X1488680Y1109980D03*
X1518680Y1109980D03*
D10*
X1922780Y978780D03*
X1922780Y961780D03*
X1871980Y961780D03*
X1871980Y978780D03*
D19*
X1890880Y961080D03*
X1897380Y979480D03*
X1903880Y979480D03*
X1890880Y979480D03*
X1897380Y961080D03*
X1903880Y961080D03*
D20*
X1958340Y1040130D03*
X2014220Y1040130D03*
X1958340Y1002030D03*
X2014220Y1002030D03*
D21*
X1607880Y1159430D03*
X1551880Y1159430D03*
D22*
X1594880Y1122680D03*
X1584880Y1122680D03*
X1574880Y1122680D03*
X1564880Y1122680D03*
D14*
X2041280Y970280D03*
X2058280Y970280D03*
X2041280Y995680D03*
X2058280Y995680D03*
X2079380Y970280D03*
X2096380Y970280D03*
X2079380Y995680D03*
X2096380Y995680D03*
D20*
X1869440Y1040130D03*
X1925320Y1040130D03*
X1869440Y1002030D03*
X1925320Y1002030D03*
D23*
X1810780Y1014730D03*
X1780780Y1014730D03*
X1810780Y989330D03*
X1780780Y989330D03*
X1810780Y1040130D03*
X1780780Y1040130D03*
D14*
X1736480Y1040130D03*
X1753480Y1040130D03*
D24*
X2088680Y912960D03*
X2075980Y912960D03*
X2063280Y912960D03*
X2050580Y912960D03*
X2037880Y912960D03*
X2025180Y912960D03*
X2012480Y912960D03*
X1999780Y912960D03*
X1987080Y912960D03*
X1974380Y912960D03*
X1961680Y912960D03*
X1948980Y912960D03*
X1936280Y912960D03*
X1923580Y912960D03*
D25*
X1908680Y887730D03*
X1908680Y875030D03*
X1908680Y862330D03*
X1908680Y849630D03*
X1908680Y836930D03*
X1908680Y824230D03*
X1908680Y811530D03*
X1908680Y798830D03*
X1908680Y786130D03*
X1908680Y773430D03*
D24*
X1923580Y748200D03*
X1936280Y748200D03*
X1948980Y748200D03*
X1961680Y748200D03*
X1974380Y748200D03*
X1987080Y748200D03*
X1999780Y748200D03*
X2012480Y748200D03*
X2025180Y748200D03*
X2037880Y748200D03*
X2050580Y748200D03*
X2063280Y748200D03*
X2075980Y748200D03*
X2088680Y748200D03*
D26*
X2015260Y845890D03*
X2033470Y827440D03*
X2033470Y845740D03*
X2033470Y864040D03*
X2015170Y864040D03*
X2015470Y827340D03*
X1996870Y827440D03*
X1996770Y845740D03*
X1996870Y864040D03*
D14*
X2096380Y1021080D03*
X2079380Y1021080D03*
X2041280Y1021080D03*
X2058280Y1021080D03*
D27*
X1623920Y861830D03*
X1623920Y850830D03*
X1623920Y839830D03*
X1623920Y872830D03*
X1623920Y883830D03*
X1623920Y894830D03*
X1623920Y905830D03*
X1623920Y916830D03*
X1623920Y927830D03*
D28*
X1522920Y784830D03*
X1522920Y939830D03*
D11*
X1618920Y793830D03*
D29*
X1617920Y939830D03*
D11*
X1680180Y894080D03*
X1708180Y894080D03*
D10*
X1706880Y940680D03*
X1706880Y923680D03*
D30*
X1670180Y767080D03*
X1718180Y767080D03*
D10*
X1656080Y940680D03*
X1656080Y923680D03*
X1681480Y923680D03*
X1681480Y940680D03*
D31*
X1617980Y720180D03*
X1617980Y763180D03*
D32*
X1498600Y758040D03*
X1498600Y644040D03*
X1559600Y758040D03*
X1559600Y644040D03*
D33*
X1663192Y866394D03*
X1663192Y843280D03*
X1663192Y820166D03*
D34*
X1725170Y843280D03*
D35*
X1800480Y913280D03*
X1800480Y906780D03*
X1800480Y900280D03*
X1816480Y900280D03*
X1816480Y906780D03*
X1816480Y913280D03*
D36*
X1780380Y897280D03*
X1780380Y916280D03*
X1759380Y906780D03*
D14*
X1855080Y925830D03*
X1838080Y925830D03*
X1855080Y906780D03*
X1838080Y906780D03*
D37*
X1817680Y862180D03*
X1799280Y868680D03*
X1799280Y875180D03*
X1799280Y862180D03*
X1817680Y868680D03*
X1817680Y875180D03*
D14*
X1855080Y868680D03*
X1838080Y868680D03*
X1838080Y887730D03*
X1855080Y887730D03*
X1838080Y849630D03*
X1855080Y849630D03*
D36*
X1780380Y859180D03*
X1780380Y878180D03*
X1759380Y868680D03*
D35*
X1800480Y722780D03*
X1800480Y716280D03*
X1800480Y709780D03*
X1816480Y709780D03*
X1816480Y716280D03*
X1816480Y722780D03*
D36*
X1780380Y782980D03*
X1780380Y801980D03*
X1759380Y792480D03*
D14*
X1855080Y716280D03*
X1838080Y716280D03*
X1893180Y716280D03*
X1876180Y716280D03*
D35*
X1800480Y837080D03*
X1800480Y830580D03*
X1800480Y824080D03*
X1816480Y824080D03*
X1816480Y830580D03*
X1816480Y837080D03*
D36*
X1780380Y821080D03*
X1780380Y840080D03*
X1759380Y830580D03*
D14*
X1855080Y830580D03*
X1838080Y830580D03*
X1855080Y811530D03*
X1838080Y811530D03*
D10*
X1567180Y623180D03*
X1567180Y606180D03*
D38*
X1516079Y624180D03*
X1516079Y614680D03*
X1516079Y605180D03*
X1542081Y605180D03*
X1542081Y624180D03*
D10*
X1649730Y1069730D03*
X1649730Y1086730D03*
X1490980Y606180D03*
X1490980Y623180D03*
D39*
X1608480Y677879D03*
X1617980Y677879D03*
X1627480Y677879D03*
X1627480Y703881D03*
X1608480Y703881D03*
D14*
X1723780Y690880D03*
X1740780Y690880D03*
D40*
X1704180Y664380D03*
X1684180Y664380D03*
D41*
X1728180Y612380D03*
X1660180Y612380D03*
D14*
X1753480Y938530D03*
X1736480Y938530D03*
X1639180Y601980D03*
X1622180Y601980D03*
D10*
X1592580Y758580D03*
X1592580Y775580D03*
D23*
X1810780Y938530D03*
X1780780Y938530D03*
D35*
X1800480Y798980D03*
X1800480Y792480D03*
X1800480Y785980D03*
X1816480Y785980D03*
X1816480Y792480D03*
X1816480Y798980D03*
D36*
X1760380Y763880D03*
X1760380Y744880D03*
X1781380Y754380D03*
D14*
X1855080Y792480D03*
X1838080Y792480D03*
X1855080Y773430D03*
X1838080Y773430D03*
D35*
X1800480Y760880D03*
X1800480Y754380D03*
X1800480Y747880D03*
X1816480Y747880D03*
X1816480Y754380D03*
X1816480Y760880D03*
D36*
X1760380Y725780D03*
X1760380Y706780D03*
X1781380Y716280D03*
D14*
X1855080Y754380D03*
X1838080Y754380D03*
X1855080Y735330D03*
X1838080Y735330D03*
D42*
X1648580Y680693D03*
X1653580Y701068D03*
X1648580Y701068D03*
X1658580Y701068D03*
X1663580Y701068D03*
X1653580Y680693D03*
X1658580Y680693D03*
X1663580Y680693D03*
D43*
X1659480Y690880D03*
X1652680Y690880D03*
D10*
X1732280Y707780D03*
X1732280Y724780D03*
X1960880Y648580D03*
X1960880Y631580D03*
D14*
X1736480Y963930D03*
X1753480Y963930D03*
D23*
X1810780Y963930D03*
X1780780Y963930D03*
D10*
X12700Y1728860D03*
X12700Y1745860D03*
X38100Y1728860D03*
X38100Y1745860D03*
D11*
X11400Y1661160D03*
X39400Y1661160D03*
D12*
X340360Y1695460D03*
X289560Y1695460D03*
X238760Y1695460D03*
X365760Y1728460D03*
X314960Y1728460D03*
X264160Y1728460D03*
X213360Y1728460D03*
X187960Y1728460D03*
X213360Y1695460D03*
X238760Y1728460D03*
X264160Y1695460D03*
X289560Y1728460D03*
X314960Y1695460D03*
X340360Y1728460D03*
X365760Y1695460D03*
X187960Y1695460D03*
X391160Y1728460D03*
X416560Y1728460D03*
X391160Y1695460D03*
X416560Y1695460D03*
D13*
X304600Y1212760D03*
X304800Y1245760D03*
X279200Y1212760D03*
X279400Y1245760D03*
X330100Y1212760D03*
X330300Y1245760D03*
X355400Y1212760D03*
X355600Y1245760D03*
X380800Y1212760D03*
X381000Y1245760D03*
X406300Y1212760D03*
X406500Y1245760D03*
X457000Y1212760D03*
X457200Y1245760D03*
X431600Y1212760D03*
X431800Y1245760D03*
X609800Y1728560D03*
X609600Y1695560D03*
X635200Y1728560D03*
X635000Y1695560D03*
X584300Y1728560D03*
X584100Y1695560D03*
X559000Y1728560D03*
X558800Y1695560D03*
X533600Y1728560D03*
X533400Y1695560D03*
X508100Y1728560D03*
X507900Y1695560D03*
X457400Y1728560D03*
X457200Y1695560D03*
X482800Y1728560D03*
X482600Y1695560D03*
D12*
X609600Y1212860D03*
X558800Y1212860D03*
X508000Y1212860D03*
X635000Y1245860D03*
X584200Y1245860D03*
X533400Y1245860D03*
X508000Y1245860D03*
X533400Y1212860D03*
X558800Y1245860D03*
X584200Y1212860D03*
X609600Y1245860D03*
X635000Y1212860D03*
D10*
X63500Y1659010D03*
X63500Y1676010D03*
D14*
X258200Y1578610D03*
X275200Y1578610D03*
X135500Y1673860D03*
X118500Y1673860D03*
X258200Y1604010D03*
X275200Y1604010D03*
D15*
X60100Y1590160D03*
X60100Y1595160D03*
D16*
X60100Y1565410D03*
X60100Y1573160D03*
D15*
X60100Y1580160D03*
X60100Y1585160D03*
X60100Y1605160D03*
X60100Y1600160D03*
D16*
X60100Y1629910D03*
X60100Y1622160D03*
D15*
X60100Y1615160D03*
X60100Y1610160D03*
D17*
X99000Y1642110D03*
X99000Y1629410D03*
X99000Y1616710D03*
X99000Y1604010D03*
X99000Y1591310D03*
X99000Y1578610D03*
X99000Y1565910D03*
X99000Y1553210D03*
X155000Y1553210D03*
X155000Y1565910D03*
X155000Y1578610D03*
X155000Y1591310D03*
X155000Y1604010D03*
X155000Y1616710D03*
X155000Y1629410D03*
X155000Y1642110D03*
D14*
X87240Y1539240D03*
X70240Y1539240D03*
D10*
X82550Y1676010D03*
X82550Y1659010D03*
D18*
X10400Y1699260D03*
X40400Y1699260D03*
D10*
X444500Y1568060D03*
X444500Y1551060D03*
X393700Y1551060D03*
X393700Y1568060D03*
D19*
X412600Y1550360D03*
X419100Y1568760D03*
X425600Y1568760D03*
X412600Y1568760D03*
X419100Y1550360D03*
X425600Y1550360D03*
D20*
X480060Y1629410D03*
X535940Y1629410D03*
X480060Y1591310D03*
X535940Y1591310D03*
D21*
X129600Y1748710D03*
X73600Y1748710D03*
D22*
X116600Y1711960D03*
X106600Y1711960D03*
X96600Y1711960D03*
X86600Y1711960D03*
D14*
X563000Y1559560D03*
X580000Y1559560D03*
X563000Y1584960D03*
X580000Y1584960D03*
X601100Y1559560D03*
X618100Y1559560D03*
X601100Y1584960D03*
X618100Y1584960D03*
D20*
X391160Y1629410D03*
X447040Y1629410D03*
X391160Y1591310D03*
X447040Y1591310D03*
D23*
X332500Y1604010D03*
X302500Y1604010D03*
X332500Y1578610D03*
X302500Y1578610D03*
X332500Y1629410D03*
X302500Y1629410D03*
D14*
X258200Y1629410D03*
X275200Y1629410D03*
D24*
X610400Y1502240D03*
X597700Y1502240D03*
X585000Y1502240D03*
X572300Y1502240D03*
X559600Y1502240D03*
X546900Y1502240D03*
X534200Y1502240D03*
X521500Y1502240D03*
X508800Y1502240D03*
X496100Y1502240D03*
X483400Y1502240D03*
X470700Y1502240D03*
X458000Y1502240D03*
X445300Y1502240D03*
D25*
X430400Y1477010D03*
X430400Y1464310D03*
X430400Y1451610D03*
X430400Y1438910D03*
X430400Y1426210D03*
X430400Y1413510D03*
X430400Y1400810D03*
X430400Y1388110D03*
X430400Y1375410D03*
X430400Y1362710D03*
D24*
X445300Y1337480D03*
X458000Y1337480D03*
X470700Y1337480D03*
X483400Y1337480D03*
X496100Y1337480D03*
X508800Y1337480D03*
X521500Y1337480D03*
X534200Y1337480D03*
X546900Y1337480D03*
X559600Y1337480D03*
X572300Y1337480D03*
X585000Y1337480D03*
X597700Y1337480D03*
X610400Y1337480D03*
D26*
X536980Y1435170D03*
X555190Y1416720D03*
X555190Y1435020D03*
X555190Y1453320D03*
X536890Y1453320D03*
X537190Y1416620D03*
X518590Y1416720D03*
X518490Y1435020D03*
X518590Y1453320D03*
D14*
X618100Y1610360D03*
X601100Y1610360D03*
X563000Y1610360D03*
X580000Y1610360D03*
D27*
X145640Y1451110D03*
X145640Y1440110D03*
X145640Y1429110D03*
X145640Y1462110D03*
X145640Y1473110D03*
X145640Y1484110D03*
X145640Y1495110D03*
X145640Y1506110D03*
X145640Y1517110D03*
D28*
X44640Y1374110D03*
X44640Y1529110D03*
D11*
X140640Y1383110D03*
D29*
X139640Y1529110D03*
D11*
X201900Y1483360D03*
X229900Y1483360D03*
D10*
X228600Y1529960D03*
X228600Y1512960D03*
D30*
X191900Y1356360D03*
X239900Y1356360D03*
D10*
X177800Y1529960D03*
X177800Y1512960D03*
X203200Y1512960D03*
X203200Y1529960D03*
D31*
X139700Y1309460D03*
X139700Y1352460D03*
D32*
X20320Y1347320D03*
X20320Y1233320D03*
X81320Y1347320D03*
X81320Y1233320D03*
D33*
X184912Y1455674D03*
X184912Y1432560D03*
X184912Y1409446D03*
D34*
X246890Y1432560D03*
D35*
X322200Y1502560D03*
X322200Y1496060D03*
X322200Y1489560D03*
X338200Y1489560D03*
X338200Y1496060D03*
X338200Y1502560D03*
D36*
X302100Y1486560D03*
X302100Y1505560D03*
X281100Y1496060D03*
D14*
X376800Y1515110D03*
X359800Y1515110D03*
X376800Y1496060D03*
X359800Y1496060D03*
D37*
X339400Y1451460D03*
X321000Y1457960D03*
X321000Y1464460D03*
X321000Y1451460D03*
X339400Y1457960D03*
X339400Y1464460D03*
D14*
X376800Y1457960D03*
X359800Y1457960D03*
X359800Y1477010D03*
X376800Y1477010D03*
X359800Y1438910D03*
X376800Y1438910D03*
D36*
X302100Y1448460D03*
X302100Y1467460D03*
X281100Y1457960D03*
D35*
X322200Y1312060D03*
X322200Y1305560D03*
X322200Y1299060D03*
X338200Y1299060D03*
X338200Y1305560D03*
X338200Y1312060D03*
D36*
X302100Y1372260D03*
X302100Y1391260D03*
X281100Y1381760D03*
D14*
X376800Y1305560D03*
X359800Y1305560D03*
X414900Y1305560D03*
X397900Y1305560D03*
D35*
X322200Y1426360D03*
X322200Y1419860D03*
X322200Y1413360D03*
X338200Y1413360D03*
X338200Y1419860D03*
X338200Y1426360D03*
D36*
X302100Y1410360D03*
X302100Y1429360D03*
X281100Y1419860D03*
D14*
X376800Y1419860D03*
X359800Y1419860D03*
X376800Y1400810D03*
X359800Y1400810D03*
D10*
X88900Y1212460D03*
X88900Y1195460D03*
D38*
X37799Y1213460D03*
X37799Y1203960D03*
X37799Y1194460D03*
X63801Y1194460D03*
X63801Y1213460D03*
D10*
X171450Y1659010D03*
X171450Y1676010D03*
X12700Y1195460D03*
X12700Y1212460D03*
D39*
X130200Y1267159D03*
X139700Y1267159D03*
X149200Y1267159D03*
X149200Y1293161D03*
X130200Y1293161D03*
D14*
X245500Y1280160D03*
X262500Y1280160D03*
D40*
X225900Y1253660D03*
X205900Y1253660D03*
D41*
X249900Y1201660D03*
X181900Y1201660D03*
D14*
X275200Y1527810D03*
X258200Y1527810D03*
X160900Y1191260D03*
X143900Y1191260D03*
D10*
X114300Y1347860D03*
X114300Y1364860D03*
D23*
X332500Y1527810D03*
X302500Y1527810D03*
D35*
X322200Y1388260D03*
X322200Y1381760D03*
X322200Y1375260D03*
X338200Y1375260D03*
X338200Y1381760D03*
X338200Y1388260D03*
D36*
X282100Y1353160D03*
X282100Y1334160D03*
X303100Y1343660D03*
D14*
X376800Y1381760D03*
X359800Y1381760D03*
X376800Y1362710D03*
X359800Y1362710D03*
D35*
X322200Y1350160D03*
X322200Y1343660D03*
X322200Y1337160D03*
X338200Y1337160D03*
X338200Y1343660D03*
X338200Y1350160D03*
D36*
X282100Y1315060D03*
X282100Y1296060D03*
X303100Y1305560D03*
D14*
X376800Y1343660D03*
X359800Y1343660D03*
X376800Y1324610D03*
X359800Y1324610D03*
D42*
X170300Y1269973D03*
X175300Y1290348D03*
X170300Y1290348D03*
X180300Y1290348D03*
X185300Y1290348D03*
X175300Y1269973D03*
X180300Y1269973D03*
X185300Y1269973D03*
D43*
X181200Y1280160D03*
X174400Y1280160D03*
D10*
X254000Y1297060D03*
X254000Y1314060D03*
X482600Y1237860D03*
X482600Y1220860D03*
D14*
X258200Y1553210D03*
X275200Y1553210D03*
D23*
X332500Y1553210D03*
X302500Y1553210D03*
D10*
X751840Y1728860D03*
X751840Y1745860D03*
X777240Y1728860D03*
X777240Y1745860D03*
D11*
X750540Y1661160D03*
X778540Y1661160D03*
D12*
X1079500Y1695460D03*
X1028700Y1695460D03*
X977900Y1695460D03*
X1104900Y1728460D03*
X1054100Y1728460D03*
X1003300Y1728460D03*
X952500Y1728460D03*
X927100Y1728460D03*
X952500Y1695460D03*
X977900Y1728460D03*
X1003300Y1695460D03*
X1028700Y1728460D03*
X1054100Y1695460D03*
X1079500Y1728460D03*
X1104900Y1695460D03*
X927100Y1695460D03*
X1130300Y1728460D03*
X1155700Y1728460D03*
X1130300Y1695460D03*
X1155700Y1695460D03*
D13*
X1043740Y1212760D03*
X1043940Y1245760D03*
X1018340Y1212760D03*
X1018540Y1245760D03*
X1069240Y1212760D03*
X1069440Y1245760D03*
X1094540Y1212760D03*
X1094740Y1245760D03*
X1119940Y1212760D03*
X1120140Y1245760D03*
X1145440Y1212760D03*
X1145640Y1245760D03*
X1196140Y1212760D03*
X1196340Y1245760D03*
X1170740Y1212760D03*
X1170940Y1245760D03*
X1348940Y1728560D03*
X1348740Y1695560D03*
X1374340Y1728560D03*
X1374140Y1695560D03*
X1323440Y1728560D03*
X1323240Y1695560D03*
X1298140Y1728560D03*
X1297940Y1695560D03*
X1272740Y1728560D03*
X1272540Y1695560D03*
X1247240Y1728560D03*
X1247040Y1695560D03*
X1196540Y1728560D03*
X1196340Y1695560D03*
X1221940Y1728560D03*
X1221740Y1695560D03*
D12*
X1348740Y1212860D03*
X1297940Y1212860D03*
X1247140Y1212860D03*
X1374140Y1245860D03*
X1323340Y1245860D03*
X1272540Y1245860D03*
X1247140Y1245860D03*
X1272540Y1212860D03*
X1297940Y1245860D03*
X1323340Y1212860D03*
X1348740Y1245860D03*
X1374140Y1212860D03*
D10*
X802640Y1659010D03*
X802640Y1676010D03*
D14*
X997340Y1578610D03*
X1014340Y1578610D03*
X874640Y1673860D03*
X857640Y1673860D03*
X997340Y1604010D03*
X1014340Y1604010D03*
D15*
X799240Y1590160D03*
X799240Y1595160D03*
D16*
X799240Y1565410D03*
X799240Y1573160D03*
D15*
X799240Y1580160D03*
X799240Y1585160D03*
X799240Y1605160D03*
X799240Y1600160D03*
D16*
X799240Y1629910D03*
X799240Y1622160D03*
D15*
X799240Y1615160D03*
X799240Y1610160D03*
D17*
X838140Y1642110D03*
X838140Y1629410D03*
X838140Y1616710D03*
X838140Y1604010D03*
X838140Y1591310D03*
X838140Y1578610D03*
X838140Y1565910D03*
X838140Y1553210D03*
X894140Y1553210D03*
X894140Y1565910D03*
X894140Y1578610D03*
X894140Y1591310D03*
X894140Y1604010D03*
X894140Y1616710D03*
X894140Y1629410D03*
X894140Y1642110D03*
D14*
X826380Y1539240D03*
X809380Y1539240D03*
D10*
X821690Y1676010D03*
X821690Y1659010D03*
D18*
X749540Y1699260D03*
X779540Y1699260D03*
D10*
X1183640Y1568060D03*
X1183640Y1551060D03*
X1132840Y1551060D03*
X1132840Y1568060D03*
D19*
X1151740Y1550360D03*
X1158240Y1568760D03*
X1164740Y1568760D03*
X1151740Y1568760D03*
X1158240Y1550360D03*
X1164740Y1550360D03*
D20*
X1219200Y1629410D03*
X1275080Y1629410D03*
X1219200Y1591310D03*
X1275080Y1591310D03*
D21*
X868740Y1748710D03*
X812740Y1748710D03*
D22*
X855740Y1711960D03*
X845740Y1711960D03*
X835740Y1711960D03*
X825740Y1711960D03*
D14*
X1302140Y1559560D03*
X1319140Y1559560D03*
X1302140Y1584960D03*
X1319140Y1584960D03*
X1340240Y1559560D03*
X1357240Y1559560D03*
X1340240Y1584960D03*
X1357240Y1584960D03*
D20*
X1130300Y1629410D03*
X1186180Y1629410D03*
X1130300Y1591310D03*
X1186180Y1591310D03*
D23*
X1071640Y1604010D03*
X1041640Y1604010D03*
X1071640Y1578610D03*
X1041640Y1578610D03*
X1071640Y1629410D03*
X1041640Y1629410D03*
D14*
X997340Y1629410D03*
X1014340Y1629410D03*
D24*
X1349540Y1502240D03*
X1336840Y1502240D03*
X1324140Y1502240D03*
X1311440Y1502240D03*
X1298740Y1502240D03*
X1286040Y1502240D03*
X1273340Y1502240D03*
X1260640Y1502240D03*
X1247940Y1502240D03*
X1235240Y1502240D03*
X1222540Y1502240D03*
X1209840Y1502240D03*
X1197140Y1502240D03*
X1184440Y1502240D03*
D25*
X1169540Y1477010D03*
X1169540Y1464310D03*
X1169540Y1451610D03*
X1169540Y1438910D03*
X1169540Y1426210D03*
X1169540Y1413510D03*
X1169540Y1400810D03*
X1169540Y1388110D03*
X1169540Y1375410D03*
X1169540Y1362710D03*
D24*
X1184440Y1337480D03*
X1197140Y1337480D03*
X1209840Y1337480D03*
X1222540Y1337480D03*
X1235240Y1337480D03*
X1247940Y1337480D03*
X1260640Y1337480D03*
X1273340Y1337480D03*
X1286040Y1337480D03*
X1298740Y1337480D03*
X1311440Y1337480D03*
X1324140Y1337480D03*
X1336840Y1337480D03*
X1349540Y1337480D03*
D26*
X1276120Y1435170D03*
X1294330Y1416720D03*
X1294330Y1435020D03*
X1294330Y1453320D03*
X1276030Y1453320D03*
X1276330Y1416620D03*
X1257730Y1416720D03*
X1257630Y1435020D03*
X1257730Y1453320D03*
D14*
X1357240Y1610360D03*
X1340240Y1610360D03*
X1302140Y1610360D03*
X1319140Y1610360D03*
D27*
X884780Y1451110D03*
X884780Y1440110D03*
X884780Y1429110D03*
X884780Y1462110D03*
X884780Y1473110D03*
X884780Y1484110D03*
X884780Y1495110D03*
X884780Y1506110D03*
X884780Y1517110D03*
D28*
X783780Y1374110D03*
X783780Y1529110D03*
D11*
X879780Y1383110D03*
D29*
X878780Y1529110D03*
D11*
X941040Y1483360D03*
X969040Y1483360D03*
D10*
X967740Y1529960D03*
X967740Y1512960D03*
D30*
X931040Y1356360D03*
X979040Y1356360D03*
D10*
X916940Y1529960D03*
X916940Y1512960D03*
X942340Y1512960D03*
X942340Y1529960D03*
D31*
X878840Y1309460D03*
X878840Y1352460D03*
D32*
X759460Y1347320D03*
X759460Y1233320D03*
X820460Y1347320D03*
X820460Y1233320D03*
D33*
X924052Y1455674D03*
X924052Y1432560D03*
X924052Y1409446D03*
D34*
X986030Y1432560D03*
D35*
X1061340Y1502560D03*
X1061340Y1496060D03*
X1061340Y1489560D03*
X1077340Y1489560D03*
X1077340Y1496060D03*
X1077340Y1502560D03*
D36*
X1041240Y1486560D03*
X1041240Y1505560D03*
X1020240Y1496060D03*
D14*
X1115940Y1515110D03*
X1098940Y1515110D03*
X1115940Y1496060D03*
X1098940Y1496060D03*
D37*
X1078540Y1451460D03*
X1060140Y1457960D03*
X1060140Y1464460D03*
X1060140Y1451460D03*
X1078540Y1457960D03*
X1078540Y1464460D03*
D14*
X1115940Y1457960D03*
X1098940Y1457960D03*
X1098940Y1477010D03*
X1115940Y1477010D03*
X1098940Y1438910D03*
X1115940Y1438910D03*
D36*
X1041240Y1448460D03*
X1041240Y1467460D03*
X1020240Y1457960D03*
D35*
X1061340Y1312060D03*
X1061340Y1305560D03*
X1061340Y1299060D03*
X1077340Y1299060D03*
X1077340Y1305560D03*
X1077340Y1312060D03*
D36*
X1041240Y1372260D03*
X1041240Y1391260D03*
X1020240Y1381760D03*
D14*
X1115940Y1305560D03*
X1098940Y1305560D03*
X1154040Y1305560D03*
X1137040Y1305560D03*
D35*
X1061340Y1426360D03*
X1061340Y1419860D03*
X1061340Y1413360D03*
X1077340Y1413360D03*
X1077340Y1419860D03*
X1077340Y1426360D03*
D36*
X1041240Y1410360D03*
X1041240Y1429360D03*
X1020240Y1419860D03*
D14*
X1115940Y1419860D03*
X1098940Y1419860D03*
X1115940Y1400810D03*
X1098940Y1400810D03*
D10*
X828040Y1212460D03*
X828040Y1195460D03*
D38*
X776939Y1213460D03*
X776939Y1203960D03*
X776939Y1194460D03*
X802941Y1194460D03*
X802941Y1213460D03*
D10*
X910590Y1659010D03*
X910590Y1676010D03*
X751840Y1195460D03*
X751840Y1212460D03*
D39*
X869340Y1267159D03*
X878840Y1267159D03*
X888340Y1267159D03*
X888340Y1293161D03*
X869340Y1293161D03*
D14*
X984640Y1280160D03*
X1001640Y1280160D03*
D40*
X965040Y1253660D03*
X945040Y1253660D03*
D41*
X989040Y1201660D03*
X921040Y1201660D03*
D14*
X1014340Y1527810D03*
X997340Y1527810D03*
X900040Y1191260D03*
X883040Y1191260D03*
D10*
X853440Y1347860D03*
X853440Y1364860D03*
D23*
X1071640Y1527810D03*
X1041640Y1527810D03*
D35*
X1061340Y1388260D03*
X1061340Y1381760D03*
X1061340Y1375260D03*
X1077340Y1375260D03*
X1077340Y1381760D03*
X1077340Y1388260D03*
D36*
X1021240Y1353160D03*
X1021240Y1334160D03*
X1042240Y1343660D03*
D14*
X1115940Y1381760D03*
X1098940Y1381760D03*
X1115940Y1362710D03*
X1098940Y1362710D03*
D35*
X1061340Y1350160D03*
X1061340Y1343660D03*
X1061340Y1337160D03*
X1077340Y1337160D03*
X1077340Y1343660D03*
X1077340Y1350160D03*
D36*
X1021240Y1315060D03*
X1021240Y1296060D03*
X1042240Y1305560D03*
D14*
X1115940Y1343660D03*
X1098940Y1343660D03*
X1115940Y1324610D03*
X1098940Y1324610D03*
D42*
X909440Y1269973D03*
X914440Y1290348D03*
X909440Y1290348D03*
X919440Y1290348D03*
X924440Y1290348D03*
X914440Y1269973D03*
X919440Y1269973D03*
X924440Y1269973D03*
D43*
X920340Y1280160D03*
X913540Y1280160D03*
D10*
X993140Y1297060D03*
X993140Y1314060D03*
X1221740Y1237860D03*
X1221740Y1220860D03*
D14*
X997340Y1553210D03*
X1014340Y1553210D03*
D23*
X1071640Y1553210D03*
X1041640Y1553210D03*
D10*
X1490980Y1728860D03*
X1490980Y1745860D03*
X1516380Y1728860D03*
X1516380Y1745860D03*
D11*
X1489680Y1661160D03*
X1517680Y1661160D03*
D12*
X1818640Y1695460D03*
X1767840Y1695460D03*
X1717040Y1695460D03*
X1844040Y1728460D03*
X1793240Y1728460D03*
X1742440Y1728460D03*
X1691640Y1728460D03*
X1666240Y1728460D03*
X1691640Y1695460D03*
X1717040Y1728460D03*
X1742440Y1695460D03*
X1767840Y1728460D03*
X1793240Y1695460D03*
X1818640Y1728460D03*
X1844040Y1695460D03*
X1666240Y1695460D03*
X1869440Y1728460D03*
X1894840Y1728460D03*
X1869440Y1695460D03*
X1894840Y1695460D03*
D13*
X1782880Y1212760D03*
X1783080Y1245760D03*
X1757480Y1212760D03*
X1757680Y1245760D03*
X1808380Y1212760D03*
X1808580Y1245760D03*
X1833680Y1212760D03*
X1833880Y1245760D03*
X1859080Y1212760D03*
X1859280Y1245760D03*
X1884580Y1212760D03*
X1884780Y1245760D03*
X1935280Y1212760D03*
X1935480Y1245760D03*
X1909880Y1212760D03*
X1910080Y1245760D03*
X2088080Y1728560D03*
X2087880Y1695560D03*
X2113480Y1728560D03*
X2113280Y1695560D03*
X2062580Y1728560D03*
X2062380Y1695560D03*
X2037280Y1728560D03*
X2037080Y1695560D03*
X2011880Y1728560D03*
X2011680Y1695560D03*
X1986380Y1728560D03*
X1986180Y1695560D03*
X1935680Y1728560D03*
X1935480Y1695560D03*
X1961080Y1728560D03*
X1960880Y1695560D03*
D12*
X2087880Y1212860D03*
X2037080Y1212860D03*
X1986280Y1212860D03*
X2113280Y1245860D03*
X2062480Y1245860D03*
X2011680Y1245860D03*
X1986280Y1245860D03*
X2011680Y1212860D03*
X2037080Y1245860D03*
X2062480Y1212860D03*
X2087880Y1245860D03*
X2113280Y1212860D03*
D10*
X1541780Y1659010D03*
X1541780Y1676010D03*
D14*
X1736480Y1578610D03*
X1753480Y1578610D03*
X1613780Y1673860D03*
X1596780Y1673860D03*
X1736480Y1604010D03*
X1753480Y1604010D03*
D15*
X1538380Y1590160D03*
X1538380Y1595160D03*
D16*
X1538380Y1565410D03*
X1538380Y1573160D03*
D15*
X1538380Y1580160D03*
X1538380Y1585160D03*
X1538380Y1605160D03*
X1538380Y1600160D03*
D16*
X1538380Y1629910D03*
X1538380Y1622160D03*
D15*
X1538380Y1615160D03*
X1538380Y1610160D03*
D17*
X1577280Y1642110D03*
X1577280Y1629410D03*
X1577280Y1616710D03*
X1577280Y1604010D03*
X1577280Y1591310D03*
X1577280Y1578610D03*
X1577280Y1565910D03*
X1577280Y1553210D03*
X1633280Y1553210D03*
X1633280Y1565910D03*
X1633280Y1578610D03*
X1633280Y1591310D03*
X1633280Y1604010D03*
X1633280Y1616710D03*
X1633280Y1629410D03*
X1633280Y1642110D03*
D14*
X1565520Y1539240D03*
X1548520Y1539240D03*
D10*
X1560830Y1676010D03*
X1560830Y1659010D03*
D18*
X1488680Y1699260D03*
X1518680Y1699260D03*
D10*
X1922780Y1568060D03*
X1922780Y1551060D03*
X1871980Y1551060D03*
X1871980Y1568060D03*
D19*
X1890880Y1550360D03*
X1897380Y1568760D03*
X1903880Y1568760D03*
X1890880Y1568760D03*
X1897380Y1550360D03*
X1903880Y1550360D03*
D20*
X1958340Y1629410D03*
X2014220Y1629410D03*
X1958340Y1591310D03*
X2014220Y1591310D03*
D21*
X1607880Y1748710D03*
X1551880Y1748710D03*
D22*
X1594880Y1711960D03*
X1584880Y1711960D03*
X1574880Y1711960D03*
X1564880Y1711960D03*
D14*
X2041280Y1559560D03*
X2058280Y1559560D03*
X2041280Y1584960D03*
X2058280Y1584960D03*
X2079380Y1559560D03*
X2096380Y1559560D03*
X2079380Y1584960D03*
X2096380Y1584960D03*
D20*
X1869440Y1629410D03*
X1925320Y1629410D03*
X1869440Y1591310D03*
X1925320Y1591310D03*
D23*
X1810780Y1604010D03*
X1780780Y1604010D03*
X1810780Y1578610D03*
X1780780Y1578610D03*
X1810780Y1629410D03*
X1780780Y1629410D03*
D14*
X1736480Y1629410D03*
X1753480Y1629410D03*
D24*
X2088680Y1502240D03*
X2075980Y1502240D03*
X2063280Y1502240D03*
X2050580Y1502240D03*
X2037880Y1502240D03*
X2025180Y1502240D03*
X2012480Y1502240D03*
X1999780Y1502240D03*
X1987080Y1502240D03*
X1974380Y1502240D03*
X1961680Y1502240D03*
X1948980Y1502240D03*
X1936280Y1502240D03*
X1923580Y1502240D03*
D25*
X1908680Y1477010D03*
X1908680Y1464310D03*
X1908680Y1451610D03*
X1908680Y1438910D03*
X1908680Y1426210D03*
X1908680Y1413510D03*
X1908680Y1400810D03*
X1908680Y1388110D03*
X1908680Y1375410D03*
X1908680Y1362710D03*
D24*
X1923580Y1337480D03*
X1936280Y1337480D03*
X1948980Y1337480D03*
X1961680Y1337480D03*
X1974380Y1337480D03*
X1987080Y1337480D03*
X1999780Y1337480D03*
X2012480Y1337480D03*
X2025180Y1337480D03*
X2037880Y1337480D03*
X2050580Y1337480D03*
X2063280Y1337480D03*
X2075980Y1337480D03*
X2088680Y1337480D03*
D26*
X2015260Y1435170D03*
X2033470Y1416720D03*
X2033470Y1435020D03*
X2033470Y1453320D03*
X2015170Y1453320D03*
X2015470Y1416620D03*
X1996870Y1416720D03*
X1996770Y1435020D03*
X1996870Y1453320D03*
D14*
X2096380Y1610360D03*
X2079380Y1610360D03*
X2041280Y1610360D03*
X2058280Y1610360D03*
D27*
X1623920Y1451110D03*
X1623920Y1440110D03*
X1623920Y1429110D03*
X1623920Y1462110D03*
X1623920Y1473110D03*
X1623920Y1484110D03*
X1623920Y1495110D03*
X1623920Y1506110D03*
X1623920Y1517110D03*
D28*
X1522920Y1374110D03*
X1522920Y1529110D03*
D11*
X1618920Y1383110D03*
D29*
X1617920Y1529110D03*
D11*
X1680180Y1483360D03*
X1708180Y1483360D03*
D10*
X1706880Y1529960D03*
X1706880Y1512960D03*
D30*
X1670180Y1356360D03*
X1718180Y1356360D03*
D10*
X1656080Y1529960D03*
X1656080Y1512960D03*
X1681480Y1512960D03*
X1681480Y1529960D03*
D31*
X1617980Y1309460D03*
X1617980Y1352460D03*
D32*
X1498600Y1347320D03*
X1498600Y1233320D03*
X1559600Y1347320D03*
X1559600Y1233320D03*
D33*
X1663192Y1455674D03*
X1663192Y1432560D03*
X1663192Y1409446D03*
D34*
X1725170Y1432560D03*
D35*
X1800480Y1502560D03*
X1800480Y1496060D03*
X1800480Y1489560D03*
X1816480Y1489560D03*
X1816480Y1496060D03*
X1816480Y1502560D03*
D36*
X1780380Y1486560D03*
X1780380Y1505560D03*
X1759380Y1496060D03*
D14*
X1855080Y1515110D03*
X1838080Y1515110D03*
X1855080Y1496060D03*
X1838080Y1496060D03*
D37*
X1817680Y1451460D03*
X1799280Y1457960D03*
X1799280Y1464460D03*
X1799280Y1451460D03*
X1817680Y1457960D03*
X1817680Y1464460D03*
D14*
X1855080Y1457960D03*
X1838080Y1457960D03*
X1838080Y1477010D03*
X1855080Y1477010D03*
X1838080Y1438910D03*
X1855080Y1438910D03*
D36*
X1780380Y1448460D03*
X1780380Y1467460D03*
X1759380Y1457960D03*
D35*
X1800480Y1312060D03*
X1800480Y1305560D03*
X1800480Y1299060D03*
X1816480Y1299060D03*
X1816480Y1305560D03*
X1816480Y1312060D03*
D36*
X1780380Y1372260D03*
X1780380Y1391260D03*
X1759380Y1381760D03*
D14*
X1855080Y1305560D03*
X1838080Y1305560D03*
X1893180Y1305560D03*
X1876180Y1305560D03*
D35*
X1800480Y1426360D03*
X1800480Y1419860D03*
X1800480Y1413360D03*
X1816480Y1413360D03*
X1816480Y1419860D03*
X1816480Y1426360D03*
D36*
X1780380Y1410360D03*
X1780380Y1429360D03*
X1759380Y1419860D03*
D14*
X1855080Y1419860D03*
X1838080Y1419860D03*
X1855080Y1400810D03*
X1838080Y1400810D03*
D10*
X1567180Y1212460D03*
X1567180Y1195460D03*
D38*
X1516079Y1213460D03*
X1516079Y1203960D03*
X1516079Y1194460D03*
X1542081Y1194460D03*
X1542081Y1213460D03*
D10*
X1649730Y1659010D03*
X1649730Y1676010D03*
X1490980Y1195460D03*
X1490980Y1212460D03*
D39*
X1608480Y1267159D03*
X1617980Y1267159D03*
X1627480Y1267159D03*
X1627480Y1293161D03*
X1608480Y1293161D03*
D14*
X1723780Y1280160D03*
X1740780Y1280160D03*
D40*
X1704180Y1253660D03*
X1684180Y1253660D03*
D41*
X1728180Y1201660D03*
X1660180Y1201660D03*
D14*
X1753480Y1527810D03*
X1736480Y1527810D03*
X1639180Y1191260D03*
X1622180Y1191260D03*
D10*
X1592580Y1347860D03*
X1592580Y1364860D03*
D23*
X1810780Y1527810D03*
X1780780Y1527810D03*
D35*
X1800480Y1388260D03*
X1800480Y1381760D03*
X1800480Y1375260D03*
X1816480Y1375260D03*
X1816480Y1381760D03*
X1816480Y1388260D03*
D36*
X1760380Y1353160D03*
X1760380Y1334160D03*
X1781380Y1343660D03*
D14*
X1855080Y1381760D03*
X1838080Y1381760D03*
X1855080Y1362710D03*
X1838080Y1362710D03*
D35*
X1800480Y1350160D03*
X1800480Y1343660D03*
X1800480Y1337160D03*
X1816480Y1337160D03*
X1816480Y1343660D03*
X1816480Y1350160D03*
D36*
X1760380Y1315060D03*
X1760380Y1296060D03*
X1781380Y1305560D03*
D14*
X1855080Y1343660D03*
X1838080Y1343660D03*
X1855080Y1324610D03*
X1838080Y1324610D03*
D42*
X1648580Y1269973D03*
X1653580Y1290348D03*
X1648580Y1290348D03*
X1658580Y1290348D03*
X1663580Y1290348D03*
X1653580Y1269973D03*
X1658580Y1269973D03*
X1663580Y1269973D03*
D43*
X1659480Y1280160D03*
X1652680Y1280160D03*
D10*
X1732280Y1297060D03*
X1732280Y1314060D03*
X1960880Y1237860D03*
X1960880Y1220860D03*
D14*
X1736480Y1553210D03*
X1753480Y1553210D03*
D23*
X1810780Y1553210D03*
X1780780Y1553210D03*
D10*
X12700Y2318140D03*
X12700Y2335140D03*
X38100Y2318140D03*
X38100Y2335140D03*
D11*
X11400Y2250440D03*
X39400Y2250440D03*
D12*
X340360Y2284740D03*
X289560Y2284740D03*
X238760Y2284740D03*
X365760Y2317740D03*
X314960Y2317740D03*
X264160Y2317740D03*
X213360Y2317740D03*
X187960Y2317740D03*
X213360Y2284740D03*
X238760Y2317740D03*
X264160Y2284740D03*
X289560Y2317740D03*
X314960Y2284740D03*
X340360Y2317740D03*
X365760Y2284740D03*
X187960Y2284740D03*
X391160Y2317740D03*
X416560Y2317740D03*
X391160Y2284740D03*
X416560Y2284740D03*
D13*
X304600Y1802040D03*
X304800Y1835040D03*
X279200Y1802040D03*
X279400Y1835040D03*
X330100Y1802040D03*
X330300Y1835040D03*
X355400Y1802040D03*
X355600Y1835040D03*
X380800Y1802040D03*
X381000Y1835040D03*
X406300Y1802040D03*
X406500Y1835040D03*
X457000Y1802040D03*
X457200Y1835040D03*
X431600Y1802040D03*
X431800Y1835040D03*
X609800Y2317840D03*
X609600Y2284840D03*
X635200Y2317840D03*
X635000Y2284840D03*
X584300Y2317840D03*
X584100Y2284840D03*
X559000Y2317840D03*
X558800Y2284840D03*
X533600Y2317840D03*
X533400Y2284840D03*
X508100Y2317840D03*
X507900Y2284840D03*
X457400Y2317840D03*
X457200Y2284840D03*
X482800Y2317840D03*
X482600Y2284840D03*
D12*
X609600Y1802140D03*
X558800Y1802140D03*
X508000Y1802140D03*
X635000Y1835140D03*
X584200Y1835140D03*
X533400Y1835140D03*
X508000Y1835140D03*
X533400Y1802140D03*
X558800Y1835140D03*
X584200Y1802140D03*
X609600Y1835140D03*
X635000Y1802140D03*
D10*
X63500Y2248290D03*
X63500Y2265290D03*
D14*
X258200Y2167890D03*
X275200Y2167890D03*
X135500Y2263140D03*
X118500Y2263140D03*
X258200Y2193290D03*
X275200Y2193290D03*
D15*
X60100Y2179440D03*
X60100Y2184440D03*
D16*
X60100Y2154690D03*
X60100Y2162440D03*
D15*
X60100Y2169440D03*
X60100Y2174440D03*
X60100Y2194440D03*
X60100Y2189440D03*
D16*
X60100Y2219190D03*
X60100Y2211440D03*
D15*
X60100Y2204440D03*
X60100Y2199440D03*
D17*
X99000Y2231390D03*
X99000Y2218690D03*
X99000Y2205990D03*
X99000Y2193290D03*
X99000Y2180590D03*
X99000Y2167890D03*
X99000Y2155190D03*
X99000Y2142490D03*
X155000Y2142490D03*
X155000Y2155190D03*
X155000Y2167890D03*
X155000Y2180590D03*
X155000Y2193290D03*
X155000Y2205990D03*
X155000Y2218690D03*
X155000Y2231390D03*
D14*
X87240Y2128520D03*
X70240Y2128520D03*
D10*
X82550Y2265290D03*
X82550Y2248290D03*
D18*
X10400Y2288540D03*
X40400Y2288540D03*
D10*
X444500Y2157340D03*
X444500Y2140340D03*
X393700Y2140340D03*
X393700Y2157340D03*
D19*
X412600Y2139640D03*
X419100Y2158040D03*
X425600Y2158040D03*
X412600Y2158040D03*
X419100Y2139640D03*
X425600Y2139640D03*
D20*
X480060Y2218690D03*
X535940Y2218690D03*
X480060Y2180590D03*
X535940Y2180590D03*
D21*
X129600Y2337990D03*
X73600Y2337990D03*
D22*
X116600Y2301240D03*
X106600Y2301240D03*
X96600Y2301240D03*
X86600Y2301240D03*
D14*
X563000Y2148840D03*
X580000Y2148840D03*
X563000Y2174240D03*
X580000Y2174240D03*
X601100Y2148840D03*
X618100Y2148840D03*
X601100Y2174240D03*
X618100Y2174240D03*
D20*
X391160Y2218690D03*
X447040Y2218690D03*
X391160Y2180590D03*
X447040Y2180590D03*
D23*
X332500Y2193290D03*
X302500Y2193290D03*
X332500Y2167890D03*
X302500Y2167890D03*
X332500Y2218690D03*
X302500Y2218690D03*
D14*
X258200Y2218690D03*
X275200Y2218690D03*
D24*
X610400Y2091520D03*
X597700Y2091520D03*
X585000Y2091520D03*
X572300Y2091520D03*
X559600Y2091520D03*
X546900Y2091520D03*
X534200Y2091520D03*
X521500Y2091520D03*
X508800Y2091520D03*
X496100Y2091520D03*
X483400Y2091520D03*
X470700Y2091520D03*
X458000Y2091520D03*
X445300Y2091520D03*
D25*
X430400Y2066290D03*
X430400Y2053590D03*
X430400Y2040890D03*
X430400Y2028190D03*
X430400Y2015490D03*
X430400Y2002790D03*
X430400Y1990090D03*
X430400Y1977390D03*
X430400Y1964690D03*
X430400Y1951990D03*
D24*
X445300Y1926760D03*
X458000Y1926760D03*
X470700Y1926760D03*
X483400Y1926760D03*
X496100Y1926760D03*
X508800Y1926760D03*
X521500Y1926760D03*
X534200Y1926760D03*
X546900Y1926760D03*
X559600Y1926760D03*
X572300Y1926760D03*
X585000Y1926760D03*
X597700Y1926760D03*
X610400Y1926760D03*
D26*
X536980Y2024450D03*
X555190Y2006000D03*
X555190Y2024300D03*
X555190Y2042600D03*
X536890Y2042600D03*
X537190Y2005900D03*
X518590Y2006000D03*
X518490Y2024300D03*
X518590Y2042600D03*
D14*
X618100Y2199640D03*
X601100Y2199640D03*
X563000Y2199640D03*
X580000Y2199640D03*
D27*
X145640Y2040390D03*
X145640Y2029390D03*
X145640Y2018390D03*
X145640Y2051390D03*
X145640Y2062390D03*
X145640Y2073390D03*
X145640Y2084390D03*
X145640Y2095390D03*
X145640Y2106390D03*
D28*
X44640Y1963390D03*
X44640Y2118390D03*
D11*
X140640Y1972390D03*
D29*
X139640Y2118390D03*
D11*
X201900Y2072640D03*
X229900Y2072640D03*
D10*
X228600Y2119240D03*
X228600Y2102240D03*
D30*
X191900Y1945640D03*
X239900Y1945640D03*
D10*
X177800Y2119240D03*
X177800Y2102240D03*
X203200Y2102240D03*
X203200Y2119240D03*
D31*
X139700Y1898740D03*
X139700Y1941740D03*
D32*
X20320Y1936600D03*
X20320Y1822600D03*
X81320Y1936600D03*
X81320Y1822600D03*
D33*
X184912Y2044954D03*
X184912Y2021840D03*
X184912Y1998726D03*
D34*
X246890Y2021840D03*
D35*
X322200Y2091840D03*
X322200Y2085340D03*
X322200Y2078840D03*
X338200Y2078840D03*
X338200Y2085340D03*
X338200Y2091840D03*
D36*
X302100Y2075840D03*
X302100Y2094840D03*
X281100Y2085340D03*
D14*
X376800Y2104390D03*
X359800Y2104390D03*
X376800Y2085340D03*
X359800Y2085340D03*
D37*
X339400Y2040740D03*
X321000Y2047240D03*
X321000Y2053740D03*
X321000Y2040740D03*
X339400Y2047240D03*
X339400Y2053740D03*
D14*
X376800Y2047240D03*
X359800Y2047240D03*
X359800Y2066290D03*
X376800Y2066290D03*
X359800Y2028190D03*
X376800Y2028190D03*
D36*
X302100Y2037740D03*
X302100Y2056740D03*
X281100Y2047240D03*
D35*
X322200Y1901340D03*
X322200Y1894840D03*
X322200Y1888340D03*
X338200Y1888340D03*
X338200Y1894840D03*
X338200Y1901340D03*
D36*
X302100Y1961540D03*
X302100Y1980540D03*
X281100Y1971040D03*
D14*
X376800Y1894840D03*
X359800Y1894840D03*
X414900Y1894840D03*
X397900Y1894840D03*
D35*
X322200Y2015640D03*
X322200Y2009140D03*
X322200Y2002640D03*
X338200Y2002640D03*
X338200Y2009140D03*
X338200Y2015640D03*
D36*
X302100Y1999640D03*
X302100Y2018640D03*
X281100Y2009140D03*
D14*
X376800Y2009140D03*
X359800Y2009140D03*
X376800Y1990090D03*
X359800Y1990090D03*
D10*
X88900Y1801740D03*
X88900Y1784740D03*
D38*
X37799Y1802740D03*
X37799Y1793240D03*
X37799Y1783740D03*
X63801Y1783740D03*
X63801Y1802740D03*
D10*
X171450Y2248290D03*
X171450Y2265290D03*
X12700Y1784740D03*
X12700Y1801740D03*
D39*
X130200Y1856439D03*
X139700Y1856439D03*
X149200Y1856439D03*
X149200Y1882441D03*
X130200Y1882441D03*
D14*
X245500Y1869440D03*
X262500Y1869440D03*
D40*
X225900Y1842940D03*
X205900Y1842940D03*
D41*
X249900Y1790940D03*
X181900Y1790940D03*
D14*
X275200Y2117090D03*
X258200Y2117090D03*
X160900Y1780540D03*
X143900Y1780540D03*
D10*
X114300Y1937140D03*
X114300Y1954140D03*
D23*
X332500Y2117090D03*
X302500Y2117090D03*
D35*
X322200Y1977540D03*
X322200Y1971040D03*
X322200Y1964540D03*
X338200Y1964540D03*
X338200Y1971040D03*
X338200Y1977540D03*
D36*
X282100Y1942440D03*
X282100Y1923440D03*
X303100Y1932940D03*
D14*
X376800Y1971040D03*
X359800Y1971040D03*
X376800Y1951990D03*
X359800Y1951990D03*
D35*
X322200Y1939440D03*
X322200Y1932940D03*
X322200Y1926440D03*
X338200Y1926440D03*
X338200Y1932940D03*
X338200Y1939440D03*
D36*
X282100Y1904340D03*
X282100Y1885340D03*
X303100Y1894840D03*
D14*
X376800Y1932940D03*
X359800Y1932940D03*
X376800Y1913890D03*
X359800Y1913890D03*
D42*
X170300Y1859253D03*
X175300Y1879628D03*
X170300Y1879628D03*
X180300Y1879628D03*
X185300Y1879628D03*
X175300Y1859253D03*
X180300Y1859253D03*
X185300Y1859253D03*
D43*
X181200Y1869440D03*
X174400Y1869440D03*
D10*
X254000Y1886340D03*
X254000Y1903340D03*
X482600Y1827140D03*
X482600Y1810140D03*
D14*
X258200Y2142490D03*
X275200Y2142490D03*
D23*
X332500Y2142490D03*
X302500Y2142490D03*
D10*
X751840Y2318140D03*
X751840Y2335140D03*
X777240Y2318140D03*
X777240Y2335140D03*
D11*
X750540Y2250440D03*
X778540Y2250440D03*
D12*
X1079500Y2284740D03*
X1028700Y2284740D03*
X977900Y2284740D03*
X1104900Y2317740D03*
X1054100Y2317740D03*
X1003300Y2317740D03*
X952500Y2317740D03*
X927100Y2317740D03*
X952500Y2284740D03*
X977900Y2317740D03*
X1003300Y2284740D03*
X1028700Y2317740D03*
X1054100Y2284740D03*
X1079500Y2317740D03*
X1104900Y2284740D03*
X927100Y2284740D03*
X1130300Y2317740D03*
X1155700Y2317740D03*
X1130300Y2284740D03*
X1155700Y2284740D03*
D13*
X1043740Y1802040D03*
X1043940Y1835040D03*
X1018340Y1802040D03*
X1018540Y1835040D03*
X1069240Y1802040D03*
X1069440Y1835040D03*
X1094540Y1802040D03*
X1094740Y1835040D03*
X1119940Y1802040D03*
X1120140Y1835040D03*
X1145440Y1802040D03*
X1145640Y1835040D03*
X1196140Y1802040D03*
X1196340Y1835040D03*
X1170740Y1802040D03*
X1170940Y1835040D03*
X1348940Y2317840D03*
X1348740Y2284840D03*
X1374340Y2317840D03*
X1374140Y2284840D03*
X1323440Y2317840D03*
X1323240Y2284840D03*
X1298140Y2317840D03*
X1297940Y2284840D03*
X1272740Y2317840D03*
X1272540Y2284840D03*
X1247240Y2317840D03*
X1247040Y2284840D03*
X1196540Y2317840D03*
X1196340Y2284840D03*
X1221940Y2317840D03*
X1221740Y2284840D03*
D12*
X1348740Y1802140D03*
X1297940Y1802140D03*
X1247140Y1802140D03*
X1374140Y1835140D03*
X1323340Y1835140D03*
X1272540Y1835140D03*
X1247140Y1835140D03*
X1272540Y1802140D03*
X1297940Y1835140D03*
X1323340Y1802140D03*
X1348740Y1835140D03*
X1374140Y1802140D03*
D10*
X802640Y2248290D03*
X802640Y2265290D03*
D14*
X997340Y2167890D03*
X1014340Y2167890D03*
X874640Y2263140D03*
X857640Y2263140D03*
X997340Y2193290D03*
X1014340Y2193290D03*
D15*
X799240Y2179440D03*
X799240Y2184440D03*
D16*
X799240Y2154690D03*
X799240Y2162440D03*
D15*
X799240Y2169440D03*
X799240Y2174440D03*
X799240Y2194440D03*
X799240Y2189440D03*
D16*
X799240Y2219190D03*
X799240Y2211440D03*
D15*
X799240Y2204440D03*
X799240Y2199440D03*
D17*
X838140Y2231390D03*
X838140Y2218690D03*
X838140Y2205990D03*
X838140Y2193290D03*
X838140Y2180590D03*
X838140Y2167890D03*
X838140Y2155190D03*
X838140Y2142490D03*
X894140Y2142490D03*
X894140Y2155190D03*
X894140Y2167890D03*
X894140Y2180590D03*
X894140Y2193290D03*
X894140Y2205990D03*
X894140Y2218690D03*
X894140Y2231390D03*
D14*
X826380Y2128520D03*
X809380Y2128520D03*
D10*
X821690Y2265290D03*
X821690Y2248290D03*
D18*
X749540Y2288540D03*
X779540Y2288540D03*
D10*
X1183640Y2157340D03*
X1183640Y2140340D03*
X1132840Y2140340D03*
X1132840Y2157340D03*
D19*
X1151740Y2139640D03*
X1158240Y2158040D03*
X1164740Y2158040D03*
X1151740Y2158040D03*
X1158240Y2139640D03*
X1164740Y2139640D03*
D20*
X1219200Y2218690D03*
X1275080Y2218690D03*
X1219200Y2180590D03*
X1275080Y2180590D03*
D21*
X868740Y2337990D03*
X812740Y2337990D03*
D22*
X855740Y2301240D03*
X845740Y2301240D03*
X835740Y2301240D03*
X825740Y2301240D03*
D14*
X1302140Y2148840D03*
X1319140Y2148840D03*
X1302140Y2174240D03*
X1319140Y2174240D03*
X1340240Y2148840D03*
X1357240Y2148840D03*
X1340240Y2174240D03*
X1357240Y2174240D03*
D20*
X1130300Y2218690D03*
X1186180Y2218690D03*
X1130300Y2180590D03*
X1186180Y2180590D03*
D23*
X1071640Y2193290D03*
X1041640Y2193290D03*
X1071640Y2167890D03*
X1041640Y2167890D03*
X1071640Y2218690D03*
X1041640Y2218690D03*
D14*
X997340Y2218690D03*
X1014340Y2218690D03*
D24*
X1349540Y2091520D03*
X1336840Y2091520D03*
X1324140Y2091520D03*
X1311440Y2091520D03*
X1298740Y2091520D03*
X1286040Y2091520D03*
X1273340Y2091520D03*
X1260640Y2091520D03*
X1247940Y2091520D03*
X1235240Y2091520D03*
X1222540Y2091520D03*
X1209840Y2091520D03*
X1197140Y2091520D03*
X1184440Y2091520D03*
D25*
X1169540Y2066290D03*
X1169540Y2053590D03*
X1169540Y2040890D03*
X1169540Y2028190D03*
X1169540Y2015490D03*
X1169540Y2002790D03*
X1169540Y1990090D03*
X1169540Y1977390D03*
X1169540Y1964690D03*
X1169540Y1951990D03*
D24*
X1184440Y1926760D03*
X1197140Y1926760D03*
X1209840Y1926760D03*
X1222540Y1926760D03*
X1235240Y1926760D03*
X1247940Y1926760D03*
X1260640Y1926760D03*
X1273340Y1926760D03*
X1286040Y1926760D03*
X1298740Y1926760D03*
X1311440Y1926760D03*
X1324140Y1926760D03*
X1336840Y1926760D03*
X1349540Y1926760D03*
D26*
X1276120Y2024450D03*
X1294330Y2006000D03*
X1294330Y2024300D03*
X1294330Y2042600D03*
X1276030Y2042600D03*
X1276330Y2005900D03*
X1257730Y2006000D03*
X1257630Y2024300D03*
X1257730Y2042600D03*
D14*
X1357240Y2199640D03*
X1340240Y2199640D03*
X1302140Y2199640D03*
X1319140Y2199640D03*
D27*
X884780Y2040390D03*
X884780Y2029390D03*
X884780Y2018390D03*
X884780Y2051390D03*
X884780Y2062390D03*
X884780Y2073390D03*
X884780Y2084390D03*
X884780Y2095390D03*
X884780Y2106390D03*
D28*
X783780Y1963390D03*
X783780Y2118390D03*
D11*
X879780Y1972390D03*
D29*
X878780Y2118390D03*
D11*
X941040Y2072640D03*
X969040Y2072640D03*
D10*
X967740Y2119240D03*
X967740Y2102240D03*
D30*
X931040Y1945640D03*
X979040Y1945640D03*
D10*
X916940Y2119240D03*
X916940Y2102240D03*
X942340Y2102240D03*
X942340Y2119240D03*
D31*
X878840Y1898740D03*
X878840Y1941740D03*
D32*
X759460Y1936600D03*
X759460Y1822600D03*
X820460Y1936600D03*
X820460Y1822600D03*
D33*
X924052Y2044954D03*
X924052Y2021840D03*
X924052Y1998726D03*
D34*
X986030Y2021840D03*
D35*
X1061340Y2091840D03*
X1061340Y2085340D03*
X1061340Y2078840D03*
X1077340Y2078840D03*
X1077340Y2085340D03*
X1077340Y2091840D03*
D36*
X1041240Y2075840D03*
X1041240Y2094840D03*
X1020240Y2085340D03*
D14*
X1115940Y2104390D03*
X1098940Y2104390D03*
X1115940Y2085340D03*
X1098940Y2085340D03*
D37*
X1078540Y2040740D03*
X1060140Y2047240D03*
X1060140Y2053740D03*
X1060140Y2040740D03*
X1078540Y2047240D03*
X1078540Y2053740D03*
D14*
X1115940Y2047240D03*
X1098940Y2047240D03*
X1098940Y2066290D03*
X1115940Y2066290D03*
X1098940Y2028190D03*
X1115940Y2028190D03*
D36*
X1041240Y2037740D03*
X1041240Y2056740D03*
X1020240Y2047240D03*
D35*
X1061340Y1901340D03*
X1061340Y1894840D03*
X1061340Y1888340D03*
X1077340Y1888340D03*
X1077340Y1894840D03*
X1077340Y1901340D03*
D36*
X1041240Y1961540D03*
X1041240Y1980540D03*
X1020240Y1971040D03*
D14*
X1115940Y1894840D03*
X1098940Y1894840D03*
X1154040Y1894840D03*
X1137040Y1894840D03*
D35*
X1061340Y2015640D03*
X1061340Y2009140D03*
X1061340Y2002640D03*
X1077340Y2002640D03*
X1077340Y2009140D03*
X1077340Y2015640D03*
D36*
X1041240Y1999640D03*
X1041240Y2018640D03*
X1020240Y2009140D03*
D14*
X1115940Y2009140D03*
X1098940Y2009140D03*
X1115940Y1990090D03*
X1098940Y1990090D03*
D10*
X828040Y1801740D03*
X828040Y1784740D03*
D38*
X776939Y1802740D03*
X776939Y1793240D03*
X776939Y1783740D03*
X802941Y1783740D03*
X802941Y1802740D03*
D10*
X910590Y2248290D03*
X910590Y2265290D03*
X751840Y1784740D03*
X751840Y1801740D03*
D39*
X869340Y1856439D03*
X878840Y1856439D03*
X888340Y1856439D03*
X888340Y1882441D03*
X869340Y1882441D03*
D14*
X984640Y1869440D03*
X1001640Y1869440D03*
D40*
X965040Y1842940D03*
X945040Y1842940D03*
D41*
X989040Y1790940D03*
X921040Y1790940D03*
D14*
X1014340Y2117090D03*
X997340Y2117090D03*
X900040Y1780540D03*
X883040Y1780540D03*
D10*
X853440Y1937140D03*
X853440Y1954140D03*
D23*
X1071640Y2117090D03*
X1041640Y2117090D03*
D35*
X1061340Y1977540D03*
X1061340Y1971040D03*
X1061340Y1964540D03*
X1077340Y1964540D03*
X1077340Y1971040D03*
X1077340Y1977540D03*
D36*
X1021240Y1942440D03*
X1021240Y1923440D03*
X1042240Y1932940D03*
D14*
X1115940Y1971040D03*
X1098940Y1971040D03*
X1115940Y1951990D03*
X1098940Y1951990D03*
D35*
X1061340Y1939440D03*
X1061340Y1932940D03*
X1061340Y1926440D03*
X1077340Y1926440D03*
X1077340Y1932940D03*
X1077340Y1939440D03*
D36*
X1021240Y1904340D03*
X1021240Y1885340D03*
X1042240Y1894840D03*
D14*
X1115940Y1932940D03*
X1098940Y1932940D03*
X1115940Y1913890D03*
X1098940Y1913890D03*
D42*
X909440Y1859253D03*
X914440Y1879628D03*
X909440Y1879628D03*
X919440Y1879628D03*
X924440Y1879628D03*
X914440Y1859253D03*
X919440Y1859253D03*
X924440Y1859253D03*
D43*
X920340Y1869440D03*
X913540Y1869440D03*
D10*
X993140Y1886340D03*
X993140Y1903340D03*
X1221740Y1827140D03*
X1221740Y1810140D03*
D14*
X997340Y2142490D03*
X1014340Y2142490D03*
D23*
X1071640Y2142490D03*
X1041640Y2142490D03*
D10*
X1490980Y2318140D03*
X1490980Y2335140D03*
X1516380Y2318140D03*
X1516380Y2335140D03*
D11*
X1489680Y2250440D03*
X1517680Y2250440D03*
D12*
X1818640Y2284740D03*
X1767840Y2284740D03*
X1717040Y2284740D03*
X1844040Y2317740D03*
X1793240Y2317740D03*
X1742440Y2317740D03*
X1691640Y2317740D03*
X1666240Y2317740D03*
X1691640Y2284740D03*
X1717040Y2317740D03*
X1742440Y2284740D03*
X1767840Y2317740D03*
X1793240Y2284740D03*
X1818640Y2317740D03*
X1844040Y2284740D03*
X1666240Y2284740D03*
X1869440Y2317740D03*
X1894840Y2317740D03*
X1869440Y2284740D03*
X1894840Y2284740D03*
D13*
X1782880Y1802040D03*
X1783080Y1835040D03*
X1757480Y1802040D03*
X1757680Y1835040D03*
X1808380Y1802040D03*
X1808580Y1835040D03*
X1833680Y1802040D03*
X1833880Y1835040D03*
X1859080Y1802040D03*
X1859280Y1835040D03*
X1884580Y1802040D03*
X1884780Y1835040D03*
X1935280Y1802040D03*
X1935480Y1835040D03*
X1909880Y1802040D03*
X1910080Y1835040D03*
X2088080Y2317840D03*
X2087880Y2284840D03*
X2113480Y2317840D03*
X2113280Y2284840D03*
X2062580Y2317840D03*
X2062380Y2284840D03*
X2037280Y2317840D03*
X2037080Y2284840D03*
X2011880Y2317840D03*
X2011680Y2284840D03*
X1986380Y2317840D03*
X1986180Y2284840D03*
X1935680Y2317840D03*
X1935480Y2284840D03*
X1961080Y2317840D03*
X1960880Y2284840D03*
D12*
X2087880Y1802140D03*
X2037080Y1802140D03*
X1986280Y1802140D03*
X2113280Y1835140D03*
X2062480Y1835140D03*
X2011680Y1835140D03*
X1986280Y1835140D03*
X2011680Y1802140D03*
X2037080Y1835140D03*
X2062480Y1802140D03*
X2087880Y1835140D03*
X2113280Y1802140D03*
D10*
X1541780Y2248290D03*
X1541780Y2265290D03*
D14*
X1736480Y2167890D03*
X1753480Y2167890D03*
X1613780Y2263140D03*
X1596780Y2263140D03*
X1736480Y2193290D03*
X1753480Y2193290D03*
D15*
X1538380Y2179440D03*
X1538380Y2184440D03*
D16*
X1538380Y2154690D03*
X1538380Y2162440D03*
D15*
X1538380Y2169440D03*
X1538380Y2174440D03*
X1538380Y2194440D03*
X1538380Y2189440D03*
D16*
X1538380Y2219190D03*
X1538380Y2211440D03*
D15*
X1538380Y2204440D03*
X1538380Y2199440D03*
D17*
X1577280Y2231390D03*
X1577280Y2218690D03*
X1577280Y2205990D03*
X1577280Y2193290D03*
X1577280Y2180590D03*
X1577280Y2167890D03*
X1577280Y2155190D03*
X1577280Y2142490D03*
X1633280Y2142490D03*
X1633280Y2155190D03*
X1633280Y2167890D03*
X1633280Y2180590D03*
X1633280Y2193290D03*
X1633280Y2205990D03*
X1633280Y2218690D03*
X1633280Y2231390D03*
D14*
X1565520Y2128520D03*
X1548520Y2128520D03*
D10*
X1560830Y2265290D03*
X1560830Y2248290D03*
D18*
X1488680Y2288540D03*
X1518680Y2288540D03*
D10*
X1922780Y2157340D03*
X1922780Y2140340D03*
X1871980Y2140340D03*
X1871980Y2157340D03*
D19*
X1890880Y2139640D03*
X1897380Y2158040D03*
X1903880Y2158040D03*
X1890880Y2158040D03*
X1897380Y2139640D03*
X1903880Y2139640D03*
D20*
X1958340Y2218690D03*
X2014220Y2218690D03*
X1958340Y2180590D03*
X2014220Y2180590D03*
D21*
X1607880Y2337990D03*
X1551880Y2337990D03*
D22*
X1594880Y2301240D03*
X1584880Y2301240D03*
X1574880Y2301240D03*
X1564880Y2301240D03*
D14*
X2041280Y2148840D03*
X2058280Y2148840D03*
X2041280Y2174240D03*
X2058280Y2174240D03*
X2079380Y2148840D03*
X2096380Y2148840D03*
X2079380Y2174240D03*
X2096380Y2174240D03*
D20*
X1869440Y2218690D03*
X1925320Y2218690D03*
X1869440Y2180590D03*
X1925320Y2180590D03*
D23*
X1810780Y2193290D03*
X1780780Y2193290D03*
X1810780Y2167890D03*
X1780780Y2167890D03*
X1810780Y2218690D03*
X1780780Y2218690D03*
D14*
X1736480Y2218690D03*
X1753480Y2218690D03*
D24*
X2088680Y2091520D03*
X2075980Y2091520D03*
X2063280Y2091520D03*
X2050580Y2091520D03*
X2037880Y2091520D03*
X2025180Y2091520D03*
X2012480Y2091520D03*
X1999780Y2091520D03*
X1987080Y2091520D03*
X1974380Y2091520D03*
X1961680Y2091520D03*
X1948980Y2091520D03*
X1936280Y2091520D03*
X1923580Y2091520D03*
D25*
X1908680Y2066290D03*
X1908680Y2053590D03*
X1908680Y2040890D03*
X1908680Y2028190D03*
X1908680Y2015490D03*
X1908680Y2002790D03*
X1908680Y1990090D03*
X1908680Y1977390D03*
X1908680Y1964690D03*
X1908680Y1951990D03*
D24*
X1923580Y1926760D03*
X1936280Y1926760D03*
X1948980Y1926760D03*
X1961680Y1926760D03*
X1974380Y1926760D03*
X1987080Y1926760D03*
X1999780Y1926760D03*
X2012480Y1926760D03*
X2025180Y1926760D03*
X2037880Y1926760D03*
X2050580Y1926760D03*
X2063280Y1926760D03*
X2075980Y1926760D03*
X2088680Y1926760D03*
D26*
X2015260Y2024450D03*
X2033470Y2006000D03*
X2033470Y2024300D03*
X2033470Y2042600D03*
X2015170Y2042600D03*
X2015470Y2005900D03*
X1996870Y2006000D03*
X1996770Y2024300D03*
X1996870Y2042600D03*
D14*
X2096380Y2199640D03*
X2079380Y2199640D03*
X2041280Y2199640D03*
X2058280Y2199640D03*
D27*
X1623920Y2040390D03*
X1623920Y2029390D03*
X1623920Y2018390D03*
X1623920Y2051390D03*
X1623920Y2062390D03*
X1623920Y2073390D03*
X1623920Y2084390D03*
X1623920Y2095390D03*
X1623920Y2106390D03*
D28*
X1522920Y1963390D03*
X1522920Y2118390D03*
D11*
X1618920Y1972390D03*
D29*
X1617920Y2118390D03*
D11*
X1680180Y2072640D03*
X1708180Y2072640D03*
D10*
X1706880Y2119240D03*
X1706880Y2102240D03*
D30*
X1670180Y1945640D03*
X1718180Y1945640D03*
D10*
X1656080Y2119240D03*
X1656080Y2102240D03*
X1681480Y2102240D03*
X1681480Y2119240D03*
D31*
X1617980Y1898740D03*
X1617980Y1941740D03*
D32*
X1498600Y1936600D03*
X1498600Y1822600D03*
X1559600Y1936600D03*
X1559600Y1822600D03*
D33*
X1663192Y2044954D03*
X1663192Y2021840D03*
X1663192Y1998726D03*
D34*
X1725170Y2021840D03*
D35*
X1800480Y2091840D03*
X1800480Y2085340D03*
X1800480Y2078840D03*
X1816480Y2078840D03*
X1816480Y2085340D03*
X1816480Y2091840D03*
D36*
X1780380Y2075840D03*
X1780380Y2094840D03*
X1759380Y2085340D03*
D14*
X1855080Y2104390D03*
X1838080Y2104390D03*
X1855080Y2085340D03*
X1838080Y2085340D03*
D37*
X1817680Y2040740D03*
X1799280Y2047240D03*
X1799280Y2053740D03*
X1799280Y2040740D03*
X1817680Y2047240D03*
X1817680Y2053740D03*
D14*
X1855080Y2047240D03*
X1838080Y2047240D03*
X1838080Y2066290D03*
X1855080Y2066290D03*
X1838080Y2028190D03*
X1855080Y2028190D03*
D36*
X1780380Y2037740D03*
X1780380Y2056740D03*
X1759380Y2047240D03*
D35*
X1800480Y1901340D03*
X1800480Y1894840D03*
X1800480Y1888340D03*
X1816480Y1888340D03*
X1816480Y1894840D03*
X1816480Y1901340D03*
D36*
X1780380Y1961540D03*
X1780380Y1980540D03*
X1759380Y1971040D03*
D14*
X1855080Y1894840D03*
X1838080Y1894840D03*
X1893180Y1894840D03*
X1876180Y1894840D03*
D35*
X1800480Y2015640D03*
X1800480Y2009140D03*
X1800480Y2002640D03*
X1816480Y2002640D03*
X1816480Y2009140D03*
X1816480Y2015640D03*
D36*
X1780380Y1999640D03*
X1780380Y2018640D03*
X1759380Y2009140D03*
D14*
X1855080Y2009140D03*
X1838080Y2009140D03*
X1855080Y1990090D03*
X1838080Y1990090D03*
D10*
X1567180Y1801740D03*
X1567180Y1784740D03*
D38*
X1516079Y1802740D03*
X1516079Y1793240D03*
X1516079Y1783740D03*
X1542081Y1783740D03*
X1542081Y1802740D03*
D10*
X1649730Y2248290D03*
X1649730Y2265290D03*
X1490980Y1784740D03*
X1490980Y1801740D03*
D39*
X1608480Y1856439D03*
X1617980Y1856439D03*
X1627480Y1856439D03*
X1627480Y1882441D03*
X1608480Y1882441D03*
D14*
X1723780Y1869440D03*
X1740780Y1869440D03*
D40*
X1704180Y1842940D03*
X1684180Y1842940D03*
D41*
X1728180Y1790940D03*
X1660180Y1790940D03*
D14*
X1753480Y2117090D03*
X1736480Y2117090D03*
X1639180Y1780540D03*
X1622180Y1780540D03*
D10*
X1592580Y1937140D03*
X1592580Y1954140D03*
D23*
X1810780Y2117090D03*
X1780780Y2117090D03*
D35*
X1800480Y1977540D03*
X1800480Y1971040D03*
X1800480Y1964540D03*
X1816480Y1964540D03*
X1816480Y1971040D03*
X1816480Y1977540D03*
D36*
X1760380Y1942440D03*
X1760380Y1923440D03*
X1781380Y1932940D03*
D14*
X1855080Y1971040D03*
X1838080Y1971040D03*
X1855080Y1951990D03*
X1838080Y1951990D03*
D35*
X1800480Y1939440D03*
X1800480Y1932940D03*
X1800480Y1926440D03*
X1816480Y1926440D03*
X1816480Y1932940D03*
X1816480Y1939440D03*
D36*
X1760380Y1904340D03*
X1760380Y1885340D03*
X1781380Y1894840D03*
D14*
X1855080Y1932940D03*
X1838080Y1932940D03*
X1855080Y1913890D03*
X1838080Y1913890D03*
D42*
X1648580Y1859253D03*
X1653580Y1879628D03*
X1648580Y1879628D03*
X1658580Y1879628D03*
X1663580Y1879628D03*
X1653580Y1859253D03*
X1658580Y1859253D03*
X1663580Y1859253D03*
D43*
X1659480Y1869440D03*
X1652680Y1869440D03*
D10*
X1732280Y1886340D03*
X1732280Y1903340D03*
X1960880Y1827140D03*
X1960880Y1810140D03*
D14*
X1736480Y2142490D03*
X1753480Y2142490D03*
D23*
X1810780Y2142490D03*
X1780780Y2142490D03*
M02*
