M48
;GenerationSoftware,Autodesk,EAGLE,9.6.2*%
;CreationDate,2022-01-12T20:40:13Z*%
FMAT,2
ICI,OFF
METRIC,TZ,000.000
T9C0.305
T8C0.381
T7C0.400
T6C0.432
T5C0.650
T4C1.000
T3C1.016
T2C2.032
T1C3.302
%
G90
M71
T1
X213868Y214884
X163068Y230124
X139954Y38100
X89154Y53340
X139954Y214884
X89154Y230124
X87884Y64008
X139954Y69088
X139954Y97028
X89154Y112268
X161798Y5080
X213868Y10160
X13970Y181864
X66040Y186944
X213868Y38100
X163068Y53340
X161798Y64008
X213868Y69088
X213868Y97028
X163068Y112268
X66040Y214884
X15240Y230124
X161798Y122936
X213868Y128016
X213868Y155956
X163068Y171196
X13970Y122936
X66040Y128016
X66040Y155956
X15240Y171196
X161798Y181864
X213868Y186944
X13970Y64008
X66040Y69088
X66040Y97028
X15240Y112268
X87884Y122936
X139954Y128016
X13970Y5080
X66040Y10160
X66040Y38100
X15240Y53340
X139954Y155956
X89154Y171196
X87884Y181864
X139954Y186944
X87884Y5080
X139954Y10160
T2
X149860Y187960
X154432Y187960
X2032Y70104
X6604Y70104
X149860Y129032
X154432Y129032
X75946Y70104
X80518Y70104
X75946Y187960
X80518Y187960
X149860Y70104
X154432Y70104
X2032Y187960
X6604Y187960
X2032Y129032
X6604Y129032
X2032Y11176
X6604Y11176
X149860Y11176
X154432Y11176
X75946Y129032
X80518Y129032
X75946Y11176
X80518Y11176
T3
X58420Y57150
X96774Y130556
X166624Y175006
X169164Y175006
X171704Y175006
X174244Y175006
X176784Y175006
X179324Y175006
X181864Y175006
X184404Y175006
X186944Y175006
X189484Y175006
X175768Y119126
X178308Y119126
X180848Y119126
X183388Y119126
X185928Y119126
X188468Y119126
X191008Y119126
X193548Y119126
X198628Y119126
X201168Y119126
X203708Y119126
X206248Y119126
X208788Y119126
X211328Y119126
X211328Y175006
X208788Y175006
X206248Y175006
X203708Y175006
X201168Y175006
X198628Y175006
X196088Y175006
X193548Y175006
X167513Y158496
X167513Y161036
X168148Y130556
X170688Y189484
X170688Y130556
X18796Y233934
X21336Y233934
X23876Y233934
X26416Y233934
X28956Y233934
X31496Y233934
X34036Y233934
X36576Y233934
X39116Y233934
X41656Y233934
X27940Y178054
X30480Y178054
X33020Y178054
X35560Y178054
X38100Y178054
X40640Y178054
X43180Y178054
X45720Y178054
X50800Y178054
X53340Y178054
X55880Y178054
X119634Y60198
X58420Y178054
X60960Y178054
X63500Y178054
X63500Y233934
X60960Y233934
X58420Y233934
X55880Y233934
X53340Y233934
X50800Y233934
X48260Y233934
X45720Y233934
X19685Y217424
X19685Y219964
X20320Y189484
X22860Y189484
X95250Y233934
X97790Y233934
X100330Y233934
X102870Y233934
X105410Y233934
X107950Y233934
X110490Y233934
X113030Y233934
X115570Y233934
X101854Y178054
X104394Y178054
X106934Y178054
X109474Y178054
X112014Y178054
X18796Y57150
X21336Y57150
X23876Y57150
X26416Y57150
X28956Y57150
X31496Y57150
X34036Y57150
X36576Y57150
X39116Y57150
X41656Y57150
X27940Y1270
X30480Y1270
X33020Y1270
X35560Y1270
X38100Y1270
X40640Y1270
X43180Y1270
X45720Y1270
X50800Y1270
X53340Y1270
X55880Y1270
X58420Y1270
X60960Y1270
X63500Y1270
X63500Y57150
X60960Y57150
X114554Y178054
X55880Y57150
X53340Y57150
X50800Y57150
X48260Y57150
X45720Y57150
X117094Y178054
X119634Y178054
X124714Y178054
X127254Y178054
X129794Y178054
X132334Y178054
X134874Y178054
X137414Y178054
X137414Y233934
X134874Y233934
X19685Y40640
X19685Y43180
X20320Y12700
X22860Y12700
X132334Y233934
X129794Y233934
X127254Y233934
X124714Y233934
X92710Y57150
X95250Y57150
X97790Y57150
X100330Y57150
X102870Y57150
X105410Y57150
X107950Y57150
X110490Y57150
X113030Y57150
X115570Y57150
X101854Y1270
X104394Y1270
X106934Y1270
X109474Y1270
X112014Y1270
X114554Y1270
X117094Y1270
X119634Y1270
X124714Y1270
X127254Y1270
X129794Y1270
X132334Y1270
X134874Y1270
X137414Y1270
X137414Y57150
X134874Y57150
X132334Y57150
X129794Y57150
X127254Y57150
X124714Y57150
X122174Y57150
X119634Y57150
X122174Y233934
X119634Y233934
X93599Y217424
X93599Y219964
X94234Y189484
X96774Y189484
X166624Y233934
X169164Y233934
X171704Y233934
X174244Y233934
X93599Y40640
X93599Y43180
X94234Y12700
X96774Y12700
X176784Y233934
X179324Y233934
X181864Y233934
X184404Y233934
X166624Y57150
X169164Y57150
X171704Y57150
X174244Y57150
X176784Y57150
X179324Y57150
X181864Y57150
X184404Y57150
X186944Y57150
X189484Y57150
X175768Y1270
X178308Y1270
X180848Y1270
X183388Y1270
X185928Y1270
X188468Y1270
X191008Y1270
X193548Y1270
X198628Y1270
X201168Y1270
X203708Y1270
X206248Y1270
X208788Y1270
X211328Y1270
X211328Y57150
X208788Y57150
X206248Y57150
X203708Y57150
X201168Y57150
X198628Y57150
X196088Y57150
X193548Y57150
X186944Y233934
X189484Y233934
X175768Y178054
X178308Y178054
X180848Y178054
X183388Y178054
X185928Y178054
X188468Y178054
X191008Y178054
X193548Y178054
X167513Y40640
X167513Y43180
X168148Y12700
X170688Y12700
X198628Y178054
X201168Y178054
X203708Y178054
X206248Y178054
X18796Y116078
X21336Y116078
X23876Y116078
X26416Y116078
X28956Y116078
X31496Y116078
X34036Y116078
X36576Y116078
X39116Y116078
X41656Y116078
X27940Y60198
X30480Y60198
X33020Y60198
X35560Y60198
X38100Y60198
X40640Y60198
X43180Y60198
X45720Y60198
X50800Y60198
X53340Y60198
X55880Y60198
X58420Y60198
X60960Y60198
X63500Y60198
X63500Y116078
X60960Y116078
X58420Y116078
X55880Y116078
X53340Y116078
X50800Y116078
X48260Y116078
X45720Y116078
X208788Y178054
X211328Y178054
X211328Y233934
X208788Y233934
X206248Y233934
X203708Y233934
X201168Y233934
X198628Y233934
X196088Y233934
X19685Y99568
X19685Y102108
X20320Y71628
X22860Y71628
X193548Y233934
X167513Y217424
X167513Y219964
X168148Y189484
X92710Y116078
X95250Y116078
X97790Y116078
X100330Y116078
X102870Y116078
X105410Y116078
X107950Y116078
X110490Y116078
X113030Y116078
X115570Y116078
X101854Y60198
X104394Y60198
X106934Y60198
X109474Y60198
X112014Y60198
X114554Y60198
X117094Y60198
X92710Y233934
X124714Y60198
X127254Y60198
X129794Y60198
X132334Y60198
X134874Y60198
X137414Y60198
X137414Y116078
X134874Y116078
X132334Y116078
X129794Y116078
X127254Y116078
X124714Y116078
X122174Y116078
X119634Y116078
X93599Y99568
X93599Y102108
X94234Y71628
X96774Y71628
X166624Y116078
X169164Y116078
X171704Y116078
X174244Y116078
X176784Y116078
X179324Y116078
X181864Y116078
X184404Y116078
X186944Y116078
X189484Y116078
X175768Y60198
X178308Y60198
X180848Y60198
X183388Y60198
X185928Y60198
X188468Y60198
X191008Y60198
X193548Y60198
X198628Y60198
X201168Y60198
X203708Y60198
X206248Y60198
X208788Y60198
X211328Y60198
X211328Y116078
X208788Y116078
X206248Y116078
X203708Y116078
X201168Y116078
X198628Y116078
X196088Y116078
X193548Y116078
X167513Y99568
X167513Y102108
X168148Y71628
X170688Y71628
X18796Y175006
X21336Y175006
X23876Y175006
X26416Y175006
X28956Y175006
X31496Y175006
X34036Y175006
X36576Y175006
X39116Y175006
X41656Y175006
X27940Y119126
X30480Y119126
X33020Y119126
X35560Y119126
X38100Y119126
X40640Y119126
X43180Y119126
X45720Y119126
X50800Y119126
X53340Y119126
X55880Y119126
X58420Y119126
X60960Y119126
X63500Y119126
X63500Y175006
X60960Y175006
X58420Y175006
X55880Y175006
X53340Y175006
X50800Y175006
X48260Y175006
X45720Y175006
X19685Y158496
X19685Y161036
X20320Y130556
X22860Y130556
X92710Y175006
X95250Y175006
X97790Y175006
X100330Y175006
X102870Y175006
X105410Y175006
X107950Y175006
X110490Y175006
X113030Y175006
X115570Y175006
X101854Y119126
X104394Y119126
X106934Y119126
X109474Y119126
X112014Y119126
X114554Y119126
X117094Y119126
X119634Y119126
X124714Y119126
X127254Y119126
X129794Y119126
X132334Y119126
X134874Y119126
X137414Y119126
X137414Y175006
X134874Y175006
X132334Y175006
X129794Y175006
X127254Y175006
X124714Y175006
X122174Y175006
X119634Y175006
X93599Y158496
X93599Y161036
X94234Y130556
T4
X4064Y150111
X151892Y32255
X4064Y201039
X4064Y83183
X4064Y91183
X4064Y209039
X77978Y201039
X77978Y83183
X77978Y91183
X77978Y209039
X151892Y201039
X151892Y91183
X151892Y209039
X4064Y24255
X4064Y142111
X151892Y83183
X4064Y32255
X77978Y24255
X77978Y142111
X77978Y150111
X77978Y32255
X151892Y24255
X151892Y142111
X151892Y150111
T5
X4905Y103728
X4905Y97948
X78819Y103728
X152733Y103728
X152733Y97948
X4905Y162656
X4905Y156876
X78819Y162656
X78819Y156876
X152733Y162656
X152733Y156876
X78819Y215804
X4905Y44800
X4905Y39020
X4905Y221584
X4905Y215804
X78819Y44800
X78819Y97948
X152733Y221584
X152733Y215804
X152733Y44800
X152733Y39020
X78819Y221584
X78819Y39020
T6
X50800Y154686
X50800Y155956
X122174Y213614
X122174Y214884
X123444Y213614
X123444Y214884
X124714Y213614
X50800Y97028
X124714Y214884
X125984Y213614
X125984Y214884
X127254Y213614
X127254Y214884
X52070Y154686
X52070Y155956
X122174Y154686
X122174Y155956
X123444Y154686
X123444Y155956
X124714Y154686
X124714Y155956
X125984Y154686
X125984Y155956
X127254Y154686
X127254Y155956
X53340Y154686
X53340Y155956
X124714Y95758
X124714Y97028
X125984Y95758
X52070Y38100
X125984Y97028
X196088Y95758
X196088Y97028
X197358Y95758
X197358Y97028
X48260Y213614
X196088Y213614
X196088Y214884
X197358Y213614
X197358Y214884
X48260Y36830
X48260Y38100
X49530Y36830
X49530Y38100
X50800Y36830
X50800Y38100
X52070Y36830
X53340Y36830
X53340Y38100
X198628Y213614
X198628Y214884
X199898Y213614
X199898Y214884
X122174Y36830
X122174Y38100
X123444Y36830
X123444Y38100
X124714Y36830
X124714Y38100
X125984Y36830
X125984Y38100
X127254Y36830
X127254Y38100
X201168Y213614
X201168Y214884
X48260Y214884
X49530Y213614
X196088Y36830
X196088Y38100
X197358Y36830
X197358Y38100
X198628Y36830
X198628Y38100
X199898Y36830
X199898Y38100
X201168Y36830
X201168Y38100
X49530Y214884
X48260Y95758
X48260Y97028
X49530Y95758
X49530Y97028
X50800Y95758
X52070Y95758
X52070Y97028
X53340Y95758
X53340Y97028
X50800Y213614
X50800Y214884
X52070Y213614
X52070Y214884
X53340Y213614
X53340Y214884
X198628Y95758
X198628Y97028
X199898Y95758
X199898Y97028
X201168Y95758
X201168Y97028
X127254Y95758
X127254Y97028
X122174Y95758
X122174Y97028
X123444Y95758
X123444Y97028
X48260Y154686
X48260Y155956
X196088Y154686
X196088Y155956
X197358Y154686
X197358Y155956
X198628Y154686
X198628Y155956
X199898Y154686
X199898Y155956
X201168Y154686
X201168Y155956
X49530Y154686
X49530Y155956
T7
X1255Y46228
X153263Y214376
X1255Y37592
X5435Y37592
X5435Y46228
X79349Y37592
X75169Y46228
X79349Y46228
X75169Y37592
X149083Y46228
X149083Y37592
X153263Y37592
X153263Y46228
X149083Y105156
X149083Y96520
X75169Y214376
X79349Y214376
X79349Y223012
X153263Y105156
X149083Y164084
X149083Y155448
X153263Y155448
X153263Y164084
X1255Y105156
X75169Y105156
X75169Y164084
X75169Y155448
X79349Y155448
X79349Y164084
X75169Y96520
X79349Y96520
X79349Y105156
X1255Y214376
X5435Y214376
X5435Y223012
X1255Y96520
X149083Y223012
X149083Y214376
X153263Y223012
X5435Y96520
X1255Y164084
X1255Y155448
X5435Y155448
X5435Y164084
X5435Y105156
X75169Y223012
X1255Y223012
X153263Y96520
T8
X184658Y8890
X184658Y7620
X149962Y50038
X110744Y8890
X36830Y8890
X110744Y7620
X2134Y50038
X110744Y125476
X76048Y167894
X184658Y67818
X184658Y66548
X36830Y126746
X36830Y125476
X2134Y167894
X149962Y108966
X110744Y67818
X36830Y67818
X184658Y126746
X184658Y125476
X149962Y167894
X36830Y185674
X36830Y184404
X2134Y226822
X110744Y185674
X76048Y226822
X149962Y226822
X184658Y185674
X184658Y184404
X110744Y184404
X36830Y66548
X76048Y50038
X36830Y7620
X110744Y66548
X76048Y108966
X2134Y108966
X110744Y126746
T9
X48260Y61722
X34798Y95504
X16510Y72390
X14224Y96520
X20066Y108712
X49530Y108966
X62230Y109728
X8636Y113538
X57404Y72136
X16256Y71374
X12700Y96520
X9652Y113538
X51943Y106680
X41910Y68580
X12954Y102362
X24130Y103632
X46990Y113284
X22606Y105918
X59436Y107950
X57150Y76454
X59690Y113284
X12954Y104394
X25908Y99949
X40386Y112268
X60960Y88138
X62230Y112268
X64770Y109474
X41021Y73787
X41910Y99060
X57150Y89408
X59436Y88392
X55118Y88392
X53848Y88392
X51308Y87884
X52578Y88392
X46990Y86868
X56134Y95504
X36576Y104140
X42926Y73152
X7366Y84582
X47752Y78994
X49530Y106680
X27686Y109474
X50546Y80772
X22606Y108458
X7366Y88138
X30226Y110236
X52324Y78740
X52070Y67310
X52070Y70358
X7366Y90170
X49530Y89408
X44704Y107950
X48260Y102108
X47752Y88646
X44704Y106680
X45190Y85344
X27686Y105918
X45466Y105156
X27686Y81534
X41910Y101092
X42926Y90170
X46482Y77724
X47498Y106680
X50800Y106680
X28600Y71628
X33020Y72898
X33020Y76708
X30988Y84836
X29210Y79248
X29210Y86868
X30734Y74422
X33020Y80518
X5080Y110998
X39116Y86106
X27940Y84328
X27432Y91694
X33020Y89154
X33020Y81788
X29210Y80264
X31496Y70104
X59690Y100838
X57658Y106172
X59690Y106172
X18542Y72644
X41910Y61722
X48260Y66548
X41910Y66548
X44958Y78994
X34798Y78232
X34798Y74168
X34798Y84074
X26670Y76073
X31242Y86868
X39116Y84836
X29210Y77470
X29210Y70358
X38735Y70358
X11430Y68580
X17018Y97282
X35306Y106680
X59690Y72898
X7366Y85598
X7620Y60960
X78994Y64262
X106934Y86868
X97536Y65278
X76962Y66548
X78232Y66548
X75692Y66548
X84328Y59690
X81534Y59690
X92710Y94234
X85598Y105410
X76454Y114808
X76454Y116078
X78994Y116078
X78994Y114808
X78994Y113538
X80264Y113538
X94107Y90932
X112776Y90678
X133604Y85598
X133604Y84328
X133604Y83058
X133604Y81788
X133604Y80518
X133604Y79248
X133604Y77978
X128524Y80518
X128524Y79248
X128524Y77978
X131064Y80518
X131064Y79248
X131064Y77978
X131064Y84328
X131064Y83058
X131064Y85598
X81280Y104394
X82169Y96393
X82169Y97663
X98044Y98933
X98044Y100203
X115824Y70358
X122174Y70358
X120904Y70358
X113284Y74168
X113284Y75438
X113284Y80518
X115824Y75438
X113284Y79248
X90424Y77978
X89154Y77978
X87884Y77978
X131064Y98298
X125984Y102108
X133604Y110998
X113030Y103124
X117094Y103124
X106680Y108458
X104140Y108458
X109220Y108458
X128524Y110998
X131064Y110998
X101346Y69088
X98044Y96393
X94234Y60833
X95504Y60833
X96774Y60833
X82804Y81788
X84074Y81788
X82804Y80518
X84074Y80518
X76454Y85598
X76454Y86868
X76454Y88138
X76454Y89408
X85598Y59690
X84328Y60960
X98791Y93027
X112776Y91694
X112776Y89662
X81534Y81788
X81534Y80518
X95504Y76708
X76708Y105156
X81026Y98806
X81026Y103251
X82042Y99314
X82042Y101092
X78232Y100076
X86868Y101092
X81280Y105664
X108331Y70104
X123190Y101092
X117348Y91186
X119380Y88392
X128778Y98044
X126746Y98806
X108458Y100203
X89408Y108458
X84582Y113538
X131826Y96012
X133858Y96012
X133858Y98552
X133858Y92710
X83820Y62357
X81534Y62357
X81280Y86868
X122174Y61722
X108712Y95504
X90424Y72390
X88138Y96520
X93980Y108712
X123444Y108966
X136144Y109728
X82550Y113538
X131318Y72136
X90170Y71374
X86614Y96520
X83566Y113538
X125857Y106680
X115824Y68580
X86868Y102362
X98044Y103632
X120904Y113284
X96520Y105918
X133350Y107950
X131064Y76454
X133604Y113284
X86868Y104394
X99822Y99949
X114300Y112268
X134874Y88138
X136144Y112268
X138684Y109474
X114935Y73787
X115824Y99060
X131064Y89408
X133350Y88392
X129032Y88392
X127762Y88392
X125222Y87884
X126492Y88392
X120904Y86868
X130048Y95504
X110490Y104140
X116840Y73152
X81280Y84582
X121666Y78994
X123444Y106680
X101600Y109474
X124460Y80772
X96520Y108458
X81280Y88138
X104140Y110236
X126238Y78740
X125984Y67310
X125984Y70358
X81280Y90170
X123444Y89408
X118618Y107950
X122174Y102108
X121666Y88646
X118618Y106680
X119104Y85344
X101600Y105918
X119380Y105156
X101600Y81534
X115824Y101092
X116840Y90170
X120396Y77724
X121412Y106680
X124714Y106680
X102514Y71628
X106934Y72898
X106934Y76708
X104902Y84836
X103124Y79248
X103124Y86868
X104648Y74422
X106934Y80518
X78994Y110998
X113030Y86106
X101854Y84328
X101346Y91694
X106934Y89154
X106934Y81788
X103124Y80264
X105410Y70104
X133604Y100838
X131572Y106172
X133604Y106172
X92456Y72644
X115824Y61722
X122174Y66548
X115824Y66548
X118872Y78994
X108712Y78232
X108712Y74168
X108712Y84074
X100584Y76073
X105156Y86868
X113030Y84836
X103124Y77470
X103124Y70358
X112649Y70358
X85344Y68580
X90932Y97282
X109220Y106680
X133604Y72898
X81280Y85598
X81534Y60960
X152908Y64262
X180848Y86868
X171450Y65278
X150876Y66548
X152146Y66548
X149606Y66548
X158242Y59690
X155448Y59690
X166624Y94234
X159512Y105410
X150368Y114808
X150368Y116078
X152908Y116078
X152908Y114808
X152908Y113538
X154178Y113538
X168021Y90932
X186690Y90678
X207518Y85598
X207518Y84328
X207518Y83058
X207518Y81788
X207518Y80518
X207518Y79248
X207518Y77978
X202438Y80518
X202438Y79248
X202438Y77978
X204978Y80518
X204978Y79248
X204978Y77978
X204978Y84328
X204978Y83058
X204978Y85598
X155194Y104394
X156083Y96393
X156083Y97663
X171958Y98933
X171958Y100203
X189738Y70358
X196088Y70358
X194818Y70358
X187198Y74168
X187198Y75438
X187198Y80518
X189738Y75438
X187198Y79248
X164338Y77978
X163068Y77978
X161798Y77978
X204978Y98298
X199898Y102108
X207518Y110998
X186944Y103124
X191008Y103124
X180594Y108458
X178054Y108458
X183134Y108458
X202438Y110998
X204978Y110998
X175260Y69088
X171958Y96393
X168148Y60833
X169418Y60833
X170688Y60833
X156718Y81788
X157988Y81788
X156718Y80518
X157988Y80518
X150368Y85598
X150368Y86868
X150368Y88138
X150368Y89408
X159512Y59690
X158242Y60960
X172705Y93027
X186690Y91694
X186690Y89662
X155448Y81788
X155448Y80518
X169418Y76708
X150622Y105156
X154940Y98806
X154940Y103251
X155956Y99314
X155956Y101092
X152146Y100076
X160782Y101092
X155194Y105664
X182245Y70104
X197104Y101092
X191262Y91186
X193294Y88392
X202692Y98044
X200660Y98806
X182372Y100203
X163322Y108458
X158496Y113538
X205740Y96012
X207772Y96012
X207772Y98552
X207772Y92710
X157734Y62357
X155448Y62357
X155194Y86868
X196088Y61722
X182626Y95504
X164338Y72390
X162052Y96520
X167894Y108712
X197358Y108966
X210058Y109728
X156464Y113538
X205232Y72136
X164084Y71374
X160528Y96520
X157480Y113538
X199771Y106680
X189738Y68580
X160782Y102362
X171958Y103632
X194818Y113284
X170434Y105918
X207264Y107950
X204978Y76454
X207518Y113284
X160782Y104394
X173736Y99949
X188214Y112268
X208788Y88138
X210058Y112268
X212598Y109474
X188849Y73787
X189738Y99060
X204978Y89408
X207264Y88392
X202946Y88392
X201676Y88392
X199136Y87884
X200406Y88392
X194818Y86868
X203962Y95504
X184404Y104140
X190754Y73152
X155194Y84582
X195580Y78994
X197358Y106680
X175514Y109474
X198374Y80772
X170434Y108458
X155194Y88138
X178054Y110236
X200152Y78740
X199898Y67310
X199898Y70358
X155194Y90170
X197358Y89408
X192532Y107950
X196088Y102108
X195580Y88646
X192532Y106680
X193018Y85344
X175514Y105918
X193294Y105156
X175514Y81534
X189738Y101092
X190754Y90170
X194310Y77724
X195326Y106680
X198628Y106680
X176428Y71628
X180848Y72898
X180848Y76708
X178816Y84836
X177038Y79248
X177038Y86868
X178562Y74422
X180848Y80518
X152908Y110998
X186944Y86106
X175768Y84328
X175260Y91694
X180848Y89154
X180848Y81788
X177038Y80264
X179324Y70104
X207518Y100838
X205486Y106172
X207518Y106172
X166370Y72644
X189738Y61722
X196088Y66548
X189738Y66548
X192786Y78994
X182626Y78232
X182626Y74168
X182626Y84074
X174498Y76073
X179070Y86868
X186944Y84836
X177038Y77470
X177038Y70358
X186563Y70358
X159258Y68580
X164846Y97282
X183134Y106680
X207518Y72898
X155194Y85598
X155448Y60960
X5080Y123190
X33020Y145796
X23622Y124206
X3048Y125476
X4318Y125476
X1778Y125476
X10414Y118618
X7620Y118618
X18796Y153162
X11684Y164338
X2540Y173736
X2540Y175006
X5080Y175006
X5080Y173736
X5080Y172466
X6350Y172466
X20193Y149860
X38862Y149606
X59690Y144526
X59690Y143256
X59690Y141986
X59690Y140716
X59690Y139446
X59690Y138176
X59690Y136906
X54610Y139446
X54610Y138176
X54610Y136906
X57150Y139446
X57150Y138176
X57150Y136906
X57150Y143256
X57150Y141986
X57150Y144526
X7366Y163322
X8255Y155321
X8255Y156591
X24130Y157861
X24130Y159131
X41910Y129286
X48260Y129286
X46990Y129286
X39370Y133096
X39370Y134366
X39370Y139446
X41910Y134366
X39370Y138176
X16510Y136906
X15240Y136906
X13970Y136906
X57150Y157226
X52070Y161036
X59690Y169926
X39116Y162052
X43180Y162052
X32766Y167386
X30226Y167386
X35306Y167386
X54610Y169926
X57150Y169926
X27432Y128016
X24130Y155321
X20320Y119761
X21590Y119761
X22860Y119761
X8890Y140716
X10160Y140716
X8890Y139446
X10160Y139446
X2540Y144526
X2540Y145796
X2540Y147066
X2540Y148336
X11684Y118618
X10414Y119888
X24877Y151956
X38862Y150622
X38862Y148590
X7620Y140716
X7620Y139446
X21590Y135636
X2794Y164084
X7112Y157734
X7112Y162179
X8128Y158242
X8128Y160020
X4318Y159004
X12954Y160020
X7366Y164592
X34417Y129032
X49276Y160020
X43434Y150114
X45466Y147320
X54864Y156972
X52832Y157734
X34544Y159131
X15494Y167386
X10668Y172466
X57912Y154940
X59944Y154940
X59944Y157480
X59944Y151638
X9906Y121285
X7620Y121285
X7366Y145796
X48260Y120650
X34798Y154432
X16510Y131318
X14224Y155448
X20066Y167640
X49530Y167894
X62230Y168656
X8636Y172466
X57404Y131064
X16256Y130302
X12700Y155448
X9652Y172466
X51943Y165608
X41910Y127508
X12954Y161290
X24130Y162560
X46990Y172212
X22606Y164846
X59436Y166878
X57150Y135382
X59690Y172212
X12954Y163322
X25908Y158877
X40386Y171196
X60960Y147066
X62230Y171196
X64770Y168402
X41021Y132715
X41910Y157988
X57150Y148336
X59436Y147320
X55118Y147320
X53848Y147320
X51308Y146812
X52578Y147320
X46990Y145796
X56134Y154432
X36576Y163068
X42926Y132080
X7366Y143510
X47752Y137922
X49530Y165608
X27686Y168402
X50546Y139700
X22606Y167386
X7366Y147066
X30226Y169164
X52324Y137668
X52070Y126238
X52070Y129286
X7366Y149098
X49530Y148336
X44704Y166878
X48260Y161036
X47752Y147574
X44704Y165608
X45190Y144272
X27686Y164846
X45466Y164084
X27686Y140462
X41910Y160020
X42926Y149098
X46482Y136652
X47498Y165608
X50800Y165608
X28600Y130556
X33020Y131826
X33020Y135636
X30988Y143764
X29210Y138176
X29210Y145796
X30734Y133350
X33020Y139446
X5080Y169926
X39116Y145034
X27940Y143256
X27432Y150622
X33020Y148082
X33020Y140716
X29210Y139192
X31496Y129032
X59690Y159766
X57658Y165100
X59690Y165100
X18542Y131572
X41910Y120650
X48260Y125476
X41910Y125476
X44958Y137922
X34798Y137160
X34798Y133096
X34798Y143002
X26670Y135001
X31242Y145796
X39116Y143764
X29210Y136398
X29210Y129286
X38735Y129286
X11430Y127508
X17018Y156210
X35306Y165608
X59690Y131826
X7366Y144526
X7620Y119888
X78994Y123190
X106934Y145796
X97536Y124206
X76962Y125476
X78232Y125476
X75692Y125476
X84328Y118618
X81534Y118618
X92710Y153162
X85598Y164338
X76454Y173736
X76454Y175006
X78994Y175006
X78994Y173736
X78994Y172466
X80264Y172466
X94107Y149860
X112776Y149606
X133604Y144526
X133604Y143256
X133604Y141986
X133604Y140716
X133604Y139446
X133604Y138176
X133604Y136906
X128524Y139446
X128524Y138176
X128524Y136906
X131064Y139446
X131064Y138176
X131064Y136906
X131064Y143256
X131064Y141986
X131064Y144526
X81280Y163322
X82169Y155321
X82169Y156591
X98044Y157861
X98044Y159131
X115824Y129286
X122174Y129286
X120904Y129286
X113284Y133096
X113284Y134366
X113284Y139446
X115824Y134366
X113284Y138176
X90424Y136906
X89154Y136906
X87884Y136906
X131064Y157226
X125984Y161036
X133604Y169926
X113030Y162052
X117094Y162052
X106680Y167386
X104140Y167386
X109220Y167386
X128524Y169926
X131064Y169926
X101346Y128016
X98044Y155321
X94234Y119761
X95504Y119761
X96774Y119761
X82804Y140716
X84074Y140716
X82804Y139446
X84074Y139446
X76454Y144526
X76454Y145796
X76454Y147066
X76454Y148336
X85598Y118618
X84328Y119888
X98791Y151956
X112776Y150622
X112776Y148590
X81534Y140716
X81534Y139446
X95504Y135636
X76708Y164084
X81026Y157734
X81026Y162179
X82042Y158242
X82042Y160020
X78232Y159004
X86868Y160020
X81280Y164592
X108331Y129032
X123190Y160020
X117348Y150114
X119380Y147320
X128778Y156972
X126746Y157734
X108458Y159131
X89408Y167386
X84582Y172466
X131826Y154940
X133858Y154940
X133858Y157480
X133858Y151638
X83820Y121285
X81534Y121285
X81280Y145796
X122174Y120650
X108712Y154432
X90424Y131318
X88138Y155448
X93980Y167640
X123444Y167894
X136144Y168656
X82550Y172466
X131318Y131064
X90170Y130302
X86614Y155448
X83566Y172466
X125857Y165608
X115824Y127508
X86868Y161290
X98044Y162560
X120904Y172212
X96520Y164846
X133350Y166878
X131064Y135382
X133604Y172212
X86868Y163322
X99822Y158877
X114300Y171196
X134874Y147066
X136144Y171196
X138684Y168402
X114935Y132715
X115824Y157988
X131064Y148336
X133350Y147320
X129032Y147320
X127762Y147320
X125222Y146812
X126492Y147320
X120904Y145796
X130048Y154432
X110490Y163068
X116840Y132080
X81280Y143510
X118872Y20066
X123444Y165608
X101600Y168402
X124460Y139700
X96520Y167386
X81280Y147066
X104140Y169164
X126238Y137668
X125984Y126238
X125984Y129286
X81280Y149098
X123444Y148336
X118618Y166878
X122174Y161036
X121666Y147574
X118618Y165608
X119104Y144272
X101600Y164846
X119380Y164084
X101600Y140462
X115824Y160020
X116840Y149098
X120396Y136652
X121412Y165608
X124714Y165608
X102514Y130556
X106934Y131826
X106934Y135636
X104902Y143764
X103124Y138176
X103124Y145796
X104648Y133350
X106934Y139446
X78994Y169926
X113030Y145034
X101854Y143256
X101346Y150622
X106934Y148082
X106934Y140716
X103124Y139192
X105410Y129032
X133604Y159766
X131572Y165100
X133604Y165100
X92456Y131572
X115824Y120650
X122174Y125476
X115824Y125476
X118872Y137922
X108712Y137160
X108712Y133096
X108712Y143002
X100584Y135001
X105156Y145796
X113030Y143764
X103124Y136398
X103124Y129286
X112649Y129286
X85344Y127508
X90932Y156210
X109220Y165608
X133604Y131826
X81280Y144526
X81534Y119888
X152908Y123190
X5080Y5334
X33020Y27940
X180848Y145796
X171450Y124206
X150876Y125476
X152146Y125476
X149606Y125476
X158242Y118618
X155448Y118618
X166624Y153162
X159512Y164338
X150368Y173736
X150368Y175006
X152908Y175006
X152908Y173736
X152908Y172466
X154178Y172466
X168021Y149860
X186690Y149606
X207518Y144526
X207518Y143256
X207518Y141986
X207518Y140716
X207518Y139446
X207518Y138176
X207518Y136906
X202438Y139446
X202438Y138176
X202438Y136906
X204978Y139446
X204978Y138176
X204978Y136906
X204978Y143256
X204978Y141986
X204978Y144526
X155194Y163322
X156083Y155321
X156083Y156591
X171958Y157861
X171958Y159131
X189738Y129286
X196088Y129286
X194818Y129286
X187198Y133096
X187198Y134366
X187198Y139446
X189738Y134366
X187198Y138176
X164338Y136906
X163068Y136906
X161798Y136906
X204978Y157226
X199898Y161036
X207518Y169926
X186944Y162052
X191008Y162052
X180594Y167386
X178054Y167386
X183134Y167386
X202438Y169926
X204978Y169926
X175260Y128016
X171958Y155321
X168148Y119761
X169418Y119761
X170688Y119761
X156718Y140716
X157988Y140716
X156718Y139446
X157988Y139446
X150368Y144526
X150368Y145796
X150368Y147066
X150368Y148336
X159512Y118618
X158242Y119888
X172705Y151956
X186690Y150622
X186690Y148590
X155448Y140716
X155448Y139446
X169418Y135636
X23622Y6350
X150622Y164084
X154940Y157734
X154940Y162179
X155956Y158242
X155956Y160020
X152146Y159004
X160782Y160020
X155194Y164592
X182245Y129032
X197104Y160020
X191262Y150114
X193294Y147320
X202692Y156972
X200660Y157734
X182372Y159131
X163322Y167386
X158496Y172466
X205740Y154940
X207772Y154940
X207772Y157480
X207772Y151638
X157734Y121285
X155448Y121285
X155194Y145796
X196088Y120650
X182626Y154432
X164338Y131318
X162052Y155448
X167894Y167640
X197358Y167894
X210058Y168656
X156464Y172466
X205232Y131064
X164084Y130302
X160528Y155448
X157480Y172466
X199771Y165608
X189738Y127508
X160782Y161290
X171958Y162560
X194818Y172212
X170434Y164846
X207264Y166878
X204978Y135382
X207518Y172212
X160782Y163322
X173736Y158877
X188214Y171196
X208788Y147066
X210058Y171196
X212598Y168402
X188849Y132715
X189738Y157988
X204978Y148336
X207264Y147320
X202946Y147320
X201676Y147320
X199136Y146812
X200406Y147320
X194818Y145796
X203962Y154432
X184404Y163068
X190754Y132080
X155194Y143510
X195580Y137922
X197358Y165608
X175514Y168402
X198374Y139700
X170434Y167386
X155194Y147066
X178054Y169164
X200152Y137668
X199898Y126238
X199898Y129286
X155194Y149098
X197358Y148336
X192532Y166878
X196088Y161036
X195580Y147574
X192532Y165608
X193018Y144272
X175514Y164846
X193294Y164084
X175514Y140462
X189738Y160020
X190754Y149098
X194310Y136652
X195326Y165608
X198628Y165608
X176428Y130556
X180848Y131826
X180848Y135636
X178816Y143764
X177038Y138176
X177038Y145796
X178562Y133350
X180848Y139446
X152908Y169926
X186944Y145034
X175768Y143256
X175260Y150622
X180848Y148082
X180848Y140716
X177038Y139192
X179324Y129032
X207518Y159766
X205486Y165100
X207518Y165100
X166370Y131572
X189738Y120650
X196088Y125476
X189738Y125476
X192786Y137922
X182626Y137160
X182626Y133096
X182626Y143002
X174498Y135001
X179070Y145796
X186944Y143764
X177038Y136398
X177038Y129286
X186563Y129286
X159258Y127508
X164846Y156210
X183134Y165608
X207518Y131826
X155194Y144526
X155448Y119888
X5080Y182118
X3048Y7620
X4318Y7620
X33020Y204724
X23622Y183134
X3048Y184404
X4318Y184404
X1778Y184404
X10414Y177546
X7620Y177546
X18796Y212090
X11684Y223266
X2540Y232664
X2540Y233934
X5080Y233934
X5080Y232664
X5080Y231394
X6350Y231394
X20193Y208788
X38862Y208534
X59690Y203454
X59690Y202184
X59690Y200914
X59690Y199644
X59690Y198374
X59690Y197104
X59690Y195834
X54610Y198374
X54610Y197104
X54610Y195834
X57150Y198374
X57150Y197104
X57150Y195834
X57150Y202184
X57150Y200914
X57150Y203454
X7366Y222250
X8255Y214249
X8255Y215519
X24130Y216789
X24130Y218059
X41910Y188214
X48260Y188214
X46990Y188214
X39370Y192024
X39370Y193294
X39370Y198374
X41910Y193294
X39370Y197104
X16510Y195834
X15240Y195834
X13970Y195834
X57150Y216154
X52070Y219964
X59690Y228854
X39116Y220980
X43180Y220980
X32766Y226314
X30226Y226314
X35306Y226314
X54610Y228854
X57150Y228854
X27432Y186944
X24130Y214249
X20320Y178689
X21590Y178689
X22860Y178689
X8890Y199644
X10160Y199644
X8890Y198374
X10160Y198374
X2540Y203454
X2540Y204724
X2540Y205994
X2540Y207264
X11684Y177546
X10414Y178816
X24877Y210883
X38862Y209550
X38862Y207518
X7620Y199644
X7620Y198374
X21590Y194564
X1778Y7620
X2794Y223012
X7112Y216662
X7112Y221107
X8128Y217170
X8128Y218948
X4318Y217932
X12954Y218948
X7366Y223520
X34417Y187960
X49276Y218948
X43434Y209042
X45466Y206248
X54864Y215900
X52832Y216662
X34544Y218059
X15494Y226314
X10668Y231394
X57912Y213868
X59944Y213868
X59944Y216408
X59944Y210566
X9906Y180213
X7620Y180213
X7366Y204724
X48260Y179578
X34798Y213360
X16510Y190246
X14224Y214376
X20066Y226568
X49530Y226822
X62230Y227584
X8636Y231394
X57404Y189992
X16256Y189230
X12700Y214376
X9652Y231394
X51943Y224536
X41910Y186436
X12954Y220218
X24130Y221488
X46990Y231140
X22606Y223774
X59436Y225806
X57150Y194310
X59690Y231140
X12954Y222250
X25908Y217805
X40386Y230124
X60960Y205994
X62230Y230124
X64770Y227330
X41021Y191643
X41910Y216916
X57150Y207264
X59436Y206248
X55118Y206248
X53848Y206248
X51308Y205740
X52578Y206248
X46990Y204724
X56134Y213360
X36576Y221996
X42926Y191008
X7366Y202438
X47752Y196850
X49530Y224536
X27686Y227330
X50546Y198628
X22606Y226314
X7366Y205994
X30226Y228092
X52324Y196596
X52070Y185166
X52070Y188214
X7366Y208026
X49530Y207264
X44704Y225806
X48260Y219964
X47752Y206502
X44704Y224536
X45190Y203200
X27686Y223774
X45466Y223012
X27686Y199390
X41910Y218948
X42926Y208026
X46482Y195580
X47498Y224536
X50800Y224536
X28600Y189484
X33020Y190754
X33020Y194564
X30988Y202692
X29210Y197104
X29210Y204724
X30734Y192278
X33020Y198374
X5080Y228854
X39116Y203962
X27940Y202184
X27432Y209550
X33020Y207010
X33020Y199644
X29210Y198120
X31496Y187960
X59690Y218694
X57658Y224028
X59690Y224028
X18542Y190500
X41910Y179578
X48260Y184404
X41910Y184404
X44958Y196850
X34798Y196088
X34798Y192024
X34798Y201930
X26670Y193929
X31242Y204724
X39116Y202692
X29210Y195326
X29210Y188214
X38735Y188214
X11430Y186436
X17018Y215138
X35306Y224536
X59690Y190754
X7366Y203454
X7620Y178816
X78994Y182118
X10414Y762
X7620Y762
X106934Y204724
X97536Y183134
X76962Y184404
X78232Y184404
X75692Y184404
X84328Y177546
X81534Y177546
X92710Y212090
X85598Y223266
X76454Y232664
X76454Y233934
X78994Y233934
X78994Y232664
X78994Y231394
X80264Y231394
X94107Y208788
X112776Y208534
X133604Y203454
X133604Y202184
X133604Y200914
X133604Y199644
X133604Y198374
X133604Y197104
X133604Y195834
X128524Y198374
X128524Y197104
X128524Y195834
X131064Y198374
X131064Y197104
X131064Y195834
X131064Y202184
X131064Y200914
X131064Y203454
X81280Y222250
X82169Y214249
X82169Y215519
X98044Y216789
X98044Y218059
X115824Y188214
X122174Y188214
X120904Y188214
X113284Y192024
X113284Y193294
X113284Y198374
X115824Y193294
X113284Y197104
X90424Y195834
X89154Y195834
X87884Y195834
X131064Y216154
X125984Y219964
X133604Y228854
X113030Y220980
X117094Y220980
X106680Y226314
X104140Y226314
X109220Y226314
X128524Y228854
X131064Y228854
X101346Y186944
X98044Y214249
X94234Y178689
X95504Y178689
X96774Y178689
X82804Y199644
X84074Y199644
X82804Y198374
X84074Y198374
X76454Y203454
X76454Y204724
X76454Y205994
X76454Y207264
X85598Y177546
X84328Y178816
X98791Y210883
X112776Y209550
X112776Y207518
X81534Y199644
X81534Y198374
X95504Y194564
X18796Y35306
X76708Y223012
X81026Y216662
X81026Y221107
X82042Y217170
X82042Y218948
X78232Y217932
X86868Y218948
X81280Y223520
X108331Y187960
X123190Y218948
X117348Y209042
X119380Y206248
X128778Y215900
X126746Y216662
X108458Y218059
X89408Y226314
X84582Y231394
X131826Y213868
X133858Y213868
X133858Y216408
X133858Y210566
X83820Y180213
X81534Y180213
X81280Y204724
X122174Y179578
X108712Y213360
X90424Y190246
X88138Y214376
X93980Y226568
X123444Y226822
X136144Y227584
X82550Y231394
X131318Y189992
X90170Y189230
X86614Y214376
X83566Y231394
X125857Y224536
X115824Y186436
X86868Y220218
X98044Y221488
X120904Y231140
X96520Y223774
X133350Y225806
X131064Y194310
X133604Y231140
X86868Y222250
X99822Y217805
X114300Y230124
X134874Y205994
X136144Y230124
X138684Y227330
X114935Y191643
X115824Y216916
X131064Y207264
X133350Y206248
X129032Y206248
X127762Y206248
X125222Y205740
X126492Y206248
X120904Y204724
X130048Y213360
X110490Y221996
X116840Y191008
X81280Y202438
X121666Y196850
X123444Y224536
X101600Y227330
X124460Y198628
X96520Y226314
X81280Y205994
X104140Y228092
X126238Y196596
X125984Y185166
X125984Y188214
X81280Y208026
X123444Y207264
X118618Y225806
X122174Y219964
X121666Y206502
X118618Y224536
X119104Y203200
X101600Y223774
X119380Y223012
X101600Y199390
X115824Y218948
X116840Y208026
X120396Y195580
X121412Y224536
X124714Y224536
X102514Y189484
X106934Y190754
X106934Y194564
X104902Y202692
X103124Y197104
X103124Y204724
X104648Y192278
X106934Y198374
X78994Y228854
X113030Y203962
X101854Y202184
X101346Y209550
X106934Y207010
X106934Y199644
X103124Y198120
X105410Y187960
X133604Y218694
X131572Y224028
X133604Y224028
X92456Y190500
X115824Y179578
X122174Y184404
X115824Y184404
X118872Y196850
X108712Y196088
X108712Y192024
X108712Y201930
X100584Y193929
X105156Y204724
X113030Y202692
X103124Y195326
X103124Y188214
X112649Y188214
X85344Y186436
X90932Y215138
X109220Y224536
X133604Y190754
X81280Y203454
X81534Y178816
X152908Y182118
X11684Y46482
X2540Y55880
X180848Y204724
X171450Y183134
X150876Y184404
X152146Y184404
X149606Y184404
X158242Y177546
X155448Y177546
X166624Y212090
X159512Y223266
X150368Y232664
X150368Y233934
X152908Y233934
X152908Y232664
X152908Y231394
X154178Y231394
X168021Y208788
X186690Y208534
X207518Y203454
X207518Y202184
X207518Y200914
X207518Y199644
X207518Y198374
X207518Y197104
X207518Y195834
X202438Y198374
X202438Y197104
X202438Y195834
X204978Y198374
X204978Y197104
X204978Y195834
X204978Y202184
X204978Y200914
X204978Y203454
X155194Y222250
X156083Y214249
X156083Y215519
X171958Y216789
X171958Y218059
X189738Y188214
X196088Y188214
X194818Y188214
X187198Y192024
X187198Y193294
X187198Y198374
X189738Y193294
X187198Y197104
X164338Y195834
X163068Y195834
X161798Y195834
X204978Y216154
X199898Y219964
X207518Y228854
X186944Y220980
X191008Y220980
X180594Y226314
X178054Y226314
X183134Y226314
X202438Y228854
X204978Y228854
X175260Y186944
X171958Y214249
X168148Y178689
X169418Y178689
X170688Y178689
X156718Y199644
X157988Y199644
X156718Y198374
X157988Y198374
X150368Y203454
X150368Y204724
X150368Y205994
X150368Y207264
X159512Y177546
X158242Y178816
X172705Y210883
X186690Y209550
X186690Y207518
X155448Y199644
X155448Y198374
X169418Y194564
X2540Y57150
X150622Y223012
X154940Y216662
X154940Y221107
X155956Y217170
X155956Y218948
X152146Y217932
X160782Y218948
X155194Y223520
X182245Y187960
X197104Y218948
X191262Y209042
X193294Y206248
X202692Y215900
X200660Y216662
X182372Y218059
X163322Y226314
X158496Y231394
X205740Y213868
X207772Y213868
X207772Y216408
X207772Y210566
X157734Y180213
X155448Y180213
X155194Y204724
X196088Y179578
X182626Y213360
X164338Y190246
X162052Y214376
X167894Y226568
X197358Y226822
X210058Y227584
X5080Y57150
X205232Y189992
X164084Y189230
X160528Y214376
X157480Y231394
X199771Y224536
X189738Y186436
X160782Y220218
X171958Y221488
X194818Y231140
X170434Y223774
X207264Y225806
X204978Y194310
X207518Y231140
X160782Y222250
X173736Y217805
X188214Y230124
X208788Y205994
X210058Y230124
X212598Y227330
X188849Y191643
X189738Y216916
X204978Y207264
X207264Y206248
X202946Y206248
X201676Y206248
X199136Y205740
X200406Y206248
X194818Y204724
X203962Y213360
X184404Y221996
X190754Y191008
X155194Y202438
X195580Y196850
X197358Y224536
X175514Y227330
X198374Y198628
X170434Y226314
X155194Y205994
X178054Y228092
X200152Y196596
X199898Y185166
X199898Y188214
X155194Y208026
X197358Y207264
X192532Y225806
X196088Y219964
X195580Y206502
X192532Y224536
X193018Y203200
X175514Y223774
X193294Y223012
X175514Y199390
X189738Y218948
X190754Y208026
X194310Y195580
X195326Y224536
X198628Y224536
X176428Y189484
X180848Y190754
X180848Y194564
X178816Y202692
X177038Y197104
X177038Y204724
X178562Y192278
X180848Y198374
X152908Y228854
X186944Y203962
X175768Y202184
X175260Y209550
X180848Y207010
X180848Y199644
X177038Y198120
X179324Y187960
X207518Y218694
X205486Y224028
X207518Y224028
X166370Y190500
X189738Y179578
X196088Y184404
X189738Y184404
X192786Y196850
X182626Y196088
X182626Y192024
X182626Y201930
X174498Y193929
X179070Y204724
X186944Y202692
X177038Y195326
X177038Y188214
X186563Y188214
X159258Y186436
X164846Y215138
X183134Y224536
X207518Y190754
X155194Y203454
X155448Y178816
X5080Y55880
X5080Y54610
X6350Y54610
X20193Y32004
X38862Y31750
X59690Y26670
X59690Y25400
X59690Y24130
X59690Y22860
X59690Y21590
X59690Y20320
X59690Y19050
X54610Y21590
X54610Y20320
X54610Y19050
X57150Y21590
X57150Y20320
X57150Y19050
X57150Y25400
X57150Y24130
X57150Y26670
X7366Y45466
X8255Y37465
X8255Y38735
X24130Y40005
X24130Y41275
X41910Y11430
X48260Y11430
X46990Y11430
X39370Y15240
X39370Y16510
X39370Y21590
X41910Y16510
X39370Y20320
X16510Y19050
X15240Y19050
X13970Y19050
X57150Y39370
X52070Y43180
X59690Y52070
X39116Y44196
X43180Y44196
X32766Y49530
X30226Y49530
X35306Y49530
X54610Y52070
X57150Y52070
X27432Y10160
X24130Y37465
X20320Y1905
X21590Y1905
X22860Y1905
X8890Y22860
X10160Y22860
X8890Y21590
X10160Y21590
X2540Y26670
X2540Y27940
X2540Y29210
X2540Y30480
X11684Y762
X10414Y2032
X24877Y34100
X38862Y32766
X38862Y30734
X7620Y22860
X7620Y21590
X21590Y17780
X2794Y46228
X7112Y39878
X7112Y44323
X8128Y40386
X8128Y42164
X4318Y41148
X12954Y42164
X7366Y46736
X34417Y11176
X49276Y42164
X43434Y32258
X45466Y29464
X54864Y39116
X52832Y39878
X34544Y41275
X15494Y49530
X10668Y54610
X57912Y37084
X59944Y37084
X59944Y39624
X59944Y33782
X9906Y3429
X7620Y3429
X7366Y27940
X48260Y2794
X34798Y36576
X16510Y13462
X14224Y37592
X20066Y49784
X49530Y50038
X62230Y50800
X8636Y54610
X57404Y13208
X16256Y12446
X12700Y37592
X9652Y54610
X51943Y47752
X41910Y9652
X12954Y43434
X24130Y44704
X46990Y54356
X22606Y46990
X59436Y49022
X57150Y17526
X59690Y54356
X12954Y45466
X25908Y41021
X40386Y53340
X60960Y29210
X62230Y53340
X64770Y50546
X41021Y14859
X41910Y40132
X57150Y30480
X59436Y29464
X55118Y29464
X53848Y29464
X51308Y28956
X52578Y29464
X46990Y27940
X56134Y36576
X36576Y45212
X42926Y14224
X7366Y25654
X47752Y20066
X49530Y47752
X27686Y50546
X50546Y21844
X22606Y49530
X7366Y29210
X30226Y51308
X52324Y19812
X52070Y8382
X52070Y11430
X7366Y31242
X49530Y30480
X44704Y49022
X48260Y43180
X47752Y29718
X44704Y47752
X45190Y26416
X27686Y46990
X45466Y46228
X27686Y22606
X41910Y42164
X42926Y31242
X46482Y18796
X47498Y47752
X50800Y47752
X28600Y12700
X33020Y13970
X33020Y17780
X30988Y25908
X29210Y20320
X29210Y27940
X30734Y15494
X33020Y21590
X5080Y52070
X39116Y27178
X27940Y25400
X27432Y32766
X33020Y30226
X33020Y22860
X29210Y21336
X31496Y11176
X59690Y41910
X57658Y47244
X59690Y47244
X18542Y13716
X41910Y2794
X48260Y7620
X41910Y7620
X44958Y20066
X34798Y19304
X34798Y15240
X34798Y25146
X26670Y17145
X31242Y27940
X39116Y25908
X29210Y18542
X29210Y11430
X38735Y11430
X11430Y9652
X17018Y38354
X35306Y47752
X59690Y13970
X7366Y26670
X7620Y2032
X78994Y5334
X106934Y27940
X97536Y6350
X76962Y7620
X78232Y7620
X75692Y7620
X84328Y762
X81534Y762
X92710Y35306
X85598Y46482
X76454Y55880
X76454Y57150
X78994Y57150
X78994Y55880
X78994Y54610
X80264Y54610
X94107Y32004
X112776Y31750
X133604Y26670
X133604Y25400
X133604Y24130
X133604Y22860
X133604Y21590
X133604Y20320
X133604Y19050
X128524Y21590
X128524Y20320
X128524Y19050
X131064Y21590
X131064Y20320
X131064Y19050
X131064Y25400
X131064Y24130
X131064Y26670
X81280Y45466
X82169Y37465
X82169Y38735
X98044Y40005
X98044Y41275
X115824Y11430
X122174Y11430
X120904Y11430
X113284Y15240
X113284Y16510
X113284Y21590
X115824Y16510
X113284Y20320
X90424Y19050
X89154Y19050
X87884Y19050
X131064Y39370
X125984Y43180
X133604Y52070
X113030Y44196
X117094Y44196
X106680Y49530
X104140Y49530
X109220Y49530
X128524Y52070
X131064Y52070
X101346Y10160
X98044Y37465
X94234Y1905
X95504Y1905
X96774Y1905
X82804Y22860
X84074Y22860
X82804Y21590
X84074Y21590
X76454Y26670
X76454Y27940
X76454Y29210
X76454Y30480
X85598Y762
X84328Y2032
X98791Y34100
X112776Y32766
X112776Y30734
X81534Y22860
X81534Y21590
X95504Y17780
X76708Y46228
X81026Y39878
X81026Y44323
X82042Y40386
X82042Y42164
X78232Y41148
X86868Y42164
X81280Y46736
X108331Y11176
X123190Y42164
X117348Y32258
X119380Y29464
X128778Y39116
X126746Y39878
X108458Y41275
X89408Y49530
X84582Y54610
X131826Y37084
X133858Y37084
X133858Y39624
X133858Y33782
X83820Y3429
X81534Y3429
X81280Y27940
X122174Y2794
X108712Y36576
X90424Y13462
X88138Y37592
X93980Y49784
X123444Y50038
X136144Y50800
X82550Y54610
X131318Y13208
X90170Y12446
X121666Y137922
X86614Y37592
X83566Y54610
X125857Y47752
X115824Y9652
X86868Y43434
X98044Y44704
X120904Y54356
X96520Y46990
X133350Y49022
X131064Y17526
X133604Y54356
X86868Y45466
X99822Y41021
X114300Y53340
X134874Y29210
X136144Y53340
X138684Y50546
X114935Y14859
X115824Y40132
X131064Y30480
X133350Y29464
X129032Y29464
X127762Y29464
X125222Y28956
X126492Y29464
X120904Y27940
X130048Y36576
X110490Y45212
X116840Y14224
X81280Y25654
X121666Y20066
X123444Y47752
X101600Y50546
X124460Y21844
X96520Y49530
X81280Y29210
X104140Y51308
X126238Y19812
X125984Y8382
X125984Y11430
X81280Y31242
X123444Y30480
X118618Y49022
X122174Y43180
X121666Y29718
X118618Y47752
X119104Y26416
X101600Y46990
X119380Y46228
X101600Y22606
X115824Y42164
X116840Y31242
X120396Y18796
X121412Y47752
X124714Y47752
X102514Y12700
X106934Y13970
X106934Y17780
X104902Y25908
X103124Y20320
X103124Y27940
X104648Y15494
X106934Y21590
X78994Y52070
X113030Y27178
X101854Y25400
X101346Y32766
X106934Y30226
X106934Y22860
X103124Y21336
X105410Y11176
X133604Y41910
X131572Y47244
X133604Y47244
X92456Y13716
X115824Y2794
X122174Y7620
X115824Y7620
X108712Y19304
X108712Y15240
X108712Y25146
X100584Y17145
X105156Y27940
X113030Y25908
X103124Y18542
X103124Y11430
X112649Y11430
X85344Y9652
X90932Y38354
X109220Y47752
X133604Y13970
X81280Y26670
X81534Y2032
X152908Y5334
X180848Y27940
X171450Y6350
X150876Y7620
X152146Y7620
X149606Y7620
X158242Y762
X155448Y762
X166624Y35306
X159512Y46482
X150368Y55880
X150368Y57150
X152908Y57150
X152908Y55880
X152908Y54610
X154178Y54610
X168021Y32004
X186690Y31750
X207518Y26670
X207518Y25400
X207518Y24130
X207518Y22860
X207518Y21590
X207518Y20320
X207518Y19050
X202438Y21590
X202438Y20320
X202438Y19050
X204978Y21590
X204978Y20320
X204978Y19050
X204978Y25400
X204978Y24130
X204978Y26670
X155194Y45466
X156083Y37465
X156083Y38735
X171958Y40005
X171958Y41275
X189738Y11430
X196088Y11430
X194818Y11430
X187198Y15240
X187198Y16510
X187198Y21590
X189738Y16510
X187198Y20320
X164338Y19050
X163068Y19050
X161798Y19050
X204978Y39370
X199898Y43180
X207518Y52070
X186944Y44196
X191008Y44196
X180594Y49530
X178054Y49530
X183134Y49530
X202438Y52070
X204978Y52070
X175260Y10160
X171958Y37465
X168148Y1905
X169418Y1905
X170688Y1905
X156718Y22860
X157988Y22860
X156718Y21590
X157988Y21590
X150368Y26670
X150368Y27940
X150368Y29210
X150368Y30480
X159512Y762
X158242Y2032
X172705Y34100
X186690Y32766
X186690Y30734
X155448Y22860
X155448Y21590
X169418Y17780
X150622Y46228
X154940Y39878
X154940Y44323
X155956Y40386
X155956Y42164
X152146Y41148
X160782Y42164
X155194Y46736
X182245Y11176
X197104Y42164
X191262Y32258
X193294Y29464
X202692Y39116
X200660Y39878
X182372Y41275
X163322Y49530
X158496Y54610
X205740Y37084
X207772Y37084
X207772Y39624
X207772Y33782
X157734Y3429
X155448Y3429
X155194Y27940
X196088Y2794
X182626Y36576
X164338Y13462
X162052Y37592
X167894Y49784
X197358Y50038
X210058Y50800
X156464Y54610
X205232Y13208
X164084Y12446
X160528Y37592
X157480Y54610
X199771Y47752
X189738Y9652
X160782Y43434
X171958Y44704
X194818Y54356
X170434Y46990
X207264Y49022
X204978Y17526
X207518Y54356
X160782Y45466
X173736Y41021
X188214Y53340
X208788Y29210
X210058Y53340
X212598Y50546
X188849Y14859
X189738Y40132
X204978Y30480
X207264Y29464
X202946Y29464
X201676Y29464
X199136Y28956
X200406Y29464
X194818Y27940
X203962Y36576
X184404Y45212
X190754Y14224
X155194Y25654
X195580Y20066
X197358Y47752
X175514Y50546
X198374Y21844
X170434Y49530
X155194Y29210
X178054Y51308
X200152Y19812
X199898Y8382
X199898Y11430
X155194Y31242
X197358Y30480
X192532Y49022
X196088Y43180
X195580Y29718
X192532Y47752
X193018Y26416
X175514Y46990
X193294Y46228
X175514Y22606
X189738Y42164
X190754Y31242
X194310Y18796
X195326Y47752
X198628Y47752
X176428Y12700
X180848Y13970
X180848Y17780
X178816Y25908
X177038Y20320
X177038Y27940
X178562Y15494
X180848Y21590
X152908Y52070
X186944Y27178
X175768Y25400
X175260Y32766
X180848Y30226
X180848Y22860
X177038Y21336
X179324Y11176
X207518Y41910
X205486Y47244
X207518Y47244
X166370Y13716
X189738Y2794
X196088Y7620
X189738Y7620
X192786Y20066
X182626Y19304
X182626Y15240
X182626Y25146
X174498Y17145
X179070Y27940
X186944Y25908
X177038Y18542
X177038Y11430
X186563Y11430
X159258Y9652
X164846Y38354
X183134Y47752
X207518Y13970
X155194Y26670
X155448Y2032
X5080Y64262
X33020Y86868
X23622Y65278
X3048Y66548
X4318Y66548
X1778Y66548
X10414Y59690
X7620Y59690
X18796Y94234
X11684Y105410
X2540Y114808
X2540Y116078
X5080Y116078
X5080Y114808
X5080Y113538
X6350Y113538
X20193Y90932
X38862Y90678
X59690Y85598
X59690Y84328
X59690Y83058
X59690Y81788
X59690Y80518
X59690Y79248
X59690Y77978
X54610Y80518
X54610Y79248
X54610Y77978
X57150Y80518
X57150Y79248
X57150Y77978
X57150Y84328
X57150Y83058
X57150Y85598
X7366Y104394
X8255Y96393
X8255Y97663
X24130Y98933
X24130Y100203
X41910Y70358
X48260Y70358
X46990Y70358
X39370Y74168
X39370Y75438
X39370Y80518
X41910Y75438
X39370Y79248
X16510Y77978
X15240Y77978
X13970Y77978
X57150Y98298
X52070Y102108
X59690Y110998
X39116Y103124
X43180Y103124
X32766Y108458
X30226Y108458
X35306Y108458
X54610Y110998
X57150Y110998
X27432Y69088
X24130Y96393
X20320Y60833
X21590Y60833
X22860Y60833
X8890Y81788
X10160Y81788
X8890Y80518
X10160Y80518
X2540Y85598
X2540Y86868
X2540Y88138
X2540Y89408
X11684Y59690
X10414Y60960
X24877Y93027
X38862Y91694
X38862Y89662
X7620Y81788
X7620Y80518
X21590Y76708
X2794Y105156
X7112Y98806
X7112Y103251
X8128Y99314
X8128Y101092
X4318Y100076
X12954Y101092
X7366Y105664
X34417Y70104
X49276Y101092
X43434Y91186
X45466Y88392
X54864Y98044
X52832Y98806
X34544Y100203
X15494Y108458
X10668Y113538
X57912Y96012
X59944Y96012
X59944Y98552
X59944Y92710
X9906Y62357
X7620Y62357
X7366Y86868
X156464Y231394
M30