G04 EAGLE Gerber RS-274X export*
G75*
%MOMM*%
%FSLAX34Y34*%
%LPD*%
%INSoldermask Bottom*%
%IPPOS*%
%AMOC8*
5,1,8,0,0,1.08239X$1,22.5*%
G01*
%ADD10C,3.505200*%
%ADD11C,0.853200*%
%ADD12R,3.203200X1.103200*%
%ADD13R,0.838200X1.473200*%
%ADD14C,2.082800*%
%ADD15C,0.990600*%
%ADD16C,1.203200*%
%ADD17R,1.473200X0.863600*%
%ADD18R,1.473200X0.838200*%
%ADD19C,2.235200*%
%ADD20C,1.270000*%
%ADD21C,1.703200*%

G36*
X1319595Y452132D02*
X1319595Y452132D01*
X1319661Y452134D01*
X1319704Y452152D01*
X1319751Y452160D01*
X1319808Y452194D01*
X1319868Y452219D01*
X1319903Y452250D01*
X1319944Y452275D01*
X1319986Y452326D01*
X1320034Y452370D01*
X1320056Y452412D01*
X1320085Y452449D01*
X1320106Y452511D01*
X1320137Y452570D01*
X1320145Y452624D01*
X1320157Y452661D01*
X1320156Y452701D01*
X1320164Y452755D01*
X1320164Y456565D01*
X1320153Y456630D01*
X1320151Y456696D01*
X1320133Y456739D01*
X1320125Y456786D01*
X1320091Y456843D01*
X1320066Y456903D01*
X1320035Y456938D01*
X1320010Y456979D01*
X1319959Y457021D01*
X1319915Y457069D01*
X1319873Y457091D01*
X1319836Y457120D01*
X1319774Y457141D01*
X1319715Y457172D01*
X1319661Y457180D01*
X1319624Y457192D01*
X1319584Y457191D01*
X1319530Y457199D01*
X1316990Y457199D01*
X1316925Y457188D01*
X1316859Y457186D01*
X1316816Y457168D01*
X1316769Y457160D01*
X1316712Y457126D01*
X1316652Y457101D01*
X1316617Y457070D01*
X1316576Y457045D01*
X1316535Y456994D01*
X1316486Y456950D01*
X1316464Y456908D01*
X1316435Y456871D01*
X1316414Y456809D01*
X1316383Y456750D01*
X1316375Y456696D01*
X1316363Y456659D01*
X1316363Y456655D01*
X1316363Y456654D01*
X1316364Y456619D01*
X1316356Y456565D01*
X1316356Y452755D01*
X1316367Y452690D01*
X1316369Y452624D01*
X1316387Y452581D01*
X1316395Y452534D01*
X1316429Y452477D01*
X1316454Y452417D01*
X1316485Y452382D01*
X1316510Y452341D01*
X1316561Y452300D01*
X1316605Y452251D01*
X1316647Y452229D01*
X1316684Y452200D01*
X1316746Y452179D01*
X1316805Y452148D01*
X1316859Y452140D01*
X1316896Y452128D01*
X1316936Y452129D01*
X1316990Y452121D01*
X1319530Y452121D01*
X1319595Y452132D01*
G37*
G36*
X1294195Y452132D02*
X1294195Y452132D01*
X1294261Y452134D01*
X1294304Y452152D01*
X1294351Y452160D01*
X1294408Y452194D01*
X1294468Y452219D01*
X1294503Y452250D01*
X1294544Y452275D01*
X1294586Y452326D01*
X1294634Y452370D01*
X1294656Y452412D01*
X1294685Y452449D01*
X1294706Y452511D01*
X1294737Y452570D01*
X1294745Y452624D01*
X1294757Y452661D01*
X1294756Y452701D01*
X1294764Y452755D01*
X1294764Y456565D01*
X1294753Y456630D01*
X1294751Y456696D01*
X1294733Y456739D01*
X1294725Y456786D01*
X1294691Y456843D01*
X1294666Y456903D01*
X1294635Y456938D01*
X1294610Y456979D01*
X1294559Y457021D01*
X1294515Y457069D01*
X1294473Y457091D01*
X1294436Y457120D01*
X1294374Y457141D01*
X1294315Y457172D01*
X1294261Y457180D01*
X1294224Y457192D01*
X1294184Y457191D01*
X1294130Y457199D01*
X1291590Y457199D01*
X1291525Y457188D01*
X1291459Y457186D01*
X1291416Y457168D01*
X1291369Y457160D01*
X1291312Y457126D01*
X1291252Y457101D01*
X1291217Y457070D01*
X1291176Y457045D01*
X1291135Y456994D01*
X1291086Y456950D01*
X1291064Y456908D01*
X1291035Y456871D01*
X1291014Y456809D01*
X1290983Y456750D01*
X1290975Y456696D01*
X1290963Y456659D01*
X1290963Y456655D01*
X1290963Y456654D01*
X1290964Y456619D01*
X1290956Y456565D01*
X1290956Y452755D01*
X1290967Y452690D01*
X1290969Y452624D01*
X1290987Y452581D01*
X1290995Y452534D01*
X1291029Y452477D01*
X1291054Y452417D01*
X1291085Y452382D01*
X1291110Y452341D01*
X1291161Y452300D01*
X1291205Y452251D01*
X1291247Y452229D01*
X1291284Y452200D01*
X1291346Y452179D01*
X1291405Y452148D01*
X1291459Y452140D01*
X1291496Y452128D01*
X1291536Y452129D01*
X1291590Y452121D01*
X1294130Y452121D01*
X1294195Y452132D01*
G37*
G36*
X2053655Y452132D02*
X2053655Y452132D01*
X2053721Y452134D01*
X2053764Y452152D01*
X2053811Y452160D01*
X2053868Y452194D01*
X2053928Y452219D01*
X2053963Y452250D01*
X2054004Y452275D01*
X2054046Y452326D01*
X2054094Y452370D01*
X2054116Y452412D01*
X2054145Y452449D01*
X2054166Y452511D01*
X2054197Y452570D01*
X2054205Y452624D01*
X2054217Y452661D01*
X2054216Y452701D01*
X2054224Y452755D01*
X2054224Y456565D01*
X2054213Y456630D01*
X2054211Y456696D01*
X2054193Y456739D01*
X2054185Y456786D01*
X2054151Y456843D01*
X2054126Y456903D01*
X2054095Y456938D01*
X2054070Y456979D01*
X2054019Y457021D01*
X2053975Y457069D01*
X2053933Y457091D01*
X2053896Y457120D01*
X2053834Y457141D01*
X2053775Y457172D01*
X2053721Y457180D01*
X2053684Y457192D01*
X2053644Y457191D01*
X2053590Y457199D01*
X2051050Y457199D01*
X2050985Y457188D01*
X2050919Y457186D01*
X2050876Y457168D01*
X2050829Y457160D01*
X2050772Y457126D01*
X2050712Y457101D01*
X2050677Y457070D01*
X2050636Y457045D01*
X2050595Y456994D01*
X2050546Y456950D01*
X2050524Y456908D01*
X2050495Y456871D01*
X2050474Y456809D01*
X2050443Y456750D01*
X2050435Y456696D01*
X2050423Y456659D01*
X2050423Y456655D01*
X2050423Y456654D01*
X2050424Y456619D01*
X2050416Y456565D01*
X2050416Y452755D01*
X2050427Y452690D01*
X2050429Y452624D01*
X2050447Y452581D01*
X2050455Y452534D01*
X2050489Y452477D01*
X2050514Y452417D01*
X2050545Y452382D01*
X2050570Y452341D01*
X2050621Y452300D01*
X2050665Y452251D01*
X2050707Y452229D01*
X2050744Y452200D01*
X2050806Y452179D01*
X2050865Y452148D01*
X2050919Y452140D01*
X2050956Y452128D01*
X2050996Y452129D01*
X2051050Y452121D01*
X2053590Y452121D01*
X2053655Y452132D01*
G37*
G36*
X560135Y452132D02*
X560135Y452132D01*
X560201Y452134D01*
X560244Y452152D01*
X560291Y452160D01*
X560348Y452194D01*
X560408Y452219D01*
X560443Y452250D01*
X560484Y452275D01*
X560526Y452326D01*
X560574Y452370D01*
X560596Y452412D01*
X560625Y452449D01*
X560646Y452511D01*
X560677Y452570D01*
X560685Y452624D01*
X560697Y452661D01*
X560696Y452701D01*
X560704Y452755D01*
X560704Y456565D01*
X560693Y456630D01*
X560691Y456696D01*
X560673Y456739D01*
X560665Y456786D01*
X560631Y456843D01*
X560606Y456903D01*
X560575Y456938D01*
X560550Y456979D01*
X560499Y457021D01*
X560455Y457069D01*
X560413Y457091D01*
X560376Y457120D01*
X560314Y457141D01*
X560255Y457172D01*
X560201Y457180D01*
X560164Y457192D01*
X560124Y457191D01*
X560070Y457199D01*
X557530Y457199D01*
X557465Y457188D01*
X557399Y457186D01*
X557356Y457168D01*
X557309Y457160D01*
X557252Y457126D01*
X557192Y457101D01*
X557157Y457070D01*
X557116Y457045D01*
X557075Y456994D01*
X557026Y456950D01*
X557004Y456908D01*
X556975Y456871D01*
X556954Y456809D01*
X556923Y456750D01*
X556915Y456696D01*
X556903Y456659D01*
X556903Y456655D01*
X556903Y456654D01*
X556904Y456619D01*
X556896Y456565D01*
X556896Y452755D01*
X556907Y452690D01*
X556909Y452624D01*
X556927Y452581D01*
X556935Y452534D01*
X556969Y452477D01*
X556994Y452417D01*
X557025Y452382D01*
X557050Y452341D01*
X557101Y452300D01*
X557145Y452251D01*
X557187Y452229D01*
X557224Y452200D01*
X557286Y452179D01*
X557345Y452148D01*
X557399Y452140D01*
X557436Y452128D01*
X557476Y452129D01*
X557530Y452121D01*
X560070Y452121D01*
X560135Y452132D01*
G37*
G36*
X2079055Y452132D02*
X2079055Y452132D01*
X2079121Y452134D01*
X2079164Y452152D01*
X2079211Y452160D01*
X2079268Y452194D01*
X2079328Y452219D01*
X2079363Y452250D01*
X2079404Y452275D01*
X2079446Y452326D01*
X2079494Y452370D01*
X2079516Y452412D01*
X2079545Y452449D01*
X2079566Y452511D01*
X2079597Y452570D01*
X2079605Y452624D01*
X2079617Y452661D01*
X2079616Y452701D01*
X2079624Y452755D01*
X2079624Y456565D01*
X2079613Y456630D01*
X2079611Y456696D01*
X2079593Y456739D01*
X2079585Y456786D01*
X2079551Y456843D01*
X2079526Y456903D01*
X2079495Y456938D01*
X2079470Y456979D01*
X2079419Y457021D01*
X2079375Y457069D01*
X2079333Y457091D01*
X2079296Y457120D01*
X2079234Y457141D01*
X2079175Y457172D01*
X2079121Y457180D01*
X2079084Y457192D01*
X2079044Y457191D01*
X2078990Y457199D01*
X2076450Y457199D01*
X2076385Y457188D01*
X2076319Y457186D01*
X2076276Y457168D01*
X2076229Y457160D01*
X2076172Y457126D01*
X2076112Y457101D01*
X2076077Y457070D01*
X2076036Y457045D01*
X2075995Y456994D01*
X2075946Y456950D01*
X2075924Y456908D01*
X2075895Y456871D01*
X2075874Y456809D01*
X2075843Y456750D01*
X2075835Y456696D01*
X2075823Y456659D01*
X2075823Y456655D01*
X2075823Y456654D01*
X2075824Y456619D01*
X2075816Y456565D01*
X2075816Y452755D01*
X2075827Y452690D01*
X2075829Y452624D01*
X2075847Y452581D01*
X2075855Y452534D01*
X2075889Y452477D01*
X2075914Y452417D01*
X2075945Y452382D01*
X2075970Y452341D01*
X2076021Y452300D01*
X2076065Y452251D01*
X2076107Y452229D01*
X2076144Y452200D01*
X2076206Y452179D01*
X2076265Y452148D01*
X2076319Y452140D01*
X2076356Y452128D01*
X2076396Y452129D01*
X2076450Y452121D01*
X2078990Y452121D01*
X2079055Y452132D01*
G37*
G36*
X534735Y452132D02*
X534735Y452132D01*
X534801Y452134D01*
X534844Y452152D01*
X534891Y452160D01*
X534948Y452194D01*
X535008Y452219D01*
X535043Y452250D01*
X535084Y452275D01*
X535126Y452326D01*
X535174Y452370D01*
X535196Y452412D01*
X535225Y452449D01*
X535246Y452511D01*
X535277Y452570D01*
X535285Y452624D01*
X535297Y452661D01*
X535296Y452701D01*
X535304Y452755D01*
X535304Y456565D01*
X535293Y456630D01*
X535291Y456696D01*
X535273Y456739D01*
X535265Y456786D01*
X535231Y456843D01*
X535206Y456903D01*
X535175Y456938D01*
X535150Y456979D01*
X535099Y457021D01*
X535055Y457069D01*
X535013Y457091D01*
X534976Y457120D01*
X534914Y457141D01*
X534855Y457172D01*
X534801Y457180D01*
X534764Y457192D01*
X534724Y457191D01*
X534670Y457199D01*
X532130Y457199D01*
X532065Y457188D01*
X531999Y457186D01*
X531956Y457168D01*
X531909Y457160D01*
X531852Y457126D01*
X531792Y457101D01*
X531757Y457070D01*
X531716Y457045D01*
X531675Y456994D01*
X531626Y456950D01*
X531604Y456908D01*
X531575Y456871D01*
X531554Y456809D01*
X531523Y456750D01*
X531515Y456696D01*
X531503Y456659D01*
X531503Y456655D01*
X531503Y456654D01*
X531504Y456619D01*
X531496Y456565D01*
X531496Y452755D01*
X531507Y452690D01*
X531509Y452624D01*
X531527Y452581D01*
X531535Y452534D01*
X531569Y452477D01*
X531594Y452417D01*
X531625Y452382D01*
X531650Y452341D01*
X531701Y452300D01*
X531745Y452251D01*
X531787Y452229D01*
X531824Y452200D01*
X531886Y452179D01*
X531945Y452148D01*
X531999Y452140D01*
X532036Y452128D01*
X532076Y452129D01*
X532130Y452121D01*
X534670Y452121D01*
X534735Y452132D01*
G37*
G36*
X2129855Y2218702D02*
X2129855Y2218702D01*
X2129921Y2218704D01*
X2129964Y2218722D01*
X2130011Y2218730D01*
X2130068Y2218764D01*
X2130128Y2218789D01*
X2130163Y2218820D01*
X2130204Y2218845D01*
X2130246Y2218896D01*
X2130294Y2218940D01*
X2130316Y2218982D01*
X2130345Y2219019D01*
X2130366Y2219081D01*
X2130397Y2219140D01*
X2130405Y2219194D01*
X2130417Y2219231D01*
X2130416Y2219271D01*
X2130424Y2219325D01*
X2130424Y2223135D01*
X2130413Y2223200D01*
X2130411Y2223266D01*
X2130393Y2223309D01*
X2130385Y2223356D01*
X2130351Y2223413D01*
X2130326Y2223473D01*
X2130295Y2223508D01*
X2130270Y2223549D01*
X2130219Y2223591D01*
X2130175Y2223639D01*
X2130133Y2223661D01*
X2130096Y2223690D01*
X2130034Y2223711D01*
X2129975Y2223742D01*
X2129921Y2223750D01*
X2129884Y2223762D01*
X2129844Y2223761D01*
X2129790Y2223769D01*
X2127250Y2223769D01*
X2127185Y2223758D01*
X2127119Y2223756D01*
X2127076Y2223738D01*
X2127029Y2223730D01*
X2126972Y2223696D01*
X2126912Y2223671D01*
X2126877Y2223640D01*
X2126836Y2223615D01*
X2126795Y2223564D01*
X2126746Y2223520D01*
X2126724Y2223478D01*
X2126695Y2223441D01*
X2126674Y2223379D01*
X2126643Y2223320D01*
X2126635Y2223266D01*
X2126623Y2223229D01*
X2126623Y2223225D01*
X2126623Y2223224D01*
X2126624Y2223189D01*
X2126616Y2223135D01*
X2126616Y2219325D01*
X2126627Y2219260D01*
X2126629Y2219194D01*
X2126647Y2219151D01*
X2126655Y2219104D01*
X2126689Y2219047D01*
X2126714Y2218987D01*
X2126745Y2218952D01*
X2126770Y2218911D01*
X2126821Y2218870D01*
X2126865Y2218821D01*
X2126907Y2218799D01*
X2126944Y2218770D01*
X2127006Y2218749D01*
X2127065Y2218718D01*
X2127119Y2218710D01*
X2127156Y2218698D01*
X2127196Y2218699D01*
X2127250Y2218691D01*
X2129790Y2218691D01*
X2129855Y2218702D01*
G37*
G36*
X1370395Y2218702D02*
X1370395Y2218702D01*
X1370461Y2218704D01*
X1370504Y2218722D01*
X1370551Y2218730D01*
X1370608Y2218764D01*
X1370668Y2218789D01*
X1370703Y2218820D01*
X1370744Y2218845D01*
X1370786Y2218896D01*
X1370834Y2218940D01*
X1370856Y2218982D01*
X1370885Y2219019D01*
X1370906Y2219081D01*
X1370937Y2219140D01*
X1370945Y2219194D01*
X1370957Y2219231D01*
X1370956Y2219271D01*
X1370964Y2219325D01*
X1370964Y2223135D01*
X1370953Y2223200D01*
X1370951Y2223266D01*
X1370933Y2223309D01*
X1370925Y2223356D01*
X1370891Y2223413D01*
X1370866Y2223473D01*
X1370835Y2223508D01*
X1370810Y2223549D01*
X1370759Y2223591D01*
X1370715Y2223639D01*
X1370673Y2223661D01*
X1370636Y2223690D01*
X1370574Y2223711D01*
X1370515Y2223742D01*
X1370461Y2223750D01*
X1370424Y2223762D01*
X1370384Y2223761D01*
X1370330Y2223769D01*
X1367790Y2223769D01*
X1367725Y2223758D01*
X1367659Y2223756D01*
X1367616Y2223738D01*
X1367569Y2223730D01*
X1367512Y2223696D01*
X1367452Y2223671D01*
X1367417Y2223640D01*
X1367376Y2223615D01*
X1367335Y2223564D01*
X1367286Y2223520D01*
X1367264Y2223478D01*
X1367235Y2223441D01*
X1367214Y2223379D01*
X1367183Y2223320D01*
X1367175Y2223266D01*
X1367163Y2223229D01*
X1367163Y2223225D01*
X1367163Y2223224D01*
X1367164Y2223189D01*
X1367156Y2223135D01*
X1367156Y2219325D01*
X1367167Y2219260D01*
X1367169Y2219194D01*
X1367187Y2219151D01*
X1367195Y2219104D01*
X1367229Y2219047D01*
X1367254Y2218987D01*
X1367285Y2218952D01*
X1367310Y2218911D01*
X1367361Y2218870D01*
X1367405Y2218821D01*
X1367447Y2218799D01*
X1367484Y2218770D01*
X1367546Y2218749D01*
X1367605Y2218718D01*
X1367659Y2218710D01*
X1367696Y2218698D01*
X1367736Y2218699D01*
X1367790Y2218691D01*
X1370330Y2218691D01*
X1370395Y2218702D01*
G37*
G36*
X610935Y2218702D02*
X610935Y2218702D01*
X611001Y2218704D01*
X611044Y2218722D01*
X611091Y2218730D01*
X611148Y2218764D01*
X611208Y2218789D01*
X611243Y2218820D01*
X611284Y2218845D01*
X611326Y2218896D01*
X611374Y2218940D01*
X611396Y2218982D01*
X611425Y2219019D01*
X611446Y2219081D01*
X611477Y2219140D01*
X611485Y2219194D01*
X611497Y2219231D01*
X611496Y2219271D01*
X611504Y2219325D01*
X611504Y2223135D01*
X611493Y2223200D01*
X611491Y2223266D01*
X611473Y2223309D01*
X611465Y2223356D01*
X611431Y2223413D01*
X611406Y2223473D01*
X611375Y2223508D01*
X611350Y2223549D01*
X611299Y2223591D01*
X611255Y2223639D01*
X611213Y2223661D01*
X611176Y2223690D01*
X611114Y2223711D01*
X611055Y2223742D01*
X611001Y2223750D01*
X610964Y2223762D01*
X610924Y2223761D01*
X610870Y2223769D01*
X608330Y2223769D01*
X608265Y2223758D01*
X608199Y2223756D01*
X608156Y2223738D01*
X608109Y2223730D01*
X608052Y2223696D01*
X607992Y2223671D01*
X607957Y2223640D01*
X607916Y2223615D01*
X607875Y2223564D01*
X607826Y2223520D01*
X607804Y2223478D01*
X607775Y2223441D01*
X607754Y2223379D01*
X607723Y2223320D01*
X607715Y2223266D01*
X607703Y2223229D01*
X607703Y2223225D01*
X607703Y2223224D01*
X607704Y2223189D01*
X607696Y2223135D01*
X607696Y2219325D01*
X607707Y2219260D01*
X607709Y2219194D01*
X607727Y2219151D01*
X607735Y2219104D01*
X607769Y2219047D01*
X607794Y2218987D01*
X607825Y2218952D01*
X607850Y2218911D01*
X607901Y2218870D01*
X607945Y2218821D01*
X607987Y2218799D01*
X608024Y2218770D01*
X608086Y2218749D01*
X608145Y2218718D01*
X608199Y2218710D01*
X608236Y2218698D01*
X608276Y2218699D01*
X608330Y2218691D01*
X610870Y2218691D01*
X610935Y2218702D01*
G37*
G36*
X1370395Y2208542D02*
X1370395Y2208542D01*
X1370461Y2208544D01*
X1370504Y2208562D01*
X1370551Y2208570D01*
X1370608Y2208604D01*
X1370668Y2208629D01*
X1370703Y2208660D01*
X1370744Y2208685D01*
X1370786Y2208736D01*
X1370834Y2208780D01*
X1370856Y2208822D01*
X1370885Y2208859D01*
X1370906Y2208921D01*
X1370937Y2208980D01*
X1370945Y2209034D01*
X1370957Y2209071D01*
X1370956Y2209111D01*
X1370964Y2209165D01*
X1370964Y2212975D01*
X1370953Y2213040D01*
X1370951Y2213106D01*
X1370933Y2213149D01*
X1370925Y2213196D01*
X1370891Y2213253D01*
X1370866Y2213313D01*
X1370835Y2213348D01*
X1370810Y2213389D01*
X1370759Y2213431D01*
X1370715Y2213479D01*
X1370673Y2213501D01*
X1370636Y2213530D01*
X1370574Y2213551D01*
X1370515Y2213582D01*
X1370461Y2213590D01*
X1370424Y2213602D01*
X1370384Y2213601D01*
X1370330Y2213609D01*
X1367790Y2213609D01*
X1367725Y2213598D01*
X1367659Y2213596D01*
X1367616Y2213578D01*
X1367569Y2213570D01*
X1367512Y2213536D01*
X1367452Y2213511D01*
X1367417Y2213480D01*
X1367376Y2213455D01*
X1367335Y2213404D01*
X1367286Y2213360D01*
X1367264Y2213318D01*
X1367235Y2213281D01*
X1367214Y2213219D01*
X1367183Y2213160D01*
X1367175Y2213106D01*
X1367163Y2213069D01*
X1367163Y2213065D01*
X1367163Y2213064D01*
X1367164Y2213029D01*
X1367156Y2212975D01*
X1367156Y2209165D01*
X1367167Y2209100D01*
X1367169Y2209034D01*
X1367187Y2208991D01*
X1367195Y2208944D01*
X1367229Y2208887D01*
X1367254Y2208827D01*
X1367285Y2208792D01*
X1367310Y2208751D01*
X1367361Y2208710D01*
X1367405Y2208661D01*
X1367447Y2208639D01*
X1367484Y2208610D01*
X1367546Y2208589D01*
X1367605Y2208558D01*
X1367659Y2208550D01*
X1367696Y2208538D01*
X1367736Y2208539D01*
X1367790Y2208531D01*
X1370330Y2208531D01*
X1370395Y2208542D01*
G37*
G36*
X2129855Y2208542D02*
X2129855Y2208542D01*
X2129921Y2208544D01*
X2129964Y2208562D01*
X2130011Y2208570D01*
X2130068Y2208604D01*
X2130128Y2208629D01*
X2130163Y2208660D01*
X2130204Y2208685D01*
X2130246Y2208736D01*
X2130294Y2208780D01*
X2130316Y2208822D01*
X2130345Y2208859D01*
X2130366Y2208921D01*
X2130397Y2208980D01*
X2130405Y2209034D01*
X2130417Y2209071D01*
X2130416Y2209111D01*
X2130424Y2209165D01*
X2130424Y2212975D01*
X2130413Y2213040D01*
X2130411Y2213106D01*
X2130393Y2213149D01*
X2130385Y2213196D01*
X2130351Y2213253D01*
X2130326Y2213313D01*
X2130295Y2213348D01*
X2130270Y2213389D01*
X2130219Y2213431D01*
X2130175Y2213479D01*
X2130133Y2213501D01*
X2130096Y2213530D01*
X2130034Y2213551D01*
X2129975Y2213582D01*
X2129921Y2213590D01*
X2129884Y2213602D01*
X2129844Y2213601D01*
X2129790Y2213609D01*
X2127250Y2213609D01*
X2127185Y2213598D01*
X2127119Y2213596D01*
X2127076Y2213578D01*
X2127029Y2213570D01*
X2126972Y2213536D01*
X2126912Y2213511D01*
X2126877Y2213480D01*
X2126836Y2213455D01*
X2126795Y2213404D01*
X2126746Y2213360D01*
X2126724Y2213318D01*
X2126695Y2213281D01*
X2126674Y2213219D01*
X2126643Y2213160D01*
X2126635Y2213106D01*
X2126623Y2213069D01*
X2126623Y2213065D01*
X2126623Y2213064D01*
X2126624Y2213029D01*
X2126616Y2212975D01*
X2126616Y2209165D01*
X2126627Y2209100D01*
X2126629Y2209034D01*
X2126647Y2208991D01*
X2126655Y2208944D01*
X2126689Y2208887D01*
X2126714Y2208827D01*
X2126745Y2208792D01*
X2126770Y2208751D01*
X2126821Y2208710D01*
X2126865Y2208661D01*
X2126907Y2208639D01*
X2126944Y2208610D01*
X2127006Y2208589D01*
X2127065Y2208558D01*
X2127119Y2208550D01*
X2127156Y2208538D01*
X2127196Y2208539D01*
X2127250Y2208531D01*
X2129790Y2208531D01*
X2129855Y2208542D01*
G37*
G36*
X610935Y2208542D02*
X610935Y2208542D01*
X611001Y2208544D01*
X611044Y2208562D01*
X611091Y2208570D01*
X611148Y2208604D01*
X611208Y2208629D01*
X611243Y2208660D01*
X611284Y2208685D01*
X611326Y2208736D01*
X611374Y2208780D01*
X611396Y2208822D01*
X611425Y2208859D01*
X611446Y2208921D01*
X611477Y2208980D01*
X611485Y2209034D01*
X611497Y2209071D01*
X611496Y2209111D01*
X611504Y2209165D01*
X611504Y2212975D01*
X611493Y2213040D01*
X611491Y2213106D01*
X611473Y2213149D01*
X611465Y2213196D01*
X611431Y2213253D01*
X611406Y2213313D01*
X611375Y2213348D01*
X611350Y2213389D01*
X611299Y2213431D01*
X611255Y2213479D01*
X611213Y2213501D01*
X611176Y2213530D01*
X611114Y2213551D01*
X611055Y2213582D01*
X611001Y2213590D01*
X610964Y2213602D01*
X610924Y2213601D01*
X610870Y2213609D01*
X608330Y2213609D01*
X608265Y2213598D01*
X608199Y2213596D01*
X608156Y2213578D01*
X608109Y2213570D01*
X608052Y2213536D01*
X607992Y2213511D01*
X607957Y2213480D01*
X607916Y2213455D01*
X607875Y2213404D01*
X607826Y2213360D01*
X607804Y2213318D01*
X607775Y2213281D01*
X607754Y2213219D01*
X607723Y2213160D01*
X607715Y2213106D01*
X607703Y2213069D01*
X607703Y2213065D01*
X607703Y2213064D01*
X607704Y2213029D01*
X607696Y2212975D01*
X607696Y2209165D01*
X607707Y2209100D01*
X607709Y2209034D01*
X607727Y2208991D01*
X607735Y2208944D01*
X607769Y2208887D01*
X607794Y2208827D01*
X607825Y2208792D01*
X607850Y2208751D01*
X607901Y2208710D01*
X607945Y2208661D01*
X607987Y2208639D01*
X608024Y2208610D01*
X608086Y2208589D01*
X608145Y2208558D01*
X608199Y2208550D01*
X608236Y2208538D01*
X608276Y2208539D01*
X608330Y2208531D01*
X610870Y2208531D01*
X610935Y2208542D01*
G37*
G36*
X1742505Y2184412D02*
X1742505Y2184412D01*
X1742571Y2184414D01*
X1742614Y2184432D01*
X1742661Y2184440D01*
X1742718Y2184474D01*
X1742778Y2184499D01*
X1742813Y2184530D01*
X1742854Y2184555D01*
X1742896Y2184606D01*
X1742944Y2184650D01*
X1742966Y2184692D01*
X1742995Y2184729D01*
X1743016Y2184791D01*
X1743047Y2184850D01*
X1743055Y2184904D01*
X1743067Y2184941D01*
X1743066Y2184981D01*
X1743074Y2185035D01*
X1743074Y2188845D01*
X1743063Y2188910D01*
X1743061Y2188976D01*
X1743043Y2189019D01*
X1743035Y2189066D01*
X1743001Y2189123D01*
X1742976Y2189183D01*
X1742945Y2189218D01*
X1742920Y2189259D01*
X1742869Y2189301D01*
X1742825Y2189349D01*
X1742783Y2189371D01*
X1742746Y2189400D01*
X1742684Y2189421D01*
X1742625Y2189452D01*
X1742571Y2189460D01*
X1742534Y2189472D01*
X1742494Y2189471D01*
X1742440Y2189479D01*
X1739900Y2189479D01*
X1739835Y2189468D01*
X1739769Y2189466D01*
X1739726Y2189448D01*
X1739679Y2189440D01*
X1739622Y2189406D01*
X1739562Y2189381D01*
X1739527Y2189350D01*
X1739486Y2189325D01*
X1739445Y2189274D01*
X1739396Y2189230D01*
X1739374Y2189188D01*
X1739345Y2189151D01*
X1739324Y2189089D01*
X1739293Y2189030D01*
X1739285Y2188976D01*
X1739273Y2188939D01*
X1739273Y2188935D01*
X1739273Y2188934D01*
X1739274Y2188899D01*
X1739266Y2188845D01*
X1739266Y2185035D01*
X1739277Y2184970D01*
X1739279Y2184904D01*
X1739297Y2184861D01*
X1739305Y2184814D01*
X1739339Y2184757D01*
X1739364Y2184697D01*
X1739395Y2184662D01*
X1739420Y2184621D01*
X1739471Y2184580D01*
X1739515Y2184531D01*
X1739557Y2184509D01*
X1739594Y2184480D01*
X1739656Y2184459D01*
X1739715Y2184428D01*
X1739769Y2184420D01*
X1739806Y2184408D01*
X1739846Y2184409D01*
X1739900Y2184401D01*
X1742440Y2184401D01*
X1742505Y2184412D01*
G37*
G36*
X223585Y2184412D02*
X223585Y2184412D01*
X223651Y2184414D01*
X223694Y2184432D01*
X223741Y2184440D01*
X223798Y2184474D01*
X223858Y2184499D01*
X223893Y2184530D01*
X223934Y2184555D01*
X223976Y2184606D01*
X224024Y2184650D01*
X224046Y2184692D01*
X224075Y2184729D01*
X224096Y2184791D01*
X224127Y2184850D01*
X224135Y2184904D01*
X224147Y2184941D01*
X224146Y2184981D01*
X224154Y2185035D01*
X224154Y2188845D01*
X224143Y2188910D01*
X224141Y2188976D01*
X224123Y2189019D01*
X224115Y2189066D01*
X224081Y2189123D01*
X224056Y2189183D01*
X224025Y2189218D01*
X224000Y2189259D01*
X223949Y2189301D01*
X223905Y2189349D01*
X223863Y2189371D01*
X223826Y2189400D01*
X223764Y2189421D01*
X223705Y2189452D01*
X223651Y2189460D01*
X223614Y2189472D01*
X223574Y2189471D01*
X223520Y2189479D01*
X220980Y2189479D01*
X220915Y2189468D01*
X220849Y2189466D01*
X220806Y2189448D01*
X220759Y2189440D01*
X220702Y2189406D01*
X220642Y2189381D01*
X220607Y2189350D01*
X220566Y2189325D01*
X220525Y2189274D01*
X220476Y2189230D01*
X220454Y2189188D01*
X220425Y2189151D01*
X220404Y2189089D01*
X220373Y2189030D01*
X220365Y2188976D01*
X220353Y2188939D01*
X220353Y2188935D01*
X220353Y2188934D01*
X220354Y2188899D01*
X220346Y2188845D01*
X220346Y2185035D01*
X220357Y2184970D01*
X220359Y2184904D01*
X220377Y2184861D01*
X220385Y2184814D01*
X220419Y2184757D01*
X220444Y2184697D01*
X220475Y2184662D01*
X220500Y2184621D01*
X220551Y2184580D01*
X220595Y2184531D01*
X220637Y2184509D01*
X220674Y2184480D01*
X220736Y2184459D01*
X220795Y2184428D01*
X220849Y2184420D01*
X220886Y2184408D01*
X220926Y2184409D01*
X220980Y2184401D01*
X223520Y2184401D01*
X223585Y2184412D01*
G37*
G36*
X983045Y2184412D02*
X983045Y2184412D01*
X983111Y2184414D01*
X983154Y2184432D01*
X983201Y2184440D01*
X983258Y2184474D01*
X983318Y2184499D01*
X983353Y2184530D01*
X983394Y2184555D01*
X983436Y2184606D01*
X983484Y2184650D01*
X983506Y2184692D01*
X983535Y2184729D01*
X983556Y2184791D01*
X983587Y2184850D01*
X983595Y2184904D01*
X983607Y2184941D01*
X983606Y2184981D01*
X983614Y2185035D01*
X983614Y2188845D01*
X983603Y2188910D01*
X983601Y2188976D01*
X983583Y2189019D01*
X983575Y2189066D01*
X983541Y2189123D01*
X983516Y2189183D01*
X983485Y2189218D01*
X983460Y2189259D01*
X983409Y2189301D01*
X983365Y2189349D01*
X983323Y2189371D01*
X983286Y2189400D01*
X983224Y2189421D01*
X983165Y2189452D01*
X983111Y2189460D01*
X983074Y2189472D01*
X983034Y2189471D01*
X982980Y2189479D01*
X980440Y2189479D01*
X980375Y2189468D01*
X980309Y2189466D01*
X980266Y2189448D01*
X980219Y2189440D01*
X980162Y2189406D01*
X980102Y2189381D01*
X980067Y2189350D01*
X980026Y2189325D01*
X979985Y2189274D01*
X979936Y2189230D01*
X979914Y2189188D01*
X979885Y2189151D01*
X979864Y2189089D01*
X979833Y2189030D01*
X979825Y2188976D01*
X979813Y2188939D01*
X979813Y2188935D01*
X979813Y2188934D01*
X979814Y2188899D01*
X979806Y2188845D01*
X979806Y2185035D01*
X979817Y2184970D01*
X979819Y2184904D01*
X979837Y2184861D01*
X979845Y2184814D01*
X979879Y2184757D01*
X979904Y2184697D01*
X979935Y2184662D01*
X979960Y2184621D01*
X980011Y2184580D01*
X980055Y2184531D01*
X980097Y2184509D01*
X980134Y2184480D01*
X980196Y2184459D01*
X980255Y2184428D01*
X980309Y2184420D01*
X980346Y2184408D01*
X980386Y2184409D01*
X980440Y2184401D01*
X982980Y2184401D01*
X983045Y2184412D01*
G37*
G36*
X1294195Y1630692D02*
X1294195Y1630692D01*
X1294261Y1630694D01*
X1294304Y1630712D01*
X1294351Y1630720D01*
X1294408Y1630754D01*
X1294468Y1630779D01*
X1294503Y1630810D01*
X1294544Y1630835D01*
X1294586Y1630886D01*
X1294634Y1630930D01*
X1294656Y1630972D01*
X1294685Y1631009D01*
X1294706Y1631071D01*
X1294737Y1631130D01*
X1294745Y1631184D01*
X1294757Y1631221D01*
X1294756Y1631261D01*
X1294764Y1631315D01*
X1294764Y1635125D01*
X1294753Y1635190D01*
X1294751Y1635256D01*
X1294733Y1635299D01*
X1294725Y1635346D01*
X1294691Y1635403D01*
X1294666Y1635463D01*
X1294635Y1635498D01*
X1294610Y1635539D01*
X1294559Y1635581D01*
X1294515Y1635629D01*
X1294473Y1635651D01*
X1294436Y1635680D01*
X1294374Y1635701D01*
X1294315Y1635732D01*
X1294261Y1635740D01*
X1294224Y1635752D01*
X1294184Y1635751D01*
X1294130Y1635759D01*
X1291590Y1635759D01*
X1291525Y1635748D01*
X1291459Y1635746D01*
X1291416Y1635728D01*
X1291369Y1635720D01*
X1291312Y1635686D01*
X1291252Y1635661D01*
X1291217Y1635630D01*
X1291176Y1635605D01*
X1291135Y1635554D01*
X1291086Y1635510D01*
X1291064Y1635468D01*
X1291035Y1635431D01*
X1291014Y1635369D01*
X1290983Y1635310D01*
X1290975Y1635256D01*
X1290963Y1635219D01*
X1290963Y1635215D01*
X1290963Y1635214D01*
X1290964Y1635179D01*
X1290956Y1635125D01*
X1290956Y1631315D01*
X1290967Y1631250D01*
X1290969Y1631184D01*
X1290987Y1631141D01*
X1290995Y1631094D01*
X1291029Y1631037D01*
X1291054Y1630977D01*
X1291085Y1630942D01*
X1291110Y1630901D01*
X1291161Y1630860D01*
X1291205Y1630811D01*
X1291247Y1630789D01*
X1291284Y1630760D01*
X1291346Y1630739D01*
X1291405Y1630708D01*
X1291459Y1630700D01*
X1291496Y1630688D01*
X1291536Y1630689D01*
X1291590Y1630681D01*
X1294130Y1630681D01*
X1294195Y1630692D01*
G37*
G36*
X2053655Y1630692D02*
X2053655Y1630692D01*
X2053721Y1630694D01*
X2053764Y1630712D01*
X2053811Y1630720D01*
X2053868Y1630754D01*
X2053928Y1630779D01*
X2053963Y1630810D01*
X2054004Y1630835D01*
X2054046Y1630886D01*
X2054094Y1630930D01*
X2054116Y1630972D01*
X2054145Y1631009D01*
X2054166Y1631071D01*
X2054197Y1631130D01*
X2054205Y1631184D01*
X2054217Y1631221D01*
X2054216Y1631261D01*
X2054224Y1631315D01*
X2054224Y1635125D01*
X2054213Y1635190D01*
X2054211Y1635256D01*
X2054193Y1635299D01*
X2054185Y1635346D01*
X2054151Y1635403D01*
X2054126Y1635463D01*
X2054095Y1635498D01*
X2054070Y1635539D01*
X2054019Y1635581D01*
X2053975Y1635629D01*
X2053933Y1635651D01*
X2053896Y1635680D01*
X2053834Y1635701D01*
X2053775Y1635732D01*
X2053721Y1635740D01*
X2053684Y1635752D01*
X2053644Y1635751D01*
X2053590Y1635759D01*
X2051050Y1635759D01*
X2050985Y1635748D01*
X2050919Y1635746D01*
X2050876Y1635728D01*
X2050829Y1635720D01*
X2050772Y1635686D01*
X2050712Y1635661D01*
X2050677Y1635630D01*
X2050636Y1635605D01*
X2050595Y1635554D01*
X2050546Y1635510D01*
X2050524Y1635468D01*
X2050495Y1635431D01*
X2050474Y1635369D01*
X2050443Y1635310D01*
X2050435Y1635256D01*
X2050423Y1635219D01*
X2050423Y1635215D01*
X2050423Y1635214D01*
X2050424Y1635179D01*
X2050416Y1635125D01*
X2050416Y1631315D01*
X2050427Y1631250D01*
X2050429Y1631184D01*
X2050447Y1631141D01*
X2050455Y1631094D01*
X2050489Y1631037D01*
X2050514Y1630977D01*
X2050545Y1630942D01*
X2050570Y1630901D01*
X2050621Y1630860D01*
X2050665Y1630811D01*
X2050707Y1630789D01*
X2050744Y1630760D01*
X2050806Y1630739D01*
X2050865Y1630708D01*
X2050919Y1630700D01*
X2050956Y1630688D01*
X2050996Y1630689D01*
X2051050Y1630681D01*
X2053590Y1630681D01*
X2053655Y1630692D01*
G37*
G36*
X2079055Y1630692D02*
X2079055Y1630692D01*
X2079121Y1630694D01*
X2079164Y1630712D01*
X2079211Y1630720D01*
X2079268Y1630754D01*
X2079328Y1630779D01*
X2079363Y1630810D01*
X2079404Y1630835D01*
X2079446Y1630886D01*
X2079494Y1630930D01*
X2079516Y1630972D01*
X2079545Y1631009D01*
X2079566Y1631071D01*
X2079597Y1631130D01*
X2079605Y1631184D01*
X2079617Y1631221D01*
X2079616Y1631261D01*
X2079624Y1631315D01*
X2079624Y1635125D01*
X2079613Y1635190D01*
X2079611Y1635256D01*
X2079593Y1635299D01*
X2079585Y1635346D01*
X2079551Y1635403D01*
X2079526Y1635463D01*
X2079495Y1635498D01*
X2079470Y1635539D01*
X2079419Y1635581D01*
X2079375Y1635629D01*
X2079333Y1635651D01*
X2079296Y1635680D01*
X2079234Y1635701D01*
X2079175Y1635732D01*
X2079121Y1635740D01*
X2079084Y1635752D01*
X2079044Y1635751D01*
X2078990Y1635759D01*
X2076450Y1635759D01*
X2076385Y1635748D01*
X2076319Y1635746D01*
X2076276Y1635728D01*
X2076229Y1635720D01*
X2076172Y1635686D01*
X2076112Y1635661D01*
X2076077Y1635630D01*
X2076036Y1635605D01*
X2075995Y1635554D01*
X2075946Y1635510D01*
X2075924Y1635468D01*
X2075895Y1635431D01*
X2075874Y1635369D01*
X2075843Y1635310D01*
X2075835Y1635256D01*
X2075823Y1635219D01*
X2075823Y1635215D01*
X2075823Y1635214D01*
X2075824Y1635179D01*
X2075816Y1635125D01*
X2075816Y1631315D01*
X2075827Y1631250D01*
X2075829Y1631184D01*
X2075847Y1631141D01*
X2075855Y1631094D01*
X2075889Y1631037D01*
X2075914Y1630977D01*
X2075945Y1630942D01*
X2075970Y1630901D01*
X2076021Y1630860D01*
X2076065Y1630811D01*
X2076107Y1630789D01*
X2076144Y1630760D01*
X2076206Y1630739D01*
X2076265Y1630708D01*
X2076319Y1630700D01*
X2076356Y1630688D01*
X2076396Y1630689D01*
X2076450Y1630681D01*
X2078990Y1630681D01*
X2079055Y1630692D01*
G37*
G36*
X534735Y1630692D02*
X534735Y1630692D01*
X534801Y1630694D01*
X534844Y1630712D01*
X534891Y1630720D01*
X534948Y1630754D01*
X535008Y1630779D01*
X535043Y1630810D01*
X535084Y1630835D01*
X535126Y1630886D01*
X535174Y1630930D01*
X535196Y1630972D01*
X535225Y1631009D01*
X535246Y1631071D01*
X535277Y1631130D01*
X535285Y1631184D01*
X535297Y1631221D01*
X535296Y1631261D01*
X535304Y1631315D01*
X535304Y1635125D01*
X535293Y1635190D01*
X535291Y1635256D01*
X535273Y1635299D01*
X535265Y1635346D01*
X535231Y1635403D01*
X535206Y1635463D01*
X535175Y1635498D01*
X535150Y1635539D01*
X535099Y1635581D01*
X535055Y1635629D01*
X535013Y1635651D01*
X534976Y1635680D01*
X534914Y1635701D01*
X534855Y1635732D01*
X534801Y1635740D01*
X534764Y1635752D01*
X534724Y1635751D01*
X534670Y1635759D01*
X532130Y1635759D01*
X532065Y1635748D01*
X531999Y1635746D01*
X531956Y1635728D01*
X531909Y1635720D01*
X531852Y1635686D01*
X531792Y1635661D01*
X531757Y1635630D01*
X531716Y1635605D01*
X531675Y1635554D01*
X531626Y1635510D01*
X531604Y1635468D01*
X531575Y1635431D01*
X531554Y1635369D01*
X531523Y1635310D01*
X531515Y1635256D01*
X531503Y1635219D01*
X531503Y1635215D01*
X531503Y1635214D01*
X531504Y1635179D01*
X531496Y1635125D01*
X531496Y1631315D01*
X531507Y1631250D01*
X531509Y1631184D01*
X531527Y1631141D01*
X531535Y1631094D01*
X531569Y1631037D01*
X531594Y1630977D01*
X531625Y1630942D01*
X531650Y1630901D01*
X531701Y1630860D01*
X531745Y1630811D01*
X531787Y1630789D01*
X531824Y1630760D01*
X531886Y1630739D01*
X531945Y1630708D01*
X531999Y1630700D01*
X532036Y1630688D01*
X532076Y1630689D01*
X532130Y1630681D01*
X534670Y1630681D01*
X534735Y1630692D01*
G37*
G36*
X560135Y1630692D02*
X560135Y1630692D01*
X560201Y1630694D01*
X560244Y1630712D01*
X560291Y1630720D01*
X560348Y1630754D01*
X560408Y1630779D01*
X560443Y1630810D01*
X560484Y1630835D01*
X560526Y1630886D01*
X560574Y1630930D01*
X560596Y1630972D01*
X560625Y1631009D01*
X560646Y1631071D01*
X560677Y1631130D01*
X560685Y1631184D01*
X560697Y1631221D01*
X560696Y1631261D01*
X560704Y1631315D01*
X560704Y1635125D01*
X560693Y1635190D01*
X560691Y1635256D01*
X560673Y1635299D01*
X560665Y1635346D01*
X560631Y1635403D01*
X560606Y1635463D01*
X560575Y1635498D01*
X560550Y1635539D01*
X560499Y1635581D01*
X560455Y1635629D01*
X560413Y1635651D01*
X560376Y1635680D01*
X560314Y1635701D01*
X560255Y1635732D01*
X560201Y1635740D01*
X560164Y1635752D01*
X560124Y1635751D01*
X560070Y1635759D01*
X557530Y1635759D01*
X557465Y1635748D01*
X557399Y1635746D01*
X557356Y1635728D01*
X557309Y1635720D01*
X557252Y1635686D01*
X557192Y1635661D01*
X557157Y1635630D01*
X557116Y1635605D01*
X557075Y1635554D01*
X557026Y1635510D01*
X557004Y1635468D01*
X556975Y1635431D01*
X556954Y1635369D01*
X556923Y1635310D01*
X556915Y1635256D01*
X556903Y1635219D01*
X556903Y1635215D01*
X556903Y1635214D01*
X556904Y1635179D01*
X556896Y1635125D01*
X556896Y1631315D01*
X556907Y1631250D01*
X556909Y1631184D01*
X556927Y1631141D01*
X556935Y1631094D01*
X556969Y1631037D01*
X556994Y1630977D01*
X557025Y1630942D01*
X557050Y1630901D01*
X557101Y1630860D01*
X557145Y1630811D01*
X557187Y1630789D01*
X557224Y1630760D01*
X557286Y1630739D01*
X557345Y1630708D01*
X557399Y1630700D01*
X557436Y1630688D01*
X557476Y1630689D01*
X557530Y1630681D01*
X560070Y1630681D01*
X560135Y1630692D01*
G37*
G36*
X1319595Y1630692D02*
X1319595Y1630692D01*
X1319661Y1630694D01*
X1319704Y1630712D01*
X1319751Y1630720D01*
X1319808Y1630754D01*
X1319868Y1630779D01*
X1319903Y1630810D01*
X1319944Y1630835D01*
X1319986Y1630886D01*
X1320034Y1630930D01*
X1320056Y1630972D01*
X1320085Y1631009D01*
X1320106Y1631071D01*
X1320137Y1631130D01*
X1320145Y1631184D01*
X1320157Y1631221D01*
X1320156Y1631261D01*
X1320164Y1631315D01*
X1320164Y1635125D01*
X1320153Y1635190D01*
X1320151Y1635256D01*
X1320133Y1635299D01*
X1320125Y1635346D01*
X1320091Y1635403D01*
X1320066Y1635463D01*
X1320035Y1635498D01*
X1320010Y1635539D01*
X1319959Y1635581D01*
X1319915Y1635629D01*
X1319873Y1635651D01*
X1319836Y1635680D01*
X1319774Y1635701D01*
X1319715Y1635732D01*
X1319661Y1635740D01*
X1319624Y1635752D01*
X1319584Y1635751D01*
X1319530Y1635759D01*
X1316990Y1635759D01*
X1316925Y1635748D01*
X1316859Y1635746D01*
X1316816Y1635728D01*
X1316769Y1635720D01*
X1316712Y1635686D01*
X1316652Y1635661D01*
X1316617Y1635630D01*
X1316576Y1635605D01*
X1316535Y1635554D01*
X1316486Y1635510D01*
X1316464Y1635468D01*
X1316435Y1635431D01*
X1316414Y1635369D01*
X1316383Y1635310D01*
X1316375Y1635256D01*
X1316363Y1635219D01*
X1316363Y1635215D01*
X1316363Y1635214D01*
X1316364Y1635179D01*
X1316356Y1635125D01*
X1316356Y1631315D01*
X1316367Y1631250D01*
X1316369Y1631184D01*
X1316387Y1631141D01*
X1316395Y1631094D01*
X1316429Y1631037D01*
X1316454Y1630977D01*
X1316485Y1630942D01*
X1316510Y1630901D01*
X1316561Y1630860D01*
X1316605Y1630811D01*
X1316647Y1630789D01*
X1316684Y1630760D01*
X1316746Y1630739D01*
X1316805Y1630708D01*
X1316859Y1630700D01*
X1316896Y1630688D01*
X1316936Y1630689D01*
X1316990Y1630681D01*
X1319530Y1630681D01*
X1319595Y1630692D01*
G37*
G36*
X610935Y1629422D02*
X610935Y1629422D01*
X611001Y1629424D01*
X611044Y1629442D01*
X611091Y1629450D01*
X611148Y1629484D01*
X611208Y1629509D01*
X611243Y1629540D01*
X611284Y1629565D01*
X611326Y1629616D01*
X611374Y1629660D01*
X611396Y1629702D01*
X611425Y1629739D01*
X611446Y1629801D01*
X611477Y1629860D01*
X611485Y1629914D01*
X611497Y1629951D01*
X611496Y1629991D01*
X611504Y1630045D01*
X611504Y1633855D01*
X611493Y1633920D01*
X611491Y1633986D01*
X611473Y1634029D01*
X611465Y1634076D01*
X611431Y1634133D01*
X611406Y1634193D01*
X611375Y1634228D01*
X611350Y1634269D01*
X611299Y1634311D01*
X611255Y1634359D01*
X611213Y1634381D01*
X611176Y1634410D01*
X611114Y1634431D01*
X611055Y1634462D01*
X611001Y1634470D01*
X610964Y1634482D01*
X610924Y1634481D01*
X610870Y1634489D01*
X608330Y1634489D01*
X608265Y1634478D01*
X608199Y1634476D01*
X608156Y1634458D01*
X608109Y1634450D01*
X608052Y1634416D01*
X607992Y1634391D01*
X607957Y1634360D01*
X607916Y1634335D01*
X607875Y1634284D01*
X607826Y1634240D01*
X607804Y1634198D01*
X607775Y1634161D01*
X607754Y1634099D01*
X607723Y1634040D01*
X607715Y1633986D01*
X607703Y1633949D01*
X607703Y1633945D01*
X607703Y1633944D01*
X607704Y1633909D01*
X607696Y1633855D01*
X607696Y1630045D01*
X607707Y1629980D01*
X607709Y1629914D01*
X607727Y1629871D01*
X607735Y1629824D01*
X607769Y1629767D01*
X607794Y1629707D01*
X607825Y1629672D01*
X607850Y1629631D01*
X607901Y1629590D01*
X607945Y1629541D01*
X607987Y1629519D01*
X608024Y1629490D01*
X608086Y1629469D01*
X608145Y1629438D01*
X608199Y1629430D01*
X608236Y1629418D01*
X608276Y1629419D01*
X608330Y1629411D01*
X610870Y1629411D01*
X610935Y1629422D01*
G37*
G36*
X1370395Y1629422D02*
X1370395Y1629422D01*
X1370461Y1629424D01*
X1370504Y1629442D01*
X1370551Y1629450D01*
X1370608Y1629484D01*
X1370668Y1629509D01*
X1370703Y1629540D01*
X1370744Y1629565D01*
X1370786Y1629616D01*
X1370834Y1629660D01*
X1370856Y1629702D01*
X1370885Y1629739D01*
X1370906Y1629801D01*
X1370937Y1629860D01*
X1370945Y1629914D01*
X1370957Y1629951D01*
X1370956Y1629991D01*
X1370964Y1630045D01*
X1370964Y1633855D01*
X1370953Y1633920D01*
X1370951Y1633986D01*
X1370933Y1634029D01*
X1370925Y1634076D01*
X1370891Y1634133D01*
X1370866Y1634193D01*
X1370835Y1634228D01*
X1370810Y1634269D01*
X1370759Y1634311D01*
X1370715Y1634359D01*
X1370673Y1634381D01*
X1370636Y1634410D01*
X1370574Y1634431D01*
X1370515Y1634462D01*
X1370461Y1634470D01*
X1370424Y1634482D01*
X1370384Y1634481D01*
X1370330Y1634489D01*
X1367790Y1634489D01*
X1367725Y1634478D01*
X1367659Y1634476D01*
X1367616Y1634458D01*
X1367569Y1634450D01*
X1367512Y1634416D01*
X1367452Y1634391D01*
X1367417Y1634360D01*
X1367376Y1634335D01*
X1367335Y1634284D01*
X1367286Y1634240D01*
X1367264Y1634198D01*
X1367235Y1634161D01*
X1367214Y1634099D01*
X1367183Y1634040D01*
X1367175Y1633986D01*
X1367163Y1633949D01*
X1367163Y1633945D01*
X1367163Y1633944D01*
X1367164Y1633909D01*
X1367156Y1633855D01*
X1367156Y1630045D01*
X1367167Y1629980D01*
X1367169Y1629914D01*
X1367187Y1629871D01*
X1367195Y1629824D01*
X1367229Y1629767D01*
X1367254Y1629707D01*
X1367285Y1629672D01*
X1367310Y1629631D01*
X1367361Y1629590D01*
X1367405Y1629541D01*
X1367447Y1629519D01*
X1367484Y1629490D01*
X1367546Y1629469D01*
X1367605Y1629438D01*
X1367659Y1629430D01*
X1367696Y1629418D01*
X1367736Y1629419D01*
X1367790Y1629411D01*
X1370330Y1629411D01*
X1370395Y1629422D01*
G37*
G36*
X2129855Y1629422D02*
X2129855Y1629422D01*
X2129921Y1629424D01*
X2129964Y1629442D01*
X2130011Y1629450D01*
X2130068Y1629484D01*
X2130128Y1629509D01*
X2130163Y1629540D01*
X2130204Y1629565D01*
X2130246Y1629616D01*
X2130294Y1629660D01*
X2130316Y1629702D01*
X2130345Y1629739D01*
X2130366Y1629801D01*
X2130397Y1629860D01*
X2130405Y1629914D01*
X2130417Y1629951D01*
X2130416Y1629991D01*
X2130424Y1630045D01*
X2130424Y1633855D01*
X2130413Y1633920D01*
X2130411Y1633986D01*
X2130393Y1634029D01*
X2130385Y1634076D01*
X2130351Y1634133D01*
X2130326Y1634193D01*
X2130295Y1634228D01*
X2130270Y1634269D01*
X2130219Y1634311D01*
X2130175Y1634359D01*
X2130133Y1634381D01*
X2130096Y1634410D01*
X2130034Y1634431D01*
X2129975Y1634462D01*
X2129921Y1634470D01*
X2129884Y1634482D01*
X2129844Y1634481D01*
X2129790Y1634489D01*
X2127250Y1634489D01*
X2127185Y1634478D01*
X2127119Y1634476D01*
X2127076Y1634458D01*
X2127029Y1634450D01*
X2126972Y1634416D01*
X2126912Y1634391D01*
X2126877Y1634360D01*
X2126836Y1634335D01*
X2126795Y1634284D01*
X2126746Y1634240D01*
X2126724Y1634198D01*
X2126695Y1634161D01*
X2126674Y1634099D01*
X2126643Y1634040D01*
X2126635Y1633986D01*
X2126623Y1633949D01*
X2126623Y1633945D01*
X2126623Y1633944D01*
X2126624Y1633909D01*
X2126616Y1633855D01*
X2126616Y1630045D01*
X2126627Y1629980D01*
X2126629Y1629914D01*
X2126647Y1629871D01*
X2126655Y1629824D01*
X2126689Y1629767D01*
X2126714Y1629707D01*
X2126745Y1629672D01*
X2126770Y1629631D01*
X2126821Y1629590D01*
X2126865Y1629541D01*
X2126907Y1629519D01*
X2126944Y1629490D01*
X2127006Y1629469D01*
X2127065Y1629438D01*
X2127119Y1629430D01*
X2127156Y1629418D01*
X2127196Y1629419D01*
X2127250Y1629411D01*
X2129790Y1629411D01*
X2129855Y1629422D01*
G37*
G36*
X610935Y1619262D02*
X610935Y1619262D01*
X611001Y1619264D01*
X611044Y1619282D01*
X611091Y1619290D01*
X611148Y1619324D01*
X611208Y1619349D01*
X611243Y1619380D01*
X611284Y1619405D01*
X611326Y1619456D01*
X611374Y1619500D01*
X611396Y1619542D01*
X611425Y1619579D01*
X611446Y1619641D01*
X611477Y1619700D01*
X611485Y1619754D01*
X611497Y1619791D01*
X611496Y1619831D01*
X611504Y1619885D01*
X611504Y1623695D01*
X611493Y1623760D01*
X611491Y1623826D01*
X611473Y1623869D01*
X611465Y1623916D01*
X611431Y1623973D01*
X611406Y1624033D01*
X611375Y1624068D01*
X611350Y1624109D01*
X611299Y1624151D01*
X611255Y1624199D01*
X611213Y1624221D01*
X611176Y1624250D01*
X611114Y1624271D01*
X611055Y1624302D01*
X611001Y1624310D01*
X610964Y1624322D01*
X610924Y1624321D01*
X610870Y1624329D01*
X608330Y1624329D01*
X608265Y1624318D01*
X608199Y1624316D01*
X608156Y1624298D01*
X608109Y1624290D01*
X608052Y1624256D01*
X607992Y1624231D01*
X607957Y1624200D01*
X607916Y1624175D01*
X607875Y1624124D01*
X607826Y1624080D01*
X607804Y1624038D01*
X607775Y1624001D01*
X607754Y1623939D01*
X607723Y1623880D01*
X607715Y1623826D01*
X607703Y1623789D01*
X607703Y1623785D01*
X607703Y1623784D01*
X607704Y1623749D01*
X607696Y1623695D01*
X607696Y1619885D01*
X607707Y1619820D01*
X607709Y1619754D01*
X607727Y1619711D01*
X607735Y1619664D01*
X607769Y1619607D01*
X607794Y1619547D01*
X607825Y1619512D01*
X607850Y1619471D01*
X607901Y1619430D01*
X607945Y1619381D01*
X607987Y1619359D01*
X608024Y1619330D01*
X608086Y1619309D01*
X608145Y1619278D01*
X608199Y1619270D01*
X608236Y1619258D01*
X608276Y1619259D01*
X608330Y1619251D01*
X610870Y1619251D01*
X610935Y1619262D01*
G37*
G36*
X1370395Y1619262D02*
X1370395Y1619262D01*
X1370461Y1619264D01*
X1370504Y1619282D01*
X1370551Y1619290D01*
X1370608Y1619324D01*
X1370668Y1619349D01*
X1370703Y1619380D01*
X1370744Y1619405D01*
X1370786Y1619456D01*
X1370834Y1619500D01*
X1370856Y1619542D01*
X1370885Y1619579D01*
X1370906Y1619641D01*
X1370937Y1619700D01*
X1370945Y1619754D01*
X1370957Y1619791D01*
X1370956Y1619831D01*
X1370964Y1619885D01*
X1370964Y1623695D01*
X1370953Y1623760D01*
X1370951Y1623826D01*
X1370933Y1623869D01*
X1370925Y1623916D01*
X1370891Y1623973D01*
X1370866Y1624033D01*
X1370835Y1624068D01*
X1370810Y1624109D01*
X1370759Y1624151D01*
X1370715Y1624199D01*
X1370673Y1624221D01*
X1370636Y1624250D01*
X1370574Y1624271D01*
X1370515Y1624302D01*
X1370461Y1624310D01*
X1370424Y1624322D01*
X1370384Y1624321D01*
X1370330Y1624329D01*
X1367790Y1624329D01*
X1367725Y1624318D01*
X1367659Y1624316D01*
X1367616Y1624298D01*
X1367569Y1624290D01*
X1367512Y1624256D01*
X1367452Y1624231D01*
X1367417Y1624200D01*
X1367376Y1624175D01*
X1367335Y1624124D01*
X1367286Y1624080D01*
X1367264Y1624038D01*
X1367235Y1624001D01*
X1367214Y1623939D01*
X1367183Y1623880D01*
X1367175Y1623826D01*
X1367163Y1623789D01*
X1367163Y1623785D01*
X1367163Y1623784D01*
X1367164Y1623749D01*
X1367156Y1623695D01*
X1367156Y1619885D01*
X1367167Y1619820D01*
X1367169Y1619754D01*
X1367187Y1619711D01*
X1367195Y1619664D01*
X1367229Y1619607D01*
X1367254Y1619547D01*
X1367285Y1619512D01*
X1367310Y1619471D01*
X1367361Y1619430D01*
X1367405Y1619381D01*
X1367447Y1619359D01*
X1367484Y1619330D01*
X1367546Y1619309D01*
X1367605Y1619278D01*
X1367659Y1619270D01*
X1367696Y1619258D01*
X1367736Y1619259D01*
X1367790Y1619251D01*
X1370330Y1619251D01*
X1370395Y1619262D01*
G37*
G36*
X2129855Y1619262D02*
X2129855Y1619262D01*
X2129921Y1619264D01*
X2129964Y1619282D01*
X2130011Y1619290D01*
X2130068Y1619324D01*
X2130128Y1619349D01*
X2130163Y1619380D01*
X2130204Y1619405D01*
X2130246Y1619456D01*
X2130294Y1619500D01*
X2130316Y1619542D01*
X2130345Y1619579D01*
X2130366Y1619641D01*
X2130397Y1619700D01*
X2130405Y1619754D01*
X2130417Y1619791D01*
X2130416Y1619831D01*
X2130424Y1619885D01*
X2130424Y1623695D01*
X2130413Y1623760D01*
X2130411Y1623826D01*
X2130393Y1623869D01*
X2130385Y1623916D01*
X2130351Y1623973D01*
X2130326Y1624033D01*
X2130295Y1624068D01*
X2130270Y1624109D01*
X2130219Y1624151D01*
X2130175Y1624199D01*
X2130133Y1624221D01*
X2130096Y1624250D01*
X2130034Y1624271D01*
X2129975Y1624302D01*
X2129921Y1624310D01*
X2129884Y1624322D01*
X2129844Y1624321D01*
X2129790Y1624329D01*
X2127250Y1624329D01*
X2127185Y1624318D01*
X2127119Y1624316D01*
X2127076Y1624298D01*
X2127029Y1624290D01*
X2126972Y1624256D01*
X2126912Y1624231D01*
X2126877Y1624200D01*
X2126836Y1624175D01*
X2126795Y1624124D01*
X2126746Y1624080D01*
X2126724Y1624038D01*
X2126695Y1624001D01*
X2126674Y1623939D01*
X2126643Y1623880D01*
X2126635Y1623826D01*
X2126623Y1623789D01*
X2126623Y1623785D01*
X2126623Y1623784D01*
X2126624Y1623749D01*
X2126616Y1623695D01*
X2126616Y1619885D01*
X2126627Y1619820D01*
X2126629Y1619754D01*
X2126647Y1619711D01*
X2126655Y1619664D01*
X2126689Y1619607D01*
X2126714Y1619547D01*
X2126745Y1619512D01*
X2126770Y1619471D01*
X2126821Y1619430D01*
X2126865Y1619381D01*
X2126907Y1619359D01*
X2126944Y1619330D01*
X2127006Y1619309D01*
X2127065Y1619278D01*
X2127119Y1619270D01*
X2127156Y1619258D01*
X2127196Y1619259D01*
X2127250Y1619251D01*
X2129790Y1619251D01*
X2129855Y1619262D01*
G37*
G36*
X983045Y1595132D02*
X983045Y1595132D01*
X983111Y1595134D01*
X983154Y1595152D01*
X983201Y1595160D01*
X983258Y1595194D01*
X983318Y1595219D01*
X983353Y1595250D01*
X983394Y1595275D01*
X983436Y1595326D01*
X983484Y1595370D01*
X983506Y1595412D01*
X983535Y1595449D01*
X983556Y1595511D01*
X983587Y1595570D01*
X983595Y1595624D01*
X983607Y1595661D01*
X983606Y1595701D01*
X983614Y1595755D01*
X983614Y1599565D01*
X983603Y1599630D01*
X983601Y1599696D01*
X983583Y1599739D01*
X983575Y1599786D01*
X983541Y1599843D01*
X983516Y1599903D01*
X983485Y1599938D01*
X983460Y1599979D01*
X983409Y1600021D01*
X983365Y1600069D01*
X983323Y1600091D01*
X983286Y1600120D01*
X983224Y1600141D01*
X983165Y1600172D01*
X983111Y1600180D01*
X983074Y1600192D01*
X983034Y1600191D01*
X982980Y1600199D01*
X980440Y1600199D01*
X980375Y1600188D01*
X980309Y1600186D01*
X980266Y1600168D01*
X980219Y1600160D01*
X980162Y1600126D01*
X980102Y1600101D01*
X980067Y1600070D01*
X980026Y1600045D01*
X979985Y1599994D01*
X979936Y1599950D01*
X979914Y1599908D01*
X979885Y1599871D01*
X979864Y1599809D01*
X979833Y1599750D01*
X979825Y1599696D01*
X979813Y1599659D01*
X979813Y1599655D01*
X979813Y1599654D01*
X979814Y1599619D01*
X979806Y1599565D01*
X979806Y1595755D01*
X979817Y1595690D01*
X979819Y1595624D01*
X979837Y1595581D01*
X979845Y1595534D01*
X979879Y1595477D01*
X979904Y1595417D01*
X979935Y1595382D01*
X979960Y1595341D01*
X980011Y1595300D01*
X980055Y1595251D01*
X980097Y1595229D01*
X980134Y1595200D01*
X980196Y1595179D01*
X980255Y1595148D01*
X980309Y1595140D01*
X980346Y1595128D01*
X980386Y1595129D01*
X980440Y1595121D01*
X982980Y1595121D01*
X983045Y1595132D01*
G37*
G36*
X223585Y1595132D02*
X223585Y1595132D01*
X223651Y1595134D01*
X223694Y1595152D01*
X223741Y1595160D01*
X223798Y1595194D01*
X223858Y1595219D01*
X223893Y1595250D01*
X223934Y1595275D01*
X223976Y1595326D01*
X224024Y1595370D01*
X224046Y1595412D01*
X224075Y1595449D01*
X224096Y1595511D01*
X224127Y1595570D01*
X224135Y1595624D01*
X224147Y1595661D01*
X224146Y1595701D01*
X224154Y1595755D01*
X224154Y1599565D01*
X224143Y1599630D01*
X224141Y1599696D01*
X224123Y1599739D01*
X224115Y1599786D01*
X224081Y1599843D01*
X224056Y1599903D01*
X224025Y1599938D01*
X224000Y1599979D01*
X223949Y1600021D01*
X223905Y1600069D01*
X223863Y1600091D01*
X223826Y1600120D01*
X223764Y1600141D01*
X223705Y1600172D01*
X223651Y1600180D01*
X223614Y1600192D01*
X223574Y1600191D01*
X223520Y1600199D01*
X220980Y1600199D01*
X220915Y1600188D01*
X220849Y1600186D01*
X220806Y1600168D01*
X220759Y1600160D01*
X220702Y1600126D01*
X220642Y1600101D01*
X220607Y1600070D01*
X220566Y1600045D01*
X220525Y1599994D01*
X220476Y1599950D01*
X220454Y1599908D01*
X220425Y1599871D01*
X220404Y1599809D01*
X220373Y1599750D01*
X220365Y1599696D01*
X220353Y1599659D01*
X220353Y1599655D01*
X220353Y1599654D01*
X220354Y1599619D01*
X220346Y1599565D01*
X220346Y1595755D01*
X220357Y1595690D01*
X220359Y1595624D01*
X220377Y1595581D01*
X220385Y1595534D01*
X220419Y1595477D01*
X220444Y1595417D01*
X220475Y1595382D01*
X220500Y1595341D01*
X220551Y1595300D01*
X220595Y1595251D01*
X220637Y1595229D01*
X220674Y1595200D01*
X220736Y1595179D01*
X220795Y1595148D01*
X220849Y1595140D01*
X220886Y1595128D01*
X220926Y1595129D01*
X220980Y1595121D01*
X223520Y1595121D01*
X223585Y1595132D01*
G37*
G36*
X1742505Y1595132D02*
X1742505Y1595132D01*
X1742571Y1595134D01*
X1742614Y1595152D01*
X1742661Y1595160D01*
X1742718Y1595194D01*
X1742778Y1595219D01*
X1742813Y1595250D01*
X1742854Y1595275D01*
X1742896Y1595326D01*
X1742944Y1595370D01*
X1742966Y1595412D01*
X1742995Y1595449D01*
X1743016Y1595511D01*
X1743047Y1595570D01*
X1743055Y1595624D01*
X1743067Y1595661D01*
X1743066Y1595701D01*
X1743074Y1595755D01*
X1743074Y1599565D01*
X1743063Y1599630D01*
X1743061Y1599696D01*
X1743043Y1599739D01*
X1743035Y1599786D01*
X1743001Y1599843D01*
X1742976Y1599903D01*
X1742945Y1599938D01*
X1742920Y1599979D01*
X1742869Y1600021D01*
X1742825Y1600069D01*
X1742783Y1600091D01*
X1742746Y1600120D01*
X1742684Y1600141D01*
X1742625Y1600172D01*
X1742571Y1600180D01*
X1742534Y1600192D01*
X1742494Y1600191D01*
X1742440Y1600199D01*
X1739900Y1600199D01*
X1739835Y1600188D01*
X1739769Y1600186D01*
X1739726Y1600168D01*
X1739679Y1600160D01*
X1739622Y1600126D01*
X1739562Y1600101D01*
X1739527Y1600070D01*
X1739486Y1600045D01*
X1739445Y1599994D01*
X1739396Y1599950D01*
X1739374Y1599908D01*
X1739345Y1599871D01*
X1739324Y1599809D01*
X1739293Y1599750D01*
X1739285Y1599696D01*
X1739273Y1599659D01*
X1739273Y1599655D01*
X1739273Y1599654D01*
X1739274Y1599619D01*
X1739266Y1599565D01*
X1739266Y1595755D01*
X1739277Y1595690D01*
X1739279Y1595624D01*
X1739297Y1595581D01*
X1739305Y1595534D01*
X1739339Y1595477D01*
X1739364Y1595417D01*
X1739395Y1595382D01*
X1739420Y1595341D01*
X1739471Y1595300D01*
X1739515Y1595251D01*
X1739557Y1595229D01*
X1739594Y1595200D01*
X1739656Y1595179D01*
X1739715Y1595148D01*
X1739769Y1595140D01*
X1739806Y1595128D01*
X1739846Y1595129D01*
X1739900Y1595121D01*
X1742440Y1595121D01*
X1742505Y1595132D01*
G37*
G36*
X560135Y1041412D02*
X560135Y1041412D01*
X560201Y1041414D01*
X560244Y1041432D01*
X560291Y1041440D01*
X560348Y1041474D01*
X560408Y1041499D01*
X560443Y1041530D01*
X560484Y1041555D01*
X560526Y1041606D01*
X560574Y1041650D01*
X560596Y1041692D01*
X560625Y1041729D01*
X560646Y1041791D01*
X560677Y1041850D01*
X560685Y1041904D01*
X560697Y1041941D01*
X560696Y1041981D01*
X560704Y1042035D01*
X560704Y1045845D01*
X560693Y1045910D01*
X560691Y1045976D01*
X560673Y1046019D01*
X560665Y1046066D01*
X560631Y1046123D01*
X560606Y1046183D01*
X560575Y1046218D01*
X560550Y1046259D01*
X560499Y1046301D01*
X560455Y1046349D01*
X560413Y1046371D01*
X560376Y1046400D01*
X560314Y1046421D01*
X560255Y1046452D01*
X560201Y1046460D01*
X560164Y1046472D01*
X560124Y1046471D01*
X560070Y1046479D01*
X557530Y1046479D01*
X557465Y1046468D01*
X557399Y1046466D01*
X557356Y1046448D01*
X557309Y1046440D01*
X557252Y1046406D01*
X557192Y1046381D01*
X557157Y1046350D01*
X557116Y1046325D01*
X557075Y1046274D01*
X557026Y1046230D01*
X557004Y1046188D01*
X556975Y1046151D01*
X556954Y1046089D01*
X556923Y1046030D01*
X556915Y1045976D01*
X556903Y1045939D01*
X556903Y1045935D01*
X556903Y1045934D01*
X556904Y1045899D01*
X556896Y1045845D01*
X556896Y1042035D01*
X556907Y1041970D01*
X556909Y1041904D01*
X556927Y1041861D01*
X556935Y1041814D01*
X556969Y1041757D01*
X556994Y1041697D01*
X557025Y1041662D01*
X557050Y1041621D01*
X557101Y1041580D01*
X557145Y1041531D01*
X557187Y1041509D01*
X557224Y1041480D01*
X557286Y1041459D01*
X557345Y1041428D01*
X557399Y1041420D01*
X557436Y1041408D01*
X557476Y1041409D01*
X557530Y1041401D01*
X560070Y1041401D01*
X560135Y1041412D01*
G37*
G36*
X534735Y1041412D02*
X534735Y1041412D01*
X534801Y1041414D01*
X534844Y1041432D01*
X534891Y1041440D01*
X534948Y1041474D01*
X535008Y1041499D01*
X535043Y1041530D01*
X535084Y1041555D01*
X535126Y1041606D01*
X535174Y1041650D01*
X535196Y1041692D01*
X535225Y1041729D01*
X535246Y1041791D01*
X535277Y1041850D01*
X535285Y1041904D01*
X535297Y1041941D01*
X535296Y1041981D01*
X535304Y1042035D01*
X535304Y1045845D01*
X535293Y1045910D01*
X535291Y1045976D01*
X535273Y1046019D01*
X535265Y1046066D01*
X535231Y1046123D01*
X535206Y1046183D01*
X535175Y1046218D01*
X535150Y1046259D01*
X535099Y1046301D01*
X535055Y1046349D01*
X535013Y1046371D01*
X534976Y1046400D01*
X534914Y1046421D01*
X534855Y1046452D01*
X534801Y1046460D01*
X534764Y1046472D01*
X534724Y1046471D01*
X534670Y1046479D01*
X532130Y1046479D01*
X532065Y1046468D01*
X531999Y1046466D01*
X531956Y1046448D01*
X531909Y1046440D01*
X531852Y1046406D01*
X531792Y1046381D01*
X531757Y1046350D01*
X531716Y1046325D01*
X531675Y1046274D01*
X531626Y1046230D01*
X531604Y1046188D01*
X531575Y1046151D01*
X531554Y1046089D01*
X531523Y1046030D01*
X531515Y1045976D01*
X531503Y1045939D01*
X531503Y1045935D01*
X531503Y1045934D01*
X531504Y1045899D01*
X531496Y1045845D01*
X531496Y1042035D01*
X531507Y1041970D01*
X531509Y1041904D01*
X531527Y1041861D01*
X531535Y1041814D01*
X531569Y1041757D01*
X531594Y1041697D01*
X531625Y1041662D01*
X531650Y1041621D01*
X531701Y1041580D01*
X531745Y1041531D01*
X531787Y1041509D01*
X531824Y1041480D01*
X531886Y1041459D01*
X531945Y1041428D01*
X531999Y1041420D01*
X532036Y1041408D01*
X532076Y1041409D01*
X532130Y1041401D01*
X534670Y1041401D01*
X534735Y1041412D01*
G37*
G36*
X1319595Y1041412D02*
X1319595Y1041412D01*
X1319661Y1041414D01*
X1319704Y1041432D01*
X1319751Y1041440D01*
X1319808Y1041474D01*
X1319868Y1041499D01*
X1319903Y1041530D01*
X1319944Y1041555D01*
X1319986Y1041606D01*
X1320034Y1041650D01*
X1320056Y1041692D01*
X1320085Y1041729D01*
X1320106Y1041791D01*
X1320137Y1041850D01*
X1320145Y1041904D01*
X1320157Y1041941D01*
X1320156Y1041981D01*
X1320164Y1042035D01*
X1320164Y1045845D01*
X1320153Y1045910D01*
X1320151Y1045976D01*
X1320133Y1046019D01*
X1320125Y1046066D01*
X1320091Y1046123D01*
X1320066Y1046183D01*
X1320035Y1046218D01*
X1320010Y1046259D01*
X1319959Y1046301D01*
X1319915Y1046349D01*
X1319873Y1046371D01*
X1319836Y1046400D01*
X1319774Y1046421D01*
X1319715Y1046452D01*
X1319661Y1046460D01*
X1319624Y1046472D01*
X1319584Y1046471D01*
X1319530Y1046479D01*
X1316990Y1046479D01*
X1316925Y1046468D01*
X1316859Y1046466D01*
X1316816Y1046448D01*
X1316769Y1046440D01*
X1316712Y1046406D01*
X1316652Y1046381D01*
X1316617Y1046350D01*
X1316576Y1046325D01*
X1316535Y1046274D01*
X1316486Y1046230D01*
X1316464Y1046188D01*
X1316435Y1046151D01*
X1316414Y1046089D01*
X1316383Y1046030D01*
X1316375Y1045976D01*
X1316363Y1045939D01*
X1316363Y1045935D01*
X1316363Y1045934D01*
X1316364Y1045899D01*
X1316356Y1045845D01*
X1316356Y1042035D01*
X1316367Y1041970D01*
X1316369Y1041904D01*
X1316387Y1041861D01*
X1316395Y1041814D01*
X1316429Y1041757D01*
X1316454Y1041697D01*
X1316485Y1041662D01*
X1316510Y1041621D01*
X1316561Y1041580D01*
X1316605Y1041531D01*
X1316647Y1041509D01*
X1316684Y1041480D01*
X1316746Y1041459D01*
X1316805Y1041428D01*
X1316859Y1041420D01*
X1316896Y1041408D01*
X1316936Y1041409D01*
X1316990Y1041401D01*
X1319530Y1041401D01*
X1319595Y1041412D01*
G37*
G36*
X1294195Y1041412D02*
X1294195Y1041412D01*
X1294261Y1041414D01*
X1294304Y1041432D01*
X1294351Y1041440D01*
X1294408Y1041474D01*
X1294468Y1041499D01*
X1294503Y1041530D01*
X1294544Y1041555D01*
X1294586Y1041606D01*
X1294634Y1041650D01*
X1294656Y1041692D01*
X1294685Y1041729D01*
X1294706Y1041791D01*
X1294737Y1041850D01*
X1294745Y1041904D01*
X1294757Y1041941D01*
X1294756Y1041981D01*
X1294764Y1042035D01*
X1294764Y1045845D01*
X1294753Y1045910D01*
X1294751Y1045976D01*
X1294733Y1046019D01*
X1294725Y1046066D01*
X1294691Y1046123D01*
X1294666Y1046183D01*
X1294635Y1046218D01*
X1294610Y1046259D01*
X1294559Y1046301D01*
X1294515Y1046349D01*
X1294473Y1046371D01*
X1294436Y1046400D01*
X1294374Y1046421D01*
X1294315Y1046452D01*
X1294261Y1046460D01*
X1294224Y1046472D01*
X1294184Y1046471D01*
X1294130Y1046479D01*
X1291590Y1046479D01*
X1291525Y1046468D01*
X1291459Y1046466D01*
X1291416Y1046448D01*
X1291369Y1046440D01*
X1291312Y1046406D01*
X1291252Y1046381D01*
X1291217Y1046350D01*
X1291176Y1046325D01*
X1291135Y1046274D01*
X1291086Y1046230D01*
X1291064Y1046188D01*
X1291035Y1046151D01*
X1291014Y1046089D01*
X1290983Y1046030D01*
X1290975Y1045976D01*
X1290963Y1045939D01*
X1290963Y1045935D01*
X1290963Y1045934D01*
X1290964Y1045899D01*
X1290956Y1045845D01*
X1290956Y1042035D01*
X1290967Y1041970D01*
X1290969Y1041904D01*
X1290987Y1041861D01*
X1290995Y1041814D01*
X1291029Y1041757D01*
X1291054Y1041697D01*
X1291085Y1041662D01*
X1291110Y1041621D01*
X1291161Y1041580D01*
X1291205Y1041531D01*
X1291247Y1041509D01*
X1291284Y1041480D01*
X1291346Y1041459D01*
X1291405Y1041428D01*
X1291459Y1041420D01*
X1291496Y1041408D01*
X1291536Y1041409D01*
X1291590Y1041401D01*
X1294130Y1041401D01*
X1294195Y1041412D01*
G37*
G36*
X2053655Y1041412D02*
X2053655Y1041412D01*
X2053721Y1041414D01*
X2053764Y1041432D01*
X2053811Y1041440D01*
X2053868Y1041474D01*
X2053928Y1041499D01*
X2053963Y1041530D01*
X2054004Y1041555D01*
X2054046Y1041606D01*
X2054094Y1041650D01*
X2054116Y1041692D01*
X2054145Y1041729D01*
X2054166Y1041791D01*
X2054197Y1041850D01*
X2054205Y1041904D01*
X2054217Y1041941D01*
X2054216Y1041981D01*
X2054224Y1042035D01*
X2054224Y1045845D01*
X2054213Y1045910D01*
X2054211Y1045976D01*
X2054193Y1046019D01*
X2054185Y1046066D01*
X2054151Y1046123D01*
X2054126Y1046183D01*
X2054095Y1046218D01*
X2054070Y1046259D01*
X2054019Y1046301D01*
X2053975Y1046349D01*
X2053933Y1046371D01*
X2053896Y1046400D01*
X2053834Y1046421D01*
X2053775Y1046452D01*
X2053721Y1046460D01*
X2053684Y1046472D01*
X2053644Y1046471D01*
X2053590Y1046479D01*
X2051050Y1046479D01*
X2050985Y1046468D01*
X2050919Y1046466D01*
X2050876Y1046448D01*
X2050829Y1046440D01*
X2050772Y1046406D01*
X2050712Y1046381D01*
X2050677Y1046350D01*
X2050636Y1046325D01*
X2050595Y1046274D01*
X2050546Y1046230D01*
X2050524Y1046188D01*
X2050495Y1046151D01*
X2050474Y1046089D01*
X2050443Y1046030D01*
X2050435Y1045976D01*
X2050423Y1045939D01*
X2050423Y1045935D01*
X2050423Y1045934D01*
X2050424Y1045899D01*
X2050416Y1045845D01*
X2050416Y1042035D01*
X2050427Y1041970D01*
X2050429Y1041904D01*
X2050447Y1041861D01*
X2050455Y1041814D01*
X2050489Y1041757D01*
X2050514Y1041697D01*
X2050545Y1041662D01*
X2050570Y1041621D01*
X2050621Y1041580D01*
X2050665Y1041531D01*
X2050707Y1041509D01*
X2050744Y1041480D01*
X2050806Y1041459D01*
X2050865Y1041428D01*
X2050919Y1041420D01*
X2050956Y1041408D01*
X2050996Y1041409D01*
X2051050Y1041401D01*
X2053590Y1041401D01*
X2053655Y1041412D01*
G37*
G36*
X2079055Y1041412D02*
X2079055Y1041412D01*
X2079121Y1041414D01*
X2079164Y1041432D01*
X2079211Y1041440D01*
X2079268Y1041474D01*
X2079328Y1041499D01*
X2079363Y1041530D01*
X2079404Y1041555D01*
X2079446Y1041606D01*
X2079494Y1041650D01*
X2079516Y1041692D01*
X2079545Y1041729D01*
X2079566Y1041791D01*
X2079597Y1041850D01*
X2079605Y1041904D01*
X2079617Y1041941D01*
X2079616Y1041981D01*
X2079624Y1042035D01*
X2079624Y1045845D01*
X2079613Y1045910D01*
X2079611Y1045976D01*
X2079593Y1046019D01*
X2079585Y1046066D01*
X2079551Y1046123D01*
X2079526Y1046183D01*
X2079495Y1046218D01*
X2079470Y1046259D01*
X2079419Y1046301D01*
X2079375Y1046349D01*
X2079333Y1046371D01*
X2079296Y1046400D01*
X2079234Y1046421D01*
X2079175Y1046452D01*
X2079121Y1046460D01*
X2079084Y1046472D01*
X2079044Y1046471D01*
X2078990Y1046479D01*
X2076450Y1046479D01*
X2076385Y1046468D01*
X2076319Y1046466D01*
X2076276Y1046448D01*
X2076229Y1046440D01*
X2076172Y1046406D01*
X2076112Y1046381D01*
X2076077Y1046350D01*
X2076036Y1046325D01*
X2075995Y1046274D01*
X2075946Y1046230D01*
X2075924Y1046188D01*
X2075895Y1046151D01*
X2075874Y1046089D01*
X2075843Y1046030D01*
X2075835Y1045976D01*
X2075823Y1045939D01*
X2075823Y1045935D01*
X2075823Y1045934D01*
X2075824Y1045899D01*
X2075816Y1045845D01*
X2075816Y1042035D01*
X2075827Y1041970D01*
X2075829Y1041904D01*
X2075847Y1041861D01*
X2075855Y1041814D01*
X2075889Y1041757D01*
X2075914Y1041697D01*
X2075945Y1041662D01*
X2075970Y1041621D01*
X2076021Y1041580D01*
X2076065Y1041531D01*
X2076107Y1041509D01*
X2076144Y1041480D01*
X2076206Y1041459D01*
X2076265Y1041428D01*
X2076319Y1041420D01*
X2076356Y1041408D01*
X2076396Y1041409D01*
X2076450Y1041401D01*
X2078990Y1041401D01*
X2079055Y1041412D01*
G37*
G36*
X2129855Y1040142D02*
X2129855Y1040142D01*
X2129921Y1040144D01*
X2129964Y1040162D01*
X2130011Y1040170D01*
X2130068Y1040204D01*
X2130128Y1040229D01*
X2130163Y1040260D01*
X2130204Y1040285D01*
X2130246Y1040336D01*
X2130294Y1040380D01*
X2130316Y1040422D01*
X2130345Y1040459D01*
X2130366Y1040521D01*
X2130397Y1040580D01*
X2130405Y1040634D01*
X2130417Y1040671D01*
X2130416Y1040711D01*
X2130424Y1040765D01*
X2130424Y1044575D01*
X2130413Y1044640D01*
X2130411Y1044706D01*
X2130393Y1044749D01*
X2130385Y1044796D01*
X2130351Y1044853D01*
X2130326Y1044913D01*
X2130295Y1044948D01*
X2130270Y1044989D01*
X2130219Y1045031D01*
X2130175Y1045079D01*
X2130133Y1045101D01*
X2130096Y1045130D01*
X2130034Y1045151D01*
X2129975Y1045182D01*
X2129921Y1045190D01*
X2129884Y1045202D01*
X2129844Y1045201D01*
X2129790Y1045209D01*
X2127250Y1045209D01*
X2127185Y1045198D01*
X2127119Y1045196D01*
X2127076Y1045178D01*
X2127029Y1045170D01*
X2126972Y1045136D01*
X2126912Y1045111D01*
X2126877Y1045080D01*
X2126836Y1045055D01*
X2126795Y1045004D01*
X2126746Y1044960D01*
X2126724Y1044918D01*
X2126695Y1044881D01*
X2126674Y1044819D01*
X2126643Y1044760D01*
X2126635Y1044706D01*
X2126623Y1044669D01*
X2126623Y1044665D01*
X2126623Y1044664D01*
X2126624Y1044629D01*
X2126616Y1044575D01*
X2126616Y1040765D01*
X2126627Y1040700D01*
X2126629Y1040634D01*
X2126647Y1040591D01*
X2126655Y1040544D01*
X2126689Y1040487D01*
X2126714Y1040427D01*
X2126745Y1040392D01*
X2126770Y1040351D01*
X2126821Y1040310D01*
X2126865Y1040261D01*
X2126907Y1040239D01*
X2126944Y1040210D01*
X2127006Y1040189D01*
X2127065Y1040158D01*
X2127119Y1040150D01*
X2127156Y1040138D01*
X2127196Y1040139D01*
X2127250Y1040131D01*
X2129790Y1040131D01*
X2129855Y1040142D01*
G37*
G36*
X610935Y1040142D02*
X610935Y1040142D01*
X611001Y1040144D01*
X611044Y1040162D01*
X611091Y1040170D01*
X611148Y1040204D01*
X611208Y1040229D01*
X611243Y1040260D01*
X611284Y1040285D01*
X611326Y1040336D01*
X611374Y1040380D01*
X611396Y1040422D01*
X611425Y1040459D01*
X611446Y1040521D01*
X611477Y1040580D01*
X611485Y1040634D01*
X611497Y1040671D01*
X611496Y1040711D01*
X611504Y1040765D01*
X611504Y1044575D01*
X611493Y1044640D01*
X611491Y1044706D01*
X611473Y1044749D01*
X611465Y1044796D01*
X611431Y1044853D01*
X611406Y1044913D01*
X611375Y1044948D01*
X611350Y1044989D01*
X611299Y1045031D01*
X611255Y1045079D01*
X611213Y1045101D01*
X611176Y1045130D01*
X611114Y1045151D01*
X611055Y1045182D01*
X611001Y1045190D01*
X610964Y1045202D01*
X610924Y1045201D01*
X610870Y1045209D01*
X608330Y1045209D01*
X608265Y1045198D01*
X608199Y1045196D01*
X608156Y1045178D01*
X608109Y1045170D01*
X608052Y1045136D01*
X607992Y1045111D01*
X607957Y1045080D01*
X607916Y1045055D01*
X607875Y1045004D01*
X607826Y1044960D01*
X607804Y1044918D01*
X607775Y1044881D01*
X607754Y1044819D01*
X607723Y1044760D01*
X607715Y1044706D01*
X607703Y1044669D01*
X607703Y1044665D01*
X607703Y1044664D01*
X607704Y1044629D01*
X607696Y1044575D01*
X607696Y1040765D01*
X607707Y1040700D01*
X607709Y1040634D01*
X607727Y1040591D01*
X607735Y1040544D01*
X607769Y1040487D01*
X607794Y1040427D01*
X607825Y1040392D01*
X607850Y1040351D01*
X607901Y1040310D01*
X607945Y1040261D01*
X607987Y1040239D01*
X608024Y1040210D01*
X608086Y1040189D01*
X608145Y1040158D01*
X608199Y1040150D01*
X608236Y1040138D01*
X608276Y1040139D01*
X608330Y1040131D01*
X610870Y1040131D01*
X610935Y1040142D01*
G37*
G36*
X1370395Y1040142D02*
X1370395Y1040142D01*
X1370461Y1040144D01*
X1370504Y1040162D01*
X1370551Y1040170D01*
X1370608Y1040204D01*
X1370668Y1040229D01*
X1370703Y1040260D01*
X1370744Y1040285D01*
X1370786Y1040336D01*
X1370834Y1040380D01*
X1370856Y1040422D01*
X1370885Y1040459D01*
X1370906Y1040521D01*
X1370937Y1040580D01*
X1370945Y1040634D01*
X1370957Y1040671D01*
X1370956Y1040711D01*
X1370964Y1040765D01*
X1370964Y1044575D01*
X1370953Y1044640D01*
X1370951Y1044706D01*
X1370933Y1044749D01*
X1370925Y1044796D01*
X1370891Y1044853D01*
X1370866Y1044913D01*
X1370835Y1044948D01*
X1370810Y1044989D01*
X1370759Y1045031D01*
X1370715Y1045079D01*
X1370673Y1045101D01*
X1370636Y1045130D01*
X1370574Y1045151D01*
X1370515Y1045182D01*
X1370461Y1045190D01*
X1370424Y1045202D01*
X1370384Y1045201D01*
X1370330Y1045209D01*
X1367790Y1045209D01*
X1367725Y1045198D01*
X1367659Y1045196D01*
X1367616Y1045178D01*
X1367569Y1045170D01*
X1367512Y1045136D01*
X1367452Y1045111D01*
X1367417Y1045080D01*
X1367376Y1045055D01*
X1367335Y1045004D01*
X1367286Y1044960D01*
X1367264Y1044918D01*
X1367235Y1044881D01*
X1367214Y1044819D01*
X1367183Y1044760D01*
X1367175Y1044706D01*
X1367163Y1044669D01*
X1367163Y1044665D01*
X1367163Y1044664D01*
X1367164Y1044629D01*
X1367156Y1044575D01*
X1367156Y1040765D01*
X1367167Y1040700D01*
X1367169Y1040634D01*
X1367187Y1040591D01*
X1367195Y1040544D01*
X1367229Y1040487D01*
X1367254Y1040427D01*
X1367285Y1040392D01*
X1367310Y1040351D01*
X1367361Y1040310D01*
X1367405Y1040261D01*
X1367447Y1040239D01*
X1367484Y1040210D01*
X1367546Y1040189D01*
X1367605Y1040158D01*
X1367659Y1040150D01*
X1367696Y1040138D01*
X1367736Y1040139D01*
X1367790Y1040131D01*
X1370330Y1040131D01*
X1370395Y1040142D01*
G37*
G36*
X610935Y1029982D02*
X610935Y1029982D01*
X611001Y1029984D01*
X611044Y1030002D01*
X611091Y1030010D01*
X611148Y1030044D01*
X611208Y1030069D01*
X611243Y1030100D01*
X611284Y1030125D01*
X611326Y1030176D01*
X611374Y1030220D01*
X611396Y1030262D01*
X611425Y1030299D01*
X611446Y1030361D01*
X611477Y1030420D01*
X611485Y1030474D01*
X611497Y1030511D01*
X611496Y1030551D01*
X611504Y1030605D01*
X611504Y1034415D01*
X611493Y1034480D01*
X611491Y1034546D01*
X611473Y1034589D01*
X611465Y1034636D01*
X611431Y1034693D01*
X611406Y1034753D01*
X611375Y1034788D01*
X611350Y1034829D01*
X611299Y1034871D01*
X611255Y1034919D01*
X611213Y1034941D01*
X611176Y1034970D01*
X611114Y1034991D01*
X611055Y1035022D01*
X611001Y1035030D01*
X610964Y1035042D01*
X610924Y1035041D01*
X610870Y1035049D01*
X608330Y1035049D01*
X608265Y1035038D01*
X608199Y1035036D01*
X608156Y1035018D01*
X608109Y1035010D01*
X608052Y1034976D01*
X607992Y1034951D01*
X607957Y1034920D01*
X607916Y1034895D01*
X607875Y1034844D01*
X607826Y1034800D01*
X607804Y1034758D01*
X607775Y1034721D01*
X607754Y1034659D01*
X607723Y1034600D01*
X607715Y1034546D01*
X607703Y1034509D01*
X607703Y1034505D01*
X607703Y1034504D01*
X607704Y1034469D01*
X607696Y1034415D01*
X607696Y1030605D01*
X607707Y1030540D01*
X607709Y1030474D01*
X607727Y1030431D01*
X607735Y1030384D01*
X607769Y1030327D01*
X607794Y1030267D01*
X607825Y1030232D01*
X607850Y1030191D01*
X607901Y1030150D01*
X607945Y1030101D01*
X607987Y1030079D01*
X608024Y1030050D01*
X608086Y1030029D01*
X608145Y1029998D01*
X608199Y1029990D01*
X608236Y1029978D01*
X608276Y1029979D01*
X608330Y1029971D01*
X610870Y1029971D01*
X610935Y1029982D01*
G37*
G36*
X1370395Y1029982D02*
X1370395Y1029982D01*
X1370461Y1029984D01*
X1370504Y1030002D01*
X1370551Y1030010D01*
X1370608Y1030044D01*
X1370668Y1030069D01*
X1370703Y1030100D01*
X1370744Y1030125D01*
X1370786Y1030176D01*
X1370834Y1030220D01*
X1370856Y1030262D01*
X1370885Y1030299D01*
X1370906Y1030361D01*
X1370937Y1030420D01*
X1370945Y1030474D01*
X1370957Y1030511D01*
X1370956Y1030551D01*
X1370964Y1030605D01*
X1370964Y1034415D01*
X1370953Y1034480D01*
X1370951Y1034546D01*
X1370933Y1034589D01*
X1370925Y1034636D01*
X1370891Y1034693D01*
X1370866Y1034753D01*
X1370835Y1034788D01*
X1370810Y1034829D01*
X1370759Y1034871D01*
X1370715Y1034919D01*
X1370673Y1034941D01*
X1370636Y1034970D01*
X1370574Y1034991D01*
X1370515Y1035022D01*
X1370461Y1035030D01*
X1370424Y1035042D01*
X1370384Y1035041D01*
X1370330Y1035049D01*
X1367790Y1035049D01*
X1367725Y1035038D01*
X1367659Y1035036D01*
X1367616Y1035018D01*
X1367569Y1035010D01*
X1367512Y1034976D01*
X1367452Y1034951D01*
X1367417Y1034920D01*
X1367376Y1034895D01*
X1367335Y1034844D01*
X1367286Y1034800D01*
X1367264Y1034758D01*
X1367235Y1034721D01*
X1367214Y1034659D01*
X1367183Y1034600D01*
X1367175Y1034546D01*
X1367163Y1034509D01*
X1367163Y1034505D01*
X1367163Y1034504D01*
X1367164Y1034469D01*
X1367156Y1034415D01*
X1367156Y1030605D01*
X1367167Y1030540D01*
X1367169Y1030474D01*
X1367187Y1030431D01*
X1367195Y1030384D01*
X1367229Y1030327D01*
X1367254Y1030267D01*
X1367285Y1030232D01*
X1367310Y1030191D01*
X1367361Y1030150D01*
X1367405Y1030101D01*
X1367447Y1030079D01*
X1367484Y1030050D01*
X1367546Y1030029D01*
X1367605Y1029998D01*
X1367659Y1029990D01*
X1367696Y1029978D01*
X1367736Y1029979D01*
X1367790Y1029971D01*
X1370330Y1029971D01*
X1370395Y1029982D01*
G37*
G36*
X2129855Y1029982D02*
X2129855Y1029982D01*
X2129921Y1029984D01*
X2129964Y1030002D01*
X2130011Y1030010D01*
X2130068Y1030044D01*
X2130128Y1030069D01*
X2130163Y1030100D01*
X2130204Y1030125D01*
X2130246Y1030176D01*
X2130294Y1030220D01*
X2130316Y1030262D01*
X2130345Y1030299D01*
X2130366Y1030361D01*
X2130397Y1030420D01*
X2130405Y1030474D01*
X2130417Y1030511D01*
X2130416Y1030551D01*
X2130424Y1030605D01*
X2130424Y1034415D01*
X2130413Y1034480D01*
X2130411Y1034546D01*
X2130393Y1034589D01*
X2130385Y1034636D01*
X2130351Y1034693D01*
X2130326Y1034753D01*
X2130295Y1034788D01*
X2130270Y1034829D01*
X2130219Y1034871D01*
X2130175Y1034919D01*
X2130133Y1034941D01*
X2130096Y1034970D01*
X2130034Y1034991D01*
X2129975Y1035022D01*
X2129921Y1035030D01*
X2129884Y1035042D01*
X2129844Y1035041D01*
X2129790Y1035049D01*
X2127250Y1035049D01*
X2127185Y1035038D01*
X2127119Y1035036D01*
X2127076Y1035018D01*
X2127029Y1035010D01*
X2126972Y1034976D01*
X2126912Y1034951D01*
X2126877Y1034920D01*
X2126836Y1034895D01*
X2126795Y1034844D01*
X2126746Y1034800D01*
X2126724Y1034758D01*
X2126695Y1034721D01*
X2126674Y1034659D01*
X2126643Y1034600D01*
X2126635Y1034546D01*
X2126623Y1034509D01*
X2126623Y1034505D01*
X2126623Y1034504D01*
X2126624Y1034469D01*
X2126616Y1034415D01*
X2126616Y1030605D01*
X2126627Y1030540D01*
X2126629Y1030474D01*
X2126647Y1030431D01*
X2126655Y1030384D01*
X2126689Y1030327D01*
X2126714Y1030267D01*
X2126745Y1030232D01*
X2126770Y1030191D01*
X2126821Y1030150D01*
X2126865Y1030101D01*
X2126907Y1030079D01*
X2126944Y1030050D01*
X2127006Y1030029D01*
X2127065Y1029998D01*
X2127119Y1029990D01*
X2127156Y1029978D01*
X2127196Y1029979D01*
X2127250Y1029971D01*
X2129790Y1029971D01*
X2129855Y1029982D01*
G37*
G36*
X223585Y1005852D02*
X223585Y1005852D01*
X223651Y1005854D01*
X223694Y1005872D01*
X223741Y1005880D01*
X223798Y1005914D01*
X223858Y1005939D01*
X223893Y1005970D01*
X223934Y1005995D01*
X223976Y1006046D01*
X224024Y1006090D01*
X224046Y1006132D01*
X224075Y1006169D01*
X224096Y1006231D01*
X224127Y1006290D01*
X224135Y1006344D01*
X224147Y1006381D01*
X224146Y1006421D01*
X224154Y1006475D01*
X224154Y1010285D01*
X224143Y1010350D01*
X224141Y1010416D01*
X224123Y1010459D01*
X224115Y1010506D01*
X224081Y1010563D01*
X224056Y1010623D01*
X224025Y1010658D01*
X224000Y1010699D01*
X223949Y1010741D01*
X223905Y1010789D01*
X223863Y1010811D01*
X223826Y1010840D01*
X223764Y1010861D01*
X223705Y1010892D01*
X223651Y1010900D01*
X223614Y1010912D01*
X223574Y1010911D01*
X223520Y1010919D01*
X220980Y1010919D01*
X220915Y1010908D01*
X220849Y1010906D01*
X220806Y1010888D01*
X220759Y1010880D01*
X220702Y1010846D01*
X220642Y1010821D01*
X220607Y1010790D01*
X220566Y1010765D01*
X220525Y1010714D01*
X220476Y1010670D01*
X220454Y1010628D01*
X220425Y1010591D01*
X220404Y1010529D01*
X220373Y1010470D01*
X220365Y1010416D01*
X220353Y1010379D01*
X220353Y1010375D01*
X220353Y1010374D01*
X220354Y1010339D01*
X220346Y1010285D01*
X220346Y1006475D01*
X220357Y1006410D01*
X220359Y1006344D01*
X220377Y1006301D01*
X220385Y1006254D01*
X220419Y1006197D01*
X220444Y1006137D01*
X220475Y1006102D01*
X220500Y1006061D01*
X220551Y1006020D01*
X220595Y1005971D01*
X220637Y1005949D01*
X220674Y1005920D01*
X220736Y1005899D01*
X220795Y1005868D01*
X220849Y1005860D01*
X220886Y1005848D01*
X220926Y1005849D01*
X220980Y1005841D01*
X223520Y1005841D01*
X223585Y1005852D01*
G37*
G36*
X1742505Y1005852D02*
X1742505Y1005852D01*
X1742571Y1005854D01*
X1742614Y1005872D01*
X1742661Y1005880D01*
X1742718Y1005914D01*
X1742778Y1005939D01*
X1742813Y1005970D01*
X1742854Y1005995D01*
X1742896Y1006046D01*
X1742944Y1006090D01*
X1742966Y1006132D01*
X1742995Y1006169D01*
X1743016Y1006231D01*
X1743047Y1006290D01*
X1743055Y1006344D01*
X1743067Y1006381D01*
X1743066Y1006421D01*
X1743074Y1006475D01*
X1743074Y1010285D01*
X1743063Y1010350D01*
X1743061Y1010416D01*
X1743043Y1010459D01*
X1743035Y1010506D01*
X1743001Y1010563D01*
X1742976Y1010623D01*
X1742945Y1010658D01*
X1742920Y1010699D01*
X1742869Y1010741D01*
X1742825Y1010789D01*
X1742783Y1010811D01*
X1742746Y1010840D01*
X1742684Y1010861D01*
X1742625Y1010892D01*
X1742571Y1010900D01*
X1742534Y1010912D01*
X1742494Y1010911D01*
X1742440Y1010919D01*
X1739900Y1010919D01*
X1739835Y1010908D01*
X1739769Y1010906D01*
X1739726Y1010888D01*
X1739679Y1010880D01*
X1739622Y1010846D01*
X1739562Y1010821D01*
X1739527Y1010790D01*
X1739486Y1010765D01*
X1739445Y1010714D01*
X1739396Y1010670D01*
X1739374Y1010628D01*
X1739345Y1010591D01*
X1739324Y1010529D01*
X1739293Y1010470D01*
X1739285Y1010416D01*
X1739273Y1010379D01*
X1739273Y1010375D01*
X1739273Y1010374D01*
X1739274Y1010339D01*
X1739266Y1010285D01*
X1739266Y1006475D01*
X1739277Y1006410D01*
X1739279Y1006344D01*
X1739297Y1006301D01*
X1739305Y1006254D01*
X1739339Y1006197D01*
X1739364Y1006137D01*
X1739395Y1006102D01*
X1739420Y1006061D01*
X1739471Y1006020D01*
X1739515Y1005971D01*
X1739557Y1005949D01*
X1739594Y1005920D01*
X1739656Y1005899D01*
X1739715Y1005868D01*
X1739769Y1005860D01*
X1739806Y1005848D01*
X1739846Y1005849D01*
X1739900Y1005841D01*
X1742440Y1005841D01*
X1742505Y1005852D01*
G37*
G36*
X983045Y1005852D02*
X983045Y1005852D01*
X983111Y1005854D01*
X983154Y1005872D01*
X983201Y1005880D01*
X983258Y1005914D01*
X983318Y1005939D01*
X983353Y1005970D01*
X983394Y1005995D01*
X983436Y1006046D01*
X983484Y1006090D01*
X983506Y1006132D01*
X983535Y1006169D01*
X983556Y1006231D01*
X983587Y1006290D01*
X983595Y1006344D01*
X983607Y1006381D01*
X983606Y1006421D01*
X983614Y1006475D01*
X983614Y1010285D01*
X983603Y1010350D01*
X983601Y1010416D01*
X983583Y1010459D01*
X983575Y1010506D01*
X983541Y1010563D01*
X983516Y1010623D01*
X983485Y1010658D01*
X983460Y1010699D01*
X983409Y1010741D01*
X983365Y1010789D01*
X983323Y1010811D01*
X983286Y1010840D01*
X983224Y1010861D01*
X983165Y1010892D01*
X983111Y1010900D01*
X983074Y1010912D01*
X983034Y1010911D01*
X982980Y1010919D01*
X980440Y1010919D01*
X980375Y1010908D01*
X980309Y1010906D01*
X980266Y1010888D01*
X980219Y1010880D01*
X980162Y1010846D01*
X980102Y1010821D01*
X980067Y1010790D01*
X980026Y1010765D01*
X979985Y1010714D01*
X979936Y1010670D01*
X979914Y1010628D01*
X979885Y1010591D01*
X979864Y1010529D01*
X979833Y1010470D01*
X979825Y1010416D01*
X979813Y1010379D01*
X979813Y1010375D01*
X979813Y1010374D01*
X979814Y1010339D01*
X979806Y1010285D01*
X979806Y1006475D01*
X979817Y1006410D01*
X979819Y1006344D01*
X979837Y1006301D01*
X979845Y1006254D01*
X979879Y1006197D01*
X979904Y1006137D01*
X979935Y1006102D01*
X979960Y1006061D01*
X980011Y1006020D01*
X980055Y1005971D01*
X980097Y1005949D01*
X980134Y1005920D01*
X980196Y1005899D01*
X980255Y1005868D01*
X980309Y1005860D01*
X980346Y1005848D01*
X980386Y1005849D01*
X980440Y1005841D01*
X982980Y1005841D01*
X983045Y1005852D01*
G37*
G36*
X2053655Y2219972D02*
X2053655Y2219972D01*
X2053721Y2219974D01*
X2053764Y2219992D01*
X2053811Y2220000D01*
X2053868Y2220034D01*
X2053928Y2220059D01*
X2053963Y2220090D01*
X2054004Y2220115D01*
X2054046Y2220166D01*
X2054094Y2220210D01*
X2054116Y2220252D01*
X2054145Y2220289D01*
X2054166Y2220351D01*
X2054197Y2220410D01*
X2054205Y2220464D01*
X2054217Y2220501D01*
X2054216Y2220541D01*
X2054224Y2220595D01*
X2054224Y2224405D01*
X2054213Y2224470D01*
X2054211Y2224536D01*
X2054193Y2224579D01*
X2054185Y2224626D01*
X2054151Y2224683D01*
X2054126Y2224743D01*
X2054095Y2224778D01*
X2054070Y2224819D01*
X2054019Y2224861D01*
X2053975Y2224909D01*
X2053933Y2224931D01*
X2053896Y2224960D01*
X2053834Y2224981D01*
X2053775Y2225012D01*
X2053721Y2225020D01*
X2053684Y2225032D01*
X2053644Y2225031D01*
X2053590Y2225039D01*
X2051050Y2225039D01*
X2050985Y2225028D01*
X2050919Y2225026D01*
X2050876Y2225008D01*
X2050829Y2225000D01*
X2050772Y2224966D01*
X2050712Y2224941D01*
X2050677Y2224910D01*
X2050636Y2224885D01*
X2050595Y2224834D01*
X2050546Y2224790D01*
X2050524Y2224748D01*
X2050495Y2224711D01*
X2050474Y2224649D01*
X2050443Y2224590D01*
X2050435Y2224536D01*
X2050423Y2224499D01*
X2050423Y2224495D01*
X2050423Y2224494D01*
X2050424Y2224459D01*
X2050416Y2224405D01*
X2050416Y2220595D01*
X2050427Y2220530D01*
X2050429Y2220464D01*
X2050447Y2220421D01*
X2050455Y2220374D01*
X2050489Y2220317D01*
X2050514Y2220257D01*
X2050545Y2220222D01*
X2050570Y2220181D01*
X2050621Y2220140D01*
X2050665Y2220091D01*
X2050707Y2220069D01*
X2050744Y2220040D01*
X2050806Y2220019D01*
X2050865Y2219988D01*
X2050919Y2219980D01*
X2050956Y2219968D01*
X2050996Y2219969D01*
X2051050Y2219961D01*
X2053590Y2219961D01*
X2053655Y2219972D01*
G37*
G36*
X1294195Y2219972D02*
X1294195Y2219972D01*
X1294261Y2219974D01*
X1294304Y2219992D01*
X1294351Y2220000D01*
X1294408Y2220034D01*
X1294468Y2220059D01*
X1294503Y2220090D01*
X1294544Y2220115D01*
X1294586Y2220166D01*
X1294634Y2220210D01*
X1294656Y2220252D01*
X1294685Y2220289D01*
X1294706Y2220351D01*
X1294737Y2220410D01*
X1294745Y2220464D01*
X1294757Y2220501D01*
X1294756Y2220541D01*
X1294764Y2220595D01*
X1294764Y2224405D01*
X1294753Y2224470D01*
X1294751Y2224536D01*
X1294733Y2224579D01*
X1294725Y2224626D01*
X1294691Y2224683D01*
X1294666Y2224743D01*
X1294635Y2224778D01*
X1294610Y2224819D01*
X1294559Y2224861D01*
X1294515Y2224909D01*
X1294473Y2224931D01*
X1294436Y2224960D01*
X1294374Y2224981D01*
X1294315Y2225012D01*
X1294261Y2225020D01*
X1294224Y2225032D01*
X1294184Y2225031D01*
X1294130Y2225039D01*
X1291590Y2225039D01*
X1291525Y2225028D01*
X1291459Y2225026D01*
X1291416Y2225008D01*
X1291369Y2225000D01*
X1291312Y2224966D01*
X1291252Y2224941D01*
X1291217Y2224910D01*
X1291176Y2224885D01*
X1291135Y2224834D01*
X1291086Y2224790D01*
X1291064Y2224748D01*
X1291035Y2224711D01*
X1291014Y2224649D01*
X1290983Y2224590D01*
X1290975Y2224536D01*
X1290963Y2224499D01*
X1290963Y2224495D01*
X1290963Y2224494D01*
X1290964Y2224459D01*
X1290956Y2224405D01*
X1290956Y2220595D01*
X1290967Y2220530D01*
X1290969Y2220464D01*
X1290987Y2220421D01*
X1290995Y2220374D01*
X1291029Y2220317D01*
X1291054Y2220257D01*
X1291085Y2220222D01*
X1291110Y2220181D01*
X1291161Y2220140D01*
X1291205Y2220091D01*
X1291247Y2220069D01*
X1291284Y2220040D01*
X1291346Y2220019D01*
X1291405Y2219988D01*
X1291459Y2219980D01*
X1291496Y2219968D01*
X1291536Y2219969D01*
X1291590Y2219961D01*
X1294130Y2219961D01*
X1294195Y2219972D01*
G37*
G36*
X560135Y2219972D02*
X560135Y2219972D01*
X560201Y2219974D01*
X560244Y2219992D01*
X560291Y2220000D01*
X560348Y2220034D01*
X560408Y2220059D01*
X560443Y2220090D01*
X560484Y2220115D01*
X560526Y2220166D01*
X560574Y2220210D01*
X560596Y2220252D01*
X560625Y2220289D01*
X560646Y2220351D01*
X560677Y2220410D01*
X560685Y2220464D01*
X560697Y2220501D01*
X560696Y2220541D01*
X560704Y2220595D01*
X560704Y2224405D01*
X560693Y2224470D01*
X560691Y2224536D01*
X560673Y2224579D01*
X560665Y2224626D01*
X560631Y2224683D01*
X560606Y2224743D01*
X560575Y2224778D01*
X560550Y2224819D01*
X560499Y2224861D01*
X560455Y2224909D01*
X560413Y2224931D01*
X560376Y2224960D01*
X560314Y2224981D01*
X560255Y2225012D01*
X560201Y2225020D01*
X560164Y2225032D01*
X560124Y2225031D01*
X560070Y2225039D01*
X557530Y2225039D01*
X557465Y2225028D01*
X557399Y2225026D01*
X557356Y2225008D01*
X557309Y2225000D01*
X557252Y2224966D01*
X557192Y2224941D01*
X557157Y2224910D01*
X557116Y2224885D01*
X557075Y2224834D01*
X557026Y2224790D01*
X557004Y2224748D01*
X556975Y2224711D01*
X556954Y2224649D01*
X556923Y2224590D01*
X556915Y2224536D01*
X556903Y2224499D01*
X556903Y2224495D01*
X556903Y2224494D01*
X556904Y2224459D01*
X556896Y2224405D01*
X556896Y2220595D01*
X556907Y2220530D01*
X556909Y2220464D01*
X556927Y2220421D01*
X556935Y2220374D01*
X556969Y2220317D01*
X556994Y2220257D01*
X557025Y2220222D01*
X557050Y2220181D01*
X557101Y2220140D01*
X557145Y2220091D01*
X557187Y2220069D01*
X557224Y2220040D01*
X557286Y2220019D01*
X557345Y2219988D01*
X557399Y2219980D01*
X557436Y2219968D01*
X557476Y2219969D01*
X557530Y2219961D01*
X560070Y2219961D01*
X560135Y2219972D01*
G37*
G36*
X534735Y2219972D02*
X534735Y2219972D01*
X534801Y2219974D01*
X534844Y2219992D01*
X534891Y2220000D01*
X534948Y2220034D01*
X535008Y2220059D01*
X535043Y2220090D01*
X535084Y2220115D01*
X535126Y2220166D01*
X535174Y2220210D01*
X535196Y2220252D01*
X535225Y2220289D01*
X535246Y2220351D01*
X535277Y2220410D01*
X535285Y2220464D01*
X535297Y2220501D01*
X535296Y2220541D01*
X535304Y2220595D01*
X535304Y2224405D01*
X535293Y2224470D01*
X535291Y2224536D01*
X535273Y2224579D01*
X535265Y2224626D01*
X535231Y2224683D01*
X535206Y2224743D01*
X535175Y2224778D01*
X535150Y2224819D01*
X535099Y2224861D01*
X535055Y2224909D01*
X535013Y2224931D01*
X534976Y2224960D01*
X534914Y2224981D01*
X534855Y2225012D01*
X534801Y2225020D01*
X534764Y2225032D01*
X534724Y2225031D01*
X534670Y2225039D01*
X532130Y2225039D01*
X532065Y2225028D01*
X531999Y2225026D01*
X531956Y2225008D01*
X531909Y2225000D01*
X531852Y2224966D01*
X531792Y2224941D01*
X531757Y2224910D01*
X531716Y2224885D01*
X531675Y2224834D01*
X531626Y2224790D01*
X531604Y2224748D01*
X531575Y2224711D01*
X531554Y2224649D01*
X531523Y2224590D01*
X531515Y2224536D01*
X531503Y2224499D01*
X531503Y2224495D01*
X531503Y2224494D01*
X531504Y2224459D01*
X531496Y2224405D01*
X531496Y2220595D01*
X531507Y2220530D01*
X531509Y2220464D01*
X531527Y2220421D01*
X531535Y2220374D01*
X531569Y2220317D01*
X531594Y2220257D01*
X531625Y2220222D01*
X531650Y2220181D01*
X531701Y2220140D01*
X531745Y2220091D01*
X531787Y2220069D01*
X531824Y2220040D01*
X531886Y2220019D01*
X531945Y2219988D01*
X531999Y2219980D01*
X532036Y2219968D01*
X532076Y2219969D01*
X532130Y2219961D01*
X534670Y2219961D01*
X534735Y2219972D01*
G37*
G36*
X2079055Y2219972D02*
X2079055Y2219972D01*
X2079121Y2219974D01*
X2079164Y2219992D01*
X2079211Y2220000D01*
X2079268Y2220034D01*
X2079328Y2220059D01*
X2079363Y2220090D01*
X2079404Y2220115D01*
X2079446Y2220166D01*
X2079494Y2220210D01*
X2079516Y2220252D01*
X2079545Y2220289D01*
X2079566Y2220351D01*
X2079597Y2220410D01*
X2079605Y2220464D01*
X2079617Y2220501D01*
X2079616Y2220541D01*
X2079624Y2220595D01*
X2079624Y2224405D01*
X2079613Y2224470D01*
X2079611Y2224536D01*
X2079593Y2224579D01*
X2079585Y2224626D01*
X2079551Y2224683D01*
X2079526Y2224743D01*
X2079495Y2224778D01*
X2079470Y2224819D01*
X2079419Y2224861D01*
X2079375Y2224909D01*
X2079333Y2224931D01*
X2079296Y2224960D01*
X2079234Y2224981D01*
X2079175Y2225012D01*
X2079121Y2225020D01*
X2079084Y2225032D01*
X2079044Y2225031D01*
X2078990Y2225039D01*
X2076450Y2225039D01*
X2076385Y2225028D01*
X2076319Y2225026D01*
X2076276Y2225008D01*
X2076229Y2225000D01*
X2076172Y2224966D01*
X2076112Y2224941D01*
X2076077Y2224910D01*
X2076036Y2224885D01*
X2075995Y2224834D01*
X2075946Y2224790D01*
X2075924Y2224748D01*
X2075895Y2224711D01*
X2075874Y2224649D01*
X2075843Y2224590D01*
X2075835Y2224536D01*
X2075823Y2224499D01*
X2075823Y2224495D01*
X2075823Y2224494D01*
X2075824Y2224459D01*
X2075816Y2224405D01*
X2075816Y2220595D01*
X2075827Y2220530D01*
X2075829Y2220464D01*
X2075847Y2220421D01*
X2075855Y2220374D01*
X2075889Y2220317D01*
X2075914Y2220257D01*
X2075945Y2220222D01*
X2075970Y2220181D01*
X2076021Y2220140D01*
X2076065Y2220091D01*
X2076107Y2220069D01*
X2076144Y2220040D01*
X2076206Y2220019D01*
X2076265Y2219988D01*
X2076319Y2219980D01*
X2076356Y2219968D01*
X2076396Y2219969D01*
X2076450Y2219961D01*
X2078990Y2219961D01*
X2079055Y2219972D01*
G37*
G36*
X1319595Y2219972D02*
X1319595Y2219972D01*
X1319661Y2219974D01*
X1319704Y2219992D01*
X1319751Y2220000D01*
X1319808Y2220034D01*
X1319868Y2220059D01*
X1319903Y2220090D01*
X1319944Y2220115D01*
X1319986Y2220166D01*
X1320034Y2220210D01*
X1320056Y2220252D01*
X1320085Y2220289D01*
X1320106Y2220351D01*
X1320137Y2220410D01*
X1320145Y2220464D01*
X1320157Y2220501D01*
X1320156Y2220541D01*
X1320164Y2220595D01*
X1320164Y2224405D01*
X1320153Y2224470D01*
X1320151Y2224536D01*
X1320133Y2224579D01*
X1320125Y2224626D01*
X1320091Y2224683D01*
X1320066Y2224743D01*
X1320035Y2224778D01*
X1320010Y2224819D01*
X1319959Y2224861D01*
X1319915Y2224909D01*
X1319873Y2224931D01*
X1319836Y2224960D01*
X1319774Y2224981D01*
X1319715Y2225012D01*
X1319661Y2225020D01*
X1319624Y2225032D01*
X1319584Y2225031D01*
X1319530Y2225039D01*
X1316990Y2225039D01*
X1316925Y2225028D01*
X1316859Y2225026D01*
X1316816Y2225008D01*
X1316769Y2225000D01*
X1316712Y2224966D01*
X1316652Y2224941D01*
X1316617Y2224910D01*
X1316576Y2224885D01*
X1316535Y2224834D01*
X1316486Y2224790D01*
X1316464Y2224748D01*
X1316435Y2224711D01*
X1316414Y2224649D01*
X1316383Y2224590D01*
X1316375Y2224536D01*
X1316363Y2224499D01*
X1316363Y2224495D01*
X1316363Y2224494D01*
X1316364Y2224459D01*
X1316356Y2224405D01*
X1316356Y2220595D01*
X1316367Y2220530D01*
X1316369Y2220464D01*
X1316387Y2220421D01*
X1316395Y2220374D01*
X1316429Y2220317D01*
X1316454Y2220257D01*
X1316485Y2220222D01*
X1316510Y2220181D01*
X1316561Y2220140D01*
X1316605Y2220091D01*
X1316647Y2220069D01*
X1316684Y2220040D01*
X1316746Y2220019D01*
X1316805Y2219988D01*
X1316859Y2219980D01*
X1316896Y2219968D01*
X1316936Y2219969D01*
X1316990Y2219961D01*
X1319530Y2219961D01*
X1319595Y2219972D01*
G37*
G36*
X2129855Y450862D02*
X2129855Y450862D01*
X2129921Y450864D01*
X2129964Y450882D01*
X2130011Y450890D01*
X2130068Y450924D01*
X2130128Y450949D01*
X2130163Y450980D01*
X2130204Y451005D01*
X2130246Y451056D01*
X2130294Y451100D01*
X2130316Y451142D01*
X2130345Y451179D01*
X2130366Y451241D01*
X2130397Y451300D01*
X2130405Y451354D01*
X2130417Y451391D01*
X2130416Y451431D01*
X2130424Y451485D01*
X2130424Y455295D01*
X2130413Y455360D01*
X2130411Y455426D01*
X2130393Y455469D01*
X2130385Y455516D01*
X2130351Y455573D01*
X2130326Y455633D01*
X2130295Y455668D01*
X2130270Y455709D01*
X2130219Y455751D01*
X2130175Y455799D01*
X2130133Y455821D01*
X2130096Y455850D01*
X2130034Y455871D01*
X2129975Y455902D01*
X2129921Y455910D01*
X2129884Y455922D01*
X2129844Y455921D01*
X2129790Y455929D01*
X2127250Y455929D01*
X2127185Y455918D01*
X2127119Y455916D01*
X2127076Y455898D01*
X2127029Y455890D01*
X2126972Y455856D01*
X2126912Y455831D01*
X2126877Y455800D01*
X2126836Y455775D01*
X2126795Y455724D01*
X2126746Y455680D01*
X2126724Y455638D01*
X2126695Y455601D01*
X2126674Y455539D01*
X2126643Y455480D01*
X2126635Y455426D01*
X2126623Y455389D01*
X2126623Y455385D01*
X2126623Y455384D01*
X2126624Y455349D01*
X2126616Y455295D01*
X2126616Y451485D01*
X2126627Y451420D01*
X2126629Y451354D01*
X2126647Y451311D01*
X2126655Y451264D01*
X2126689Y451207D01*
X2126714Y451147D01*
X2126745Y451112D01*
X2126770Y451071D01*
X2126821Y451030D01*
X2126865Y450981D01*
X2126907Y450959D01*
X2126944Y450930D01*
X2127006Y450909D01*
X2127065Y450878D01*
X2127119Y450870D01*
X2127156Y450858D01*
X2127196Y450859D01*
X2127250Y450851D01*
X2129790Y450851D01*
X2129855Y450862D01*
G37*
G36*
X610935Y450862D02*
X610935Y450862D01*
X611001Y450864D01*
X611044Y450882D01*
X611091Y450890D01*
X611148Y450924D01*
X611208Y450949D01*
X611243Y450980D01*
X611284Y451005D01*
X611326Y451056D01*
X611374Y451100D01*
X611396Y451142D01*
X611425Y451179D01*
X611446Y451241D01*
X611477Y451300D01*
X611485Y451354D01*
X611497Y451391D01*
X611496Y451431D01*
X611504Y451485D01*
X611504Y455295D01*
X611493Y455360D01*
X611491Y455426D01*
X611473Y455469D01*
X611465Y455516D01*
X611431Y455573D01*
X611406Y455633D01*
X611375Y455668D01*
X611350Y455709D01*
X611299Y455751D01*
X611255Y455799D01*
X611213Y455821D01*
X611176Y455850D01*
X611114Y455871D01*
X611055Y455902D01*
X611001Y455910D01*
X610964Y455922D01*
X610924Y455921D01*
X610870Y455929D01*
X608330Y455929D01*
X608265Y455918D01*
X608199Y455916D01*
X608156Y455898D01*
X608109Y455890D01*
X608052Y455856D01*
X607992Y455831D01*
X607957Y455800D01*
X607916Y455775D01*
X607875Y455724D01*
X607826Y455680D01*
X607804Y455638D01*
X607775Y455601D01*
X607754Y455539D01*
X607723Y455480D01*
X607715Y455426D01*
X607703Y455389D01*
X607703Y455385D01*
X607703Y455384D01*
X607704Y455349D01*
X607696Y455295D01*
X607696Y451485D01*
X607707Y451420D01*
X607709Y451354D01*
X607727Y451311D01*
X607735Y451264D01*
X607769Y451207D01*
X607794Y451147D01*
X607825Y451112D01*
X607850Y451071D01*
X607901Y451030D01*
X607945Y450981D01*
X607987Y450959D01*
X608024Y450930D01*
X608086Y450909D01*
X608145Y450878D01*
X608199Y450870D01*
X608236Y450858D01*
X608276Y450859D01*
X608330Y450851D01*
X610870Y450851D01*
X610935Y450862D01*
G37*
G36*
X1370395Y450862D02*
X1370395Y450862D01*
X1370461Y450864D01*
X1370504Y450882D01*
X1370551Y450890D01*
X1370608Y450924D01*
X1370668Y450949D01*
X1370703Y450980D01*
X1370744Y451005D01*
X1370786Y451056D01*
X1370834Y451100D01*
X1370856Y451142D01*
X1370885Y451179D01*
X1370906Y451241D01*
X1370937Y451300D01*
X1370945Y451354D01*
X1370957Y451391D01*
X1370956Y451431D01*
X1370964Y451485D01*
X1370964Y455295D01*
X1370953Y455360D01*
X1370951Y455426D01*
X1370933Y455469D01*
X1370925Y455516D01*
X1370891Y455573D01*
X1370866Y455633D01*
X1370835Y455668D01*
X1370810Y455709D01*
X1370759Y455751D01*
X1370715Y455799D01*
X1370673Y455821D01*
X1370636Y455850D01*
X1370574Y455871D01*
X1370515Y455902D01*
X1370461Y455910D01*
X1370424Y455922D01*
X1370384Y455921D01*
X1370330Y455929D01*
X1367790Y455929D01*
X1367725Y455918D01*
X1367659Y455916D01*
X1367616Y455898D01*
X1367569Y455890D01*
X1367512Y455856D01*
X1367452Y455831D01*
X1367417Y455800D01*
X1367376Y455775D01*
X1367335Y455724D01*
X1367286Y455680D01*
X1367264Y455638D01*
X1367235Y455601D01*
X1367214Y455539D01*
X1367183Y455480D01*
X1367175Y455426D01*
X1367163Y455389D01*
X1367163Y455385D01*
X1367163Y455384D01*
X1367164Y455349D01*
X1367156Y455295D01*
X1367156Y451485D01*
X1367167Y451420D01*
X1367169Y451354D01*
X1367187Y451311D01*
X1367195Y451264D01*
X1367229Y451207D01*
X1367254Y451147D01*
X1367285Y451112D01*
X1367310Y451071D01*
X1367361Y451030D01*
X1367405Y450981D01*
X1367447Y450959D01*
X1367484Y450930D01*
X1367546Y450909D01*
X1367605Y450878D01*
X1367659Y450870D01*
X1367696Y450858D01*
X1367736Y450859D01*
X1367790Y450851D01*
X1370330Y450851D01*
X1370395Y450862D01*
G37*
G36*
X610935Y440702D02*
X610935Y440702D01*
X611001Y440704D01*
X611044Y440722D01*
X611091Y440730D01*
X611148Y440764D01*
X611208Y440789D01*
X611243Y440820D01*
X611284Y440845D01*
X611326Y440896D01*
X611374Y440940D01*
X611396Y440982D01*
X611425Y441019D01*
X611446Y441081D01*
X611477Y441140D01*
X611485Y441194D01*
X611497Y441231D01*
X611496Y441271D01*
X611504Y441325D01*
X611504Y445135D01*
X611493Y445200D01*
X611491Y445266D01*
X611473Y445309D01*
X611465Y445356D01*
X611431Y445413D01*
X611406Y445473D01*
X611375Y445508D01*
X611350Y445549D01*
X611299Y445591D01*
X611255Y445639D01*
X611213Y445661D01*
X611176Y445690D01*
X611114Y445711D01*
X611055Y445742D01*
X611001Y445750D01*
X610964Y445762D01*
X610924Y445761D01*
X610870Y445769D01*
X608330Y445769D01*
X608265Y445758D01*
X608199Y445756D01*
X608156Y445738D01*
X608109Y445730D01*
X608052Y445696D01*
X607992Y445671D01*
X607957Y445640D01*
X607916Y445615D01*
X607875Y445564D01*
X607826Y445520D01*
X607804Y445478D01*
X607775Y445441D01*
X607754Y445379D01*
X607723Y445320D01*
X607715Y445266D01*
X607703Y445229D01*
X607703Y445225D01*
X607703Y445224D01*
X607704Y445189D01*
X607696Y445135D01*
X607696Y441325D01*
X607707Y441260D01*
X607709Y441194D01*
X607727Y441151D01*
X607735Y441104D01*
X607769Y441047D01*
X607794Y440987D01*
X607825Y440952D01*
X607850Y440911D01*
X607901Y440870D01*
X607945Y440821D01*
X607987Y440799D01*
X608024Y440770D01*
X608086Y440749D01*
X608145Y440718D01*
X608199Y440710D01*
X608236Y440698D01*
X608276Y440699D01*
X608330Y440691D01*
X610870Y440691D01*
X610935Y440702D01*
G37*
G36*
X2129855Y440702D02*
X2129855Y440702D01*
X2129921Y440704D01*
X2129964Y440722D01*
X2130011Y440730D01*
X2130068Y440764D01*
X2130128Y440789D01*
X2130163Y440820D01*
X2130204Y440845D01*
X2130246Y440896D01*
X2130294Y440940D01*
X2130316Y440982D01*
X2130345Y441019D01*
X2130366Y441081D01*
X2130397Y441140D01*
X2130405Y441194D01*
X2130417Y441231D01*
X2130416Y441271D01*
X2130424Y441325D01*
X2130424Y445135D01*
X2130413Y445200D01*
X2130411Y445266D01*
X2130393Y445309D01*
X2130385Y445356D01*
X2130351Y445413D01*
X2130326Y445473D01*
X2130295Y445508D01*
X2130270Y445549D01*
X2130219Y445591D01*
X2130175Y445639D01*
X2130133Y445661D01*
X2130096Y445690D01*
X2130034Y445711D01*
X2129975Y445742D01*
X2129921Y445750D01*
X2129884Y445762D01*
X2129844Y445761D01*
X2129790Y445769D01*
X2127250Y445769D01*
X2127185Y445758D01*
X2127119Y445756D01*
X2127076Y445738D01*
X2127029Y445730D01*
X2126972Y445696D01*
X2126912Y445671D01*
X2126877Y445640D01*
X2126836Y445615D01*
X2126795Y445564D01*
X2126746Y445520D01*
X2126724Y445478D01*
X2126695Y445441D01*
X2126674Y445379D01*
X2126643Y445320D01*
X2126635Y445266D01*
X2126623Y445229D01*
X2126623Y445225D01*
X2126623Y445224D01*
X2126624Y445189D01*
X2126616Y445135D01*
X2126616Y441325D01*
X2126627Y441260D01*
X2126629Y441194D01*
X2126647Y441151D01*
X2126655Y441104D01*
X2126689Y441047D01*
X2126714Y440987D01*
X2126745Y440952D01*
X2126770Y440911D01*
X2126821Y440870D01*
X2126865Y440821D01*
X2126907Y440799D01*
X2126944Y440770D01*
X2127006Y440749D01*
X2127065Y440718D01*
X2127119Y440710D01*
X2127156Y440698D01*
X2127196Y440699D01*
X2127250Y440691D01*
X2129790Y440691D01*
X2129855Y440702D01*
G37*
G36*
X1370395Y440702D02*
X1370395Y440702D01*
X1370461Y440704D01*
X1370504Y440722D01*
X1370551Y440730D01*
X1370608Y440764D01*
X1370668Y440789D01*
X1370703Y440820D01*
X1370744Y440845D01*
X1370786Y440896D01*
X1370834Y440940D01*
X1370856Y440982D01*
X1370885Y441019D01*
X1370906Y441081D01*
X1370937Y441140D01*
X1370945Y441194D01*
X1370957Y441231D01*
X1370956Y441271D01*
X1370964Y441325D01*
X1370964Y445135D01*
X1370953Y445200D01*
X1370951Y445266D01*
X1370933Y445309D01*
X1370925Y445356D01*
X1370891Y445413D01*
X1370866Y445473D01*
X1370835Y445508D01*
X1370810Y445549D01*
X1370759Y445591D01*
X1370715Y445639D01*
X1370673Y445661D01*
X1370636Y445690D01*
X1370574Y445711D01*
X1370515Y445742D01*
X1370461Y445750D01*
X1370424Y445762D01*
X1370384Y445761D01*
X1370330Y445769D01*
X1367790Y445769D01*
X1367725Y445758D01*
X1367659Y445756D01*
X1367616Y445738D01*
X1367569Y445730D01*
X1367512Y445696D01*
X1367452Y445671D01*
X1367417Y445640D01*
X1367376Y445615D01*
X1367335Y445564D01*
X1367286Y445520D01*
X1367264Y445478D01*
X1367235Y445441D01*
X1367214Y445379D01*
X1367183Y445320D01*
X1367175Y445266D01*
X1367163Y445229D01*
X1367163Y445225D01*
X1367163Y445224D01*
X1367164Y445189D01*
X1367156Y445135D01*
X1367156Y441325D01*
X1367167Y441260D01*
X1367169Y441194D01*
X1367187Y441151D01*
X1367195Y441104D01*
X1367229Y441047D01*
X1367254Y440987D01*
X1367285Y440952D01*
X1367310Y440911D01*
X1367361Y440870D01*
X1367405Y440821D01*
X1367447Y440799D01*
X1367484Y440770D01*
X1367546Y440749D01*
X1367605Y440718D01*
X1367659Y440710D01*
X1367696Y440698D01*
X1367736Y440699D01*
X1367790Y440691D01*
X1370330Y440691D01*
X1370395Y440702D01*
G37*
G36*
X1742505Y416572D02*
X1742505Y416572D01*
X1742571Y416574D01*
X1742614Y416592D01*
X1742661Y416600D01*
X1742718Y416634D01*
X1742778Y416659D01*
X1742813Y416690D01*
X1742854Y416715D01*
X1742896Y416766D01*
X1742944Y416810D01*
X1742966Y416852D01*
X1742995Y416889D01*
X1743016Y416951D01*
X1743047Y417010D01*
X1743055Y417064D01*
X1743067Y417101D01*
X1743066Y417141D01*
X1743074Y417195D01*
X1743074Y421005D01*
X1743063Y421070D01*
X1743061Y421136D01*
X1743043Y421179D01*
X1743035Y421226D01*
X1743001Y421283D01*
X1742976Y421343D01*
X1742945Y421378D01*
X1742920Y421419D01*
X1742869Y421461D01*
X1742825Y421509D01*
X1742783Y421531D01*
X1742746Y421560D01*
X1742684Y421581D01*
X1742625Y421612D01*
X1742571Y421620D01*
X1742534Y421632D01*
X1742494Y421631D01*
X1742440Y421639D01*
X1739900Y421639D01*
X1739835Y421628D01*
X1739769Y421626D01*
X1739726Y421608D01*
X1739679Y421600D01*
X1739622Y421566D01*
X1739562Y421541D01*
X1739527Y421510D01*
X1739486Y421485D01*
X1739445Y421434D01*
X1739396Y421390D01*
X1739374Y421348D01*
X1739345Y421311D01*
X1739324Y421249D01*
X1739293Y421190D01*
X1739285Y421136D01*
X1739273Y421099D01*
X1739273Y421095D01*
X1739273Y421094D01*
X1739274Y421059D01*
X1739266Y421005D01*
X1739266Y417195D01*
X1739277Y417130D01*
X1739279Y417064D01*
X1739297Y417021D01*
X1739305Y416974D01*
X1739339Y416917D01*
X1739364Y416857D01*
X1739395Y416822D01*
X1739420Y416781D01*
X1739471Y416740D01*
X1739515Y416691D01*
X1739557Y416669D01*
X1739594Y416640D01*
X1739656Y416619D01*
X1739715Y416588D01*
X1739769Y416580D01*
X1739806Y416568D01*
X1739846Y416569D01*
X1739900Y416561D01*
X1742440Y416561D01*
X1742505Y416572D01*
G37*
G36*
X983045Y416572D02*
X983045Y416572D01*
X983111Y416574D01*
X983154Y416592D01*
X983201Y416600D01*
X983258Y416634D01*
X983318Y416659D01*
X983353Y416690D01*
X983394Y416715D01*
X983436Y416766D01*
X983484Y416810D01*
X983506Y416852D01*
X983535Y416889D01*
X983556Y416951D01*
X983587Y417010D01*
X983595Y417064D01*
X983607Y417101D01*
X983606Y417141D01*
X983614Y417195D01*
X983614Y421005D01*
X983603Y421070D01*
X983601Y421136D01*
X983583Y421179D01*
X983575Y421226D01*
X983541Y421283D01*
X983516Y421343D01*
X983485Y421378D01*
X983460Y421419D01*
X983409Y421461D01*
X983365Y421509D01*
X983323Y421531D01*
X983286Y421560D01*
X983224Y421581D01*
X983165Y421612D01*
X983111Y421620D01*
X983074Y421632D01*
X983034Y421631D01*
X982980Y421639D01*
X980440Y421639D01*
X980375Y421628D01*
X980309Y421626D01*
X980266Y421608D01*
X980219Y421600D01*
X980162Y421566D01*
X980102Y421541D01*
X980067Y421510D01*
X980026Y421485D01*
X979985Y421434D01*
X979936Y421390D01*
X979914Y421348D01*
X979885Y421311D01*
X979864Y421249D01*
X979833Y421190D01*
X979825Y421136D01*
X979813Y421099D01*
X979813Y421095D01*
X979813Y421094D01*
X979814Y421059D01*
X979806Y421005D01*
X979806Y417195D01*
X979817Y417130D01*
X979819Y417064D01*
X979837Y417021D01*
X979845Y416974D01*
X979879Y416917D01*
X979904Y416857D01*
X979935Y416822D01*
X979960Y416781D01*
X980011Y416740D01*
X980055Y416691D01*
X980097Y416669D01*
X980134Y416640D01*
X980196Y416619D01*
X980255Y416588D01*
X980309Y416580D01*
X980346Y416568D01*
X980386Y416569D01*
X980440Y416561D01*
X982980Y416561D01*
X983045Y416572D01*
G37*
G36*
X223585Y416572D02*
X223585Y416572D01*
X223651Y416574D01*
X223694Y416592D01*
X223741Y416600D01*
X223798Y416634D01*
X223858Y416659D01*
X223893Y416690D01*
X223934Y416715D01*
X223976Y416766D01*
X224024Y416810D01*
X224046Y416852D01*
X224075Y416889D01*
X224096Y416951D01*
X224127Y417010D01*
X224135Y417064D01*
X224147Y417101D01*
X224146Y417141D01*
X224154Y417195D01*
X224154Y421005D01*
X224143Y421070D01*
X224141Y421136D01*
X224123Y421179D01*
X224115Y421226D01*
X224081Y421283D01*
X224056Y421343D01*
X224025Y421378D01*
X224000Y421419D01*
X223949Y421461D01*
X223905Y421509D01*
X223863Y421531D01*
X223826Y421560D01*
X223764Y421581D01*
X223705Y421612D01*
X223651Y421620D01*
X223614Y421632D01*
X223574Y421631D01*
X223520Y421639D01*
X220980Y421639D01*
X220915Y421628D01*
X220849Y421626D01*
X220806Y421608D01*
X220759Y421600D01*
X220702Y421566D01*
X220642Y421541D01*
X220607Y421510D01*
X220566Y421485D01*
X220525Y421434D01*
X220476Y421390D01*
X220454Y421348D01*
X220425Y421311D01*
X220404Y421249D01*
X220373Y421190D01*
X220365Y421136D01*
X220353Y421099D01*
X220353Y421095D01*
X220353Y421094D01*
X220354Y421059D01*
X220346Y421005D01*
X220346Y417195D01*
X220357Y417130D01*
X220359Y417064D01*
X220377Y417021D01*
X220385Y416974D01*
X220419Y416917D01*
X220444Y416857D01*
X220475Y416822D01*
X220500Y416781D01*
X220551Y416740D01*
X220595Y416691D01*
X220637Y416669D01*
X220674Y416640D01*
X220736Y416619D01*
X220795Y416588D01*
X220849Y416580D01*
X220886Y416568D01*
X220926Y416569D01*
X220980Y416561D01*
X223520Y416561D01*
X223585Y416572D01*
G37*
D10*
X139700Y50800D03*
X660400Y101600D03*
X660400Y381000D03*
X152400Y533400D03*
D11*
X49050Y448000D03*
X49050Y390200D03*
D12*
X19050Y427990D03*
X19050Y445770D03*
X19050Y410210D03*
X19050Y392430D03*
D13*
X21336Y520700D03*
X29464Y520700D03*
D14*
X187960Y571500D03*
X213360Y571500D03*
X238760Y571500D03*
X264160Y571500D03*
X289560Y571500D03*
X314960Y571500D03*
X340360Y571500D03*
X365760Y571500D03*
X391160Y571500D03*
X416560Y571500D03*
X279400Y12700D03*
X304800Y12700D03*
X330200Y12700D03*
X355600Y12700D03*
X381000Y12700D03*
X406400Y12700D03*
X431800Y12700D03*
X457200Y12700D03*
X508000Y12700D03*
X533400Y12700D03*
X558800Y12700D03*
X584200Y12700D03*
X609600Y12700D03*
X635000Y12700D03*
X635000Y571500D03*
X609600Y571500D03*
X584200Y571500D03*
X558800Y571500D03*
X533400Y571500D03*
X508000Y571500D03*
X482600Y571500D03*
X457200Y571500D03*
D15*
X482600Y368300D03*
X482600Y381000D03*
X495300Y368300D03*
X495300Y381000D03*
X508000Y368300D03*
X508000Y381000D03*
X520700Y368300D03*
X520700Y381000D03*
X533400Y368300D03*
X533400Y381000D03*
D16*
X152400Y571500D03*
X660400Y63500D03*
D17*
X609600Y458724D03*
X609600Y448310D03*
X609600Y437896D03*
D18*
X584200Y450596D03*
X584200Y458724D03*
D16*
X20320Y242550D03*
X20320Y322550D03*
D17*
X558800Y449453D03*
X558800Y459867D03*
X533400Y449453D03*
X533400Y459867D03*
D19*
X20320Y111760D03*
X66040Y111760D03*
D17*
X222250Y413893D03*
X222250Y424307D03*
D14*
X196850Y406400D03*
X196850Y431800D03*
X203200Y127000D03*
X228600Y127000D03*
D10*
X899160Y50800D03*
X1419860Y101600D03*
X1419860Y381000D03*
X911860Y533400D03*
D11*
X808510Y448000D03*
X808510Y390200D03*
D12*
X778510Y427990D03*
X778510Y445770D03*
X778510Y410210D03*
X778510Y392430D03*
D13*
X780796Y520700D03*
X788924Y520700D03*
D14*
X947420Y571500D03*
X972820Y571500D03*
X998220Y571500D03*
X1023620Y571500D03*
X1049020Y571500D03*
X1074420Y571500D03*
X1099820Y571500D03*
X1125220Y571500D03*
X1150620Y571500D03*
X1176020Y571500D03*
X1038860Y12700D03*
X1064260Y12700D03*
X1089660Y12700D03*
X1115060Y12700D03*
X1140460Y12700D03*
X1165860Y12700D03*
X1191260Y12700D03*
X1216660Y12700D03*
X1267460Y12700D03*
X1292860Y12700D03*
X1318260Y12700D03*
X1343660Y12700D03*
X1369060Y12700D03*
X1394460Y12700D03*
X1394460Y571500D03*
X1369060Y571500D03*
X1343660Y571500D03*
X1318260Y571500D03*
X1292860Y571500D03*
X1267460Y571500D03*
X1242060Y571500D03*
X1216660Y571500D03*
D15*
X1242060Y368300D03*
X1242060Y381000D03*
X1254760Y368300D03*
X1254760Y381000D03*
X1267460Y368300D03*
X1267460Y381000D03*
X1280160Y368300D03*
X1280160Y381000D03*
X1292860Y368300D03*
X1292860Y381000D03*
D16*
X911860Y571500D03*
X1419860Y63500D03*
D17*
X1369060Y458724D03*
X1369060Y448310D03*
X1369060Y437896D03*
D18*
X1343660Y450596D03*
X1343660Y458724D03*
D16*
X779780Y242550D03*
X779780Y322550D03*
D17*
X1318260Y449453D03*
X1318260Y459867D03*
X1292860Y449453D03*
X1292860Y459867D03*
D19*
X779780Y111760D03*
X825500Y111760D03*
D17*
X981710Y413893D03*
X981710Y424307D03*
D14*
X956310Y406400D03*
X956310Y431800D03*
X962660Y127000D03*
X988060Y127000D03*
D10*
X1658620Y50800D03*
X2179320Y101600D03*
X2179320Y381000D03*
X1671320Y533400D03*
D11*
X1567970Y448000D03*
X1567970Y390200D03*
D12*
X1537970Y427990D03*
X1537970Y445770D03*
X1537970Y410210D03*
X1537970Y392430D03*
D13*
X1540256Y520700D03*
X1548384Y520700D03*
D14*
X1706880Y571500D03*
X1732280Y571500D03*
X1757680Y571500D03*
X1783080Y571500D03*
X1808480Y571500D03*
X1833880Y571500D03*
X1859280Y571500D03*
X1884680Y571500D03*
X1910080Y571500D03*
X1935480Y571500D03*
X1798320Y12700D03*
X1823720Y12700D03*
X1849120Y12700D03*
X1874520Y12700D03*
X1899920Y12700D03*
X1925320Y12700D03*
X1950720Y12700D03*
X1976120Y12700D03*
X2026920Y12700D03*
X2052320Y12700D03*
X2077720Y12700D03*
X2103120Y12700D03*
X2128520Y12700D03*
X2153920Y12700D03*
X2153920Y571500D03*
X2128520Y571500D03*
X2103120Y571500D03*
X2077720Y571500D03*
X2052320Y571500D03*
X2026920Y571500D03*
X2001520Y571500D03*
X1976120Y571500D03*
D15*
X2001520Y368300D03*
X2001520Y381000D03*
X2014220Y368300D03*
X2014220Y381000D03*
X2026920Y368300D03*
X2026920Y381000D03*
X2039620Y368300D03*
X2039620Y381000D03*
X2052320Y368300D03*
X2052320Y381000D03*
D16*
X1671320Y571500D03*
X2179320Y63500D03*
D17*
X2128520Y458724D03*
X2128520Y448310D03*
X2128520Y437896D03*
D18*
X2103120Y450596D03*
X2103120Y458724D03*
D16*
X1539240Y242550D03*
X1539240Y322550D03*
D17*
X2077720Y449453D03*
X2077720Y459867D03*
X2052320Y449453D03*
X2052320Y459867D03*
D19*
X1539240Y111760D03*
X1584960Y111760D03*
D17*
X1741170Y413893D03*
X1741170Y424307D03*
D14*
X1715770Y406400D03*
X1715770Y431800D03*
X1722120Y127000D03*
X1747520Y127000D03*
D10*
X139700Y640080D03*
X660400Y690880D03*
X660400Y970280D03*
X152400Y1122680D03*
D11*
X49050Y1037280D03*
X49050Y979480D03*
D12*
X19050Y1017270D03*
X19050Y1035050D03*
X19050Y999490D03*
X19050Y981710D03*
D13*
X21336Y1109980D03*
X29464Y1109980D03*
D14*
X187960Y1160780D03*
X213360Y1160780D03*
X238760Y1160780D03*
X264160Y1160780D03*
X289560Y1160780D03*
X314960Y1160780D03*
X340360Y1160780D03*
X365760Y1160780D03*
X391160Y1160780D03*
X416560Y1160780D03*
X279400Y601980D03*
X304800Y601980D03*
X330200Y601980D03*
X355600Y601980D03*
X381000Y601980D03*
X406400Y601980D03*
X431800Y601980D03*
X457200Y601980D03*
X508000Y601980D03*
X533400Y601980D03*
X558800Y601980D03*
X584200Y601980D03*
X609600Y601980D03*
X635000Y601980D03*
X635000Y1160780D03*
X609600Y1160780D03*
X584200Y1160780D03*
X558800Y1160780D03*
X533400Y1160780D03*
X508000Y1160780D03*
X482600Y1160780D03*
X457200Y1160780D03*
D15*
X482600Y957580D03*
X482600Y970280D03*
X495300Y957580D03*
X495300Y970280D03*
X508000Y957580D03*
X508000Y970280D03*
X520700Y957580D03*
X520700Y970280D03*
X533400Y957580D03*
X533400Y970280D03*
D16*
X152400Y1160780D03*
X660400Y652780D03*
D17*
X609600Y1048004D03*
X609600Y1037590D03*
X609600Y1027176D03*
D18*
X584200Y1039876D03*
X584200Y1048004D03*
D16*
X20320Y831830D03*
X20320Y911830D03*
D17*
X558800Y1038733D03*
X558800Y1049147D03*
X533400Y1038733D03*
X533400Y1049147D03*
D19*
X20320Y701040D03*
X66040Y701040D03*
D17*
X222250Y1003173D03*
X222250Y1013587D03*
D14*
X196850Y995680D03*
X196850Y1021080D03*
X203200Y716280D03*
X228600Y716280D03*
D10*
X899160Y640080D03*
X1419860Y690880D03*
X1419860Y970280D03*
X911860Y1122680D03*
D11*
X808510Y1037280D03*
X808510Y979480D03*
D12*
X778510Y1017270D03*
X778510Y1035050D03*
X778510Y999490D03*
X778510Y981710D03*
D13*
X780796Y1109980D03*
X788924Y1109980D03*
D14*
X947420Y1160780D03*
X972820Y1160780D03*
X998220Y1160780D03*
X1023620Y1160780D03*
X1049020Y1160780D03*
X1074420Y1160780D03*
X1099820Y1160780D03*
X1125220Y1160780D03*
X1150620Y1160780D03*
X1176020Y1160780D03*
X1038860Y601980D03*
X1064260Y601980D03*
X1089660Y601980D03*
X1115060Y601980D03*
X1140460Y601980D03*
X1165860Y601980D03*
X1191260Y601980D03*
X1216660Y601980D03*
X1267460Y601980D03*
X1292860Y601980D03*
X1318260Y601980D03*
X1343660Y601980D03*
X1369060Y601980D03*
X1394460Y601980D03*
X1394460Y1160780D03*
X1369060Y1160780D03*
X1343660Y1160780D03*
X1318260Y1160780D03*
X1292860Y1160780D03*
X1267460Y1160780D03*
X1242060Y1160780D03*
X1216660Y1160780D03*
D15*
X1242060Y957580D03*
X1242060Y970280D03*
X1254760Y957580D03*
X1254760Y970280D03*
X1267460Y957580D03*
X1267460Y970280D03*
X1280160Y957580D03*
X1280160Y970280D03*
X1292860Y957580D03*
X1292860Y970280D03*
D16*
X911860Y1160780D03*
X1419860Y652780D03*
D17*
X1369060Y1048004D03*
X1369060Y1037590D03*
X1369060Y1027176D03*
D18*
X1343660Y1039876D03*
X1343660Y1048004D03*
D16*
X779780Y831830D03*
X779780Y911830D03*
D17*
X1318260Y1038733D03*
X1318260Y1049147D03*
X1292860Y1038733D03*
X1292860Y1049147D03*
D19*
X779780Y701040D03*
X825500Y701040D03*
D17*
X981710Y1003173D03*
X981710Y1013587D03*
D14*
X956310Y995680D03*
X956310Y1021080D03*
X962660Y716280D03*
X988060Y716280D03*
D10*
X1658620Y640080D03*
X2179320Y690880D03*
X2179320Y970280D03*
X1671320Y1122680D03*
D11*
X1567970Y1037280D03*
X1567970Y979480D03*
D12*
X1537970Y1017270D03*
X1537970Y1035050D03*
X1537970Y999490D03*
X1537970Y981710D03*
D13*
X1540256Y1109980D03*
X1548384Y1109980D03*
D14*
X1706880Y1160780D03*
X1732280Y1160780D03*
X1757680Y1160780D03*
X1783080Y1160780D03*
X1808480Y1160780D03*
X1833880Y1160780D03*
X1859280Y1160780D03*
X1884680Y1160780D03*
X1910080Y1160780D03*
X1935480Y1160780D03*
X1798320Y601980D03*
X1823720Y601980D03*
X1849120Y601980D03*
X1874520Y601980D03*
X1899920Y601980D03*
X1925320Y601980D03*
X1950720Y601980D03*
X1976120Y601980D03*
X2026920Y601980D03*
X2052320Y601980D03*
X2077720Y601980D03*
X2103120Y601980D03*
X2128520Y601980D03*
X2153920Y601980D03*
X2153920Y1160780D03*
X2128520Y1160780D03*
X2103120Y1160780D03*
X2077720Y1160780D03*
X2052320Y1160780D03*
X2026920Y1160780D03*
X2001520Y1160780D03*
X1976120Y1160780D03*
D15*
X2001520Y957580D03*
X2001520Y970280D03*
X2014220Y957580D03*
X2014220Y970280D03*
X2026920Y957580D03*
X2026920Y970280D03*
X2039620Y957580D03*
X2039620Y970280D03*
X2052320Y957580D03*
X2052320Y970280D03*
D16*
X1671320Y1160780D03*
X2179320Y652780D03*
D17*
X2128520Y1048004D03*
X2128520Y1037590D03*
X2128520Y1027176D03*
D18*
X2103120Y1039876D03*
X2103120Y1048004D03*
D16*
X1539240Y831830D03*
X1539240Y911830D03*
D17*
X2077720Y1038733D03*
X2077720Y1049147D03*
X2052320Y1038733D03*
X2052320Y1049147D03*
D19*
X1539240Y701040D03*
X1584960Y701040D03*
D17*
X1741170Y1003173D03*
X1741170Y1013587D03*
D14*
X1715770Y995680D03*
X1715770Y1021080D03*
X1722120Y716280D03*
X1747520Y716280D03*
D10*
X139700Y1229360D03*
X660400Y1280160D03*
X660400Y1559560D03*
X152400Y1711960D03*
D11*
X49050Y1626560D03*
X49050Y1568760D03*
D12*
X19050Y1606550D03*
X19050Y1624330D03*
X19050Y1588770D03*
X19050Y1570990D03*
D13*
X21336Y1699260D03*
X29464Y1699260D03*
D14*
X187960Y1750060D03*
X213360Y1750060D03*
X238760Y1750060D03*
X264160Y1750060D03*
X289560Y1750060D03*
X314960Y1750060D03*
X340360Y1750060D03*
X365760Y1750060D03*
X391160Y1750060D03*
X416560Y1750060D03*
X279400Y1191260D03*
X304800Y1191260D03*
X330200Y1191260D03*
X355600Y1191260D03*
X381000Y1191260D03*
X406400Y1191260D03*
X431800Y1191260D03*
X457200Y1191260D03*
X508000Y1191260D03*
X533400Y1191260D03*
X558800Y1191260D03*
X584200Y1191260D03*
X609600Y1191260D03*
X635000Y1191260D03*
X635000Y1750060D03*
X609600Y1750060D03*
X584200Y1750060D03*
X558800Y1750060D03*
X533400Y1750060D03*
X508000Y1750060D03*
X482600Y1750060D03*
X457200Y1750060D03*
D15*
X482600Y1546860D03*
X482600Y1559560D03*
X495300Y1546860D03*
X495300Y1559560D03*
X508000Y1546860D03*
X508000Y1559560D03*
X520700Y1546860D03*
X520700Y1559560D03*
X533400Y1546860D03*
X533400Y1559560D03*
D16*
X152400Y1750060D03*
X660400Y1242060D03*
D17*
X609600Y1637284D03*
X609600Y1626870D03*
X609600Y1616456D03*
D18*
X584200Y1629156D03*
X584200Y1637284D03*
D16*
X20320Y1421110D03*
X20320Y1501110D03*
D17*
X558800Y1628013D03*
X558800Y1638427D03*
X533400Y1628013D03*
X533400Y1638427D03*
D19*
X20320Y1290320D03*
X66040Y1290320D03*
D17*
X222250Y1592453D03*
X222250Y1602867D03*
D14*
X196850Y1584960D03*
X196850Y1610360D03*
X203200Y1305560D03*
X228600Y1305560D03*
D10*
X899160Y1229360D03*
X1419860Y1280160D03*
X1419860Y1559560D03*
X911860Y1711960D03*
D11*
X808510Y1626560D03*
X808510Y1568760D03*
D12*
X778510Y1606550D03*
X778510Y1624330D03*
X778510Y1588770D03*
X778510Y1570990D03*
D13*
X780796Y1699260D03*
X788924Y1699260D03*
D14*
X947420Y1750060D03*
X972820Y1750060D03*
X998220Y1750060D03*
X1023620Y1750060D03*
X1049020Y1750060D03*
X1074420Y1750060D03*
X1099820Y1750060D03*
X1125220Y1750060D03*
X1150620Y1750060D03*
X1176020Y1750060D03*
X1038860Y1191260D03*
X1064260Y1191260D03*
X1089660Y1191260D03*
X1115060Y1191260D03*
X1140460Y1191260D03*
X1165860Y1191260D03*
X1191260Y1191260D03*
X1216660Y1191260D03*
X1267460Y1191260D03*
X1292860Y1191260D03*
X1318260Y1191260D03*
X1343660Y1191260D03*
X1369060Y1191260D03*
X1394460Y1191260D03*
X1394460Y1750060D03*
X1369060Y1750060D03*
X1343660Y1750060D03*
X1318260Y1750060D03*
X1292860Y1750060D03*
X1267460Y1750060D03*
X1242060Y1750060D03*
X1216660Y1750060D03*
D15*
X1242060Y1546860D03*
X1242060Y1559560D03*
X1254760Y1546860D03*
X1254760Y1559560D03*
X1267460Y1546860D03*
X1267460Y1559560D03*
X1280160Y1546860D03*
X1280160Y1559560D03*
X1292860Y1546860D03*
X1292860Y1559560D03*
D16*
X911860Y1750060D03*
X1419860Y1242060D03*
D17*
X1369060Y1637284D03*
X1369060Y1626870D03*
X1369060Y1616456D03*
D18*
X1343660Y1629156D03*
X1343660Y1637284D03*
D16*
X779780Y1421110D03*
X779780Y1501110D03*
D17*
X1318260Y1628013D03*
X1318260Y1638427D03*
X1292860Y1628013D03*
X1292860Y1638427D03*
D19*
X779780Y1290320D03*
X825500Y1290320D03*
D17*
X981710Y1592453D03*
X981710Y1602867D03*
D14*
X956310Y1584960D03*
X956310Y1610360D03*
X962660Y1305560D03*
X988060Y1305560D03*
D10*
X1658620Y1229360D03*
X2179320Y1280160D03*
X2179320Y1559560D03*
X1671320Y1711960D03*
D11*
X1567970Y1626560D03*
X1567970Y1568760D03*
D12*
X1537970Y1606550D03*
X1537970Y1624330D03*
X1537970Y1588770D03*
X1537970Y1570990D03*
D13*
X1540256Y1699260D03*
X1548384Y1699260D03*
D14*
X1706880Y1750060D03*
X1732280Y1750060D03*
X1757680Y1750060D03*
X1783080Y1750060D03*
X1808480Y1750060D03*
X1833880Y1750060D03*
X1859280Y1750060D03*
X1884680Y1750060D03*
X1910080Y1750060D03*
X1935480Y1750060D03*
X1798320Y1191260D03*
X1823720Y1191260D03*
X1849120Y1191260D03*
X1874520Y1191260D03*
X1899920Y1191260D03*
X1925320Y1191260D03*
X1950720Y1191260D03*
X1976120Y1191260D03*
X2026920Y1191260D03*
X2052320Y1191260D03*
X2077720Y1191260D03*
X2103120Y1191260D03*
X2128520Y1191260D03*
X2153920Y1191260D03*
X2153920Y1750060D03*
X2128520Y1750060D03*
X2103120Y1750060D03*
X2077720Y1750060D03*
X2052320Y1750060D03*
X2026920Y1750060D03*
X2001520Y1750060D03*
X1976120Y1750060D03*
D15*
X2001520Y1546860D03*
X2001520Y1559560D03*
X2014220Y1546860D03*
X2014220Y1559560D03*
X2026920Y1546860D03*
X2026920Y1559560D03*
X2039620Y1546860D03*
X2039620Y1559560D03*
X2052320Y1546860D03*
X2052320Y1559560D03*
D16*
X1671320Y1750060D03*
X2179320Y1242060D03*
D17*
X2128520Y1637284D03*
X2128520Y1626870D03*
X2128520Y1616456D03*
D18*
X2103120Y1629156D03*
X2103120Y1637284D03*
D16*
X1539240Y1421110D03*
X1539240Y1501110D03*
D17*
X2077720Y1628013D03*
X2077720Y1638427D03*
X2052320Y1628013D03*
X2052320Y1638427D03*
D19*
X1539240Y1290320D03*
X1584960Y1290320D03*
D17*
X1741170Y1592453D03*
X1741170Y1602867D03*
D14*
X1715770Y1584960D03*
X1715770Y1610360D03*
X1722120Y1305560D03*
X1747520Y1305560D03*
D10*
X139700Y1818640D03*
X660400Y1869440D03*
X660400Y2148840D03*
X152400Y2301240D03*
D11*
X49050Y2215840D03*
X49050Y2158040D03*
D12*
X19050Y2195830D03*
X19050Y2213610D03*
X19050Y2178050D03*
X19050Y2160270D03*
D13*
X21336Y2288540D03*
X29464Y2288540D03*
D14*
X187960Y2339340D03*
X213360Y2339340D03*
X238760Y2339340D03*
X264160Y2339340D03*
X289560Y2339340D03*
X314960Y2339340D03*
X340360Y2339340D03*
X365760Y2339340D03*
X391160Y2339340D03*
X416560Y2339340D03*
X279400Y1780540D03*
X304800Y1780540D03*
X330200Y1780540D03*
X355600Y1780540D03*
X381000Y1780540D03*
X406400Y1780540D03*
X431800Y1780540D03*
X457200Y1780540D03*
X508000Y1780540D03*
X533400Y1780540D03*
X558800Y1780540D03*
X584200Y1780540D03*
X609600Y1780540D03*
X635000Y1780540D03*
X635000Y2339340D03*
X609600Y2339340D03*
X584200Y2339340D03*
X558800Y2339340D03*
X533400Y2339340D03*
X508000Y2339340D03*
X482600Y2339340D03*
X457200Y2339340D03*
D15*
X482600Y2136140D03*
X482600Y2148840D03*
X495300Y2136140D03*
X495300Y2148840D03*
X508000Y2136140D03*
X508000Y2148840D03*
X520700Y2136140D03*
X520700Y2148840D03*
X533400Y2136140D03*
X533400Y2148840D03*
D16*
X152400Y2339340D03*
X660400Y1831340D03*
D17*
X609600Y2226564D03*
X609600Y2216150D03*
X609600Y2205736D03*
D18*
X584200Y2218436D03*
X584200Y2226564D03*
D16*
X20320Y2010390D03*
X20320Y2090390D03*
D17*
X558800Y2217293D03*
X558800Y2227707D03*
X533400Y2217293D03*
X533400Y2227707D03*
D19*
X20320Y1879600D03*
X66040Y1879600D03*
D17*
X222250Y2181733D03*
X222250Y2192147D03*
D14*
X196850Y2174240D03*
X196850Y2199640D03*
X203200Y1894840D03*
X228600Y1894840D03*
D10*
X899160Y1818640D03*
X1419860Y1869440D03*
X1419860Y2148840D03*
X911860Y2301240D03*
D11*
X808510Y2215840D03*
X808510Y2158040D03*
D12*
X778510Y2195830D03*
X778510Y2213610D03*
X778510Y2178050D03*
X778510Y2160270D03*
D13*
X780796Y2288540D03*
X788924Y2288540D03*
D14*
X947420Y2339340D03*
X972820Y2339340D03*
X998220Y2339340D03*
X1023620Y2339340D03*
X1049020Y2339340D03*
X1074420Y2339340D03*
X1099820Y2339340D03*
X1125220Y2339340D03*
X1150620Y2339340D03*
X1176020Y2339340D03*
X1038860Y1780540D03*
X1064260Y1780540D03*
X1089660Y1780540D03*
X1115060Y1780540D03*
X1140460Y1780540D03*
X1165860Y1780540D03*
X1191260Y1780540D03*
X1216660Y1780540D03*
X1267460Y1780540D03*
X1292860Y1780540D03*
X1318260Y1780540D03*
X1343660Y1780540D03*
X1369060Y1780540D03*
X1394460Y1780540D03*
X1394460Y2339340D03*
X1369060Y2339340D03*
X1343660Y2339340D03*
X1318260Y2339340D03*
X1292860Y2339340D03*
X1267460Y2339340D03*
X1242060Y2339340D03*
X1216660Y2339340D03*
D15*
X1242060Y2136140D03*
X1242060Y2148840D03*
X1254760Y2136140D03*
X1254760Y2148840D03*
X1267460Y2136140D03*
X1267460Y2148840D03*
X1280160Y2136140D03*
X1280160Y2148840D03*
X1292860Y2136140D03*
X1292860Y2148840D03*
D16*
X911860Y2339340D03*
X1419860Y1831340D03*
D17*
X1369060Y2226564D03*
X1369060Y2216150D03*
X1369060Y2205736D03*
D18*
X1343660Y2218436D03*
X1343660Y2226564D03*
D16*
X779780Y2010390D03*
X779780Y2090390D03*
D17*
X1318260Y2217293D03*
X1318260Y2227707D03*
X1292860Y2217293D03*
X1292860Y2227707D03*
D19*
X779780Y1879600D03*
X825500Y1879600D03*
D17*
X981710Y2181733D03*
X981710Y2192147D03*
D14*
X956310Y2174240D03*
X956310Y2199640D03*
X962660Y1894840D03*
X988060Y1894840D03*
D10*
X1658620Y1818640D03*
X2179320Y1869440D03*
X2179320Y2148840D03*
X1671320Y2301240D03*
D11*
X1567970Y2215840D03*
X1567970Y2158040D03*
D12*
X1537970Y2195830D03*
X1537970Y2213610D03*
X1537970Y2178050D03*
X1537970Y2160270D03*
D13*
X1540256Y2288540D03*
X1548384Y2288540D03*
D14*
X1706880Y2339340D03*
X1732280Y2339340D03*
X1757680Y2339340D03*
X1783080Y2339340D03*
X1808480Y2339340D03*
X1833880Y2339340D03*
X1859280Y2339340D03*
X1884680Y2339340D03*
X1910080Y2339340D03*
X1935480Y2339340D03*
X1798320Y1780540D03*
X1823720Y1780540D03*
X1849120Y1780540D03*
X1874520Y1780540D03*
X1899920Y1780540D03*
X1925320Y1780540D03*
X1950720Y1780540D03*
X1976120Y1780540D03*
X2026920Y1780540D03*
X2052320Y1780540D03*
X2077720Y1780540D03*
X2103120Y1780540D03*
X2128520Y1780540D03*
X2153920Y1780540D03*
X2153920Y2339340D03*
X2128520Y2339340D03*
X2103120Y2339340D03*
X2077720Y2339340D03*
X2052320Y2339340D03*
X2026920Y2339340D03*
X2001520Y2339340D03*
X1976120Y2339340D03*
D15*
X2001520Y2136140D03*
X2001520Y2148840D03*
X2014220Y2136140D03*
X2014220Y2148840D03*
X2026920Y2136140D03*
X2026920Y2148840D03*
X2039620Y2136140D03*
X2039620Y2148840D03*
X2052320Y2136140D03*
X2052320Y2148840D03*
D16*
X1671320Y2339340D03*
X2179320Y1831340D03*
D17*
X2128520Y2226564D03*
X2128520Y2216150D03*
X2128520Y2205736D03*
D18*
X2103120Y2218436D03*
X2103120Y2226564D03*
D16*
X1539240Y2010390D03*
X1539240Y2090390D03*
D17*
X2077720Y2217293D03*
X2077720Y2227707D03*
X2052320Y2217293D03*
X2052320Y2227707D03*
D19*
X1539240Y1879600D03*
X1584960Y1879600D03*
D17*
X1741170Y2181733D03*
X1741170Y2192147D03*
D14*
X1715770Y2174240D03*
X1715770Y2199640D03*
X1722120Y1894840D03*
X1747520Y1894840D03*
D16*
X-94818Y2325370D03*
X2299538Y2325370D03*
D20*
X-103873Y63500D02*
X-103870Y63722D01*
X-103862Y63944D01*
X-103848Y64166D01*
X-103829Y64388D01*
X-103805Y64608D01*
X-103775Y64829D01*
X-103740Y65048D01*
X-103699Y65267D01*
X-103653Y65484D01*
X-103602Y65700D01*
X-103545Y65915D01*
X-103483Y66129D01*
X-103416Y66340D01*
X-103344Y66551D01*
X-103266Y66759D01*
X-103184Y66965D01*
X-103096Y67169D01*
X-103004Y67372D01*
X-102906Y67571D01*
X-102804Y67768D01*
X-102697Y67963D01*
X-102585Y68155D01*
X-102468Y68344D01*
X-102347Y68531D01*
X-102221Y68714D01*
X-102091Y68894D01*
X-101956Y69071D01*
X-101818Y69244D01*
X-101675Y69414D01*
X-101527Y69581D01*
X-101376Y69744D01*
X-101221Y69903D01*
X-101062Y70058D01*
X-100899Y70209D01*
X-100732Y70357D01*
X-100562Y70500D01*
X-100389Y70638D01*
X-100212Y70773D01*
X-100032Y70903D01*
X-99849Y71029D01*
X-99662Y71150D01*
X-99473Y71267D01*
X-99281Y71379D01*
X-99086Y71486D01*
X-98889Y71588D01*
X-98690Y71686D01*
X-98487Y71778D01*
X-98283Y71866D01*
X-98077Y71948D01*
X-97869Y72026D01*
X-97658Y72098D01*
X-97447Y72165D01*
X-97233Y72227D01*
X-97018Y72284D01*
X-96802Y72335D01*
X-96585Y72381D01*
X-96366Y72422D01*
X-96147Y72457D01*
X-95926Y72487D01*
X-95706Y72511D01*
X-95484Y72530D01*
X-95262Y72544D01*
X-95040Y72552D01*
X-94818Y72555D01*
X-94596Y72552D01*
X-94374Y72544D01*
X-94152Y72530D01*
X-93930Y72511D01*
X-93710Y72487D01*
X-93489Y72457D01*
X-93270Y72422D01*
X-93051Y72381D01*
X-92834Y72335D01*
X-92618Y72284D01*
X-92403Y72227D01*
X-92189Y72165D01*
X-91978Y72098D01*
X-91767Y72026D01*
X-91559Y71948D01*
X-91353Y71866D01*
X-91149Y71778D01*
X-90946Y71686D01*
X-90747Y71588D01*
X-90550Y71486D01*
X-90355Y71379D01*
X-90163Y71267D01*
X-89974Y71150D01*
X-89787Y71029D01*
X-89604Y70903D01*
X-89424Y70773D01*
X-89247Y70638D01*
X-89074Y70500D01*
X-88904Y70357D01*
X-88737Y70209D01*
X-88574Y70058D01*
X-88415Y69903D01*
X-88260Y69744D01*
X-88109Y69581D01*
X-87961Y69414D01*
X-87818Y69244D01*
X-87680Y69071D01*
X-87545Y68894D01*
X-87415Y68714D01*
X-87289Y68531D01*
X-87168Y68344D01*
X-87051Y68155D01*
X-86939Y67963D01*
X-86832Y67768D01*
X-86730Y67571D01*
X-86632Y67372D01*
X-86540Y67169D01*
X-86452Y66965D01*
X-86370Y66759D01*
X-86292Y66551D01*
X-86220Y66340D01*
X-86153Y66129D01*
X-86091Y65915D01*
X-86034Y65700D01*
X-85983Y65484D01*
X-85937Y65267D01*
X-85896Y65048D01*
X-85861Y64829D01*
X-85831Y64608D01*
X-85807Y64388D01*
X-85788Y64166D01*
X-85774Y63944D01*
X-85766Y63722D01*
X-85763Y63500D01*
X-85766Y63278D01*
X-85774Y63056D01*
X-85788Y62834D01*
X-85807Y62612D01*
X-85831Y62392D01*
X-85861Y62171D01*
X-85896Y61952D01*
X-85937Y61733D01*
X-85983Y61516D01*
X-86034Y61300D01*
X-86091Y61085D01*
X-86153Y60871D01*
X-86220Y60660D01*
X-86292Y60449D01*
X-86370Y60241D01*
X-86452Y60035D01*
X-86540Y59831D01*
X-86632Y59628D01*
X-86730Y59429D01*
X-86832Y59232D01*
X-86939Y59037D01*
X-87051Y58845D01*
X-87168Y58656D01*
X-87289Y58469D01*
X-87415Y58286D01*
X-87545Y58106D01*
X-87680Y57929D01*
X-87818Y57756D01*
X-87961Y57586D01*
X-88109Y57419D01*
X-88260Y57256D01*
X-88415Y57097D01*
X-88574Y56942D01*
X-88737Y56791D01*
X-88904Y56643D01*
X-89074Y56500D01*
X-89247Y56362D01*
X-89424Y56227D01*
X-89604Y56097D01*
X-89787Y55971D01*
X-89974Y55850D01*
X-90163Y55733D01*
X-90355Y55621D01*
X-90550Y55514D01*
X-90747Y55412D01*
X-90946Y55314D01*
X-91149Y55222D01*
X-91353Y55134D01*
X-91559Y55052D01*
X-91767Y54974D01*
X-91978Y54902D01*
X-92189Y54835D01*
X-92403Y54773D01*
X-92618Y54716D01*
X-92834Y54665D01*
X-93051Y54619D01*
X-93270Y54578D01*
X-93489Y54543D01*
X-93710Y54513D01*
X-93930Y54489D01*
X-94152Y54470D01*
X-94374Y54456D01*
X-94596Y54448D01*
X-94818Y54445D01*
X-95040Y54448D01*
X-95262Y54456D01*
X-95484Y54470D01*
X-95706Y54489D01*
X-95926Y54513D01*
X-96147Y54543D01*
X-96366Y54578D01*
X-96585Y54619D01*
X-96802Y54665D01*
X-97018Y54716D01*
X-97233Y54773D01*
X-97447Y54835D01*
X-97658Y54902D01*
X-97869Y54974D01*
X-98077Y55052D01*
X-98283Y55134D01*
X-98487Y55222D01*
X-98690Y55314D01*
X-98889Y55412D01*
X-99086Y55514D01*
X-99281Y55621D01*
X-99473Y55733D01*
X-99662Y55850D01*
X-99849Y55971D01*
X-100032Y56097D01*
X-100212Y56227D01*
X-100389Y56362D01*
X-100562Y56500D01*
X-100732Y56643D01*
X-100899Y56791D01*
X-101062Y56942D01*
X-101221Y57097D01*
X-101376Y57256D01*
X-101527Y57419D01*
X-101675Y57586D01*
X-101818Y57756D01*
X-101956Y57929D01*
X-102091Y58106D01*
X-102221Y58286D01*
X-102347Y58469D01*
X-102468Y58656D01*
X-102585Y58845D01*
X-102697Y59037D01*
X-102804Y59232D01*
X-102906Y59429D01*
X-103004Y59628D01*
X-103096Y59831D01*
X-103184Y60035D01*
X-103266Y60241D01*
X-103344Y60449D01*
X-103416Y60660D01*
X-103483Y60871D01*
X-103545Y61085D01*
X-103602Y61300D01*
X-103653Y61516D01*
X-103699Y61733D01*
X-103740Y61952D01*
X-103775Y62171D01*
X-103805Y62392D01*
X-103829Y62612D01*
X-103848Y62834D01*
X-103862Y63056D01*
X-103870Y63278D01*
X-103873Y63500D01*
D21*
X-94818Y63500D03*
M02*
