G04 EAGLE Gerber RS-274X export*
G75*
%MOMM*%
%FSLAX34Y34*%
%LPD*%
%INSoldermask Bottom*%
%IPPOS*%
%AMOC8*
5,1,8,0,0,1.08239X$1,22.5*%
G01*
%ADD10C,3.505200*%
%ADD11C,0.853200*%
%ADD12R,3.203200X1.103200*%
%ADD13R,0.838200X1.473200*%
%ADD14C,2.082800*%
%ADD15C,0.990600*%
%ADD16C,1.203200*%
%ADD17R,1.473200X0.863600*%
%ADD18R,1.473200X0.838200*%
%ADD19C,2.235200*%
%ADD20C,1.270000*%
%ADD21C,1.703200*%

G36*
X1289115Y452132D02*
X1289115Y452132D01*
X1289181Y452134D01*
X1289224Y452152D01*
X1289271Y452160D01*
X1289328Y452194D01*
X1289388Y452219D01*
X1289423Y452250D01*
X1289464Y452275D01*
X1289506Y452326D01*
X1289554Y452370D01*
X1289576Y452412D01*
X1289605Y452449D01*
X1289626Y452511D01*
X1289657Y452570D01*
X1289665Y452624D01*
X1289677Y452661D01*
X1289676Y452701D01*
X1289684Y452755D01*
X1289684Y456565D01*
X1289673Y456630D01*
X1289671Y456696D01*
X1289653Y456739D01*
X1289645Y456786D01*
X1289611Y456843D01*
X1289586Y456903D01*
X1289555Y456938D01*
X1289530Y456979D01*
X1289479Y457021D01*
X1289435Y457069D01*
X1289393Y457091D01*
X1289356Y457120D01*
X1289294Y457141D01*
X1289235Y457172D01*
X1289181Y457180D01*
X1289144Y457192D01*
X1289104Y457191D01*
X1289050Y457199D01*
X1286510Y457199D01*
X1286445Y457188D01*
X1286379Y457186D01*
X1286336Y457168D01*
X1286289Y457160D01*
X1286232Y457126D01*
X1286172Y457101D01*
X1286137Y457070D01*
X1286096Y457045D01*
X1286055Y456994D01*
X1286006Y456950D01*
X1285984Y456908D01*
X1285955Y456871D01*
X1285934Y456809D01*
X1285903Y456750D01*
X1285895Y456696D01*
X1285883Y456659D01*
X1285883Y456655D01*
X1285883Y456654D01*
X1285884Y456619D01*
X1285876Y456565D01*
X1285876Y452755D01*
X1285887Y452690D01*
X1285889Y452624D01*
X1285907Y452581D01*
X1285915Y452534D01*
X1285949Y452477D01*
X1285974Y452417D01*
X1286005Y452382D01*
X1286030Y452341D01*
X1286081Y452300D01*
X1286125Y452251D01*
X1286167Y452229D01*
X1286204Y452200D01*
X1286266Y452179D01*
X1286325Y452148D01*
X1286379Y452140D01*
X1286416Y452128D01*
X1286456Y452129D01*
X1286510Y452121D01*
X1289050Y452121D01*
X1289115Y452132D01*
G37*
G36*
X1263715Y452132D02*
X1263715Y452132D01*
X1263781Y452134D01*
X1263824Y452152D01*
X1263871Y452160D01*
X1263928Y452194D01*
X1263988Y452219D01*
X1264023Y452250D01*
X1264064Y452275D01*
X1264106Y452326D01*
X1264154Y452370D01*
X1264176Y452412D01*
X1264205Y452449D01*
X1264226Y452511D01*
X1264257Y452570D01*
X1264265Y452624D01*
X1264277Y452661D01*
X1264276Y452701D01*
X1264284Y452755D01*
X1264284Y456565D01*
X1264273Y456630D01*
X1264271Y456696D01*
X1264253Y456739D01*
X1264245Y456786D01*
X1264211Y456843D01*
X1264186Y456903D01*
X1264155Y456938D01*
X1264130Y456979D01*
X1264079Y457021D01*
X1264035Y457069D01*
X1263993Y457091D01*
X1263956Y457120D01*
X1263894Y457141D01*
X1263835Y457172D01*
X1263781Y457180D01*
X1263744Y457192D01*
X1263704Y457191D01*
X1263650Y457199D01*
X1261110Y457199D01*
X1261045Y457188D01*
X1260979Y457186D01*
X1260936Y457168D01*
X1260889Y457160D01*
X1260832Y457126D01*
X1260772Y457101D01*
X1260737Y457070D01*
X1260696Y457045D01*
X1260655Y456994D01*
X1260606Y456950D01*
X1260584Y456908D01*
X1260555Y456871D01*
X1260534Y456809D01*
X1260503Y456750D01*
X1260495Y456696D01*
X1260483Y456659D01*
X1260483Y456655D01*
X1260483Y456654D01*
X1260484Y456619D01*
X1260476Y456565D01*
X1260476Y452755D01*
X1260487Y452690D01*
X1260489Y452624D01*
X1260507Y452581D01*
X1260515Y452534D01*
X1260549Y452477D01*
X1260574Y452417D01*
X1260605Y452382D01*
X1260630Y452341D01*
X1260681Y452300D01*
X1260725Y452251D01*
X1260767Y452229D01*
X1260804Y452200D01*
X1260866Y452179D01*
X1260925Y452148D01*
X1260979Y452140D01*
X1261016Y452128D01*
X1261056Y452129D01*
X1261110Y452121D01*
X1263650Y452121D01*
X1263715Y452132D01*
G37*
G36*
X1992695Y452132D02*
X1992695Y452132D01*
X1992761Y452134D01*
X1992804Y452152D01*
X1992851Y452160D01*
X1992908Y452194D01*
X1992968Y452219D01*
X1993003Y452250D01*
X1993044Y452275D01*
X1993086Y452326D01*
X1993134Y452370D01*
X1993156Y452412D01*
X1993185Y452449D01*
X1993206Y452511D01*
X1993237Y452570D01*
X1993245Y452624D01*
X1993257Y452661D01*
X1993256Y452701D01*
X1993264Y452755D01*
X1993264Y456565D01*
X1993253Y456630D01*
X1993251Y456696D01*
X1993233Y456739D01*
X1993225Y456786D01*
X1993191Y456843D01*
X1993166Y456903D01*
X1993135Y456938D01*
X1993110Y456979D01*
X1993059Y457021D01*
X1993015Y457069D01*
X1992973Y457091D01*
X1992936Y457120D01*
X1992874Y457141D01*
X1992815Y457172D01*
X1992761Y457180D01*
X1992724Y457192D01*
X1992684Y457191D01*
X1992630Y457199D01*
X1990090Y457199D01*
X1990025Y457188D01*
X1989959Y457186D01*
X1989916Y457168D01*
X1989869Y457160D01*
X1989812Y457126D01*
X1989752Y457101D01*
X1989717Y457070D01*
X1989676Y457045D01*
X1989635Y456994D01*
X1989586Y456950D01*
X1989564Y456908D01*
X1989535Y456871D01*
X1989514Y456809D01*
X1989483Y456750D01*
X1989475Y456696D01*
X1989463Y456659D01*
X1989463Y456655D01*
X1989463Y456654D01*
X1989464Y456619D01*
X1989456Y456565D01*
X1989456Y452755D01*
X1989467Y452690D01*
X1989469Y452624D01*
X1989487Y452581D01*
X1989495Y452534D01*
X1989529Y452477D01*
X1989554Y452417D01*
X1989585Y452382D01*
X1989610Y452341D01*
X1989661Y452300D01*
X1989705Y452251D01*
X1989747Y452229D01*
X1989784Y452200D01*
X1989846Y452179D01*
X1989905Y452148D01*
X1989959Y452140D01*
X1989996Y452128D01*
X1990036Y452129D01*
X1990090Y452121D01*
X1992630Y452121D01*
X1992695Y452132D01*
G37*
G36*
X560135Y452132D02*
X560135Y452132D01*
X560201Y452134D01*
X560244Y452152D01*
X560291Y452160D01*
X560348Y452194D01*
X560408Y452219D01*
X560443Y452250D01*
X560484Y452275D01*
X560526Y452326D01*
X560574Y452370D01*
X560596Y452412D01*
X560625Y452449D01*
X560646Y452511D01*
X560677Y452570D01*
X560685Y452624D01*
X560697Y452661D01*
X560696Y452701D01*
X560704Y452755D01*
X560704Y456565D01*
X560693Y456630D01*
X560691Y456696D01*
X560673Y456739D01*
X560665Y456786D01*
X560631Y456843D01*
X560606Y456903D01*
X560575Y456938D01*
X560550Y456979D01*
X560499Y457021D01*
X560455Y457069D01*
X560413Y457091D01*
X560376Y457120D01*
X560314Y457141D01*
X560255Y457172D01*
X560201Y457180D01*
X560164Y457192D01*
X560124Y457191D01*
X560070Y457199D01*
X557530Y457199D01*
X557465Y457188D01*
X557399Y457186D01*
X557356Y457168D01*
X557309Y457160D01*
X557252Y457126D01*
X557192Y457101D01*
X557157Y457070D01*
X557116Y457045D01*
X557075Y456994D01*
X557026Y456950D01*
X557004Y456908D01*
X556975Y456871D01*
X556954Y456809D01*
X556923Y456750D01*
X556915Y456696D01*
X556903Y456659D01*
X556903Y456655D01*
X556903Y456654D01*
X556904Y456619D01*
X556896Y456565D01*
X556896Y452755D01*
X556907Y452690D01*
X556909Y452624D01*
X556927Y452581D01*
X556935Y452534D01*
X556969Y452477D01*
X556994Y452417D01*
X557025Y452382D01*
X557050Y452341D01*
X557101Y452300D01*
X557145Y452251D01*
X557187Y452229D01*
X557224Y452200D01*
X557286Y452179D01*
X557345Y452148D01*
X557399Y452140D01*
X557436Y452128D01*
X557476Y452129D01*
X557530Y452121D01*
X560070Y452121D01*
X560135Y452132D01*
G37*
G36*
X2018095Y452132D02*
X2018095Y452132D01*
X2018161Y452134D01*
X2018204Y452152D01*
X2018251Y452160D01*
X2018308Y452194D01*
X2018368Y452219D01*
X2018403Y452250D01*
X2018444Y452275D01*
X2018486Y452326D01*
X2018534Y452370D01*
X2018556Y452412D01*
X2018585Y452449D01*
X2018606Y452511D01*
X2018637Y452570D01*
X2018645Y452624D01*
X2018657Y452661D01*
X2018656Y452701D01*
X2018664Y452755D01*
X2018664Y456565D01*
X2018653Y456630D01*
X2018651Y456696D01*
X2018633Y456739D01*
X2018625Y456786D01*
X2018591Y456843D01*
X2018566Y456903D01*
X2018535Y456938D01*
X2018510Y456979D01*
X2018459Y457021D01*
X2018415Y457069D01*
X2018373Y457091D01*
X2018336Y457120D01*
X2018274Y457141D01*
X2018215Y457172D01*
X2018161Y457180D01*
X2018124Y457192D01*
X2018084Y457191D01*
X2018030Y457199D01*
X2015490Y457199D01*
X2015425Y457188D01*
X2015359Y457186D01*
X2015316Y457168D01*
X2015269Y457160D01*
X2015212Y457126D01*
X2015152Y457101D01*
X2015117Y457070D01*
X2015076Y457045D01*
X2015035Y456994D01*
X2014986Y456950D01*
X2014964Y456908D01*
X2014935Y456871D01*
X2014914Y456809D01*
X2014883Y456750D01*
X2014875Y456696D01*
X2014863Y456659D01*
X2014863Y456655D01*
X2014863Y456654D01*
X2014864Y456619D01*
X2014856Y456565D01*
X2014856Y452755D01*
X2014867Y452690D01*
X2014869Y452624D01*
X2014887Y452581D01*
X2014895Y452534D01*
X2014929Y452477D01*
X2014954Y452417D01*
X2014985Y452382D01*
X2015010Y452341D01*
X2015061Y452300D01*
X2015105Y452251D01*
X2015147Y452229D01*
X2015184Y452200D01*
X2015246Y452179D01*
X2015305Y452148D01*
X2015359Y452140D01*
X2015396Y452128D01*
X2015436Y452129D01*
X2015490Y452121D01*
X2018030Y452121D01*
X2018095Y452132D01*
G37*
G36*
X534735Y452132D02*
X534735Y452132D01*
X534801Y452134D01*
X534844Y452152D01*
X534891Y452160D01*
X534948Y452194D01*
X535008Y452219D01*
X535043Y452250D01*
X535084Y452275D01*
X535126Y452326D01*
X535174Y452370D01*
X535196Y452412D01*
X535225Y452449D01*
X535246Y452511D01*
X535277Y452570D01*
X535285Y452624D01*
X535297Y452661D01*
X535296Y452701D01*
X535304Y452755D01*
X535304Y456565D01*
X535293Y456630D01*
X535291Y456696D01*
X535273Y456739D01*
X535265Y456786D01*
X535231Y456843D01*
X535206Y456903D01*
X535175Y456938D01*
X535150Y456979D01*
X535099Y457021D01*
X535055Y457069D01*
X535013Y457091D01*
X534976Y457120D01*
X534914Y457141D01*
X534855Y457172D01*
X534801Y457180D01*
X534764Y457192D01*
X534724Y457191D01*
X534670Y457199D01*
X532130Y457199D01*
X532065Y457188D01*
X531999Y457186D01*
X531956Y457168D01*
X531909Y457160D01*
X531852Y457126D01*
X531792Y457101D01*
X531757Y457070D01*
X531716Y457045D01*
X531675Y456994D01*
X531626Y456950D01*
X531604Y456908D01*
X531575Y456871D01*
X531554Y456809D01*
X531523Y456750D01*
X531515Y456696D01*
X531503Y456659D01*
X531503Y456655D01*
X531503Y456654D01*
X531504Y456619D01*
X531496Y456565D01*
X531496Y452755D01*
X531507Y452690D01*
X531509Y452624D01*
X531527Y452581D01*
X531535Y452534D01*
X531569Y452477D01*
X531594Y452417D01*
X531625Y452382D01*
X531650Y452341D01*
X531701Y452300D01*
X531745Y452251D01*
X531787Y452229D01*
X531824Y452200D01*
X531886Y452179D01*
X531945Y452148D01*
X531999Y452140D01*
X532036Y452128D01*
X532076Y452129D01*
X532130Y452121D01*
X534670Y452121D01*
X534735Y452132D01*
G37*
G36*
X2068895Y2218702D02*
X2068895Y2218702D01*
X2068961Y2218704D01*
X2069004Y2218722D01*
X2069051Y2218730D01*
X2069108Y2218764D01*
X2069168Y2218789D01*
X2069203Y2218820D01*
X2069244Y2218845D01*
X2069286Y2218896D01*
X2069334Y2218940D01*
X2069356Y2218982D01*
X2069385Y2219019D01*
X2069406Y2219081D01*
X2069437Y2219140D01*
X2069445Y2219194D01*
X2069457Y2219231D01*
X2069456Y2219271D01*
X2069464Y2219325D01*
X2069464Y2223135D01*
X2069453Y2223200D01*
X2069451Y2223266D01*
X2069433Y2223309D01*
X2069425Y2223356D01*
X2069391Y2223413D01*
X2069366Y2223473D01*
X2069335Y2223508D01*
X2069310Y2223549D01*
X2069259Y2223591D01*
X2069215Y2223639D01*
X2069173Y2223661D01*
X2069136Y2223690D01*
X2069074Y2223711D01*
X2069015Y2223742D01*
X2068961Y2223750D01*
X2068924Y2223762D01*
X2068884Y2223761D01*
X2068830Y2223769D01*
X2066290Y2223769D01*
X2066225Y2223758D01*
X2066159Y2223756D01*
X2066116Y2223738D01*
X2066069Y2223730D01*
X2066012Y2223696D01*
X2065952Y2223671D01*
X2065917Y2223640D01*
X2065876Y2223615D01*
X2065835Y2223564D01*
X2065786Y2223520D01*
X2065764Y2223478D01*
X2065735Y2223441D01*
X2065714Y2223379D01*
X2065683Y2223320D01*
X2065675Y2223266D01*
X2065663Y2223229D01*
X2065663Y2223225D01*
X2065663Y2223224D01*
X2065664Y2223189D01*
X2065656Y2223135D01*
X2065656Y2219325D01*
X2065667Y2219260D01*
X2065669Y2219194D01*
X2065687Y2219151D01*
X2065695Y2219104D01*
X2065729Y2219047D01*
X2065754Y2218987D01*
X2065785Y2218952D01*
X2065810Y2218911D01*
X2065861Y2218870D01*
X2065905Y2218821D01*
X2065947Y2218799D01*
X2065984Y2218770D01*
X2066046Y2218749D01*
X2066105Y2218718D01*
X2066159Y2218710D01*
X2066196Y2218698D01*
X2066236Y2218699D01*
X2066290Y2218691D01*
X2068830Y2218691D01*
X2068895Y2218702D01*
G37*
G36*
X1339915Y2218702D02*
X1339915Y2218702D01*
X1339981Y2218704D01*
X1340024Y2218722D01*
X1340071Y2218730D01*
X1340128Y2218764D01*
X1340188Y2218789D01*
X1340223Y2218820D01*
X1340264Y2218845D01*
X1340306Y2218896D01*
X1340354Y2218940D01*
X1340376Y2218982D01*
X1340405Y2219019D01*
X1340426Y2219081D01*
X1340457Y2219140D01*
X1340465Y2219194D01*
X1340477Y2219231D01*
X1340476Y2219271D01*
X1340484Y2219325D01*
X1340484Y2223135D01*
X1340473Y2223200D01*
X1340471Y2223266D01*
X1340453Y2223309D01*
X1340445Y2223356D01*
X1340411Y2223413D01*
X1340386Y2223473D01*
X1340355Y2223508D01*
X1340330Y2223549D01*
X1340279Y2223591D01*
X1340235Y2223639D01*
X1340193Y2223661D01*
X1340156Y2223690D01*
X1340094Y2223711D01*
X1340035Y2223742D01*
X1339981Y2223750D01*
X1339944Y2223762D01*
X1339904Y2223761D01*
X1339850Y2223769D01*
X1337310Y2223769D01*
X1337245Y2223758D01*
X1337179Y2223756D01*
X1337136Y2223738D01*
X1337089Y2223730D01*
X1337032Y2223696D01*
X1336972Y2223671D01*
X1336937Y2223640D01*
X1336896Y2223615D01*
X1336855Y2223564D01*
X1336806Y2223520D01*
X1336784Y2223478D01*
X1336755Y2223441D01*
X1336734Y2223379D01*
X1336703Y2223320D01*
X1336695Y2223266D01*
X1336683Y2223229D01*
X1336683Y2223225D01*
X1336683Y2223224D01*
X1336684Y2223189D01*
X1336676Y2223135D01*
X1336676Y2219325D01*
X1336687Y2219260D01*
X1336689Y2219194D01*
X1336707Y2219151D01*
X1336715Y2219104D01*
X1336749Y2219047D01*
X1336774Y2218987D01*
X1336805Y2218952D01*
X1336830Y2218911D01*
X1336881Y2218870D01*
X1336925Y2218821D01*
X1336967Y2218799D01*
X1337004Y2218770D01*
X1337066Y2218749D01*
X1337125Y2218718D01*
X1337179Y2218710D01*
X1337216Y2218698D01*
X1337256Y2218699D01*
X1337310Y2218691D01*
X1339850Y2218691D01*
X1339915Y2218702D01*
G37*
G36*
X610935Y2218702D02*
X610935Y2218702D01*
X611001Y2218704D01*
X611044Y2218722D01*
X611091Y2218730D01*
X611148Y2218764D01*
X611208Y2218789D01*
X611243Y2218820D01*
X611284Y2218845D01*
X611326Y2218896D01*
X611374Y2218940D01*
X611396Y2218982D01*
X611425Y2219019D01*
X611446Y2219081D01*
X611477Y2219140D01*
X611485Y2219194D01*
X611497Y2219231D01*
X611496Y2219271D01*
X611504Y2219325D01*
X611504Y2223135D01*
X611493Y2223200D01*
X611491Y2223266D01*
X611473Y2223309D01*
X611465Y2223356D01*
X611431Y2223413D01*
X611406Y2223473D01*
X611375Y2223508D01*
X611350Y2223549D01*
X611299Y2223591D01*
X611255Y2223639D01*
X611213Y2223661D01*
X611176Y2223690D01*
X611114Y2223711D01*
X611055Y2223742D01*
X611001Y2223750D01*
X610964Y2223762D01*
X610924Y2223761D01*
X610870Y2223769D01*
X608330Y2223769D01*
X608265Y2223758D01*
X608199Y2223756D01*
X608156Y2223738D01*
X608109Y2223730D01*
X608052Y2223696D01*
X607992Y2223671D01*
X607957Y2223640D01*
X607916Y2223615D01*
X607875Y2223564D01*
X607826Y2223520D01*
X607804Y2223478D01*
X607775Y2223441D01*
X607754Y2223379D01*
X607723Y2223320D01*
X607715Y2223266D01*
X607703Y2223229D01*
X607703Y2223225D01*
X607703Y2223224D01*
X607704Y2223189D01*
X607696Y2223135D01*
X607696Y2219325D01*
X607707Y2219260D01*
X607709Y2219194D01*
X607727Y2219151D01*
X607735Y2219104D01*
X607769Y2219047D01*
X607794Y2218987D01*
X607825Y2218952D01*
X607850Y2218911D01*
X607901Y2218870D01*
X607945Y2218821D01*
X607987Y2218799D01*
X608024Y2218770D01*
X608086Y2218749D01*
X608145Y2218718D01*
X608199Y2218710D01*
X608236Y2218698D01*
X608276Y2218699D01*
X608330Y2218691D01*
X610870Y2218691D01*
X610935Y2218702D01*
G37*
G36*
X1339915Y2208542D02*
X1339915Y2208542D01*
X1339981Y2208544D01*
X1340024Y2208562D01*
X1340071Y2208570D01*
X1340128Y2208604D01*
X1340188Y2208629D01*
X1340223Y2208660D01*
X1340264Y2208685D01*
X1340306Y2208736D01*
X1340354Y2208780D01*
X1340376Y2208822D01*
X1340405Y2208859D01*
X1340426Y2208921D01*
X1340457Y2208980D01*
X1340465Y2209034D01*
X1340477Y2209071D01*
X1340476Y2209111D01*
X1340484Y2209165D01*
X1340484Y2212975D01*
X1340473Y2213040D01*
X1340471Y2213106D01*
X1340453Y2213149D01*
X1340445Y2213196D01*
X1340411Y2213253D01*
X1340386Y2213313D01*
X1340355Y2213348D01*
X1340330Y2213389D01*
X1340279Y2213431D01*
X1340235Y2213479D01*
X1340193Y2213501D01*
X1340156Y2213530D01*
X1340094Y2213551D01*
X1340035Y2213582D01*
X1339981Y2213590D01*
X1339944Y2213602D01*
X1339904Y2213601D01*
X1339850Y2213609D01*
X1337310Y2213609D01*
X1337245Y2213598D01*
X1337179Y2213596D01*
X1337136Y2213578D01*
X1337089Y2213570D01*
X1337032Y2213536D01*
X1336972Y2213511D01*
X1336937Y2213480D01*
X1336896Y2213455D01*
X1336855Y2213404D01*
X1336806Y2213360D01*
X1336784Y2213318D01*
X1336755Y2213281D01*
X1336734Y2213219D01*
X1336703Y2213160D01*
X1336695Y2213106D01*
X1336683Y2213069D01*
X1336683Y2213065D01*
X1336683Y2213064D01*
X1336684Y2213029D01*
X1336676Y2212975D01*
X1336676Y2209165D01*
X1336687Y2209100D01*
X1336689Y2209034D01*
X1336707Y2208991D01*
X1336715Y2208944D01*
X1336749Y2208887D01*
X1336774Y2208827D01*
X1336805Y2208792D01*
X1336830Y2208751D01*
X1336881Y2208710D01*
X1336925Y2208661D01*
X1336967Y2208639D01*
X1337004Y2208610D01*
X1337066Y2208589D01*
X1337125Y2208558D01*
X1337179Y2208550D01*
X1337216Y2208538D01*
X1337256Y2208539D01*
X1337310Y2208531D01*
X1339850Y2208531D01*
X1339915Y2208542D01*
G37*
G36*
X2068895Y2208542D02*
X2068895Y2208542D01*
X2068961Y2208544D01*
X2069004Y2208562D01*
X2069051Y2208570D01*
X2069108Y2208604D01*
X2069168Y2208629D01*
X2069203Y2208660D01*
X2069244Y2208685D01*
X2069286Y2208736D01*
X2069334Y2208780D01*
X2069356Y2208822D01*
X2069385Y2208859D01*
X2069406Y2208921D01*
X2069437Y2208980D01*
X2069445Y2209034D01*
X2069457Y2209071D01*
X2069456Y2209111D01*
X2069464Y2209165D01*
X2069464Y2212975D01*
X2069453Y2213040D01*
X2069451Y2213106D01*
X2069433Y2213149D01*
X2069425Y2213196D01*
X2069391Y2213253D01*
X2069366Y2213313D01*
X2069335Y2213348D01*
X2069310Y2213389D01*
X2069259Y2213431D01*
X2069215Y2213479D01*
X2069173Y2213501D01*
X2069136Y2213530D01*
X2069074Y2213551D01*
X2069015Y2213582D01*
X2068961Y2213590D01*
X2068924Y2213602D01*
X2068884Y2213601D01*
X2068830Y2213609D01*
X2066290Y2213609D01*
X2066225Y2213598D01*
X2066159Y2213596D01*
X2066116Y2213578D01*
X2066069Y2213570D01*
X2066012Y2213536D01*
X2065952Y2213511D01*
X2065917Y2213480D01*
X2065876Y2213455D01*
X2065835Y2213404D01*
X2065786Y2213360D01*
X2065764Y2213318D01*
X2065735Y2213281D01*
X2065714Y2213219D01*
X2065683Y2213160D01*
X2065675Y2213106D01*
X2065663Y2213069D01*
X2065663Y2213065D01*
X2065663Y2213064D01*
X2065664Y2213029D01*
X2065656Y2212975D01*
X2065656Y2209165D01*
X2065667Y2209100D01*
X2065669Y2209034D01*
X2065687Y2208991D01*
X2065695Y2208944D01*
X2065729Y2208887D01*
X2065754Y2208827D01*
X2065785Y2208792D01*
X2065810Y2208751D01*
X2065861Y2208710D01*
X2065905Y2208661D01*
X2065947Y2208639D01*
X2065984Y2208610D01*
X2066046Y2208589D01*
X2066105Y2208558D01*
X2066159Y2208550D01*
X2066196Y2208538D01*
X2066236Y2208539D01*
X2066290Y2208531D01*
X2068830Y2208531D01*
X2068895Y2208542D01*
G37*
G36*
X610935Y2208542D02*
X610935Y2208542D01*
X611001Y2208544D01*
X611044Y2208562D01*
X611091Y2208570D01*
X611148Y2208604D01*
X611208Y2208629D01*
X611243Y2208660D01*
X611284Y2208685D01*
X611326Y2208736D01*
X611374Y2208780D01*
X611396Y2208822D01*
X611425Y2208859D01*
X611446Y2208921D01*
X611477Y2208980D01*
X611485Y2209034D01*
X611497Y2209071D01*
X611496Y2209111D01*
X611504Y2209165D01*
X611504Y2212975D01*
X611493Y2213040D01*
X611491Y2213106D01*
X611473Y2213149D01*
X611465Y2213196D01*
X611431Y2213253D01*
X611406Y2213313D01*
X611375Y2213348D01*
X611350Y2213389D01*
X611299Y2213431D01*
X611255Y2213479D01*
X611213Y2213501D01*
X611176Y2213530D01*
X611114Y2213551D01*
X611055Y2213582D01*
X611001Y2213590D01*
X610964Y2213602D01*
X610924Y2213601D01*
X610870Y2213609D01*
X608330Y2213609D01*
X608265Y2213598D01*
X608199Y2213596D01*
X608156Y2213578D01*
X608109Y2213570D01*
X608052Y2213536D01*
X607992Y2213511D01*
X607957Y2213480D01*
X607916Y2213455D01*
X607875Y2213404D01*
X607826Y2213360D01*
X607804Y2213318D01*
X607775Y2213281D01*
X607754Y2213219D01*
X607723Y2213160D01*
X607715Y2213106D01*
X607703Y2213069D01*
X607703Y2213065D01*
X607703Y2213064D01*
X607704Y2213029D01*
X607696Y2212975D01*
X607696Y2209165D01*
X607707Y2209100D01*
X607709Y2209034D01*
X607727Y2208991D01*
X607735Y2208944D01*
X607769Y2208887D01*
X607794Y2208827D01*
X607825Y2208792D01*
X607850Y2208751D01*
X607901Y2208710D01*
X607945Y2208661D01*
X607987Y2208639D01*
X608024Y2208610D01*
X608086Y2208589D01*
X608145Y2208558D01*
X608199Y2208550D01*
X608236Y2208538D01*
X608276Y2208539D01*
X608330Y2208531D01*
X610870Y2208531D01*
X610935Y2208542D01*
G37*
G36*
X1681545Y2184412D02*
X1681545Y2184412D01*
X1681611Y2184414D01*
X1681654Y2184432D01*
X1681701Y2184440D01*
X1681758Y2184474D01*
X1681818Y2184499D01*
X1681853Y2184530D01*
X1681894Y2184555D01*
X1681936Y2184606D01*
X1681984Y2184650D01*
X1682006Y2184692D01*
X1682035Y2184729D01*
X1682056Y2184791D01*
X1682087Y2184850D01*
X1682095Y2184904D01*
X1682107Y2184941D01*
X1682106Y2184981D01*
X1682114Y2185035D01*
X1682114Y2188845D01*
X1682103Y2188910D01*
X1682101Y2188976D01*
X1682083Y2189019D01*
X1682075Y2189066D01*
X1682041Y2189123D01*
X1682016Y2189183D01*
X1681985Y2189218D01*
X1681960Y2189259D01*
X1681909Y2189301D01*
X1681865Y2189349D01*
X1681823Y2189371D01*
X1681786Y2189400D01*
X1681724Y2189421D01*
X1681665Y2189452D01*
X1681611Y2189460D01*
X1681574Y2189472D01*
X1681534Y2189471D01*
X1681480Y2189479D01*
X1678940Y2189479D01*
X1678875Y2189468D01*
X1678809Y2189466D01*
X1678766Y2189448D01*
X1678719Y2189440D01*
X1678662Y2189406D01*
X1678602Y2189381D01*
X1678567Y2189350D01*
X1678526Y2189325D01*
X1678485Y2189274D01*
X1678436Y2189230D01*
X1678414Y2189188D01*
X1678385Y2189151D01*
X1678364Y2189089D01*
X1678333Y2189030D01*
X1678325Y2188976D01*
X1678313Y2188939D01*
X1678313Y2188935D01*
X1678313Y2188934D01*
X1678314Y2188899D01*
X1678306Y2188845D01*
X1678306Y2185035D01*
X1678317Y2184970D01*
X1678319Y2184904D01*
X1678337Y2184861D01*
X1678345Y2184814D01*
X1678379Y2184757D01*
X1678404Y2184697D01*
X1678435Y2184662D01*
X1678460Y2184621D01*
X1678511Y2184580D01*
X1678555Y2184531D01*
X1678597Y2184509D01*
X1678634Y2184480D01*
X1678696Y2184459D01*
X1678755Y2184428D01*
X1678809Y2184420D01*
X1678846Y2184408D01*
X1678886Y2184409D01*
X1678940Y2184401D01*
X1681480Y2184401D01*
X1681545Y2184412D01*
G37*
G36*
X223585Y2184412D02*
X223585Y2184412D01*
X223651Y2184414D01*
X223694Y2184432D01*
X223741Y2184440D01*
X223798Y2184474D01*
X223858Y2184499D01*
X223893Y2184530D01*
X223934Y2184555D01*
X223976Y2184606D01*
X224024Y2184650D01*
X224046Y2184692D01*
X224075Y2184729D01*
X224096Y2184791D01*
X224127Y2184850D01*
X224135Y2184904D01*
X224147Y2184941D01*
X224146Y2184981D01*
X224154Y2185035D01*
X224154Y2188845D01*
X224143Y2188910D01*
X224141Y2188976D01*
X224123Y2189019D01*
X224115Y2189066D01*
X224081Y2189123D01*
X224056Y2189183D01*
X224025Y2189218D01*
X224000Y2189259D01*
X223949Y2189301D01*
X223905Y2189349D01*
X223863Y2189371D01*
X223826Y2189400D01*
X223764Y2189421D01*
X223705Y2189452D01*
X223651Y2189460D01*
X223614Y2189472D01*
X223574Y2189471D01*
X223520Y2189479D01*
X220980Y2189479D01*
X220915Y2189468D01*
X220849Y2189466D01*
X220806Y2189448D01*
X220759Y2189440D01*
X220702Y2189406D01*
X220642Y2189381D01*
X220607Y2189350D01*
X220566Y2189325D01*
X220525Y2189274D01*
X220476Y2189230D01*
X220454Y2189188D01*
X220425Y2189151D01*
X220404Y2189089D01*
X220373Y2189030D01*
X220365Y2188976D01*
X220353Y2188939D01*
X220353Y2188935D01*
X220353Y2188934D01*
X220354Y2188899D01*
X220346Y2188845D01*
X220346Y2185035D01*
X220357Y2184970D01*
X220359Y2184904D01*
X220377Y2184861D01*
X220385Y2184814D01*
X220419Y2184757D01*
X220444Y2184697D01*
X220475Y2184662D01*
X220500Y2184621D01*
X220551Y2184580D01*
X220595Y2184531D01*
X220637Y2184509D01*
X220674Y2184480D01*
X220736Y2184459D01*
X220795Y2184428D01*
X220849Y2184420D01*
X220886Y2184408D01*
X220926Y2184409D01*
X220980Y2184401D01*
X223520Y2184401D01*
X223585Y2184412D01*
G37*
G36*
X952565Y2184412D02*
X952565Y2184412D01*
X952631Y2184414D01*
X952674Y2184432D01*
X952721Y2184440D01*
X952778Y2184474D01*
X952838Y2184499D01*
X952873Y2184530D01*
X952914Y2184555D01*
X952956Y2184606D01*
X953004Y2184650D01*
X953026Y2184692D01*
X953055Y2184729D01*
X953076Y2184791D01*
X953107Y2184850D01*
X953115Y2184904D01*
X953127Y2184941D01*
X953126Y2184981D01*
X953134Y2185035D01*
X953134Y2188845D01*
X953123Y2188910D01*
X953121Y2188976D01*
X953103Y2189019D01*
X953095Y2189066D01*
X953061Y2189123D01*
X953036Y2189183D01*
X953005Y2189218D01*
X952980Y2189259D01*
X952929Y2189301D01*
X952885Y2189349D01*
X952843Y2189371D01*
X952806Y2189400D01*
X952744Y2189421D01*
X952685Y2189452D01*
X952631Y2189460D01*
X952594Y2189472D01*
X952554Y2189471D01*
X952500Y2189479D01*
X949960Y2189479D01*
X949895Y2189468D01*
X949829Y2189466D01*
X949786Y2189448D01*
X949739Y2189440D01*
X949682Y2189406D01*
X949622Y2189381D01*
X949587Y2189350D01*
X949546Y2189325D01*
X949505Y2189274D01*
X949456Y2189230D01*
X949434Y2189188D01*
X949405Y2189151D01*
X949384Y2189089D01*
X949353Y2189030D01*
X949345Y2188976D01*
X949333Y2188939D01*
X949333Y2188935D01*
X949333Y2188934D01*
X949334Y2188899D01*
X949326Y2188845D01*
X949326Y2185035D01*
X949337Y2184970D01*
X949339Y2184904D01*
X949357Y2184861D01*
X949365Y2184814D01*
X949399Y2184757D01*
X949424Y2184697D01*
X949455Y2184662D01*
X949480Y2184621D01*
X949531Y2184580D01*
X949575Y2184531D01*
X949617Y2184509D01*
X949654Y2184480D01*
X949716Y2184459D01*
X949775Y2184428D01*
X949829Y2184420D01*
X949866Y2184408D01*
X949906Y2184409D01*
X949960Y2184401D01*
X952500Y2184401D01*
X952565Y2184412D01*
G37*
G36*
X1263715Y1630692D02*
X1263715Y1630692D01*
X1263781Y1630694D01*
X1263824Y1630712D01*
X1263871Y1630720D01*
X1263928Y1630754D01*
X1263988Y1630779D01*
X1264023Y1630810D01*
X1264064Y1630835D01*
X1264106Y1630886D01*
X1264154Y1630930D01*
X1264176Y1630972D01*
X1264205Y1631009D01*
X1264226Y1631071D01*
X1264257Y1631130D01*
X1264265Y1631184D01*
X1264277Y1631221D01*
X1264276Y1631261D01*
X1264284Y1631315D01*
X1264284Y1635125D01*
X1264273Y1635190D01*
X1264271Y1635256D01*
X1264253Y1635299D01*
X1264245Y1635346D01*
X1264211Y1635403D01*
X1264186Y1635463D01*
X1264155Y1635498D01*
X1264130Y1635539D01*
X1264079Y1635581D01*
X1264035Y1635629D01*
X1263993Y1635651D01*
X1263956Y1635680D01*
X1263894Y1635701D01*
X1263835Y1635732D01*
X1263781Y1635740D01*
X1263744Y1635752D01*
X1263704Y1635751D01*
X1263650Y1635759D01*
X1261110Y1635759D01*
X1261045Y1635748D01*
X1260979Y1635746D01*
X1260936Y1635728D01*
X1260889Y1635720D01*
X1260832Y1635686D01*
X1260772Y1635661D01*
X1260737Y1635630D01*
X1260696Y1635605D01*
X1260655Y1635554D01*
X1260606Y1635510D01*
X1260584Y1635468D01*
X1260555Y1635431D01*
X1260534Y1635369D01*
X1260503Y1635310D01*
X1260495Y1635256D01*
X1260483Y1635219D01*
X1260483Y1635215D01*
X1260483Y1635214D01*
X1260484Y1635179D01*
X1260476Y1635125D01*
X1260476Y1631315D01*
X1260487Y1631250D01*
X1260489Y1631184D01*
X1260507Y1631141D01*
X1260515Y1631094D01*
X1260549Y1631037D01*
X1260574Y1630977D01*
X1260605Y1630942D01*
X1260630Y1630901D01*
X1260681Y1630860D01*
X1260725Y1630811D01*
X1260767Y1630789D01*
X1260804Y1630760D01*
X1260866Y1630739D01*
X1260925Y1630708D01*
X1260979Y1630700D01*
X1261016Y1630688D01*
X1261056Y1630689D01*
X1261110Y1630681D01*
X1263650Y1630681D01*
X1263715Y1630692D01*
G37*
G36*
X1992695Y1630692D02*
X1992695Y1630692D01*
X1992761Y1630694D01*
X1992804Y1630712D01*
X1992851Y1630720D01*
X1992908Y1630754D01*
X1992968Y1630779D01*
X1993003Y1630810D01*
X1993044Y1630835D01*
X1993086Y1630886D01*
X1993134Y1630930D01*
X1993156Y1630972D01*
X1993185Y1631009D01*
X1993206Y1631071D01*
X1993237Y1631130D01*
X1993245Y1631184D01*
X1993257Y1631221D01*
X1993256Y1631261D01*
X1993264Y1631315D01*
X1993264Y1635125D01*
X1993253Y1635190D01*
X1993251Y1635256D01*
X1993233Y1635299D01*
X1993225Y1635346D01*
X1993191Y1635403D01*
X1993166Y1635463D01*
X1993135Y1635498D01*
X1993110Y1635539D01*
X1993059Y1635581D01*
X1993015Y1635629D01*
X1992973Y1635651D01*
X1992936Y1635680D01*
X1992874Y1635701D01*
X1992815Y1635732D01*
X1992761Y1635740D01*
X1992724Y1635752D01*
X1992684Y1635751D01*
X1992630Y1635759D01*
X1990090Y1635759D01*
X1990025Y1635748D01*
X1989959Y1635746D01*
X1989916Y1635728D01*
X1989869Y1635720D01*
X1989812Y1635686D01*
X1989752Y1635661D01*
X1989717Y1635630D01*
X1989676Y1635605D01*
X1989635Y1635554D01*
X1989586Y1635510D01*
X1989564Y1635468D01*
X1989535Y1635431D01*
X1989514Y1635369D01*
X1989483Y1635310D01*
X1989475Y1635256D01*
X1989463Y1635219D01*
X1989463Y1635215D01*
X1989463Y1635214D01*
X1989464Y1635179D01*
X1989456Y1635125D01*
X1989456Y1631315D01*
X1989467Y1631250D01*
X1989469Y1631184D01*
X1989487Y1631141D01*
X1989495Y1631094D01*
X1989529Y1631037D01*
X1989554Y1630977D01*
X1989585Y1630942D01*
X1989610Y1630901D01*
X1989661Y1630860D01*
X1989705Y1630811D01*
X1989747Y1630789D01*
X1989784Y1630760D01*
X1989846Y1630739D01*
X1989905Y1630708D01*
X1989959Y1630700D01*
X1989996Y1630688D01*
X1990036Y1630689D01*
X1990090Y1630681D01*
X1992630Y1630681D01*
X1992695Y1630692D01*
G37*
G36*
X2018095Y1630692D02*
X2018095Y1630692D01*
X2018161Y1630694D01*
X2018204Y1630712D01*
X2018251Y1630720D01*
X2018308Y1630754D01*
X2018368Y1630779D01*
X2018403Y1630810D01*
X2018444Y1630835D01*
X2018486Y1630886D01*
X2018534Y1630930D01*
X2018556Y1630972D01*
X2018585Y1631009D01*
X2018606Y1631071D01*
X2018637Y1631130D01*
X2018645Y1631184D01*
X2018657Y1631221D01*
X2018656Y1631261D01*
X2018664Y1631315D01*
X2018664Y1635125D01*
X2018653Y1635190D01*
X2018651Y1635256D01*
X2018633Y1635299D01*
X2018625Y1635346D01*
X2018591Y1635403D01*
X2018566Y1635463D01*
X2018535Y1635498D01*
X2018510Y1635539D01*
X2018459Y1635581D01*
X2018415Y1635629D01*
X2018373Y1635651D01*
X2018336Y1635680D01*
X2018274Y1635701D01*
X2018215Y1635732D01*
X2018161Y1635740D01*
X2018124Y1635752D01*
X2018084Y1635751D01*
X2018030Y1635759D01*
X2015490Y1635759D01*
X2015425Y1635748D01*
X2015359Y1635746D01*
X2015316Y1635728D01*
X2015269Y1635720D01*
X2015212Y1635686D01*
X2015152Y1635661D01*
X2015117Y1635630D01*
X2015076Y1635605D01*
X2015035Y1635554D01*
X2014986Y1635510D01*
X2014964Y1635468D01*
X2014935Y1635431D01*
X2014914Y1635369D01*
X2014883Y1635310D01*
X2014875Y1635256D01*
X2014863Y1635219D01*
X2014863Y1635215D01*
X2014863Y1635214D01*
X2014864Y1635179D01*
X2014856Y1635125D01*
X2014856Y1631315D01*
X2014867Y1631250D01*
X2014869Y1631184D01*
X2014887Y1631141D01*
X2014895Y1631094D01*
X2014929Y1631037D01*
X2014954Y1630977D01*
X2014985Y1630942D01*
X2015010Y1630901D01*
X2015061Y1630860D01*
X2015105Y1630811D01*
X2015147Y1630789D01*
X2015184Y1630760D01*
X2015246Y1630739D01*
X2015305Y1630708D01*
X2015359Y1630700D01*
X2015396Y1630688D01*
X2015436Y1630689D01*
X2015490Y1630681D01*
X2018030Y1630681D01*
X2018095Y1630692D01*
G37*
G36*
X534735Y1630692D02*
X534735Y1630692D01*
X534801Y1630694D01*
X534844Y1630712D01*
X534891Y1630720D01*
X534948Y1630754D01*
X535008Y1630779D01*
X535043Y1630810D01*
X535084Y1630835D01*
X535126Y1630886D01*
X535174Y1630930D01*
X535196Y1630972D01*
X535225Y1631009D01*
X535246Y1631071D01*
X535277Y1631130D01*
X535285Y1631184D01*
X535297Y1631221D01*
X535296Y1631261D01*
X535304Y1631315D01*
X535304Y1635125D01*
X535293Y1635190D01*
X535291Y1635256D01*
X535273Y1635299D01*
X535265Y1635346D01*
X535231Y1635403D01*
X535206Y1635463D01*
X535175Y1635498D01*
X535150Y1635539D01*
X535099Y1635581D01*
X535055Y1635629D01*
X535013Y1635651D01*
X534976Y1635680D01*
X534914Y1635701D01*
X534855Y1635732D01*
X534801Y1635740D01*
X534764Y1635752D01*
X534724Y1635751D01*
X534670Y1635759D01*
X532130Y1635759D01*
X532065Y1635748D01*
X531999Y1635746D01*
X531956Y1635728D01*
X531909Y1635720D01*
X531852Y1635686D01*
X531792Y1635661D01*
X531757Y1635630D01*
X531716Y1635605D01*
X531675Y1635554D01*
X531626Y1635510D01*
X531604Y1635468D01*
X531575Y1635431D01*
X531554Y1635369D01*
X531523Y1635310D01*
X531515Y1635256D01*
X531503Y1635219D01*
X531503Y1635215D01*
X531503Y1635214D01*
X531504Y1635179D01*
X531496Y1635125D01*
X531496Y1631315D01*
X531507Y1631250D01*
X531509Y1631184D01*
X531527Y1631141D01*
X531535Y1631094D01*
X531569Y1631037D01*
X531594Y1630977D01*
X531625Y1630942D01*
X531650Y1630901D01*
X531701Y1630860D01*
X531745Y1630811D01*
X531787Y1630789D01*
X531824Y1630760D01*
X531886Y1630739D01*
X531945Y1630708D01*
X531999Y1630700D01*
X532036Y1630688D01*
X532076Y1630689D01*
X532130Y1630681D01*
X534670Y1630681D01*
X534735Y1630692D01*
G37*
G36*
X560135Y1630692D02*
X560135Y1630692D01*
X560201Y1630694D01*
X560244Y1630712D01*
X560291Y1630720D01*
X560348Y1630754D01*
X560408Y1630779D01*
X560443Y1630810D01*
X560484Y1630835D01*
X560526Y1630886D01*
X560574Y1630930D01*
X560596Y1630972D01*
X560625Y1631009D01*
X560646Y1631071D01*
X560677Y1631130D01*
X560685Y1631184D01*
X560697Y1631221D01*
X560696Y1631261D01*
X560704Y1631315D01*
X560704Y1635125D01*
X560693Y1635190D01*
X560691Y1635256D01*
X560673Y1635299D01*
X560665Y1635346D01*
X560631Y1635403D01*
X560606Y1635463D01*
X560575Y1635498D01*
X560550Y1635539D01*
X560499Y1635581D01*
X560455Y1635629D01*
X560413Y1635651D01*
X560376Y1635680D01*
X560314Y1635701D01*
X560255Y1635732D01*
X560201Y1635740D01*
X560164Y1635752D01*
X560124Y1635751D01*
X560070Y1635759D01*
X557530Y1635759D01*
X557465Y1635748D01*
X557399Y1635746D01*
X557356Y1635728D01*
X557309Y1635720D01*
X557252Y1635686D01*
X557192Y1635661D01*
X557157Y1635630D01*
X557116Y1635605D01*
X557075Y1635554D01*
X557026Y1635510D01*
X557004Y1635468D01*
X556975Y1635431D01*
X556954Y1635369D01*
X556923Y1635310D01*
X556915Y1635256D01*
X556903Y1635219D01*
X556903Y1635215D01*
X556903Y1635214D01*
X556904Y1635179D01*
X556896Y1635125D01*
X556896Y1631315D01*
X556907Y1631250D01*
X556909Y1631184D01*
X556927Y1631141D01*
X556935Y1631094D01*
X556969Y1631037D01*
X556994Y1630977D01*
X557025Y1630942D01*
X557050Y1630901D01*
X557101Y1630860D01*
X557145Y1630811D01*
X557187Y1630789D01*
X557224Y1630760D01*
X557286Y1630739D01*
X557345Y1630708D01*
X557399Y1630700D01*
X557436Y1630688D01*
X557476Y1630689D01*
X557530Y1630681D01*
X560070Y1630681D01*
X560135Y1630692D01*
G37*
G36*
X1289115Y1630692D02*
X1289115Y1630692D01*
X1289181Y1630694D01*
X1289224Y1630712D01*
X1289271Y1630720D01*
X1289328Y1630754D01*
X1289388Y1630779D01*
X1289423Y1630810D01*
X1289464Y1630835D01*
X1289506Y1630886D01*
X1289554Y1630930D01*
X1289576Y1630972D01*
X1289605Y1631009D01*
X1289626Y1631071D01*
X1289657Y1631130D01*
X1289665Y1631184D01*
X1289677Y1631221D01*
X1289676Y1631261D01*
X1289684Y1631315D01*
X1289684Y1635125D01*
X1289673Y1635190D01*
X1289671Y1635256D01*
X1289653Y1635299D01*
X1289645Y1635346D01*
X1289611Y1635403D01*
X1289586Y1635463D01*
X1289555Y1635498D01*
X1289530Y1635539D01*
X1289479Y1635581D01*
X1289435Y1635629D01*
X1289393Y1635651D01*
X1289356Y1635680D01*
X1289294Y1635701D01*
X1289235Y1635732D01*
X1289181Y1635740D01*
X1289144Y1635752D01*
X1289104Y1635751D01*
X1289050Y1635759D01*
X1286510Y1635759D01*
X1286445Y1635748D01*
X1286379Y1635746D01*
X1286336Y1635728D01*
X1286289Y1635720D01*
X1286232Y1635686D01*
X1286172Y1635661D01*
X1286137Y1635630D01*
X1286096Y1635605D01*
X1286055Y1635554D01*
X1286006Y1635510D01*
X1285984Y1635468D01*
X1285955Y1635431D01*
X1285934Y1635369D01*
X1285903Y1635310D01*
X1285895Y1635256D01*
X1285883Y1635219D01*
X1285883Y1635215D01*
X1285883Y1635214D01*
X1285884Y1635179D01*
X1285876Y1635125D01*
X1285876Y1631315D01*
X1285887Y1631250D01*
X1285889Y1631184D01*
X1285907Y1631141D01*
X1285915Y1631094D01*
X1285949Y1631037D01*
X1285974Y1630977D01*
X1286005Y1630942D01*
X1286030Y1630901D01*
X1286081Y1630860D01*
X1286125Y1630811D01*
X1286167Y1630789D01*
X1286204Y1630760D01*
X1286266Y1630739D01*
X1286325Y1630708D01*
X1286379Y1630700D01*
X1286416Y1630688D01*
X1286456Y1630689D01*
X1286510Y1630681D01*
X1289050Y1630681D01*
X1289115Y1630692D01*
G37*
G36*
X610935Y1629422D02*
X610935Y1629422D01*
X611001Y1629424D01*
X611044Y1629442D01*
X611091Y1629450D01*
X611148Y1629484D01*
X611208Y1629509D01*
X611243Y1629540D01*
X611284Y1629565D01*
X611326Y1629616D01*
X611374Y1629660D01*
X611396Y1629702D01*
X611425Y1629739D01*
X611446Y1629801D01*
X611477Y1629860D01*
X611485Y1629914D01*
X611497Y1629951D01*
X611496Y1629991D01*
X611504Y1630045D01*
X611504Y1633855D01*
X611493Y1633920D01*
X611491Y1633986D01*
X611473Y1634029D01*
X611465Y1634076D01*
X611431Y1634133D01*
X611406Y1634193D01*
X611375Y1634228D01*
X611350Y1634269D01*
X611299Y1634311D01*
X611255Y1634359D01*
X611213Y1634381D01*
X611176Y1634410D01*
X611114Y1634431D01*
X611055Y1634462D01*
X611001Y1634470D01*
X610964Y1634482D01*
X610924Y1634481D01*
X610870Y1634489D01*
X608330Y1634489D01*
X608265Y1634478D01*
X608199Y1634476D01*
X608156Y1634458D01*
X608109Y1634450D01*
X608052Y1634416D01*
X607992Y1634391D01*
X607957Y1634360D01*
X607916Y1634335D01*
X607875Y1634284D01*
X607826Y1634240D01*
X607804Y1634198D01*
X607775Y1634161D01*
X607754Y1634099D01*
X607723Y1634040D01*
X607715Y1633986D01*
X607703Y1633949D01*
X607703Y1633945D01*
X607703Y1633944D01*
X607704Y1633909D01*
X607696Y1633855D01*
X607696Y1630045D01*
X607707Y1629980D01*
X607709Y1629914D01*
X607727Y1629871D01*
X607735Y1629824D01*
X607769Y1629767D01*
X607794Y1629707D01*
X607825Y1629672D01*
X607850Y1629631D01*
X607901Y1629590D01*
X607945Y1629541D01*
X607987Y1629519D01*
X608024Y1629490D01*
X608086Y1629469D01*
X608145Y1629438D01*
X608199Y1629430D01*
X608236Y1629418D01*
X608276Y1629419D01*
X608330Y1629411D01*
X610870Y1629411D01*
X610935Y1629422D01*
G37*
G36*
X1339915Y1629422D02*
X1339915Y1629422D01*
X1339981Y1629424D01*
X1340024Y1629442D01*
X1340071Y1629450D01*
X1340128Y1629484D01*
X1340188Y1629509D01*
X1340223Y1629540D01*
X1340264Y1629565D01*
X1340306Y1629616D01*
X1340354Y1629660D01*
X1340376Y1629702D01*
X1340405Y1629739D01*
X1340426Y1629801D01*
X1340457Y1629860D01*
X1340465Y1629914D01*
X1340477Y1629951D01*
X1340476Y1629991D01*
X1340484Y1630045D01*
X1340484Y1633855D01*
X1340473Y1633920D01*
X1340471Y1633986D01*
X1340453Y1634029D01*
X1340445Y1634076D01*
X1340411Y1634133D01*
X1340386Y1634193D01*
X1340355Y1634228D01*
X1340330Y1634269D01*
X1340279Y1634311D01*
X1340235Y1634359D01*
X1340193Y1634381D01*
X1340156Y1634410D01*
X1340094Y1634431D01*
X1340035Y1634462D01*
X1339981Y1634470D01*
X1339944Y1634482D01*
X1339904Y1634481D01*
X1339850Y1634489D01*
X1337310Y1634489D01*
X1337245Y1634478D01*
X1337179Y1634476D01*
X1337136Y1634458D01*
X1337089Y1634450D01*
X1337032Y1634416D01*
X1336972Y1634391D01*
X1336937Y1634360D01*
X1336896Y1634335D01*
X1336855Y1634284D01*
X1336806Y1634240D01*
X1336784Y1634198D01*
X1336755Y1634161D01*
X1336734Y1634099D01*
X1336703Y1634040D01*
X1336695Y1633986D01*
X1336683Y1633949D01*
X1336683Y1633945D01*
X1336683Y1633944D01*
X1336684Y1633909D01*
X1336676Y1633855D01*
X1336676Y1630045D01*
X1336687Y1629980D01*
X1336689Y1629914D01*
X1336707Y1629871D01*
X1336715Y1629824D01*
X1336749Y1629767D01*
X1336774Y1629707D01*
X1336805Y1629672D01*
X1336830Y1629631D01*
X1336881Y1629590D01*
X1336925Y1629541D01*
X1336967Y1629519D01*
X1337004Y1629490D01*
X1337066Y1629469D01*
X1337125Y1629438D01*
X1337179Y1629430D01*
X1337216Y1629418D01*
X1337256Y1629419D01*
X1337310Y1629411D01*
X1339850Y1629411D01*
X1339915Y1629422D01*
G37*
G36*
X2068895Y1629422D02*
X2068895Y1629422D01*
X2068961Y1629424D01*
X2069004Y1629442D01*
X2069051Y1629450D01*
X2069108Y1629484D01*
X2069168Y1629509D01*
X2069203Y1629540D01*
X2069244Y1629565D01*
X2069286Y1629616D01*
X2069334Y1629660D01*
X2069356Y1629702D01*
X2069385Y1629739D01*
X2069406Y1629801D01*
X2069437Y1629860D01*
X2069445Y1629914D01*
X2069457Y1629951D01*
X2069456Y1629991D01*
X2069464Y1630045D01*
X2069464Y1633855D01*
X2069453Y1633920D01*
X2069451Y1633986D01*
X2069433Y1634029D01*
X2069425Y1634076D01*
X2069391Y1634133D01*
X2069366Y1634193D01*
X2069335Y1634228D01*
X2069310Y1634269D01*
X2069259Y1634311D01*
X2069215Y1634359D01*
X2069173Y1634381D01*
X2069136Y1634410D01*
X2069074Y1634431D01*
X2069015Y1634462D01*
X2068961Y1634470D01*
X2068924Y1634482D01*
X2068884Y1634481D01*
X2068830Y1634489D01*
X2066290Y1634489D01*
X2066225Y1634478D01*
X2066159Y1634476D01*
X2066116Y1634458D01*
X2066069Y1634450D01*
X2066012Y1634416D01*
X2065952Y1634391D01*
X2065917Y1634360D01*
X2065876Y1634335D01*
X2065835Y1634284D01*
X2065786Y1634240D01*
X2065764Y1634198D01*
X2065735Y1634161D01*
X2065714Y1634099D01*
X2065683Y1634040D01*
X2065675Y1633986D01*
X2065663Y1633949D01*
X2065663Y1633945D01*
X2065663Y1633944D01*
X2065664Y1633909D01*
X2065656Y1633855D01*
X2065656Y1630045D01*
X2065667Y1629980D01*
X2065669Y1629914D01*
X2065687Y1629871D01*
X2065695Y1629824D01*
X2065729Y1629767D01*
X2065754Y1629707D01*
X2065785Y1629672D01*
X2065810Y1629631D01*
X2065861Y1629590D01*
X2065905Y1629541D01*
X2065947Y1629519D01*
X2065984Y1629490D01*
X2066046Y1629469D01*
X2066105Y1629438D01*
X2066159Y1629430D01*
X2066196Y1629418D01*
X2066236Y1629419D01*
X2066290Y1629411D01*
X2068830Y1629411D01*
X2068895Y1629422D01*
G37*
G36*
X610935Y1619262D02*
X610935Y1619262D01*
X611001Y1619264D01*
X611044Y1619282D01*
X611091Y1619290D01*
X611148Y1619324D01*
X611208Y1619349D01*
X611243Y1619380D01*
X611284Y1619405D01*
X611326Y1619456D01*
X611374Y1619500D01*
X611396Y1619542D01*
X611425Y1619579D01*
X611446Y1619641D01*
X611477Y1619700D01*
X611485Y1619754D01*
X611497Y1619791D01*
X611496Y1619831D01*
X611504Y1619885D01*
X611504Y1623695D01*
X611493Y1623760D01*
X611491Y1623826D01*
X611473Y1623869D01*
X611465Y1623916D01*
X611431Y1623973D01*
X611406Y1624033D01*
X611375Y1624068D01*
X611350Y1624109D01*
X611299Y1624151D01*
X611255Y1624199D01*
X611213Y1624221D01*
X611176Y1624250D01*
X611114Y1624271D01*
X611055Y1624302D01*
X611001Y1624310D01*
X610964Y1624322D01*
X610924Y1624321D01*
X610870Y1624329D01*
X608330Y1624329D01*
X608265Y1624318D01*
X608199Y1624316D01*
X608156Y1624298D01*
X608109Y1624290D01*
X608052Y1624256D01*
X607992Y1624231D01*
X607957Y1624200D01*
X607916Y1624175D01*
X607875Y1624124D01*
X607826Y1624080D01*
X607804Y1624038D01*
X607775Y1624001D01*
X607754Y1623939D01*
X607723Y1623880D01*
X607715Y1623826D01*
X607703Y1623789D01*
X607703Y1623785D01*
X607703Y1623784D01*
X607704Y1623749D01*
X607696Y1623695D01*
X607696Y1619885D01*
X607707Y1619820D01*
X607709Y1619754D01*
X607727Y1619711D01*
X607735Y1619664D01*
X607769Y1619607D01*
X607794Y1619547D01*
X607825Y1619512D01*
X607850Y1619471D01*
X607901Y1619430D01*
X607945Y1619381D01*
X607987Y1619359D01*
X608024Y1619330D01*
X608086Y1619309D01*
X608145Y1619278D01*
X608199Y1619270D01*
X608236Y1619258D01*
X608276Y1619259D01*
X608330Y1619251D01*
X610870Y1619251D01*
X610935Y1619262D01*
G37*
G36*
X1339915Y1619262D02*
X1339915Y1619262D01*
X1339981Y1619264D01*
X1340024Y1619282D01*
X1340071Y1619290D01*
X1340128Y1619324D01*
X1340188Y1619349D01*
X1340223Y1619380D01*
X1340264Y1619405D01*
X1340306Y1619456D01*
X1340354Y1619500D01*
X1340376Y1619542D01*
X1340405Y1619579D01*
X1340426Y1619641D01*
X1340457Y1619700D01*
X1340465Y1619754D01*
X1340477Y1619791D01*
X1340476Y1619831D01*
X1340484Y1619885D01*
X1340484Y1623695D01*
X1340473Y1623760D01*
X1340471Y1623826D01*
X1340453Y1623869D01*
X1340445Y1623916D01*
X1340411Y1623973D01*
X1340386Y1624033D01*
X1340355Y1624068D01*
X1340330Y1624109D01*
X1340279Y1624151D01*
X1340235Y1624199D01*
X1340193Y1624221D01*
X1340156Y1624250D01*
X1340094Y1624271D01*
X1340035Y1624302D01*
X1339981Y1624310D01*
X1339944Y1624322D01*
X1339904Y1624321D01*
X1339850Y1624329D01*
X1337310Y1624329D01*
X1337245Y1624318D01*
X1337179Y1624316D01*
X1337136Y1624298D01*
X1337089Y1624290D01*
X1337032Y1624256D01*
X1336972Y1624231D01*
X1336937Y1624200D01*
X1336896Y1624175D01*
X1336855Y1624124D01*
X1336806Y1624080D01*
X1336784Y1624038D01*
X1336755Y1624001D01*
X1336734Y1623939D01*
X1336703Y1623880D01*
X1336695Y1623826D01*
X1336683Y1623789D01*
X1336683Y1623785D01*
X1336683Y1623784D01*
X1336684Y1623749D01*
X1336676Y1623695D01*
X1336676Y1619885D01*
X1336687Y1619820D01*
X1336689Y1619754D01*
X1336707Y1619711D01*
X1336715Y1619664D01*
X1336749Y1619607D01*
X1336774Y1619547D01*
X1336805Y1619512D01*
X1336830Y1619471D01*
X1336881Y1619430D01*
X1336925Y1619381D01*
X1336967Y1619359D01*
X1337004Y1619330D01*
X1337066Y1619309D01*
X1337125Y1619278D01*
X1337179Y1619270D01*
X1337216Y1619258D01*
X1337256Y1619259D01*
X1337310Y1619251D01*
X1339850Y1619251D01*
X1339915Y1619262D01*
G37*
G36*
X2068895Y1619262D02*
X2068895Y1619262D01*
X2068961Y1619264D01*
X2069004Y1619282D01*
X2069051Y1619290D01*
X2069108Y1619324D01*
X2069168Y1619349D01*
X2069203Y1619380D01*
X2069244Y1619405D01*
X2069286Y1619456D01*
X2069334Y1619500D01*
X2069356Y1619542D01*
X2069385Y1619579D01*
X2069406Y1619641D01*
X2069437Y1619700D01*
X2069445Y1619754D01*
X2069457Y1619791D01*
X2069456Y1619831D01*
X2069464Y1619885D01*
X2069464Y1623695D01*
X2069453Y1623760D01*
X2069451Y1623826D01*
X2069433Y1623869D01*
X2069425Y1623916D01*
X2069391Y1623973D01*
X2069366Y1624033D01*
X2069335Y1624068D01*
X2069310Y1624109D01*
X2069259Y1624151D01*
X2069215Y1624199D01*
X2069173Y1624221D01*
X2069136Y1624250D01*
X2069074Y1624271D01*
X2069015Y1624302D01*
X2068961Y1624310D01*
X2068924Y1624322D01*
X2068884Y1624321D01*
X2068830Y1624329D01*
X2066290Y1624329D01*
X2066225Y1624318D01*
X2066159Y1624316D01*
X2066116Y1624298D01*
X2066069Y1624290D01*
X2066012Y1624256D01*
X2065952Y1624231D01*
X2065917Y1624200D01*
X2065876Y1624175D01*
X2065835Y1624124D01*
X2065786Y1624080D01*
X2065764Y1624038D01*
X2065735Y1624001D01*
X2065714Y1623939D01*
X2065683Y1623880D01*
X2065675Y1623826D01*
X2065663Y1623789D01*
X2065663Y1623785D01*
X2065663Y1623784D01*
X2065664Y1623749D01*
X2065656Y1623695D01*
X2065656Y1619885D01*
X2065667Y1619820D01*
X2065669Y1619754D01*
X2065687Y1619711D01*
X2065695Y1619664D01*
X2065729Y1619607D01*
X2065754Y1619547D01*
X2065785Y1619512D01*
X2065810Y1619471D01*
X2065861Y1619430D01*
X2065905Y1619381D01*
X2065947Y1619359D01*
X2065984Y1619330D01*
X2066046Y1619309D01*
X2066105Y1619278D01*
X2066159Y1619270D01*
X2066196Y1619258D01*
X2066236Y1619259D01*
X2066290Y1619251D01*
X2068830Y1619251D01*
X2068895Y1619262D01*
G37*
G36*
X952565Y1595132D02*
X952565Y1595132D01*
X952631Y1595134D01*
X952674Y1595152D01*
X952721Y1595160D01*
X952778Y1595194D01*
X952838Y1595219D01*
X952873Y1595250D01*
X952914Y1595275D01*
X952956Y1595326D01*
X953004Y1595370D01*
X953026Y1595412D01*
X953055Y1595449D01*
X953076Y1595511D01*
X953107Y1595570D01*
X953115Y1595624D01*
X953127Y1595661D01*
X953126Y1595701D01*
X953134Y1595755D01*
X953134Y1599565D01*
X953123Y1599630D01*
X953121Y1599696D01*
X953103Y1599739D01*
X953095Y1599786D01*
X953061Y1599843D01*
X953036Y1599903D01*
X953005Y1599938D01*
X952980Y1599979D01*
X952929Y1600021D01*
X952885Y1600069D01*
X952843Y1600091D01*
X952806Y1600120D01*
X952744Y1600141D01*
X952685Y1600172D01*
X952631Y1600180D01*
X952594Y1600192D01*
X952554Y1600191D01*
X952500Y1600199D01*
X949960Y1600199D01*
X949895Y1600188D01*
X949829Y1600186D01*
X949786Y1600168D01*
X949739Y1600160D01*
X949682Y1600126D01*
X949622Y1600101D01*
X949587Y1600070D01*
X949546Y1600045D01*
X949505Y1599994D01*
X949456Y1599950D01*
X949434Y1599908D01*
X949405Y1599871D01*
X949384Y1599809D01*
X949353Y1599750D01*
X949345Y1599696D01*
X949333Y1599659D01*
X949333Y1599655D01*
X949333Y1599654D01*
X949334Y1599619D01*
X949326Y1599565D01*
X949326Y1595755D01*
X949337Y1595690D01*
X949339Y1595624D01*
X949357Y1595581D01*
X949365Y1595534D01*
X949399Y1595477D01*
X949424Y1595417D01*
X949455Y1595382D01*
X949480Y1595341D01*
X949531Y1595300D01*
X949575Y1595251D01*
X949617Y1595229D01*
X949654Y1595200D01*
X949716Y1595179D01*
X949775Y1595148D01*
X949829Y1595140D01*
X949866Y1595128D01*
X949906Y1595129D01*
X949960Y1595121D01*
X952500Y1595121D01*
X952565Y1595132D01*
G37*
G36*
X223585Y1595132D02*
X223585Y1595132D01*
X223651Y1595134D01*
X223694Y1595152D01*
X223741Y1595160D01*
X223798Y1595194D01*
X223858Y1595219D01*
X223893Y1595250D01*
X223934Y1595275D01*
X223976Y1595326D01*
X224024Y1595370D01*
X224046Y1595412D01*
X224075Y1595449D01*
X224096Y1595511D01*
X224127Y1595570D01*
X224135Y1595624D01*
X224147Y1595661D01*
X224146Y1595701D01*
X224154Y1595755D01*
X224154Y1599565D01*
X224143Y1599630D01*
X224141Y1599696D01*
X224123Y1599739D01*
X224115Y1599786D01*
X224081Y1599843D01*
X224056Y1599903D01*
X224025Y1599938D01*
X224000Y1599979D01*
X223949Y1600021D01*
X223905Y1600069D01*
X223863Y1600091D01*
X223826Y1600120D01*
X223764Y1600141D01*
X223705Y1600172D01*
X223651Y1600180D01*
X223614Y1600192D01*
X223574Y1600191D01*
X223520Y1600199D01*
X220980Y1600199D01*
X220915Y1600188D01*
X220849Y1600186D01*
X220806Y1600168D01*
X220759Y1600160D01*
X220702Y1600126D01*
X220642Y1600101D01*
X220607Y1600070D01*
X220566Y1600045D01*
X220525Y1599994D01*
X220476Y1599950D01*
X220454Y1599908D01*
X220425Y1599871D01*
X220404Y1599809D01*
X220373Y1599750D01*
X220365Y1599696D01*
X220353Y1599659D01*
X220353Y1599655D01*
X220353Y1599654D01*
X220354Y1599619D01*
X220346Y1599565D01*
X220346Y1595755D01*
X220357Y1595690D01*
X220359Y1595624D01*
X220377Y1595581D01*
X220385Y1595534D01*
X220419Y1595477D01*
X220444Y1595417D01*
X220475Y1595382D01*
X220500Y1595341D01*
X220551Y1595300D01*
X220595Y1595251D01*
X220637Y1595229D01*
X220674Y1595200D01*
X220736Y1595179D01*
X220795Y1595148D01*
X220849Y1595140D01*
X220886Y1595128D01*
X220926Y1595129D01*
X220980Y1595121D01*
X223520Y1595121D01*
X223585Y1595132D01*
G37*
G36*
X1681545Y1595132D02*
X1681545Y1595132D01*
X1681611Y1595134D01*
X1681654Y1595152D01*
X1681701Y1595160D01*
X1681758Y1595194D01*
X1681818Y1595219D01*
X1681853Y1595250D01*
X1681894Y1595275D01*
X1681936Y1595326D01*
X1681984Y1595370D01*
X1682006Y1595412D01*
X1682035Y1595449D01*
X1682056Y1595511D01*
X1682087Y1595570D01*
X1682095Y1595624D01*
X1682107Y1595661D01*
X1682106Y1595701D01*
X1682114Y1595755D01*
X1682114Y1599565D01*
X1682103Y1599630D01*
X1682101Y1599696D01*
X1682083Y1599739D01*
X1682075Y1599786D01*
X1682041Y1599843D01*
X1682016Y1599903D01*
X1681985Y1599938D01*
X1681960Y1599979D01*
X1681909Y1600021D01*
X1681865Y1600069D01*
X1681823Y1600091D01*
X1681786Y1600120D01*
X1681724Y1600141D01*
X1681665Y1600172D01*
X1681611Y1600180D01*
X1681574Y1600192D01*
X1681534Y1600191D01*
X1681480Y1600199D01*
X1678940Y1600199D01*
X1678875Y1600188D01*
X1678809Y1600186D01*
X1678766Y1600168D01*
X1678719Y1600160D01*
X1678662Y1600126D01*
X1678602Y1600101D01*
X1678567Y1600070D01*
X1678526Y1600045D01*
X1678485Y1599994D01*
X1678436Y1599950D01*
X1678414Y1599908D01*
X1678385Y1599871D01*
X1678364Y1599809D01*
X1678333Y1599750D01*
X1678325Y1599696D01*
X1678313Y1599659D01*
X1678313Y1599655D01*
X1678313Y1599654D01*
X1678314Y1599619D01*
X1678306Y1599565D01*
X1678306Y1595755D01*
X1678317Y1595690D01*
X1678319Y1595624D01*
X1678337Y1595581D01*
X1678345Y1595534D01*
X1678379Y1595477D01*
X1678404Y1595417D01*
X1678435Y1595382D01*
X1678460Y1595341D01*
X1678511Y1595300D01*
X1678555Y1595251D01*
X1678597Y1595229D01*
X1678634Y1595200D01*
X1678696Y1595179D01*
X1678755Y1595148D01*
X1678809Y1595140D01*
X1678846Y1595128D01*
X1678886Y1595129D01*
X1678940Y1595121D01*
X1681480Y1595121D01*
X1681545Y1595132D01*
G37*
G36*
X560135Y1041412D02*
X560135Y1041412D01*
X560201Y1041414D01*
X560244Y1041432D01*
X560291Y1041440D01*
X560348Y1041474D01*
X560408Y1041499D01*
X560443Y1041530D01*
X560484Y1041555D01*
X560526Y1041606D01*
X560574Y1041650D01*
X560596Y1041692D01*
X560625Y1041729D01*
X560646Y1041791D01*
X560677Y1041850D01*
X560685Y1041904D01*
X560697Y1041941D01*
X560696Y1041981D01*
X560704Y1042035D01*
X560704Y1045845D01*
X560693Y1045910D01*
X560691Y1045976D01*
X560673Y1046019D01*
X560665Y1046066D01*
X560631Y1046123D01*
X560606Y1046183D01*
X560575Y1046218D01*
X560550Y1046259D01*
X560499Y1046301D01*
X560455Y1046349D01*
X560413Y1046371D01*
X560376Y1046400D01*
X560314Y1046421D01*
X560255Y1046452D01*
X560201Y1046460D01*
X560164Y1046472D01*
X560124Y1046471D01*
X560070Y1046479D01*
X557530Y1046479D01*
X557465Y1046468D01*
X557399Y1046466D01*
X557356Y1046448D01*
X557309Y1046440D01*
X557252Y1046406D01*
X557192Y1046381D01*
X557157Y1046350D01*
X557116Y1046325D01*
X557075Y1046274D01*
X557026Y1046230D01*
X557004Y1046188D01*
X556975Y1046151D01*
X556954Y1046089D01*
X556923Y1046030D01*
X556915Y1045976D01*
X556903Y1045939D01*
X556903Y1045935D01*
X556903Y1045934D01*
X556904Y1045899D01*
X556896Y1045845D01*
X556896Y1042035D01*
X556907Y1041970D01*
X556909Y1041904D01*
X556927Y1041861D01*
X556935Y1041814D01*
X556969Y1041757D01*
X556994Y1041697D01*
X557025Y1041662D01*
X557050Y1041621D01*
X557101Y1041580D01*
X557145Y1041531D01*
X557187Y1041509D01*
X557224Y1041480D01*
X557286Y1041459D01*
X557345Y1041428D01*
X557399Y1041420D01*
X557436Y1041408D01*
X557476Y1041409D01*
X557530Y1041401D01*
X560070Y1041401D01*
X560135Y1041412D01*
G37*
G36*
X534735Y1041412D02*
X534735Y1041412D01*
X534801Y1041414D01*
X534844Y1041432D01*
X534891Y1041440D01*
X534948Y1041474D01*
X535008Y1041499D01*
X535043Y1041530D01*
X535084Y1041555D01*
X535126Y1041606D01*
X535174Y1041650D01*
X535196Y1041692D01*
X535225Y1041729D01*
X535246Y1041791D01*
X535277Y1041850D01*
X535285Y1041904D01*
X535297Y1041941D01*
X535296Y1041981D01*
X535304Y1042035D01*
X535304Y1045845D01*
X535293Y1045910D01*
X535291Y1045976D01*
X535273Y1046019D01*
X535265Y1046066D01*
X535231Y1046123D01*
X535206Y1046183D01*
X535175Y1046218D01*
X535150Y1046259D01*
X535099Y1046301D01*
X535055Y1046349D01*
X535013Y1046371D01*
X534976Y1046400D01*
X534914Y1046421D01*
X534855Y1046452D01*
X534801Y1046460D01*
X534764Y1046472D01*
X534724Y1046471D01*
X534670Y1046479D01*
X532130Y1046479D01*
X532065Y1046468D01*
X531999Y1046466D01*
X531956Y1046448D01*
X531909Y1046440D01*
X531852Y1046406D01*
X531792Y1046381D01*
X531757Y1046350D01*
X531716Y1046325D01*
X531675Y1046274D01*
X531626Y1046230D01*
X531604Y1046188D01*
X531575Y1046151D01*
X531554Y1046089D01*
X531523Y1046030D01*
X531515Y1045976D01*
X531503Y1045939D01*
X531503Y1045935D01*
X531503Y1045934D01*
X531504Y1045899D01*
X531496Y1045845D01*
X531496Y1042035D01*
X531507Y1041970D01*
X531509Y1041904D01*
X531527Y1041861D01*
X531535Y1041814D01*
X531569Y1041757D01*
X531594Y1041697D01*
X531625Y1041662D01*
X531650Y1041621D01*
X531701Y1041580D01*
X531745Y1041531D01*
X531787Y1041509D01*
X531824Y1041480D01*
X531886Y1041459D01*
X531945Y1041428D01*
X531999Y1041420D01*
X532036Y1041408D01*
X532076Y1041409D01*
X532130Y1041401D01*
X534670Y1041401D01*
X534735Y1041412D01*
G37*
G36*
X1289115Y1041412D02*
X1289115Y1041412D01*
X1289181Y1041414D01*
X1289224Y1041432D01*
X1289271Y1041440D01*
X1289328Y1041474D01*
X1289388Y1041499D01*
X1289423Y1041530D01*
X1289464Y1041555D01*
X1289506Y1041606D01*
X1289554Y1041650D01*
X1289576Y1041692D01*
X1289605Y1041729D01*
X1289626Y1041791D01*
X1289657Y1041850D01*
X1289665Y1041904D01*
X1289677Y1041941D01*
X1289676Y1041981D01*
X1289684Y1042035D01*
X1289684Y1045845D01*
X1289673Y1045910D01*
X1289671Y1045976D01*
X1289653Y1046019D01*
X1289645Y1046066D01*
X1289611Y1046123D01*
X1289586Y1046183D01*
X1289555Y1046218D01*
X1289530Y1046259D01*
X1289479Y1046301D01*
X1289435Y1046349D01*
X1289393Y1046371D01*
X1289356Y1046400D01*
X1289294Y1046421D01*
X1289235Y1046452D01*
X1289181Y1046460D01*
X1289144Y1046472D01*
X1289104Y1046471D01*
X1289050Y1046479D01*
X1286510Y1046479D01*
X1286445Y1046468D01*
X1286379Y1046466D01*
X1286336Y1046448D01*
X1286289Y1046440D01*
X1286232Y1046406D01*
X1286172Y1046381D01*
X1286137Y1046350D01*
X1286096Y1046325D01*
X1286055Y1046274D01*
X1286006Y1046230D01*
X1285984Y1046188D01*
X1285955Y1046151D01*
X1285934Y1046089D01*
X1285903Y1046030D01*
X1285895Y1045976D01*
X1285883Y1045939D01*
X1285883Y1045935D01*
X1285883Y1045934D01*
X1285884Y1045899D01*
X1285876Y1045845D01*
X1285876Y1042035D01*
X1285887Y1041970D01*
X1285889Y1041904D01*
X1285907Y1041861D01*
X1285915Y1041814D01*
X1285949Y1041757D01*
X1285974Y1041697D01*
X1286005Y1041662D01*
X1286030Y1041621D01*
X1286081Y1041580D01*
X1286125Y1041531D01*
X1286167Y1041509D01*
X1286204Y1041480D01*
X1286266Y1041459D01*
X1286325Y1041428D01*
X1286379Y1041420D01*
X1286416Y1041408D01*
X1286456Y1041409D01*
X1286510Y1041401D01*
X1289050Y1041401D01*
X1289115Y1041412D01*
G37*
G36*
X1263715Y1041412D02*
X1263715Y1041412D01*
X1263781Y1041414D01*
X1263824Y1041432D01*
X1263871Y1041440D01*
X1263928Y1041474D01*
X1263988Y1041499D01*
X1264023Y1041530D01*
X1264064Y1041555D01*
X1264106Y1041606D01*
X1264154Y1041650D01*
X1264176Y1041692D01*
X1264205Y1041729D01*
X1264226Y1041791D01*
X1264257Y1041850D01*
X1264265Y1041904D01*
X1264277Y1041941D01*
X1264276Y1041981D01*
X1264284Y1042035D01*
X1264284Y1045845D01*
X1264273Y1045910D01*
X1264271Y1045976D01*
X1264253Y1046019D01*
X1264245Y1046066D01*
X1264211Y1046123D01*
X1264186Y1046183D01*
X1264155Y1046218D01*
X1264130Y1046259D01*
X1264079Y1046301D01*
X1264035Y1046349D01*
X1263993Y1046371D01*
X1263956Y1046400D01*
X1263894Y1046421D01*
X1263835Y1046452D01*
X1263781Y1046460D01*
X1263744Y1046472D01*
X1263704Y1046471D01*
X1263650Y1046479D01*
X1261110Y1046479D01*
X1261045Y1046468D01*
X1260979Y1046466D01*
X1260936Y1046448D01*
X1260889Y1046440D01*
X1260832Y1046406D01*
X1260772Y1046381D01*
X1260737Y1046350D01*
X1260696Y1046325D01*
X1260655Y1046274D01*
X1260606Y1046230D01*
X1260584Y1046188D01*
X1260555Y1046151D01*
X1260534Y1046089D01*
X1260503Y1046030D01*
X1260495Y1045976D01*
X1260483Y1045939D01*
X1260483Y1045935D01*
X1260483Y1045934D01*
X1260484Y1045899D01*
X1260476Y1045845D01*
X1260476Y1042035D01*
X1260487Y1041970D01*
X1260489Y1041904D01*
X1260507Y1041861D01*
X1260515Y1041814D01*
X1260549Y1041757D01*
X1260574Y1041697D01*
X1260605Y1041662D01*
X1260630Y1041621D01*
X1260681Y1041580D01*
X1260725Y1041531D01*
X1260767Y1041509D01*
X1260804Y1041480D01*
X1260866Y1041459D01*
X1260925Y1041428D01*
X1260979Y1041420D01*
X1261016Y1041408D01*
X1261056Y1041409D01*
X1261110Y1041401D01*
X1263650Y1041401D01*
X1263715Y1041412D01*
G37*
G36*
X1992695Y1041412D02*
X1992695Y1041412D01*
X1992761Y1041414D01*
X1992804Y1041432D01*
X1992851Y1041440D01*
X1992908Y1041474D01*
X1992968Y1041499D01*
X1993003Y1041530D01*
X1993044Y1041555D01*
X1993086Y1041606D01*
X1993134Y1041650D01*
X1993156Y1041692D01*
X1993185Y1041729D01*
X1993206Y1041791D01*
X1993237Y1041850D01*
X1993245Y1041904D01*
X1993257Y1041941D01*
X1993256Y1041981D01*
X1993264Y1042035D01*
X1993264Y1045845D01*
X1993253Y1045910D01*
X1993251Y1045976D01*
X1993233Y1046019D01*
X1993225Y1046066D01*
X1993191Y1046123D01*
X1993166Y1046183D01*
X1993135Y1046218D01*
X1993110Y1046259D01*
X1993059Y1046301D01*
X1993015Y1046349D01*
X1992973Y1046371D01*
X1992936Y1046400D01*
X1992874Y1046421D01*
X1992815Y1046452D01*
X1992761Y1046460D01*
X1992724Y1046472D01*
X1992684Y1046471D01*
X1992630Y1046479D01*
X1990090Y1046479D01*
X1990025Y1046468D01*
X1989959Y1046466D01*
X1989916Y1046448D01*
X1989869Y1046440D01*
X1989812Y1046406D01*
X1989752Y1046381D01*
X1989717Y1046350D01*
X1989676Y1046325D01*
X1989635Y1046274D01*
X1989586Y1046230D01*
X1989564Y1046188D01*
X1989535Y1046151D01*
X1989514Y1046089D01*
X1989483Y1046030D01*
X1989475Y1045976D01*
X1989463Y1045939D01*
X1989463Y1045935D01*
X1989463Y1045934D01*
X1989464Y1045899D01*
X1989456Y1045845D01*
X1989456Y1042035D01*
X1989467Y1041970D01*
X1989469Y1041904D01*
X1989487Y1041861D01*
X1989495Y1041814D01*
X1989529Y1041757D01*
X1989554Y1041697D01*
X1989585Y1041662D01*
X1989610Y1041621D01*
X1989661Y1041580D01*
X1989705Y1041531D01*
X1989747Y1041509D01*
X1989784Y1041480D01*
X1989846Y1041459D01*
X1989905Y1041428D01*
X1989959Y1041420D01*
X1989996Y1041408D01*
X1990036Y1041409D01*
X1990090Y1041401D01*
X1992630Y1041401D01*
X1992695Y1041412D01*
G37*
G36*
X2018095Y1041412D02*
X2018095Y1041412D01*
X2018161Y1041414D01*
X2018204Y1041432D01*
X2018251Y1041440D01*
X2018308Y1041474D01*
X2018368Y1041499D01*
X2018403Y1041530D01*
X2018444Y1041555D01*
X2018486Y1041606D01*
X2018534Y1041650D01*
X2018556Y1041692D01*
X2018585Y1041729D01*
X2018606Y1041791D01*
X2018637Y1041850D01*
X2018645Y1041904D01*
X2018657Y1041941D01*
X2018656Y1041981D01*
X2018664Y1042035D01*
X2018664Y1045845D01*
X2018653Y1045910D01*
X2018651Y1045976D01*
X2018633Y1046019D01*
X2018625Y1046066D01*
X2018591Y1046123D01*
X2018566Y1046183D01*
X2018535Y1046218D01*
X2018510Y1046259D01*
X2018459Y1046301D01*
X2018415Y1046349D01*
X2018373Y1046371D01*
X2018336Y1046400D01*
X2018274Y1046421D01*
X2018215Y1046452D01*
X2018161Y1046460D01*
X2018124Y1046472D01*
X2018084Y1046471D01*
X2018030Y1046479D01*
X2015490Y1046479D01*
X2015425Y1046468D01*
X2015359Y1046466D01*
X2015316Y1046448D01*
X2015269Y1046440D01*
X2015212Y1046406D01*
X2015152Y1046381D01*
X2015117Y1046350D01*
X2015076Y1046325D01*
X2015035Y1046274D01*
X2014986Y1046230D01*
X2014964Y1046188D01*
X2014935Y1046151D01*
X2014914Y1046089D01*
X2014883Y1046030D01*
X2014875Y1045976D01*
X2014863Y1045939D01*
X2014863Y1045935D01*
X2014863Y1045934D01*
X2014864Y1045899D01*
X2014856Y1045845D01*
X2014856Y1042035D01*
X2014867Y1041970D01*
X2014869Y1041904D01*
X2014887Y1041861D01*
X2014895Y1041814D01*
X2014929Y1041757D01*
X2014954Y1041697D01*
X2014985Y1041662D01*
X2015010Y1041621D01*
X2015061Y1041580D01*
X2015105Y1041531D01*
X2015147Y1041509D01*
X2015184Y1041480D01*
X2015246Y1041459D01*
X2015305Y1041428D01*
X2015359Y1041420D01*
X2015396Y1041408D01*
X2015436Y1041409D01*
X2015490Y1041401D01*
X2018030Y1041401D01*
X2018095Y1041412D01*
G37*
G36*
X2068895Y1040142D02*
X2068895Y1040142D01*
X2068961Y1040144D01*
X2069004Y1040162D01*
X2069051Y1040170D01*
X2069108Y1040204D01*
X2069168Y1040229D01*
X2069203Y1040260D01*
X2069244Y1040285D01*
X2069286Y1040336D01*
X2069334Y1040380D01*
X2069356Y1040422D01*
X2069385Y1040459D01*
X2069406Y1040521D01*
X2069437Y1040580D01*
X2069445Y1040634D01*
X2069457Y1040671D01*
X2069456Y1040711D01*
X2069464Y1040765D01*
X2069464Y1044575D01*
X2069453Y1044640D01*
X2069451Y1044706D01*
X2069433Y1044749D01*
X2069425Y1044796D01*
X2069391Y1044853D01*
X2069366Y1044913D01*
X2069335Y1044948D01*
X2069310Y1044989D01*
X2069259Y1045031D01*
X2069215Y1045079D01*
X2069173Y1045101D01*
X2069136Y1045130D01*
X2069074Y1045151D01*
X2069015Y1045182D01*
X2068961Y1045190D01*
X2068924Y1045202D01*
X2068884Y1045201D01*
X2068830Y1045209D01*
X2066290Y1045209D01*
X2066225Y1045198D01*
X2066159Y1045196D01*
X2066116Y1045178D01*
X2066069Y1045170D01*
X2066012Y1045136D01*
X2065952Y1045111D01*
X2065917Y1045080D01*
X2065876Y1045055D01*
X2065835Y1045004D01*
X2065786Y1044960D01*
X2065764Y1044918D01*
X2065735Y1044881D01*
X2065714Y1044819D01*
X2065683Y1044760D01*
X2065675Y1044706D01*
X2065663Y1044669D01*
X2065663Y1044665D01*
X2065663Y1044664D01*
X2065664Y1044629D01*
X2065656Y1044575D01*
X2065656Y1040765D01*
X2065667Y1040700D01*
X2065669Y1040634D01*
X2065687Y1040591D01*
X2065695Y1040544D01*
X2065729Y1040487D01*
X2065754Y1040427D01*
X2065785Y1040392D01*
X2065810Y1040351D01*
X2065861Y1040310D01*
X2065905Y1040261D01*
X2065947Y1040239D01*
X2065984Y1040210D01*
X2066046Y1040189D01*
X2066105Y1040158D01*
X2066159Y1040150D01*
X2066196Y1040138D01*
X2066236Y1040139D01*
X2066290Y1040131D01*
X2068830Y1040131D01*
X2068895Y1040142D01*
G37*
G36*
X610935Y1040142D02*
X610935Y1040142D01*
X611001Y1040144D01*
X611044Y1040162D01*
X611091Y1040170D01*
X611148Y1040204D01*
X611208Y1040229D01*
X611243Y1040260D01*
X611284Y1040285D01*
X611326Y1040336D01*
X611374Y1040380D01*
X611396Y1040422D01*
X611425Y1040459D01*
X611446Y1040521D01*
X611477Y1040580D01*
X611485Y1040634D01*
X611497Y1040671D01*
X611496Y1040711D01*
X611504Y1040765D01*
X611504Y1044575D01*
X611493Y1044640D01*
X611491Y1044706D01*
X611473Y1044749D01*
X611465Y1044796D01*
X611431Y1044853D01*
X611406Y1044913D01*
X611375Y1044948D01*
X611350Y1044989D01*
X611299Y1045031D01*
X611255Y1045079D01*
X611213Y1045101D01*
X611176Y1045130D01*
X611114Y1045151D01*
X611055Y1045182D01*
X611001Y1045190D01*
X610964Y1045202D01*
X610924Y1045201D01*
X610870Y1045209D01*
X608330Y1045209D01*
X608265Y1045198D01*
X608199Y1045196D01*
X608156Y1045178D01*
X608109Y1045170D01*
X608052Y1045136D01*
X607992Y1045111D01*
X607957Y1045080D01*
X607916Y1045055D01*
X607875Y1045004D01*
X607826Y1044960D01*
X607804Y1044918D01*
X607775Y1044881D01*
X607754Y1044819D01*
X607723Y1044760D01*
X607715Y1044706D01*
X607703Y1044669D01*
X607703Y1044665D01*
X607703Y1044664D01*
X607704Y1044629D01*
X607696Y1044575D01*
X607696Y1040765D01*
X607707Y1040700D01*
X607709Y1040634D01*
X607727Y1040591D01*
X607735Y1040544D01*
X607769Y1040487D01*
X607794Y1040427D01*
X607825Y1040392D01*
X607850Y1040351D01*
X607901Y1040310D01*
X607945Y1040261D01*
X607987Y1040239D01*
X608024Y1040210D01*
X608086Y1040189D01*
X608145Y1040158D01*
X608199Y1040150D01*
X608236Y1040138D01*
X608276Y1040139D01*
X608330Y1040131D01*
X610870Y1040131D01*
X610935Y1040142D01*
G37*
G36*
X1339915Y1040142D02*
X1339915Y1040142D01*
X1339981Y1040144D01*
X1340024Y1040162D01*
X1340071Y1040170D01*
X1340128Y1040204D01*
X1340188Y1040229D01*
X1340223Y1040260D01*
X1340264Y1040285D01*
X1340306Y1040336D01*
X1340354Y1040380D01*
X1340376Y1040422D01*
X1340405Y1040459D01*
X1340426Y1040521D01*
X1340457Y1040580D01*
X1340465Y1040634D01*
X1340477Y1040671D01*
X1340476Y1040711D01*
X1340484Y1040765D01*
X1340484Y1044575D01*
X1340473Y1044640D01*
X1340471Y1044706D01*
X1340453Y1044749D01*
X1340445Y1044796D01*
X1340411Y1044853D01*
X1340386Y1044913D01*
X1340355Y1044948D01*
X1340330Y1044989D01*
X1340279Y1045031D01*
X1340235Y1045079D01*
X1340193Y1045101D01*
X1340156Y1045130D01*
X1340094Y1045151D01*
X1340035Y1045182D01*
X1339981Y1045190D01*
X1339944Y1045202D01*
X1339904Y1045201D01*
X1339850Y1045209D01*
X1337310Y1045209D01*
X1337245Y1045198D01*
X1337179Y1045196D01*
X1337136Y1045178D01*
X1337089Y1045170D01*
X1337032Y1045136D01*
X1336972Y1045111D01*
X1336937Y1045080D01*
X1336896Y1045055D01*
X1336855Y1045004D01*
X1336806Y1044960D01*
X1336784Y1044918D01*
X1336755Y1044881D01*
X1336734Y1044819D01*
X1336703Y1044760D01*
X1336695Y1044706D01*
X1336683Y1044669D01*
X1336683Y1044665D01*
X1336683Y1044664D01*
X1336684Y1044629D01*
X1336676Y1044575D01*
X1336676Y1040765D01*
X1336687Y1040700D01*
X1336689Y1040634D01*
X1336707Y1040591D01*
X1336715Y1040544D01*
X1336749Y1040487D01*
X1336774Y1040427D01*
X1336805Y1040392D01*
X1336830Y1040351D01*
X1336881Y1040310D01*
X1336925Y1040261D01*
X1336967Y1040239D01*
X1337004Y1040210D01*
X1337066Y1040189D01*
X1337125Y1040158D01*
X1337179Y1040150D01*
X1337216Y1040138D01*
X1337256Y1040139D01*
X1337310Y1040131D01*
X1339850Y1040131D01*
X1339915Y1040142D01*
G37*
G36*
X610935Y1029982D02*
X610935Y1029982D01*
X611001Y1029984D01*
X611044Y1030002D01*
X611091Y1030010D01*
X611148Y1030044D01*
X611208Y1030069D01*
X611243Y1030100D01*
X611284Y1030125D01*
X611326Y1030176D01*
X611374Y1030220D01*
X611396Y1030262D01*
X611425Y1030299D01*
X611446Y1030361D01*
X611477Y1030420D01*
X611485Y1030474D01*
X611497Y1030511D01*
X611496Y1030551D01*
X611504Y1030605D01*
X611504Y1034415D01*
X611493Y1034480D01*
X611491Y1034546D01*
X611473Y1034589D01*
X611465Y1034636D01*
X611431Y1034693D01*
X611406Y1034753D01*
X611375Y1034788D01*
X611350Y1034829D01*
X611299Y1034871D01*
X611255Y1034919D01*
X611213Y1034941D01*
X611176Y1034970D01*
X611114Y1034991D01*
X611055Y1035022D01*
X611001Y1035030D01*
X610964Y1035042D01*
X610924Y1035041D01*
X610870Y1035049D01*
X608330Y1035049D01*
X608265Y1035038D01*
X608199Y1035036D01*
X608156Y1035018D01*
X608109Y1035010D01*
X608052Y1034976D01*
X607992Y1034951D01*
X607957Y1034920D01*
X607916Y1034895D01*
X607875Y1034844D01*
X607826Y1034800D01*
X607804Y1034758D01*
X607775Y1034721D01*
X607754Y1034659D01*
X607723Y1034600D01*
X607715Y1034546D01*
X607703Y1034509D01*
X607703Y1034505D01*
X607703Y1034504D01*
X607704Y1034469D01*
X607696Y1034415D01*
X607696Y1030605D01*
X607707Y1030540D01*
X607709Y1030474D01*
X607727Y1030431D01*
X607735Y1030384D01*
X607769Y1030327D01*
X607794Y1030267D01*
X607825Y1030232D01*
X607850Y1030191D01*
X607901Y1030150D01*
X607945Y1030101D01*
X607987Y1030079D01*
X608024Y1030050D01*
X608086Y1030029D01*
X608145Y1029998D01*
X608199Y1029990D01*
X608236Y1029978D01*
X608276Y1029979D01*
X608330Y1029971D01*
X610870Y1029971D01*
X610935Y1029982D01*
G37*
G36*
X1339915Y1029982D02*
X1339915Y1029982D01*
X1339981Y1029984D01*
X1340024Y1030002D01*
X1340071Y1030010D01*
X1340128Y1030044D01*
X1340188Y1030069D01*
X1340223Y1030100D01*
X1340264Y1030125D01*
X1340306Y1030176D01*
X1340354Y1030220D01*
X1340376Y1030262D01*
X1340405Y1030299D01*
X1340426Y1030361D01*
X1340457Y1030420D01*
X1340465Y1030474D01*
X1340477Y1030511D01*
X1340476Y1030551D01*
X1340484Y1030605D01*
X1340484Y1034415D01*
X1340473Y1034480D01*
X1340471Y1034546D01*
X1340453Y1034589D01*
X1340445Y1034636D01*
X1340411Y1034693D01*
X1340386Y1034753D01*
X1340355Y1034788D01*
X1340330Y1034829D01*
X1340279Y1034871D01*
X1340235Y1034919D01*
X1340193Y1034941D01*
X1340156Y1034970D01*
X1340094Y1034991D01*
X1340035Y1035022D01*
X1339981Y1035030D01*
X1339944Y1035042D01*
X1339904Y1035041D01*
X1339850Y1035049D01*
X1337310Y1035049D01*
X1337245Y1035038D01*
X1337179Y1035036D01*
X1337136Y1035018D01*
X1337089Y1035010D01*
X1337032Y1034976D01*
X1336972Y1034951D01*
X1336937Y1034920D01*
X1336896Y1034895D01*
X1336855Y1034844D01*
X1336806Y1034800D01*
X1336784Y1034758D01*
X1336755Y1034721D01*
X1336734Y1034659D01*
X1336703Y1034600D01*
X1336695Y1034546D01*
X1336683Y1034509D01*
X1336683Y1034505D01*
X1336683Y1034504D01*
X1336684Y1034469D01*
X1336676Y1034415D01*
X1336676Y1030605D01*
X1336687Y1030540D01*
X1336689Y1030474D01*
X1336707Y1030431D01*
X1336715Y1030384D01*
X1336749Y1030327D01*
X1336774Y1030267D01*
X1336805Y1030232D01*
X1336830Y1030191D01*
X1336881Y1030150D01*
X1336925Y1030101D01*
X1336967Y1030079D01*
X1337004Y1030050D01*
X1337066Y1030029D01*
X1337125Y1029998D01*
X1337179Y1029990D01*
X1337216Y1029978D01*
X1337256Y1029979D01*
X1337310Y1029971D01*
X1339850Y1029971D01*
X1339915Y1029982D01*
G37*
G36*
X2068895Y1029982D02*
X2068895Y1029982D01*
X2068961Y1029984D01*
X2069004Y1030002D01*
X2069051Y1030010D01*
X2069108Y1030044D01*
X2069168Y1030069D01*
X2069203Y1030100D01*
X2069244Y1030125D01*
X2069286Y1030176D01*
X2069334Y1030220D01*
X2069356Y1030262D01*
X2069385Y1030299D01*
X2069406Y1030361D01*
X2069437Y1030420D01*
X2069445Y1030474D01*
X2069457Y1030511D01*
X2069456Y1030551D01*
X2069464Y1030605D01*
X2069464Y1034415D01*
X2069453Y1034480D01*
X2069451Y1034546D01*
X2069433Y1034589D01*
X2069425Y1034636D01*
X2069391Y1034693D01*
X2069366Y1034753D01*
X2069335Y1034788D01*
X2069310Y1034829D01*
X2069259Y1034871D01*
X2069215Y1034919D01*
X2069173Y1034941D01*
X2069136Y1034970D01*
X2069074Y1034991D01*
X2069015Y1035022D01*
X2068961Y1035030D01*
X2068924Y1035042D01*
X2068884Y1035041D01*
X2068830Y1035049D01*
X2066290Y1035049D01*
X2066225Y1035038D01*
X2066159Y1035036D01*
X2066116Y1035018D01*
X2066069Y1035010D01*
X2066012Y1034976D01*
X2065952Y1034951D01*
X2065917Y1034920D01*
X2065876Y1034895D01*
X2065835Y1034844D01*
X2065786Y1034800D01*
X2065764Y1034758D01*
X2065735Y1034721D01*
X2065714Y1034659D01*
X2065683Y1034600D01*
X2065675Y1034546D01*
X2065663Y1034509D01*
X2065663Y1034505D01*
X2065663Y1034504D01*
X2065664Y1034469D01*
X2065656Y1034415D01*
X2065656Y1030605D01*
X2065667Y1030540D01*
X2065669Y1030474D01*
X2065687Y1030431D01*
X2065695Y1030384D01*
X2065729Y1030327D01*
X2065754Y1030267D01*
X2065785Y1030232D01*
X2065810Y1030191D01*
X2065861Y1030150D01*
X2065905Y1030101D01*
X2065947Y1030079D01*
X2065984Y1030050D01*
X2066046Y1030029D01*
X2066105Y1029998D01*
X2066159Y1029990D01*
X2066196Y1029978D01*
X2066236Y1029979D01*
X2066290Y1029971D01*
X2068830Y1029971D01*
X2068895Y1029982D01*
G37*
G36*
X223585Y1005852D02*
X223585Y1005852D01*
X223651Y1005854D01*
X223694Y1005872D01*
X223741Y1005880D01*
X223798Y1005914D01*
X223858Y1005939D01*
X223893Y1005970D01*
X223934Y1005995D01*
X223976Y1006046D01*
X224024Y1006090D01*
X224046Y1006132D01*
X224075Y1006169D01*
X224096Y1006231D01*
X224127Y1006290D01*
X224135Y1006344D01*
X224147Y1006381D01*
X224146Y1006421D01*
X224154Y1006475D01*
X224154Y1010285D01*
X224143Y1010350D01*
X224141Y1010416D01*
X224123Y1010459D01*
X224115Y1010506D01*
X224081Y1010563D01*
X224056Y1010623D01*
X224025Y1010658D01*
X224000Y1010699D01*
X223949Y1010741D01*
X223905Y1010789D01*
X223863Y1010811D01*
X223826Y1010840D01*
X223764Y1010861D01*
X223705Y1010892D01*
X223651Y1010900D01*
X223614Y1010912D01*
X223574Y1010911D01*
X223520Y1010919D01*
X220980Y1010919D01*
X220915Y1010908D01*
X220849Y1010906D01*
X220806Y1010888D01*
X220759Y1010880D01*
X220702Y1010846D01*
X220642Y1010821D01*
X220607Y1010790D01*
X220566Y1010765D01*
X220525Y1010714D01*
X220476Y1010670D01*
X220454Y1010628D01*
X220425Y1010591D01*
X220404Y1010529D01*
X220373Y1010470D01*
X220365Y1010416D01*
X220353Y1010379D01*
X220353Y1010375D01*
X220353Y1010374D01*
X220354Y1010339D01*
X220346Y1010285D01*
X220346Y1006475D01*
X220357Y1006410D01*
X220359Y1006344D01*
X220377Y1006301D01*
X220385Y1006254D01*
X220419Y1006197D01*
X220444Y1006137D01*
X220475Y1006102D01*
X220500Y1006061D01*
X220551Y1006020D01*
X220595Y1005971D01*
X220637Y1005949D01*
X220674Y1005920D01*
X220736Y1005899D01*
X220795Y1005868D01*
X220849Y1005860D01*
X220886Y1005848D01*
X220926Y1005849D01*
X220980Y1005841D01*
X223520Y1005841D01*
X223585Y1005852D01*
G37*
G36*
X1681545Y1005852D02*
X1681545Y1005852D01*
X1681611Y1005854D01*
X1681654Y1005872D01*
X1681701Y1005880D01*
X1681758Y1005914D01*
X1681818Y1005939D01*
X1681853Y1005970D01*
X1681894Y1005995D01*
X1681936Y1006046D01*
X1681984Y1006090D01*
X1682006Y1006132D01*
X1682035Y1006169D01*
X1682056Y1006231D01*
X1682087Y1006290D01*
X1682095Y1006344D01*
X1682107Y1006381D01*
X1682106Y1006421D01*
X1682114Y1006475D01*
X1682114Y1010285D01*
X1682103Y1010350D01*
X1682101Y1010416D01*
X1682083Y1010459D01*
X1682075Y1010506D01*
X1682041Y1010563D01*
X1682016Y1010623D01*
X1681985Y1010658D01*
X1681960Y1010699D01*
X1681909Y1010741D01*
X1681865Y1010789D01*
X1681823Y1010811D01*
X1681786Y1010840D01*
X1681724Y1010861D01*
X1681665Y1010892D01*
X1681611Y1010900D01*
X1681574Y1010912D01*
X1681534Y1010911D01*
X1681480Y1010919D01*
X1678940Y1010919D01*
X1678875Y1010908D01*
X1678809Y1010906D01*
X1678766Y1010888D01*
X1678719Y1010880D01*
X1678662Y1010846D01*
X1678602Y1010821D01*
X1678567Y1010790D01*
X1678526Y1010765D01*
X1678485Y1010714D01*
X1678436Y1010670D01*
X1678414Y1010628D01*
X1678385Y1010591D01*
X1678364Y1010529D01*
X1678333Y1010470D01*
X1678325Y1010416D01*
X1678313Y1010379D01*
X1678313Y1010375D01*
X1678313Y1010374D01*
X1678314Y1010339D01*
X1678306Y1010285D01*
X1678306Y1006475D01*
X1678317Y1006410D01*
X1678319Y1006344D01*
X1678337Y1006301D01*
X1678345Y1006254D01*
X1678379Y1006197D01*
X1678404Y1006137D01*
X1678435Y1006102D01*
X1678460Y1006061D01*
X1678511Y1006020D01*
X1678555Y1005971D01*
X1678597Y1005949D01*
X1678634Y1005920D01*
X1678696Y1005899D01*
X1678755Y1005868D01*
X1678809Y1005860D01*
X1678846Y1005848D01*
X1678886Y1005849D01*
X1678940Y1005841D01*
X1681480Y1005841D01*
X1681545Y1005852D01*
G37*
G36*
X952565Y1005852D02*
X952565Y1005852D01*
X952631Y1005854D01*
X952674Y1005872D01*
X952721Y1005880D01*
X952778Y1005914D01*
X952838Y1005939D01*
X952873Y1005970D01*
X952914Y1005995D01*
X952956Y1006046D01*
X953004Y1006090D01*
X953026Y1006132D01*
X953055Y1006169D01*
X953076Y1006231D01*
X953107Y1006290D01*
X953115Y1006344D01*
X953127Y1006381D01*
X953126Y1006421D01*
X953134Y1006475D01*
X953134Y1010285D01*
X953123Y1010350D01*
X953121Y1010416D01*
X953103Y1010459D01*
X953095Y1010506D01*
X953061Y1010563D01*
X953036Y1010623D01*
X953005Y1010658D01*
X952980Y1010699D01*
X952929Y1010741D01*
X952885Y1010789D01*
X952843Y1010811D01*
X952806Y1010840D01*
X952744Y1010861D01*
X952685Y1010892D01*
X952631Y1010900D01*
X952594Y1010912D01*
X952554Y1010911D01*
X952500Y1010919D01*
X949960Y1010919D01*
X949895Y1010908D01*
X949829Y1010906D01*
X949786Y1010888D01*
X949739Y1010880D01*
X949682Y1010846D01*
X949622Y1010821D01*
X949587Y1010790D01*
X949546Y1010765D01*
X949505Y1010714D01*
X949456Y1010670D01*
X949434Y1010628D01*
X949405Y1010591D01*
X949384Y1010529D01*
X949353Y1010470D01*
X949345Y1010416D01*
X949333Y1010379D01*
X949333Y1010375D01*
X949333Y1010374D01*
X949334Y1010339D01*
X949326Y1010285D01*
X949326Y1006475D01*
X949337Y1006410D01*
X949339Y1006344D01*
X949357Y1006301D01*
X949365Y1006254D01*
X949399Y1006197D01*
X949424Y1006137D01*
X949455Y1006102D01*
X949480Y1006061D01*
X949531Y1006020D01*
X949575Y1005971D01*
X949617Y1005949D01*
X949654Y1005920D01*
X949716Y1005899D01*
X949775Y1005868D01*
X949829Y1005860D01*
X949866Y1005848D01*
X949906Y1005849D01*
X949960Y1005841D01*
X952500Y1005841D01*
X952565Y1005852D01*
G37*
G36*
X1992695Y2219972D02*
X1992695Y2219972D01*
X1992761Y2219974D01*
X1992804Y2219992D01*
X1992851Y2220000D01*
X1992908Y2220034D01*
X1992968Y2220059D01*
X1993003Y2220090D01*
X1993044Y2220115D01*
X1993086Y2220166D01*
X1993134Y2220210D01*
X1993156Y2220252D01*
X1993185Y2220289D01*
X1993206Y2220351D01*
X1993237Y2220410D01*
X1993245Y2220464D01*
X1993257Y2220501D01*
X1993256Y2220541D01*
X1993264Y2220595D01*
X1993264Y2224405D01*
X1993253Y2224470D01*
X1993251Y2224536D01*
X1993233Y2224579D01*
X1993225Y2224626D01*
X1993191Y2224683D01*
X1993166Y2224743D01*
X1993135Y2224778D01*
X1993110Y2224819D01*
X1993059Y2224861D01*
X1993015Y2224909D01*
X1992973Y2224931D01*
X1992936Y2224960D01*
X1992874Y2224981D01*
X1992815Y2225012D01*
X1992761Y2225020D01*
X1992724Y2225032D01*
X1992684Y2225031D01*
X1992630Y2225039D01*
X1990090Y2225039D01*
X1990025Y2225028D01*
X1989959Y2225026D01*
X1989916Y2225008D01*
X1989869Y2225000D01*
X1989812Y2224966D01*
X1989752Y2224941D01*
X1989717Y2224910D01*
X1989676Y2224885D01*
X1989635Y2224834D01*
X1989586Y2224790D01*
X1989564Y2224748D01*
X1989535Y2224711D01*
X1989514Y2224649D01*
X1989483Y2224590D01*
X1989475Y2224536D01*
X1989463Y2224499D01*
X1989463Y2224495D01*
X1989463Y2224494D01*
X1989464Y2224459D01*
X1989456Y2224405D01*
X1989456Y2220595D01*
X1989467Y2220530D01*
X1989469Y2220464D01*
X1989487Y2220421D01*
X1989495Y2220374D01*
X1989529Y2220317D01*
X1989554Y2220257D01*
X1989585Y2220222D01*
X1989610Y2220181D01*
X1989661Y2220140D01*
X1989705Y2220091D01*
X1989747Y2220069D01*
X1989784Y2220040D01*
X1989846Y2220019D01*
X1989905Y2219988D01*
X1989959Y2219980D01*
X1989996Y2219968D01*
X1990036Y2219969D01*
X1990090Y2219961D01*
X1992630Y2219961D01*
X1992695Y2219972D01*
G37*
G36*
X1263715Y2219972D02*
X1263715Y2219972D01*
X1263781Y2219974D01*
X1263824Y2219992D01*
X1263871Y2220000D01*
X1263928Y2220034D01*
X1263988Y2220059D01*
X1264023Y2220090D01*
X1264064Y2220115D01*
X1264106Y2220166D01*
X1264154Y2220210D01*
X1264176Y2220252D01*
X1264205Y2220289D01*
X1264226Y2220351D01*
X1264257Y2220410D01*
X1264265Y2220464D01*
X1264277Y2220501D01*
X1264276Y2220541D01*
X1264284Y2220595D01*
X1264284Y2224405D01*
X1264273Y2224470D01*
X1264271Y2224536D01*
X1264253Y2224579D01*
X1264245Y2224626D01*
X1264211Y2224683D01*
X1264186Y2224743D01*
X1264155Y2224778D01*
X1264130Y2224819D01*
X1264079Y2224861D01*
X1264035Y2224909D01*
X1263993Y2224931D01*
X1263956Y2224960D01*
X1263894Y2224981D01*
X1263835Y2225012D01*
X1263781Y2225020D01*
X1263744Y2225032D01*
X1263704Y2225031D01*
X1263650Y2225039D01*
X1261110Y2225039D01*
X1261045Y2225028D01*
X1260979Y2225026D01*
X1260936Y2225008D01*
X1260889Y2225000D01*
X1260832Y2224966D01*
X1260772Y2224941D01*
X1260737Y2224910D01*
X1260696Y2224885D01*
X1260655Y2224834D01*
X1260606Y2224790D01*
X1260584Y2224748D01*
X1260555Y2224711D01*
X1260534Y2224649D01*
X1260503Y2224590D01*
X1260495Y2224536D01*
X1260483Y2224499D01*
X1260483Y2224495D01*
X1260483Y2224494D01*
X1260484Y2224459D01*
X1260476Y2224405D01*
X1260476Y2220595D01*
X1260487Y2220530D01*
X1260489Y2220464D01*
X1260507Y2220421D01*
X1260515Y2220374D01*
X1260549Y2220317D01*
X1260574Y2220257D01*
X1260605Y2220222D01*
X1260630Y2220181D01*
X1260681Y2220140D01*
X1260725Y2220091D01*
X1260767Y2220069D01*
X1260804Y2220040D01*
X1260866Y2220019D01*
X1260925Y2219988D01*
X1260979Y2219980D01*
X1261016Y2219968D01*
X1261056Y2219969D01*
X1261110Y2219961D01*
X1263650Y2219961D01*
X1263715Y2219972D01*
G37*
G36*
X560135Y2219972D02*
X560135Y2219972D01*
X560201Y2219974D01*
X560244Y2219992D01*
X560291Y2220000D01*
X560348Y2220034D01*
X560408Y2220059D01*
X560443Y2220090D01*
X560484Y2220115D01*
X560526Y2220166D01*
X560574Y2220210D01*
X560596Y2220252D01*
X560625Y2220289D01*
X560646Y2220351D01*
X560677Y2220410D01*
X560685Y2220464D01*
X560697Y2220501D01*
X560696Y2220541D01*
X560704Y2220595D01*
X560704Y2224405D01*
X560693Y2224470D01*
X560691Y2224536D01*
X560673Y2224579D01*
X560665Y2224626D01*
X560631Y2224683D01*
X560606Y2224743D01*
X560575Y2224778D01*
X560550Y2224819D01*
X560499Y2224861D01*
X560455Y2224909D01*
X560413Y2224931D01*
X560376Y2224960D01*
X560314Y2224981D01*
X560255Y2225012D01*
X560201Y2225020D01*
X560164Y2225032D01*
X560124Y2225031D01*
X560070Y2225039D01*
X557530Y2225039D01*
X557465Y2225028D01*
X557399Y2225026D01*
X557356Y2225008D01*
X557309Y2225000D01*
X557252Y2224966D01*
X557192Y2224941D01*
X557157Y2224910D01*
X557116Y2224885D01*
X557075Y2224834D01*
X557026Y2224790D01*
X557004Y2224748D01*
X556975Y2224711D01*
X556954Y2224649D01*
X556923Y2224590D01*
X556915Y2224536D01*
X556903Y2224499D01*
X556903Y2224495D01*
X556903Y2224494D01*
X556904Y2224459D01*
X556896Y2224405D01*
X556896Y2220595D01*
X556907Y2220530D01*
X556909Y2220464D01*
X556927Y2220421D01*
X556935Y2220374D01*
X556969Y2220317D01*
X556994Y2220257D01*
X557025Y2220222D01*
X557050Y2220181D01*
X557101Y2220140D01*
X557145Y2220091D01*
X557187Y2220069D01*
X557224Y2220040D01*
X557286Y2220019D01*
X557345Y2219988D01*
X557399Y2219980D01*
X557436Y2219968D01*
X557476Y2219969D01*
X557530Y2219961D01*
X560070Y2219961D01*
X560135Y2219972D01*
G37*
G36*
X534735Y2219972D02*
X534735Y2219972D01*
X534801Y2219974D01*
X534844Y2219992D01*
X534891Y2220000D01*
X534948Y2220034D01*
X535008Y2220059D01*
X535043Y2220090D01*
X535084Y2220115D01*
X535126Y2220166D01*
X535174Y2220210D01*
X535196Y2220252D01*
X535225Y2220289D01*
X535246Y2220351D01*
X535277Y2220410D01*
X535285Y2220464D01*
X535297Y2220501D01*
X535296Y2220541D01*
X535304Y2220595D01*
X535304Y2224405D01*
X535293Y2224470D01*
X535291Y2224536D01*
X535273Y2224579D01*
X535265Y2224626D01*
X535231Y2224683D01*
X535206Y2224743D01*
X535175Y2224778D01*
X535150Y2224819D01*
X535099Y2224861D01*
X535055Y2224909D01*
X535013Y2224931D01*
X534976Y2224960D01*
X534914Y2224981D01*
X534855Y2225012D01*
X534801Y2225020D01*
X534764Y2225032D01*
X534724Y2225031D01*
X534670Y2225039D01*
X532130Y2225039D01*
X532065Y2225028D01*
X531999Y2225026D01*
X531956Y2225008D01*
X531909Y2225000D01*
X531852Y2224966D01*
X531792Y2224941D01*
X531757Y2224910D01*
X531716Y2224885D01*
X531675Y2224834D01*
X531626Y2224790D01*
X531604Y2224748D01*
X531575Y2224711D01*
X531554Y2224649D01*
X531523Y2224590D01*
X531515Y2224536D01*
X531503Y2224499D01*
X531503Y2224495D01*
X531503Y2224494D01*
X531504Y2224459D01*
X531496Y2224405D01*
X531496Y2220595D01*
X531507Y2220530D01*
X531509Y2220464D01*
X531527Y2220421D01*
X531535Y2220374D01*
X531569Y2220317D01*
X531594Y2220257D01*
X531625Y2220222D01*
X531650Y2220181D01*
X531701Y2220140D01*
X531745Y2220091D01*
X531787Y2220069D01*
X531824Y2220040D01*
X531886Y2220019D01*
X531945Y2219988D01*
X531999Y2219980D01*
X532036Y2219968D01*
X532076Y2219969D01*
X532130Y2219961D01*
X534670Y2219961D01*
X534735Y2219972D01*
G37*
G36*
X2018095Y2219972D02*
X2018095Y2219972D01*
X2018161Y2219974D01*
X2018204Y2219992D01*
X2018251Y2220000D01*
X2018308Y2220034D01*
X2018368Y2220059D01*
X2018403Y2220090D01*
X2018444Y2220115D01*
X2018486Y2220166D01*
X2018534Y2220210D01*
X2018556Y2220252D01*
X2018585Y2220289D01*
X2018606Y2220351D01*
X2018637Y2220410D01*
X2018645Y2220464D01*
X2018657Y2220501D01*
X2018656Y2220541D01*
X2018664Y2220595D01*
X2018664Y2224405D01*
X2018653Y2224470D01*
X2018651Y2224536D01*
X2018633Y2224579D01*
X2018625Y2224626D01*
X2018591Y2224683D01*
X2018566Y2224743D01*
X2018535Y2224778D01*
X2018510Y2224819D01*
X2018459Y2224861D01*
X2018415Y2224909D01*
X2018373Y2224931D01*
X2018336Y2224960D01*
X2018274Y2224981D01*
X2018215Y2225012D01*
X2018161Y2225020D01*
X2018124Y2225032D01*
X2018084Y2225031D01*
X2018030Y2225039D01*
X2015490Y2225039D01*
X2015425Y2225028D01*
X2015359Y2225026D01*
X2015316Y2225008D01*
X2015269Y2225000D01*
X2015212Y2224966D01*
X2015152Y2224941D01*
X2015117Y2224910D01*
X2015076Y2224885D01*
X2015035Y2224834D01*
X2014986Y2224790D01*
X2014964Y2224748D01*
X2014935Y2224711D01*
X2014914Y2224649D01*
X2014883Y2224590D01*
X2014875Y2224536D01*
X2014863Y2224499D01*
X2014863Y2224495D01*
X2014863Y2224494D01*
X2014864Y2224459D01*
X2014856Y2224405D01*
X2014856Y2220595D01*
X2014867Y2220530D01*
X2014869Y2220464D01*
X2014887Y2220421D01*
X2014895Y2220374D01*
X2014929Y2220317D01*
X2014954Y2220257D01*
X2014985Y2220222D01*
X2015010Y2220181D01*
X2015061Y2220140D01*
X2015105Y2220091D01*
X2015147Y2220069D01*
X2015184Y2220040D01*
X2015246Y2220019D01*
X2015305Y2219988D01*
X2015359Y2219980D01*
X2015396Y2219968D01*
X2015436Y2219969D01*
X2015490Y2219961D01*
X2018030Y2219961D01*
X2018095Y2219972D01*
G37*
G36*
X1289115Y2219972D02*
X1289115Y2219972D01*
X1289181Y2219974D01*
X1289224Y2219992D01*
X1289271Y2220000D01*
X1289328Y2220034D01*
X1289388Y2220059D01*
X1289423Y2220090D01*
X1289464Y2220115D01*
X1289506Y2220166D01*
X1289554Y2220210D01*
X1289576Y2220252D01*
X1289605Y2220289D01*
X1289626Y2220351D01*
X1289657Y2220410D01*
X1289665Y2220464D01*
X1289677Y2220501D01*
X1289676Y2220541D01*
X1289684Y2220595D01*
X1289684Y2224405D01*
X1289673Y2224470D01*
X1289671Y2224536D01*
X1289653Y2224579D01*
X1289645Y2224626D01*
X1289611Y2224683D01*
X1289586Y2224743D01*
X1289555Y2224778D01*
X1289530Y2224819D01*
X1289479Y2224861D01*
X1289435Y2224909D01*
X1289393Y2224931D01*
X1289356Y2224960D01*
X1289294Y2224981D01*
X1289235Y2225012D01*
X1289181Y2225020D01*
X1289144Y2225032D01*
X1289104Y2225031D01*
X1289050Y2225039D01*
X1286510Y2225039D01*
X1286445Y2225028D01*
X1286379Y2225026D01*
X1286336Y2225008D01*
X1286289Y2225000D01*
X1286232Y2224966D01*
X1286172Y2224941D01*
X1286137Y2224910D01*
X1286096Y2224885D01*
X1286055Y2224834D01*
X1286006Y2224790D01*
X1285984Y2224748D01*
X1285955Y2224711D01*
X1285934Y2224649D01*
X1285903Y2224590D01*
X1285895Y2224536D01*
X1285883Y2224499D01*
X1285883Y2224495D01*
X1285883Y2224494D01*
X1285884Y2224459D01*
X1285876Y2224405D01*
X1285876Y2220595D01*
X1285887Y2220530D01*
X1285889Y2220464D01*
X1285907Y2220421D01*
X1285915Y2220374D01*
X1285949Y2220317D01*
X1285974Y2220257D01*
X1286005Y2220222D01*
X1286030Y2220181D01*
X1286081Y2220140D01*
X1286125Y2220091D01*
X1286167Y2220069D01*
X1286204Y2220040D01*
X1286266Y2220019D01*
X1286325Y2219988D01*
X1286379Y2219980D01*
X1286416Y2219968D01*
X1286456Y2219969D01*
X1286510Y2219961D01*
X1289050Y2219961D01*
X1289115Y2219972D01*
G37*
G36*
X2068895Y450862D02*
X2068895Y450862D01*
X2068961Y450864D01*
X2069004Y450882D01*
X2069051Y450890D01*
X2069108Y450924D01*
X2069168Y450949D01*
X2069203Y450980D01*
X2069244Y451005D01*
X2069286Y451056D01*
X2069334Y451100D01*
X2069356Y451142D01*
X2069385Y451179D01*
X2069406Y451241D01*
X2069437Y451300D01*
X2069445Y451354D01*
X2069457Y451391D01*
X2069456Y451431D01*
X2069464Y451485D01*
X2069464Y455295D01*
X2069453Y455360D01*
X2069451Y455426D01*
X2069433Y455469D01*
X2069425Y455516D01*
X2069391Y455573D01*
X2069366Y455633D01*
X2069335Y455668D01*
X2069310Y455709D01*
X2069259Y455751D01*
X2069215Y455799D01*
X2069173Y455821D01*
X2069136Y455850D01*
X2069074Y455871D01*
X2069015Y455902D01*
X2068961Y455910D01*
X2068924Y455922D01*
X2068884Y455921D01*
X2068830Y455929D01*
X2066290Y455929D01*
X2066225Y455918D01*
X2066159Y455916D01*
X2066116Y455898D01*
X2066069Y455890D01*
X2066012Y455856D01*
X2065952Y455831D01*
X2065917Y455800D01*
X2065876Y455775D01*
X2065835Y455724D01*
X2065786Y455680D01*
X2065764Y455638D01*
X2065735Y455601D01*
X2065714Y455539D01*
X2065683Y455480D01*
X2065675Y455426D01*
X2065663Y455389D01*
X2065663Y455385D01*
X2065663Y455384D01*
X2065664Y455349D01*
X2065656Y455295D01*
X2065656Y451485D01*
X2065667Y451420D01*
X2065669Y451354D01*
X2065687Y451311D01*
X2065695Y451264D01*
X2065729Y451207D01*
X2065754Y451147D01*
X2065785Y451112D01*
X2065810Y451071D01*
X2065861Y451030D01*
X2065905Y450981D01*
X2065947Y450959D01*
X2065984Y450930D01*
X2066046Y450909D01*
X2066105Y450878D01*
X2066159Y450870D01*
X2066196Y450858D01*
X2066236Y450859D01*
X2066290Y450851D01*
X2068830Y450851D01*
X2068895Y450862D01*
G37*
G36*
X610935Y450862D02*
X610935Y450862D01*
X611001Y450864D01*
X611044Y450882D01*
X611091Y450890D01*
X611148Y450924D01*
X611208Y450949D01*
X611243Y450980D01*
X611284Y451005D01*
X611326Y451056D01*
X611374Y451100D01*
X611396Y451142D01*
X611425Y451179D01*
X611446Y451241D01*
X611477Y451300D01*
X611485Y451354D01*
X611497Y451391D01*
X611496Y451431D01*
X611504Y451485D01*
X611504Y455295D01*
X611493Y455360D01*
X611491Y455426D01*
X611473Y455469D01*
X611465Y455516D01*
X611431Y455573D01*
X611406Y455633D01*
X611375Y455668D01*
X611350Y455709D01*
X611299Y455751D01*
X611255Y455799D01*
X611213Y455821D01*
X611176Y455850D01*
X611114Y455871D01*
X611055Y455902D01*
X611001Y455910D01*
X610964Y455922D01*
X610924Y455921D01*
X610870Y455929D01*
X608330Y455929D01*
X608265Y455918D01*
X608199Y455916D01*
X608156Y455898D01*
X608109Y455890D01*
X608052Y455856D01*
X607992Y455831D01*
X607957Y455800D01*
X607916Y455775D01*
X607875Y455724D01*
X607826Y455680D01*
X607804Y455638D01*
X607775Y455601D01*
X607754Y455539D01*
X607723Y455480D01*
X607715Y455426D01*
X607703Y455389D01*
X607703Y455385D01*
X607703Y455384D01*
X607704Y455349D01*
X607696Y455295D01*
X607696Y451485D01*
X607707Y451420D01*
X607709Y451354D01*
X607727Y451311D01*
X607735Y451264D01*
X607769Y451207D01*
X607794Y451147D01*
X607825Y451112D01*
X607850Y451071D01*
X607901Y451030D01*
X607945Y450981D01*
X607987Y450959D01*
X608024Y450930D01*
X608086Y450909D01*
X608145Y450878D01*
X608199Y450870D01*
X608236Y450858D01*
X608276Y450859D01*
X608330Y450851D01*
X610870Y450851D01*
X610935Y450862D01*
G37*
G36*
X1339915Y450862D02*
X1339915Y450862D01*
X1339981Y450864D01*
X1340024Y450882D01*
X1340071Y450890D01*
X1340128Y450924D01*
X1340188Y450949D01*
X1340223Y450980D01*
X1340264Y451005D01*
X1340306Y451056D01*
X1340354Y451100D01*
X1340376Y451142D01*
X1340405Y451179D01*
X1340426Y451241D01*
X1340457Y451300D01*
X1340465Y451354D01*
X1340477Y451391D01*
X1340476Y451431D01*
X1340484Y451485D01*
X1340484Y455295D01*
X1340473Y455360D01*
X1340471Y455426D01*
X1340453Y455469D01*
X1340445Y455516D01*
X1340411Y455573D01*
X1340386Y455633D01*
X1340355Y455668D01*
X1340330Y455709D01*
X1340279Y455751D01*
X1340235Y455799D01*
X1340193Y455821D01*
X1340156Y455850D01*
X1340094Y455871D01*
X1340035Y455902D01*
X1339981Y455910D01*
X1339944Y455922D01*
X1339904Y455921D01*
X1339850Y455929D01*
X1337310Y455929D01*
X1337245Y455918D01*
X1337179Y455916D01*
X1337136Y455898D01*
X1337089Y455890D01*
X1337032Y455856D01*
X1336972Y455831D01*
X1336937Y455800D01*
X1336896Y455775D01*
X1336855Y455724D01*
X1336806Y455680D01*
X1336784Y455638D01*
X1336755Y455601D01*
X1336734Y455539D01*
X1336703Y455480D01*
X1336695Y455426D01*
X1336683Y455389D01*
X1336683Y455385D01*
X1336683Y455384D01*
X1336684Y455349D01*
X1336676Y455295D01*
X1336676Y451485D01*
X1336687Y451420D01*
X1336689Y451354D01*
X1336707Y451311D01*
X1336715Y451264D01*
X1336749Y451207D01*
X1336774Y451147D01*
X1336805Y451112D01*
X1336830Y451071D01*
X1336881Y451030D01*
X1336925Y450981D01*
X1336967Y450959D01*
X1337004Y450930D01*
X1337066Y450909D01*
X1337125Y450878D01*
X1337179Y450870D01*
X1337216Y450858D01*
X1337256Y450859D01*
X1337310Y450851D01*
X1339850Y450851D01*
X1339915Y450862D01*
G37*
G36*
X610935Y440702D02*
X610935Y440702D01*
X611001Y440704D01*
X611044Y440722D01*
X611091Y440730D01*
X611148Y440764D01*
X611208Y440789D01*
X611243Y440820D01*
X611284Y440845D01*
X611326Y440896D01*
X611374Y440940D01*
X611396Y440982D01*
X611425Y441019D01*
X611446Y441081D01*
X611477Y441140D01*
X611485Y441194D01*
X611497Y441231D01*
X611496Y441271D01*
X611504Y441325D01*
X611504Y445135D01*
X611493Y445200D01*
X611491Y445266D01*
X611473Y445309D01*
X611465Y445356D01*
X611431Y445413D01*
X611406Y445473D01*
X611375Y445508D01*
X611350Y445549D01*
X611299Y445591D01*
X611255Y445639D01*
X611213Y445661D01*
X611176Y445690D01*
X611114Y445711D01*
X611055Y445742D01*
X611001Y445750D01*
X610964Y445762D01*
X610924Y445761D01*
X610870Y445769D01*
X608330Y445769D01*
X608265Y445758D01*
X608199Y445756D01*
X608156Y445738D01*
X608109Y445730D01*
X608052Y445696D01*
X607992Y445671D01*
X607957Y445640D01*
X607916Y445615D01*
X607875Y445564D01*
X607826Y445520D01*
X607804Y445478D01*
X607775Y445441D01*
X607754Y445379D01*
X607723Y445320D01*
X607715Y445266D01*
X607703Y445229D01*
X607703Y445225D01*
X607703Y445224D01*
X607704Y445189D01*
X607696Y445135D01*
X607696Y441325D01*
X607707Y441260D01*
X607709Y441194D01*
X607727Y441151D01*
X607735Y441104D01*
X607769Y441047D01*
X607794Y440987D01*
X607825Y440952D01*
X607850Y440911D01*
X607901Y440870D01*
X607945Y440821D01*
X607987Y440799D01*
X608024Y440770D01*
X608086Y440749D01*
X608145Y440718D01*
X608199Y440710D01*
X608236Y440698D01*
X608276Y440699D01*
X608330Y440691D01*
X610870Y440691D01*
X610935Y440702D01*
G37*
G36*
X2068895Y440702D02*
X2068895Y440702D01*
X2068961Y440704D01*
X2069004Y440722D01*
X2069051Y440730D01*
X2069108Y440764D01*
X2069168Y440789D01*
X2069203Y440820D01*
X2069244Y440845D01*
X2069286Y440896D01*
X2069334Y440940D01*
X2069356Y440982D01*
X2069385Y441019D01*
X2069406Y441081D01*
X2069437Y441140D01*
X2069445Y441194D01*
X2069457Y441231D01*
X2069456Y441271D01*
X2069464Y441325D01*
X2069464Y445135D01*
X2069453Y445200D01*
X2069451Y445266D01*
X2069433Y445309D01*
X2069425Y445356D01*
X2069391Y445413D01*
X2069366Y445473D01*
X2069335Y445508D01*
X2069310Y445549D01*
X2069259Y445591D01*
X2069215Y445639D01*
X2069173Y445661D01*
X2069136Y445690D01*
X2069074Y445711D01*
X2069015Y445742D01*
X2068961Y445750D01*
X2068924Y445762D01*
X2068884Y445761D01*
X2068830Y445769D01*
X2066290Y445769D01*
X2066225Y445758D01*
X2066159Y445756D01*
X2066116Y445738D01*
X2066069Y445730D01*
X2066012Y445696D01*
X2065952Y445671D01*
X2065917Y445640D01*
X2065876Y445615D01*
X2065835Y445564D01*
X2065786Y445520D01*
X2065764Y445478D01*
X2065735Y445441D01*
X2065714Y445379D01*
X2065683Y445320D01*
X2065675Y445266D01*
X2065663Y445229D01*
X2065663Y445225D01*
X2065663Y445224D01*
X2065664Y445189D01*
X2065656Y445135D01*
X2065656Y441325D01*
X2065667Y441260D01*
X2065669Y441194D01*
X2065687Y441151D01*
X2065695Y441104D01*
X2065729Y441047D01*
X2065754Y440987D01*
X2065785Y440952D01*
X2065810Y440911D01*
X2065861Y440870D01*
X2065905Y440821D01*
X2065947Y440799D01*
X2065984Y440770D01*
X2066046Y440749D01*
X2066105Y440718D01*
X2066159Y440710D01*
X2066196Y440698D01*
X2066236Y440699D01*
X2066290Y440691D01*
X2068830Y440691D01*
X2068895Y440702D01*
G37*
G36*
X1339915Y440702D02*
X1339915Y440702D01*
X1339981Y440704D01*
X1340024Y440722D01*
X1340071Y440730D01*
X1340128Y440764D01*
X1340188Y440789D01*
X1340223Y440820D01*
X1340264Y440845D01*
X1340306Y440896D01*
X1340354Y440940D01*
X1340376Y440982D01*
X1340405Y441019D01*
X1340426Y441081D01*
X1340457Y441140D01*
X1340465Y441194D01*
X1340477Y441231D01*
X1340476Y441271D01*
X1340484Y441325D01*
X1340484Y445135D01*
X1340473Y445200D01*
X1340471Y445266D01*
X1340453Y445309D01*
X1340445Y445356D01*
X1340411Y445413D01*
X1340386Y445473D01*
X1340355Y445508D01*
X1340330Y445549D01*
X1340279Y445591D01*
X1340235Y445639D01*
X1340193Y445661D01*
X1340156Y445690D01*
X1340094Y445711D01*
X1340035Y445742D01*
X1339981Y445750D01*
X1339944Y445762D01*
X1339904Y445761D01*
X1339850Y445769D01*
X1337310Y445769D01*
X1337245Y445758D01*
X1337179Y445756D01*
X1337136Y445738D01*
X1337089Y445730D01*
X1337032Y445696D01*
X1336972Y445671D01*
X1336937Y445640D01*
X1336896Y445615D01*
X1336855Y445564D01*
X1336806Y445520D01*
X1336784Y445478D01*
X1336755Y445441D01*
X1336734Y445379D01*
X1336703Y445320D01*
X1336695Y445266D01*
X1336683Y445229D01*
X1336683Y445225D01*
X1336683Y445224D01*
X1336684Y445189D01*
X1336676Y445135D01*
X1336676Y441325D01*
X1336687Y441260D01*
X1336689Y441194D01*
X1336707Y441151D01*
X1336715Y441104D01*
X1336749Y441047D01*
X1336774Y440987D01*
X1336805Y440952D01*
X1336830Y440911D01*
X1336881Y440870D01*
X1336925Y440821D01*
X1336967Y440799D01*
X1337004Y440770D01*
X1337066Y440749D01*
X1337125Y440718D01*
X1337179Y440710D01*
X1337216Y440698D01*
X1337256Y440699D01*
X1337310Y440691D01*
X1339850Y440691D01*
X1339915Y440702D01*
G37*
G36*
X1681545Y416572D02*
X1681545Y416572D01*
X1681611Y416574D01*
X1681654Y416592D01*
X1681701Y416600D01*
X1681758Y416634D01*
X1681818Y416659D01*
X1681853Y416690D01*
X1681894Y416715D01*
X1681936Y416766D01*
X1681984Y416810D01*
X1682006Y416852D01*
X1682035Y416889D01*
X1682056Y416951D01*
X1682087Y417010D01*
X1682095Y417064D01*
X1682107Y417101D01*
X1682106Y417141D01*
X1682114Y417195D01*
X1682114Y421005D01*
X1682103Y421070D01*
X1682101Y421136D01*
X1682083Y421179D01*
X1682075Y421226D01*
X1682041Y421283D01*
X1682016Y421343D01*
X1681985Y421378D01*
X1681960Y421419D01*
X1681909Y421461D01*
X1681865Y421509D01*
X1681823Y421531D01*
X1681786Y421560D01*
X1681724Y421581D01*
X1681665Y421612D01*
X1681611Y421620D01*
X1681574Y421632D01*
X1681534Y421631D01*
X1681480Y421639D01*
X1678940Y421639D01*
X1678875Y421628D01*
X1678809Y421626D01*
X1678766Y421608D01*
X1678719Y421600D01*
X1678662Y421566D01*
X1678602Y421541D01*
X1678567Y421510D01*
X1678526Y421485D01*
X1678485Y421434D01*
X1678436Y421390D01*
X1678414Y421348D01*
X1678385Y421311D01*
X1678364Y421249D01*
X1678333Y421190D01*
X1678325Y421136D01*
X1678313Y421099D01*
X1678313Y421095D01*
X1678313Y421094D01*
X1678314Y421059D01*
X1678306Y421005D01*
X1678306Y417195D01*
X1678317Y417130D01*
X1678319Y417064D01*
X1678337Y417021D01*
X1678345Y416974D01*
X1678379Y416917D01*
X1678404Y416857D01*
X1678435Y416822D01*
X1678460Y416781D01*
X1678511Y416740D01*
X1678555Y416691D01*
X1678597Y416669D01*
X1678634Y416640D01*
X1678696Y416619D01*
X1678755Y416588D01*
X1678809Y416580D01*
X1678846Y416568D01*
X1678886Y416569D01*
X1678940Y416561D01*
X1681480Y416561D01*
X1681545Y416572D01*
G37*
G36*
X952565Y416572D02*
X952565Y416572D01*
X952631Y416574D01*
X952674Y416592D01*
X952721Y416600D01*
X952778Y416634D01*
X952838Y416659D01*
X952873Y416690D01*
X952914Y416715D01*
X952956Y416766D01*
X953004Y416810D01*
X953026Y416852D01*
X953055Y416889D01*
X953076Y416951D01*
X953107Y417010D01*
X953115Y417064D01*
X953127Y417101D01*
X953126Y417141D01*
X953134Y417195D01*
X953134Y421005D01*
X953123Y421070D01*
X953121Y421136D01*
X953103Y421179D01*
X953095Y421226D01*
X953061Y421283D01*
X953036Y421343D01*
X953005Y421378D01*
X952980Y421419D01*
X952929Y421461D01*
X952885Y421509D01*
X952843Y421531D01*
X952806Y421560D01*
X952744Y421581D01*
X952685Y421612D01*
X952631Y421620D01*
X952594Y421632D01*
X952554Y421631D01*
X952500Y421639D01*
X949960Y421639D01*
X949895Y421628D01*
X949829Y421626D01*
X949786Y421608D01*
X949739Y421600D01*
X949682Y421566D01*
X949622Y421541D01*
X949587Y421510D01*
X949546Y421485D01*
X949505Y421434D01*
X949456Y421390D01*
X949434Y421348D01*
X949405Y421311D01*
X949384Y421249D01*
X949353Y421190D01*
X949345Y421136D01*
X949333Y421099D01*
X949333Y421095D01*
X949333Y421094D01*
X949334Y421059D01*
X949326Y421005D01*
X949326Y417195D01*
X949337Y417130D01*
X949339Y417064D01*
X949357Y417021D01*
X949365Y416974D01*
X949399Y416917D01*
X949424Y416857D01*
X949455Y416822D01*
X949480Y416781D01*
X949531Y416740D01*
X949575Y416691D01*
X949617Y416669D01*
X949654Y416640D01*
X949716Y416619D01*
X949775Y416588D01*
X949829Y416580D01*
X949866Y416568D01*
X949906Y416569D01*
X949960Y416561D01*
X952500Y416561D01*
X952565Y416572D01*
G37*
G36*
X223585Y416572D02*
X223585Y416572D01*
X223651Y416574D01*
X223694Y416592D01*
X223741Y416600D01*
X223798Y416634D01*
X223858Y416659D01*
X223893Y416690D01*
X223934Y416715D01*
X223976Y416766D01*
X224024Y416810D01*
X224046Y416852D01*
X224075Y416889D01*
X224096Y416951D01*
X224127Y417010D01*
X224135Y417064D01*
X224147Y417101D01*
X224146Y417141D01*
X224154Y417195D01*
X224154Y421005D01*
X224143Y421070D01*
X224141Y421136D01*
X224123Y421179D01*
X224115Y421226D01*
X224081Y421283D01*
X224056Y421343D01*
X224025Y421378D01*
X224000Y421419D01*
X223949Y421461D01*
X223905Y421509D01*
X223863Y421531D01*
X223826Y421560D01*
X223764Y421581D01*
X223705Y421612D01*
X223651Y421620D01*
X223614Y421632D01*
X223574Y421631D01*
X223520Y421639D01*
X220980Y421639D01*
X220915Y421628D01*
X220849Y421626D01*
X220806Y421608D01*
X220759Y421600D01*
X220702Y421566D01*
X220642Y421541D01*
X220607Y421510D01*
X220566Y421485D01*
X220525Y421434D01*
X220476Y421390D01*
X220454Y421348D01*
X220425Y421311D01*
X220404Y421249D01*
X220373Y421190D01*
X220365Y421136D01*
X220353Y421099D01*
X220353Y421095D01*
X220353Y421094D01*
X220354Y421059D01*
X220346Y421005D01*
X220346Y417195D01*
X220357Y417130D01*
X220359Y417064D01*
X220377Y417021D01*
X220385Y416974D01*
X220419Y416917D01*
X220444Y416857D01*
X220475Y416822D01*
X220500Y416781D01*
X220551Y416740D01*
X220595Y416691D01*
X220637Y416669D01*
X220674Y416640D01*
X220736Y416619D01*
X220795Y416588D01*
X220849Y416580D01*
X220886Y416568D01*
X220926Y416569D01*
X220980Y416561D01*
X223520Y416561D01*
X223585Y416572D01*
G37*
D10*
X139700Y50800D03*
X660400Y101600D03*
X660400Y381000D03*
X152400Y533400D03*
D11*
X49050Y448000D03*
X49050Y390200D03*
D12*
X19050Y427990D03*
X19050Y445770D03*
X19050Y410210D03*
X19050Y392430D03*
D13*
X21336Y520700D03*
X29464Y520700D03*
D14*
X187960Y571500D03*
X213360Y571500D03*
X238760Y571500D03*
X264160Y571500D03*
X289560Y571500D03*
X314960Y571500D03*
X340360Y571500D03*
X365760Y571500D03*
X391160Y571500D03*
X416560Y571500D03*
X279400Y12700D03*
X304800Y12700D03*
X330200Y12700D03*
X355600Y12700D03*
X381000Y12700D03*
X406400Y12700D03*
X431800Y12700D03*
X457200Y12700D03*
X508000Y12700D03*
X533400Y12700D03*
X558800Y12700D03*
X584200Y12700D03*
X609600Y12700D03*
X635000Y12700D03*
X635000Y571500D03*
X609600Y571500D03*
X584200Y571500D03*
X558800Y571500D03*
X533400Y571500D03*
X508000Y571500D03*
X482600Y571500D03*
X457200Y571500D03*
D15*
X482600Y368300D03*
X482600Y381000D03*
X495300Y368300D03*
X495300Y381000D03*
X508000Y368300D03*
X508000Y381000D03*
X520700Y368300D03*
X520700Y381000D03*
X533400Y368300D03*
X533400Y381000D03*
D16*
X152400Y571500D03*
X660400Y63500D03*
D17*
X609600Y458724D03*
X609600Y448310D03*
X609600Y437896D03*
D18*
X584200Y450596D03*
X584200Y458724D03*
D17*
X558800Y449453D03*
X558800Y459867D03*
X533400Y449453D03*
X533400Y459867D03*
D19*
X20320Y111760D03*
X66040Y111760D03*
D17*
X222250Y413893D03*
X222250Y424307D03*
D14*
X196850Y406400D03*
X196850Y431800D03*
X203200Y127000D03*
X228600Y127000D03*
D10*
X868680Y50800D03*
X1389380Y101600D03*
X1389380Y381000D03*
X881380Y533400D03*
D11*
X778030Y448000D03*
X778030Y390200D03*
D12*
X748030Y427990D03*
X748030Y445770D03*
X748030Y410210D03*
X748030Y392430D03*
D13*
X750316Y520700D03*
X758444Y520700D03*
D14*
X916940Y571500D03*
X942340Y571500D03*
X967740Y571500D03*
X993140Y571500D03*
X1018540Y571500D03*
X1043940Y571500D03*
X1069340Y571500D03*
X1094740Y571500D03*
X1120140Y571500D03*
X1145540Y571500D03*
X1008380Y12700D03*
X1033780Y12700D03*
X1059180Y12700D03*
X1084580Y12700D03*
X1109980Y12700D03*
X1135380Y12700D03*
X1160780Y12700D03*
X1186180Y12700D03*
X1236980Y12700D03*
X1262380Y12700D03*
X1287780Y12700D03*
X1313180Y12700D03*
X1338580Y12700D03*
X1363980Y12700D03*
X1363980Y571500D03*
X1338580Y571500D03*
X1313180Y571500D03*
X1287780Y571500D03*
X1262380Y571500D03*
X1236980Y571500D03*
X1211580Y571500D03*
X1186180Y571500D03*
D15*
X1211580Y368300D03*
X1211580Y381000D03*
X1224280Y368300D03*
X1224280Y381000D03*
X1236980Y368300D03*
X1236980Y381000D03*
X1249680Y368300D03*
X1249680Y381000D03*
X1262380Y368300D03*
X1262380Y381000D03*
D16*
X881380Y571500D03*
X1389380Y63500D03*
D17*
X1338580Y458724D03*
X1338580Y448310D03*
X1338580Y437896D03*
D18*
X1313180Y450596D03*
X1313180Y458724D03*
D17*
X1287780Y449453D03*
X1287780Y459867D03*
X1262380Y449453D03*
X1262380Y459867D03*
D19*
X749300Y111760D03*
X795020Y111760D03*
D17*
X951230Y413893D03*
X951230Y424307D03*
D14*
X925830Y406400D03*
X925830Y431800D03*
X932180Y127000D03*
X957580Y127000D03*
D10*
X1597660Y50800D03*
X2118360Y101600D03*
X2118360Y381000D03*
X1610360Y533400D03*
D11*
X1507010Y448000D03*
X1507010Y390200D03*
D12*
X1477010Y427990D03*
X1477010Y445770D03*
X1477010Y410210D03*
X1477010Y392430D03*
D13*
X1479296Y520700D03*
X1487424Y520700D03*
D14*
X1645920Y571500D03*
X1671320Y571500D03*
X1696720Y571500D03*
X1722120Y571500D03*
X1747520Y571500D03*
X1772920Y571500D03*
X1798320Y571500D03*
X1823720Y571500D03*
X1849120Y571500D03*
X1874520Y571500D03*
X1737360Y12700D03*
X1762760Y12700D03*
X1788160Y12700D03*
X1813560Y12700D03*
X1838960Y12700D03*
X1864360Y12700D03*
X1889760Y12700D03*
X1915160Y12700D03*
X1965960Y12700D03*
X1991360Y12700D03*
X2016760Y12700D03*
X2042160Y12700D03*
X2067560Y12700D03*
X2092960Y12700D03*
X2092960Y571500D03*
X2067560Y571500D03*
X2042160Y571500D03*
X2016760Y571500D03*
X1991360Y571500D03*
X1965960Y571500D03*
X1940560Y571500D03*
X1915160Y571500D03*
D15*
X1940560Y368300D03*
X1940560Y381000D03*
X1953260Y368300D03*
X1953260Y381000D03*
X1965960Y368300D03*
X1965960Y381000D03*
X1978660Y368300D03*
X1978660Y381000D03*
X1991360Y368300D03*
X1991360Y381000D03*
D16*
X1610360Y571500D03*
X2118360Y63500D03*
D17*
X2067560Y458724D03*
X2067560Y448310D03*
X2067560Y437896D03*
D18*
X2042160Y450596D03*
X2042160Y458724D03*
D17*
X2016760Y449453D03*
X2016760Y459867D03*
X1991360Y449453D03*
X1991360Y459867D03*
D19*
X1478280Y111760D03*
X1524000Y111760D03*
D17*
X1680210Y413893D03*
X1680210Y424307D03*
D14*
X1654810Y406400D03*
X1654810Y431800D03*
X1661160Y127000D03*
X1686560Y127000D03*
D10*
X139700Y640080D03*
X660400Y690880D03*
X660400Y970280D03*
X152400Y1122680D03*
D11*
X49050Y1037280D03*
X49050Y979480D03*
D12*
X19050Y1017270D03*
X19050Y1035050D03*
X19050Y999490D03*
X19050Y981710D03*
D13*
X21336Y1109980D03*
X29464Y1109980D03*
D14*
X187960Y1160780D03*
X213360Y1160780D03*
X238760Y1160780D03*
X264160Y1160780D03*
X289560Y1160780D03*
X314960Y1160780D03*
X340360Y1160780D03*
X365760Y1160780D03*
X391160Y1160780D03*
X416560Y1160780D03*
X279400Y601980D03*
X304800Y601980D03*
X330200Y601980D03*
X355600Y601980D03*
X381000Y601980D03*
X406400Y601980D03*
X431800Y601980D03*
X457200Y601980D03*
X508000Y601980D03*
X533400Y601980D03*
X558800Y601980D03*
X584200Y601980D03*
X609600Y601980D03*
X635000Y601980D03*
X635000Y1160780D03*
X609600Y1160780D03*
X584200Y1160780D03*
X558800Y1160780D03*
X533400Y1160780D03*
X508000Y1160780D03*
X482600Y1160780D03*
X457200Y1160780D03*
D15*
X482600Y957580D03*
X482600Y970280D03*
X495300Y957580D03*
X495300Y970280D03*
X508000Y957580D03*
X508000Y970280D03*
X520700Y957580D03*
X520700Y970280D03*
X533400Y957580D03*
X533400Y970280D03*
D16*
X152400Y1160780D03*
X660400Y652780D03*
D17*
X609600Y1048004D03*
X609600Y1037590D03*
X609600Y1027176D03*
D18*
X584200Y1039876D03*
X584200Y1048004D03*
D17*
X558800Y1038733D03*
X558800Y1049147D03*
X533400Y1038733D03*
X533400Y1049147D03*
D19*
X20320Y701040D03*
X66040Y701040D03*
D17*
X222250Y1003173D03*
X222250Y1013587D03*
D14*
X196850Y995680D03*
X196850Y1021080D03*
X203200Y716280D03*
X228600Y716280D03*
D10*
X868680Y640080D03*
X1389380Y690880D03*
X1389380Y970280D03*
X881380Y1122680D03*
D11*
X778030Y1037280D03*
X778030Y979480D03*
D12*
X748030Y1017270D03*
X748030Y1035050D03*
X748030Y999490D03*
X748030Y981710D03*
D13*
X750316Y1109980D03*
X758444Y1109980D03*
D14*
X916940Y1160780D03*
X942340Y1160780D03*
X967740Y1160780D03*
X993140Y1160780D03*
X1018540Y1160780D03*
X1043940Y1160780D03*
X1069340Y1160780D03*
X1094740Y1160780D03*
X1120140Y1160780D03*
X1145540Y1160780D03*
X1008380Y601980D03*
X1033780Y601980D03*
X1059180Y601980D03*
X1084580Y601980D03*
X1109980Y601980D03*
X1135380Y601980D03*
X1160780Y601980D03*
X1186180Y601980D03*
X1236980Y601980D03*
X1262380Y601980D03*
X1287780Y601980D03*
X1313180Y601980D03*
X1338580Y601980D03*
X1363980Y601980D03*
X1363980Y1160780D03*
X1338580Y1160780D03*
X1313180Y1160780D03*
X1287780Y1160780D03*
X1262380Y1160780D03*
X1236980Y1160780D03*
X1211580Y1160780D03*
X1186180Y1160780D03*
D15*
X1211580Y957580D03*
X1211580Y970280D03*
X1224280Y957580D03*
X1224280Y970280D03*
X1236980Y957580D03*
X1236980Y970280D03*
X1249680Y957580D03*
X1249680Y970280D03*
X1262380Y957580D03*
X1262380Y970280D03*
D16*
X881380Y1160780D03*
X1389380Y652780D03*
D17*
X1338580Y1048004D03*
X1338580Y1037590D03*
X1338580Y1027176D03*
D18*
X1313180Y1039876D03*
X1313180Y1048004D03*
D17*
X1287780Y1038733D03*
X1287780Y1049147D03*
X1262380Y1038733D03*
X1262380Y1049147D03*
D19*
X749300Y701040D03*
X795020Y701040D03*
D17*
X951230Y1003173D03*
X951230Y1013587D03*
D14*
X925830Y995680D03*
X925830Y1021080D03*
X932180Y716280D03*
X957580Y716280D03*
D10*
X1597660Y640080D03*
X2118360Y690880D03*
X2118360Y970280D03*
X1610360Y1122680D03*
D11*
X1507010Y1037280D03*
X1507010Y979480D03*
D12*
X1477010Y1017270D03*
X1477010Y1035050D03*
X1477010Y999490D03*
X1477010Y981710D03*
D13*
X1479296Y1109980D03*
X1487424Y1109980D03*
D14*
X1645920Y1160780D03*
X1671320Y1160780D03*
X1696720Y1160780D03*
X1722120Y1160780D03*
X1747520Y1160780D03*
X1772920Y1160780D03*
X1798320Y1160780D03*
X1823720Y1160780D03*
X1849120Y1160780D03*
X1874520Y1160780D03*
X1737360Y601980D03*
X1762760Y601980D03*
X1788160Y601980D03*
X1813560Y601980D03*
X1838960Y601980D03*
X1864360Y601980D03*
X1889760Y601980D03*
X1915160Y601980D03*
X1965960Y601980D03*
X1991360Y601980D03*
X2016760Y601980D03*
X2042160Y601980D03*
X2067560Y601980D03*
X2092960Y601980D03*
X2092960Y1160780D03*
X2067560Y1160780D03*
X2042160Y1160780D03*
X2016760Y1160780D03*
X1991360Y1160780D03*
X1965960Y1160780D03*
X1940560Y1160780D03*
X1915160Y1160780D03*
D15*
X1940560Y957580D03*
X1940560Y970280D03*
X1953260Y957580D03*
X1953260Y970280D03*
X1965960Y957580D03*
X1965960Y970280D03*
X1978660Y957580D03*
X1978660Y970280D03*
X1991360Y957580D03*
X1991360Y970280D03*
D16*
X1610360Y1160780D03*
X2118360Y652780D03*
D17*
X2067560Y1048004D03*
X2067560Y1037590D03*
X2067560Y1027176D03*
D18*
X2042160Y1039876D03*
X2042160Y1048004D03*
D17*
X2016760Y1038733D03*
X2016760Y1049147D03*
X1991360Y1038733D03*
X1991360Y1049147D03*
D19*
X1478280Y701040D03*
X1524000Y701040D03*
D17*
X1680210Y1003173D03*
X1680210Y1013587D03*
D14*
X1654810Y995680D03*
X1654810Y1021080D03*
X1661160Y716280D03*
X1686560Y716280D03*
D10*
X139700Y1229360D03*
X660400Y1280160D03*
X660400Y1559560D03*
X152400Y1711960D03*
D11*
X49050Y1626560D03*
X49050Y1568760D03*
D12*
X19050Y1606550D03*
X19050Y1624330D03*
X19050Y1588770D03*
X19050Y1570990D03*
D13*
X21336Y1699260D03*
X29464Y1699260D03*
D14*
X187960Y1750060D03*
X213360Y1750060D03*
X238760Y1750060D03*
X264160Y1750060D03*
X289560Y1750060D03*
X314960Y1750060D03*
X340360Y1750060D03*
X365760Y1750060D03*
X391160Y1750060D03*
X416560Y1750060D03*
X279400Y1191260D03*
X304800Y1191260D03*
X330200Y1191260D03*
X355600Y1191260D03*
X381000Y1191260D03*
X406400Y1191260D03*
X431800Y1191260D03*
X457200Y1191260D03*
X508000Y1191260D03*
X533400Y1191260D03*
X558800Y1191260D03*
X584200Y1191260D03*
X609600Y1191260D03*
X635000Y1191260D03*
X635000Y1750060D03*
X609600Y1750060D03*
X584200Y1750060D03*
X558800Y1750060D03*
X533400Y1750060D03*
X508000Y1750060D03*
X482600Y1750060D03*
X457200Y1750060D03*
D15*
X482600Y1546860D03*
X482600Y1559560D03*
X495300Y1546860D03*
X495300Y1559560D03*
X508000Y1546860D03*
X508000Y1559560D03*
X520700Y1546860D03*
X520700Y1559560D03*
X533400Y1546860D03*
X533400Y1559560D03*
D16*
X152400Y1750060D03*
X660400Y1242060D03*
D17*
X609600Y1637284D03*
X609600Y1626870D03*
X609600Y1616456D03*
D18*
X584200Y1629156D03*
X584200Y1637284D03*
D17*
X558800Y1628013D03*
X558800Y1638427D03*
X533400Y1628013D03*
X533400Y1638427D03*
D19*
X20320Y1290320D03*
X66040Y1290320D03*
D17*
X222250Y1592453D03*
X222250Y1602867D03*
D14*
X196850Y1584960D03*
X196850Y1610360D03*
X203200Y1305560D03*
X228600Y1305560D03*
D10*
X868680Y1229360D03*
X1389380Y1280160D03*
X1389380Y1559560D03*
X881380Y1711960D03*
D11*
X778030Y1626560D03*
X778030Y1568760D03*
D12*
X748030Y1606550D03*
X748030Y1624330D03*
X748030Y1588770D03*
X748030Y1570990D03*
D13*
X750316Y1699260D03*
X758444Y1699260D03*
D14*
X916940Y1750060D03*
X942340Y1750060D03*
X967740Y1750060D03*
X993140Y1750060D03*
X1018540Y1750060D03*
X1043940Y1750060D03*
X1069340Y1750060D03*
X1094740Y1750060D03*
X1120140Y1750060D03*
X1145540Y1750060D03*
X1008380Y1191260D03*
X1033780Y1191260D03*
X1059180Y1191260D03*
X1084580Y1191260D03*
X1109980Y1191260D03*
X1135380Y1191260D03*
X1160780Y1191260D03*
X1186180Y1191260D03*
X1236980Y1191260D03*
X1262380Y1191260D03*
X1287780Y1191260D03*
X1313180Y1191260D03*
X1338580Y1191260D03*
X1363980Y1191260D03*
X1363980Y1750060D03*
X1338580Y1750060D03*
X1313180Y1750060D03*
X1287780Y1750060D03*
X1262380Y1750060D03*
X1236980Y1750060D03*
X1211580Y1750060D03*
X1186180Y1750060D03*
D15*
X1211580Y1546860D03*
X1211580Y1559560D03*
X1224280Y1546860D03*
X1224280Y1559560D03*
X1236980Y1546860D03*
X1236980Y1559560D03*
X1249680Y1546860D03*
X1249680Y1559560D03*
X1262380Y1546860D03*
X1262380Y1559560D03*
D16*
X881380Y1750060D03*
X1389380Y1242060D03*
D17*
X1338580Y1637284D03*
X1338580Y1626870D03*
X1338580Y1616456D03*
D18*
X1313180Y1629156D03*
X1313180Y1637284D03*
D17*
X1287780Y1628013D03*
X1287780Y1638427D03*
X1262380Y1628013D03*
X1262380Y1638427D03*
D19*
X749300Y1290320D03*
X795020Y1290320D03*
D17*
X951230Y1592453D03*
X951230Y1602867D03*
D14*
X925830Y1584960D03*
X925830Y1610360D03*
X932180Y1305560D03*
X957580Y1305560D03*
D10*
X1597660Y1229360D03*
X2118360Y1280160D03*
X2118360Y1559560D03*
X1610360Y1711960D03*
D11*
X1507010Y1626560D03*
X1507010Y1568760D03*
D12*
X1477010Y1606550D03*
X1477010Y1624330D03*
X1477010Y1588770D03*
X1477010Y1570990D03*
D13*
X1479296Y1699260D03*
X1487424Y1699260D03*
D14*
X1645920Y1750060D03*
X1671320Y1750060D03*
X1696720Y1750060D03*
X1722120Y1750060D03*
X1747520Y1750060D03*
X1772920Y1750060D03*
X1798320Y1750060D03*
X1823720Y1750060D03*
X1849120Y1750060D03*
X1874520Y1750060D03*
X1737360Y1191260D03*
X1762760Y1191260D03*
X1788160Y1191260D03*
X1813560Y1191260D03*
X1838960Y1191260D03*
X1864360Y1191260D03*
X1889760Y1191260D03*
X1915160Y1191260D03*
X1965960Y1191260D03*
X1991360Y1191260D03*
X2016760Y1191260D03*
X2042160Y1191260D03*
X2067560Y1191260D03*
X2092960Y1191260D03*
X2092960Y1750060D03*
X2067560Y1750060D03*
X2042160Y1750060D03*
X2016760Y1750060D03*
X1991360Y1750060D03*
X1965960Y1750060D03*
X1940560Y1750060D03*
X1915160Y1750060D03*
D15*
X1940560Y1546860D03*
X1940560Y1559560D03*
X1953260Y1546860D03*
X1953260Y1559560D03*
X1965960Y1546860D03*
X1965960Y1559560D03*
X1978660Y1546860D03*
X1978660Y1559560D03*
X1991360Y1546860D03*
X1991360Y1559560D03*
D16*
X1610360Y1750060D03*
X2118360Y1242060D03*
D17*
X2067560Y1637284D03*
X2067560Y1626870D03*
X2067560Y1616456D03*
D18*
X2042160Y1629156D03*
X2042160Y1637284D03*
D17*
X2016760Y1628013D03*
X2016760Y1638427D03*
X1991360Y1628013D03*
X1991360Y1638427D03*
D19*
X1478280Y1290320D03*
X1524000Y1290320D03*
D17*
X1680210Y1592453D03*
X1680210Y1602867D03*
D14*
X1654810Y1584960D03*
X1654810Y1610360D03*
X1661160Y1305560D03*
X1686560Y1305560D03*
D10*
X139700Y1818640D03*
X660400Y1869440D03*
X660400Y2148840D03*
X152400Y2301240D03*
D11*
X49050Y2215840D03*
X49050Y2158040D03*
D12*
X19050Y2195830D03*
X19050Y2213610D03*
X19050Y2178050D03*
X19050Y2160270D03*
D13*
X21336Y2288540D03*
X29464Y2288540D03*
D14*
X187960Y2339340D03*
X213360Y2339340D03*
X238760Y2339340D03*
X264160Y2339340D03*
X289560Y2339340D03*
X314960Y2339340D03*
X340360Y2339340D03*
X365760Y2339340D03*
X391160Y2339340D03*
X416560Y2339340D03*
X279400Y1780540D03*
X304800Y1780540D03*
X330200Y1780540D03*
X355600Y1780540D03*
X381000Y1780540D03*
X406400Y1780540D03*
X431800Y1780540D03*
X457200Y1780540D03*
X508000Y1780540D03*
X533400Y1780540D03*
X558800Y1780540D03*
X584200Y1780540D03*
X609600Y1780540D03*
X635000Y1780540D03*
X635000Y2339340D03*
X609600Y2339340D03*
X584200Y2339340D03*
X558800Y2339340D03*
X533400Y2339340D03*
X508000Y2339340D03*
X482600Y2339340D03*
X457200Y2339340D03*
D15*
X482600Y2136140D03*
X482600Y2148840D03*
X495300Y2136140D03*
X495300Y2148840D03*
X508000Y2136140D03*
X508000Y2148840D03*
X520700Y2136140D03*
X520700Y2148840D03*
X533400Y2136140D03*
X533400Y2148840D03*
D16*
X152400Y2339340D03*
X660400Y1831340D03*
D17*
X609600Y2226564D03*
X609600Y2216150D03*
X609600Y2205736D03*
D18*
X584200Y2218436D03*
X584200Y2226564D03*
D17*
X558800Y2217293D03*
X558800Y2227707D03*
X533400Y2217293D03*
X533400Y2227707D03*
D19*
X20320Y1879600D03*
X66040Y1879600D03*
D17*
X222250Y2181733D03*
X222250Y2192147D03*
D14*
X196850Y2174240D03*
X196850Y2199640D03*
X203200Y1894840D03*
X228600Y1894840D03*
D10*
X868680Y1818640D03*
X1389380Y1869440D03*
X1389380Y2148840D03*
X881380Y2301240D03*
D11*
X778030Y2215840D03*
X778030Y2158040D03*
D12*
X748030Y2195830D03*
X748030Y2213610D03*
X748030Y2178050D03*
X748030Y2160270D03*
D13*
X750316Y2288540D03*
X758444Y2288540D03*
D14*
X916940Y2339340D03*
X942340Y2339340D03*
X967740Y2339340D03*
X993140Y2339340D03*
X1018540Y2339340D03*
X1043940Y2339340D03*
X1069340Y2339340D03*
X1094740Y2339340D03*
X1120140Y2339340D03*
X1145540Y2339340D03*
X1008380Y1780540D03*
X1033780Y1780540D03*
X1059180Y1780540D03*
X1084580Y1780540D03*
X1109980Y1780540D03*
X1135380Y1780540D03*
X1160780Y1780540D03*
X1186180Y1780540D03*
X1236980Y1780540D03*
X1262380Y1780540D03*
X1287780Y1780540D03*
X1313180Y1780540D03*
X1338580Y1780540D03*
X1363980Y1780540D03*
X1363980Y2339340D03*
X1338580Y2339340D03*
X1313180Y2339340D03*
X1287780Y2339340D03*
X1262380Y2339340D03*
X1236980Y2339340D03*
X1211580Y2339340D03*
X1186180Y2339340D03*
D15*
X1211580Y2136140D03*
X1211580Y2148840D03*
X1224280Y2136140D03*
X1224280Y2148840D03*
X1236980Y2136140D03*
X1236980Y2148840D03*
X1249680Y2136140D03*
X1249680Y2148840D03*
X1262380Y2136140D03*
X1262380Y2148840D03*
D16*
X881380Y2339340D03*
X1389380Y1831340D03*
D17*
X1338580Y2226564D03*
X1338580Y2216150D03*
X1338580Y2205736D03*
D18*
X1313180Y2218436D03*
X1313180Y2226564D03*
D17*
X1287780Y2217293D03*
X1287780Y2227707D03*
X1262380Y2217293D03*
X1262380Y2227707D03*
D19*
X749300Y1879600D03*
X795020Y1879600D03*
D17*
X951230Y2181733D03*
X951230Y2192147D03*
D14*
X925830Y2174240D03*
X925830Y2199640D03*
X932180Y1894840D03*
X957580Y1894840D03*
D10*
X1597660Y1818640D03*
X2118360Y1869440D03*
X2118360Y2148840D03*
X1610360Y2301240D03*
D11*
X1507010Y2215840D03*
X1507010Y2158040D03*
D12*
X1477010Y2195830D03*
X1477010Y2213610D03*
X1477010Y2178050D03*
X1477010Y2160270D03*
D13*
X1479296Y2288540D03*
X1487424Y2288540D03*
D14*
X1645920Y2339340D03*
X1671320Y2339340D03*
X1696720Y2339340D03*
X1722120Y2339340D03*
X1747520Y2339340D03*
X1772920Y2339340D03*
X1798320Y2339340D03*
X1823720Y2339340D03*
X1849120Y2339340D03*
X1874520Y2339340D03*
X1737360Y1780540D03*
X1762760Y1780540D03*
X1788160Y1780540D03*
X1813560Y1780540D03*
X1838960Y1780540D03*
X1864360Y1780540D03*
X1889760Y1780540D03*
X1915160Y1780540D03*
X1965960Y1780540D03*
X1991360Y1780540D03*
X2016760Y1780540D03*
X2042160Y1780540D03*
X2067560Y1780540D03*
X2092960Y1780540D03*
X2092960Y2339340D03*
X2067560Y2339340D03*
X2042160Y2339340D03*
X2016760Y2339340D03*
X1991360Y2339340D03*
X1965960Y2339340D03*
X1940560Y2339340D03*
X1915160Y2339340D03*
D15*
X1940560Y2136140D03*
X1940560Y2148840D03*
X1953260Y2136140D03*
X1953260Y2148840D03*
X1965960Y2136140D03*
X1965960Y2148840D03*
X1978660Y2136140D03*
X1978660Y2148840D03*
X1991360Y2136140D03*
X1991360Y2148840D03*
D16*
X1610360Y2339340D03*
X2118360Y1831340D03*
D17*
X2067560Y2226564D03*
X2067560Y2216150D03*
X2067560Y2205736D03*
D18*
X2042160Y2218436D03*
X2042160Y2226564D03*
D17*
X2016760Y2217293D03*
X2016760Y2227707D03*
X1991360Y2217293D03*
X1991360Y2227707D03*
D19*
X1478280Y1879600D03*
X1524000Y1879600D03*
D17*
X1680210Y2181733D03*
X1680210Y2192147D03*
D14*
X1654810Y2174240D03*
X1654810Y2199640D03*
X1661160Y1894840D03*
X1686560Y1894840D03*
D16*
X-64338Y2325370D03*
X2208098Y2325370D03*
D20*
X-73393Y63500D02*
X-73390Y63722D01*
X-73382Y63944D01*
X-73368Y64166D01*
X-73349Y64388D01*
X-73325Y64608D01*
X-73295Y64829D01*
X-73260Y65048D01*
X-73219Y65267D01*
X-73173Y65484D01*
X-73122Y65700D01*
X-73065Y65915D01*
X-73003Y66129D01*
X-72936Y66340D01*
X-72864Y66551D01*
X-72786Y66759D01*
X-72704Y66965D01*
X-72616Y67169D01*
X-72524Y67372D01*
X-72426Y67571D01*
X-72324Y67768D01*
X-72217Y67963D01*
X-72105Y68155D01*
X-71988Y68344D01*
X-71867Y68531D01*
X-71741Y68714D01*
X-71611Y68894D01*
X-71476Y69071D01*
X-71338Y69244D01*
X-71195Y69414D01*
X-71047Y69581D01*
X-70896Y69744D01*
X-70741Y69903D01*
X-70582Y70058D01*
X-70419Y70209D01*
X-70252Y70357D01*
X-70082Y70500D01*
X-69909Y70638D01*
X-69732Y70773D01*
X-69552Y70903D01*
X-69369Y71029D01*
X-69182Y71150D01*
X-68993Y71267D01*
X-68801Y71379D01*
X-68606Y71486D01*
X-68409Y71588D01*
X-68210Y71686D01*
X-68007Y71778D01*
X-67803Y71866D01*
X-67597Y71948D01*
X-67389Y72026D01*
X-67178Y72098D01*
X-66967Y72165D01*
X-66753Y72227D01*
X-66538Y72284D01*
X-66322Y72335D01*
X-66105Y72381D01*
X-65886Y72422D01*
X-65667Y72457D01*
X-65446Y72487D01*
X-65226Y72511D01*
X-65004Y72530D01*
X-64782Y72544D01*
X-64560Y72552D01*
X-64338Y72555D01*
X-64116Y72552D01*
X-63894Y72544D01*
X-63672Y72530D01*
X-63450Y72511D01*
X-63230Y72487D01*
X-63009Y72457D01*
X-62790Y72422D01*
X-62571Y72381D01*
X-62354Y72335D01*
X-62138Y72284D01*
X-61923Y72227D01*
X-61709Y72165D01*
X-61498Y72098D01*
X-61287Y72026D01*
X-61079Y71948D01*
X-60873Y71866D01*
X-60669Y71778D01*
X-60466Y71686D01*
X-60267Y71588D01*
X-60070Y71486D01*
X-59875Y71379D01*
X-59683Y71267D01*
X-59494Y71150D01*
X-59307Y71029D01*
X-59124Y70903D01*
X-58944Y70773D01*
X-58767Y70638D01*
X-58594Y70500D01*
X-58424Y70357D01*
X-58257Y70209D01*
X-58094Y70058D01*
X-57935Y69903D01*
X-57780Y69744D01*
X-57629Y69581D01*
X-57481Y69414D01*
X-57338Y69244D01*
X-57200Y69071D01*
X-57065Y68894D01*
X-56935Y68714D01*
X-56809Y68531D01*
X-56688Y68344D01*
X-56571Y68155D01*
X-56459Y67963D01*
X-56352Y67768D01*
X-56250Y67571D01*
X-56152Y67372D01*
X-56060Y67169D01*
X-55972Y66965D01*
X-55890Y66759D01*
X-55812Y66551D01*
X-55740Y66340D01*
X-55673Y66129D01*
X-55611Y65915D01*
X-55554Y65700D01*
X-55503Y65484D01*
X-55457Y65267D01*
X-55416Y65048D01*
X-55381Y64829D01*
X-55351Y64608D01*
X-55327Y64388D01*
X-55308Y64166D01*
X-55294Y63944D01*
X-55286Y63722D01*
X-55283Y63500D01*
X-55286Y63278D01*
X-55294Y63056D01*
X-55308Y62834D01*
X-55327Y62612D01*
X-55351Y62392D01*
X-55381Y62171D01*
X-55416Y61952D01*
X-55457Y61733D01*
X-55503Y61516D01*
X-55554Y61300D01*
X-55611Y61085D01*
X-55673Y60871D01*
X-55740Y60660D01*
X-55812Y60449D01*
X-55890Y60241D01*
X-55972Y60035D01*
X-56060Y59831D01*
X-56152Y59628D01*
X-56250Y59429D01*
X-56352Y59232D01*
X-56459Y59037D01*
X-56571Y58845D01*
X-56688Y58656D01*
X-56809Y58469D01*
X-56935Y58286D01*
X-57065Y58106D01*
X-57200Y57929D01*
X-57338Y57756D01*
X-57481Y57586D01*
X-57629Y57419D01*
X-57780Y57256D01*
X-57935Y57097D01*
X-58094Y56942D01*
X-58257Y56791D01*
X-58424Y56643D01*
X-58594Y56500D01*
X-58767Y56362D01*
X-58944Y56227D01*
X-59124Y56097D01*
X-59307Y55971D01*
X-59494Y55850D01*
X-59683Y55733D01*
X-59875Y55621D01*
X-60070Y55514D01*
X-60267Y55412D01*
X-60466Y55314D01*
X-60669Y55222D01*
X-60873Y55134D01*
X-61079Y55052D01*
X-61287Y54974D01*
X-61498Y54902D01*
X-61709Y54835D01*
X-61923Y54773D01*
X-62138Y54716D01*
X-62354Y54665D01*
X-62571Y54619D01*
X-62790Y54578D01*
X-63009Y54543D01*
X-63230Y54513D01*
X-63450Y54489D01*
X-63672Y54470D01*
X-63894Y54456D01*
X-64116Y54448D01*
X-64338Y54445D01*
X-64560Y54448D01*
X-64782Y54456D01*
X-65004Y54470D01*
X-65226Y54489D01*
X-65446Y54513D01*
X-65667Y54543D01*
X-65886Y54578D01*
X-66105Y54619D01*
X-66322Y54665D01*
X-66538Y54716D01*
X-66753Y54773D01*
X-66967Y54835D01*
X-67178Y54902D01*
X-67389Y54974D01*
X-67597Y55052D01*
X-67803Y55134D01*
X-68007Y55222D01*
X-68210Y55314D01*
X-68409Y55412D01*
X-68606Y55514D01*
X-68801Y55621D01*
X-68993Y55733D01*
X-69182Y55850D01*
X-69369Y55971D01*
X-69552Y56097D01*
X-69732Y56227D01*
X-69909Y56362D01*
X-70082Y56500D01*
X-70252Y56643D01*
X-70419Y56791D01*
X-70582Y56942D01*
X-70741Y57097D01*
X-70896Y57256D01*
X-71047Y57419D01*
X-71195Y57586D01*
X-71338Y57756D01*
X-71476Y57929D01*
X-71611Y58106D01*
X-71741Y58286D01*
X-71867Y58469D01*
X-71988Y58656D01*
X-72105Y58845D01*
X-72217Y59037D01*
X-72324Y59232D01*
X-72426Y59429D01*
X-72524Y59628D01*
X-72616Y59831D01*
X-72704Y60035D01*
X-72786Y60241D01*
X-72864Y60449D01*
X-72936Y60660D01*
X-73003Y60871D01*
X-73065Y61085D01*
X-73122Y61300D01*
X-73173Y61516D01*
X-73219Y61733D01*
X-73260Y61952D01*
X-73295Y62171D01*
X-73325Y62392D01*
X-73349Y62612D01*
X-73368Y62834D01*
X-73382Y63056D01*
X-73390Y63278D01*
X-73393Y63500D01*
D21*
X-64338Y63500D03*
M02*
