M48
;GenerationSoftware,Autodesk,EAGLE,9.6.2*%
;CreationDate,2022-01-07T18:50:40Z*%
FMAT,2
ICI,OFF
METRIC,TZ,000.000
T9C0.305
T8C0.381
T7C0.400
T6C0.432
T5C0.650
T4C1.000
T3C1.016
T2C2.032
T1C3.302
%
G90
M71
T1
X217932Y214884
X167132Y230124
X141986Y38100
X91186Y53340
X141986Y214884
X91186Y230124
X89916Y64008
X141986Y69088
X141986Y97028
X91186Y112268
X165862Y5080
X217932Y10160
X13970Y181864
X66040Y186944
X217932Y38100
X167132Y53340
X165862Y64008
X217932Y69088
X217932Y97028
X167132Y112268
X66040Y214884
X15240Y230124
X165862Y122936
X217932Y128016
X217932Y155956
X167132Y171196
X13970Y122936
X66040Y128016
X66040Y155956
X15240Y171196
X165862Y181864
X217932Y186944
X13970Y64008
X66040Y69088
X66040Y97028
X15240Y112268
X89916Y122936
X141986Y128016
X13970Y5080
X66040Y10160
X66040Y38100
X15240Y53340
X141986Y155956
X91186Y171196
X89916Y181864
X141986Y186944
X89916Y5080
X141986Y10160
T2
X153924Y187960
X158496Y187960
X2032Y70104
X6604Y70104
X153924Y129032
X158496Y129032
X77978Y70104
X82550Y70104
X77978Y187960
X82550Y187960
X153924Y70104
X158496Y70104
X2032Y187960
X6604Y187960
X2032Y129032
X6604Y129032
X2032Y11176
X6604Y11176
X153924Y11176
X158496Y11176
X77978Y129032
X82550Y129032
X77978Y11176
X82550Y11176
T3
X58420Y57150
X98806Y130556
X170688Y175006
X173228Y175006
X175768Y175006
X178308Y175006
X180848Y175006
X183388Y175006
X185928Y175006
X188468Y175006
X191008Y175006
X193548Y175006
X179832Y119126
X182372Y119126
X184912Y119126
X187452Y119126
X189992Y119126
X192532Y119126
X195072Y119126
X197612Y119126
X202692Y119126
X205232Y119126
X207772Y119126
X210312Y119126
X212852Y119126
X215392Y119126
X215392Y175006
X212852Y175006
X210312Y175006
X207772Y175006
X205232Y175006
X202692Y175006
X200152Y175006
X197612Y175006
X171577Y158496
X171577Y161036
X172212Y130556
X174752Y189484
X174752Y130556
X18796Y233934
X21336Y233934
X23876Y233934
X26416Y233934
X28956Y233934
X31496Y233934
X34036Y233934
X36576Y233934
X39116Y233934
X41656Y233934
X27940Y178054
X30480Y178054
X33020Y178054
X35560Y178054
X38100Y178054
X40640Y178054
X43180Y178054
X45720Y178054
X50800Y178054
X53340Y178054
X55880Y178054
X121666Y60198
X58420Y178054
X60960Y178054
X63500Y178054
X63500Y233934
X60960Y233934
X58420Y233934
X55880Y233934
X53340Y233934
X50800Y233934
X48260Y233934
X45720Y233934
X19685Y217424
X19685Y219964
X20320Y189484
X22860Y189484
X97282Y233934
X99822Y233934
X102362Y233934
X104902Y233934
X107442Y233934
X109982Y233934
X112522Y233934
X115062Y233934
X117602Y233934
X103886Y178054
X106426Y178054
X108966Y178054
X111506Y178054
X114046Y178054
X18796Y57150
X21336Y57150
X23876Y57150
X26416Y57150
X28956Y57150
X31496Y57150
X34036Y57150
X36576Y57150
X39116Y57150
X41656Y57150
X27940Y1270
X30480Y1270
X33020Y1270
X35560Y1270
X38100Y1270
X40640Y1270
X43180Y1270
X45720Y1270
X50800Y1270
X53340Y1270
X55880Y1270
X58420Y1270
X60960Y1270
X63500Y1270
X63500Y57150
X60960Y57150
X116586Y178054
X55880Y57150
X53340Y57150
X50800Y57150
X48260Y57150
X45720Y57150
X119126Y178054
X121666Y178054
X126746Y178054
X129286Y178054
X131826Y178054
X134366Y178054
X136906Y178054
X139446Y178054
X139446Y233934
X136906Y233934
X19685Y40640
X19685Y43180
X20320Y12700
X22860Y12700
X134366Y233934
X131826Y233934
X129286Y233934
X126746Y233934
X94742Y57150
X97282Y57150
X99822Y57150
X102362Y57150
X104902Y57150
X107442Y57150
X109982Y57150
X112522Y57150
X115062Y57150
X117602Y57150
X103886Y1270
X106426Y1270
X108966Y1270
X111506Y1270
X114046Y1270
X116586Y1270
X119126Y1270
X121666Y1270
X126746Y1270
X129286Y1270
X131826Y1270
X134366Y1270
X136906Y1270
X139446Y1270
X139446Y57150
X136906Y57150
X134366Y57150
X131826Y57150
X129286Y57150
X126746Y57150
X124206Y57150
X121666Y57150
X124206Y233934
X121666Y233934
X95631Y217424
X95631Y219964
X96266Y189484
X98806Y189484
X170688Y233934
X173228Y233934
X175768Y233934
X178308Y233934
X95631Y40640
X95631Y43180
X96266Y12700
X98806Y12700
X180848Y233934
X183388Y233934
X185928Y233934
X188468Y233934
X170688Y57150
X173228Y57150
X175768Y57150
X178308Y57150
X180848Y57150
X183388Y57150
X185928Y57150
X188468Y57150
X191008Y57150
X193548Y57150
X179832Y1270
X182372Y1270
X184912Y1270
X187452Y1270
X189992Y1270
X192532Y1270
X195072Y1270
X197612Y1270
X202692Y1270
X205232Y1270
X207772Y1270
X210312Y1270
X212852Y1270
X215392Y1270
X215392Y57150
X212852Y57150
X210312Y57150
X207772Y57150
X205232Y57150
X202692Y57150
X200152Y57150
X197612Y57150
X191008Y233934
X193548Y233934
X179832Y178054
X182372Y178054
X184912Y178054
X187452Y178054
X189992Y178054
X192532Y178054
X195072Y178054
X197612Y178054
X171577Y40640
X171577Y43180
X172212Y12700
X174752Y12700
X202692Y178054
X205232Y178054
X207772Y178054
X210312Y178054
X18796Y116078
X21336Y116078
X23876Y116078
X26416Y116078
X28956Y116078
X31496Y116078
X34036Y116078
X36576Y116078
X39116Y116078
X41656Y116078
X27940Y60198
X30480Y60198
X33020Y60198
X35560Y60198
X38100Y60198
X40640Y60198
X43180Y60198
X45720Y60198
X50800Y60198
X53340Y60198
X55880Y60198
X58420Y60198
X60960Y60198
X63500Y60198
X63500Y116078
X60960Y116078
X58420Y116078
X55880Y116078
X53340Y116078
X50800Y116078
X48260Y116078
X45720Y116078
X212852Y178054
X215392Y178054
X215392Y233934
X212852Y233934
X210312Y233934
X207772Y233934
X205232Y233934
X202692Y233934
X200152Y233934
X19685Y99568
X19685Y102108
X20320Y71628
X22860Y71628
X197612Y233934
X171577Y217424
X171577Y219964
X172212Y189484
X94742Y116078
X97282Y116078
X99822Y116078
X102362Y116078
X104902Y116078
X107442Y116078
X109982Y116078
X112522Y116078
X115062Y116078
X117602Y116078
X103886Y60198
X106426Y60198
X108966Y60198
X111506Y60198
X114046Y60198
X116586Y60198
X119126Y60198
X94742Y233934
X126746Y60198
X129286Y60198
X131826Y60198
X134366Y60198
X136906Y60198
X139446Y60198
X139446Y116078
X136906Y116078
X134366Y116078
X131826Y116078
X129286Y116078
X126746Y116078
X124206Y116078
X121666Y116078
X95631Y99568
X95631Y102108
X96266Y71628
X98806Y71628
X170688Y116078
X173228Y116078
X175768Y116078
X178308Y116078
X180848Y116078
X183388Y116078
X185928Y116078
X188468Y116078
X191008Y116078
X193548Y116078
X179832Y60198
X182372Y60198
X184912Y60198
X187452Y60198
X189992Y60198
X192532Y60198
X195072Y60198
X197612Y60198
X202692Y60198
X205232Y60198
X207772Y60198
X210312Y60198
X212852Y60198
X215392Y60198
X215392Y116078
X212852Y116078
X210312Y116078
X207772Y116078
X205232Y116078
X202692Y116078
X200152Y116078
X197612Y116078
X171577Y99568
X171577Y102108
X172212Y71628
X174752Y71628
X18796Y175006
X21336Y175006
X23876Y175006
X26416Y175006
X28956Y175006
X31496Y175006
X34036Y175006
X36576Y175006
X39116Y175006
X41656Y175006
X27940Y119126
X30480Y119126
X33020Y119126
X35560Y119126
X38100Y119126
X40640Y119126
X43180Y119126
X45720Y119126
X50800Y119126
X53340Y119126
X55880Y119126
X58420Y119126
X60960Y119126
X63500Y119126
X63500Y175006
X60960Y175006
X58420Y175006
X55880Y175006
X53340Y175006
X50800Y175006
X48260Y175006
X45720Y175006
X19685Y158496
X19685Y161036
X20320Y130556
X22860Y130556
X94742Y175006
X97282Y175006
X99822Y175006
X102362Y175006
X104902Y175006
X107442Y175006
X109982Y175006
X112522Y175006
X115062Y175006
X117602Y175006
X103886Y119126
X106426Y119126
X108966Y119126
X111506Y119126
X114046Y119126
X116586Y119126
X119126Y119126
X121666Y119126
X126746Y119126
X129286Y119126
X131826Y119126
X134366Y119126
X136906Y119126
X139446Y119126
X139446Y175006
X136906Y175006
X134366Y175006
X131826Y175006
X129286Y175006
X126746Y175006
X124206Y175006
X121666Y175006
X95631Y158496
X95631Y161036
X96266Y130556
T4
X4064Y150111
X155956Y32255
X4064Y201039
X4064Y83183
X4064Y91183
X4064Y209039
X80010Y201039
X80010Y83183
X80010Y91183
X80010Y209039
X155956Y201039
X155956Y91183
X155956Y209039
X4064Y24255
X4064Y142111
X155956Y83183
X4064Y32255
X80010Y24255
X80010Y142111
X80010Y150111
X80010Y32255
X155956Y24255
X155956Y142111
X155956Y150111
T5
X4905Y103728
X4905Y97948
X80851Y103728
X156797Y103728
X156797Y97948
X4905Y162656
X4905Y156876
X80851Y162656
X80851Y156876
X156797Y162656
X156797Y156876
X80851Y215804
X4905Y44800
X4905Y39020
X4905Y221584
X4905Y215804
X80851Y44800
X80851Y97948
X156797Y221584
X156797Y215804
X156797Y44800
X156797Y39020
X80851Y221584
X80851Y39020
T6
X50800Y154686
X50800Y155956
X124206Y213614
X124206Y214884
X125476Y213614
X125476Y214884
X126746Y213614
X126746Y214884
X50800Y95758
X128016Y213614
X128016Y214884
X129286Y213614
X129286Y214884
X52070Y154686
X52070Y155956
X124206Y154686
X124206Y155956
X125476Y154686
X125476Y155956
X126746Y154686
X126746Y155956
X128016Y154686
X128016Y155956
X129286Y154686
X129286Y155956
X53340Y154686
X53340Y155956
X126746Y95758
X126746Y97028
X128016Y95758
X52070Y38100
X128016Y97028
X200152Y95758
X200152Y97028
X201422Y95758
X201422Y97028
X48260Y213614
X200152Y213614
X200152Y214884
X201422Y213614
X201422Y214884
X48260Y36830
X48260Y38100
X49530Y36830
X49530Y38100
X50800Y36830
X50800Y38100
X52070Y36830
X53340Y36830
X53340Y38100
X202692Y213614
X202692Y214884
X203962Y213614
X203962Y214884
X124206Y36830
X124206Y38100
X125476Y36830
X125476Y38100
X126746Y36830
X126746Y38100
X128016Y36830
X128016Y38100
X129286Y36830
X129286Y38100
X205232Y213614
X205232Y214884
X48260Y214884
X49530Y213614
X200152Y36830
X200152Y38100
X201422Y36830
X201422Y38100
X202692Y36830
X202692Y38100
X203962Y36830
X203962Y38100
X205232Y36830
X205232Y38100
X49530Y214884
X48260Y95758
X48260Y97028
X49530Y95758
X49530Y97028
X50800Y97028
X52070Y95758
X52070Y97028
X53340Y95758
X53340Y97028
X50800Y213614
X50800Y214884
X52070Y213614
X52070Y214884
X53340Y213614
X53340Y214884
X202692Y95758
X202692Y97028
X203962Y95758
X203962Y97028
X205232Y95758
X205232Y97028
X129286Y95758
X129286Y97028
X124206Y95758
X124206Y97028
X125476Y95758
X125476Y97028
X48260Y154686
X48260Y155956
X200152Y154686
X200152Y155956
X201422Y154686
X201422Y155956
X202692Y154686
X202692Y155956
X203962Y154686
X203962Y155956
X205232Y154686
X205232Y155956
X49530Y154686
X49530Y155956
T7
X1255Y46228
X157327Y214376
X1255Y37592
X5435Y37592
X5435Y46228
X81381Y37592
X77201Y46228
X81381Y46228
X77201Y37592
X153147Y46228
X153147Y37592
X157327Y37592
X157327Y46228
X153147Y105156
X153147Y96520
X77201Y214376
X81381Y214376
X81381Y223012
X157327Y105156
X153147Y164084
X153147Y155448
X157327Y155448
X157327Y164084
X1255Y105156
X77201Y105156
X77201Y164084
X77201Y155448
X81381Y155448
X81381Y164084
X77201Y96520
X81381Y96520
X81381Y105156
X1255Y214376
X5435Y214376
X5435Y223012
X1255Y96520
X153147Y223012
X153147Y214376
X157327Y223012
X5435Y96520
X1255Y164084
X1255Y155448
X5435Y155448
X5435Y164084
X5435Y105156
X77201Y223012
X1255Y223012
X157327Y96520
T8
X112776Y66548
X78080Y167894
X188722Y8890
X188722Y7620
X36830Y8890
X112776Y8890
X2134Y108966
X2134Y50038
X78080Y50038
X154026Y50038
X78080Y108966
X154026Y108966
X2134Y167894
X112776Y126746
X188722Y67818
X188722Y66548
X112776Y125476
X188722Y126746
X188722Y125476
X154026Y167894
X36830Y185674
X36830Y184404
X2134Y226822
X112776Y185674
X78080Y226822
X154026Y226822
X188722Y185674
X188722Y184404
X112776Y184404
X36830Y126746
X112776Y7620
X36830Y7620
X36830Y125476
X36830Y67818
X36830Y66548
X112776Y67818
T9
X59944Y92710
X9906Y62357
X7620Y62357
X7366Y86868
X48260Y61722
X34798Y95504
X16510Y72390
X14224Y96520
X20066Y108712
X49530Y108966
X62230Y109728
X8636Y113538
X57404Y72136
X16256Y71374
X12700Y96520
X9652Y113538
X51943Y106680
X41910Y68580
X12954Y102362
X24130Y103632
X46990Y113284
X22606Y105918
X59436Y107950
X57150Y76454
X59690Y113284
X12954Y104394
X25908Y99949
X40386Y112268
X60960Y88138
X62230Y112268
X64770Y109474
X41021Y73787
X41910Y99060
X57150Y89408
X59436Y88392
X55118Y88392
X53848Y88392
X51308Y87884
X52578Y88392
X46990Y86868
X56134Y95504
X36576Y104140
X42926Y73152
X7366Y84582
X47752Y78994
X49530Y106680
X27686Y109474
X50546Y80772
X22606Y108458
X7366Y88138
X30226Y110236
X52324Y78740
X52070Y67310
X52070Y70358
X7366Y90170
X49530Y89408
X44704Y107950
X48260Y102108
X47752Y88646
X44704Y106680
X45190Y85344
X27686Y105918
X45466Y105156
X27686Y81534
X41910Y101092
X42926Y90170
X46482Y77724
X47498Y106680
X50800Y106680
X28600Y71628
X33020Y72898
X33020Y76708
X30988Y84836
X29210Y79248
X29210Y86868
X30734Y74422
X33020Y80518
X5080Y110998
X39116Y86106
X27940Y84328
X27432Y91694
X33020Y89154
X33020Y81788
X29210Y80264
X31496Y70104
X59690Y100838
X57658Y106172
X59690Y106172
X18542Y72644
X41910Y61722
X48260Y66548
X41910Y66548
X44958Y78994
X34798Y78232
X34798Y74168
X34798Y84074
X26670Y76073
X31242Y86868
X39116Y84836
X29210Y77470
X29210Y70358
X38735Y70358
X11430Y68580
X17018Y97282
X35306Y106680
X59690Y72898
X7366Y85598
X7620Y60960
X81026Y64262
X108966Y86868
X99568Y65278
X78994Y66548
X80264Y66548
X77724Y66548
X86360Y59690
X83566Y59690
X94742Y94234
X87630Y105410
X78486Y114808
X78486Y116078
X81026Y116078
X81026Y114808
X81026Y113538
X82296Y113538
X96139Y90932
X114808Y90678
X135636Y85598
X135636Y84328
X135636Y83058
X135636Y81788
X135636Y80518
X135636Y79248
X135636Y77978
X130556Y80518
X130556Y79248
X130556Y77978
X133096Y80518
X133096Y79248
X133096Y77978
X133096Y84328
X133096Y83058
X133096Y85598
X83312Y104394
X84201Y96393
X84201Y97663
X100076Y98933
X100076Y100203
X117856Y70358
X124206Y70358
X122936Y70358
X115316Y74168
X115316Y75438
X115316Y80518
X117856Y75438
X115316Y79248
X92456Y77978
X91186Y77978
X89916Y77978
X133096Y98298
X126746Y102108
X128016Y102108
X135636Y110998
X115062Y103124
X119126Y103124
X108712Y108458
X106172Y108458
X111252Y108458
X130556Y110998
X133096Y110998
X103378Y69088
X100076Y96393
X96266Y60833
X97536Y60833
X98806Y60833
X84836Y81788
X86106Y81788
X84836Y80518
X86106Y80518
X78486Y85598
X78486Y86868
X78486Y88138
X78486Y89408
X87630Y59690
X86360Y60960
X100823Y93027
X114808Y91694
X114808Y89662
X83566Y81788
X83566Y80518
X97536Y76708
X78740Y105156
X83058Y98806
X83058Y103251
X84074Y99314
X84074Y101092
X80264Y100076
X88900Y101092
X83312Y105664
X110363Y70104
X125476Y101092
X119380Y91186
X121412Y88392
X130810Y98044
X128778Y98806
X110490Y100203
X91440Y108458
X86614Y113538
X133858Y96012
X135890Y96012
X135890Y98552
X135890Y92710
X85852Y62357
X83566Y62357
X83312Y86868
X124206Y61722
X110744Y95504
X92456Y72390
X90170Y96520
X96012Y108712
X125476Y108966
X138176Y109728
X84582Y113538
X133350Y72136
X92202Y71374
X88646Y96520
X85598Y113538
X127889Y106680
X117856Y68580
X88900Y102362
X100076Y103632
X122936Y113284
X98552Y105918
X135382Y107950
X133096Y76454
X135636Y113284
X88900Y104394
X101854Y99949
X116332Y112268
X136906Y88138
X138176Y112268
X140716Y109474
X116967Y73787
X117856Y99060
X133096Y89408
X135382Y88392
X131064Y88392
X129794Y88392
X127254Y87884
X128524Y88392
X122936Y86868
X132080Y95504
X112522Y104140
X118872Y73152
X83312Y84582
X123698Y78994
X125476Y106680
X103632Y109474
X126492Y80772
X98552Y108458
X83312Y88138
X106172Y110236
X128270Y78740
X128016Y67310
X128016Y70358
X83312Y90170
X125476Y89408
X120650Y107950
X124206Y102108
X123698Y88646
X120650Y106680
X121136Y85344
X103632Y105918
X121412Y105156
X103632Y81534
X117856Y101092
X118872Y90170
X122428Y77724
X123444Y106680
X126746Y106680
X104546Y71628
X108966Y72898
X108966Y76708
X106934Y84836
X105156Y79248
X105156Y86868
X106680Y74422
X108966Y80518
X81026Y110998
X115062Y86106
X103886Y84328
X103378Y91694
X108966Y89154
X108966Y81788
X105156Y80264
X107442Y70104
X135636Y100838
X133604Y106172
X135636Y106172
X94488Y72644
X117856Y61722
X124206Y66548
X117856Y66548
X120904Y78994
X110744Y78232
X110744Y74168
X110744Y84074
X102616Y76073
X107188Y86868
X115062Y84836
X105156Y77470
X105156Y70358
X114681Y70358
X87376Y68580
X92964Y97282
X111252Y106680
X135636Y72898
X83312Y85598
X83566Y60960
X156972Y64262
X184912Y86868
X175514Y65278
X154940Y66548
X156210Y66548
X153670Y66548
X162306Y59690
X159512Y59690
X170688Y94234
X163576Y105410
X154432Y114808
X154432Y116078
X156972Y116078
X156972Y114808
X156972Y113538
X158242Y113538
X172085Y90932
X190754Y90678
X211582Y85598
X211582Y84328
X211582Y83058
X211582Y81788
X211582Y80518
X211582Y79248
X211582Y77978
X206502Y80518
X206502Y79248
X206502Y77978
X209042Y80518
X209042Y79248
X209042Y77978
X209042Y84328
X209042Y83058
X209042Y85598
X159258Y104394
X160147Y96393
X160147Y97663
X176022Y98933
X176022Y100203
X193802Y70358
X200152Y70358
X198882Y70358
X191262Y74168
X191262Y75438
X191262Y80518
X193802Y75438
X191262Y79248
X168402Y77978
X167132Y77978
X165862Y77978
X209042Y98298
X202692Y102108
X203962Y102108
X211582Y110998
X191008Y103124
X195072Y103124
X184658Y108458
X182118Y108458
X187198Y108458
X206502Y110998
X209042Y110998
X179324Y69088
X176022Y96393
X172212Y60833
X173482Y60833
X174752Y60833
X160782Y81788
X162052Y81788
X160782Y80518
X162052Y80518
X154432Y85598
X154432Y86868
X154432Y88138
X154432Y89408
X163576Y59690
X162306Y60960
X176769Y93027
X190754Y91694
X190754Y89662
X159512Y81788
X159512Y80518
X173482Y76708
X154686Y105156
X159004Y98806
X159004Y103251
X160020Y99314
X160020Y101092
X156210Y100076
X164846Y101092
X159258Y105664
X186309Y70104
X201422Y101092
X195326Y91186
X197358Y88392
X206756Y98044
X204724Y98806
X186436Y100203
X167386Y108458
X162560Y113538
X209804Y96012
X211836Y96012
X211836Y98552
X211836Y92710
X161798Y62357
X159512Y62357
X159258Y86868
X200152Y61722
X186690Y95504
X168402Y72390
X166116Y96520
X171958Y108712
X201422Y108966
X214122Y109728
X160528Y113538
X209296Y72136
X168148Y71374
X164592Y96520
X161544Y113538
X203835Y106680
X193802Y68580
X164846Y102362
X176022Y103632
X198882Y113284
X174498Y105918
X211328Y107950
X209042Y76454
X211582Y113284
X164846Y104394
X177800Y99949
X192278Y112268
X212852Y88138
X214122Y112268
X216662Y109474
X192913Y73787
X193802Y99060
X209042Y89408
X211328Y88392
X207010Y88392
X205740Y88392
X203200Y87884
X204470Y88392
X198882Y86868
X208026Y95504
X188468Y104140
X194818Y73152
X159258Y84582
X199644Y78994
X201422Y106680
X179578Y109474
X202438Y80772
X174498Y108458
X159258Y88138
X182118Y110236
X204216Y78740
X203962Y67310
X203962Y70358
X159258Y90170
X201422Y89408
X196596Y107950
X200152Y102108
X199644Y88646
X196596Y106680
X197082Y85344
X179578Y105918
X197358Y105156
X179578Y81534
X193802Y101092
X194818Y90170
X198374Y77724
X199390Y106680
X202692Y106680
X180492Y71628
X184912Y72898
X184912Y76708
X182880Y84836
X181102Y79248
X181102Y86868
X182626Y74422
X184912Y80518
X156972Y110998
X191008Y86106
X179832Y84328
X179324Y91694
X184912Y89154
X184912Y81788
X181102Y80264
X183388Y70104
X211582Y100838
X209550Y106172
X211582Y106172
X170434Y72644
X193802Y61722
X200152Y66548
X193802Y66548
X196850Y78994
X186690Y78232
X186690Y74168
X186690Y84074
X178562Y76073
X183134Y86868
X191008Y84836
X181102Y77470
X181102Y70358
X190627Y70358
X163322Y68580
X168910Y97282
X187198Y106680
X211582Y72898
X159258Y85598
X159512Y60960
X5080Y123190
X33020Y145796
X23622Y124206
X3048Y125476
X4318Y125476
X1778Y125476
X10414Y118618
X7620Y118618
X18796Y153162
X11684Y164338
X2540Y173736
X2540Y175006
X5080Y175006
X5080Y173736
X5080Y172466
X6350Y172466
X20193Y149860
X38862Y149606
X59690Y144526
X59690Y143256
X59690Y141986
X59690Y140716
X59690Y139446
X59690Y138176
X59690Y136906
X54610Y139446
X54610Y138176
X54610Y136906
X57150Y139446
X57150Y138176
X57150Y136906
X57150Y143256
X57150Y141986
X57150Y144526
X7366Y163322
X8255Y155321
X8255Y156591
X24130Y157861
X24130Y159131
X41910Y129286
X48260Y129286
X46990Y129286
X39370Y133096
X39370Y134366
X39370Y139446
X41910Y134366
X39370Y138176
X16510Y136906
X15240Y136906
X13970Y136906
X57150Y157226
X50800Y161036
X52070Y161036
X59690Y169926
X39116Y162052
X43180Y162052
X32766Y167386
X30226Y167386
X35306Y167386
X54610Y169926
X57150Y169926
X27432Y128016
X24130Y155321
X20320Y119761
X21590Y119761
X22860Y119761
X8890Y140716
X10160Y140716
X8890Y139446
X10160Y139446
X2540Y144526
X2540Y145796
X2540Y147066
X2540Y148336
X11684Y118618
X10414Y119888
X24877Y151956
X38862Y150622
X38862Y148590
X7620Y140716
X7620Y139446
X21590Y135636
X2794Y164084
X7112Y157734
X7112Y162179
X8128Y158242
X8128Y160020
X4318Y159004
X12954Y160020
X7366Y164592
X34417Y129032
X49530Y160020
X43434Y150114
X45466Y147320
X54864Y156972
X52832Y157734
X34544Y159131
X15494Y167386
X10668Y172466
X57912Y154940
X59944Y154940
X59944Y157480
X59944Y151638
X9906Y121285
X7620Y121285
X7366Y145796
X48260Y120650
X34798Y154432
X16510Y131318
X14224Y155448
X20066Y167640
X49530Y167894
X62230Y168656
X8636Y172466
X57404Y131064
X16256Y130302
X12700Y155448
X9652Y172466
X51943Y165608
X41910Y127508
X12954Y161290
X24130Y162560
X46990Y172212
X22606Y164846
X59436Y166878
X57150Y135382
X59690Y172212
X12954Y163322
X25908Y158877
X40386Y171196
X60960Y147066
X62230Y171196
X64770Y168402
X41021Y132715
X41910Y157988
X57150Y148336
X59436Y147320
X55118Y147320
X53848Y147320
X51308Y146812
X52578Y147320
X46990Y145796
X56134Y154432
X36576Y163068
X42926Y132080
X7366Y143510
X47752Y137922
X49530Y165608
X27686Y168402
X50546Y139700
X22606Y167386
X7366Y147066
X30226Y169164
X52324Y137668
X52070Y126238
X52070Y129286
X7366Y149098
X49530Y148336
X44704Y166878
X48260Y161036
X47752Y147574
X44704Y165608
X45190Y144272
X27686Y164846
X45466Y164084
X27686Y140462
X41910Y160020
X42926Y149098
X46482Y136652
X47498Y165608
X50800Y165608
X28600Y130556
X33020Y131826
X33020Y135636
X30988Y143764
X29210Y138176
X29210Y145796
X30734Y133350
X33020Y139446
X5080Y169926
X39116Y145034
X27940Y143256
X27432Y150622
X33020Y148082
X33020Y140716
X29210Y139192
X31496Y129032
X59690Y159766
X57658Y165100
X59690Y165100
X18542Y131572
X41910Y120650
X48260Y125476
X41910Y125476
X44958Y137922
X34798Y137160
X34798Y133096
X34798Y143002
X26670Y135001
X31242Y145796
X39116Y143764
X29210Y136398
X29210Y129286
X38735Y129286
X11430Y127508
X17018Y156210
X35306Y165608
X59690Y131826
X7366Y144526
X7620Y119888
X81026Y123190
X108966Y145796
X99568Y124206
X78994Y125476
X80264Y125476
X77724Y125476
X86360Y118618
X83566Y118618
X94742Y153162
X87630Y164338
X78486Y173736
X78486Y175006
X81026Y175006
X81026Y173736
X81026Y172466
X82296Y172466
X96139Y149860
X114808Y149606
X135636Y144526
X135636Y143256
X135636Y141986
X135636Y140716
X135636Y139446
X135636Y138176
X135636Y136906
X130556Y139446
X130556Y138176
X130556Y136906
X133096Y139446
X133096Y138176
X133096Y136906
X133096Y143256
X133096Y141986
X133096Y144526
X83312Y163322
X84201Y155321
X84201Y156591
X100076Y157861
X100076Y159131
X117856Y129286
X124206Y129286
X122936Y129286
X115316Y133096
X115316Y134366
X115316Y139446
X117856Y134366
X115316Y138176
X92456Y136906
X91186Y136906
X89916Y136906
X133096Y157226
X126746Y161036
X128016Y161036
X135636Y169926
X115062Y162052
X119126Y162052
X108712Y167386
X106172Y167386
X111252Y167386
X130556Y169926
X133096Y169926
X103378Y128016
X100076Y155321
X96266Y119761
X97536Y119761
X98806Y119761
X84836Y140716
X86106Y140716
X84836Y139446
X86106Y139446
X78486Y144526
X78486Y145796
X78486Y147066
X78486Y148336
X87630Y118618
X86360Y119888
X100823Y151956
X114808Y150622
X114808Y148590
X83566Y140716
X83566Y139446
X97536Y135636
X78740Y164084
X83058Y157734
X83058Y162179
X84074Y158242
X84074Y160020
X80264Y159004
X88900Y160020
X83312Y164592
X110363Y129032
X125476Y160020
X119380Y150114
X121412Y147320
X130810Y156972
X128778Y157734
X110490Y159131
X91440Y167386
X86614Y172466
X133858Y154940
X135890Y154940
X135890Y157480
X135890Y151638
X85852Y121285
X83566Y121285
X83312Y145796
X124206Y120650
X110744Y154432
X92456Y131318
X90170Y155448
X96012Y167640
X125476Y167894
X138176Y168656
X84582Y172466
X133350Y131064
X92202Y130302
X88646Y155448
X85598Y172466
X127889Y165608
X117856Y127508
X88900Y161290
X100076Y162560
X122936Y172212
X98552Y164846
X135382Y166878
X133096Y135382
X135636Y172212
X88900Y163322
X101854Y158877
X116332Y171196
X136906Y147066
X138176Y171196
X140716Y168402
X116967Y132715
X117856Y157988
X133096Y148336
X135382Y147320
X131064Y147320
X129794Y147320
X127254Y146812
X128524Y147320
X122936Y145796
X132080Y154432
X112522Y163068
X117856Y7620
X83312Y143510
X123698Y137922
X125476Y165608
X103632Y168402
X126492Y139700
X98552Y167386
X83312Y147066
X106172Y169164
X128270Y137668
X128016Y126238
X128016Y129286
X83312Y149098
X125476Y148336
X120650Y166878
X124206Y161036
X123698Y147574
X120650Y165608
X121136Y144272
X103632Y164846
X121412Y164084
X103632Y140462
X117856Y160020
X118872Y149098
X122428Y136652
X123444Y165608
X126746Y165608
X104546Y130556
X108966Y131826
X108966Y135636
X106934Y143764
X105156Y138176
X105156Y145796
X106680Y133350
X108966Y139446
X81026Y169926
X115062Y145034
X103886Y143256
X103378Y150622
X108966Y148082
X108966Y140716
X105156Y139192
X107442Y129032
X135636Y159766
X133604Y165100
X135636Y165100
X94488Y131572
X117856Y120650
X124206Y125476
X117856Y125476
X120904Y137922
X110744Y137160
X110744Y133096
X110744Y143002
X102616Y135001
X107188Y145796
X115062Y143764
X105156Y136398
X105156Y129286
X114681Y129286
X87376Y127508
X92964Y156210
X111252Y165608
X135636Y131826
X83312Y144526
X83566Y119888
X156972Y123190
X5080Y5334
X33020Y27940
X184912Y145796
X175514Y124206
X154940Y125476
X156210Y125476
X153670Y125476
X162306Y118618
X159512Y118618
X170688Y153162
X163576Y164338
X154432Y173736
X154432Y175006
X156972Y175006
X156972Y173736
X156972Y172466
X158242Y172466
X172085Y149860
X190754Y149606
X211582Y144526
X211582Y143256
X211582Y141986
X211582Y140716
X211582Y139446
X211582Y138176
X211582Y136906
X206502Y139446
X206502Y138176
X206502Y136906
X209042Y139446
X209042Y138176
X209042Y136906
X209042Y143256
X209042Y141986
X209042Y144526
X159258Y163322
X160147Y155321
X160147Y156591
X176022Y157861
X176022Y159131
X193802Y129286
X200152Y129286
X198882Y129286
X191262Y133096
X191262Y134366
X191262Y139446
X193802Y134366
X191262Y138176
X168402Y136906
X167132Y136906
X165862Y136906
X209042Y157226
X202692Y161036
X203962Y161036
X211582Y169926
X191008Y162052
X195072Y162052
X184658Y167386
X182118Y167386
X187198Y167386
X206502Y169926
X209042Y169926
X179324Y128016
X176022Y155321
X172212Y119761
X173482Y119761
X174752Y119761
X160782Y140716
X162052Y140716
X160782Y139446
X162052Y139446
X154432Y144526
X154432Y145796
X154432Y147066
X154432Y148336
X163576Y118618
X162306Y119888
X176769Y151956
X190754Y150622
X190754Y148590
X159512Y140716
X159512Y139446
X173482Y135636
X23622Y6350
X154686Y164084
X159004Y157734
X159004Y162179
X160020Y158242
X160020Y160020
X156210Y159004
X164846Y160020
X159258Y164592
X186309Y129032
X201422Y160020
X195326Y150114
X197358Y147320
X206756Y156972
X204724Y157734
X186436Y159131
X167386Y167386
X162560Y172466
X209804Y154940
X211836Y154940
X211836Y157480
X211836Y151638
X161798Y121285
X159512Y121285
X159258Y145796
X200152Y120650
X186690Y154432
X168402Y131318
X166116Y155448
X171958Y167640
X201422Y167894
X214122Y168656
X160528Y172466
X209296Y131064
X168148Y130302
X164592Y155448
X161544Y172466
X203835Y165608
X193802Y127508
X164846Y161290
X176022Y162560
X198882Y172212
X174498Y164846
X211328Y166878
X209042Y135382
X211582Y172212
X164846Y163322
X177800Y158877
X192278Y171196
X212852Y147066
X214122Y171196
X216662Y168402
X192913Y132715
X193802Y157988
X209042Y148336
X211328Y147320
X207010Y147320
X205740Y147320
X203200Y146812
X204470Y147320
X198882Y145796
X208026Y154432
X188468Y163068
X194818Y132080
X159258Y143510
X199644Y137922
X201422Y165608
X179578Y168402
X202438Y139700
X174498Y167386
X159258Y147066
X182118Y169164
X204216Y137668
X203962Y126238
X203962Y129286
X159258Y149098
X201422Y148336
X196596Y166878
X200152Y161036
X199644Y147574
X196596Y165608
X197082Y144272
X179578Y164846
X197358Y164084
X179578Y140462
X193802Y160020
X194818Y149098
X198374Y136652
X199390Y165608
X202692Y165608
X180492Y130556
X184912Y131826
X184912Y135636
X182880Y143764
X181102Y138176
X181102Y145796
X182626Y133350
X184912Y139446
X156972Y169926
X191008Y145034
X179832Y143256
X179324Y150622
X184912Y148082
X184912Y140716
X181102Y139192
X183388Y129032
X211582Y159766
X209550Y165100
X211582Y165100
X170434Y131572
X193802Y120650
X200152Y125476
X193802Y125476
X196850Y137922
X186690Y137160
X186690Y133096
X186690Y143002
X178562Y135001
X183134Y145796
X191008Y143764
X181102Y136398
X181102Y129286
X190627Y129286
X163322Y127508
X168910Y156210
X187198Y165608
X211582Y131826
X159258Y144526
X159512Y119888
X5080Y182118
X3048Y7620
X4318Y7620
X33020Y204724
X23622Y183134
X3048Y184404
X4318Y184404
X1778Y184404
X10414Y177546
X7620Y177546
X18796Y212090
X11684Y223266
X2540Y232664
X2540Y233934
X5080Y233934
X5080Y232664
X5080Y231394
X6350Y231394
X20193Y208788
X38862Y208534
X59690Y203454
X59690Y202184
X59690Y200914
X59690Y199644
X59690Y198374
X59690Y197104
X59690Y195834
X54610Y198374
X54610Y197104
X54610Y195834
X57150Y198374
X57150Y197104
X57150Y195834
X57150Y202184
X57150Y200914
X57150Y203454
X7366Y222250
X8255Y214249
X8255Y215519
X24130Y216789
X24130Y218059
X41910Y188214
X48260Y188214
X46990Y188214
X39370Y192024
X39370Y193294
X39370Y198374
X41910Y193294
X39370Y197104
X16510Y195834
X15240Y195834
X13970Y195834
X57150Y216154
X50800Y219964
X52070Y219964
X59690Y228854
X39116Y220980
X43180Y220980
X32766Y226314
X30226Y226314
X35306Y226314
X54610Y228854
X57150Y228854
X27432Y186944
X24130Y214249
X20320Y178689
X21590Y178689
X22860Y178689
X8890Y199644
X10160Y199644
X8890Y198374
X10160Y198374
X2540Y203454
X2540Y204724
X2540Y205994
X2540Y207264
X11684Y177546
X10414Y178816
X24877Y210883
X38862Y209550
X38862Y207518
X7620Y199644
X7620Y198374
X21590Y194564
X1778Y7620
X2794Y223012
X7112Y216662
X7112Y221107
X8128Y217170
X8128Y218948
X4318Y217932
X12954Y218948
X7366Y223520
X34417Y187960
X49530Y218948
X43434Y209042
X45466Y206248
X54864Y215900
X52832Y216662
X34544Y218059
X15494Y226314
X10668Y231394
X57912Y213868
X59944Y213868
X59944Y216408
X59944Y210566
X9906Y180213
X7620Y180213
X7366Y204724
X48260Y179578
X34798Y213360
X16510Y190246
X14224Y214376
X20066Y226568
X49530Y226822
X62230Y227584
X8636Y231394
X57404Y189992
X16256Y189230
X12700Y214376
X9652Y231394
X51943Y224536
X41910Y186436
X12954Y220218
X24130Y221488
X46990Y231140
X22606Y223774
X59436Y225806
X57150Y194310
X59690Y231140
X12954Y222250
X25908Y217805
X40386Y230124
X60960Y205994
X62230Y230124
X64770Y227330
X41021Y191643
X41910Y216916
X57150Y207264
X59436Y206248
X55118Y206248
X53848Y206248
X51308Y205740
X52578Y206248
X46990Y204724
X56134Y213360
X36576Y221996
X42926Y191008
X7366Y202438
X47752Y196850
X49530Y224536
X27686Y227330
X50546Y198628
X22606Y226314
X7366Y205994
X30226Y228092
X52324Y196596
X52070Y185166
X52070Y188214
X7366Y208026
X49530Y207264
X44704Y225806
X48260Y219964
X47752Y206502
X44704Y224536
X45190Y203200
X27686Y223774
X45466Y223012
X27686Y199390
X41910Y218948
X42926Y208026
X46482Y195580
X47498Y224536
X50800Y224536
X28600Y189484
X33020Y190754
X33020Y194564
X30988Y202692
X29210Y197104
X29210Y204724
X30734Y192278
X33020Y198374
X5080Y228854
X39116Y203962
X27940Y202184
X27432Y209550
X33020Y207010
X33020Y199644
X29210Y198120
X31496Y187960
X59690Y218694
X57658Y224028
X59690Y224028
X18542Y190500
X41910Y179578
X48260Y184404
X41910Y184404
X44958Y196850
X34798Y196088
X34798Y192024
X34798Y201930
X26670Y193929
X31242Y204724
X39116Y202692
X29210Y195326
X29210Y188214
X38735Y188214
X11430Y186436
X17018Y215138
X35306Y224536
X59690Y190754
X7366Y203454
X7620Y178816
X81026Y182118
X10414Y762
X7620Y762
X108966Y204724
X99568Y183134
X78994Y184404
X80264Y184404
X77724Y184404
X86360Y177546
X83566Y177546
X94742Y212090
X87630Y223266
X78486Y232664
X78486Y233934
X81026Y233934
X81026Y232664
X81026Y231394
X82296Y231394
X96139Y208788
X114808Y208534
X135636Y203454
X135636Y202184
X135636Y200914
X135636Y199644
X135636Y198374
X135636Y197104
X135636Y195834
X130556Y198374
X130556Y197104
X130556Y195834
X133096Y198374
X133096Y197104
X133096Y195834
X133096Y202184
X133096Y200914
X133096Y203454
X83312Y222250
X84201Y214249
X84201Y215519
X100076Y216789
X100076Y218059
X117856Y188214
X124206Y188214
X122936Y188214
X115316Y192024
X115316Y193294
X115316Y198374
X117856Y193294
X115316Y197104
X92456Y195834
X91186Y195834
X89916Y195834
X133096Y216154
X126746Y219964
X128016Y219964
X135636Y228854
X115062Y220980
X119126Y220980
X108712Y226314
X106172Y226314
X111252Y226314
X130556Y228854
X133096Y228854
X103378Y186944
X100076Y214249
X96266Y178689
X97536Y178689
X98806Y178689
X84836Y199644
X86106Y199644
X84836Y198374
X86106Y198374
X78486Y203454
X78486Y204724
X78486Y205994
X78486Y207264
X87630Y177546
X86360Y178816
X100823Y210883
X114808Y209550
X114808Y207518
X83566Y199644
X83566Y198374
X97536Y194564
X18796Y35306
X78740Y223012
X83058Y216662
X83058Y221107
X84074Y217170
X84074Y218948
X80264Y217932
X88900Y218948
X83312Y223520
X110363Y187960
X125476Y218948
X119380Y209042
X121412Y206248
X130810Y215900
X128778Y216662
X110490Y218059
X91440Y226314
X86614Y231394
X133858Y213868
X135890Y213868
X135890Y216408
X135890Y210566
X85852Y180213
X83566Y180213
X83312Y204724
X124206Y179578
X110744Y213360
X92456Y190246
X90170Y214376
X96012Y226568
X125476Y226822
X138176Y227584
X84582Y231394
X133350Y189992
X92202Y189230
X88646Y214376
X85598Y231394
X127889Y224536
X117856Y186436
X88900Y220218
X100076Y221488
X122936Y231140
X98552Y223774
X135382Y225806
X133096Y194310
X135636Y231140
X88900Y222250
X101854Y217805
X116332Y230124
X136906Y205994
X138176Y230124
X140716Y227330
X116967Y191643
X117856Y216916
X133096Y207264
X135382Y206248
X131064Y206248
X129794Y206248
X127254Y205740
X128524Y206248
X122936Y204724
X132080Y213360
X112522Y221996
X118872Y191008
X83312Y202438
X123698Y196850
X125476Y224536
X103632Y227330
X126492Y198628
X98552Y226314
X83312Y205994
X106172Y228092
X128270Y196596
X128016Y185166
X128016Y188214
X83312Y208026
X125476Y207264
X120650Y225806
X124206Y219964
X123698Y206502
X120650Y224536
X121136Y203200
X103632Y223774
X121412Y223012
X103632Y199390
X117856Y218948
X118872Y208026
X122428Y195580
X123444Y224536
X126746Y224536
X104546Y189484
X108966Y190754
X108966Y194564
X106934Y202692
X105156Y197104
X105156Y204724
X106680Y192278
X108966Y198374
X81026Y228854
X115062Y203962
X103886Y202184
X103378Y209550
X108966Y207010
X108966Y199644
X105156Y198120
X107442Y187960
X135636Y218694
X133604Y224028
X135636Y224028
X94488Y190500
X117856Y179578
X124206Y184404
X117856Y184404
X120904Y196850
X110744Y196088
X110744Y192024
X110744Y201930
X102616Y193929
X107188Y204724
X115062Y202692
X105156Y195326
X105156Y188214
X114681Y188214
X87376Y186436
X92964Y215138
X111252Y224536
X135636Y190754
X83312Y203454
X83566Y178816
X156972Y182118
X11684Y46482
X2540Y55880
X184912Y204724
X175514Y183134
X154940Y184404
X156210Y184404
X153670Y184404
X162306Y177546
X159512Y177546
X170688Y212090
X163576Y223266
X154432Y232664
X154432Y233934
X156972Y233934
X156972Y232664
X156972Y231394
X158242Y231394
X172085Y208788
X190754Y208534
X211582Y203454
X211582Y202184
X211582Y200914
X211582Y199644
X211582Y198374
X211582Y197104
X211582Y195834
X206502Y198374
X206502Y197104
X206502Y195834
X209042Y198374
X209042Y197104
X209042Y195834
X209042Y202184
X209042Y200914
X209042Y203454
X159258Y222250
X160147Y214249
X160147Y215519
X176022Y216789
X176022Y218059
X193802Y188214
X200152Y188214
X198882Y188214
X191262Y192024
X191262Y193294
X191262Y198374
X193802Y193294
X191262Y197104
X168402Y195834
X167132Y195834
X165862Y195834
X209042Y216154
X202692Y219964
X203962Y219964
X211582Y228854
X191008Y220980
X195072Y220980
X184658Y226314
X182118Y226314
X187198Y226314
X206502Y228854
X209042Y228854
X179324Y186944
X176022Y214249
X172212Y178689
X173482Y178689
X174752Y178689
X160782Y199644
X162052Y199644
X160782Y198374
X162052Y198374
X154432Y203454
X154432Y204724
X154432Y205994
X154432Y207264
X163576Y177546
X162306Y178816
X176769Y210883
X190754Y209550
X190754Y207518
X159512Y199644
X159512Y198374
X173482Y194564
X2540Y57150
X154686Y223012
X159004Y216662
X159004Y221107
X160020Y217170
X160020Y218948
X156210Y217932
X164846Y218948
X159258Y223520
X186309Y187960
X201422Y218948
X195326Y209042
X197358Y206248
X206756Y215900
X204724Y216662
X186436Y218059
X167386Y226314
X162560Y231394
X209804Y213868
X211836Y213868
X211836Y216408
X211836Y210566
X161798Y180213
X159512Y180213
X159258Y204724
X200152Y179578
X186690Y213360
X168402Y190246
X166116Y214376
X171958Y226568
X5080Y57150
X214122Y227584
X160528Y231394
X209296Y189992
X168148Y189230
X164592Y214376
X161544Y231394
X203835Y224536
X193802Y186436
X164846Y220218
X176022Y221488
X198882Y231140
X174498Y223774
X211328Y225806
X209042Y194310
X211582Y231140
X164846Y222250
X177800Y217805
X192278Y230124
X212852Y205994
X214122Y230124
X216662Y227330
X192913Y191643
X193802Y216916
X209042Y207264
X211328Y206248
X207010Y206248
X205740Y206248
X203200Y205740
X204470Y206248
X198882Y204724
X208026Y213360
X188468Y221996
X194818Y191008
X159258Y202438
X199644Y196850
X201422Y224536
X179578Y227330
X202438Y198628
X174498Y226314
X159258Y205994
X182118Y228092
X204216Y196596
X203962Y185166
X203962Y188214
X159258Y208026
X201422Y207264
X196596Y225806
X200152Y219964
X199644Y206502
X196596Y224536
X197082Y203200
X179578Y223774
X197358Y223012
X179578Y199390
X193802Y218948
X194818Y208026
X198374Y195580
X199390Y224536
X202692Y224536
X180492Y189484
X184912Y190754
X184912Y194564
X182880Y202692
X181102Y197104
X181102Y204724
X182626Y192278
X184912Y198374
X156972Y228854
X191008Y203962
X179832Y202184
X179324Y209550
X184912Y207010
X184912Y199644
X181102Y198120
X183388Y187960
X211582Y218694
X209550Y224028
X211582Y224028
X170434Y190500
X193802Y179578
X200152Y184404
X193802Y184404
X196850Y196850
X186690Y196088
X186690Y192024
X186690Y201930
X178562Y193929
X183134Y204724
X191008Y202692
X181102Y195326
X181102Y188214
X190627Y188214
X163322Y186436
X168910Y215138
X187198Y224536
X211582Y190754
X159258Y203454
X159512Y178816
X5080Y55880
X5080Y54610
X6350Y54610
X20193Y32004
X38862Y31750
X59690Y26670
X59690Y25400
X59690Y24130
X59690Y22860
X59690Y21590
X59690Y20320
X59690Y19050
X54610Y21590
X54610Y20320
X54610Y19050
X57150Y21590
X57150Y20320
X57150Y19050
X57150Y25400
X57150Y24130
X57150Y26670
X7366Y45466
X8255Y37465
X8255Y38735
X24130Y40005
X24130Y41275
X41910Y11430
X48260Y11430
X46990Y11430
X39370Y15240
X39370Y16510
X39370Y21590
X41910Y16510
X39370Y20320
X16510Y19050
X15240Y19050
X13970Y19050
X57150Y39370
X50800Y43180
X52070Y43180
X59690Y52070
X39116Y44196
X43180Y44196
X32766Y49530
X30226Y49530
X35306Y49530
X54610Y52070
X57150Y52070
X27432Y10160
X24130Y37465
X20320Y1905
X21590Y1905
X22860Y1905
X8890Y22860
X10160Y22860
X8890Y21590
X10160Y21590
X2540Y26670
X2540Y27940
X2540Y29210
X2540Y30480
X11684Y762
X10414Y2032
X24877Y34100
X38862Y32766
X38862Y30734
X7620Y22860
X7620Y21590
X21590Y17780
X2794Y46228
X7112Y39878
X7112Y44323
X8128Y40386
X8128Y42164
X4318Y41148
X12954Y42164
X7366Y46736
X34417Y11176
X49530Y42164
X43434Y32258
X45466Y29464
X54864Y39116
X52832Y39878
X34544Y41275
X15494Y49530
X10668Y54610
X57912Y37084
X59944Y37084
X59944Y39624
X59944Y33782
X9906Y3429
X7620Y3429
X7366Y27940
X48260Y2794
X34798Y36576
X16510Y13462
X14224Y37592
X20066Y49784
X49530Y50038
X62230Y50800
X8636Y54610
X57404Y13208
X16256Y12446
X12700Y37592
X9652Y54610
X51943Y47752
X41910Y9652
X12954Y43434
X24130Y44704
X46990Y54356
X22606Y46990
X59436Y49022
X57150Y17526
X59690Y54356
X12954Y45466
X25908Y41021
X40386Y53340
X60960Y29210
X62230Y53340
X64770Y50546
X41021Y14859
X41910Y40132
X57150Y30480
X59436Y29464
X55118Y29464
X53848Y29464
X51308Y28956
X52578Y29464
X46990Y27940
X56134Y36576
X36576Y45212
X42926Y14224
X7366Y25654
X47752Y20066
X49530Y47752
X27686Y50546
X50546Y21844
X22606Y49530
X7366Y29210
X30226Y51308
X52324Y19812
X52070Y8382
X52070Y11430
X7366Y31242
X49530Y30480
X44704Y49022
X48260Y43180
X47752Y29718
X44704Y47752
X45190Y26416
X27686Y46990
X45466Y46228
X27686Y22606
X41910Y42164
X42926Y31242
X46482Y18796
X47498Y47752
X50800Y47752
X28600Y12700
X33020Y13970
X33020Y17780
X30988Y25908
X29210Y20320
X29210Y27940
X30734Y15494
X33020Y21590
X5080Y52070
X39116Y27178
X27940Y25400
X27432Y32766
X33020Y30226
X33020Y22860
X29210Y21336
X31496Y11176
X59690Y41910
X57658Y47244
X59690Y47244
X18542Y13716
X41910Y2794
X48260Y7620
X41910Y7620
X44958Y20066
X34798Y19304
X34798Y15240
X34798Y25146
X26670Y17145
X31242Y27940
X39116Y25908
X29210Y18542
X29210Y11430
X38735Y11430
X11430Y9652
X17018Y38354
X35306Y47752
X59690Y13970
X7366Y26670
X7620Y2032
X81026Y5334
X108966Y27940
X99568Y6350
X78994Y7620
X80264Y7620
X77724Y7620
X86360Y762
X83566Y762
X94742Y35306
X87630Y46482
X78486Y55880
X78486Y57150
X81026Y57150
X81026Y55880
X81026Y54610
X82296Y54610
X96139Y32004
X114808Y31750
X135636Y26670
X135636Y25400
X135636Y24130
X135636Y22860
X135636Y21590
X135636Y20320
X135636Y19050
X130556Y21590
X130556Y20320
X130556Y19050
X133096Y21590
X133096Y20320
X133096Y19050
X133096Y25400
X133096Y24130
X133096Y26670
X83312Y45466
X84201Y37465
X84201Y38735
X100076Y40005
X100076Y41275
X117856Y11430
X124206Y11430
X122936Y11430
X115316Y15240
X115316Y16510
X115316Y21590
X117856Y16510
X115316Y20320
X92456Y19050
X91186Y19050
X89916Y19050
X133096Y39370
X126746Y43180
X128016Y43180
X135636Y52070
X115062Y44196
X119126Y44196
X108712Y49530
X106172Y49530
X111252Y49530
X130556Y52070
X133096Y52070
X103378Y10160
X100076Y37465
X96266Y1905
X97536Y1905
X98806Y1905
X84836Y22860
X86106Y22860
X84836Y21590
X86106Y21590
X78486Y26670
X78486Y27940
X78486Y29210
X78486Y30480
X87630Y762
X86360Y2032
X100823Y34100
X114808Y32766
X114808Y30734
X83566Y22860
X83566Y21590
X97536Y17780
X78740Y46228
X83058Y39878
X83058Y44323
X84074Y40386
X84074Y42164
X80264Y41148
X88900Y42164
X83312Y46736
X110363Y11176
X125476Y42164
X119380Y32258
X121412Y29464
X130810Y39116
X128778Y39878
X110490Y41275
X91440Y49530
X86614Y54610
X133858Y37084
X135890Y37084
X135890Y39624
X135890Y33782
X85852Y3429
X83566Y3429
X83312Y27940
X124206Y2794
X110744Y36576
X92456Y13462
X90170Y37592
X96012Y49784
X125476Y50038
X138176Y50800
X118872Y132080
X84582Y54610
X133350Y13208
X92202Y12446
X88646Y37592
X85598Y54610
X127889Y47752
X117856Y9652
X88900Y43434
X100076Y44704
X122936Y54356
X98552Y46990
X135382Y49022
X133096Y17526
X135636Y54356
X88900Y45466
X101854Y41021
X116332Y53340
X136906Y29210
X138176Y53340
X140716Y50546
X116967Y14859
X117856Y40132
X133096Y30480
X135382Y29464
X131064Y29464
X129794Y29464
X127254Y28956
X128524Y29464
X122936Y27940
X132080Y36576
X112522Y45212
X118872Y14224
X83312Y25654
X123698Y20066
X125476Y47752
X103632Y50546
X126492Y21844
X98552Y49530
X83312Y29210
X106172Y51308
X128270Y19812
X128016Y8382
X128016Y11430
X83312Y31242
X125476Y30480
X120650Y49022
X124206Y43180
X123698Y29718
X120650Y47752
X121136Y26416
X103632Y46990
X121412Y46228
X103632Y22606
X117856Y42164
X118872Y31242
X122428Y18796
X123444Y47752
X126746Y47752
X104546Y12700
X108966Y13970
X108966Y17780
X106934Y25908
X105156Y20320
X105156Y27940
X106680Y15494
X108966Y21590
X81026Y52070
X115062Y27178
X103886Y25400
X103378Y32766
X108966Y30226
X108966Y22860
X105156Y21336
X107442Y11176
X135636Y41910
X133604Y47244
X135636Y47244
X94488Y13716
X117856Y2794
X124206Y7620
X120904Y20066
X110744Y19304
X110744Y15240
X110744Y25146
X102616Y17145
X107188Y27940
X115062Y25908
X105156Y18542
X105156Y11430
X114681Y11430
X87376Y9652
X92964Y38354
X111252Y47752
X135636Y13970
X83312Y26670
X83566Y2032
X156972Y5334
X184912Y27940
X175514Y6350
X154940Y7620
X156210Y7620
X153670Y7620
X162306Y762
X159512Y762
X170688Y35306
X163576Y46482
X154432Y55880
X154432Y57150
X156972Y57150
X156972Y55880
X156972Y54610
X158242Y54610
X172085Y32004
X190754Y31750
X211582Y26670
X211582Y25400
X211582Y24130
X211582Y22860
X211582Y21590
X211582Y20320
X211582Y19050
X206502Y21590
X206502Y20320
X206502Y19050
X209042Y21590
X209042Y20320
X209042Y19050
X209042Y25400
X209042Y24130
X209042Y26670
X159258Y45466
X160147Y37465
X160147Y38735
X176022Y40005
X176022Y41275
X193802Y11430
X200152Y11430
X198882Y11430
X191262Y15240
X191262Y16510
X191262Y21590
X193802Y16510
X191262Y20320
X168402Y19050
X167132Y19050
X165862Y19050
X209042Y39370
X202692Y43180
X203962Y43180
X211582Y52070
X191008Y44196
X195072Y44196
X184658Y49530
X182118Y49530
X187198Y49530
X206502Y52070
X209042Y52070
X179324Y10160
X176022Y37465
X172212Y1905
X173482Y1905
X174752Y1905
X160782Y22860
X162052Y22860
X160782Y21590
X162052Y21590
X154432Y26670
X154432Y27940
X154432Y29210
X154432Y30480
X163576Y762
X162306Y2032
X176769Y34100
X190754Y32766
X190754Y30734
X159512Y22860
X159512Y21590
X173482Y17780
X154686Y46228
X159004Y39878
X159004Y44323
X160020Y40386
X160020Y42164
X156210Y41148
X164846Y42164
X159258Y46736
X186309Y11176
X201422Y42164
X195326Y32258
X197358Y29464
X206756Y39116
X204724Y39878
X186436Y41275
X167386Y49530
X162560Y54610
X209804Y37084
X211836Y37084
X211836Y39624
X211836Y33782
X161798Y3429
X159512Y3429
X159258Y27940
X200152Y2794
X186690Y36576
X168402Y13462
X166116Y37592
X171958Y49784
X201422Y50038
X214122Y50800
X160528Y54610
X209296Y13208
X168148Y12446
X164592Y37592
X161544Y54610
X203835Y47752
X193802Y9652
X164846Y43434
X176022Y44704
X198882Y54356
X174498Y46990
X211328Y49022
X209042Y17526
X211582Y54356
X164846Y45466
X177800Y41021
X192278Y53340
X212852Y29210
X214122Y53340
X216662Y50546
X192913Y14859
X193802Y40132
X209042Y30480
X211328Y29464
X207010Y29464
X205740Y29464
X203200Y28956
X204470Y29464
X198882Y27940
X208026Y36576
X188468Y45212
X194818Y14224
X159258Y25654
X199644Y20066
X201422Y47752
X179578Y50546
X202438Y21844
X174498Y49530
X159258Y29210
X182118Y51308
X204216Y19812
X203962Y8382
X203962Y11430
X159258Y31242
X201422Y30480
X196596Y49022
X200152Y43180
X199644Y29718
X196596Y47752
X197082Y26416
X179578Y46990
X197358Y46228
X179578Y22606
X193802Y42164
X194818Y31242
X198374Y18796
X199390Y47752
X202692Y47752
X180492Y12700
X184912Y13970
X184912Y17780
X182880Y25908
X181102Y20320
X181102Y27940
X182626Y15494
X184912Y21590
X156972Y52070
X191008Y27178
X179832Y25400
X179324Y32766
X184912Y30226
X184912Y22860
X181102Y21336
X183388Y11176
X211582Y41910
X209550Y47244
X211582Y47244
X170434Y13716
X193802Y2794
X200152Y7620
X193802Y7620
X196850Y20066
X186690Y19304
X186690Y15240
X186690Y25146
X178562Y17145
X183134Y27940
X191008Y25908
X181102Y18542
X181102Y11430
X190627Y11430
X163322Y9652
X168910Y38354
X187198Y47752
X211582Y13970
X159258Y26670
X159512Y2032
X5080Y64262
X33020Y86868
X23622Y65278
X3048Y66548
X4318Y66548
X1778Y66548
X10414Y59690
X7620Y59690
X18796Y94234
X11684Y105410
X2540Y114808
X2540Y116078
X5080Y116078
X5080Y114808
X5080Y113538
X6350Y113538
X20193Y90932
X38862Y90678
X59690Y85598
X59690Y84328
X59690Y83058
X59690Y81788
X59690Y80518
X59690Y79248
X59690Y77978
X54610Y80518
X54610Y79248
X54610Y77978
X57150Y80518
X57150Y79248
X57150Y77978
X57150Y84328
X57150Y83058
X57150Y85598
X7366Y104394
X8255Y96393
X8255Y97663
X24130Y98933
X24130Y100203
X41910Y70358
X48260Y70358
X46990Y70358
X39370Y74168
X39370Y75438
X39370Y80518
X41910Y75438
X39370Y79248
X16510Y77978
X15240Y77978
X13970Y77978
X57150Y98298
X50800Y102108
X52070Y102108
X59690Y110998
X39116Y103124
X43180Y103124
X32766Y108458
X30226Y108458
X35306Y108458
X54610Y110998
X57150Y110998
X27432Y69088
X24130Y96393
X20320Y60833
X21590Y60833
X22860Y60833
X8890Y81788
X10160Y81788
X8890Y80518
X10160Y80518
X2540Y85598
X2540Y86868
X2540Y88138
X2540Y89408
X11684Y59690
X10414Y60960
X24877Y93027
X38862Y91694
X38862Y89662
X7620Y81788
X7620Y80518
X21590Y76708
X2794Y105156
X7112Y98806
X7112Y103251
X8128Y99314
X8128Y101092
X4318Y100076
X12954Y101092
X7366Y105664
X34417Y70104
X49530Y101092
X43434Y91186
X45466Y88392
X54864Y98044
X52832Y98806
X34544Y100203
X15494Y108458
X10668Y113538
X57912Y96012
X59944Y96012
X59944Y98552
X201422Y226822
M30