G04 EAGLE Gerber RS-274X export*
G75*
%MOMM*%
%FSLAX34Y34*%
%LPD*%
%INSoldermask Bottom*%
%IPPOS*%
%AMOC8*
5,1,8,0,0,1.08239X$1,22.5*%
G01*
%ADD10C,3.454400*%
%ADD11C,0.802400*%
%ADD12C,0.252575*%
%ADD13C,0.251966*%
%ADD14C,2.032000*%
%ADD15C,0.939800*%
%ADD16C,1.152400*%
%ADD17C,2.184400*%
%ADD18C,0.914400*%
%ADD19C,1.270000*%
%ADD20C,1.652400*%

G36*
X534735Y452132D02*
X534735Y452132D01*
X534801Y452134D01*
X534844Y452152D01*
X534891Y452160D01*
X534948Y452194D01*
X535008Y452219D01*
X535043Y452250D01*
X535084Y452275D01*
X535126Y452326D01*
X535174Y452370D01*
X535196Y452412D01*
X535225Y452449D01*
X535246Y452511D01*
X535277Y452570D01*
X535285Y452624D01*
X535297Y452661D01*
X535296Y452701D01*
X535304Y452755D01*
X535304Y456565D01*
X535293Y456630D01*
X535291Y456696D01*
X535273Y456739D01*
X535265Y456786D01*
X535231Y456843D01*
X535206Y456903D01*
X535175Y456938D01*
X535150Y456979D01*
X535099Y457021D01*
X535055Y457069D01*
X535013Y457091D01*
X534976Y457120D01*
X534914Y457141D01*
X534855Y457172D01*
X534801Y457180D01*
X534764Y457192D01*
X534724Y457191D01*
X534670Y457199D01*
X532130Y457199D01*
X532065Y457188D01*
X531999Y457186D01*
X531956Y457168D01*
X531909Y457160D01*
X531852Y457126D01*
X531792Y457101D01*
X531757Y457070D01*
X531716Y457045D01*
X531675Y456994D01*
X531626Y456950D01*
X531604Y456908D01*
X531575Y456871D01*
X531554Y456809D01*
X531523Y456750D01*
X531515Y456696D01*
X531503Y456659D01*
X531503Y456655D01*
X531503Y456654D01*
X531504Y456619D01*
X531496Y456565D01*
X531496Y452755D01*
X531507Y452690D01*
X531509Y452624D01*
X531527Y452581D01*
X531535Y452534D01*
X531569Y452477D01*
X531594Y452417D01*
X531625Y452382D01*
X531650Y452341D01*
X531701Y452300D01*
X531745Y452251D01*
X531787Y452229D01*
X531824Y452200D01*
X531886Y452179D01*
X531945Y452148D01*
X531999Y452140D01*
X532036Y452128D01*
X532076Y452129D01*
X532130Y452121D01*
X534670Y452121D01*
X534735Y452132D01*
G37*
G36*
X2038415Y452132D02*
X2038415Y452132D01*
X2038481Y452134D01*
X2038524Y452152D01*
X2038571Y452160D01*
X2038628Y452194D01*
X2038688Y452219D01*
X2038723Y452250D01*
X2038764Y452275D01*
X2038806Y452326D01*
X2038854Y452370D01*
X2038876Y452412D01*
X2038905Y452449D01*
X2038926Y452511D01*
X2038957Y452570D01*
X2038965Y452624D01*
X2038977Y452661D01*
X2038976Y452701D01*
X2038984Y452755D01*
X2038984Y456565D01*
X2038973Y456630D01*
X2038971Y456696D01*
X2038953Y456739D01*
X2038945Y456786D01*
X2038911Y456843D01*
X2038886Y456903D01*
X2038855Y456938D01*
X2038830Y456979D01*
X2038779Y457021D01*
X2038735Y457069D01*
X2038693Y457091D01*
X2038656Y457120D01*
X2038594Y457141D01*
X2038535Y457172D01*
X2038481Y457180D01*
X2038444Y457192D01*
X2038404Y457191D01*
X2038350Y457199D01*
X2035810Y457199D01*
X2035745Y457188D01*
X2035679Y457186D01*
X2035636Y457168D01*
X2035589Y457160D01*
X2035532Y457126D01*
X2035472Y457101D01*
X2035437Y457070D01*
X2035396Y457045D01*
X2035355Y456994D01*
X2035306Y456950D01*
X2035284Y456908D01*
X2035255Y456871D01*
X2035234Y456809D01*
X2035203Y456750D01*
X2035195Y456696D01*
X2035183Y456659D01*
X2035183Y456655D01*
X2035183Y456654D01*
X2035184Y456619D01*
X2035176Y456565D01*
X2035176Y452755D01*
X2035187Y452690D01*
X2035189Y452624D01*
X2035207Y452581D01*
X2035215Y452534D01*
X2035249Y452477D01*
X2035274Y452417D01*
X2035305Y452382D01*
X2035330Y452341D01*
X2035381Y452300D01*
X2035425Y452251D01*
X2035467Y452229D01*
X2035504Y452200D01*
X2035566Y452179D01*
X2035625Y452148D01*
X2035679Y452140D01*
X2035716Y452128D01*
X2035756Y452129D01*
X2035810Y452121D01*
X2038350Y452121D01*
X2038415Y452132D01*
G37*
G36*
X560135Y452132D02*
X560135Y452132D01*
X560201Y452134D01*
X560244Y452152D01*
X560291Y452160D01*
X560348Y452194D01*
X560408Y452219D01*
X560443Y452250D01*
X560484Y452275D01*
X560526Y452326D01*
X560574Y452370D01*
X560596Y452412D01*
X560625Y452449D01*
X560646Y452511D01*
X560677Y452570D01*
X560685Y452624D01*
X560697Y452661D01*
X560696Y452701D01*
X560704Y452755D01*
X560704Y456565D01*
X560693Y456630D01*
X560691Y456696D01*
X560673Y456739D01*
X560665Y456786D01*
X560631Y456843D01*
X560606Y456903D01*
X560575Y456938D01*
X560550Y456979D01*
X560499Y457021D01*
X560455Y457069D01*
X560413Y457091D01*
X560376Y457120D01*
X560314Y457141D01*
X560255Y457172D01*
X560201Y457180D01*
X560164Y457192D01*
X560124Y457191D01*
X560070Y457199D01*
X557530Y457199D01*
X557465Y457188D01*
X557399Y457186D01*
X557356Y457168D01*
X557309Y457160D01*
X557252Y457126D01*
X557192Y457101D01*
X557157Y457070D01*
X557116Y457045D01*
X557075Y456994D01*
X557026Y456950D01*
X557004Y456908D01*
X556975Y456871D01*
X556954Y456809D01*
X556923Y456750D01*
X556915Y456696D01*
X556903Y456659D01*
X556903Y456655D01*
X556903Y456654D01*
X556904Y456619D01*
X556896Y456565D01*
X556896Y452755D01*
X556907Y452690D01*
X556909Y452624D01*
X556927Y452581D01*
X556935Y452534D01*
X556969Y452477D01*
X556994Y452417D01*
X557025Y452382D01*
X557050Y452341D01*
X557101Y452300D01*
X557145Y452251D01*
X557187Y452229D01*
X557224Y452200D01*
X557286Y452179D01*
X557345Y452148D01*
X557399Y452140D01*
X557436Y452128D01*
X557476Y452129D01*
X557530Y452121D01*
X560070Y452121D01*
X560135Y452132D01*
G37*
G36*
X2013015Y452132D02*
X2013015Y452132D01*
X2013081Y452134D01*
X2013124Y452152D01*
X2013171Y452160D01*
X2013228Y452194D01*
X2013288Y452219D01*
X2013323Y452250D01*
X2013364Y452275D01*
X2013406Y452326D01*
X2013454Y452370D01*
X2013476Y452412D01*
X2013505Y452449D01*
X2013526Y452511D01*
X2013557Y452570D01*
X2013565Y452624D01*
X2013577Y452661D01*
X2013576Y452701D01*
X2013584Y452755D01*
X2013584Y456565D01*
X2013573Y456630D01*
X2013571Y456696D01*
X2013553Y456739D01*
X2013545Y456786D01*
X2013511Y456843D01*
X2013486Y456903D01*
X2013455Y456938D01*
X2013430Y456979D01*
X2013379Y457021D01*
X2013335Y457069D01*
X2013293Y457091D01*
X2013256Y457120D01*
X2013194Y457141D01*
X2013135Y457172D01*
X2013081Y457180D01*
X2013044Y457192D01*
X2013004Y457191D01*
X2012950Y457199D01*
X2010410Y457199D01*
X2010345Y457188D01*
X2010279Y457186D01*
X2010236Y457168D01*
X2010189Y457160D01*
X2010132Y457126D01*
X2010072Y457101D01*
X2010037Y457070D01*
X2009996Y457045D01*
X2009955Y456994D01*
X2009906Y456950D01*
X2009884Y456908D01*
X2009855Y456871D01*
X2009834Y456809D01*
X2009803Y456750D01*
X2009795Y456696D01*
X2009783Y456659D01*
X2009783Y456655D01*
X2009783Y456654D01*
X2009784Y456619D01*
X2009776Y456565D01*
X2009776Y452755D01*
X2009787Y452690D01*
X2009789Y452624D01*
X2009807Y452581D01*
X2009815Y452534D01*
X2009849Y452477D01*
X2009874Y452417D01*
X2009905Y452382D01*
X2009930Y452341D01*
X2009981Y452300D01*
X2010025Y452251D01*
X2010067Y452229D01*
X2010104Y452200D01*
X2010166Y452179D01*
X2010225Y452148D01*
X2010279Y452140D01*
X2010316Y452128D01*
X2010356Y452129D01*
X2010410Y452121D01*
X2012950Y452121D01*
X2013015Y452132D01*
G37*
G36*
X1273875Y452132D02*
X1273875Y452132D01*
X1273941Y452134D01*
X1273984Y452152D01*
X1274031Y452160D01*
X1274088Y452194D01*
X1274148Y452219D01*
X1274183Y452250D01*
X1274224Y452275D01*
X1274266Y452326D01*
X1274314Y452370D01*
X1274336Y452412D01*
X1274365Y452449D01*
X1274386Y452511D01*
X1274417Y452570D01*
X1274425Y452624D01*
X1274437Y452661D01*
X1274436Y452701D01*
X1274444Y452755D01*
X1274444Y456565D01*
X1274433Y456630D01*
X1274431Y456696D01*
X1274413Y456739D01*
X1274405Y456786D01*
X1274371Y456843D01*
X1274346Y456903D01*
X1274315Y456938D01*
X1274290Y456979D01*
X1274239Y457021D01*
X1274195Y457069D01*
X1274153Y457091D01*
X1274116Y457120D01*
X1274054Y457141D01*
X1273995Y457172D01*
X1273941Y457180D01*
X1273904Y457192D01*
X1273864Y457191D01*
X1273810Y457199D01*
X1271270Y457199D01*
X1271205Y457188D01*
X1271139Y457186D01*
X1271096Y457168D01*
X1271049Y457160D01*
X1270992Y457126D01*
X1270932Y457101D01*
X1270897Y457070D01*
X1270856Y457045D01*
X1270815Y456994D01*
X1270766Y456950D01*
X1270744Y456908D01*
X1270715Y456871D01*
X1270694Y456809D01*
X1270663Y456750D01*
X1270655Y456696D01*
X1270643Y456659D01*
X1270643Y456655D01*
X1270643Y456654D01*
X1270644Y456619D01*
X1270636Y456565D01*
X1270636Y452755D01*
X1270647Y452690D01*
X1270649Y452624D01*
X1270667Y452581D01*
X1270675Y452534D01*
X1270709Y452477D01*
X1270734Y452417D01*
X1270765Y452382D01*
X1270790Y452341D01*
X1270841Y452300D01*
X1270885Y452251D01*
X1270927Y452229D01*
X1270964Y452200D01*
X1271026Y452179D01*
X1271085Y452148D01*
X1271139Y452140D01*
X1271176Y452128D01*
X1271216Y452129D01*
X1271270Y452121D01*
X1273810Y452121D01*
X1273875Y452132D01*
G37*
G36*
X1299275Y452132D02*
X1299275Y452132D01*
X1299341Y452134D01*
X1299384Y452152D01*
X1299431Y452160D01*
X1299488Y452194D01*
X1299548Y452219D01*
X1299583Y452250D01*
X1299624Y452275D01*
X1299666Y452326D01*
X1299714Y452370D01*
X1299736Y452412D01*
X1299765Y452449D01*
X1299786Y452511D01*
X1299817Y452570D01*
X1299825Y452624D01*
X1299837Y452661D01*
X1299836Y452701D01*
X1299844Y452755D01*
X1299844Y456565D01*
X1299833Y456630D01*
X1299831Y456696D01*
X1299813Y456739D01*
X1299805Y456786D01*
X1299771Y456843D01*
X1299746Y456903D01*
X1299715Y456938D01*
X1299690Y456979D01*
X1299639Y457021D01*
X1299595Y457069D01*
X1299553Y457091D01*
X1299516Y457120D01*
X1299454Y457141D01*
X1299395Y457172D01*
X1299341Y457180D01*
X1299304Y457192D01*
X1299264Y457191D01*
X1299210Y457199D01*
X1296670Y457199D01*
X1296605Y457188D01*
X1296539Y457186D01*
X1296496Y457168D01*
X1296449Y457160D01*
X1296392Y457126D01*
X1296332Y457101D01*
X1296297Y457070D01*
X1296256Y457045D01*
X1296215Y456994D01*
X1296166Y456950D01*
X1296144Y456908D01*
X1296115Y456871D01*
X1296094Y456809D01*
X1296063Y456750D01*
X1296055Y456696D01*
X1296043Y456659D01*
X1296043Y456655D01*
X1296043Y456654D01*
X1296044Y456619D01*
X1296036Y456565D01*
X1296036Y452755D01*
X1296047Y452690D01*
X1296049Y452624D01*
X1296067Y452581D01*
X1296075Y452534D01*
X1296109Y452477D01*
X1296134Y452417D01*
X1296165Y452382D01*
X1296190Y452341D01*
X1296241Y452300D01*
X1296285Y452251D01*
X1296327Y452229D01*
X1296364Y452200D01*
X1296426Y452179D01*
X1296485Y452148D01*
X1296539Y452140D01*
X1296576Y452128D01*
X1296616Y452129D01*
X1296670Y452121D01*
X1299210Y452121D01*
X1299275Y452132D01*
G37*
G36*
X2013015Y2219972D02*
X2013015Y2219972D01*
X2013081Y2219974D01*
X2013124Y2219992D01*
X2013171Y2220000D01*
X2013228Y2220034D01*
X2013288Y2220059D01*
X2013323Y2220090D01*
X2013364Y2220115D01*
X2013406Y2220166D01*
X2013454Y2220210D01*
X2013476Y2220252D01*
X2013505Y2220289D01*
X2013526Y2220351D01*
X2013557Y2220410D01*
X2013565Y2220464D01*
X2013577Y2220501D01*
X2013576Y2220541D01*
X2013584Y2220595D01*
X2013584Y2224405D01*
X2013573Y2224470D01*
X2013571Y2224536D01*
X2013553Y2224579D01*
X2013545Y2224626D01*
X2013511Y2224683D01*
X2013486Y2224743D01*
X2013455Y2224778D01*
X2013430Y2224819D01*
X2013379Y2224861D01*
X2013335Y2224909D01*
X2013293Y2224931D01*
X2013256Y2224960D01*
X2013194Y2224981D01*
X2013135Y2225012D01*
X2013081Y2225020D01*
X2013044Y2225032D01*
X2013004Y2225031D01*
X2012950Y2225039D01*
X2010410Y2225039D01*
X2010345Y2225028D01*
X2010279Y2225026D01*
X2010236Y2225008D01*
X2010189Y2225000D01*
X2010132Y2224966D01*
X2010072Y2224941D01*
X2010037Y2224910D01*
X2009996Y2224885D01*
X2009955Y2224834D01*
X2009906Y2224790D01*
X2009884Y2224748D01*
X2009855Y2224711D01*
X2009834Y2224649D01*
X2009803Y2224590D01*
X2009795Y2224536D01*
X2009783Y2224499D01*
X2009783Y2224495D01*
X2009783Y2224494D01*
X2009784Y2224459D01*
X2009776Y2224405D01*
X2009776Y2220595D01*
X2009787Y2220530D01*
X2009789Y2220464D01*
X2009807Y2220421D01*
X2009815Y2220374D01*
X2009849Y2220317D01*
X2009874Y2220257D01*
X2009905Y2220222D01*
X2009930Y2220181D01*
X2009981Y2220140D01*
X2010025Y2220091D01*
X2010067Y2220069D01*
X2010104Y2220040D01*
X2010166Y2220019D01*
X2010225Y2219988D01*
X2010279Y2219980D01*
X2010316Y2219968D01*
X2010356Y2219969D01*
X2010410Y2219961D01*
X2012950Y2219961D01*
X2013015Y2219972D01*
G37*
G36*
X1273875Y2219972D02*
X1273875Y2219972D01*
X1273941Y2219974D01*
X1273984Y2219992D01*
X1274031Y2220000D01*
X1274088Y2220034D01*
X1274148Y2220059D01*
X1274183Y2220090D01*
X1274224Y2220115D01*
X1274266Y2220166D01*
X1274314Y2220210D01*
X1274336Y2220252D01*
X1274365Y2220289D01*
X1274386Y2220351D01*
X1274417Y2220410D01*
X1274425Y2220464D01*
X1274437Y2220501D01*
X1274436Y2220541D01*
X1274444Y2220595D01*
X1274444Y2224405D01*
X1274433Y2224470D01*
X1274431Y2224536D01*
X1274413Y2224579D01*
X1274405Y2224626D01*
X1274371Y2224683D01*
X1274346Y2224743D01*
X1274315Y2224778D01*
X1274290Y2224819D01*
X1274239Y2224861D01*
X1274195Y2224909D01*
X1274153Y2224931D01*
X1274116Y2224960D01*
X1274054Y2224981D01*
X1273995Y2225012D01*
X1273941Y2225020D01*
X1273904Y2225032D01*
X1273864Y2225031D01*
X1273810Y2225039D01*
X1271270Y2225039D01*
X1271205Y2225028D01*
X1271139Y2225026D01*
X1271096Y2225008D01*
X1271049Y2225000D01*
X1270992Y2224966D01*
X1270932Y2224941D01*
X1270897Y2224910D01*
X1270856Y2224885D01*
X1270815Y2224834D01*
X1270766Y2224790D01*
X1270744Y2224748D01*
X1270715Y2224711D01*
X1270694Y2224649D01*
X1270663Y2224590D01*
X1270655Y2224536D01*
X1270643Y2224499D01*
X1270643Y2224495D01*
X1270643Y2224494D01*
X1270644Y2224459D01*
X1270636Y2224405D01*
X1270636Y2220595D01*
X1270647Y2220530D01*
X1270649Y2220464D01*
X1270667Y2220421D01*
X1270675Y2220374D01*
X1270709Y2220317D01*
X1270734Y2220257D01*
X1270765Y2220222D01*
X1270790Y2220181D01*
X1270841Y2220140D01*
X1270885Y2220091D01*
X1270927Y2220069D01*
X1270964Y2220040D01*
X1271026Y2220019D01*
X1271085Y2219988D01*
X1271139Y2219980D01*
X1271176Y2219968D01*
X1271216Y2219969D01*
X1271270Y2219961D01*
X1273810Y2219961D01*
X1273875Y2219972D01*
G37*
G36*
X560135Y2219972D02*
X560135Y2219972D01*
X560201Y2219974D01*
X560244Y2219992D01*
X560291Y2220000D01*
X560348Y2220034D01*
X560408Y2220059D01*
X560443Y2220090D01*
X560484Y2220115D01*
X560526Y2220166D01*
X560574Y2220210D01*
X560596Y2220252D01*
X560625Y2220289D01*
X560646Y2220351D01*
X560677Y2220410D01*
X560685Y2220464D01*
X560697Y2220501D01*
X560696Y2220541D01*
X560704Y2220595D01*
X560704Y2224405D01*
X560693Y2224470D01*
X560691Y2224536D01*
X560673Y2224579D01*
X560665Y2224626D01*
X560631Y2224683D01*
X560606Y2224743D01*
X560575Y2224778D01*
X560550Y2224819D01*
X560499Y2224861D01*
X560455Y2224909D01*
X560413Y2224931D01*
X560376Y2224960D01*
X560314Y2224981D01*
X560255Y2225012D01*
X560201Y2225020D01*
X560164Y2225032D01*
X560124Y2225031D01*
X560070Y2225039D01*
X557530Y2225039D01*
X557465Y2225028D01*
X557399Y2225026D01*
X557356Y2225008D01*
X557309Y2225000D01*
X557252Y2224966D01*
X557192Y2224941D01*
X557157Y2224910D01*
X557116Y2224885D01*
X557075Y2224834D01*
X557026Y2224790D01*
X557004Y2224748D01*
X556975Y2224711D01*
X556954Y2224649D01*
X556923Y2224590D01*
X556915Y2224536D01*
X556903Y2224499D01*
X556903Y2224495D01*
X556903Y2224494D01*
X556904Y2224459D01*
X556896Y2224405D01*
X556896Y2220595D01*
X556907Y2220530D01*
X556909Y2220464D01*
X556927Y2220421D01*
X556935Y2220374D01*
X556969Y2220317D01*
X556994Y2220257D01*
X557025Y2220222D01*
X557050Y2220181D01*
X557101Y2220140D01*
X557145Y2220091D01*
X557187Y2220069D01*
X557224Y2220040D01*
X557286Y2220019D01*
X557345Y2219988D01*
X557399Y2219980D01*
X557436Y2219968D01*
X557476Y2219969D01*
X557530Y2219961D01*
X560070Y2219961D01*
X560135Y2219972D01*
G37*
G36*
X534735Y2219972D02*
X534735Y2219972D01*
X534801Y2219974D01*
X534844Y2219992D01*
X534891Y2220000D01*
X534948Y2220034D01*
X535008Y2220059D01*
X535043Y2220090D01*
X535084Y2220115D01*
X535126Y2220166D01*
X535174Y2220210D01*
X535196Y2220252D01*
X535225Y2220289D01*
X535246Y2220351D01*
X535277Y2220410D01*
X535285Y2220464D01*
X535297Y2220501D01*
X535296Y2220541D01*
X535304Y2220595D01*
X535304Y2224405D01*
X535293Y2224470D01*
X535291Y2224536D01*
X535273Y2224579D01*
X535265Y2224626D01*
X535231Y2224683D01*
X535206Y2224743D01*
X535175Y2224778D01*
X535150Y2224819D01*
X535099Y2224861D01*
X535055Y2224909D01*
X535013Y2224931D01*
X534976Y2224960D01*
X534914Y2224981D01*
X534855Y2225012D01*
X534801Y2225020D01*
X534764Y2225032D01*
X534724Y2225031D01*
X534670Y2225039D01*
X532130Y2225039D01*
X532065Y2225028D01*
X531999Y2225026D01*
X531956Y2225008D01*
X531909Y2225000D01*
X531852Y2224966D01*
X531792Y2224941D01*
X531757Y2224910D01*
X531716Y2224885D01*
X531675Y2224834D01*
X531626Y2224790D01*
X531604Y2224748D01*
X531575Y2224711D01*
X531554Y2224649D01*
X531523Y2224590D01*
X531515Y2224536D01*
X531503Y2224499D01*
X531503Y2224495D01*
X531503Y2224494D01*
X531504Y2224459D01*
X531496Y2224405D01*
X531496Y2220595D01*
X531507Y2220530D01*
X531509Y2220464D01*
X531527Y2220421D01*
X531535Y2220374D01*
X531569Y2220317D01*
X531594Y2220257D01*
X531625Y2220222D01*
X531650Y2220181D01*
X531701Y2220140D01*
X531745Y2220091D01*
X531787Y2220069D01*
X531824Y2220040D01*
X531886Y2220019D01*
X531945Y2219988D01*
X531999Y2219980D01*
X532036Y2219968D01*
X532076Y2219969D01*
X532130Y2219961D01*
X534670Y2219961D01*
X534735Y2219972D01*
G37*
G36*
X2038415Y2219972D02*
X2038415Y2219972D01*
X2038481Y2219974D01*
X2038524Y2219992D01*
X2038571Y2220000D01*
X2038628Y2220034D01*
X2038688Y2220059D01*
X2038723Y2220090D01*
X2038764Y2220115D01*
X2038806Y2220166D01*
X2038854Y2220210D01*
X2038876Y2220252D01*
X2038905Y2220289D01*
X2038926Y2220351D01*
X2038957Y2220410D01*
X2038965Y2220464D01*
X2038977Y2220501D01*
X2038976Y2220541D01*
X2038984Y2220595D01*
X2038984Y2224405D01*
X2038973Y2224470D01*
X2038971Y2224536D01*
X2038953Y2224579D01*
X2038945Y2224626D01*
X2038911Y2224683D01*
X2038886Y2224743D01*
X2038855Y2224778D01*
X2038830Y2224819D01*
X2038779Y2224861D01*
X2038735Y2224909D01*
X2038693Y2224931D01*
X2038656Y2224960D01*
X2038594Y2224981D01*
X2038535Y2225012D01*
X2038481Y2225020D01*
X2038444Y2225032D01*
X2038404Y2225031D01*
X2038350Y2225039D01*
X2035810Y2225039D01*
X2035745Y2225028D01*
X2035679Y2225026D01*
X2035636Y2225008D01*
X2035589Y2225000D01*
X2035532Y2224966D01*
X2035472Y2224941D01*
X2035437Y2224910D01*
X2035396Y2224885D01*
X2035355Y2224834D01*
X2035306Y2224790D01*
X2035284Y2224748D01*
X2035255Y2224711D01*
X2035234Y2224649D01*
X2035203Y2224590D01*
X2035195Y2224536D01*
X2035183Y2224499D01*
X2035183Y2224495D01*
X2035183Y2224494D01*
X2035184Y2224459D01*
X2035176Y2224405D01*
X2035176Y2220595D01*
X2035187Y2220530D01*
X2035189Y2220464D01*
X2035207Y2220421D01*
X2035215Y2220374D01*
X2035249Y2220317D01*
X2035274Y2220257D01*
X2035305Y2220222D01*
X2035330Y2220181D01*
X2035381Y2220140D01*
X2035425Y2220091D01*
X2035467Y2220069D01*
X2035504Y2220040D01*
X2035566Y2220019D01*
X2035625Y2219988D01*
X2035679Y2219980D01*
X2035716Y2219968D01*
X2035756Y2219969D01*
X2035810Y2219961D01*
X2038350Y2219961D01*
X2038415Y2219972D01*
G37*
G36*
X1299275Y2219972D02*
X1299275Y2219972D01*
X1299341Y2219974D01*
X1299384Y2219992D01*
X1299431Y2220000D01*
X1299488Y2220034D01*
X1299548Y2220059D01*
X1299583Y2220090D01*
X1299624Y2220115D01*
X1299666Y2220166D01*
X1299714Y2220210D01*
X1299736Y2220252D01*
X1299765Y2220289D01*
X1299786Y2220351D01*
X1299817Y2220410D01*
X1299825Y2220464D01*
X1299837Y2220501D01*
X1299836Y2220541D01*
X1299844Y2220595D01*
X1299844Y2224405D01*
X1299833Y2224470D01*
X1299831Y2224536D01*
X1299813Y2224579D01*
X1299805Y2224626D01*
X1299771Y2224683D01*
X1299746Y2224743D01*
X1299715Y2224778D01*
X1299690Y2224819D01*
X1299639Y2224861D01*
X1299595Y2224909D01*
X1299553Y2224931D01*
X1299516Y2224960D01*
X1299454Y2224981D01*
X1299395Y2225012D01*
X1299341Y2225020D01*
X1299304Y2225032D01*
X1299264Y2225031D01*
X1299210Y2225039D01*
X1296670Y2225039D01*
X1296605Y2225028D01*
X1296539Y2225026D01*
X1296496Y2225008D01*
X1296449Y2225000D01*
X1296392Y2224966D01*
X1296332Y2224941D01*
X1296297Y2224910D01*
X1296256Y2224885D01*
X1296215Y2224834D01*
X1296166Y2224790D01*
X1296144Y2224748D01*
X1296115Y2224711D01*
X1296094Y2224649D01*
X1296063Y2224590D01*
X1296055Y2224536D01*
X1296043Y2224499D01*
X1296043Y2224495D01*
X1296043Y2224494D01*
X1296044Y2224459D01*
X1296036Y2224405D01*
X1296036Y2220595D01*
X1296047Y2220530D01*
X1296049Y2220464D01*
X1296067Y2220421D01*
X1296075Y2220374D01*
X1296109Y2220317D01*
X1296134Y2220257D01*
X1296165Y2220222D01*
X1296190Y2220181D01*
X1296241Y2220140D01*
X1296285Y2220091D01*
X1296327Y2220069D01*
X1296364Y2220040D01*
X1296426Y2220019D01*
X1296485Y2219988D01*
X1296539Y2219980D01*
X1296576Y2219968D01*
X1296616Y2219969D01*
X1296670Y2219961D01*
X1299210Y2219961D01*
X1299275Y2219972D01*
G37*
G36*
X2089215Y2218702D02*
X2089215Y2218702D01*
X2089281Y2218704D01*
X2089324Y2218722D01*
X2089371Y2218730D01*
X2089428Y2218764D01*
X2089488Y2218789D01*
X2089523Y2218820D01*
X2089564Y2218845D01*
X2089606Y2218896D01*
X2089654Y2218940D01*
X2089676Y2218982D01*
X2089705Y2219019D01*
X2089726Y2219081D01*
X2089757Y2219140D01*
X2089765Y2219194D01*
X2089777Y2219231D01*
X2089776Y2219271D01*
X2089784Y2219325D01*
X2089784Y2223135D01*
X2089773Y2223200D01*
X2089771Y2223266D01*
X2089753Y2223309D01*
X2089745Y2223356D01*
X2089711Y2223413D01*
X2089686Y2223473D01*
X2089655Y2223508D01*
X2089630Y2223549D01*
X2089579Y2223591D01*
X2089535Y2223639D01*
X2089493Y2223661D01*
X2089456Y2223690D01*
X2089394Y2223711D01*
X2089335Y2223742D01*
X2089281Y2223750D01*
X2089244Y2223762D01*
X2089204Y2223761D01*
X2089150Y2223769D01*
X2086610Y2223769D01*
X2086545Y2223758D01*
X2086479Y2223756D01*
X2086436Y2223738D01*
X2086389Y2223730D01*
X2086332Y2223696D01*
X2086272Y2223671D01*
X2086237Y2223640D01*
X2086196Y2223615D01*
X2086155Y2223564D01*
X2086106Y2223520D01*
X2086084Y2223478D01*
X2086055Y2223441D01*
X2086034Y2223379D01*
X2086003Y2223320D01*
X2085995Y2223266D01*
X2085983Y2223229D01*
X2085983Y2223225D01*
X2085983Y2223224D01*
X2085984Y2223189D01*
X2085976Y2223135D01*
X2085976Y2219325D01*
X2085987Y2219260D01*
X2085989Y2219194D01*
X2086007Y2219151D01*
X2086015Y2219104D01*
X2086049Y2219047D01*
X2086074Y2218987D01*
X2086105Y2218952D01*
X2086130Y2218911D01*
X2086181Y2218870D01*
X2086225Y2218821D01*
X2086267Y2218799D01*
X2086304Y2218770D01*
X2086366Y2218749D01*
X2086425Y2218718D01*
X2086479Y2218710D01*
X2086516Y2218698D01*
X2086556Y2218699D01*
X2086610Y2218691D01*
X2089150Y2218691D01*
X2089215Y2218702D01*
G37*
G36*
X1350075Y2218702D02*
X1350075Y2218702D01*
X1350141Y2218704D01*
X1350184Y2218722D01*
X1350231Y2218730D01*
X1350288Y2218764D01*
X1350348Y2218789D01*
X1350383Y2218820D01*
X1350424Y2218845D01*
X1350466Y2218896D01*
X1350514Y2218940D01*
X1350536Y2218982D01*
X1350565Y2219019D01*
X1350586Y2219081D01*
X1350617Y2219140D01*
X1350625Y2219194D01*
X1350637Y2219231D01*
X1350636Y2219271D01*
X1350644Y2219325D01*
X1350644Y2223135D01*
X1350633Y2223200D01*
X1350631Y2223266D01*
X1350613Y2223309D01*
X1350605Y2223356D01*
X1350571Y2223413D01*
X1350546Y2223473D01*
X1350515Y2223508D01*
X1350490Y2223549D01*
X1350439Y2223591D01*
X1350395Y2223639D01*
X1350353Y2223661D01*
X1350316Y2223690D01*
X1350254Y2223711D01*
X1350195Y2223742D01*
X1350141Y2223750D01*
X1350104Y2223762D01*
X1350064Y2223761D01*
X1350010Y2223769D01*
X1347470Y2223769D01*
X1347405Y2223758D01*
X1347339Y2223756D01*
X1347296Y2223738D01*
X1347249Y2223730D01*
X1347192Y2223696D01*
X1347132Y2223671D01*
X1347097Y2223640D01*
X1347056Y2223615D01*
X1347015Y2223564D01*
X1346966Y2223520D01*
X1346944Y2223478D01*
X1346915Y2223441D01*
X1346894Y2223379D01*
X1346863Y2223320D01*
X1346855Y2223266D01*
X1346843Y2223229D01*
X1346843Y2223225D01*
X1346843Y2223224D01*
X1346844Y2223189D01*
X1346836Y2223135D01*
X1346836Y2219325D01*
X1346847Y2219260D01*
X1346849Y2219194D01*
X1346867Y2219151D01*
X1346875Y2219104D01*
X1346909Y2219047D01*
X1346934Y2218987D01*
X1346965Y2218952D01*
X1346990Y2218911D01*
X1347041Y2218870D01*
X1347085Y2218821D01*
X1347127Y2218799D01*
X1347164Y2218770D01*
X1347226Y2218749D01*
X1347285Y2218718D01*
X1347339Y2218710D01*
X1347376Y2218698D01*
X1347416Y2218699D01*
X1347470Y2218691D01*
X1350010Y2218691D01*
X1350075Y2218702D01*
G37*
G36*
X610935Y2218702D02*
X610935Y2218702D01*
X611001Y2218704D01*
X611044Y2218722D01*
X611091Y2218730D01*
X611148Y2218764D01*
X611208Y2218789D01*
X611243Y2218820D01*
X611284Y2218845D01*
X611326Y2218896D01*
X611374Y2218940D01*
X611396Y2218982D01*
X611425Y2219019D01*
X611446Y2219081D01*
X611477Y2219140D01*
X611485Y2219194D01*
X611497Y2219231D01*
X611496Y2219271D01*
X611504Y2219325D01*
X611504Y2223135D01*
X611493Y2223200D01*
X611491Y2223266D01*
X611473Y2223309D01*
X611465Y2223356D01*
X611431Y2223413D01*
X611406Y2223473D01*
X611375Y2223508D01*
X611350Y2223549D01*
X611299Y2223591D01*
X611255Y2223639D01*
X611213Y2223661D01*
X611176Y2223690D01*
X611114Y2223711D01*
X611055Y2223742D01*
X611001Y2223750D01*
X610964Y2223762D01*
X610924Y2223761D01*
X610870Y2223769D01*
X608330Y2223769D01*
X608265Y2223758D01*
X608199Y2223756D01*
X608156Y2223738D01*
X608109Y2223730D01*
X608052Y2223696D01*
X607992Y2223671D01*
X607957Y2223640D01*
X607916Y2223615D01*
X607875Y2223564D01*
X607826Y2223520D01*
X607804Y2223478D01*
X607775Y2223441D01*
X607754Y2223379D01*
X607723Y2223320D01*
X607715Y2223266D01*
X607703Y2223229D01*
X607703Y2223225D01*
X607703Y2223224D01*
X607704Y2223189D01*
X607696Y2223135D01*
X607696Y2219325D01*
X607707Y2219260D01*
X607709Y2219194D01*
X607727Y2219151D01*
X607735Y2219104D01*
X607769Y2219047D01*
X607794Y2218987D01*
X607825Y2218952D01*
X607850Y2218911D01*
X607901Y2218870D01*
X607945Y2218821D01*
X607987Y2218799D01*
X608024Y2218770D01*
X608086Y2218749D01*
X608145Y2218718D01*
X608199Y2218710D01*
X608236Y2218698D01*
X608276Y2218699D01*
X608330Y2218691D01*
X610870Y2218691D01*
X610935Y2218702D01*
G37*
G36*
X1350075Y2208542D02*
X1350075Y2208542D01*
X1350141Y2208544D01*
X1350184Y2208562D01*
X1350231Y2208570D01*
X1350288Y2208604D01*
X1350348Y2208629D01*
X1350383Y2208660D01*
X1350424Y2208685D01*
X1350466Y2208736D01*
X1350514Y2208780D01*
X1350536Y2208822D01*
X1350565Y2208859D01*
X1350586Y2208921D01*
X1350617Y2208980D01*
X1350625Y2209034D01*
X1350637Y2209071D01*
X1350636Y2209111D01*
X1350644Y2209165D01*
X1350644Y2212975D01*
X1350633Y2213040D01*
X1350631Y2213106D01*
X1350613Y2213149D01*
X1350605Y2213196D01*
X1350571Y2213253D01*
X1350546Y2213313D01*
X1350515Y2213348D01*
X1350490Y2213389D01*
X1350439Y2213431D01*
X1350395Y2213479D01*
X1350353Y2213501D01*
X1350316Y2213530D01*
X1350254Y2213551D01*
X1350195Y2213582D01*
X1350141Y2213590D01*
X1350104Y2213602D01*
X1350064Y2213601D01*
X1350010Y2213609D01*
X1347470Y2213609D01*
X1347405Y2213598D01*
X1347339Y2213596D01*
X1347296Y2213578D01*
X1347249Y2213570D01*
X1347192Y2213536D01*
X1347132Y2213511D01*
X1347097Y2213480D01*
X1347056Y2213455D01*
X1347015Y2213404D01*
X1346966Y2213360D01*
X1346944Y2213318D01*
X1346915Y2213281D01*
X1346894Y2213219D01*
X1346863Y2213160D01*
X1346855Y2213106D01*
X1346843Y2213069D01*
X1346843Y2213065D01*
X1346843Y2213064D01*
X1346844Y2213029D01*
X1346836Y2212975D01*
X1346836Y2209165D01*
X1346847Y2209100D01*
X1346849Y2209034D01*
X1346867Y2208991D01*
X1346875Y2208944D01*
X1346909Y2208887D01*
X1346934Y2208827D01*
X1346965Y2208792D01*
X1346990Y2208751D01*
X1347041Y2208710D01*
X1347085Y2208661D01*
X1347127Y2208639D01*
X1347164Y2208610D01*
X1347226Y2208589D01*
X1347285Y2208558D01*
X1347339Y2208550D01*
X1347376Y2208538D01*
X1347416Y2208539D01*
X1347470Y2208531D01*
X1350010Y2208531D01*
X1350075Y2208542D01*
G37*
G36*
X2089215Y2208542D02*
X2089215Y2208542D01*
X2089281Y2208544D01*
X2089324Y2208562D01*
X2089371Y2208570D01*
X2089428Y2208604D01*
X2089488Y2208629D01*
X2089523Y2208660D01*
X2089564Y2208685D01*
X2089606Y2208736D01*
X2089654Y2208780D01*
X2089676Y2208822D01*
X2089705Y2208859D01*
X2089726Y2208921D01*
X2089757Y2208980D01*
X2089765Y2209034D01*
X2089777Y2209071D01*
X2089776Y2209111D01*
X2089784Y2209165D01*
X2089784Y2212975D01*
X2089773Y2213040D01*
X2089771Y2213106D01*
X2089753Y2213149D01*
X2089745Y2213196D01*
X2089711Y2213253D01*
X2089686Y2213313D01*
X2089655Y2213348D01*
X2089630Y2213389D01*
X2089579Y2213431D01*
X2089535Y2213479D01*
X2089493Y2213501D01*
X2089456Y2213530D01*
X2089394Y2213551D01*
X2089335Y2213582D01*
X2089281Y2213590D01*
X2089244Y2213602D01*
X2089204Y2213601D01*
X2089150Y2213609D01*
X2086610Y2213609D01*
X2086545Y2213598D01*
X2086479Y2213596D01*
X2086436Y2213578D01*
X2086389Y2213570D01*
X2086332Y2213536D01*
X2086272Y2213511D01*
X2086237Y2213480D01*
X2086196Y2213455D01*
X2086155Y2213404D01*
X2086106Y2213360D01*
X2086084Y2213318D01*
X2086055Y2213281D01*
X2086034Y2213219D01*
X2086003Y2213160D01*
X2085995Y2213106D01*
X2085983Y2213069D01*
X2085983Y2213065D01*
X2085983Y2213064D01*
X2085984Y2213029D01*
X2085976Y2212975D01*
X2085976Y2209165D01*
X2085987Y2209100D01*
X2085989Y2209034D01*
X2086007Y2208991D01*
X2086015Y2208944D01*
X2086049Y2208887D01*
X2086074Y2208827D01*
X2086105Y2208792D01*
X2086130Y2208751D01*
X2086181Y2208710D01*
X2086225Y2208661D01*
X2086267Y2208639D01*
X2086304Y2208610D01*
X2086366Y2208589D01*
X2086425Y2208558D01*
X2086479Y2208550D01*
X2086516Y2208538D01*
X2086556Y2208539D01*
X2086610Y2208531D01*
X2089150Y2208531D01*
X2089215Y2208542D01*
G37*
G36*
X610935Y2208542D02*
X610935Y2208542D01*
X611001Y2208544D01*
X611044Y2208562D01*
X611091Y2208570D01*
X611148Y2208604D01*
X611208Y2208629D01*
X611243Y2208660D01*
X611284Y2208685D01*
X611326Y2208736D01*
X611374Y2208780D01*
X611396Y2208822D01*
X611425Y2208859D01*
X611446Y2208921D01*
X611477Y2208980D01*
X611485Y2209034D01*
X611497Y2209071D01*
X611496Y2209111D01*
X611504Y2209165D01*
X611504Y2212975D01*
X611493Y2213040D01*
X611491Y2213106D01*
X611473Y2213149D01*
X611465Y2213196D01*
X611431Y2213253D01*
X611406Y2213313D01*
X611375Y2213348D01*
X611350Y2213389D01*
X611299Y2213431D01*
X611255Y2213479D01*
X611213Y2213501D01*
X611176Y2213530D01*
X611114Y2213551D01*
X611055Y2213582D01*
X611001Y2213590D01*
X610964Y2213602D01*
X610924Y2213601D01*
X610870Y2213609D01*
X608330Y2213609D01*
X608265Y2213598D01*
X608199Y2213596D01*
X608156Y2213578D01*
X608109Y2213570D01*
X608052Y2213536D01*
X607992Y2213511D01*
X607957Y2213480D01*
X607916Y2213455D01*
X607875Y2213404D01*
X607826Y2213360D01*
X607804Y2213318D01*
X607775Y2213281D01*
X607754Y2213219D01*
X607723Y2213160D01*
X607715Y2213106D01*
X607703Y2213069D01*
X607703Y2213065D01*
X607703Y2213064D01*
X607704Y2213029D01*
X607696Y2212975D01*
X607696Y2209165D01*
X607707Y2209100D01*
X607709Y2209034D01*
X607727Y2208991D01*
X607735Y2208944D01*
X607769Y2208887D01*
X607794Y2208827D01*
X607825Y2208792D01*
X607850Y2208751D01*
X607901Y2208710D01*
X607945Y2208661D01*
X607987Y2208639D01*
X608024Y2208610D01*
X608086Y2208589D01*
X608145Y2208558D01*
X608199Y2208550D01*
X608236Y2208538D01*
X608276Y2208539D01*
X608330Y2208531D01*
X610870Y2208531D01*
X610935Y2208542D01*
G37*
G36*
X1273875Y1630692D02*
X1273875Y1630692D01*
X1273941Y1630694D01*
X1273984Y1630712D01*
X1274031Y1630720D01*
X1274088Y1630754D01*
X1274148Y1630779D01*
X1274183Y1630810D01*
X1274224Y1630835D01*
X1274266Y1630886D01*
X1274314Y1630930D01*
X1274336Y1630972D01*
X1274365Y1631009D01*
X1274386Y1631071D01*
X1274417Y1631130D01*
X1274425Y1631184D01*
X1274437Y1631221D01*
X1274436Y1631261D01*
X1274444Y1631315D01*
X1274444Y1635125D01*
X1274433Y1635190D01*
X1274431Y1635256D01*
X1274413Y1635299D01*
X1274405Y1635346D01*
X1274371Y1635403D01*
X1274346Y1635463D01*
X1274315Y1635498D01*
X1274290Y1635539D01*
X1274239Y1635581D01*
X1274195Y1635629D01*
X1274153Y1635651D01*
X1274116Y1635680D01*
X1274054Y1635701D01*
X1273995Y1635732D01*
X1273941Y1635740D01*
X1273904Y1635752D01*
X1273864Y1635751D01*
X1273810Y1635759D01*
X1271270Y1635759D01*
X1271205Y1635748D01*
X1271139Y1635746D01*
X1271096Y1635728D01*
X1271049Y1635720D01*
X1270992Y1635686D01*
X1270932Y1635661D01*
X1270897Y1635630D01*
X1270856Y1635605D01*
X1270815Y1635554D01*
X1270766Y1635510D01*
X1270744Y1635468D01*
X1270715Y1635431D01*
X1270694Y1635369D01*
X1270663Y1635310D01*
X1270655Y1635256D01*
X1270643Y1635219D01*
X1270643Y1635215D01*
X1270643Y1635214D01*
X1270644Y1635179D01*
X1270636Y1635125D01*
X1270636Y1631315D01*
X1270647Y1631250D01*
X1270649Y1631184D01*
X1270667Y1631141D01*
X1270675Y1631094D01*
X1270709Y1631037D01*
X1270734Y1630977D01*
X1270765Y1630942D01*
X1270790Y1630901D01*
X1270841Y1630860D01*
X1270885Y1630811D01*
X1270927Y1630789D01*
X1270964Y1630760D01*
X1271026Y1630739D01*
X1271085Y1630708D01*
X1271139Y1630700D01*
X1271176Y1630688D01*
X1271216Y1630689D01*
X1271270Y1630681D01*
X1273810Y1630681D01*
X1273875Y1630692D01*
G37*
G36*
X2013015Y1630692D02*
X2013015Y1630692D01*
X2013081Y1630694D01*
X2013124Y1630712D01*
X2013171Y1630720D01*
X2013228Y1630754D01*
X2013288Y1630779D01*
X2013323Y1630810D01*
X2013364Y1630835D01*
X2013406Y1630886D01*
X2013454Y1630930D01*
X2013476Y1630972D01*
X2013505Y1631009D01*
X2013526Y1631071D01*
X2013557Y1631130D01*
X2013565Y1631184D01*
X2013577Y1631221D01*
X2013576Y1631261D01*
X2013584Y1631315D01*
X2013584Y1635125D01*
X2013573Y1635190D01*
X2013571Y1635256D01*
X2013553Y1635299D01*
X2013545Y1635346D01*
X2013511Y1635403D01*
X2013486Y1635463D01*
X2013455Y1635498D01*
X2013430Y1635539D01*
X2013379Y1635581D01*
X2013335Y1635629D01*
X2013293Y1635651D01*
X2013256Y1635680D01*
X2013194Y1635701D01*
X2013135Y1635732D01*
X2013081Y1635740D01*
X2013044Y1635752D01*
X2013004Y1635751D01*
X2012950Y1635759D01*
X2010410Y1635759D01*
X2010345Y1635748D01*
X2010279Y1635746D01*
X2010236Y1635728D01*
X2010189Y1635720D01*
X2010132Y1635686D01*
X2010072Y1635661D01*
X2010037Y1635630D01*
X2009996Y1635605D01*
X2009955Y1635554D01*
X2009906Y1635510D01*
X2009884Y1635468D01*
X2009855Y1635431D01*
X2009834Y1635369D01*
X2009803Y1635310D01*
X2009795Y1635256D01*
X2009783Y1635219D01*
X2009783Y1635215D01*
X2009783Y1635214D01*
X2009784Y1635179D01*
X2009776Y1635125D01*
X2009776Y1631315D01*
X2009787Y1631250D01*
X2009789Y1631184D01*
X2009807Y1631141D01*
X2009815Y1631094D01*
X2009849Y1631037D01*
X2009874Y1630977D01*
X2009905Y1630942D01*
X2009930Y1630901D01*
X2009981Y1630860D01*
X2010025Y1630811D01*
X2010067Y1630789D01*
X2010104Y1630760D01*
X2010166Y1630739D01*
X2010225Y1630708D01*
X2010279Y1630700D01*
X2010316Y1630688D01*
X2010356Y1630689D01*
X2010410Y1630681D01*
X2012950Y1630681D01*
X2013015Y1630692D01*
G37*
G36*
X2038415Y1630692D02*
X2038415Y1630692D01*
X2038481Y1630694D01*
X2038524Y1630712D01*
X2038571Y1630720D01*
X2038628Y1630754D01*
X2038688Y1630779D01*
X2038723Y1630810D01*
X2038764Y1630835D01*
X2038806Y1630886D01*
X2038854Y1630930D01*
X2038876Y1630972D01*
X2038905Y1631009D01*
X2038926Y1631071D01*
X2038957Y1631130D01*
X2038965Y1631184D01*
X2038977Y1631221D01*
X2038976Y1631261D01*
X2038984Y1631315D01*
X2038984Y1635125D01*
X2038973Y1635190D01*
X2038971Y1635256D01*
X2038953Y1635299D01*
X2038945Y1635346D01*
X2038911Y1635403D01*
X2038886Y1635463D01*
X2038855Y1635498D01*
X2038830Y1635539D01*
X2038779Y1635581D01*
X2038735Y1635629D01*
X2038693Y1635651D01*
X2038656Y1635680D01*
X2038594Y1635701D01*
X2038535Y1635732D01*
X2038481Y1635740D01*
X2038444Y1635752D01*
X2038404Y1635751D01*
X2038350Y1635759D01*
X2035810Y1635759D01*
X2035745Y1635748D01*
X2035679Y1635746D01*
X2035636Y1635728D01*
X2035589Y1635720D01*
X2035532Y1635686D01*
X2035472Y1635661D01*
X2035437Y1635630D01*
X2035396Y1635605D01*
X2035355Y1635554D01*
X2035306Y1635510D01*
X2035284Y1635468D01*
X2035255Y1635431D01*
X2035234Y1635369D01*
X2035203Y1635310D01*
X2035195Y1635256D01*
X2035183Y1635219D01*
X2035183Y1635215D01*
X2035183Y1635214D01*
X2035184Y1635179D01*
X2035176Y1635125D01*
X2035176Y1631315D01*
X2035187Y1631250D01*
X2035189Y1631184D01*
X2035207Y1631141D01*
X2035215Y1631094D01*
X2035249Y1631037D01*
X2035274Y1630977D01*
X2035305Y1630942D01*
X2035330Y1630901D01*
X2035381Y1630860D01*
X2035425Y1630811D01*
X2035467Y1630789D01*
X2035504Y1630760D01*
X2035566Y1630739D01*
X2035625Y1630708D01*
X2035679Y1630700D01*
X2035716Y1630688D01*
X2035756Y1630689D01*
X2035810Y1630681D01*
X2038350Y1630681D01*
X2038415Y1630692D01*
G37*
G36*
X534735Y1630692D02*
X534735Y1630692D01*
X534801Y1630694D01*
X534844Y1630712D01*
X534891Y1630720D01*
X534948Y1630754D01*
X535008Y1630779D01*
X535043Y1630810D01*
X535084Y1630835D01*
X535126Y1630886D01*
X535174Y1630930D01*
X535196Y1630972D01*
X535225Y1631009D01*
X535246Y1631071D01*
X535277Y1631130D01*
X535285Y1631184D01*
X535297Y1631221D01*
X535296Y1631261D01*
X535304Y1631315D01*
X535304Y1635125D01*
X535293Y1635190D01*
X535291Y1635256D01*
X535273Y1635299D01*
X535265Y1635346D01*
X535231Y1635403D01*
X535206Y1635463D01*
X535175Y1635498D01*
X535150Y1635539D01*
X535099Y1635581D01*
X535055Y1635629D01*
X535013Y1635651D01*
X534976Y1635680D01*
X534914Y1635701D01*
X534855Y1635732D01*
X534801Y1635740D01*
X534764Y1635752D01*
X534724Y1635751D01*
X534670Y1635759D01*
X532130Y1635759D01*
X532065Y1635748D01*
X531999Y1635746D01*
X531956Y1635728D01*
X531909Y1635720D01*
X531852Y1635686D01*
X531792Y1635661D01*
X531757Y1635630D01*
X531716Y1635605D01*
X531675Y1635554D01*
X531626Y1635510D01*
X531604Y1635468D01*
X531575Y1635431D01*
X531554Y1635369D01*
X531523Y1635310D01*
X531515Y1635256D01*
X531503Y1635219D01*
X531503Y1635215D01*
X531503Y1635214D01*
X531504Y1635179D01*
X531496Y1635125D01*
X531496Y1631315D01*
X531507Y1631250D01*
X531509Y1631184D01*
X531527Y1631141D01*
X531535Y1631094D01*
X531569Y1631037D01*
X531594Y1630977D01*
X531625Y1630942D01*
X531650Y1630901D01*
X531701Y1630860D01*
X531745Y1630811D01*
X531787Y1630789D01*
X531824Y1630760D01*
X531886Y1630739D01*
X531945Y1630708D01*
X531999Y1630700D01*
X532036Y1630688D01*
X532076Y1630689D01*
X532130Y1630681D01*
X534670Y1630681D01*
X534735Y1630692D01*
G37*
G36*
X560135Y1630692D02*
X560135Y1630692D01*
X560201Y1630694D01*
X560244Y1630712D01*
X560291Y1630720D01*
X560348Y1630754D01*
X560408Y1630779D01*
X560443Y1630810D01*
X560484Y1630835D01*
X560526Y1630886D01*
X560574Y1630930D01*
X560596Y1630972D01*
X560625Y1631009D01*
X560646Y1631071D01*
X560677Y1631130D01*
X560685Y1631184D01*
X560697Y1631221D01*
X560696Y1631261D01*
X560704Y1631315D01*
X560704Y1635125D01*
X560693Y1635190D01*
X560691Y1635256D01*
X560673Y1635299D01*
X560665Y1635346D01*
X560631Y1635403D01*
X560606Y1635463D01*
X560575Y1635498D01*
X560550Y1635539D01*
X560499Y1635581D01*
X560455Y1635629D01*
X560413Y1635651D01*
X560376Y1635680D01*
X560314Y1635701D01*
X560255Y1635732D01*
X560201Y1635740D01*
X560164Y1635752D01*
X560124Y1635751D01*
X560070Y1635759D01*
X557530Y1635759D01*
X557465Y1635748D01*
X557399Y1635746D01*
X557356Y1635728D01*
X557309Y1635720D01*
X557252Y1635686D01*
X557192Y1635661D01*
X557157Y1635630D01*
X557116Y1635605D01*
X557075Y1635554D01*
X557026Y1635510D01*
X557004Y1635468D01*
X556975Y1635431D01*
X556954Y1635369D01*
X556923Y1635310D01*
X556915Y1635256D01*
X556903Y1635219D01*
X556903Y1635215D01*
X556903Y1635214D01*
X556904Y1635179D01*
X556896Y1635125D01*
X556896Y1631315D01*
X556907Y1631250D01*
X556909Y1631184D01*
X556927Y1631141D01*
X556935Y1631094D01*
X556969Y1631037D01*
X556994Y1630977D01*
X557025Y1630942D01*
X557050Y1630901D01*
X557101Y1630860D01*
X557145Y1630811D01*
X557187Y1630789D01*
X557224Y1630760D01*
X557286Y1630739D01*
X557345Y1630708D01*
X557399Y1630700D01*
X557436Y1630688D01*
X557476Y1630689D01*
X557530Y1630681D01*
X560070Y1630681D01*
X560135Y1630692D01*
G37*
G36*
X1299275Y1630692D02*
X1299275Y1630692D01*
X1299341Y1630694D01*
X1299384Y1630712D01*
X1299431Y1630720D01*
X1299488Y1630754D01*
X1299548Y1630779D01*
X1299583Y1630810D01*
X1299624Y1630835D01*
X1299666Y1630886D01*
X1299714Y1630930D01*
X1299736Y1630972D01*
X1299765Y1631009D01*
X1299786Y1631071D01*
X1299817Y1631130D01*
X1299825Y1631184D01*
X1299837Y1631221D01*
X1299836Y1631261D01*
X1299844Y1631315D01*
X1299844Y1635125D01*
X1299833Y1635190D01*
X1299831Y1635256D01*
X1299813Y1635299D01*
X1299805Y1635346D01*
X1299771Y1635403D01*
X1299746Y1635463D01*
X1299715Y1635498D01*
X1299690Y1635539D01*
X1299639Y1635581D01*
X1299595Y1635629D01*
X1299553Y1635651D01*
X1299516Y1635680D01*
X1299454Y1635701D01*
X1299395Y1635732D01*
X1299341Y1635740D01*
X1299304Y1635752D01*
X1299264Y1635751D01*
X1299210Y1635759D01*
X1296670Y1635759D01*
X1296605Y1635748D01*
X1296539Y1635746D01*
X1296496Y1635728D01*
X1296449Y1635720D01*
X1296392Y1635686D01*
X1296332Y1635661D01*
X1296297Y1635630D01*
X1296256Y1635605D01*
X1296215Y1635554D01*
X1296166Y1635510D01*
X1296144Y1635468D01*
X1296115Y1635431D01*
X1296094Y1635369D01*
X1296063Y1635310D01*
X1296055Y1635256D01*
X1296043Y1635219D01*
X1296043Y1635215D01*
X1296043Y1635214D01*
X1296044Y1635179D01*
X1296036Y1635125D01*
X1296036Y1631315D01*
X1296047Y1631250D01*
X1296049Y1631184D01*
X1296067Y1631141D01*
X1296075Y1631094D01*
X1296109Y1631037D01*
X1296134Y1630977D01*
X1296165Y1630942D01*
X1296190Y1630901D01*
X1296241Y1630860D01*
X1296285Y1630811D01*
X1296327Y1630789D01*
X1296364Y1630760D01*
X1296426Y1630739D01*
X1296485Y1630708D01*
X1296539Y1630700D01*
X1296576Y1630688D01*
X1296616Y1630689D01*
X1296670Y1630681D01*
X1299210Y1630681D01*
X1299275Y1630692D01*
G37*
G36*
X610935Y1629422D02*
X610935Y1629422D01*
X611001Y1629424D01*
X611044Y1629442D01*
X611091Y1629450D01*
X611148Y1629484D01*
X611208Y1629509D01*
X611243Y1629540D01*
X611284Y1629565D01*
X611326Y1629616D01*
X611374Y1629660D01*
X611396Y1629702D01*
X611425Y1629739D01*
X611446Y1629801D01*
X611477Y1629860D01*
X611485Y1629914D01*
X611497Y1629951D01*
X611496Y1629991D01*
X611504Y1630045D01*
X611504Y1633855D01*
X611493Y1633920D01*
X611491Y1633986D01*
X611473Y1634029D01*
X611465Y1634076D01*
X611431Y1634133D01*
X611406Y1634193D01*
X611375Y1634228D01*
X611350Y1634269D01*
X611299Y1634311D01*
X611255Y1634359D01*
X611213Y1634381D01*
X611176Y1634410D01*
X611114Y1634431D01*
X611055Y1634462D01*
X611001Y1634470D01*
X610964Y1634482D01*
X610924Y1634481D01*
X610870Y1634489D01*
X608330Y1634489D01*
X608265Y1634478D01*
X608199Y1634476D01*
X608156Y1634458D01*
X608109Y1634450D01*
X608052Y1634416D01*
X607992Y1634391D01*
X607957Y1634360D01*
X607916Y1634335D01*
X607875Y1634284D01*
X607826Y1634240D01*
X607804Y1634198D01*
X607775Y1634161D01*
X607754Y1634099D01*
X607723Y1634040D01*
X607715Y1633986D01*
X607703Y1633949D01*
X607703Y1633945D01*
X607703Y1633944D01*
X607704Y1633909D01*
X607696Y1633855D01*
X607696Y1630045D01*
X607707Y1629980D01*
X607709Y1629914D01*
X607727Y1629871D01*
X607735Y1629824D01*
X607769Y1629767D01*
X607794Y1629707D01*
X607825Y1629672D01*
X607850Y1629631D01*
X607901Y1629590D01*
X607945Y1629541D01*
X607987Y1629519D01*
X608024Y1629490D01*
X608086Y1629469D01*
X608145Y1629438D01*
X608199Y1629430D01*
X608236Y1629418D01*
X608276Y1629419D01*
X608330Y1629411D01*
X610870Y1629411D01*
X610935Y1629422D01*
G37*
G36*
X1350075Y1629422D02*
X1350075Y1629422D01*
X1350141Y1629424D01*
X1350184Y1629442D01*
X1350231Y1629450D01*
X1350288Y1629484D01*
X1350348Y1629509D01*
X1350383Y1629540D01*
X1350424Y1629565D01*
X1350466Y1629616D01*
X1350514Y1629660D01*
X1350536Y1629702D01*
X1350565Y1629739D01*
X1350586Y1629801D01*
X1350617Y1629860D01*
X1350625Y1629914D01*
X1350637Y1629951D01*
X1350636Y1629991D01*
X1350644Y1630045D01*
X1350644Y1633855D01*
X1350633Y1633920D01*
X1350631Y1633986D01*
X1350613Y1634029D01*
X1350605Y1634076D01*
X1350571Y1634133D01*
X1350546Y1634193D01*
X1350515Y1634228D01*
X1350490Y1634269D01*
X1350439Y1634311D01*
X1350395Y1634359D01*
X1350353Y1634381D01*
X1350316Y1634410D01*
X1350254Y1634431D01*
X1350195Y1634462D01*
X1350141Y1634470D01*
X1350104Y1634482D01*
X1350064Y1634481D01*
X1350010Y1634489D01*
X1347470Y1634489D01*
X1347405Y1634478D01*
X1347339Y1634476D01*
X1347296Y1634458D01*
X1347249Y1634450D01*
X1347192Y1634416D01*
X1347132Y1634391D01*
X1347097Y1634360D01*
X1347056Y1634335D01*
X1347015Y1634284D01*
X1346966Y1634240D01*
X1346944Y1634198D01*
X1346915Y1634161D01*
X1346894Y1634099D01*
X1346863Y1634040D01*
X1346855Y1633986D01*
X1346843Y1633949D01*
X1346843Y1633945D01*
X1346843Y1633944D01*
X1346844Y1633909D01*
X1346836Y1633855D01*
X1346836Y1630045D01*
X1346847Y1629980D01*
X1346849Y1629914D01*
X1346867Y1629871D01*
X1346875Y1629824D01*
X1346909Y1629767D01*
X1346934Y1629707D01*
X1346965Y1629672D01*
X1346990Y1629631D01*
X1347041Y1629590D01*
X1347085Y1629541D01*
X1347127Y1629519D01*
X1347164Y1629490D01*
X1347226Y1629469D01*
X1347285Y1629438D01*
X1347339Y1629430D01*
X1347376Y1629418D01*
X1347416Y1629419D01*
X1347470Y1629411D01*
X1350010Y1629411D01*
X1350075Y1629422D01*
G37*
G36*
X2089215Y1629422D02*
X2089215Y1629422D01*
X2089281Y1629424D01*
X2089324Y1629442D01*
X2089371Y1629450D01*
X2089428Y1629484D01*
X2089488Y1629509D01*
X2089523Y1629540D01*
X2089564Y1629565D01*
X2089606Y1629616D01*
X2089654Y1629660D01*
X2089676Y1629702D01*
X2089705Y1629739D01*
X2089726Y1629801D01*
X2089757Y1629860D01*
X2089765Y1629914D01*
X2089777Y1629951D01*
X2089776Y1629991D01*
X2089784Y1630045D01*
X2089784Y1633855D01*
X2089773Y1633920D01*
X2089771Y1633986D01*
X2089753Y1634029D01*
X2089745Y1634076D01*
X2089711Y1634133D01*
X2089686Y1634193D01*
X2089655Y1634228D01*
X2089630Y1634269D01*
X2089579Y1634311D01*
X2089535Y1634359D01*
X2089493Y1634381D01*
X2089456Y1634410D01*
X2089394Y1634431D01*
X2089335Y1634462D01*
X2089281Y1634470D01*
X2089244Y1634482D01*
X2089204Y1634481D01*
X2089150Y1634489D01*
X2086610Y1634489D01*
X2086545Y1634478D01*
X2086479Y1634476D01*
X2086436Y1634458D01*
X2086389Y1634450D01*
X2086332Y1634416D01*
X2086272Y1634391D01*
X2086237Y1634360D01*
X2086196Y1634335D01*
X2086155Y1634284D01*
X2086106Y1634240D01*
X2086084Y1634198D01*
X2086055Y1634161D01*
X2086034Y1634099D01*
X2086003Y1634040D01*
X2085995Y1633986D01*
X2085983Y1633949D01*
X2085983Y1633945D01*
X2085983Y1633944D01*
X2085984Y1633909D01*
X2085976Y1633855D01*
X2085976Y1630045D01*
X2085987Y1629980D01*
X2085989Y1629914D01*
X2086007Y1629871D01*
X2086015Y1629824D01*
X2086049Y1629767D01*
X2086074Y1629707D01*
X2086105Y1629672D01*
X2086130Y1629631D01*
X2086181Y1629590D01*
X2086225Y1629541D01*
X2086267Y1629519D01*
X2086304Y1629490D01*
X2086366Y1629469D01*
X2086425Y1629438D01*
X2086479Y1629430D01*
X2086516Y1629418D01*
X2086556Y1629419D01*
X2086610Y1629411D01*
X2089150Y1629411D01*
X2089215Y1629422D01*
G37*
G36*
X610935Y1619262D02*
X610935Y1619262D01*
X611001Y1619264D01*
X611044Y1619282D01*
X611091Y1619290D01*
X611148Y1619324D01*
X611208Y1619349D01*
X611243Y1619380D01*
X611284Y1619405D01*
X611326Y1619456D01*
X611374Y1619500D01*
X611396Y1619542D01*
X611425Y1619579D01*
X611446Y1619641D01*
X611477Y1619700D01*
X611485Y1619754D01*
X611497Y1619791D01*
X611496Y1619831D01*
X611504Y1619885D01*
X611504Y1623695D01*
X611493Y1623760D01*
X611491Y1623826D01*
X611473Y1623869D01*
X611465Y1623916D01*
X611431Y1623973D01*
X611406Y1624033D01*
X611375Y1624068D01*
X611350Y1624109D01*
X611299Y1624151D01*
X611255Y1624199D01*
X611213Y1624221D01*
X611176Y1624250D01*
X611114Y1624271D01*
X611055Y1624302D01*
X611001Y1624310D01*
X610964Y1624322D01*
X610924Y1624321D01*
X610870Y1624329D01*
X608330Y1624329D01*
X608265Y1624318D01*
X608199Y1624316D01*
X608156Y1624298D01*
X608109Y1624290D01*
X608052Y1624256D01*
X607992Y1624231D01*
X607957Y1624200D01*
X607916Y1624175D01*
X607875Y1624124D01*
X607826Y1624080D01*
X607804Y1624038D01*
X607775Y1624001D01*
X607754Y1623939D01*
X607723Y1623880D01*
X607715Y1623826D01*
X607703Y1623789D01*
X607703Y1623785D01*
X607703Y1623784D01*
X607704Y1623749D01*
X607696Y1623695D01*
X607696Y1619885D01*
X607707Y1619820D01*
X607709Y1619754D01*
X607727Y1619711D01*
X607735Y1619664D01*
X607769Y1619607D01*
X607794Y1619547D01*
X607825Y1619512D01*
X607850Y1619471D01*
X607901Y1619430D01*
X607945Y1619381D01*
X607987Y1619359D01*
X608024Y1619330D01*
X608086Y1619309D01*
X608145Y1619278D01*
X608199Y1619270D01*
X608236Y1619258D01*
X608276Y1619259D01*
X608330Y1619251D01*
X610870Y1619251D01*
X610935Y1619262D01*
G37*
G36*
X1350075Y1619262D02*
X1350075Y1619262D01*
X1350141Y1619264D01*
X1350184Y1619282D01*
X1350231Y1619290D01*
X1350288Y1619324D01*
X1350348Y1619349D01*
X1350383Y1619380D01*
X1350424Y1619405D01*
X1350466Y1619456D01*
X1350514Y1619500D01*
X1350536Y1619542D01*
X1350565Y1619579D01*
X1350586Y1619641D01*
X1350617Y1619700D01*
X1350625Y1619754D01*
X1350637Y1619791D01*
X1350636Y1619831D01*
X1350644Y1619885D01*
X1350644Y1623695D01*
X1350633Y1623760D01*
X1350631Y1623826D01*
X1350613Y1623869D01*
X1350605Y1623916D01*
X1350571Y1623973D01*
X1350546Y1624033D01*
X1350515Y1624068D01*
X1350490Y1624109D01*
X1350439Y1624151D01*
X1350395Y1624199D01*
X1350353Y1624221D01*
X1350316Y1624250D01*
X1350254Y1624271D01*
X1350195Y1624302D01*
X1350141Y1624310D01*
X1350104Y1624322D01*
X1350064Y1624321D01*
X1350010Y1624329D01*
X1347470Y1624329D01*
X1347405Y1624318D01*
X1347339Y1624316D01*
X1347296Y1624298D01*
X1347249Y1624290D01*
X1347192Y1624256D01*
X1347132Y1624231D01*
X1347097Y1624200D01*
X1347056Y1624175D01*
X1347015Y1624124D01*
X1346966Y1624080D01*
X1346944Y1624038D01*
X1346915Y1624001D01*
X1346894Y1623939D01*
X1346863Y1623880D01*
X1346855Y1623826D01*
X1346843Y1623789D01*
X1346843Y1623785D01*
X1346843Y1623784D01*
X1346844Y1623749D01*
X1346836Y1623695D01*
X1346836Y1619885D01*
X1346847Y1619820D01*
X1346849Y1619754D01*
X1346867Y1619711D01*
X1346875Y1619664D01*
X1346909Y1619607D01*
X1346934Y1619547D01*
X1346965Y1619512D01*
X1346990Y1619471D01*
X1347041Y1619430D01*
X1347085Y1619381D01*
X1347127Y1619359D01*
X1347164Y1619330D01*
X1347226Y1619309D01*
X1347285Y1619278D01*
X1347339Y1619270D01*
X1347376Y1619258D01*
X1347416Y1619259D01*
X1347470Y1619251D01*
X1350010Y1619251D01*
X1350075Y1619262D01*
G37*
G36*
X2089215Y1619262D02*
X2089215Y1619262D01*
X2089281Y1619264D01*
X2089324Y1619282D01*
X2089371Y1619290D01*
X2089428Y1619324D01*
X2089488Y1619349D01*
X2089523Y1619380D01*
X2089564Y1619405D01*
X2089606Y1619456D01*
X2089654Y1619500D01*
X2089676Y1619542D01*
X2089705Y1619579D01*
X2089726Y1619641D01*
X2089757Y1619700D01*
X2089765Y1619754D01*
X2089777Y1619791D01*
X2089776Y1619831D01*
X2089784Y1619885D01*
X2089784Y1623695D01*
X2089773Y1623760D01*
X2089771Y1623826D01*
X2089753Y1623869D01*
X2089745Y1623916D01*
X2089711Y1623973D01*
X2089686Y1624033D01*
X2089655Y1624068D01*
X2089630Y1624109D01*
X2089579Y1624151D01*
X2089535Y1624199D01*
X2089493Y1624221D01*
X2089456Y1624250D01*
X2089394Y1624271D01*
X2089335Y1624302D01*
X2089281Y1624310D01*
X2089244Y1624322D01*
X2089204Y1624321D01*
X2089150Y1624329D01*
X2086610Y1624329D01*
X2086545Y1624318D01*
X2086479Y1624316D01*
X2086436Y1624298D01*
X2086389Y1624290D01*
X2086332Y1624256D01*
X2086272Y1624231D01*
X2086237Y1624200D01*
X2086196Y1624175D01*
X2086155Y1624124D01*
X2086106Y1624080D01*
X2086084Y1624038D01*
X2086055Y1624001D01*
X2086034Y1623939D01*
X2086003Y1623880D01*
X2085995Y1623826D01*
X2085983Y1623789D01*
X2085983Y1623785D01*
X2085983Y1623784D01*
X2085984Y1623749D01*
X2085976Y1623695D01*
X2085976Y1619885D01*
X2085987Y1619820D01*
X2085989Y1619754D01*
X2086007Y1619711D01*
X2086015Y1619664D01*
X2086049Y1619607D01*
X2086074Y1619547D01*
X2086105Y1619512D01*
X2086130Y1619471D01*
X2086181Y1619430D01*
X2086225Y1619381D01*
X2086267Y1619359D01*
X2086304Y1619330D01*
X2086366Y1619309D01*
X2086425Y1619278D01*
X2086479Y1619270D01*
X2086516Y1619258D01*
X2086556Y1619259D01*
X2086610Y1619251D01*
X2089150Y1619251D01*
X2089215Y1619262D01*
G37*
G36*
X560135Y1041412D02*
X560135Y1041412D01*
X560201Y1041414D01*
X560244Y1041432D01*
X560291Y1041440D01*
X560348Y1041474D01*
X560408Y1041499D01*
X560443Y1041530D01*
X560484Y1041555D01*
X560526Y1041606D01*
X560574Y1041650D01*
X560596Y1041692D01*
X560625Y1041729D01*
X560646Y1041791D01*
X560677Y1041850D01*
X560685Y1041904D01*
X560697Y1041941D01*
X560696Y1041981D01*
X560704Y1042035D01*
X560704Y1045845D01*
X560693Y1045910D01*
X560691Y1045976D01*
X560673Y1046019D01*
X560665Y1046066D01*
X560631Y1046123D01*
X560606Y1046183D01*
X560575Y1046218D01*
X560550Y1046259D01*
X560499Y1046301D01*
X560455Y1046349D01*
X560413Y1046371D01*
X560376Y1046400D01*
X560314Y1046421D01*
X560255Y1046452D01*
X560201Y1046460D01*
X560164Y1046472D01*
X560124Y1046471D01*
X560070Y1046479D01*
X557530Y1046479D01*
X557465Y1046468D01*
X557399Y1046466D01*
X557356Y1046448D01*
X557309Y1046440D01*
X557252Y1046406D01*
X557192Y1046381D01*
X557157Y1046350D01*
X557116Y1046325D01*
X557075Y1046274D01*
X557026Y1046230D01*
X557004Y1046188D01*
X556975Y1046151D01*
X556954Y1046089D01*
X556923Y1046030D01*
X556915Y1045976D01*
X556903Y1045939D01*
X556903Y1045935D01*
X556903Y1045934D01*
X556904Y1045899D01*
X556896Y1045845D01*
X556896Y1042035D01*
X556907Y1041970D01*
X556909Y1041904D01*
X556927Y1041861D01*
X556935Y1041814D01*
X556969Y1041757D01*
X556994Y1041697D01*
X557025Y1041662D01*
X557050Y1041621D01*
X557101Y1041580D01*
X557145Y1041531D01*
X557187Y1041509D01*
X557224Y1041480D01*
X557286Y1041459D01*
X557345Y1041428D01*
X557399Y1041420D01*
X557436Y1041408D01*
X557476Y1041409D01*
X557530Y1041401D01*
X560070Y1041401D01*
X560135Y1041412D01*
G37*
G36*
X534735Y1041412D02*
X534735Y1041412D01*
X534801Y1041414D01*
X534844Y1041432D01*
X534891Y1041440D01*
X534948Y1041474D01*
X535008Y1041499D01*
X535043Y1041530D01*
X535084Y1041555D01*
X535126Y1041606D01*
X535174Y1041650D01*
X535196Y1041692D01*
X535225Y1041729D01*
X535246Y1041791D01*
X535277Y1041850D01*
X535285Y1041904D01*
X535297Y1041941D01*
X535296Y1041981D01*
X535304Y1042035D01*
X535304Y1045845D01*
X535293Y1045910D01*
X535291Y1045976D01*
X535273Y1046019D01*
X535265Y1046066D01*
X535231Y1046123D01*
X535206Y1046183D01*
X535175Y1046218D01*
X535150Y1046259D01*
X535099Y1046301D01*
X535055Y1046349D01*
X535013Y1046371D01*
X534976Y1046400D01*
X534914Y1046421D01*
X534855Y1046452D01*
X534801Y1046460D01*
X534764Y1046472D01*
X534724Y1046471D01*
X534670Y1046479D01*
X532130Y1046479D01*
X532065Y1046468D01*
X531999Y1046466D01*
X531956Y1046448D01*
X531909Y1046440D01*
X531852Y1046406D01*
X531792Y1046381D01*
X531757Y1046350D01*
X531716Y1046325D01*
X531675Y1046274D01*
X531626Y1046230D01*
X531604Y1046188D01*
X531575Y1046151D01*
X531554Y1046089D01*
X531523Y1046030D01*
X531515Y1045976D01*
X531503Y1045939D01*
X531503Y1045935D01*
X531503Y1045934D01*
X531504Y1045899D01*
X531496Y1045845D01*
X531496Y1042035D01*
X531507Y1041970D01*
X531509Y1041904D01*
X531527Y1041861D01*
X531535Y1041814D01*
X531569Y1041757D01*
X531594Y1041697D01*
X531625Y1041662D01*
X531650Y1041621D01*
X531701Y1041580D01*
X531745Y1041531D01*
X531787Y1041509D01*
X531824Y1041480D01*
X531886Y1041459D01*
X531945Y1041428D01*
X531999Y1041420D01*
X532036Y1041408D01*
X532076Y1041409D01*
X532130Y1041401D01*
X534670Y1041401D01*
X534735Y1041412D01*
G37*
G36*
X1299275Y1041412D02*
X1299275Y1041412D01*
X1299341Y1041414D01*
X1299384Y1041432D01*
X1299431Y1041440D01*
X1299488Y1041474D01*
X1299548Y1041499D01*
X1299583Y1041530D01*
X1299624Y1041555D01*
X1299666Y1041606D01*
X1299714Y1041650D01*
X1299736Y1041692D01*
X1299765Y1041729D01*
X1299786Y1041791D01*
X1299817Y1041850D01*
X1299825Y1041904D01*
X1299837Y1041941D01*
X1299836Y1041981D01*
X1299844Y1042035D01*
X1299844Y1045845D01*
X1299833Y1045910D01*
X1299831Y1045976D01*
X1299813Y1046019D01*
X1299805Y1046066D01*
X1299771Y1046123D01*
X1299746Y1046183D01*
X1299715Y1046218D01*
X1299690Y1046259D01*
X1299639Y1046301D01*
X1299595Y1046349D01*
X1299553Y1046371D01*
X1299516Y1046400D01*
X1299454Y1046421D01*
X1299395Y1046452D01*
X1299341Y1046460D01*
X1299304Y1046472D01*
X1299264Y1046471D01*
X1299210Y1046479D01*
X1296670Y1046479D01*
X1296605Y1046468D01*
X1296539Y1046466D01*
X1296496Y1046448D01*
X1296449Y1046440D01*
X1296392Y1046406D01*
X1296332Y1046381D01*
X1296297Y1046350D01*
X1296256Y1046325D01*
X1296215Y1046274D01*
X1296166Y1046230D01*
X1296144Y1046188D01*
X1296115Y1046151D01*
X1296094Y1046089D01*
X1296063Y1046030D01*
X1296055Y1045976D01*
X1296043Y1045939D01*
X1296043Y1045935D01*
X1296043Y1045934D01*
X1296044Y1045899D01*
X1296036Y1045845D01*
X1296036Y1042035D01*
X1296047Y1041970D01*
X1296049Y1041904D01*
X1296067Y1041861D01*
X1296075Y1041814D01*
X1296109Y1041757D01*
X1296134Y1041697D01*
X1296165Y1041662D01*
X1296190Y1041621D01*
X1296241Y1041580D01*
X1296285Y1041531D01*
X1296327Y1041509D01*
X1296364Y1041480D01*
X1296426Y1041459D01*
X1296485Y1041428D01*
X1296539Y1041420D01*
X1296576Y1041408D01*
X1296616Y1041409D01*
X1296670Y1041401D01*
X1299210Y1041401D01*
X1299275Y1041412D01*
G37*
G36*
X1273875Y1041412D02*
X1273875Y1041412D01*
X1273941Y1041414D01*
X1273984Y1041432D01*
X1274031Y1041440D01*
X1274088Y1041474D01*
X1274148Y1041499D01*
X1274183Y1041530D01*
X1274224Y1041555D01*
X1274266Y1041606D01*
X1274314Y1041650D01*
X1274336Y1041692D01*
X1274365Y1041729D01*
X1274386Y1041791D01*
X1274417Y1041850D01*
X1274425Y1041904D01*
X1274437Y1041941D01*
X1274436Y1041981D01*
X1274444Y1042035D01*
X1274444Y1045845D01*
X1274433Y1045910D01*
X1274431Y1045976D01*
X1274413Y1046019D01*
X1274405Y1046066D01*
X1274371Y1046123D01*
X1274346Y1046183D01*
X1274315Y1046218D01*
X1274290Y1046259D01*
X1274239Y1046301D01*
X1274195Y1046349D01*
X1274153Y1046371D01*
X1274116Y1046400D01*
X1274054Y1046421D01*
X1273995Y1046452D01*
X1273941Y1046460D01*
X1273904Y1046472D01*
X1273864Y1046471D01*
X1273810Y1046479D01*
X1271270Y1046479D01*
X1271205Y1046468D01*
X1271139Y1046466D01*
X1271096Y1046448D01*
X1271049Y1046440D01*
X1270992Y1046406D01*
X1270932Y1046381D01*
X1270897Y1046350D01*
X1270856Y1046325D01*
X1270815Y1046274D01*
X1270766Y1046230D01*
X1270744Y1046188D01*
X1270715Y1046151D01*
X1270694Y1046089D01*
X1270663Y1046030D01*
X1270655Y1045976D01*
X1270643Y1045939D01*
X1270643Y1045935D01*
X1270643Y1045934D01*
X1270644Y1045899D01*
X1270636Y1045845D01*
X1270636Y1042035D01*
X1270647Y1041970D01*
X1270649Y1041904D01*
X1270667Y1041861D01*
X1270675Y1041814D01*
X1270709Y1041757D01*
X1270734Y1041697D01*
X1270765Y1041662D01*
X1270790Y1041621D01*
X1270841Y1041580D01*
X1270885Y1041531D01*
X1270927Y1041509D01*
X1270964Y1041480D01*
X1271026Y1041459D01*
X1271085Y1041428D01*
X1271139Y1041420D01*
X1271176Y1041408D01*
X1271216Y1041409D01*
X1271270Y1041401D01*
X1273810Y1041401D01*
X1273875Y1041412D01*
G37*
G36*
X2013015Y1041412D02*
X2013015Y1041412D01*
X2013081Y1041414D01*
X2013124Y1041432D01*
X2013171Y1041440D01*
X2013228Y1041474D01*
X2013288Y1041499D01*
X2013323Y1041530D01*
X2013364Y1041555D01*
X2013406Y1041606D01*
X2013454Y1041650D01*
X2013476Y1041692D01*
X2013505Y1041729D01*
X2013526Y1041791D01*
X2013557Y1041850D01*
X2013565Y1041904D01*
X2013577Y1041941D01*
X2013576Y1041981D01*
X2013584Y1042035D01*
X2013584Y1045845D01*
X2013573Y1045910D01*
X2013571Y1045976D01*
X2013553Y1046019D01*
X2013545Y1046066D01*
X2013511Y1046123D01*
X2013486Y1046183D01*
X2013455Y1046218D01*
X2013430Y1046259D01*
X2013379Y1046301D01*
X2013335Y1046349D01*
X2013293Y1046371D01*
X2013256Y1046400D01*
X2013194Y1046421D01*
X2013135Y1046452D01*
X2013081Y1046460D01*
X2013044Y1046472D01*
X2013004Y1046471D01*
X2012950Y1046479D01*
X2010410Y1046479D01*
X2010345Y1046468D01*
X2010279Y1046466D01*
X2010236Y1046448D01*
X2010189Y1046440D01*
X2010132Y1046406D01*
X2010072Y1046381D01*
X2010037Y1046350D01*
X2009996Y1046325D01*
X2009955Y1046274D01*
X2009906Y1046230D01*
X2009884Y1046188D01*
X2009855Y1046151D01*
X2009834Y1046089D01*
X2009803Y1046030D01*
X2009795Y1045976D01*
X2009783Y1045939D01*
X2009783Y1045935D01*
X2009783Y1045934D01*
X2009784Y1045899D01*
X2009776Y1045845D01*
X2009776Y1042035D01*
X2009787Y1041970D01*
X2009789Y1041904D01*
X2009807Y1041861D01*
X2009815Y1041814D01*
X2009849Y1041757D01*
X2009874Y1041697D01*
X2009905Y1041662D01*
X2009930Y1041621D01*
X2009981Y1041580D01*
X2010025Y1041531D01*
X2010067Y1041509D01*
X2010104Y1041480D01*
X2010166Y1041459D01*
X2010225Y1041428D01*
X2010279Y1041420D01*
X2010316Y1041408D01*
X2010356Y1041409D01*
X2010410Y1041401D01*
X2012950Y1041401D01*
X2013015Y1041412D01*
G37*
G36*
X2038415Y1041412D02*
X2038415Y1041412D01*
X2038481Y1041414D01*
X2038524Y1041432D01*
X2038571Y1041440D01*
X2038628Y1041474D01*
X2038688Y1041499D01*
X2038723Y1041530D01*
X2038764Y1041555D01*
X2038806Y1041606D01*
X2038854Y1041650D01*
X2038876Y1041692D01*
X2038905Y1041729D01*
X2038926Y1041791D01*
X2038957Y1041850D01*
X2038965Y1041904D01*
X2038977Y1041941D01*
X2038976Y1041981D01*
X2038984Y1042035D01*
X2038984Y1045845D01*
X2038973Y1045910D01*
X2038971Y1045976D01*
X2038953Y1046019D01*
X2038945Y1046066D01*
X2038911Y1046123D01*
X2038886Y1046183D01*
X2038855Y1046218D01*
X2038830Y1046259D01*
X2038779Y1046301D01*
X2038735Y1046349D01*
X2038693Y1046371D01*
X2038656Y1046400D01*
X2038594Y1046421D01*
X2038535Y1046452D01*
X2038481Y1046460D01*
X2038444Y1046472D01*
X2038404Y1046471D01*
X2038350Y1046479D01*
X2035810Y1046479D01*
X2035745Y1046468D01*
X2035679Y1046466D01*
X2035636Y1046448D01*
X2035589Y1046440D01*
X2035532Y1046406D01*
X2035472Y1046381D01*
X2035437Y1046350D01*
X2035396Y1046325D01*
X2035355Y1046274D01*
X2035306Y1046230D01*
X2035284Y1046188D01*
X2035255Y1046151D01*
X2035234Y1046089D01*
X2035203Y1046030D01*
X2035195Y1045976D01*
X2035183Y1045939D01*
X2035183Y1045935D01*
X2035183Y1045934D01*
X2035184Y1045899D01*
X2035176Y1045845D01*
X2035176Y1042035D01*
X2035187Y1041970D01*
X2035189Y1041904D01*
X2035207Y1041861D01*
X2035215Y1041814D01*
X2035249Y1041757D01*
X2035274Y1041697D01*
X2035305Y1041662D01*
X2035330Y1041621D01*
X2035381Y1041580D01*
X2035425Y1041531D01*
X2035467Y1041509D01*
X2035504Y1041480D01*
X2035566Y1041459D01*
X2035625Y1041428D01*
X2035679Y1041420D01*
X2035716Y1041408D01*
X2035756Y1041409D01*
X2035810Y1041401D01*
X2038350Y1041401D01*
X2038415Y1041412D01*
G37*
G36*
X2089215Y1040142D02*
X2089215Y1040142D01*
X2089281Y1040144D01*
X2089324Y1040162D01*
X2089371Y1040170D01*
X2089428Y1040204D01*
X2089488Y1040229D01*
X2089523Y1040260D01*
X2089564Y1040285D01*
X2089606Y1040336D01*
X2089654Y1040380D01*
X2089676Y1040422D01*
X2089705Y1040459D01*
X2089726Y1040521D01*
X2089757Y1040580D01*
X2089765Y1040634D01*
X2089777Y1040671D01*
X2089776Y1040711D01*
X2089784Y1040765D01*
X2089784Y1044575D01*
X2089773Y1044640D01*
X2089771Y1044706D01*
X2089753Y1044749D01*
X2089745Y1044796D01*
X2089711Y1044853D01*
X2089686Y1044913D01*
X2089655Y1044948D01*
X2089630Y1044989D01*
X2089579Y1045031D01*
X2089535Y1045079D01*
X2089493Y1045101D01*
X2089456Y1045130D01*
X2089394Y1045151D01*
X2089335Y1045182D01*
X2089281Y1045190D01*
X2089244Y1045202D01*
X2089204Y1045201D01*
X2089150Y1045209D01*
X2086610Y1045209D01*
X2086545Y1045198D01*
X2086479Y1045196D01*
X2086436Y1045178D01*
X2086389Y1045170D01*
X2086332Y1045136D01*
X2086272Y1045111D01*
X2086237Y1045080D01*
X2086196Y1045055D01*
X2086155Y1045004D01*
X2086106Y1044960D01*
X2086084Y1044918D01*
X2086055Y1044881D01*
X2086034Y1044819D01*
X2086003Y1044760D01*
X2085995Y1044706D01*
X2085983Y1044669D01*
X2085983Y1044665D01*
X2085983Y1044664D01*
X2085984Y1044629D01*
X2085976Y1044575D01*
X2085976Y1040765D01*
X2085987Y1040700D01*
X2085989Y1040634D01*
X2086007Y1040591D01*
X2086015Y1040544D01*
X2086049Y1040487D01*
X2086074Y1040427D01*
X2086105Y1040392D01*
X2086130Y1040351D01*
X2086181Y1040310D01*
X2086225Y1040261D01*
X2086267Y1040239D01*
X2086304Y1040210D01*
X2086366Y1040189D01*
X2086425Y1040158D01*
X2086479Y1040150D01*
X2086516Y1040138D01*
X2086556Y1040139D01*
X2086610Y1040131D01*
X2089150Y1040131D01*
X2089215Y1040142D01*
G37*
G36*
X610935Y1040142D02*
X610935Y1040142D01*
X611001Y1040144D01*
X611044Y1040162D01*
X611091Y1040170D01*
X611148Y1040204D01*
X611208Y1040229D01*
X611243Y1040260D01*
X611284Y1040285D01*
X611326Y1040336D01*
X611374Y1040380D01*
X611396Y1040422D01*
X611425Y1040459D01*
X611446Y1040521D01*
X611477Y1040580D01*
X611485Y1040634D01*
X611497Y1040671D01*
X611496Y1040711D01*
X611504Y1040765D01*
X611504Y1044575D01*
X611493Y1044640D01*
X611491Y1044706D01*
X611473Y1044749D01*
X611465Y1044796D01*
X611431Y1044853D01*
X611406Y1044913D01*
X611375Y1044948D01*
X611350Y1044989D01*
X611299Y1045031D01*
X611255Y1045079D01*
X611213Y1045101D01*
X611176Y1045130D01*
X611114Y1045151D01*
X611055Y1045182D01*
X611001Y1045190D01*
X610964Y1045202D01*
X610924Y1045201D01*
X610870Y1045209D01*
X608330Y1045209D01*
X608265Y1045198D01*
X608199Y1045196D01*
X608156Y1045178D01*
X608109Y1045170D01*
X608052Y1045136D01*
X607992Y1045111D01*
X607957Y1045080D01*
X607916Y1045055D01*
X607875Y1045004D01*
X607826Y1044960D01*
X607804Y1044918D01*
X607775Y1044881D01*
X607754Y1044819D01*
X607723Y1044760D01*
X607715Y1044706D01*
X607703Y1044669D01*
X607703Y1044665D01*
X607703Y1044664D01*
X607704Y1044629D01*
X607696Y1044575D01*
X607696Y1040765D01*
X607707Y1040700D01*
X607709Y1040634D01*
X607727Y1040591D01*
X607735Y1040544D01*
X607769Y1040487D01*
X607794Y1040427D01*
X607825Y1040392D01*
X607850Y1040351D01*
X607901Y1040310D01*
X607945Y1040261D01*
X607987Y1040239D01*
X608024Y1040210D01*
X608086Y1040189D01*
X608145Y1040158D01*
X608199Y1040150D01*
X608236Y1040138D01*
X608276Y1040139D01*
X608330Y1040131D01*
X610870Y1040131D01*
X610935Y1040142D01*
G37*
G36*
X1350075Y1040142D02*
X1350075Y1040142D01*
X1350141Y1040144D01*
X1350184Y1040162D01*
X1350231Y1040170D01*
X1350288Y1040204D01*
X1350348Y1040229D01*
X1350383Y1040260D01*
X1350424Y1040285D01*
X1350466Y1040336D01*
X1350514Y1040380D01*
X1350536Y1040422D01*
X1350565Y1040459D01*
X1350586Y1040521D01*
X1350617Y1040580D01*
X1350625Y1040634D01*
X1350637Y1040671D01*
X1350636Y1040711D01*
X1350644Y1040765D01*
X1350644Y1044575D01*
X1350633Y1044640D01*
X1350631Y1044706D01*
X1350613Y1044749D01*
X1350605Y1044796D01*
X1350571Y1044853D01*
X1350546Y1044913D01*
X1350515Y1044948D01*
X1350490Y1044989D01*
X1350439Y1045031D01*
X1350395Y1045079D01*
X1350353Y1045101D01*
X1350316Y1045130D01*
X1350254Y1045151D01*
X1350195Y1045182D01*
X1350141Y1045190D01*
X1350104Y1045202D01*
X1350064Y1045201D01*
X1350010Y1045209D01*
X1347470Y1045209D01*
X1347405Y1045198D01*
X1347339Y1045196D01*
X1347296Y1045178D01*
X1347249Y1045170D01*
X1347192Y1045136D01*
X1347132Y1045111D01*
X1347097Y1045080D01*
X1347056Y1045055D01*
X1347015Y1045004D01*
X1346966Y1044960D01*
X1346944Y1044918D01*
X1346915Y1044881D01*
X1346894Y1044819D01*
X1346863Y1044760D01*
X1346855Y1044706D01*
X1346843Y1044669D01*
X1346843Y1044665D01*
X1346843Y1044664D01*
X1346844Y1044629D01*
X1346836Y1044575D01*
X1346836Y1040765D01*
X1346847Y1040700D01*
X1346849Y1040634D01*
X1346867Y1040591D01*
X1346875Y1040544D01*
X1346909Y1040487D01*
X1346934Y1040427D01*
X1346965Y1040392D01*
X1346990Y1040351D01*
X1347041Y1040310D01*
X1347085Y1040261D01*
X1347127Y1040239D01*
X1347164Y1040210D01*
X1347226Y1040189D01*
X1347285Y1040158D01*
X1347339Y1040150D01*
X1347376Y1040138D01*
X1347416Y1040139D01*
X1347470Y1040131D01*
X1350010Y1040131D01*
X1350075Y1040142D01*
G37*
G36*
X610935Y1029982D02*
X610935Y1029982D01*
X611001Y1029984D01*
X611044Y1030002D01*
X611091Y1030010D01*
X611148Y1030044D01*
X611208Y1030069D01*
X611243Y1030100D01*
X611284Y1030125D01*
X611326Y1030176D01*
X611374Y1030220D01*
X611396Y1030262D01*
X611425Y1030299D01*
X611446Y1030361D01*
X611477Y1030420D01*
X611485Y1030474D01*
X611497Y1030511D01*
X611496Y1030551D01*
X611504Y1030605D01*
X611504Y1034415D01*
X611493Y1034480D01*
X611491Y1034546D01*
X611473Y1034589D01*
X611465Y1034636D01*
X611431Y1034693D01*
X611406Y1034753D01*
X611375Y1034788D01*
X611350Y1034829D01*
X611299Y1034871D01*
X611255Y1034919D01*
X611213Y1034941D01*
X611176Y1034970D01*
X611114Y1034991D01*
X611055Y1035022D01*
X611001Y1035030D01*
X610964Y1035042D01*
X610924Y1035041D01*
X610870Y1035049D01*
X608330Y1035049D01*
X608265Y1035038D01*
X608199Y1035036D01*
X608156Y1035018D01*
X608109Y1035010D01*
X608052Y1034976D01*
X607992Y1034951D01*
X607957Y1034920D01*
X607916Y1034895D01*
X607875Y1034844D01*
X607826Y1034800D01*
X607804Y1034758D01*
X607775Y1034721D01*
X607754Y1034659D01*
X607723Y1034600D01*
X607715Y1034546D01*
X607703Y1034509D01*
X607703Y1034505D01*
X607703Y1034504D01*
X607704Y1034469D01*
X607696Y1034415D01*
X607696Y1030605D01*
X607707Y1030540D01*
X607709Y1030474D01*
X607727Y1030431D01*
X607735Y1030384D01*
X607769Y1030327D01*
X607794Y1030267D01*
X607825Y1030232D01*
X607850Y1030191D01*
X607901Y1030150D01*
X607945Y1030101D01*
X607987Y1030079D01*
X608024Y1030050D01*
X608086Y1030029D01*
X608145Y1029998D01*
X608199Y1029990D01*
X608236Y1029978D01*
X608276Y1029979D01*
X608330Y1029971D01*
X610870Y1029971D01*
X610935Y1029982D01*
G37*
G36*
X1350075Y1029982D02*
X1350075Y1029982D01*
X1350141Y1029984D01*
X1350184Y1030002D01*
X1350231Y1030010D01*
X1350288Y1030044D01*
X1350348Y1030069D01*
X1350383Y1030100D01*
X1350424Y1030125D01*
X1350466Y1030176D01*
X1350514Y1030220D01*
X1350536Y1030262D01*
X1350565Y1030299D01*
X1350586Y1030361D01*
X1350617Y1030420D01*
X1350625Y1030474D01*
X1350637Y1030511D01*
X1350636Y1030551D01*
X1350644Y1030605D01*
X1350644Y1034415D01*
X1350633Y1034480D01*
X1350631Y1034546D01*
X1350613Y1034589D01*
X1350605Y1034636D01*
X1350571Y1034693D01*
X1350546Y1034753D01*
X1350515Y1034788D01*
X1350490Y1034829D01*
X1350439Y1034871D01*
X1350395Y1034919D01*
X1350353Y1034941D01*
X1350316Y1034970D01*
X1350254Y1034991D01*
X1350195Y1035022D01*
X1350141Y1035030D01*
X1350104Y1035042D01*
X1350064Y1035041D01*
X1350010Y1035049D01*
X1347470Y1035049D01*
X1347405Y1035038D01*
X1347339Y1035036D01*
X1347296Y1035018D01*
X1347249Y1035010D01*
X1347192Y1034976D01*
X1347132Y1034951D01*
X1347097Y1034920D01*
X1347056Y1034895D01*
X1347015Y1034844D01*
X1346966Y1034800D01*
X1346944Y1034758D01*
X1346915Y1034721D01*
X1346894Y1034659D01*
X1346863Y1034600D01*
X1346855Y1034546D01*
X1346843Y1034509D01*
X1346843Y1034505D01*
X1346843Y1034504D01*
X1346844Y1034469D01*
X1346836Y1034415D01*
X1346836Y1030605D01*
X1346847Y1030540D01*
X1346849Y1030474D01*
X1346867Y1030431D01*
X1346875Y1030384D01*
X1346909Y1030327D01*
X1346934Y1030267D01*
X1346965Y1030232D01*
X1346990Y1030191D01*
X1347041Y1030150D01*
X1347085Y1030101D01*
X1347127Y1030079D01*
X1347164Y1030050D01*
X1347226Y1030029D01*
X1347285Y1029998D01*
X1347339Y1029990D01*
X1347376Y1029978D01*
X1347416Y1029979D01*
X1347470Y1029971D01*
X1350010Y1029971D01*
X1350075Y1029982D01*
G37*
G36*
X2089215Y1029982D02*
X2089215Y1029982D01*
X2089281Y1029984D01*
X2089324Y1030002D01*
X2089371Y1030010D01*
X2089428Y1030044D01*
X2089488Y1030069D01*
X2089523Y1030100D01*
X2089564Y1030125D01*
X2089606Y1030176D01*
X2089654Y1030220D01*
X2089676Y1030262D01*
X2089705Y1030299D01*
X2089726Y1030361D01*
X2089757Y1030420D01*
X2089765Y1030474D01*
X2089777Y1030511D01*
X2089776Y1030551D01*
X2089784Y1030605D01*
X2089784Y1034415D01*
X2089773Y1034480D01*
X2089771Y1034546D01*
X2089753Y1034589D01*
X2089745Y1034636D01*
X2089711Y1034693D01*
X2089686Y1034753D01*
X2089655Y1034788D01*
X2089630Y1034829D01*
X2089579Y1034871D01*
X2089535Y1034919D01*
X2089493Y1034941D01*
X2089456Y1034970D01*
X2089394Y1034991D01*
X2089335Y1035022D01*
X2089281Y1035030D01*
X2089244Y1035042D01*
X2089204Y1035041D01*
X2089150Y1035049D01*
X2086610Y1035049D01*
X2086545Y1035038D01*
X2086479Y1035036D01*
X2086436Y1035018D01*
X2086389Y1035010D01*
X2086332Y1034976D01*
X2086272Y1034951D01*
X2086237Y1034920D01*
X2086196Y1034895D01*
X2086155Y1034844D01*
X2086106Y1034800D01*
X2086084Y1034758D01*
X2086055Y1034721D01*
X2086034Y1034659D01*
X2086003Y1034600D01*
X2085995Y1034546D01*
X2085983Y1034509D01*
X2085983Y1034505D01*
X2085983Y1034504D01*
X2085984Y1034469D01*
X2085976Y1034415D01*
X2085976Y1030605D01*
X2085987Y1030540D01*
X2085989Y1030474D01*
X2086007Y1030431D01*
X2086015Y1030384D01*
X2086049Y1030327D01*
X2086074Y1030267D01*
X2086105Y1030232D01*
X2086130Y1030191D01*
X2086181Y1030150D01*
X2086225Y1030101D01*
X2086267Y1030079D01*
X2086304Y1030050D01*
X2086366Y1030029D01*
X2086425Y1029998D01*
X2086479Y1029990D01*
X2086516Y1029978D01*
X2086556Y1029979D01*
X2086610Y1029971D01*
X2089150Y1029971D01*
X2089215Y1029982D01*
G37*
G36*
X2089215Y450862D02*
X2089215Y450862D01*
X2089281Y450864D01*
X2089324Y450882D01*
X2089371Y450890D01*
X2089428Y450924D01*
X2089488Y450949D01*
X2089523Y450980D01*
X2089564Y451005D01*
X2089606Y451056D01*
X2089654Y451100D01*
X2089676Y451142D01*
X2089705Y451179D01*
X2089726Y451241D01*
X2089757Y451300D01*
X2089765Y451354D01*
X2089777Y451391D01*
X2089776Y451431D01*
X2089784Y451485D01*
X2089784Y455295D01*
X2089773Y455360D01*
X2089771Y455426D01*
X2089753Y455469D01*
X2089745Y455516D01*
X2089711Y455573D01*
X2089686Y455633D01*
X2089655Y455668D01*
X2089630Y455709D01*
X2089579Y455751D01*
X2089535Y455799D01*
X2089493Y455821D01*
X2089456Y455850D01*
X2089394Y455871D01*
X2089335Y455902D01*
X2089281Y455910D01*
X2089244Y455922D01*
X2089204Y455921D01*
X2089150Y455929D01*
X2086610Y455929D01*
X2086545Y455918D01*
X2086479Y455916D01*
X2086436Y455898D01*
X2086389Y455890D01*
X2086332Y455856D01*
X2086272Y455831D01*
X2086237Y455800D01*
X2086196Y455775D01*
X2086155Y455724D01*
X2086106Y455680D01*
X2086084Y455638D01*
X2086055Y455601D01*
X2086034Y455539D01*
X2086003Y455480D01*
X2085995Y455426D01*
X2085983Y455389D01*
X2085983Y455385D01*
X2085983Y455384D01*
X2085984Y455349D01*
X2085976Y455295D01*
X2085976Y451485D01*
X2085987Y451420D01*
X2085989Y451354D01*
X2086007Y451311D01*
X2086015Y451264D01*
X2086049Y451207D01*
X2086074Y451147D01*
X2086105Y451112D01*
X2086130Y451071D01*
X2086181Y451030D01*
X2086225Y450981D01*
X2086267Y450959D01*
X2086304Y450930D01*
X2086366Y450909D01*
X2086425Y450878D01*
X2086479Y450870D01*
X2086516Y450858D01*
X2086556Y450859D01*
X2086610Y450851D01*
X2089150Y450851D01*
X2089215Y450862D01*
G37*
G36*
X610935Y450862D02*
X610935Y450862D01*
X611001Y450864D01*
X611044Y450882D01*
X611091Y450890D01*
X611148Y450924D01*
X611208Y450949D01*
X611243Y450980D01*
X611284Y451005D01*
X611326Y451056D01*
X611374Y451100D01*
X611396Y451142D01*
X611425Y451179D01*
X611446Y451241D01*
X611477Y451300D01*
X611485Y451354D01*
X611497Y451391D01*
X611496Y451431D01*
X611504Y451485D01*
X611504Y455295D01*
X611493Y455360D01*
X611491Y455426D01*
X611473Y455469D01*
X611465Y455516D01*
X611431Y455573D01*
X611406Y455633D01*
X611375Y455668D01*
X611350Y455709D01*
X611299Y455751D01*
X611255Y455799D01*
X611213Y455821D01*
X611176Y455850D01*
X611114Y455871D01*
X611055Y455902D01*
X611001Y455910D01*
X610964Y455922D01*
X610924Y455921D01*
X610870Y455929D01*
X608330Y455929D01*
X608265Y455918D01*
X608199Y455916D01*
X608156Y455898D01*
X608109Y455890D01*
X608052Y455856D01*
X607992Y455831D01*
X607957Y455800D01*
X607916Y455775D01*
X607875Y455724D01*
X607826Y455680D01*
X607804Y455638D01*
X607775Y455601D01*
X607754Y455539D01*
X607723Y455480D01*
X607715Y455426D01*
X607703Y455389D01*
X607703Y455385D01*
X607703Y455384D01*
X607704Y455349D01*
X607696Y455295D01*
X607696Y451485D01*
X607707Y451420D01*
X607709Y451354D01*
X607727Y451311D01*
X607735Y451264D01*
X607769Y451207D01*
X607794Y451147D01*
X607825Y451112D01*
X607850Y451071D01*
X607901Y451030D01*
X607945Y450981D01*
X607987Y450959D01*
X608024Y450930D01*
X608086Y450909D01*
X608145Y450878D01*
X608199Y450870D01*
X608236Y450858D01*
X608276Y450859D01*
X608330Y450851D01*
X610870Y450851D01*
X610935Y450862D01*
G37*
G36*
X1350075Y450862D02*
X1350075Y450862D01*
X1350141Y450864D01*
X1350184Y450882D01*
X1350231Y450890D01*
X1350288Y450924D01*
X1350348Y450949D01*
X1350383Y450980D01*
X1350424Y451005D01*
X1350466Y451056D01*
X1350514Y451100D01*
X1350536Y451142D01*
X1350565Y451179D01*
X1350586Y451241D01*
X1350617Y451300D01*
X1350625Y451354D01*
X1350637Y451391D01*
X1350636Y451431D01*
X1350644Y451485D01*
X1350644Y455295D01*
X1350633Y455360D01*
X1350631Y455426D01*
X1350613Y455469D01*
X1350605Y455516D01*
X1350571Y455573D01*
X1350546Y455633D01*
X1350515Y455668D01*
X1350490Y455709D01*
X1350439Y455751D01*
X1350395Y455799D01*
X1350353Y455821D01*
X1350316Y455850D01*
X1350254Y455871D01*
X1350195Y455902D01*
X1350141Y455910D01*
X1350104Y455922D01*
X1350064Y455921D01*
X1350010Y455929D01*
X1347470Y455929D01*
X1347405Y455918D01*
X1347339Y455916D01*
X1347296Y455898D01*
X1347249Y455890D01*
X1347192Y455856D01*
X1347132Y455831D01*
X1347097Y455800D01*
X1347056Y455775D01*
X1347015Y455724D01*
X1346966Y455680D01*
X1346944Y455638D01*
X1346915Y455601D01*
X1346894Y455539D01*
X1346863Y455480D01*
X1346855Y455426D01*
X1346843Y455389D01*
X1346843Y455385D01*
X1346843Y455384D01*
X1346844Y455349D01*
X1346836Y455295D01*
X1346836Y451485D01*
X1346847Y451420D01*
X1346849Y451354D01*
X1346867Y451311D01*
X1346875Y451264D01*
X1346909Y451207D01*
X1346934Y451147D01*
X1346965Y451112D01*
X1346990Y451071D01*
X1347041Y451030D01*
X1347085Y450981D01*
X1347127Y450959D01*
X1347164Y450930D01*
X1347226Y450909D01*
X1347285Y450878D01*
X1347339Y450870D01*
X1347376Y450858D01*
X1347416Y450859D01*
X1347470Y450851D01*
X1350010Y450851D01*
X1350075Y450862D01*
G37*
G36*
X610935Y440702D02*
X610935Y440702D01*
X611001Y440704D01*
X611044Y440722D01*
X611091Y440730D01*
X611148Y440764D01*
X611208Y440789D01*
X611243Y440820D01*
X611284Y440845D01*
X611326Y440896D01*
X611374Y440940D01*
X611396Y440982D01*
X611425Y441019D01*
X611446Y441081D01*
X611477Y441140D01*
X611485Y441194D01*
X611497Y441231D01*
X611496Y441271D01*
X611504Y441325D01*
X611504Y445135D01*
X611493Y445200D01*
X611491Y445266D01*
X611473Y445309D01*
X611465Y445356D01*
X611431Y445413D01*
X611406Y445473D01*
X611375Y445508D01*
X611350Y445549D01*
X611299Y445591D01*
X611255Y445639D01*
X611213Y445661D01*
X611176Y445690D01*
X611114Y445711D01*
X611055Y445742D01*
X611001Y445750D01*
X610964Y445762D01*
X610924Y445761D01*
X610870Y445769D01*
X608330Y445769D01*
X608265Y445758D01*
X608199Y445756D01*
X608156Y445738D01*
X608109Y445730D01*
X608052Y445696D01*
X607992Y445671D01*
X607957Y445640D01*
X607916Y445615D01*
X607875Y445564D01*
X607826Y445520D01*
X607804Y445478D01*
X607775Y445441D01*
X607754Y445379D01*
X607723Y445320D01*
X607715Y445266D01*
X607703Y445229D01*
X607703Y445225D01*
X607703Y445224D01*
X607704Y445189D01*
X607696Y445135D01*
X607696Y441325D01*
X607707Y441260D01*
X607709Y441194D01*
X607727Y441151D01*
X607735Y441104D01*
X607769Y441047D01*
X607794Y440987D01*
X607825Y440952D01*
X607850Y440911D01*
X607901Y440870D01*
X607945Y440821D01*
X607987Y440799D01*
X608024Y440770D01*
X608086Y440749D01*
X608145Y440718D01*
X608199Y440710D01*
X608236Y440698D01*
X608276Y440699D01*
X608330Y440691D01*
X610870Y440691D01*
X610935Y440702D01*
G37*
G36*
X2089215Y440702D02*
X2089215Y440702D01*
X2089281Y440704D01*
X2089324Y440722D01*
X2089371Y440730D01*
X2089428Y440764D01*
X2089488Y440789D01*
X2089523Y440820D01*
X2089564Y440845D01*
X2089606Y440896D01*
X2089654Y440940D01*
X2089676Y440982D01*
X2089705Y441019D01*
X2089726Y441081D01*
X2089757Y441140D01*
X2089765Y441194D01*
X2089777Y441231D01*
X2089776Y441271D01*
X2089784Y441325D01*
X2089784Y445135D01*
X2089773Y445200D01*
X2089771Y445266D01*
X2089753Y445309D01*
X2089745Y445356D01*
X2089711Y445413D01*
X2089686Y445473D01*
X2089655Y445508D01*
X2089630Y445549D01*
X2089579Y445591D01*
X2089535Y445639D01*
X2089493Y445661D01*
X2089456Y445690D01*
X2089394Y445711D01*
X2089335Y445742D01*
X2089281Y445750D01*
X2089244Y445762D01*
X2089204Y445761D01*
X2089150Y445769D01*
X2086610Y445769D01*
X2086545Y445758D01*
X2086479Y445756D01*
X2086436Y445738D01*
X2086389Y445730D01*
X2086332Y445696D01*
X2086272Y445671D01*
X2086237Y445640D01*
X2086196Y445615D01*
X2086155Y445564D01*
X2086106Y445520D01*
X2086084Y445478D01*
X2086055Y445441D01*
X2086034Y445379D01*
X2086003Y445320D01*
X2085995Y445266D01*
X2085983Y445229D01*
X2085983Y445225D01*
X2085983Y445224D01*
X2085984Y445189D01*
X2085976Y445135D01*
X2085976Y441325D01*
X2085987Y441260D01*
X2085989Y441194D01*
X2086007Y441151D01*
X2086015Y441104D01*
X2086049Y441047D01*
X2086074Y440987D01*
X2086105Y440952D01*
X2086130Y440911D01*
X2086181Y440870D01*
X2086225Y440821D01*
X2086267Y440799D01*
X2086304Y440770D01*
X2086366Y440749D01*
X2086425Y440718D01*
X2086479Y440710D01*
X2086516Y440698D01*
X2086556Y440699D01*
X2086610Y440691D01*
X2089150Y440691D01*
X2089215Y440702D01*
G37*
G36*
X1350075Y440702D02*
X1350075Y440702D01*
X1350141Y440704D01*
X1350184Y440722D01*
X1350231Y440730D01*
X1350288Y440764D01*
X1350348Y440789D01*
X1350383Y440820D01*
X1350424Y440845D01*
X1350466Y440896D01*
X1350514Y440940D01*
X1350536Y440982D01*
X1350565Y441019D01*
X1350586Y441081D01*
X1350617Y441140D01*
X1350625Y441194D01*
X1350637Y441231D01*
X1350636Y441271D01*
X1350644Y441325D01*
X1350644Y445135D01*
X1350633Y445200D01*
X1350631Y445266D01*
X1350613Y445309D01*
X1350605Y445356D01*
X1350571Y445413D01*
X1350546Y445473D01*
X1350515Y445508D01*
X1350490Y445549D01*
X1350439Y445591D01*
X1350395Y445639D01*
X1350353Y445661D01*
X1350316Y445690D01*
X1350254Y445711D01*
X1350195Y445742D01*
X1350141Y445750D01*
X1350104Y445762D01*
X1350064Y445761D01*
X1350010Y445769D01*
X1347470Y445769D01*
X1347405Y445758D01*
X1347339Y445756D01*
X1347296Y445738D01*
X1347249Y445730D01*
X1347192Y445696D01*
X1347132Y445671D01*
X1347097Y445640D01*
X1347056Y445615D01*
X1347015Y445564D01*
X1346966Y445520D01*
X1346944Y445478D01*
X1346915Y445441D01*
X1346894Y445379D01*
X1346863Y445320D01*
X1346855Y445266D01*
X1346843Y445229D01*
X1346843Y445225D01*
X1346843Y445224D01*
X1346844Y445189D01*
X1346836Y445135D01*
X1346836Y441325D01*
X1346847Y441260D01*
X1346849Y441194D01*
X1346867Y441151D01*
X1346875Y441104D01*
X1346909Y441047D01*
X1346934Y440987D01*
X1346965Y440952D01*
X1346990Y440911D01*
X1347041Y440870D01*
X1347085Y440821D01*
X1347127Y440799D01*
X1347164Y440770D01*
X1347226Y440749D01*
X1347285Y440718D01*
X1347339Y440710D01*
X1347376Y440698D01*
X1347416Y440699D01*
X1347470Y440691D01*
X1350010Y440691D01*
X1350075Y440702D01*
G37*
G36*
X1141160Y2185047D02*
X1141160Y2185047D01*
X1141226Y2185049D01*
X1141269Y2185067D01*
X1141316Y2185075D01*
X1141373Y2185109D01*
X1141433Y2185134D01*
X1141468Y2185165D01*
X1141509Y2185190D01*
X1141551Y2185241D01*
X1141599Y2185285D01*
X1141621Y2185327D01*
X1141650Y2185364D01*
X1141671Y2185426D01*
X1141702Y2185485D01*
X1141710Y2185539D01*
X1141722Y2185576D01*
X1141721Y2185616D01*
X1141729Y2185670D01*
X1141729Y2188210D01*
X1141718Y2188275D01*
X1141716Y2188341D01*
X1141698Y2188384D01*
X1141690Y2188431D01*
X1141656Y2188488D01*
X1141631Y2188548D01*
X1141600Y2188583D01*
X1141575Y2188624D01*
X1141524Y2188666D01*
X1141480Y2188714D01*
X1141438Y2188736D01*
X1141401Y2188765D01*
X1141339Y2188786D01*
X1141280Y2188817D01*
X1141226Y2188825D01*
X1141189Y2188837D01*
X1141149Y2188836D01*
X1141095Y2188844D01*
X1137285Y2188844D01*
X1137220Y2188833D01*
X1137154Y2188831D01*
X1137111Y2188813D01*
X1137064Y2188805D01*
X1137007Y2188771D01*
X1136947Y2188746D01*
X1136912Y2188715D01*
X1136871Y2188690D01*
X1136830Y2188639D01*
X1136781Y2188595D01*
X1136759Y2188553D01*
X1136730Y2188516D01*
X1136709Y2188454D01*
X1136678Y2188395D01*
X1136670Y2188341D01*
X1136658Y2188304D01*
X1136658Y2188301D01*
X1136659Y2188264D01*
X1136651Y2188210D01*
X1136651Y2185670D01*
X1136662Y2185605D01*
X1136664Y2185539D01*
X1136682Y2185496D01*
X1136690Y2185449D01*
X1136724Y2185392D01*
X1136749Y2185332D01*
X1136780Y2185297D01*
X1136805Y2185256D01*
X1136856Y2185215D01*
X1136900Y2185166D01*
X1136942Y2185144D01*
X1136979Y2185115D01*
X1137041Y2185094D01*
X1137100Y2185063D01*
X1137154Y2185055D01*
X1137191Y2185043D01*
X1137231Y2185044D01*
X1137285Y2185036D01*
X1141095Y2185036D01*
X1141160Y2185047D01*
G37*
G36*
X402020Y2185047D02*
X402020Y2185047D01*
X402086Y2185049D01*
X402129Y2185067D01*
X402176Y2185075D01*
X402233Y2185109D01*
X402293Y2185134D01*
X402328Y2185165D01*
X402369Y2185190D01*
X402411Y2185241D01*
X402459Y2185285D01*
X402481Y2185327D01*
X402510Y2185364D01*
X402531Y2185426D01*
X402562Y2185485D01*
X402570Y2185539D01*
X402582Y2185576D01*
X402581Y2185616D01*
X402589Y2185670D01*
X402589Y2188210D01*
X402578Y2188275D01*
X402576Y2188341D01*
X402558Y2188384D01*
X402550Y2188431D01*
X402516Y2188488D01*
X402491Y2188548D01*
X402460Y2188583D01*
X402435Y2188624D01*
X402384Y2188666D01*
X402340Y2188714D01*
X402298Y2188736D01*
X402261Y2188765D01*
X402199Y2188786D01*
X402140Y2188817D01*
X402086Y2188825D01*
X402049Y2188837D01*
X402009Y2188836D01*
X401955Y2188844D01*
X398145Y2188844D01*
X398080Y2188833D01*
X398014Y2188831D01*
X397971Y2188813D01*
X397924Y2188805D01*
X397867Y2188771D01*
X397807Y2188746D01*
X397772Y2188715D01*
X397731Y2188690D01*
X397690Y2188639D01*
X397641Y2188595D01*
X397619Y2188553D01*
X397590Y2188516D01*
X397569Y2188454D01*
X397538Y2188395D01*
X397530Y2188341D01*
X397518Y2188304D01*
X397518Y2188301D01*
X397519Y2188264D01*
X397511Y2188210D01*
X397511Y2185670D01*
X397522Y2185605D01*
X397524Y2185539D01*
X397542Y2185496D01*
X397550Y2185449D01*
X397584Y2185392D01*
X397609Y2185332D01*
X397640Y2185297D01*
X397665Y2185256D01*
X397716Y2185215D01*
X397760Y2185166D01*
X397802Y2185144D01*
X397839Y2185115D01*
X397901Y2185094D01*
X397960Y2185063D01*
X398014Y2185055D01*
X398051Y2185043D01*
X398091Y2185044D01*
X398145Y2185036D01*
X401955Y2185036D01*
X402020Y2185047D01*
G37*
G36*
X1880300Y2185047D02*
X1880300Y2185047D01*
X1880366Y2185049D01*
X1880409Y2185067D01*
X1880456Y2185075D01*
X1880513Y2185109D01*
X1880573Y2185134D01*
X1880608Y2185165D01*
X1880649Y2185190D01*
X1880691Y2185241D01*
X1880739Y2185285D01*
X1880761Y2185327D01*
X1880790Y2185364D01*
X1880811Y2185426D01*
X1880842Y2185485D01*
X1880850Y2185539D01*
X1880862Y2185576D01*
X1880861Y2185616D01*
X1880869Y2185670D01*
X1880869Y2188210D01*
X1880858Y2188275D01*
X1880856Y2188341D01*
X1880838Y2188384D01*
X1880830Y2188431D01*
X1880796Y2188488D01*
X1880771Y2188548D01*
X1880740Y2188583D01*
X1880715Y2188624D01*
X1880664Y2188666D01*
X1880620Y2188714D01*
X1880578Y2188736D01*
X1880541Y2188765D01*
X1880479Y2188786D01*
X1880420Y2188817D01*
X1880366Y2188825D01*
X1880329Y2188837D01*
X1880289Y2188836D01*
X1880235Y2188844D01*
X1876425Y2188844D01*
X1876360Y2188833D01*
X1876294Y2188831D01*
X1876251Y2188813D01*
X1876204Y2188805D01*
X1876147Y2188771D01*
X1876087Y2188746D01*
X1876052Y2188715D01*
X1876011Y2188690D01*
X1875970Y2188639D01*
X1875921Y2188595D01*
X1875899Y2188553D01*
X1875870Y2188516D01*
X1875849Y2188454D01*
X1875818Y2188395D01*
X1875810Y2188341D01*
X1875798Y2188304D01*
X1875798Y2188301D01*
X1875799Y2188264D01*
X1875791Y2188210D01*
X1875791Y2185670D01*
X1875802Y2185605D01*
X1875804Y2185539D01*
X1875822Y2185496D01*
X1875830Y2185449D01*
X1875864Y2185392D01*
X1875889Y2185332D01*
X1875920Y2185297D01*
X1875945Y2185256D01*
X1875996Y2185215D01*
X1876040Y2185166D01*
X1876082Y2185144D01*
X1876119Y2185115D01*
X1876181Y2185094D01*
X1876240Y2185063D01*
X1876294Y2185055D01*
X1876331Y2185043D01*
X1876371Y2185044D01*
X1876425Y2185036D01*
X1880235Y2185036D01*
X1880300Y2185047D01*
G37*
G36*
X402020Y1006487D02*
X402020Y1006487D01*
X402086Y1006489D01*
X402129Y1006507D01*
X402176Y1006515D01*
X402233Y1006549D01*
X402293Y1006574D01*
X402328Y1006605D01*
X402369Y1006630D01*
X402411Y1006681D01*
X402459Y1006725D01*
X402481Y1006767D01*
X402510Y1006804D01*
X402531Y1006866D01*
X402562Y1006925D01*
X402570Y1006979D01*
X402582Y1007016D01*
X402581Y1007056D01*
X402589Y1007110D01*
X402589Y1009650D01*
X402578Y1009715D01*
X402576Y1009781D01*
X402558Y1009824D01*
X402550Y1009871D01*
X402516Y1009928D01*
X402491Y1009988D01*
X402460Y1010023D01*
X402435Y1010064D01*
X402384Y1010106D01*
X402340Y1010154D01*
X402298Y1010176D01*
X402261Y1010205D01*
X402199Y1010226D01*
X402140Y1010257D01*
X402086Y1010265D01*
X402049Y1010277D01*
X402009Y1010276D01*
X401955Y1010284D01*
X398145Y1010284D01*
X398080Y1010273D01*
X398014Y1010271D01*
X397971Y1010253D01*
X397924Y1010245D01*
X397867Y1010211D01*
X397807Y1010186D01*
X397772Y1010155D01*
X397731Y1010130D01*
X397690Y1010079D01*
X397641Y1010035D01*
X397619Y1009993D01*
X397590Y1009956D01*
X397569Y1009894D01*
X397538Y1009835D01*
X397530Y1009781D01*
X397518Y1009744D01*
X397518Y1009741D01*
X397519Y1009704D01*
X397511Y1009650D01*
X397511Y1007110D01*
X397522Y1007045D01*
X397524Y1006979D01*
X397542Y1006936D01*
X397550Y1006889D01*
X397584Y1006832D01*
X397609Y1006772D01*
X397640Y1006737D01*
X397665Y1006696D01*
X397716Y1006655D01*
X397760Y1006606D01*
X397802Y1006584D01*
X397839Y1006555D01*
X397901Y1006534D01*
X397960Y1006503D01*
X398014Y1006495D01*
X398051Y1006483D01*
X398091Y1006484D01*
X398145Y1006476D01*
X401955Y1006476D01*
X402020Y1006487D01*
G37*
G36*
X1880300Y1006487D02*
X1880300Y1006487D01*
X1880366Y1006489D01*
X1880409Y1006507D01*
X1880456Y1006515D01*
X1880513Y1006549D01*
X1880573Y1006574D01*
X1880608Y1006605D01*
X1880649Y1006630D01*
X1880691Y1006681D01*
X1880739Y1006725D01*
X1880761Y1006767D01*
X1880790Y1006804D01*
X1880811Y1006866D01*
X1880842Y1006925D01*
X1880850Y1006979D01*
X1880862Y1007016D01*
X1880861Y1007056D01*
X1880869Y1007110D01*
X1880869Y1009650D01*
X1880858Y1009715D01*
X1880856Y1009781D01*
X1880838Y1009824D01*
X1880830Y1009871D01*
X1880796Y1009928D01*
X1880771Y1009988D01*
X1880740Y1010023D01*
X1880715Y1010064D01*
X1880664Y1010106D01*
X1880620Y1010154D01*
X1880578Y1010176D01*
X1880541Y1010205D01*
X1880479Y1010226D01*
X1880420Y1010257D01*
X1880366Y1010265D01*
X1880329Y1010277D01*
X1880289Y1010276D01*
X1880235Y1010284D01*
X1876425Y1010284D01*
X1876360Y1010273D01*
X1876294Y1010271D01*
X1876251Y1010253D01*
X1876204Y1010245D01*
X1876147Y1010211D01*
X1876087Y1010186D01*
X1876052Y1010155D01*
X1876011Y1010130D01*
X1875970Y1010079D01*
X1875921Y1010035D01*
X1875899Y1009993D01*
X1875870Y1009956D01*
X1875849Y1009894D01*
X1875818Y1009835D01*
X1875810Y1009781D01*
X1875798Y1009744D01*
X1875798Y1009741D01*
X1875799Y1009704D01*
X1875791Y1009650D01*
X1875791Y1007110D01*
X1875802Y1007045D01*
X1875804Y1006979D01*
X1875822Y1006936D01*
X1875830Y1006889D01*
X1875864Y1006832D01*
X1875889Y1006772D01*
X1875920Y1006737D01*
X1875945Y1006696D01*
X1875996Y1006655D01*
X1876040Y1006606D01*
X1876082Y1006584D01*
X1876119Y1006555D01*
X1876181Y1006534D01*
X1876240Y1006503D01*
X1876294Y1006495D01*
X1876331Y1006483D01*
X1876371Y1006484D01*
X1876425Y1006476D01*
X1880235Y1006476D01*
X1880300Y1006487D01*
G37*
G36*
X1141160Y1006487D02*
X1141160Y1006487D01*
X1141226Y1006489D01*
X1141269Y1006507D01*
X1141316Y1006515D01*
X1141373Y1006549D01*
X1141433Y1006574D01*
X1141468Y1006605D01*
X1141509Y1006630D01*
X1141551Y1006681D01*
X1141599Y1006725D01*
X1141621Y1006767D01*
X1141650Y1006804D01*
X1141671Y1006866D01*
X1141702Y1006925D01*
X1141710Y1006979D01*
X1141722Y1007016D01*
X1141721Y1007056D01*
X1141729Y1007110D01*
X1141729Y1009650D01*
X1141718Y1009715D01*
X1141716Y1009781D01*
X1141698Y1009824D01*
X1141690Y1009871D01*
X1141656Y1009928D01*
X1141631Y1009988D01*
X1141600Y1010023D01*
X1141575Y1010064D01*
X1141524Y1010106D01*
X1141480Y1010154D01*
X1141438Y1010176D01*
X1141401Y1010205D01*
X1141339Y1010226D01*
X1141280Y1010257D01*
X1141226Y1010265D01*
X1141189Y1010277D01*
X1141149Y1010276D01*
X1141095Y1010284D01*
X1137285Y1010284D01*
X1137220Y1010273D01*
X1137154Y1010271D01*
X1137111Y1010253D01*
X1137064Y1010245D01*
X1137007Y1010211D01*
X1136947Y1010186D01*
X1136912Y1010155D01*
X1136871Y1010130D01*
X1136830Y1010079D01*
X1136781Y1010035D01*
X1136759Y1009993D01*
X1136730Y1009956D01*
X1136709Y1009894D01*
X1136678Y1009835D01*
X1136670Y1009781D01*
X1136658Y1009744D01*
X1136658Y1009741D01*
X1136659Y1009704D01*
X1136651Y1009650D01*
X1136651Y1007110D01*
X1136662Y1007045D01*
X1136664Y1006979D01*
X1136682Y1006936D01*
X1136690Y1006889D01*
X1136724Y1006832D01*
X1136749Y1006772D01*
X1136780Y1006737D01*
X1136805Y1006696D01*
X1136856Y1006655D01*
X1136900Y1006606D01*
X1136942Y1006584D01*
X1136979Y1006555D01*
X1137041Y1006534D01*
X1137100Y1006503D01*
X1137154Y1006495D01*
X1137191Y1006483D01*
X1137231Y1006484D01*
X1137285Y1006476D01*
X1141095Y1006476D01*
X1141160Y1006487D01*
G37*
G36*
X1880300Y1595767D02*
X1880300Y1595767D01*
X1880366Y1595769D01*
X1880409Y1595787D01*
X1880456Y1595795D01*
X1880513Y1595829D01*
X1880573Y1595854D01*
X1880608Y1595885D01*
X1880649Y1595910D01*
X1880691Y1595961D01*
X1880739Y1596005D01*
X1880761Y1596047D01*
X1880790Y1596084D01*
X1880811Y1596146D01*
X1880842Y1596205D01*
X1880850Y1596259D01*
X1880862Y1596296D01*
X1880861Y1596336D01*
X1880869Y1596390D01*
X1880869Y1598930D01*
X1880858Y1598995D01*
X1880856Y1599061D01*
X1880838Y1599104D01*
X1880830Y1599151D01*
X1880796Y1599208D01*
X1880771Y1599268D01*
X1880740Y1599303D01*
X1880715Y1599344D01*
X1880664Y1599386D01*
X1880620Y1599434D01*
X1880578Y1599456D01*
X1880541Y1599485D01*
X1880479Y1599506D01*
X1880420Y1599537D01*
X1880366Y1599545D01*
X1880329Y1599557D01*
X1880289Y1599556D01*
X1880235Y1599564D01*
X1876425Y1599564D01*
X1876360Y1599553D01*
X1876294Y1599551D01*
X1876251Y1599533D01*
X1876204Y1599525D01*
X1876147Y1599491D01*
X1876087Y1599466D01*
X1876052Y1599435D01*
X1876011Y1599410D01*
X1875970Y1599359D01*
X1875921Y1599315D01*
X1875899Y1599273D01*
X1875870Y1599236D01*
X1875849Y1599174D01*
X1875818Y1599115D01*
X1875810Y1599061D01*
X1875798Y1599024D01*
X1875798Y1599021D01*
X1875799Y1598984D01*
X1875791Y1598930D01*
X1875791Y1596390D01*
X1875802Y1596325D01*
X1875804Y1596259D01*
X1875822Y1596216D01*
X1875830Y1596169D01*
X1875864Y1596112D01*
X1875889Y1596052D01*
X1875920Y1596017D01*
X1875945Y1595976D01*
X1875996Y1595935D01*
X1876040Y1595886D01*
X1876082Y1595864D01*
X1876119Y1595835D01*
X1876181Y1595814D01*
X1876240Y1595783D01*
X1876294Y1595775D01*
X1876331Y1595763D01*
X1876371Y1595764D01*
X1876425Y1595756D01*
X1880235Y1595756D01*
X1880300Y1595767D01*
G37*
G36*
X402020Y1595767D02*
X402020Y1595767D01*
X402086Y1595769D01*
X402129Y1595787D01*
X402176Y1595795D01*
X402233Y1595829D01*
X402293Y1595854D01*
X402328Y1595885D01*
X402369Y1595910D01*
X402411Y1595961D01*
X402459Y1596005D01*
X402481Y1596047D01*
X402510Y1596084D01*
X402531Y1596146D01*
X402562Y1596205D01*
X402570Y1596259D01*
X402582Y1596296D01*
X402581Y1596336D01*
X402589Y1596390D01*
X402589Y1598930D01*
X402578Y1598995D01*
X402576Y1599061D01*
X402558Y1599104D01*
X402550Y1599151D01*
X402516Y1599208D01*
X402491Y1599268D01*
X402460Y1599303D01*
X402435Y1599344D01*
X402384Y1599386D01*
X402340Y1599434D01*
X402298Y1599456D01*
X402261Y1599485D01*
X402199Y1599506D01*
X402140Y1599537D01*
X402086Y1599545D01*
X402049Y1599557D01*
X402009Y1599556D01*
X401955Y1599564D01*
X398145Y1599564D01*
X398080Y1599553D01*
X398014Y1599551D01*
X397971Y1599533D01*
X397924Y1599525D01*
X397867Y1599491D01*
X397807Y1599466D01*
X397772Y1599435D01*
X397731Y1599410D01*
X397690Y1599359D01*
X397641Y1599315D01*
X397619Y1599273D01*
X397590Y1599236D01*
X397569Y1599174D01*
X397538Y1599115D01*
X397530Y1599061D01*
X397518Y1599024D01*
X397518Y1599021D01*
X397519Y1598984D01*
X397511Y1598930D01*
X397511Y1596390D01*
X397522Y1596325D01*
X397524Y1596259D01*
X397542Y1596216D01*
X397550Y1596169D01*
X397584Y1596112D01*
X397609Y1596052D01*
X397640Y1596017D01*
X397665Y1595976D01*
X397716Y1595935D01*
X397760Y1595886D01*
X397802Y1595864D01*
X397839Y1595835D01*
X397901Y1595814D01*
X397960Y1595783D01*
X398014Y1595775D01*
X398051Y1595763D01*
X398091Y1595764D01*
X398145Y1595756D01*
X401955Y1595756D01*
X402020Y1595767D01*
G37*
G36*
X1141160Y1595767D02*
X1141160Y1595767D01*
X1141226Y1595769D01*
X1141269Y1595787D01*
X1141316Y1595795D01*
X1141373Y1595829D01*
X1141433Y1595854D01*
X1141468Y1595885D01*
X1141509Y1595910D01*
X1141551Y1595961D01*
X1141599Y1596005D01*
X1141621Y1596047D01*
X1141650Y1596084D01*
X1141671Y1596146D01*
X1141702Y1596205D01*
X1141710Y1596259D01*
X1141722Y1596296D01*
X1141721Y1596336D01*
X1141729Y1596390D01*
X1141729Y1598930D01*
X1141718Y1598995D01*
X1141716Y1599061D01*
X1141698Y1599104D01*
X1141690Y1599151D01*
X1141656Y1599208D01*
X1141631Y1599268D01*
X1141600Y1599303D01*
X1141575Y1599344D01*
X1141524Y1599386D01*
X1141480Y1599434D01*
X1141438Y1599456D01*
X1141401Y1599485D01*
X1141339Y1599506D01*
X1141280Y1599537D01*
X1141226Y1599545D01*
X1141189Y1599557D01*
X1141149Y1599556D01*
X1141095Y1599564D01*
X1137285Y1599564D01*
X1137220Y1599553D01*
X1137154Y1599551D01*
X1137111Y1599533D01*
X1137064Y1599525D01*
X1137007Y1599491D01*
X1136947Y1599466D01*
X1136912Y1599435D01*
X1136871Y1599410D01*
X1136830Y1599359D01*
X1136781Y1599315D01*
X1136759Y1599273D01*
X1136730Y1599236D01*
X1136709Y1599174D01*
X1136678Y1599115D01*
X1136670Y1599061D01*
X1136658Y1599024D01*
X1136658Y1599021D01*
X1136659Y1598984D01*
X1136651Y1598930D01*
X1136651Y1596390D01*
X1136662Y1596325D01*
X1136664Y1596259D01*
X1136682Y1596216D01*
X1136690Y1596169D01*
X1136724Y1596112D01*
X1136749Y1596052D01*
X1136780Y1596017D01*
X1136805Y1595976D01*
X1136856Y1595935D01*
X1136900Y1595886D01*
X1136942Y1595864D01*
X1136979Y1595835D01*
X1137041Y1595814D01*
X1137100Y1595783D01*
X1137154Y1595775D01*
X1137191Y1595763D01*
X1137231Y1595764D01*
X1137285Y1595756D01*
X1141095Y1595756D01*
X1141160Y1595767D01*
G37*
G36*
X1880300Y417207D02*
X1880300Y417207D01*
X1880366Y417209D01*
X1880409Y417227D01*
X1880456Y417235D01*
X1880513Y417269D01*
X1880573Y417294D01*
X1880608Y417325D01*
X1880649Y417350D01*
X1880691Y417401D01*
X1880739Y417445D01*
X1880761Y417487D01*
X1880790Y417524D01*
X1880811Y417586D01*
X1880842Y417645D01*
X1880850Y417699D01*
X1880862Y417736D01*
X1880861Y417776D01*
X1880869Y417830D01*
X1880869Y420370D01*
X1880858Y420435D01*
X1880856Y420501D01*
X1880838Y420544D01*
X1880830Y420591D01*
X1880796Y420648D01*
X1880771Y420708D01*
X1880740Y420743D01*
X1880715Y420784D01*
X1880664Y420826D01*
X1880620Y420874D01*
X1880578Y420896D01*
X1880541Y420925D01*
X1880479Y420946D01*
X1880420Y420977D01*
X1880366Y420985D01*
X1880329Y420997D01*
X1880289Y420996D01*
X1880235Y421004D01*
X1876425Y421004D01*
X1876360Y420993D01*
X1876294Y420991D01*
X1876251Y420973D01*
X1876204Y420965D01*
X1876147Y420931D01*
X1876087Y420906D01*
X1876052Y420875D01*
X1876011Y420850D01*
X1875970Y420799D01*
X1875921Y420755D01*
X1875899Y420713D01*
X1875870Y420676D01*
X1875849Y420614D01*
X1875818Y420555D01*
X1875810Y420501D01*
X1875798Y420464D01*
X1875798Y420461D01*
X1875799Y420424D01*
X1875791Y420370D01*
X1875791Y417830D01*
X1875802Y417765D01*
X1875804Y417699D01*
X1875822Y417656D01*
X1875830Y417609D01*
X1875864Y417552D01*
X1875889Y417492D01*
X1875920Y417457D01*
X1875945Y417416D01*
X1875996Y417375D01*
X1876040Y417326D01*
X1876082Y417304D01*
X1876119Y417275D01*
X1876181Y417254D01*
X1876240Y417223D01*
X1876294Y417215D01*
X1876331Y417203D01*
X1876371Y417204D01*
X1876425Y417196D01*
X1880235Y417196D01*
X1880300Y417207D01*
G37*
G36*
X1141160Y417207D02*
X1141160Y417207D01*
X1141226Y417209D01*
X1141269Y417227D01*
X1141316Y417235D01*
X1141373Y417269D01*
X1141433Y417294D01*
X1141468Y417325D01*
X1141509Y417350D01*
X1141551Y417401D01*
X1141599Y417445D01*
X1141621Y417487D01*
X1141650Y417524D01*
X1141671Y417586D01*
X1141702Y417645D01*
X1141710Y417699D01*
X1141722Y417736D01*
X1141721Y417776D01*
X1141729Y417830D01*
X1141729Y420370D01*
X1141718Y420435D01*
X1141716Y420501D01*
X1141698Y420544D01*
X1141690Y420591D01*
X1141656Y420648D01*
X1141631Y420708D01*
X1141600Y420743D01*
X1141575Y420784D01*
X1141524Y420826D01*
X1141480Y420874D01*
X1141438Y420896D01*
X1141401Y420925D01*
X1141339Y420946D01*
X1141280Y420977D01*
X1141226Y420985D01*
X1141189Y420997D01*
X1141149Y420996D01*
X1141095Y421004D01*
X1137285Y421004D01*
X1137220Y420993D01*
X1137154Y420991D01*
X1137111Y420973D01*
X1137064Y420965D01*
X1137007Y420931D01*
X1136947Y420906D01*
X1136912Y420875D01*
X1136871Y420850D01*
X1136830Y420799D01*
X1136781Y420755D01*
X1136759Y420713D01*
X1136730Y420676D01*
X1136709Y420614D01*
X1136678Y420555D01*
X1136670Y420501D01*
X1136658Y420464D01*
X1136658Y420461D01*
X1136659Y420424D01*
X1136651Y420370D01*
X1136651Y417830D01*
X1136662Y417765D01*
X1136664Y417699D01*
X1136682Y417656D01*
X1136690Y417609D01*
X1136724Y417552D01*
X1136749Y417492D01*
X1136780Y417457D01*
X1136805Y417416D01*
X1136856Y417375D01*
X1136900Y417326D01*
X1136942Y417304D01*
X1136979Y417275D01*
X1137041Y417254D01*
X1137100Y417223D01*
X1137154Y417215D01*
X1137191Y417203D01*
X1137231Y417204D01*
X1137285Y417196D01*
X1141095Y417196D01*
X1141160Y417207D01*
G37*
G36*
X402020Y417207D02*
X402020Y417207D01*
X402086Y417209D01*
X402129Y417227D01*
X402176Y417235D01*
X402233Y417269D01*
X402293Y417294D01*
X402328Y417325D01*
X402369Y417350D01*
X402411Y417401D01*
X402459Y417445D01*
X402481Y417487D01*
X402510Y417524D01*
X402531Y417586D01*
X402562Y417645D01*
X402570Y417699D01*
X402582Y417736D01*
X402581Y417776D01*
X402589Y417830D01*
X402589Y420370D01*
X402578Y420435D01*
X402576Y420501D01*
X402558Y420544D01*
X402550Y420591D01*
X402516Y420648D01*
X402491Y420708D01*
X402460Y420743D01*
X402435Y420784D01*
X402384Y420826D01*
X402340Y420874D01*
X402298Y420896D01*
X402261Y420925D01*
X402199Y420946D01*
X402140Y420977D01*
X402086Y420985D01*
X402049Y420997D01*
X402009Y420996D01*
X401955Y421004D01*
X398145Y421004D01*
X398080Y420993D01*
X398014Y420991D01*
X397971Y420973D01*
X397924Y420965D01*
X397867Y420931D01*
X397807Y420906D01*
X397772Y420875D01*
X397731Y420850D01*
X397690Y420799D01*
X397641Y420755D01*
X397619Y420713D01*
X397590Y420676D01*
X397569Y420614D01*
X397538Y420555D01*
X397530Y420501D01*
X397518Y420464D01*
X397518Y420461D01*
X397519Y420424D01*
X397511Y420370D01*
X397511Y417830D01*
X397522Y417765D01*
X397524Y417699D01*
X397542Y417656D01*
X397550Y417609D01*
X397584Y417552D01*
X397609Y417492D01*
X397640Y417457D01*
X397665Y417416D01*
X397716Y417375D01*
X397760Y417326D01*
X397802Y417304D01*
X397839Y417275D01*
X397901Y417254D01*
X397960Y417223D01*
X398014Y417215D01*
X398051Y417203D01*
X398091Y417204D01*
X398145Y417196D01*
X401955Y417196D01*
X402020Y417207D01*
G37*
D10*
X139700Y50800D03*
X660400Y101600D03*
X660400Y381000D03*
X152400Y533400D03*
D11*
X49050Y448000D03*
X49050Y390200D03*
D12*
X33549Y431989D02*
X4551Y431989D01*
X33549Y431989D02*
X33549Y423991D01*
X4551Y423991D01*
X4551Y431989D01*
X4551Y426391D02*
X33549Y426391D01*
X33549Y428791D02*
X4551Y428791D01*
X4551Y431191D02*
X33549Y431191D01*
X33549Y449769D02*
X4551Y449769D01*
X33549Y449769D02*
X33549Y441771D01*
X4551Y441771D01*
X4551Y449769D01*
X4551Y444171D02*
X33549Y444171D01*
X33549Y446571D02*
X4551Y446571D01*
X4551Y448971D02*
X33549Y448971D01*
X33549Y414209D02*
X4551Y414209D01*
X33549Y414209D02*
X33549Y406211D01*
X4551Y406211D01*
X4551Y414209D01*
X4551Y408611D02*
X33549Y408611D01*
X33549Y411011D02*
X4551Y411011D01*
X4551Y413411D02*
X33549Y413411D01*
X33549Y396429D02*
X4551Y396429D01*
X33549Y396429D02*
X33549Y388431D01*
X4551Y388431D01*
X4551Y396429D01*
X4551Y390831D02*
X33549Y390831D01*
X33549Y393231D02*
X4551Y393231D01*
X4551Y395631D02*
X33549Y395631D01*
D13*
X24013Y489448D02*
X18659Y489448D01*
X18659Y501152D01*
X24013Y501152D01*
X24013Y489448D01*
X24013Y491842D02*
X18659Y491842D01*
X18659Y494236D02*
X24013Y494236D01*
X24013Y496630D02*
X18659Y496630D01*
X18659Y499024D02*
X24013Y499024D01*
X26787Y489448D02*
X32141Y489448D01*
X26787Y489448D02*
X26787Y501152D01*
X32141Y501152D01*
X32141Y489448D01*
X32141Y491842D02*
X26787Y491842D01*
X26787Y494236D02*
X32141Y494236D01*
X32141Y496630D02*
X26787Y496630D01*
X26787Y499024D02*
X32141Y499024D01*
D14*
X187960Y571500D03*
X213360Y571500D03*
X238760Y571500D03*
X264160Y571500D03*
X289560Y571500D03*
X314960Y571500D03*
X340360Y571500D03*
X365760Y571500D03*
X391160Y571500D03*
X416560Y571500D03*
X279400Y12700D03*
X304800Y12700D03*
X330200Y12700D03*
X355600Y12700D03*
X381000Y12700D03*
X406400Y12700D03*
X431800Y12700D03*
X457200Y12700D03*
X508000Y12700D03*
X533400Y12700D03*
X558800Y12700D03*
X584200Y12700D03*
X609600Y12700D03*
X635000Y12700D03*
X635000Y571500D03*
X609600Y571500D03*
X584200Y571500D03*
X558800Y571500D03*
X533400Y571500D03*
X508000Y571500D03*
X482600Y571500D03*
X457200Y571500D03*
D15*
X488950Y368300D03*
X488950Y381000D03*
X501650Y368300D03*
X501650Y381000D03*
X514350Y368300D03*
X514350Y381000D03*
X527050Y368300D03*
X527050Y381000D03*
X539750Y368300D03*
X539750Y381000D03*
D16*
X88900Y574040D03*
X660400Y63500D03*
D13*
X603748Y455920D02*
X603748Y461528D01*
X615452Y461528D01*
X615452Y455920D01*
X603748Y455920D01*
X603748Y458314D02*
X615452Y458314D01*
X615452Y460708D02*
X603748Y460708D01*
X603748Y451114D02*
X603748Y445506D01*
X603748Y451114D02*
X615452Y451114D01*
X615452Y445506D01*
X603748Y445506D01*
X603748Y447900D02*
X615452Y447900D01*
X615452Y450294D02*
X603748Y450294D01*
X603748Y440700D02*
X603748Y435092D01*
X603748Y440700D02*
X615452Y440700D01*
X615452Y435092D01*
X603748Y435092D01*
X603748Y437486D02*
X615452Y437486D01*
X615452Y439880D02*
X603748Y439880D01*
X590052Y447919D02*
X590052Y453273D01*
X590052Y447919D02*
X578348Y447919D01*
X578348Y453273D01*
X590052Y453273D01*
X590052Y450313D02*
X578348Y450313D01*
X578348Y452707D02*
X590052Y452707D01*
X590052Y456047D02*
X590052Y461401D01*
X590052Y456047D02*
X578348Y456047D01*
X578348Y461401D01*
X590052Y461401D01*
X590052Y458441D02*
X578348Y458441D01*
X578348Y460835D02*
X590052Y460835D01*
D16*
X40640Y242550D03*
X40640Y322550D03*
D13*
X564652Y446649D02*
X564652Y452257D01*
X564652Y446649D02*
X552948Y446649D01*
X552948Y452257D01*
X564652Y452257D01*
X564652Y449043D02*
X552948Y449043D01*
X552948Y451437D02*
X564652Y451437D01*
X564652Y457063D02*
X564652Y462671D01*
X564652Y457063D02*
X552948Y457063D01*
X552948Y462671D01*
X564652Y462671D01*
X564652Y459457D02*
X552948Y459457D01*
X552948Y461851D02*
X564652Y461851D01*
X539252Y452257D02*
X539252Y446649D01*
X527548Y446649D01*
X527548Y452257D01*
X539252Y452257D01*
X539252Y449043D02*
X527548Y449043D01*
X527548Y451437D02*
X539252Y451437D01*
X539252Y457063D02*
X539252Y462671D01*
X539252Y457063D02*
X527548Y457063D01*
X527548Y462671D01*
X539252Y462671D01*
X539252Y459457D02*
X527548Y459457D01*
X527548Y461851D02*
X539252Y461851D01*
D17*
X20320Y111760D03*
X66040Y111760D03*
D13*
X392039Y413248D02*
X397647Y413248D01*
X392039Y413248D02*
X392039Y424952D01*
X397647Y424952D01*
X397647Y413248D01*
X397647Y415642D02*
X392039Y415642D01*
X392039Y418036D02*
X397647Y418036D01*
X397647Y420430D02*
X392039Y420430D01*
X392039Y422824D02*
X397647Y422824D01*
X402453Y413248D02*
X408061Y413248D01*
X402453Y413248D02*
X402453Y424952D01*
X408061Y424952D01*
X408061Y413248D01*
X408061Y415642D02*
X402453Y415642D01*
X402453Y418036D02*
X408061Y418036D01*
X408061Y420430D02*
X402453Y420430D01*
X402453Y422824D02*
X408061Y422824D01*
D14*
X387350Y444500D03*
X412750Y444500D03*
X203200Y127000D03*
X228600Y127000D03*
D18*
X508000Y431800D03*
D10*
X878840Y50800D03*
X1399540Y101600D03*
X1399540Y381000D03*
X891540Y533400D03*
D11*
X788190Y448000D03*
X788190Y390200D03*
D12*
X772689Y431989D02*
X743691Y431989D01*
X772689Y431989D02*
X772689Y423991D01*
X743691Y423991D01*
X743691Y431989D01*
X743691Y426391D02*
X772689Y426391D01*
X772689Y428791D02*
X743691Y428791D01*
X743691Y431191D02*
X772689Y431191D01*
X772689Y449769D02*
X743691Y449769D01*
X772689Y449769D02*
X772689Y441771D01*
X743691Y441771D01*
X743691Y449769D01*
X743691Y444171D02*
X772689Y444171D01*
X772689Y446571D02*
X743691Y446571D01*
X743691Y448971D02*
X772689Y448971D01*
X772689Y414209D02*
X743691Y414209D01*
X772689Y414209D02*
X772689Y406211D01*
X743691Y406211D01*
X743691Y414209D01*
X743691Y408611D02*
X772689Y408611D01*
X772689Y411011D02*
X743691Y411011D01*
X743691Y413411D02*
X772689Y413411D01*
X772689Y396429D02*
X743691Y396429D01*
X772689Y396429D02*
X772689Y388431D01*
X743691Y388431D01*
X743691Y396429D01*
X743691Y390831D02*
X772689Y390831D01*
X772689Y393231D02*
X743691Y393231D01*
X743691Y395631D02*
X772689Y395631D01*
D13*
X763153Y489448D02*
X757799Y489448D01*
X757799Y501152D01*
X763153Y501152D01*
X763153Y489448D01*
X763153Y491842D02*
X757799Y491842D01*
X757799Y494236D02*
X763153Y494236D01*
X763153Y496630D02*
X757799Y496630D01*
X757799Y499024D02*
X763153Y499024D01*
X765927Y489448D02*
X771281Y489448D01*
X765927Y489448D02*
X765927Y501152D01*
X771281Y501152D01*
X771281Y489448D01*
X771281Y491842D02*
X765927Y491842D01*
X765927Y494236D02*
X771281Y494236D01*
X771281Y496630D02*
X765927Y496630D01*
X765927Y499024D02*
X771281Y499024D01*
D14*
X927100Y571500D03*
X952500Y571500D03*
X977900Y571500D03*
X1003300Y571500D03*
X1028700Y571500D03*
X1054100Y571500D03*
X1079500Y571500D03*
X1104900Y571500D03*
X1130300Y571500D03*
X1155700Y571500D03*
X1018540Y12700D03*
X1043940Y12700D03*
X1069340Y12700D03*
X1094740Y12700D03*
X1120140Y12700D03*
X1145540Y12700D03*
X1170940Y12700D03*
X1196340Y12700D03*
X1247140Y12700D03*
X1272540Y12700D03*
X1297940Y12700D03*
X1323340Y12700D03*
X1348740Y12700D03*
X1374140Y12700D03*
X1374140Y571500D03*
X1348740Y571500D03*
X1323340Y571500D03*
X1297940Y571500D03*
X1272540Y571500D03*
X1247140Y571500D03*
X1221740Y571500D03*
X1196340Y571500D03*
D15*
X1228090Y368300D03*
X1228090Y381000D03*
X1240790Y368300D03*
X1240790Y381000D03*
X1253490Y368300D03*
X1253490Y381000D03*
X1266190Y368300D03*
X1266190Y381000D03*
X1278890Y368300D03*
X1278890Y381000D03*
D16*
X828040Y574040D03*
X1399540Y63500D03*
D13*
X1342888Y455920D02*
X1342888Y461528D01*
X1354592Y461528D01*
X1354592Y455920D01*
X1342888Y455920D01*
X1342888Y458314D02*
X1354592Y458314D01*
X1354592Y460708D02*
X1342888Y460708D01*
X1342888Y451114D02*
X1342888Y445506D01*
X1342888Y451114D02*
X1354592Y451114D01*
X1354592Y445506D01*
X1342888Y445506D01*
X1342888Y447900D02*
X1354592Y447900D01*
X1354592Y450294D02*
X1342888Y450294D01*
X1342888Y440700D02*
X1342888Y435092D01*
X1342888Y440700D02*
X1354592Y440700D01*
X1354592Y435092D01*
X1342888Y435092D01*
X1342888Y437486D02*
X1354592Y437486D01*
X1354592Y439880D02*
X1342888Y439880D01*
X1329192Y447919D02*
X1329192Y453273D01*
X1329192Y447919D02*
X1317488Y447919D01*
X1317488Y453273D01*
X1329192Y453273D01*
X1329192Y450313D02*
X1317488Y450313D01*
X1317488Y452707D02*
X1329192Y452707D01*
X1329192Y456047D02*
X1329192Y461401D01*
X1329192Y456047D02*
X1317488Y456047D01*
X1317488Y461401D01*
X1329192Y461401D01*
X1329192Y458441D02*
X1317488Y458441D01*
X1317488Y460835D02*
X1329192Y460835D01*
D16*
X779780Y242550D03*
X779780Y322550D03*
D13*
X1303792Y446649D02*
X1303792Y452257D01*
X1303792Y446649D02*
X1292088Y446649D01*
X1292088Y452257D01*
X1303792Y452257D01*
X1303792Y449043D02*
X1292088Y449043D01*
X1292088Y451437D02*
X1303792Y451437D01*
X1303792Y457063D02*
X1303792Y462671D01*
X1303792Y457063D02*
X1292088Y457063D01*
X1292088Y462671D01*
X1303792Y462671D01*
X1303792Y459457D02*
X1292088Y459457D01*
X1292088Y461851D02*
X1303792Y461851D01*
X1278392Y452257D02*
X1278392Y446649D01*
X1266688Y446649D01*
X1266688Y452257D01*
X1278392Y452257D01*
X1278392Y449043D02*
X1266688Y449043D01*
X1266688Y451437D02*
X1278392Y451437D01*
X1278392Y457063D02*
X1278392Y462671D01*
X1278392Y457063D02*
X1266688Y457063D01*
X1266688Y462671D01*
X1278392Y462671D01*
X1278392Y459457D02*
X1266688Y459457D01*
X1266688Y461851D02*
X1278392Y461851D01*
D17*
X759460Y111760D03*
X805180Y111760D03*
D13*
X1131179Y413248D02*
X1136787Y413248D01*
X1131179Y413248D02*
X1131179Y424952D01*
X1136787Y424952D01*
X1136787Y413248D01*
X1136787Y415642D02*
X1131179Y415642D01*
X1131179Y418036D02*
X1136787Y418036D01*
X1136787Y420430D02*
X1131179Y420430D01*
X1131179Y422824D02*
X1136787Y422824D01*
X1141593Y413248D02*
X1147201Y413248D01*
X1141593Y413248D02*
X1141593Y424952D01*
X1147201Y424952D01*
X1147201Y413248D01*
X1147201Y415642D02*
X1141593Y415642D01*
X1141593Y418036D02*
X1147201Y418036D01*
X1147201Y420430D02*
X1141593Y420430D01*
X1141593Y422824D02*
X1147201Y422824D01*
D14*
X1126490Y444500D03*
X1151890Y444500D03*
X942340Y127000D03*
X967740Y127000D03*
D18*
X1247140Y431800D03*
D10*
X1617980Y50800D03*
X2138680Y101600D03*
X2138680Y381000D03*
X1630680Y533400D03*
D11*
X1527330Y448000D03*
X1527330Y390200D03*
D12*
X1511829Y431989D02*
X1482831Y431989D01*
X1511829Y431989D02*
X1511829Y423991D01*
X1482831Y423991D01*
X1482831Y431989D01*
X1482831Y426391D02*
X1511829Y426391D01*
X1511829Y428791D02*
X1482831Y428791D01*
X1482831Y431191D02*
X1511829Y431191D01*
X1511829Y449769D02*
X1482831Y449769D01*
X1511829Y449769D02*
X1511829Y441771D01*
X1482831Y441771D01*
X1482831Y449769D01*
X1482831Y444171D02*
X1511829Y444171D01*
X1511829Y446571D02*
X1482831Y446571D01*
X1482831Y448971D02*
X1511829Y448971D01*
X1511829Y414209D02*
X1482831Y414209D01*
X1511829Y414209D02*
X1511829Y406211D01*
X1482831Y406211D01*
X1482831Y414209D01*
X1482831Y408611D02*
X1511829Y408611D01*
X1511829Y411011D02*
X1482831Y411011D01*
X1482831Y413411D02*
X1511829Y413411D01*
X1511829Y396429D02*
X1482831Y396429D01*
X1511829Y396429D02*
X1511829Y388431D01*
X1482831Y388431D01*
X1482831Y396429D01*
X1482831Y390831D02*
X1511829Y390831D01*
X1511829Y393231D02*
X1482831Y393231D01*
X1482831Y395631D02*
X1511829Y395631D01*
D13*
X1502293Y489448D02*
X1496939Y489448D01*
X1496939Y501152D01*
X1502293Y501152D01*
X1502293Y489448D01*
X1502293Y491842D02*
X1496939Y491842D01*
X1496939Y494236D02*
X1502293Y494236D01*
X1502293Y496630D02*
X1496939Y496630D01*
X1496939Y499024D02*
X1502293Y499024D01*
X1505067Y489448D02*
X1510421Y489448D01*
X1505067Y489448D02*
X1505067Y501152D01*
X1510421Y501152D01*
X1510421Y489448D01*
X1510421Y491842D02*
X1505067Y491842D01*
X1505067Y494236D02*
X1510421Y494236D01*
X1510421Y496630D02*
X1505067Y496630D01*
X1505067Y499024D02*
X1510421Y499024D01*
D14*
X1666240Y571500D03*
X1691640Y571500D03*
X1717040Y571500D03*
X1742440Y571500D03*
X1767840Y571500D03*
X1793240Y571500D03*
X1818640Y571500D03*
X1844040Y571500D03*
X1869440Y571500D03*
X1894840Y571500D03*
X1757680Y12700D03*
X1783080Y12700D03*
X1808480Y12700D03*
X1833880Y12700D03*
X1859280Y12700D03*
X1884680Y12700D03*
X1910080Y12700D03*
X1935480Y12700D03*
X1986280Y12700D03*
X2011680Y12700D03*
X2037080Y12700D03*
X2062480Y12700D03*
X2087880Y12700D03*
X2113280Y12700D03*
X2113280Y571500D03*
X2087880Y571500D03*
X2062480Y571500D03*
X2037080Y571500D03*
X2011680Y571500D03*
X1986280Y571500D03*
X1960880Y571500D03*
X1935480Y571500D03*
D15*
X1967230Y368300D03*
X1967230Y381000D03*
X1979930Y368300D03*
X1979930Y381000D03*
X1992630Y368300D03*
X1992630Y381000D03*
X2005330Y368300D03*
X2005330Y381000D03*
X2018030Y368300D03*
X2018030Y381000D03*
D16*
X1567180Y574040D03*
X2138680Y63500D03*
D13*
X2082028Y455920D02*
X2082028Y461528D01*
X2093732Y461528D01*
X2093732Y455920D01*
X2082028Y455920D01*
X2082028Y458314D02*
X2093732Y458314D01*
X2093732Y460708D02*
X2082028Y460708D01*
X2082028Y451114D02*
X2082028Y445506D01*
X2082028Y451114D02*
X2093732Y451114D01*
X2093732Y445506D01*
X2082028Y445506D01*
X2082028Y447900D02*
X2093732Y447900D01*
X2093732Y450294D02*
X2082028Y450294D01*
X2082028Y440700D02*
X2082028Y435092D01*
X2082028Y440700D02*
X2093732Y440700D01*
X2093732Y435092D01*
X2082028Y435092D01*
X2082028Y437486D02*
X2093732Y437486D01*
X2093732Y439880D02*
X2082028Y439880D01*
X2068332Y447919D02*
X2068332Y453273D01*
X2068332Y447919D02*
X2056628Y447919D01*
X2056628Y453273D01*
X2068332Y453273D01*
X2068332Y450313D02*
X2056628Y450313D01*
X2056628Y452707D02*
X2068332Y452707D01*
X2068332Y456047D02*
X2068332Y461401D01*
X2068332Y456047D02*
X2056628Y456047D01*
X2056628Y461401D01*
X2068332Y461401D01*
X2068332Y458441D02*
X2056628Y458441D01*
X2056628Y460835D02*
X2068332Y460835D01*
D16*
X1518920Y242550D03*
X1518920Y322550D03*
D13*
X2042932Y446649D02*
X2042932Y452257D01*
X2042932Y446649D02*
X2031228Y446649D01*
X2031228Y452257D01*
X2042932Y452257D01*
X2042932Y449043D02*
X2031228Y449043D01*
X2031228Y451437D02*
X2042932Y451437D01*
X2042932Y457063D02*
X2042932Y462671D01*
X2042932Y457063D02*
X2031228Y457063D01*
X2031228Y462671D01*
X2042932Y462671D01*
X2042932Y459457D02*
X2031228Y459457D01*
X2031228Y461851D02*
X2042932Y461851D01*
X2017532Y452257D02*
X2017532Y446649D01*
X2005828Y446649D01*
X2005828Y452257D01*
X2017532Y452257D01*
X2017532Y449043D02*
X2005828Y449043D01*
X2005828Y451437D02*
X2017532Y451437D01*
X2017532Y457063D02*
X2017532Y462671D01*
X2017532Y457063D02*
X2005828Y457063D01*
X2005828Y462671D01*
X2017532Y462671D01*
X2017532Y459457D02*
X2005828Y459457D01*
X2005828Y461851D02*
X2017532Y461851D01*
D17*
X1498600Y111760D03*
X1544320Y111760D03*
D13*
X1870319Y413248D02*
X1875927Y413248D01*
X1870319Y413248D02*
X1870319Y424952D01*
X1875927Y424952D01*
X1875927Y413248D01*
X1875927Y415642D02*
X1870319Y415642D01*
X1870319Y418036D02*
X1875927Y418036D01*
X1875927Y420430D02*
X1870319Y420430D01*
X1870319Y422824D02*
X1875927Y422824D01*
X1880733Y413248D02*
X1886341Y413248D01*
X1880733Y413248D02*
X1880733Y424952D01*
X1886341Y424952D01*
X1886341Y413248D01*
X1886341Y415642D02*
X1880733Y415642D01*
X1880733Y418036D02*
X1886341Y418036D01*
X1886341Y420430D02*
X1880733Y420430D01*
X1880733Y422824D02*
X1886341Y422824D01*
D14*
X1865630Y444500D03*
X1891030Y444500D03*
X1681480Y127000D03*
X1706880Y127000D03*
D18*
X1986280Y431800D03*
D10*
X139700Y640080D03*
X660400Y690880D03*
X660400Y970280D03*
X152400Y1122680D03*
D11*
X49050Y1037280D03*
X49050Y979480D03*
D12*
X33549Y1021269D02*
X4551Y1021269D01*
X33549Y1021269D02*
X33549Y1013271D01*
X4551Y1013271D01*
X4551Y1021269D01*
X4551Y1015671D02*
X33549Y1015671D01*
X33549Y1018071D02*
X4551Y1018071D01*
X4551Y1020471D02*
X33549Y1020471D01*
X33549Y1039049D02*
X4551Y1039049D01*
X33549Y1039049D02*
X33549Y1031051D01*
X4551Y1031051D01*
X4551Y1039049D01*
X4551Y1033451D02*
X33549Y1033451D01*
X33549Y1035851D02*
X4551Y1035851D01*
X4551Y1038251D02*
X33549Y1038251D01*
X33549Y1003489D02*
X4551Y1003489D01*
X33549Y1003489D02*
X33549Y995491D01*
X4551Y995491D01*
X4551Y1003489D01*
X4551Y997891D02*
X33549Y997891D01*
X33549Y1000291D02*
X4551Y1000291D01*
X4551Y1002691D02*
X33549Y1002691D01*
X33549Y985709D02*
X4551Y985709D01*
X33549Y985709D02*
X33549Y977711D01*
X4551Y977711D01*
X4551Y985709D01*
X4551Y980111D02*
X33549Y980111D01*
X33549Y982511D02*
X4551Y982511D01*
X4551Y984911D02*
X33549Y984911D01*
D13*
X24013Y1078728D02*
X18659Y1078728D01*
X18659Y1090432D01*
X24013Y1090432D01*
X24013Y1078728D01*
X24013Y1081122D02*
X18659Y1081122D01*
X18659Y1083516D02*
X24013Y1083516D01*
X24013Y1085910D02*
X18659Y1085910D01*
X18659Y1088304D02*
X24013Y1088304D01*
X26787Y1078728D02*
X32141Y1078728D01*
X26787Y1078728D02*
X26787Y1090432D01*
X32141Y1090432D01*
X32141Y1078728D01*
X32141Y1081122D02*
X26787Y1081122D01*
X26787Y1083516D02*
X32141Y1083516D01*
X32141Y1085910D02*
X26787Y1085910D01*
X26787Y1088304D02*
X32141Y1088304D01*
D14*
X187960Y1160780D03*
X213360Y1160780D03*
X238760Y1160780D03*
X264160Y1160780D03*
X289560Y1160780D03*
X314960Y1160780D03*
X340360Y1160780D03*
X365760Y1160780D03*
X391160Y1160780D03*
X416560Y1160780D03*
X279400Y601980D03*
X304800Y601980D03*
X330200Y601980D03*
X355600Y601980D03*
X381000Y601980D03*
X406400Y601980D03*
X431800Y601980D03*
X457200Y601980D03*
X508000Y601980D03*
X533400Y601980D03*
X558800Y601980D03*
X584200Y601980D03*
X609600Y601980D03*
X635000Y601980D03*
X635000Y1160780D03*
X609600Y1160780D03*
X584200Y1160780D03*
X558800Y1160780D03*
X533400Y1160780D03*
X508000Y1160780D03*
X482600Y1160780D03*
X457200Y1160780D03*
D15*
X488950Y957580D03*
X488950Y970280D03*
X501650Y957580D03*
X501650Y970280D03*
X514350Y957580D03*
X514350Y970280D03*
X527050Y957580D03*
X527050Y970280D03*
X539750Y957580D03*
X539750Y970280D03*
D16*
X88900Y1163320D03*
X660400Y652780D03*
D13*
X603748Y1045200D02*
X603748Y1050808D01*
X615452Y1050808D01*
X615452Y1045200D01*
X603748Y1045200D01*
X603748Y1047594D02*
X615452Y1047594D01*
X615452Y1049988D02*
X603748Y1049988D01*
X603748Y1040394D02*
X603748Y1034786D01*
X603748Y1040394D02*
X615452Y1040394D01*
X615452Y1034786D01*
X603748Y1034786D01*
X603748Y1037180D02*
X615452Y1037180D01*
X615452Y1039574D02*
X603748Y1039574D01*
X603748Y1029980D02*
X603748Y1024372D01*
X603748Y1029980D02*
X615452Y1029980D01*
X615452Y1024372D01*
X603748Y1024372D01*
X603748Y1026766D02*
X615452Y1026766D01*
X615452Y1029160D02*
X603748Y1029160D01*
X590052Y1037199D02*
X590052Y1042553D01*
X590052Y1037199D02*
X578348Y1037199D01*
X578348Y1042553D01*
X590052Y1042553D01*
X590052Y1039593D02*
X578348Y1039593D01*
X578348Y1041987D02*
X590052Y1041987D01*
X590052Y1045327D02*
X590052Y1050681D01*
X590052Y1045327D02*
X578348Y1045327D01*
X578348Y1050681D01*
X590052Y1050681D01*
X590052Y1047721D02*
X578348Y1047721D01*
X578348Y1050115D02*
X590052Y1050115D01*
D16*
X40640Y831830D03*
X40640Y911830D03*
D13*
X564652Y1035929D02*
X564652Y1041537D01*
X564652Y1035929D02*
X552948Y1035929D01*
X552948Y1041537D01*
X564652Y1041537D01*
X564652Y1038323D02*
X552948Y1038323D01*
X552948Y1040717D02*
X564652Y1040717D01*
X564652Y1046343D02*
X564652Y1051951D01*
X564652Y1046343D02*
X552948Y1046343D01*
X552948Y1051951D01*
X564652Y1051951D01*
X564652Y1048737D02*
X552948Y1048737D01*
X552948Y1051131D02*
X564652Y1051131D01*
X539252Y1041537D02*
X539252Y1035929D01*
X527548Y1035929D01*
X527548Y1041537D01*
X539252Y1041537D01*
X539252Y1038323D02*
X527548Y1038323D01*
X527548Y1040717D02*
X539252Y1040717D01*
X539252Y1046343D02*
X539252Y1051951D01*
X539252Y1046343D02*
X527548Y1046343D01*
X527548Y1051951D01*
X539252Y1051951D01*
X539252Y1048737D02*
X527548Y1048737D01*
X527548Y1051131D02*
X539252Y1051131D01*
D17*
X20320Y701040D03*
X66040Y701040D03*
D13*
X392039Y1002528D02*
X397647Y1002528D01*
X392039Y1002528D02*
X392039Y1014232D01*
X397647Y1014232D01*
X397647Y1002528D01*
X397647Y1004922D02*
X392039Y1004922D01*
X392039Y1007316D02*
X397647Y1007316D01*
X397647Y1009710D02*
X392039Y1009710D01*
X392039Y1012104D02*
X397647Y1012104D01*
X402453Y1002528D02*
X408061Y1002528D01*
X402453Y1002528D02*
X402453Y1014232D01*
X408061Y1014232D01*
X408061Y1002528D01*
X408061Y1004922D02*
X402453Y1004922D01*
X402453Y1007316D02*
X408061Y1007316D01*
X408061Y1009710D02*
X402453Y1009710D01*
X402453Y1012104D02*
X408061Y1012104D01*
D14*
X387350Y1033780D03*
X412750Y1033780D03*
X203200Y716280D03*
X228600Y716280D03*
D18*
X508000Y1021080D03*
D10*
X878840Y640080D03*
X1399540Y690880D03*
X1399540Y970280D03*
X891540Y1122680D03*
D11*
X788190Y1037280D03*
X788190Y979480D03*
D12*
X772689Y1021269D02*
X743691Y1021269D01*
X772689Y1021269D02*
X772689Y1013271D01*
X743691Y1013271D01*
X743691Y1021269D01*
X743691Y1015671D02*
X772689Y1015671D01*
X772689Y1018071D02*
X743691Y1018071D01*
X743691Y1020471D02*
X772689Y1020471D01*
X772689Y1039049D02*
X743691Y1039049D01*
X772689Y1039049D02*
X772689Y1031051D01*
X743691Y1031051D01*
X743691Y1039049D01*
X743691Y1033451D02*
X772689Y1033451D01*
X772689Y1035851D02*
X743691Y1035851D01*
X743691Y1038251D02*
X772689Y1038251D01*
X772689Y1003489D02*
X743691Y1003489D01*
X772689Y1003489D02*
X772689Y995491D01*
X743691Y995491D01*
X743691Y1003489D01*
X743691Y997891D02*
X772689Y997891D01*
X772689Y1000291D02*
X743691Y1000291D01*
X743691Y1002691D02*
X772689Y1002691D01*
X772689Y985709D02*
X743691Y985709D01*
X772689Y985709D02*
X772689Y977711D01*
X743691Y977711D01*
X743691Y985709D01*
X743691Y980111D02*
X772689Y980111D01*
X772689Y982511D02*
X743691Y982511D01*
X743691Y984911D02*
X772689Y984911D01*
D13*
X763153Y1078728D02*
X757799Y1078728D01*
X757799Y1090432D01*
X763153Y1090432D01*
X763153Y1078728D01*
X763153Y1081122D02*
X757799Y1081122D01*
X757799Y1083516D02*
X763153Y1083516D01*
X763153Y1085910D02*
X757799Y1085910D01*
X757799Y1088304D02*
X763153Y1088304D01*
X765927Y1078728D02*
X771281Y1078728D01*
X765927Y1078728D02*
X765927Y1090432D01*
X771281Y1090432D01*
X771281Y1078728D01*
X771281Y1081122D02*
X765927Y1081122D01*
X765927Y1083516D02*
X771281Y1083516D01*
X771281Y1085910D02*
X765927Y1085910D01*
X765927Y1088304D02*
X771281Y1088304D01*
D14*
X927100Y1160780D03*
X952500Y1160780D03*
X977900Y1160780D03*
X1003300Y1160780D03*
X1028700Y1160780D03*
X1054100Y1160780D03*
X1079500Y1160780D03*
X1104900Y1160780D03*
X1130300Y1160780D03*
X1155700Y1160780D03*
X1018540Y601980D03*
X1043940Y601980D03*
X1069340Y601980D03*
X1094740Y601980D03*
X1120140Y601980D03*
X1145540Y601980D03*
X1170940Y601980D03*
X1196340Y601980D03*
X1247140Y601980D03*
X1272540Y601980D03*
X1297940Y601980D03*
X1323340Y601980D03*
X1348740Y601980D03*
X1374140Y601980D03*
X1374140Y1160780D03*
X1348740Y1160780D03*
X1323340Y1160780D03*
X1297940Y1160780D03*
X1272540Y1160780D03*
X1247140Y1160780D03*
X1221740Y1160780D03*
X1196340Y1160780D03*
D15*
X1228090Y957580D03*
X1228090Y970280D03*
X1240790Y957580D03*
X1240790Y970280D03*
X1253490Y957580D03*
X1253490Y970280D03*
X1266190Y957580D03*
X1266190Y970280D03*
X1278890Y957580D03*
X1278890Y970280D03*
D16*
X828040Y1163320D03*
X1399540Y652780D03*
D13*
X1342888Y1045200D02*
X1342888Y1050808D01*
X1354592Y1050808D01*
X1354592Y1045200D01*
X1342888Y1045200D01*
X1342888Y1047594D02*
X1354592Y1047594D01*
X1354592Y1049988D02*
X1342888Y1049988D01*
X1342888Y1040394D02*
X1342888Y1034786D01*
X1342888Y1040394D02*
X1354592Y1040394D01*
X1354592Y1034786D01*
X1342888Y1034786D01*
X1342888Y1037180D02*
X1354592Y1037180D01*
X1354592Y1039574D02*
X1342888Y1039574D01*
X1342888Y1029980D02*
X1342888Y1024372D01*
X1342888Y1029980D02*
X1354592Y1029980D01*
X1354592Y1024372D01*
X1342888Y1024372D01*
X1342888Y1026766D02*
X1354592Y1026766D01*
X1354592Y1029160D02*
X1342888Y1029160D01*
X1329192Y1037199D02*
X1329192Y1042553D01*
X1329192Y1037199D02*
X1317488Y1037199D01*
X1317488Y1042553D01*
X1329192Y1042553D01*
X1329192Y1039593D02*
X1317488Y1039593D01*
X1317488Y1041987D02*
X1329192Y1041987D01*
X1329192Y1045327D02*
X1329192Y1050681D01*
X1329192Y1045327D02*
X1317488Y1045327D01*
X1317488Y1050681D01*
X1329192Y1050681D01*
X1329192Y1047721D02*
X1317488Y1047721D01*
X1317488Y1050115D02*
X1329192Y1050115D01*
D16*
X779780Y831830D03*
X779780Y911830D03*
D13*
X1303792Y1035929D02*
X1303792Y1041537D01*
X1303792Y1035929D02*
X1292088Y1035929D01*
X1292088Y1041537D01*
X1303792Y1041537D01*
X1303792Y1038323D02*
X1292088Y1038323D01*
X1292088Y1040717D02*
X1303792Y1040717D01*
X1303792Y1046343D02*
X1303792Y1051951D01*
X1303792Y1046343D02*
X1292088Y1046343D01*
X1292088Y1051951D01*
X1303792Y1051951D01*
X1303792Y1048737D02*
X1292088Y1048737D01*
X1292088Y1051131D02*
X1303792Y1051131D01*
X1278392Y1041537D02*
X1278392Y1035929D01*
X1266688Y1035929D01*
X1266688Y1041537D01*
X1278392Y1041537D01*
X1278392Y1038323D02*
X1266688Y1038323D01*
X1266688Y1040717D02*
X1278392Y1040717D01*
X1278392Y1046343D02*
X1278392Y1051951D01*
X1278392Y1046343D02*
X1266688Y1046343D01*
X1266688Y1051951D01*
X1278392Y1051951D01*
X1278392Y1048737D02*
X1266688Y1048737D01*
X1266688Y1051131D02*
X1278392Y1051131D01*
D17*
X759460Y701040D03*
X805180Y701040D03*
D13*
X1131179Y1002528D02*
X1136787Y1002528D01*
X1131179Y1002528D02*
X1131179Y1014232D01*
X1136787Y1014232D01*
X1136787Y1002528D01*
X1136787Y1004922D02*
X1131179Y1004922D01*
X1131179Y1007316D02*
X1136787Y1007316D01*
X1136787Y1009710D02*
X1131179Y1009710D01*
X1131179Y1012104D02*
X1136787Y1012104D01*
X1141593Y1002528D02*
X1147201Y1002528D01*
X1141593Y1002528D02*
X1141593Y1014232D01*
X1147201Y1014232D01*
X1147201Y1002528D01*
X1147201Y1004922D02*
X1141593Y1004922D01*
X1141593Y1007316D02*
X1147201Y1007316D01*
X1147201Y1009710D02*
X1141593Y1009710D01*
X1141593Y1012104D02*
X1147201Y1012104D01*
D14*
X1126490Y1033780D03*
X1151890Y1033780D03*
X942340Y716280D03*
X967740Y716280D03*
D18*
X1247140Y1021080D03*
D10*
X1617980Y640080D03*
X2138680Y690880D03*
X2138680Y970280D03*
X1630680Y1122680D03*
D11*
X1527330Y1037280D03*
X1527330Y979480D03*
D12*
X1511829Y1021269D02*
X1482831Y1021269D01*
X1511829Y1021269D02*
X1511829Y1013271D01*
X1482831Y1013271D01*
X1482831Y1021269D01*
X1482831Y1015671D02*
X1511829Y1015671D01*
X1511829Y1018071D02*
X1482831Y1018071D01*
X1482831Y1020471D02*
X1511829Y1020471D01*
X1511829Y1039049D02*
X1482831Y1039049D01*
X1511829Y1039049D02*
X1511829Y1031051D01*
X1482831Y1031051D01*
X1482831Y1039049D01*
X1482831Y1033451D02*
X1511829Y1033451D01*
X1511829Y1035851D02*
X1482831Y1035851D01*
X1482831Y1038251D02*
X1511829Y1038251D01*
X1511829Y1003489D02*
X1482831Y1003489D01*
X1511829Y1003489D02*
X1511829Y995491D01*
X1482831Y995491D01*
X1482831Y1003489D01*
X1482831Y997891D02*
X1511829Y997891D01*
X1511829Y1000291D02*
X1482831Y1000291D01*
X1482831Y1002691D02*
X1511829Y1002691D01*
X1511829Y985709D02*
X1482831Y985709D01*
X1511829Y985709D02*
X1511829Y977711D01*
X1482831Y977711D01*
X1482831Y985709D01*
X1482831Y980111D02*
X1511829Y980111D01*
X1511829Y982511D02*
X1482831Y982511D01*
X1482831Y984911D02*
X1511829Y984911D01*
D13*
X1502293Y1078728D02*
X1496939Y1078728D01*
X1496939Y1090432D01*
X1502293Y1090432D01*
X1502293Y1078728D01*
X1502293Y1081122D02*
X1496939Y1081122D01*
X1496939Y1083516D02*
X1502293Y1083516D01*
X1502293Y1085910D02*
X1496939Y1085910D01*
X1496939Y1088304D02*
X1502293Y1088304D01*
X1505067Y1078728D02*
X1510421Y1078728D01*
X1505067Y1078728D02*
X1505067Y1090432D01*
X1510421Y1090432D01*
X1510421Y1078728D01*
X1510421Y1081122D02*
X1505067Y1081122D01*
X1505067Y1083516D02*
X1510421Y1083516D01*
X1510421Y1085910D02*
X1505067Y1085910D01*
X1505067Y1088304D02*
X1510421Y1088304D01*
D14*
X1666240Y1160780D03*
X1691640Y1160780D03*
X1717040Y1160780D03*
X1742440Y1160780D03*
X1767840Y1160780D03*
X1793240Y1160780D03*
X1818640Y1160780D03*
X1844040Y1160780D03*
X1869440Y1160780D03*
X1894840Y1160780D03*
X1757680Y601980D03*
X1783080Y601980D03*
X1808480Y601980D03*
X1833880Y601980D03*
X1859280Y601980D03*
X1884680Y601980D03*
X1910080Y601980D03*
X1935480Y601980D03*
X1986280Y601980D03*
X2011680Y601980D03*
X2037080Y601980D03*
X2062480Y601980D03*
X2087880Y601980D03*
X2113280Y601980D03*
X2113280Y1160780D03*
X2087880Y1160780D03*
X2062480Y1160780D03*
X2037080Y1160780D03*
X2011680Y1160780D03*
X1986280Y1160780D03*
X1960880Y1160780D03*
X1935480Y1160780D03*
D15*
X1967230Y957580D03*
X1967230Y970280D03*
X1979930Y957580D03*
X1979930Y970280D03*
X1992630Y957580D03*
X1992630Y970280D03*
X2005330Y957580D03*
X2005330Y970280D03*
X2018030Y957580D03*
X2018030Y970280D03*
D16*
X1567180Y1163320D03*
X2138680Y652780D03*
D13*
X2082028Y1045200D02*
X2082028Y1050808D01*
X2093732Y1050808D01*
X2093732Y1045200D01*
X2082028Y1045200D01*
X2082028Y1047594D02*
X2093732Y1047594D01*
X2093732Y1049988D02*
X2082028Y1049988D01*
X2082028Y1040394D02*
X2082028Y1034786D01*
X2082028Y1040394D02*
X2093732Y1040394D01*
X2093732Y1034786D01*
X2082028Y1034786D01*
X2082028Y1037180D02*
X2093732Y1037180D01*
X2093732Y1039574D02*
X2082028Y1039574D01*
X2082028Y1029980D02*
X2082028Y1024372D01*
X2082028Y1029980D02*
X2093732Y1029980D01*
X2093732Y1024372D01*
X2082028Y1024372D01*
X2082028Y1026766D02*
X2093732Y1026766D01*
X2093732Y1029160D02*
X2082028Y1029160D01*
X2068332Y1037199D02*
X2068332Y1042553D01*
X2068332Y1037199D02*
X2056628Y1037199D01*
X2056628Y1042553D01*
X2068332Y1042553D01*
X2068332Y1039593D02*
X2056628Y1039593D01*
X2056628Y1041987D02*
X2068332Y1041987D01*
X2068332Y1045327D02*
X2068332Y1050681D01*
X2068332Y1045327D02*
X2056628Y1045327D01*
X2056628Y1050681D01*
X2068332Y1050681D01*
X2068332Y1047721D02*
X2056628Y1047721D01*
X2056628Y1050115D02*
X2068332Y1050115D01*
D16*
X1518920Y831830D03*
X1518920Y911830D03*
D13*
X2042932Y1035929D02*
X2042932Y1041537D01*
X2042932Y1035929D02*
X2031228Y1035929D01*
X2031228Y1041537D01*
X2042932Y1041537D01*
X2042932Y1038323D02*
X2031228Y1038323D01*
X2031228Y1040717D02*
X2042932Y1040717D01*
X2042932Y1046343D02*
X2042932Y1051951D01*
X2042932Y1046343D02*
X2031228Y1046343D01*
X2031228Y1051951D01*
X2042932Y1051951D01*
X2042932Y1048737D02*
X2031228Y1048737D01*
X2031228Y1051131D02*
X2042932Y1051131D01*
X2017532Y1041537D02*
X2017532Y1035929D01*
X2005828Y1035929D01*
X2005828Y1041537D01*
X2017532Y1041537D01*
X2017532Y1038323D02*
X2005828Y1038323D01*
X2005828Y1040717D02*
X2017532Y1040717D01*
X2017532Y1046343D02*
X2017532Y1051951D01*
X2017532Y1046343D02*
X2005828Y1046343D01*
X2005828Y1051951D01*
X2017532Y1051951D01*
X2017532Y1048737D02*
X2005828Y1048737D01*
X2005828Y1051131D02*
X2017532Y1051131D01*
D17*
X1498600Y701040D03*
X1544320Y701040D03*
D13*
X1870319Y1002528D02*
X1875927Y1002528D01*
X1870319Y1002528D02*
X1870319Y1014232D01*
X1875927Y1014232D01*
X1875927Y1002528D01*
X1875927Y1004922D02*
X1870319Y1004922D01*
X1870319Y1007316D02*
X1875927Y1007316D01*
X1875927Y1009710D02*
X1870319Y1009710D01*
X1870319Y1012104D02*
X1875927Y1012104D01*
X1880733Y1002528D02*
X1886341Y1002528D01*
X1880733Y1002528D02*
X1880733Y1014232D01*
X1886341Y1014232D01*
X1886341Y1002528D01*
X1886341Y1004922D02*
X1880733Y1004922D01*
X1880733Y1007316D02*
X1886341Y1007316D01*
X1886341Y1009710D02*
X1880733Y1009710D01*
X1880733Y1012104D02*
X1886341Y1012104D01*
D14*
X1865630Y1033780D03*
X1891030Y1033780D03*
X1681480Y716280D03*
X1706880Y716280D03*
D18*
X1986280Y1021080D03*
D10*
X139700Y1229360D03*
X660400Y1280160D03*
X660400Y1559560D03*
X152400Y1711960D03*
D11*
X49050Y1626560D03*
X49050Y1568760D03*
D12*
X33549Y1610549D02*
X4551Y1610549D01*
X33549Y1610549D02*
X33549Y1602551D01*
X4551Y1602551D01*
X4551Y1610549D01*
X4551Y1604951D02*
X33549Y1604951D01*
X33549Y1607351D02*
X4551Y1607351D01*
X4551Y1609751D02*
X33549Y1609751D01*
X33549Y1628329D02*
X4551Y1628329D01*
X33549Y1628329D02*
X33549Y1620331D01*
X4551Y1620331D01*
X4551Y1628329D01*
X4551Y1622731D02*
X33549Y1622731D01*
X33549Y1625131D02*
X4551Y1625131D01*
X4551Y1627531D02*
X33549Y1627531D01*
X33549Y1592769D02*
X4551Y1592769D01*
X33549Y1592769D02*
X33549Y1584771D01*
X4551Y1584771D01*
X4551Y1592769D01*
X4551Y1587171D02*
X33549Y1587171D01*
X33549Y1589571D02*
X4551Y1589571D01*
X4551Y1591971D02*
X33549Y1591971D01*
X33549Y1574989D02*
X4551Y1574989D01*
X33549Y1574989D02*
X33549Y1566991D01*
X4551Y1566991D01*
X4551Y1574989D01*
X4551Y1569391D02*
X33549Y1569391D01*
X33549Y1571791D02*
X4551Y1571791D01*
X4551Y1574191D02*
X33549Y1574191D01*
D13*
X24013Y1668008D02*
X18659Y1668008D01*
X18659Y1679712D01*
X24013Y1679712D01*
X24013Y1668008D01*
X24013Y1670402D02*
X18659Y1670402D01*
X18659Y1672796D02*
X24013Y1672796D01*
X24013Y1675190D02*
X18659Y1675190D01*
X18659Y1677584D02*
X24013Y1677584D01*
X26787Y1668008D02*
X32141Y1668008D01*
X26787Y1668008D02*
X26787Y1679712D01*
X32141Y1679712D01*
X32141Y1668008D01*
X32141Y1670402D02*
X26787Y1670402D01*
X26787Y1672796D02*
X32141Y1672796D01*
X32141Y1675190D02*
X26787Y1675190D01*
X26787Y1677584D02*
X32141Y1677584D01*
D14*
X187960Y1750060D03*
X213360Y1750060D03*
X238760Y1750060D03*
X264160Y1750060D03*
X289560Y1750060D03*
X314960Y1750060D03*
X340360Y1750060D03*
X365760Y1750060D03*
X391160Y1750060D03*
X416560Y1750060D03*
X279400Y1191260D03*
X304800Y1191260D03*
X330200Y1191260D03*
X355600Y1191260D03*
X381000Y1191260D03*
X406400Y1191260D03*
X431800Y1191260D03*
X457200Y1191260D03*
X508000Y1191260D03*
X533400Y1191260D03*
X558800Y1191260D03*
X584200Y1191260D03*
X609600Y1191260D03*
X635000Y1191260D03*
X635000Y1750060D03*
X609600Y1750060D03*
X584200Y1750060D03*
X558800Y1750060D03*
X533400Y1750060D03*
X508000Y1750060D03*
X482600Y1750060D03*
X457200Y1750060D03*
D15*
X488950Y1546860D03*
X488950Y1559560D03*
X501650Y1546860D03*
X501650Y1559560D03*
X514350Y1546860D03*
X514350Y1559560D03*
X527050Y1546860D03*
X527050Y1559560D03*
X539750Y1546860D03*
X539750Y1559560D03*
D16*
X88900Y1752600D03*
X660400Y1242060D03*
D13*
X603748Y1634480D02*
X603748Y1640088D01*
X615452Y1640088D01*
X615452Y1634480D01*
X603748Y1634480D01*
X603748Y1636874D02*
X615452Y1636874D01*
X615452Y1639268D02*
X603748Y1639268D01*
X603748Y1629674D02*
X603748Y1624066D01*
X603748Y1629674D02*
X615452Y1629674D01*
X615452Y1624066D01*
X603748Y1624066D01*
X603748Y1626460D02*
X615452Y1626460D01*
X615452Y1628854D02*
X603748Y1628854D01*
X603748Y1619260D02*
X603748Y1613652D01*
X603748Y1619260D02*
X615452Y1619260D01*
X615452Y1613652D01*
X603748Y1613652D01*
X603748Y1616046D02*
X615452Y1616046D01*
X615452Y1618440D02*
X603748Y1618440D01*
X590052Y1626479D02*
X590052Y1631833D01*
X590052Y1626479D02*
X578348Y1626479D01*
X578348Y1631833D01*
X590052Y1631833D01*
X590052Y1628873D02*
X578348Y1628873D01*
X578348Y1631267D02*
X590052Y1631267D01*
X590052Y1634607D02*
X590052Y1639961D01*
X590052Y1634607D02*
X578348Y1634607D01*
X578348Y1639961D01*
X590052Y1639961D01*
X590052Y1637001D02*
X578348Y1637001D01*
X578348Y1639395D02*
X590052Y1639395D01*
D16*
X40640Y1421110D03*
X40640Y1501110D03*
D13*
X564652Y1625209D02*
X564652Y1630817D01*
X564652Y1625209D02*
X552948Y1625209D01*
X552948Y1630817D01*
X564652Y1630817D01*
X564652Y1627603D02*
X552948Y1627603D01*
X552948Y1629997D02*
X564652Y1629997D01*
X564652Y1635623D02*
X564652Y1641231D01*
X564652Y1635623D02*
X552948Y1635623D01*
X552948Y1641231D01*
X564652Y1641231D01*
X564652Y1638017D02*
X552948Y1638017D01*
X552948Y1640411D02*
X564652Y1640411D01*
X539252Y1630817D02*
X539252Y1625209D01*
X527548Y1625209D01*
X527548Y1630817D01*
X539252Y1630817D01*
X539252Y1627603D02*
X527548Y1627603D01*
X527548Y1629997D02*
X539252Y1629997D01*
X539252Y1635623D02*
X539252Y1641231D01*
X539252Y1635623D02*
X527548Y1635623D01*
X527548Y1641231D01*
X539252Y1641231D01*
X539252Y1638017D02*
X527548Y1638017D01*
X527548Y1640411D02*
X539252Y1640411D01*
D17*
X20320Y1290320D03*
X66040Y1290320D03*
D13*
X392039Y1591808D02*
X397647Y1591808D01*
X392039Y1591808D02*
X392039Y1603512D01*
X397647Y1603512D01*
X397647Y1591808D01*
X397647Y1594202D02*
X392039Y1594202D01*
X392039Y1596596D02*
X397647Y1596596D01*
X397647Y1598990D02*
X392039Y1598990D01*
X392039Y1601384D02*
X397647Y1601384D01*
X402453Y1591808D02*
X408061Y1591808D01*
X402453Y1591808D02*
X402453Y1603512D01*
X408061Y1603512D01*
X408061Y1591808D01*
X408061Y1594202D02*
X402453Y1594202D01*
X402453Y1596596D02*
X408061Y1596596D01*
X408061Y1598990D02*
X402453Y1598990D01*
X402453Y1601384D02*
X408061Y1601384D01*
D14*
X387350Y1623060D03*
X412750Y1623060D03*
X203200Y1305560D03*
X228600Y1305560D03*
D18*
X508000Y1610360D03*
D10*
X878840Y1229360D03*
X1399540Y1280160D03*
X1399540Y1559560D03*
X891540Y1711960D03*
D11*
X788190Y1626560D03*
X788190Y1568760D03*
D12*
X772689Y1610549D02*
X743691Y1610549D01*
X772689Y1610549D02*
X772689Y1602551D01*
X743691Y1602551D01*
X743691Y1610549D01*
X743691Y1604951D02*
X772689Y1604951D01*
X772689Y1607351D02*
X743691Y1607351D01*
X743691Y1609751D02*
X772689Y1609751D01*
X772689Y1628329D02*
X743691Y1628329D01*
X772689Y1628329D02*
X772689Y1620331D01*
X743691Y1620331D01*
X743691Y1628329D01*
X743691Y1622731D02*
X772689Y1622731D01*
X772689Y1625131D02*
X743691Y1625131D01*
X743691Y1627531D02*
X772689Y1627531D01*
X772689Y1592769D02*
X743691Y1592769D01*
X772689Y1592769D02*
X772689Y1584771D01*
X743691Y1584771D01*
X743691Y1592769D01*
X743691Y1587171D02*
X772689Y1587171D01*
X772689Y1589571D02*
X743691Y1589571D01*
X743691Y1591971D02*
X772689Y1591971D01*
X772689Y1574989D02*
X743691Y1574989D01*
X772689Y1574989D02*
X772689Y1566991D01*
X743691Y1566991D01*
X743691Y1574989D01*
X743691Y1569391D02*
X772689Y1569391D01*
X772689Y1571791D02*
X743691Y1571791D01*
X743691Y1574191D02*
X772689Y1574191D01*
D13*
X763153Y1668008D02*
X757799Y1668008D01*
X757799Y1679712D01*
X763153Y1679712D01*
X763153Y1668008D01*
X763153Y1670402D02*
X757799Y1670402D01*
X757799Y1672796D02*
X763153Y1672796D01*
X763153Y1675190D02*
X757799Y1675190D01*
X757799Y1677584D02*
X763153Y1677584D01*
X765927Y1668008D02*
X771281Y1668008D01*
X765927Y1668008D02*
X765927Y1679712D01*
X771281Y1679712D01*
X771281Y1668008D01*
X771281Y1670402D02*
X765927Y1670402D01*
X765927Y1672796D02*
X771281Y1672796D01*
X771281Y1675190D02*
X765927Y1675190D01*
X765927Y1677584D02*
X771281Y1677584D01*
D14*
X927100Y1750060D03*
X952500Y1750060D03*
X977900Y1750060D03*
X1003300Y1750060D03*
X1028700Y1750060D03*
X1054100Y1750060D03*
X1079500Y1750060D03*
X1104900Y1750060D03*
X1130300Y1750060D03*
X1155700Y1750060D03*
X1018540Y1191260D03*
X1043940Y1191260D03*
X1069340Y1191260D03*
X1094740Y1191260D03*
X1120140Y1191260D03*
X1145540Y1191260D03*
X1170940Y1191260D03*
X1196340Y1191260D03*
X1247140Y1191260D03*
X1272540Y1191260D03*
X1297940Y1191260D03*
X1323340Y1191260D03*
X1348740Y1191260D03*
X1374140Y1191260D03*
X1374140Y1750060D03*
X1348740Y1750060D03*
X1323340Y1750060D03*
X1297940Y1750060D03*
X1272540Y1750060D03*
X1247140Y1750060D03*
X1221740Y1750060D03*
X1196340Y1750060D03*
D15*
X1228090Y1546860D03*
X1228090Y1559560D03*
X1240790Y1546860D03*
X1240790Y1559560D03*
X1253490Y1546860D03*
X1253490Y1559560D03*
X1266190Y1546860D03*
X1266190Y1559560D03*
X1278890Y1546860D03*
X1278890Y1559560D03*
D16*
X828040Y1752600D03*
X1399540Y1242060D03*
D13*
X1342888Y1634480D02*
X1342888Y1640088D01*
X1354592Y1640088D01*
X1354592Y1634480D01*
X1342888Y1634480D01*
X1342888Y1636874D02*
X1354592Y1636874D01*
X1354592Y1639268D02*
X1342888Y1639268D01*
X1342888Y1629674D02*
X1342888Y1624066D01*
X1342888Y1629674D02*
X1354592Y1629674D01*
X1354592Y1624066D01*
X1342888Y1624066D01*
X1342888Y1626460D02*
X1354592Y1626460D01*
X1354592Y1628854D02*
X1342888Y1628854D01*
X1342888Y1619260D02*
X1342888Y1613652D01*
X1342888Y1619260D02*
X1354592Y1619260D01*
X1354592Y1613652D01*
X1342888Y1613652D01*
X1342888Y1616046D02*
X1354592Y1616046D01*
X1354592Y1618440D02*
X1342888Y1618440D01*
X1329192Y1626479D02*
X1329192Y1631833D01*
X1329192Y1626479D02*
X1317488Y1626479D01*
X1317488Y1631833D01*
X1329192Y1631833D01*
X1329192Y1628873D02*
X1317488Y1628873D01*
X1317488Y1631267D02*
X1329192Y1631267D01*
X1329192Y1634607D02*
X1329192Y1639961D01*
X1329192Y1634607D02*
X1317488Y1634607D01*
X1317488Y1639961D01*
X1329192Y1639961D01*
X1329192Y1637001D02*
X1317488Y1637001D01*
X1317488Y1639395D02*
X1329192Y1639395D01*
D16*
X779780Y1421110D03*
X779780Y1501110D03*
D13*
X1303792Y1625209D02*
X1303792Y1630817D01*
X1303792Y1625209D02*
X1292088Y1625209D01*
X1292088Y1630817D01*
X1303792Y1630817D01*
X1303792Y1627603D02*
X1292088Y1627603D01*
X1292088Y1629997D02*
X1303792Y1629997D01*
X1303792Y1635623D02*
X1303792Y1641231D01*
X1303792Y1635623D02*
X1292088Y1635623D01*
X1292088Y1641231D01*
X1303792Y1641231D01*
X1303792Y1638017D02*
X1292088Y1638017D01*
X1292088Y1640411D02*
X1303792Y1640411D01*
X1278392Y1630817D02*
X1278392Y1625209D01*
X1266688Y1625209D01*
X1266688Y1630817D01*
X1278392Y1630817D01*
X1278392Y1627603D02*
X1266688Y1627603D01*
X1266688Y1629997D02*
X1278392Y1629997D01*
X1278392Y1635623D02*
X1278392Y1641231D01*
X1278392Y1635623D02*
X1266688Y1635623D01*
X1266688Y1641231D01*
X1278392Y1641231D01*
X1278392Y1638017D02*
X1266688Y1638017D01*
X1266688Y1640411D02*
X1278392Y1640411D01*
D17*
X759460Y1290320D03*
X805180Y1290320D03*
D13*
X1131179Y1591808D02*
X1136787Y1591808D01*
X1131179Y1591808D02*
X1131179Y1603512D01*
X1136787Y1603512D01*
X1136787Y1591808D01*
X1136787Y1594202D02*
X1131179Y1594202D01*
X1131179Y1596596D02*
X1136787Y1596596D01*
X1136787Y1598990D02*
X1131179Y1598990D01*
X1131179Y1601384D02*
X1136787Y1601384D01*
X1141593Y1591808D02*
X1147201Y1591808D01*
X1141593Y1591808D02*
X1141593Y1603512D01*
X1147201Y1603512D01*
X1147201Y1591808D01*
X1147201Y1594202D02*
X1141593Y1594202D01*
X1141593Y1596596D02*
X1147201Y1596596D01*
X1147201Y1598990D02*
X1141593Y1598990D01*
X1141593Y1601384D02*
X1147201Y1601384D01*
D14*
X1126490Y1623060D03*
X1151890Y1623060D03*
X942340Y1305560D03*
X967740Y1305560D03*
D18*
X1247140Y1610360D03*
D10*
X1617980Y1229360D03*
X2138680Y1280160D03*
X2138680Y1559560D03*
X1630680Y1711960D03*
D11*
X1527330Y1626560D03*
X1527330Y1568760D03*
D12*
X1511829Y1610549D02*
X1482831Y1610549D01*
X1511829Y1610549D02*
X1511829Y1602551D01*
X1482831Y1602551D01*
X1482831Y1610549D01*
X1482831Y1604951D02*
X1511829Y1604951D01*
X1511829Y1607351D02*
X1482831Y1607351D01*
X1482831Y1609751D02*
X1511829Y1609751D01*
X1511829Y1628329D02*
X1482831Y1628329D01*
X1511829Y1628329D02*
X1511829Y1620331D01*
X1482831Y1620331D01*
X1482831Y1628329D01*
X1482831Y1622731D02*
X1511829Y1622731D01*
X1511829Y1625131D02*
X1482831Y1625131D01*
X1482831Y1627531D02*
X1511829Y1627531D01*
X1511829Y1592769D02*
X1482831Y1592769D01*
X1511829Y1592769D02*
X1511829Y1584771D01*
X1482831Y1584771D01*
X1482831Y1592769D01*
X1482831Y1587171D02*
X1511829Y1587171D01*
X1511829Y1589571D02*
X1482831Y1589571D01*
X1482831Y1591971D02*
X1511829Y1591971D01*
X1511829Y1574989D02*
X1482831Y1574989D01*
X1511829Y1574989D02*
X1511829Y1566991D01*
X1482831Y1566991D01*
X1482831Y1574989D01*
X1482831Y1569391D02*
X1511829Y1569391D01*
X1511829Y1571791D02*
X1482831Y1571791D01*
X1482831Y1574191D02*
X1511829Y1574191D01*
D13*
X1502293Y1668008D02*
X1496939Y1668008D01*
X1496939Y1679712D01*
X1502293Y1679712D01*
X1502293Y1668008D01*
X1502293Y1670402D02*
X1496939Y1670402D01*
X1496939Y1672796D02*
X1502293Y1672796D01*
X1502293Y1675190D02*
X1496939Y1675190D01*
X1496939Y1677584D02*
X1502293Y1677584D01*
X1505067Y1668008D02*
X1510421Y1668008D01*
X1505067Y1668008D02*
X1505067Y1679712D01*
X1510421Y1679712D01*
X1510421Y1668008D01*
X1510421Y1670402D02*
X1505067Y1670402D01*
X1505067Y1672796D02*
X1510421Y1672796D01*
X1510421Y1675190D02*
X1505067Y1675190D01*
X1505067Y1677584D02*
X1510421Y1677584D01*
D14*
X1666240Y1750060D03*
X1691640Y1750060D03*
X1717040Y1750060D03*
X1742440Y1750060D03*
X1767840Y1750060D03*
X1793240Y1750060D03*
X1818640Y1750060D03*
X1844040Y1750060D03*
X1869440Y1750060D03*
X1894840Y1750060D03*
X1757680Y1191260D03*
X1783080Y1191260D03*
X1808480Y1191260D03*
X1833880Y1191260D03*
X1859280Y1191260D03*
X1884680Y1191260D03*
X1910080Y1191260D03*
X1935480Y1191260D03*
X1986280Y1191260D03*
X2011680Y1191260D03*
X2037080Y1191260D03*
X2062480Y1191260D03*
X2087880Y1191260D03*
X2113280Y1191260D03*
X2113280Y1750060D03*
X2087880Y1750060D03*
X2062480Y1750060D03*
X2037080Y1750060D03*
X2011680Y1750060D03*
X1986280Y1750060D03*
X1960880Y1750060D03*
X1935480Y1750060D03*
D15*
X1967230Y1546860D03*
X1967230Y1559560D03*
X1979930Y1546860D03*
X1979930Y1559560D03*
X1992630Y1546860D03*
X1992630Y1559560D03*
X2005330Y1546860D03*
X2005330Y1559560D03*
X2018030Y1546860D03*
X2018030Y1559560D03*
D16*
X1567180Y1752600D03*
X2138680Y1242060D03*
D13*
X2082028Y1634480D02*
X2082028Y1640088D01*
X2093732Y1640088D01*
X2093732Y1634480D01*
X2082028Y1634480D01*
X2082028Y1636874D02*
X2093732Y1636874D01*
X2093732Y1639268D02*
X2082028Y1639268D01*
X2082028Y1629674D02*
X2082028Y1624066D01*
X2082028Y1629674D02*
X2093732Y1629674D01*
X2093732Y1624066D01*
X2082028Y1624066D01*
X2082028Y1626460D02*
X2093732Y1626460D01*
X2093732Y1628854D02*
X2082028Y1628854D01*
X2082028Y1619260D02*
X2082028Y1613652D01*
X2082028Y1619260D02*
X2093732Y1619260D01*
X2093732Y1613652D01*
X2082028Y1613652D01*
X2082028Y1616046D02*
X2093732Y1616046D01*
X2093732Y1618440D02*
X2082028Y1618440D01*
X2068332Y1626479D02*
X2068332Y1631833D01*
X2068332Y1626479D02*
X2056628Y1626479D01*
X2056628Y1631833D01*
X2068332Y1631833D01*
X2068332Y1628873D02*
X2056628Y1628873D01*
X2056628Y1631267D02*
X2068332Y1631267D01*
X2068332Y1634607D02*
X2068332Y1639961D01*
X2068332Y1634607D02*
X2056628Y1634607D01*
X2056628Y1639961D01*
X2068332Y1639961D01*
X2068332Y1637001D02*
X2056628Y1637001D01*
X2056628Y1639395D02*
X2068332Y1639395D01*
D16*
X1518920Y1421110D03*
X1518920Y1501110D03*
D13*
X2042932Y1625209D02*
X2042932Y1630817D01*
X2042932Y1625209D02*
X2031228Y1625209D01*
X2031228Y1630817D01*
X2042932Y1630817D01*
X2042932Y1627603D02*
X2031228Y1627603D01*
X2031228Y1629997D02*
X2042932Y1629997D01*
X2042932Y1635623D02*
X2042932Y1641231D01*
X2042932Y1635623D02*
X2031228Y1635623D01*
X2031228Y1641231D01*
X2042932Y1641231D01*
X2042932Y1638017D02*
X2031228Y1638017D01*
X2031228Y1640411D02*
X2042932Y1640411D01*
X2017532Y1630817D02*
X2017532Y1625209D01*
X2005828Y1625209D01*
X2005828Y1630817D01*
X2017532Y1630817D01*
X2017532Y1627603D02*
X2005828Y1627603D01*
X2005828Y1629997D02*
X2017532Y1629997D01*
X2017532Y1635623D02*
X2017532Y1641231D01*
X2017532Y1635623D02*
X2005828Y1635623D01*
X2005828Y1641231D01*
X2017532Y1641231D01*
X2017532Y1638017D02*
X2005828Y1638017D01*
X2005828Y1640411D02*
X2017532Y1640411D01*
D17*
X1498600Y1290320D03*
X1544320Y1290320D03*
D13*
X1870319Y1591808D02*
X1875927Y1591808D01*
X1870319Y1591808D02*
X1870319Y1603512D01*
X1875927Y1603512D01*
X1875927Y1591808D01*
X1875927Y1594202D02*
X1870319Y1594202D01*
X1870319Y1596596D02*
X1875927Y1596596D01*
X1875927Y1598990D02*
X1870319Y1598990D01*
X1870319Y1601384D02*
X1875927Y1601384D01*
X1880733Y1591808D02*
X1886341Y1591808D01*
X1880733Y1591808D02*
X1880733Y1603512D01*
X1886341Y1603512D01*
X1886341Y1591808D01*
X1886341Y1594202D02*
X1880733Y1594202D01*
X1880733Y1596596D02*
X1886341Y1596596D01*
X1886341Y1598990D02*
X1880733Y1598990D01*
X1880733Y1601384D02*
X1886341Y1601384D01*
D14*
X1865630Y1623060D03*
X1891030Y1623060D03*
X1681480Y1305560D03*
X1706880Y1305560D03*
D18*
X1986280Y1610360D03*
D10*
X139700Y1818640D03*
X660400Y1869440D03*
X660400Y2148840D03*
X152400Y2301240D03*
D11*
X49050Y2215840D03*
X49050Y2158040D03*
D12*
X33549Y2199829D02*
X4551Y2199829D01*
X33549Y2199829D02*
X33549Y2191831D01*
X4551Y2191831D01*
X4551Y2199829D01*
X4551Y2194231D02*
X33549Y2194231D01*
X33549Y2196631D02*
X4551Y2196631D01*
X4551Y2199031D02*
X33549Y2199031D01*
X33549Y2217609D02*
X4551Y2217609D01*
X33549Y2217609D02*
X33549Y2209611D01*
X4551Y2209611D01*
X4551Y2217609D01*
X4551Y2212011D02*
X33549Y2212011D01*
X33549Y2214411D02*
X4551Y2214411D01*
X4551Y2216811D02*
X33549Y2216811D01*
X33549Y2182049D02*
X4551Y2182049D01*
X33549Y2182049D02*
X33549Y2174051D01*
X4551Y2174051D01*
X4551Y2182049D01*
X4551Y2176451D02*
X33549Y2176451D01*
X33549Y2178851D02*
X4551Y2178851D01*
X4551Y2181251D02*
X33549Y2181251D01*
X33549Y2164269D02*
X4551Y2164269D01*
X33549Y2164269D02*
X33549Y2156271D01*
X4551Y2156271D01*
X4551Y2164269D01*
X4551Y2158671D02*
X33549Y2158671D01*
X33549Y2161071D02*
X4551Y2161071D01*
X4551Y2163471D02*
X33549Y2163471D01*
D13*
X24013Y2257288D02*
X18659Y2257288D01*
X18659Y2268992D01*
X24013Y2268992D01*
X24013Y2257288D01*
X24013Y2259682D02*
X18659Y2259682D01*
X18659Y2262076D02*
X24013Y2262076D01*
X24013Y2264470D02*
X18659Y2264470D01*
X18659Y2266864D02*
X24013Y2266864D01*
X26787Y2257288D02*
X32141Y2257288D01*
X26787Y2257288D02*
X26787Y2268992D01*
X32141Y2268992D01*
X32141Y2257288D01*
X32141Y2259682D02*
X26787Y2259682D01*
X26787Y2262076D02*
X32141Y2262076D01*
X32141Y2264470D02*
X26787Y2264470D01*
X26787Y2266864D02*
X32141Y2266864D01*
D14*
X187960Y2339340D03*
X213360Y2339340D03*
X238760Y2339340D03*
X264160Y2339340D03*
X289560Y2339340D03*
X314960Y2339340D03*
X340360Y2339340D03*
X365760Y2339340D03*
X391160Y2339340D03*
X416560Y2339340D03*
X279400Y1780540D03*
X304800Y1780540D03*
X330200Y1780540D03*
X355600Y1780540D03*
X381000Y1780540D03*
X406400Y1780540D03*
X431800Y1780540D03*
X457200Y1780540D03*
X508000Y1780540D03*
X533400Y1780540D03*
X558800Y1780540D03*
X584200Y1780540D03*
X609600Y1780540D03*
X635000Y1780540D03*
X635000Y2339340D03*
X609600Y2339340D03*
X584200Y2339340D03*
X558800Y2339340D03*
X533400Y2339340D03*
X508000Y2339340D03*
X482600Y2339340D03*
X457200Y2339340D03*
D15*
X488950Y2136140D03*
X488950Y2148840D03*
X501650Y2136140D03*
X501650Y2148840D03*
X514350Y2136140D03*
X514350Y2148840D03*
X527050Y2136140D03*
X527050Y2148840D03*
X539750Y2136140D03*
X539750Y2148840D03*
D16*
X88900Y2341880D03*
X660400Y1831340D03*
D13*
X603748Y2223760D02*
X603748Y2229368D01*
X615452Y2229368D01*
X615452Y2223760D01*
X603748Y2223760D01*
X603748Y2226154D02*
X615452Y2226154D01*
X615452Y2228548D02*
X603748Y2228548D01*
X603748Y2218954D02*
X603748Y2213346D01*
X603748Y2218954D02*
X615452Y2218954D01*
X615452Y2213346D01*
X603748Y2213346D01*
X603748Y2215740D02*
X615452Y2215740D01*
X615452Y2218134D02*
X603748Y2218134D01*
X603748Y2208540D02*
X603748Y2202932D01*
X603748Y2208540D02*
X615452Y2208540D01*
X615452Y2202932D01*
X603748Y2202932D01*
X603748Y2205326D02*
X615452Y2205326D01*
X615452Y2207720D02*
X603748Y2207720D01*
X590052Y2215759D02*
X590052Y2221113D01*
X590052Y2215759D02*
X578348Y2215759D01*
X578348Y2221113D01*
X590052Y2221113D01*
X590052Y2218153D02*
X578348Y2218153D01*
X578348Y2220547D02*
X590052Y2220547D01*
X590052Y2223887D02*
X590052Y2229241D01*
X590052Y2223887D02*
X578348Y2223887D01*
X578348Y2229241D01*
X590052Y2229241D01*
X590052Y2226281D02*
X578348Y2226281D01*
X578348Y2228675D02*
X590052Y2228675D01*
D16*
X40640Y2010390D03*
X40640Y2090390D03*
D13*
X564652Y2214489D02*
X564652Y2220097D01*
X564652Y2214489D02*
X552948Y2214489D01*
X552948Y2220097D01*
X564652Y2220097D01*
X564652Y2216883D02*
X552948Y2216883D01*
X552948Y2219277D02*
X564652Y2219277D01*
X564652Y2224903D02*
X564652Y2230511D01*
X564652Y2224903D02*
X552948Y2224903D01*
X552948Y2230511D01*
X564652Y2230511D01*
X564652Y2227297D02*
X552948Y2227297D01*
X552948Y2229691D02*
X564652Y2229691D01*
X539252Y2220097D02*
X539252Y2214489D01*
X527548Y2214489D01*
X527548Y2220097D01*
X539252Y2220097D01*
X539252Y2216883D02*
X527548Y2216883D01*
X527548Y2219277D02*
X539252Y2219277D01*
X539252Y2224903D02*
X539252Y2230511D01*
X539252Y2224903D02*
X527548Y2224903D01*
X527548Y2230511D01*
X539252Y2230511D01*
X539252Y2227297D02*
X527548Y2227297D01*
X527548Y2229691D02*
X539252Y2229691D01*
D17*
X20320Y1879600D03*
X66040Y1879600D03*
D13*
X392039Y2181088D02*
X397647Y2181088D01*
X392039Y2181088D02*
X392039Y2192792D01*
X397647Y2192792D01*
X397647Y2181088D01*
X397647Y2183482D02*
X392039Y2183482D01*
X392039Y2185876D02*
X397647Y2185876D01*
X397647Y2188270D02*
X392039Y2188270D01*
X392039Y2190664D02*
X397647Y2190664D01*
X402453Y2181088D02*
X408061Y2181088D01*
X402453Y2181088D02*
X402453Y2192792D01*
X408061Y2192792D01*
X408061Y2181088D01*
X408061Y2183482D02*
X402453Y2183482D01*
X402453Y2185876D02*
X408061Y2185876D01*
X408061Y2188270D02*
X402453Y2188270D01*
X402453Y2190664D02*
X408061Y2190664D01*
D14*
X387350Y2212340D03*
X412750Y2212340D03*
X203200Y1894840D03*
X228600Y1894840D03*
D18*
X508000Y2199640D03*
D10*
X878840Y1818640D03*
X1399540Y1869440D03*
X1399540Y2148840D03*
X891540Y2301240D03*
D11*
X788190Y2215840D03*
X788190Y2158040D03*
D12*
X772689Y2199829D02*
X743691Y2199829D01*
X772689Y2199829D02*
X772689Y2191831D01*
X743691Y2191831D01*
X743691Y2199829D01*
X743691Y2194231D02*
X772689Y2194231D01*
X772689Y2196631D02*
X743691Y2196631D01*
X743691Y2199031D02*
X772689Y2199031D01*
X772689Y2217609D02*
X743691Y2217609D01*
X772689Y2217609D02*
X772689Y2209611D01*
X743691Y2209611D01*
X743691Y2217609D01*
X743691Y2212011D02*
X772689Y2212011D01*
X772689Y2214411D02*
X743691Y2214411D01*
X743691Y2216811D02*
X772689Y2216811D01*
X772689Y2182049D02*
X743691Y2182049D01*
X772689Y2182049D02*
X772689Y2174051D01*
X743691Y2174051D01*
X743691Y2182049D01*
X743691Y2176451D02*
X772689Y2176451D01*
X772689Y2178851D02*
X743691Y2178851D01*
X743691Y2181251D02*
X772689Y2181251D01*
X772689Y2164269D02*
X743691Y2164269D01*
X772689Y2164269D02*
X772689Y2156271D01*
X743691Y2156271D01*
X743691Y2164269D01*
X743691Y2158671D02*
X772689Y2158671D01*
X772689Y2161071D02*
X743691Y2161071D01*
X743691Y2163471D02*
X772689Y2163471D01*
D13*
X763153Y2257288D02*
X757799Y2257288D01*
X757799Y2268992D01*
X763153Y2268992D01*
X763153Y2257288D01*
X763153Y2259682D02*
X757799Y2259682D01*
X757799Y2262076D02*
X763153Y2262076D01*
X763153Y2264470D02*
X757799Y2264470D01*
X757799Y2266864D02*
X763153Y2266864D01*
X765927Y2257288D02*
X771281Y2257288D01*
X765927Y2257288D02*
X765927Y2268992D01*
X771281Y2268992D01*
X771281Y2257288D01*
X771281Y2259682D02*
X765927Y2259682D01*
X765927Y2262076D02*
X771281Y2262076D01*
X771281Y2264470D02*
X765927Y2264470D01*
X765927Y2266864D02*
X771281Y2266864D01*
D14*
X927100Y2339340D03*
X952500Y2339340D03*
X977900Y2339340D03*
X1003300Y2339340D03*
X1028700Y2339340D03*
X1054100Y2339340D03*
X1079500Y2339340D03*
X1104900Y2339340D03*
X1130300Y2339340D03*
X1155700Y2339340D03*
X1018540Y1780540D03*
X1043940Y1780540D03*
X1069340Y1780540D03*
X1094740Y1780540D03*
X1120140Y1780540D03*
X1145540Y1780540D03*
X1170940Y1780540D03*
X1196340Y1780540D03*
X1247140Y1780540D03*
X1272540Y1780540D03*
X1297940Y1780540D03*
X1323340Y1780540D03*
X1348740Y1780540D03*
X1374140Y1780540D03*
X1374140Y2339340D03*
X1348740Y2339340D03*
X1323340Y2339340D03*
X1297940Y2339340D03*
X1272540Y2339340D03*
X1247140Y2339340D03*
X1221740Y2339340D03*
X1196340Y2339340D03*
D15*
X1228090Y2136140D03*
X1228090Y2148840D03*
X1240790Y2136140D03*
X1240790Y2148840D03*
X1253490Y2136140D03*
X1253490Y2148840D03*
X1266190Y2136140D03*
X1266190Y2148840D03*
X1278890Y2136140D03*
X1278890Y2148840D03*
D16*
X828040Y2341880D03*
X1399540Y1831340D03*
D13*
X1342888Y2223760D02*
X1342888Y2229368D01*
X1354592Y2229368D01*
X1354592Y2223760D01*
X1342888Y2223760D01*
X1342888Y2226154D02*
X1354592Y2226154D01*
X1354592Y2228548D02*
X1342888Y2228548D01*
X1342888Y2218954D02*
X1342888Y2213346D01*
X1342888Y2218954D02*
X1354592Y2218954D01*
X1354592Y2213346D01*
X1342888Y2213346D01*
X1342888Y2215740D02*
X1354592Y2215740D01*
X1354592Y2218134D02*
X1342888Y2218134D01*
X1342888Y2208540D02*
X1342888Y2202932D01*
X1342888Y2208540D02*
X1354592Y2208540D01*
X1354592Y2202932D01*
X1342888Y2202932D01*
X1342888Y2205326D02*
X1354592Y2205326D01*
X1354592Y2207720D02*
X1342888Y2207720D01*
X1329192Y2215759D02*
X1329192Y2221113D01*
X1329192Y2215759D02*
X1317488Y2215759D01*
X1317488Y2221113D01*
X1329192Y2221113D01*
X1329192Y2218153D02*
X1317488Y2218153D01*
X1317488Y2220547D02*
X1329192Y2220547D01*
X1329192Y2223887D02*
X1329192Y2229241D01*
X1329192Y2223887D02*
X1317488Y2223887D01*
X1317488Y2229241D01*
X1329192Y2229241D01*
X1329192Y2226281D02*
X1317488Y2226281D01*
X1317488Y2228675D02*
X1329192Y2228675D01*
D16*
X779780Y2010390D03*
X779780Y2090390D03*
D13*
X1303792Y2214489D02*
X1303792Y2220097D01*
X1303792Y2214489D02*
X1292088Y2214489D01*
X1292088Y2220097D01*
X1303792Y2220097D01*
X1303792Y2216883D02*
X1292088Y2216883D01*
X1292088Y2219277D02*
X1303792Y2219277D01*
X1303792Y2224903D02*
X1303792Y2230511D01*
X1303792Y2224903D02*
X1292088Y2224903D01*
X1292088Y2230511D01*
X1303792Y2230511D01*
X1303792Y2227297D02*
X1292088Y2227297D01*
X1292088Y2229691D02*
X1303792Y2229691D01*
X1278392Y2220097D02*
X1278392Y2214489D01*
X1266688Y2214489D01*
X1266688Y2220097D01*
X1278392Y2220097D01*
X1278392Y2216883D02*
X1266688Y2216883D01*
X1266688Y2219277D02*
X1278392Y2219277D01*
X1278392Y2224903D02*
X1278392Y2230511D01*
X1278392Y2224903D02*
X1266688Y2224903D01*
X1266688Y2230511D01*
X1278392Y2230511D01*
X1278392Y2227297D02*
X1266688Y2227297D01*
X1266688Y2229691D02*
X1278392Y2229691D01*
D17*
X759460Y1879600D03*
X805180Y1879600D03*
D13*
X1131179Y2181088D02*
X1136787Y2181088D01*
X1131179Y2181088D02*
X1131179Y2192792D01*
X1136787Y2192792D01*
X1136787Y2181088D01*
X1136787Y2183482D02*
X1131179Y2183482D01*
X1131179Y2185876D02*
X1136787Y2185876D01*
X1136787Y2188270D02*
X1131179Y2188270D01*
X1131179Y2190664D02*
X1136787Y2190664D01*
X1141593Y2181088D02*
X1147201Y2181088D01*
X1141593Y2181088D02*
X1141593Y2192792D01*
X1147201Y2192792D01*
X1147201Y2181088D01*
X1147201Y2183482D02*
X1141593Y2183482D01*
X1141593Y2185876D02*
X1147201Y2185876D01*
X1147201Y2188270D02*
X1141593Y2188270D01*
X1141593Y2190664D02*
X1147201Y2190664D01*
D14*
X1126490Y2212340D03*
X1151890Y2212340D03*
X942340Y1894840D03*
X967740Y1894840D03*
D18*
X1247140Y2199640D03*
D10*
X1617980Y1818640D03*
X2138680Y1869440D03*
X2138680Y2148840D03*
X1630680Y2301240D03*
D11*
X1527330Y2215840D03*
X1527330Y2158040D03*
D12*
X1511829Y2199829D02*
X1482831Y2199829D01*
X1511829Y2199829D02*
X1511829Y2191831D01*
X1482831Y2191831D01*
X1482831Y2199829D01*
X1482831Y2194231D02*
X1511829Y2194231D01*
X1511829Y2196631D02*
X1482831Y2196631D01*
X1482831Y2199031D02*
X1511829Y2199031D01*
X1511829Y2217609D02*
X1482831Y2217609D01*
X1511829Y2217609D02*
X1511829Y2209611D01*
X1482831Y2209611D01*
X1482831Y2217609D01*
X1482831Y2212011D02*
X1511829Y2212011D01*
X1511829Y2214411D02*
X1482831Y2214411D01*
X1482831Y2216811D02*
X1511829Y2216811D01*
X1511829Y2182049D02*
X1482831Y2182049D01*
X1511829Y2182049D02*
X1511829Y2174051D01*
X1482831Y2174051D01*
X1482831Y2182049D01*
X1482831Y2176451D02*
X1511829Y2176451D01*
X1511829Y2178851D02*
X1482831Y2178851D01*
X1482831Y2181251D02*
X1511829Y2181251D01*
X1511829Y2164269D02*
X1482831Y2164269D01*
X1511829Y2164269D02*
X1511829Y2156271D01*
X1482831Y2156271D01*
X1482831Y2164269D01*
X1482831Y2158671D02*
X1511829Y2158671D01*
X1511829Y2161071D02*
X1482831Y2161071D01*
X1482831Y2163471D02*
X1511829Y2163471D01*
D13*
X1502293Y2257288D02*
X1496939Y2257288D01*
X1496939Y2268992D01*
X1502293Y2268992D01*
X1502293Y2257288D01*
X1502293Y2259682D02*
X1496939Y2259682D01*
X1496939Y2262076D02*
X1502293Y2262076D01*
X1502293Y2264470D02*
X1496939Y2264470D01*
X1496939Y2266864D02*
X1502293Y2266864D01*
X1505067Y2257288D02*
X1510421Y2257288D01*
X1505067Y2257288D02*
X1505067Y2268992D01*
X1510421Y2268992D01*
X1510421Y2257288D01*
X1510421Y2259682D02*
X1505067Y2259682D01*
X1505067Y2262076D02*
X1510421Y2262076D01*
X1510421Y2264470D02*
X1505067Y2264470D01*
X1505067Y2266864D02*
X1510421Y2266864D01*
D14*
X1666240Y2339340D03*
X1691640Y2339340D03*
X1717040Y2339340D03*
X1742440Y2339340D03*
X1767840Y2339340D03*
X1793240Y2339340D03*
X1818640Y2339340D03*
X1844040Y2339340D03*
X1869440Y2339340D03*
X1894840Y2339340D03*
X1757680Y1780540D03*
X1783080Y1780540D03*
X1808480Y1780540D03*
X1833880Y1780540D03*
X1859280Y1780540D03*
X1884680Y1780540D03*
X1910080Y1780540D03*
X1935480Y1780540D03*
X1986280Y1780540D03*
X2011680Y1780540D03*
X2037080Y1780540D03*
X2062480Y1780540D03*
X2087880Y1780540D03*
X2113280Y1780540D03*
X2113280Y2339340D03*
X2087880Y2339340D03*
X2062480Y2339340D03*
X2037080Y2339340D03*
X2011680Y2339340D03*
X1986280Y2339340D03*
X1960880Y2339340D03*
X1935480Y2339340D03*
D15*
X1967230Y2136140D03*
X1967230Y2148840D03*
X1979930Y2136140D03*
X1979930Y2148840D03*
X1992630Y2136140D03*
X1992630Y2148840D03*
X2005330Y2136140D03*
X2005330Y2148840D03*
X2018030Y2136140D03*
X2018030Y2148840D03*
D16*
X1567180Y2341880D03*
X2138680Y1831340D03*
D13*
X2082028Y2223760D02*
X2082028Y2229368D01*
X2093732Y2229368D01*
X2093732Y2223760D01*
X2082028Y2223760D01*
X2082028Y2226154D02*
X2093732Y2226154D01*
X2093732Y2228548D02*
X2082028Y2228548D01*
X2082028Y2218954D02*
X2082028Y2213346D01*
X2082028Y2218954D02*
X2093732Y2218954D01*
X2093732Y2213346D01*
X2082028Y2213346D01*
X2082028Y2215740D02*
X2093732Y2215740D01*
X2093732Y2218134D02*
X2082028Y2218134D01*
X2082028Y2208540D02*
X2082028Y2202932D01*
X2082028Y2208540D02*
X2093732Y2208540D01*
X2093732Y2202932D01*
X2082028Y2202932D01*
X2082028Y2205326D02*
X2093732Y2205326D01*
X2093732Y2207720D02*
X2082028Y2207720D01*
X2068332Y2215759D02*
X2068332Y2221113D01*
X2068332Y2215759D02*
X2056628Y2215759D01*
X2056628Y2221113D01*
X2068332Y2221113D01*
X2068332Y2218153D02*
X2056628Y2218153D01*
X2056628Y2220547D02*
X2068332Y2220547D01*
X2068332Y2223887D02*
X2068332Y2229241D01*
X2068332Y2223887D02*
X2056628Y2223887D01*
X2056628Y2229241D01*
X2068332Y2229241D01*
X2068332Y2226281D02*
X2056628Y2226281D01*
X2056628Y2228675D02*
X2068332Y2228675D01*
D16*
X1518920Y2010390D03*
X1518920Y2090390D03*
D13*
X2042932Y2214489D02*
X2042932Y2220097D01*
X2042932Y2214489D02*
X2031228Y2214489D01*
X2031228Y2220097D01*
X2042932Y2220097D01*
X2042932Y2216883D02*
X2031228Y2216883D01*
X2031228Y2219277D02*
X2042932Y2219277D01*
X2042932Y2224903D02*
X2042932Y2230511D01*
X2042932Y2224903D02*
X2031228Y2224903D01*
X2031228Y2230511D01*
X2042932Y2230511D01*
X2042932Y2227297D02*
X2031228Y2227297D01*
X2031228Y2229691D02*
X2042932Y2229691D01*
X2017532Y2220097D02*
X2017532Y2214489D01*
X2005828Y2214489D01*
X2005828Y2220097D01*
X2017532Y2220097D01*
X2017532Y2216883D02*
X2005828Y2216883D01*
X2005828Y2219277D02*
X2017532Y2219277D01*
X2017532Y2224903D02*
X2017532Y2230511D01*
X2017532Y2224903D02*
X2005828Y2224903D01*
X2005828Y2230511D01*
X2017532Y2230511D01*
X2017532Y2227297D02*
X2005828Y2227297D01*
X2005828Y2229691D02*
X2017532Y2229691D01*
D17*
X1498600Y1879600D03*
X1544320Y1879600D03*
D13*
X1870319Y2181088D02*
X1875927Y2181088D01*
X1870319Y2181088D02*
X1870319Y2192792D01*
X1875927Y2192792D01*
X1875927Y2181088D01*
X1875927Y2183482D02*
X1870319Y2183482D01*
X1870319Y2185876D02*
X1875927Y2185876D01*
X1875927Y2188270D02*
X1870319Y2188270D01*
X1870319Y2190664D02*
X1875927Y2190664D01*
X1880733Y2181088D02*
X1886341Y2181088D01*
X1880733Y2181088D02*
X1880733Y2192792D01*
X1886341Y2192792D01*
X1886341Y2181088D01*
X1886341Y2183482D02*
X1880733Y2183482D01*
X1880733Y2185876D02*
X1886341Y2185876D01*
X1886341Y2188270D02*
X1880733Y2188270D01*
X1880733Y2190664D02*
X1886341Y2190664D01*
D14*
X1865630Y2212340D03*
X1891030Y2212340D03*
X1681480Y1894840D03*
X1706880Y1894840D03*
D18*
X1986280Y2199640D03*
D16*
X-74498Y2325370D03*
X2238578Y2325370D03*
D19*
X-83553Y63500D02*
X-83550Y63722D01*
X-83542Y63944D01*
X-83528Y64166D01*
X-83509Y64388D01*
X-83485Y64608D01*
X-83455Y64829D01*
X-83420Y65048D01*
X-83379Y65267D01*
X-83333Y65484D01*
X-83282Y65700D01*
X-83225Y65915D01*
X-83163Y66129D01*
X-83096Y66340D01*
X-83024Y66551D01*
X-82946Y66759D01*
X-82864Y66965D01*
X-82776Y67169D01*
X-82684Y67372D01*
X-82586Y67571D01*
X-82484Y67768D01*
X-82377Y67963D01*
X-82265Y68155D01*
X-82148Y68344D01*
X-82027Y68531D01*
X-81901Y68714D01*
X-81771Y68894D01*
X-81636Y69071D01*
X-81498Y69244D01*
X-81355Y69414D01*
X-81207Y69581D01*
X-81056Y69744D01*
X-80901Y69903D01*
X-80742Y70058D01*
X-80579Y70209D01*
X-80412Y70357D01*
X-80242Y70500D01*
X-80069Y70638D01*
X-79892Y70773D01*
X-79712Y70903D01*
X-79529Y71029D01*
X-79342Y71150D01*
X-79153Y71267D01*
X-78961Y71379D01*
X-78766Y71486D01*
X-78569Y71588D01*
X-78370Y71686D01*
X-78167Y71778D01*
X-77963Y71866D01*
X-77757Y71948D01*
X-77549Y72026D01*
X-77338Y72098D01*
X-77127Y72165D01*
X-76913Y72227D01*
X-76698Y72284D01*
X-76482Y72335D01*
X-76265Y72381D01*
X-76046Y72422D01*
X-75827Y72457D01*
X-75606Y72487D01*
X-75386Y72511D01*
X-75164Y72530D01*
X-74942Y72544D01*
X-74720Y72552D01*
X-74498Y72555D01*
X-74276Y72552D01*
X-74054Y72544D01*
X-73832Y72530D01*
X-73610Y72511D01*
X-73390Y72487D01*
X-73169Y72457D01*
X-72950Y72422D01*
X-72731Y72381D01*
X-72514Y72335D01*
X-72298Y72284D01*
X-72083Y72227D01*
X-71869Y72165D01*
X-71658Y72098D01*
X-71447Y72026D01*
X-71239Y71948D01*
X-71033Y71866D01*
X-70829Y71778D01*
X-70626Y71686D01*
X-70427Y71588D01*
X-70230Y71486D01*
X-70035Y71379D01*
X-69843Y71267D01*
X-69654Y71150D01*
X-69467Y71029D01*
X-69284Y70903D01*
X-69104Y70773D01*
X-68927Y70638D01*
X-68754Y70500D01*
X-68584Y70357D01*
X-68417Y70209D01*
X-68254Y70058D01*
X-68095Y69903D01*
X-67940Y69744D01*
X-67789Y69581D01*
X-67641Y69414D01*
X-67498Y69244D01*
X-67360Y69071D01*
X-67225Y68894D01*
X-67095Y68714D01*
X-66969Y68531D01*
X-66848Y68344D01*
X-66731Y68155D01*
X-66619Y67963D01*
X-66512Y67768D01*
X-66410Y67571D01*
X-66312Y67372D01*
X-66220Y67169D01*
X-66132Y66965D01*
X-66050Y66759D01*
X-65972Y66551D01*
X-65900Y66340D01*
X-65833Y66129D01*
X-65771Y65915D01*
X-65714Y65700D01*
X-65663Y65484D01*
X-65617Y65267D01*
X-65576Y65048D01*
X-65541Y64829D01*
X-65511Y64608D01*
X-65487Y64388D01*
X-65468Y64166D01*
X-65454Y63944D01*
X-65446Y63722D01*
X-65443Y63500D01*
X-65446Y63278D01*
X-65454Y63056D01*
X-65468Y62834D01*
X-65487Y62612D01*
X-65511Y62392D01*
X-65541Y62171D01*
X-65576Y61952D01*
X-65617Y61733D01*
X-65663Y61516D01*
X-65714Y61300D01*
X-65771Y61085D01*
X-65833Y60871D01*
X-65900Y60660D01*
X-65972Y60449D01*
X-66050Y60241D01*
X-66132Y60035D01*
X-66220Y59831D01*
X-66312Y59628D01*
X-66410Y59429D01*
X-66512Y59232D01*
X-66619Y59037D01*
X-66731Y58845D01*
X-66848Y58656D01*
X-66969Y58469D01*
X-67095Y58286D01*
X-67225Y58106D01*
X-67360Y57929D01*
X-67498Y57756D01*
X-67641Y57586D01*
X-67789Y57419D01*
X-67940Y57256D01*
X-68095Y57097D01*
X-68254Y56942D01*
X-68417Y56791D01*
X-68584Y56643D01*
X-68754Y56500D01*
X-68927Y56362D01*
X-69104Y56227D01*
X-69284Y56097D01*
X-69467Y55971D01*
X-69654Y55850D01*
X-69843Y55733D01*
X-70035Y55621D01*
X-70230Y55514D01*
X-70427Y55412D01*
X-70626Y55314D01*
X-70829Y55222D01*
X-71033Y55134D01*
X-71239Y55052D01*
X-71447Y54974D01*
X-71658Y54902D01*
X-71869Y54835D01*
X-72083Y54773D01*
X-72298Y54716D01*
X-72514Y54665D01*
X-72731Y54619D01*
X-72950Y54578D01*
X-73169Y54543D01*
X-73390Y54513D01*
X-73610Y54489D01*
X-73832Y54470D01*
X-74054Y54456D01*
X-74276Y54448D01*
X-74498Y54445D01*
X-74720Y54448D01*
X-74942Y54456D01*
X-75164Y54470D01*
X-75386Y54489D01*
X-75606Y54513D01*
X-75827Y54543D01*
X-76046Y54578D01*
X-76265Y54619D01*
X-76482Y54665D01*
X-76698Y54716D01*
X-76913Y54773D01*
X-77127Y54835D01*
X-77338Y54902D01*
X-77549Y54974D01*
X-77757Y55052D01*
X-77963Y55134D01*
X-78167Y55222D01*
X-78370Y55314D01*
X-78569Y55412D01*
X-78766Y55514D01*
X-78961Y55621D01*
X-79153Y55733D01*
X-79342Y55850D01*
X-79529Y55971D01*
X-79712Y56097D01*
X-79892Y56227D01*
X-80069Y56362D01*
X-80242Y56500D01*
X-80412Y56643D01*
X-80579Y56791D01*
X-80742Y56942D01*
X-80901Y57097D01*
X-81056Y57256D01*
X-81207Y57419D01*
X-81355Y57586D01*
X-81498Y57756D01*
X-81636Y57929D01*
X-81771Y58106D01*
X-81901Y58286D01*
X-82027Y58469D01*
X-82148Y58656D01*
X-82265Y58845D01*
X-82377Y59037D01*
X-82484Y59232D01*
X-82586Y59429D01*
X-82684Y59628D01*
X-82776Y59831D01*
X-82864Y60035D01*
X-82946Y60241D01*
X-83024Y60449D01*
X-83096Y60660D01*
X-83163Y60871D01*
X-83225Y61085D01*
X-83282Y61300D01*
X-83333Y61516D01*
X-83379Y61733D01*
X-83420Y61952D01*
X-83455Y62171D01*
X-83485Y62392D01*
X-83509Y62612D01*
X-83528Y62834D01*
X-83542Y63056D01*
X-83550Y63278D01*
X-83553Y63500D01*
D20*
X-74498Y63500D03*
M02*
