G04 EAGLE Gerber RS-274X export*
G75*
%MOMM*%
%FSLAX34Y34*%
%LPD*%
%INSoldermask Bottom*%
%IPPOS*%
%AMOC8*
5,1,8,0,0,1.08239X$1,22.5*%
G01*
%ADD10C,3.454400*%
%ADD11C,0.802400*%
%ADD12C,0.252575*%
%ADD13C,0.251966*%
%ADD14C,2.032000*%
%ADD15C,0.939800*%
%ADD16C,1.152400*%
%ADD17C,2.184400*%
%ADD18C,0.914400*%
%ADD19C,1.270000*%
%ADD20C,1.652400*%

G36*
X402020Y430923D02*
X402020Y430923D01*
X402086Y430925D01*
X402129Y430943D01*
X402176Y430951D01*
X402233Y430985D01*
X402293Y431010D01*
X402328Y431041D01*
X402369Y431066D01*
X402411Y431117D01*
X402459Y431161D01*
X402481Y431203D01*
X402510Y431240D01*
X402531Y431302D01*
X402562Y431361D01*
X402570Y431415D01*
X402582Y431452D01*
X402581Y431492D01*
X402589Y431546D01*
X402589Y444754D01*
X402578Y444819D01*
X402576Y444885D01*
X402558Y444928D01*
X402550Y444975D01*
X402516Y445032D01*
X402491Y445092D01*
X402460Y445127D01*
X402435Y445168D01*
X402384Y445210D01*
X402340Y445258D01*
X402298Y445280D01*
X402261Y445309D01*
X402199Y445330D01*
X402140Y445361D01*
X402086Y445369D01*
X402049Y445381D01*
X402009Y445380D01*
X401955Y445388D01*
X398145Y445388D01*
X398080Y445377D01*
X398014Y445375D01*
X397971Y445357D01*
X397924Y445349D01*
X397867Y445315D01*
X397807Y445290D01*
X397772Y445259D01*
X397731Y445234D01*
X397690Y445183D01*
X397641Y445139D01*
X397619Y445097D01*
X397590Y445060D01*
X397569Y444998D01*
X397538Y444939D01*
X397530Y444885D01*
X397518Y444848D01*
X397519Y444808D01*
X397511Y444754D01*
X397511Y431546D01*
X397522Y431481D01*
X397524Y431415D01*
X397542Y431372D01*
X397550Y431325D01*
X397584Y431268D01*
X397609Y431208D01*
X397640Y431173D01*
X397665Y431132D01*
X397716Y431091D01*
X397760Y431042D01*
X397802Y431020D01*
X397839Y430991D01*
X397901Y430970D01*
X397960Y430939D01*
X398014Y430931D01*
X398051Y430919D01*
X398091Y430920D01*
X398145Y430912D01*
X401955Y430912D01*
X402020Y430923D01*
G37*
G36*
X1151320Y430923D02*
X1151320Y430923D01*
X1151386Y430925D01*
X1151429Y430943D01*
X1151476Y430951D01*
X1151533Y430985D01*
X1151593Y431010D01*
X1151628Y431041D01*
X1151669Y431066D01*
X1151711Y431117D01*
X1151759Y431161D01*
X1151781Y431203D01*
X1151810Y431240D01*
X1151831Y431302D01*
X1151862Y431361D01*
X1151870Y431415D01*
X1151882Y431452D01*
X1151881Y431492D01*
X1151889Y431546D01*
X1151889Y444754D01*
X1151878Y444819D01*
X1151876Y444885D01*
X1151858Y444928D01*
X1151850Y444975D01*
X1151816Y445032D01*
X1151791Y445092D01*
X1151760Y445127D01*
X1151735Y445168D01*
X1151684Y445210D01*
X1151640Y445258D01*
X1151598Y445280D01*
X1151561Y445309D01*
X1151499Y445330D01*
X1151440Y445361D01*
X1151386Y445369D01*
X1151349Y445381D01*
X1151309Y445380D01*
X1151255Y445388D01*
X1147445Y445388D01*
X1147380Y445377D01*
X1147314Y445375D01*
X1147271Y445357D01*
X1147224Y445349D01*
X1147167Y445315D01*
X1147107Y445290D01*
X1147072Y445259D01*
X1147031Y445234D01*
X1146990Y445183D01*
X1146941Y445139D01*
X1146919Y445097D01*
X1146890Y445060D01*
X1146869Y444998D01*
X1146838Y444939D01*
X1146830Y444885D01*
X1146818Y444848D01*
X1146819Y444808D01*
X1146811Y444754D01*
X1146811Y431546D01*
X1146822Y431481D01*
X1146824Y431415D01*
X1146842Y431372D01*
X1146850Y431325D01*
X1146884Y431268D01*
X1146909Y431208D01*
X1146940Y431173D01*
X1146965Y431132D01*
X1147016Y431091D01*
X1147060Y431042D01*
X1147102Y431020D01*
X1147139Y430991D01*
X1147201Y430970D01*
X1147260Y430939D01*
X1147314Y430931D01*
X1147351Y430919D01*
X1147391Y430920D01*
X1147445Y430912D01*
X1151255Y430912D01*
X1151320Y430923D01*
G37*
G36*
X1151320Y1020203D02*
X1151320Y1020203D01*
X1151386Y1020205D01*
X1151429Y1020223D01*
X1151476Y1020231D01*
X1151533Y1020265D01*
X1151593Y1020290D01*
X1151628Y1020321D01*
X1151669Y1020346D01*
X1151711Y1020397D01*
X1151759Y1020441D01*
X1151781Y1020483D01*
X1151810Y1020520D01*
X1151831Y1020582D01*
X1151862Y1020641D01*
X1151870Y1020695D01*
X1151882Y1020732D01*
X1151881Y1020772D01*
X1151889Y1020826D01*
X1151889Y1034034D01*
X1151878Y1034099D01*
X1151876Y1034165D01*
X1151858Y1034208D01*
X1151850Y1034255D01*
X1151816Y1034312D01*
X1151791Y1034372D01*
X1151760Y1034407D01*
X1151735Y1034448D01*
X1151684Y1034490D01*
X1151640Y1034538D01*
X1151598Y1034560D01*
X1151561Y1034589D01*
X1151499Y1034610D01*
X1151440Y1034641D01*
X1151386Y1034649D01*
X1151349Y1034661D01*
X1151309Y1034660D01*
X1151255Y1034668D01*
X1147445Y1034668D01*
X1147380Y1034657D01*
X1147314Y1034655D01*
X1147271Y1034637D01*
X1147224Y1034629D01*
X1147167Y1034595D01*
X1147107Y1034570D01*
X1147072Y1034539D01*
X1147031Y1034514D01*
X1146990Y1034463D01*
X1146941Y1034419D01*
X1146919Y1034377D01*
X1146890Y1034340D01*
X1146869Y1034278D01*
X1146838Y1034219D01*
X1146830Y1034165D01*
X1146818Y1034128D01*
X1146819Y1034088D01*
X1146811Y1034034D01*
X1146811Y1020826D01*
X1146822Y1020761D01*
X1146824Y1020695D01*
X1146842Y1020652D01*
X1146850Y1020605D01*
X1146884Y1020548D01*
X1146909Y1020488D01*
X1146940Y1020453D01*
X1146965Y1020412D01*
X1147016Y1020371D01*
X1147060Y1020322D01*
X1147102Y1020300D01*
X1147139Y1020271D01*
X1147201Y1020250D01*
X1147260Y1020219D01*
X1147314Y1020211D01*
X1147351Y1020199D01*
X1147391Y1020200D01*
X1147445Y1020192D01*
X1151255Y1020192D01*
X1151320Y1020203D01*
G37*
G36*
X402020Y1020203D02*
X402020Y1020203D01*
X402086Y1020205D01*
X402129Y1020223D01*
X402176Y1020231D01*
X402233Y1020265D01*
X402293Y1020290D01*
X402328Y1020321D01*
X402369Y1020346D01*
X402411Y1020397D01*
X402459Y1020441D01*
X402481Y1020483D01*
X402510Y1020520D01*
X402531Y1020582D01*
X402562Y1020641D01*
X402570Y1020695D01*
X402582Y1020732D01*
X402581Y1020772D01*
X402589Y1020826D01*
X402589Y1034034D01*
X402578Y1034099D01*
X402576Y1034165D01*
X402558Y1034208D01*
X402550Y1034255D01*
X402516Y1034312D01*
X402491Y1034372D01*
X402460Y1034407D01*
X402435Y1034448D01*
X402384Y1034490D01*
X402340Y1034538D01*
X402298Y1034560D01*
X402261Y1034589D01*
X402199Y1034610D01*
X402140Y1034641D01*
X402086Y1034649D01*
X402049Y1034661D01*
X402009Y1034660D01*
X401955Y1034668D01*
X398145Y1034668D01*
X398080Y1034657D01*
X398014Y1034655D01*
X397971Y1034637D01*
X397924Y1034629D01*
X397867Y1034595D01*
X397807Y1034570D01*
X397772Y1034539D01*
X397731Y1034514D01*
X397690Y1034463D01*
X397641Y1034419D01*
X397619Y1034377D01*
X397590Y1034340D01*
X397569Y1034278D01*
X397538Y1034219D01*
X397530Y1034165D01*
X397518Y1034128D01*
X397519Y1034088D01*
X397511Y1034034D01*
X397511Y1020826D01*
X397522Y1020761D01*
X397524Y1020695D01*
X397542Y1020652D01*
X397550Y1020605D01*
X397584Y1020548D01*
X397609Y1020488D01*
X397640Y1020453D01*
X397665Y1020412D01*
X397716Y1020371D01*
X397760Y1020322D01*
X397802Y1020300D01*
X397839Y1020271D01*
X397901Y1020250D01*
X397960Y1020219D01*
X398014Y1020211D01*
X398051Y1020199D01*
X398091Y1020200D01*
X398145Y1020192D01*
X401955Y1020192D01*
X402020Y1020203D01*
G37*
G36*
X534735Y452132D02*
X534735Y452132D01*
X534801Y452134D01*
X534844Y452152D01*
X534891Y452160D01*
X534948Y452194D01*
X535008Y452219D01*
X535043Y452250D01*
X535084Y452275D01*
X535126Y452326D01*
X535174Y452370D01*
X535196Y452412D01*
X535225Y452449D01*
X535246Y452511D01*
X535277Y452570D01*
X535285Y452624D01*
X535297Y452661D01*
X535296Y452701D01*
X535304Y452755D01*
X535304Y456565D01*
X535293Y456630D01*
X535291Y456696D01*
X535273Y456739D01*
X535265Y456786D01*
X535231Y456843D01*
X535206Y456903D01*
X535175Y456938D01*
X535150Y456979D01*
X535099Y457021D01*
X535055Y457069D01*
X535013Y457091D01*
X534976Y457120D01*
X534914Y457141D01*
X534855Y457172D01*
X534801Y457180D01*
X534764Y457192D01*
X534724Y457191D01*
X534670Y457199D01*
X532130Y457199D01*
X532065Y457188D01*
X531999Y457186D01*
X531956Y457168D01*
X531909Y457160D01*
X531852Y457126D01*
X531792Y457101D01*
X531757Y457070D01*
X531716Y457045D01*
X531675Y456994D01*
X531626Y456950D01*
X531604Y456908D01*
X531575Y456871D01*
X531554Y456809D01*
X531523Y456750D01*
X531515Y456696D01*
X531503Y456659D01*
X531503Y456655D01*
X531503Y456654D01*
X531504Y456619D01*
X531496Y456565D01*
X531496Y452755D01*
X531507Y452690D01*
X531509Y452624D01*
X531527Y452581D01*
X531535Y452534D01*
X531569Y452477D01*
X531594Y452417D01*
X531625Y452382D01*
X531650Y452341D01*
X531701Y452300D01*
X531745Y452251D01*
X531787Y452229D01*
X531824Y452200D01*
X531886Y452179D01*
X531945Y452148D01*
X531999Y452140D01*
X532036Y452128D01*
X532076Y452129D01*
X532130Y452121D01*
X534670Y452121D01*
X534735Y452132D01*
G37*
G36*
X1309435Y452132D02*
X1309435Y452132D01*
X1309501Y452134D01*
X1309544Y452152D01*
X1309591Y452160D01*
X1309648Y452194D01*
X1309708Y452219D01*
X1309743Y452250D01*
X1309784Y452275D01*
X1309826Y452326D01*
X1309874Y452370D01*
X1309896Y452412D01*
X1309925Y452449D01*
X1309946Y452511D01*
X1309977Y452570D01*
X1309985Y452624D01*
X1309997Y452661D01*
X1309996Y452701D01*
X1310004Y452755D01*
X1310004Y456565D01*
X1309993Y456630D01*
X1309991Y456696D01*
X1309973Y456739D01*
X1309965Y456786D01*
X1309931Y456843D01*
X1309906Y456903D01*
X1309875Y456938D01*
X1309850Y456979D01*
X1309799Y457021D01*
X1309755Y457069D01*
X1309713Y457091D01*
X1309676Y457120D01*
X1309614Y457141D01*
X1309555Y457172D01*
X1309501Y457180D01*
X1309464Y457192D01*
X1309424Y457191D01*
X1309370Y457199D01*
X1306830Y457199D01*
X1306765Y457188D01*
X1306699Y457186D01*
X1306656Y457168D01*
X1306609Y457160D01*
X1306552Y457126D01*
X1306492Y457101D01*
X1306457Y457070D01*
X1306416Y457045D01*
X1306375Y456994D01*
X1306326Y456950D01*
X1306304Y456908D01*
X1306275Y456871D01*
X1306254Y456809D01*
X1306223Y456750D01*
X1306215Y456696D01*
X1306203Y456659D01*
X1306203Y456655D01*
X1306203Y456654D01*
X1306204Y456619D01*
X1306196Y456565D01*
X1306196Y452755D01*
X1306207Y452690D01*
X1306209Y452624D01*
X1306227Y452581D01*
X1306235Y452534D01*
X1306269Y452477D01*
X1306294Y452417D01*
X1306325Y452382D01*
X1306350Y452341D01*
X1306401Y452300D01*
X1306445Y452251D01*
X1306487Y452229D01*
X1306524Y452200D01*
X1306586Y452179D01*
X1306645Y452148D01*
X1306699Y452140D01*
X1306736Y452128D01*
X1306776Y452129D01*
X1306830Y452121D01*
X1309370Y452121D01*
X1309435Y452132D01*
G37*
G36*
X560135Y452132D02*
X560135Y452132D01*
X560201Y452134D01*
X560244Y452152D01*
X560291Y452160D01*
X560348Y452194D01*
X560408Y452219D01*
X560443Y452250D01*
X560484Y452275D01*
X560526Y452326D01*
X560574Y452370D01*
X560596Y452412D01*
X560625Y452449D01*
X560646Y452511D01*
X560677Y452570D01*
X560685Y452624D01*
X560697Y452661D01*
X560696Y452701D01*
X560704Y452755D01*
X560704Y456565D01*
X560693Y456630D01*
X560691Y456696D01*
X560673Y456739D01*
X560665Y456786D01*
X560631Y456843D01*
X560606Y456903D01*
X560575Y456938D01*
X560550Y456979D01*
X560499Y457021D01*
X560455Y457069D01*
X560413Y457091D01*
X560376Y457120D01*
X560314Y457141D01*
X560255Y457172D01*
X560201Y457180D01*
X560164Y457192D01*
X560124Y457191D01*
X560070Y457199D01*
X557530Y457199D01*
X557465Y457188D01*
X557399Y457186D01*
X557356Y457168D01*
X557309Y457160D01*
X557252Y457126D01*
X557192Y457101D01*
X557157Y457070D01*
X557116Y457045D01*
X557075Y456994D01*
X557026Y456950D01*
X557004Y456908D01*
X556975Y456871D01*
X556954Y456809D01*
X556923Y456750D01*
X556915Y456696D01*
X556903Y456659D01*
X556903Y456655D01*
X556903Y456654D01*
X556904Y456619D01*
X556896Y456565D01*
X556896Y452755D01*
X556907Y452690D01*
X556909Y452624D01*
X556927Y452581D01*
X556935Y452534D01*
X556969Y452477D01*
X556994Y452417D01*
X557025Y452382D01*
X557050Y452341D01*
X557101Y452300D01*
X557145Y452251D01*
X557187Y452229D01*
X557224Y452200D01*
X557286Y452179D01*
X557345Y452148D01*
X557399Y452140D01*
X557436Y452128D01*
X557476Y452129D01*
X557530Y452121D01*
X560070Y452121D01*
X560135Y452132D01*
G37*
G36*
X1284035Y452132D02*
X1284035Y452132D01*
X1284101Y452134D01*
X1284144Y452152D01*
X1284191Y452160D01*
X1284248Y452194D01*
X1284308Y452219D01*
X1284343Y452250D01*
X1284384Y452275D01*
X1284426Y452326D01*
X1284474Y452370D01*
X1284496Y452412D01*
X1284525Y452449D01*
X1284546Y452511D01*
X1284577Y452570D01*
X1284585Y452624D01*
X1284597Y452661D01*
X1284596Y452701D01*
X1284604Y452755D01*
X1284604Y456565D01*
X1284593Y456630D01*
X1284591Y456696D01*
X1284573Y456739D01*
X1284565Y456786D01*
X1284531Y456843D01*
X1284506Y456903D01*
X1284475Y456938D01*
X1284450Y456979D01*
X1284399Y457021D01*
X1284355Y457069D01*
X1284313Y457091D01*
X1284276Y457120D01*
X1284214Y457141D01*
X1284155Y457172D01*
X1284101Y457180D01*
X1284064Y457192D01*
X1284024Y457191D01*
X1283970Y457199D01*
X1281430Y457199D01*
X1281365Y457188D01*
X1281299Y457186D01*
X1281256Y457168D01*
X1281209Y457160D01*
X1281152Y457126D01*
X1281092Y457101D01*
X1281057Y457070D01*
X1281016Y457045D01*
X1280975Y456994D01*
X1280926Y456950D01*
X1280904Y456908D01*
X1280875Y456871D01*
X1280854Y456809D01*
X1280823Y456750D01*
X1280815Y456696D01*
X1280803Y456659D01*
X1280803Y456655D01*
X1280803Y456654D01*
X1280804Y456619D01*
X1280796Y456565D01*
X1280796Y452755D01*
X1280807Y452690D01*
X1280809Y452624D01*
X1280827Y452581D01*
X1280835Y452534D01*
X1280869Y452477D01*
X1280894Y452417D01*
X1280925Y452382D01*
X1280950Y452341D01*
X1281001Y452300D01*
X1281045Y452251D01*
X1281087Y452229D01*
X1281124Y452200D01*
X1281186Y452179D01*
X1281245Y452148D01*
X1281299Y452140D01*
X1281336Y452128D01*
X1281376Y452129D01*
X1281430Y452121D01*
X1283970Y452121D01*
X1284035Y452132D01*
G37*
G36*
X763335Y1069352D02*
X763335Y1069352D01*
X763401Y1069354D01*
X763444Y1069372D01*
X763491Y1069380D01*
X763548Y1069414D01*
X763608Y1069439D01*
X763643Y1069470D01*
X763684Y1069495D01*
X763726Y1069546D01*
X763774Y1069590D01*
X763796Y1069632D01*
X763825Y1069669D01*
X763846Y1069731D01*
X763877Y1069790D01*
X763885Y1069844D01*
X763897Y1069881D01*
X763896Y1069921D01*
X763904Y1069975D01*
X763904Y1073785D01*
X763893Y1073850D01*
X763891Y1073916D01*
X763873Y1073959D01*
X763865Y1074006D01*
X763831Y1074063D01*
X763806Y1074123D01*
X763775Y1074158D01*
X763750Y1074199D01*
X763699Y1074241D01*
X763655Y1074289D01*
X763613Y1074311D01*
X763576Y1074340D01*
X763514Y1074361D01*
X763455Y1074392D01*
X763401Y1074400D01*
X763364Y1074412D01*
X763324Y1074411D01*
X763270Y1074419D01*
X760730Y1074419D01*
X760665Y1074408D01*
X760599Y1074406D01*
X760556Y1074388D01*
X760509Y1074380D01*
X760452Y1074346D01*
X760392Y1074321D01*
X760357Y1074290D01*
X760316Y1074265D01*
X760275Y1074214D01*
X760226Y1074170D01*
X760204Y1074128D01*
X760175Y1074091D01*
X760154Y1074029D01*
X760123Y1073970D01*
X760115Y1073916D01*
X760103Y1073879D01*
X760103Y1073875D01*
X760103Y1073874D01*
X760104Y1073839D01*
X760096Y1073785D01*
X760096Y1069975D01*
X760107Y1069910D01*
X760109Y1069844D01*
X760127Y1069801D01*
X760135Y1069754D01*
X760169Y1069697D01*
X760194Y1069637D01*
X760225Y1069602D01*
X760250Y1069561D01*
X760301Y1069520D01*
X760345Y1069471D01*
X760387Y1069449D01*
X760424Y1069420D01*
X760486Y1069399D01*
X760545Y1069368D01*
X760599Y1069360D01*
X760636Y1069348D01*
X760676Y1069349D01*
X760730Y1069341D01*
X763270Y1069341D01*
X763335Y1069352D01*
G37*
G36*
X14035Y1069352D02*
X14035Y1069352D01*
X14101Y1069354D01*
X14144Y1069372D01*
X14191Y1069380D01*
X14248Y1069414D01*
X14308Y1069439D01*
X14343Y1069470D01*
X14384Y1069495D01*
X14426Y1069546D01*
X14474Y1069590D01*
X14496Y1069632D01*
X14525Y1069669D01*
X14546Y1069731D01*
X14577Y1069790D01*
X14585Y1069844D01*
X14597Y1069881D01*
X14596Y1069921D01*
X14604Y1069975D01*
X14604Y1073785D01*
X14593Y1073850D01*
X14591Y1073916D01*
X14573Y1073959D01*
X14565Y1074006D01*
X14531Y1074063D01*
X14506Y1074123D01*
X14475Y1074158D01*
X14450Y1074199D01*
X14399Y1074241D01*
X14355Y1074289D01*
X14313Y1074311D01*
X14276Y1074340D01*
X14214Y1074361D01*
X14155Y1074392D01*
X14101Y1074400D01*
X14064Y1074412D01*
X14024Y1074411D01*
X13970Y1074419D01*
X11430Y1074419D01*
X11365Y1074408D01*
X11299Y1074406D01*
X11256Y1074388D01*
X11209Y1074380D01*
X11152Y1074346D01*
X11092Y1074321D01*
X11057Y1074290D01*
X11016Y1074265D01*
X10975Y1074214D01*
X10926Y1074170D01*
X10904Y1074128D01*
X10875Y1074091D01*
X10854Y1074029D01*
X10823Y1073970D01*
X10815Y1073916D01*
X10803Y1073879D01*
X10803Y1073875D01*
X10803Y1073874D01*
X10804Y1073839D01*
X10796Y1073785D01*
X10796Y1069975D01*
X10807Y1069910D01*
X10809Y1069844D01*
X10827Y1069801D01*
X10835Y1069754D01*
X10869Y1069697D01*
X10894Y1069637D01*
X10925Y1069602D01*
X10950Y1069561D01*
X11001Y1069520D01*
X11045Y1069471D01*
X11087Y1069449D01*
X11124Y1069420D01*
X11186Y1069399D01*
X11245Y1069368D01*
X11299Y1069360D01*
X11336Y1069348D01*
X11376Y1069349D01*
X11430Y1069341D01*
X13970Y1069341D01*
X14035Y1069352D01*
G37*
G36*
X1284035Y1041412D02*
X1284035Y1041412D01*
X1284101Y1041414D01*
X1284144Y1041432D01*
X1284191Y1041440D01*
X1284248Y1041474D01*
X1284308Y1041499D01*
X1284343Y1041530D01*
X1284384Y1041555D01*
X1284426Y1041606D01*
X1284474Y1041650D01*
X1284496Y1041692D01*
X1284525Y1041729D01*
X1284546Y1041791D01*
X1284577Y1041850D01*
X1284585Y1041904D01*
X1284597Y1041941D01*
X1284596Y1041981D01*
X1284604Y1042035D01*
X1284604Y1045845D01*
X1284593Y1045910D01*
X1284591Y1045976D01*
X1284573Y1046019D01*
X1284565Y1046066D01*
X1284531Y1046123D01*
X1284506Y1046183D01*
X1284475Y1046218D01*
X1284450Y1046259D01*
X1284399Y1046301D01*
X1284355Y1046349D01*
X1284313Y1046371D01*
X1284276Y1046400D01*
X1284214Y1046421D01*
X1284155Y1046452D01*
X1284101Y1046460D01*
X1284064Y1046472D01*
X1284024Y1046471D01*
X1283970Y1046479D01*
X1281430Y1046479D01*
X1281365Y1046468D01*
X1281299Y1046466D01*
X1281256Y1046448D01*
X1281209Y1046440D01*
X1281152Y1046406D01*
X1281092Y1046381D01*
X1281057Y1046350D01*
X1281016Y1046325D01*
X1280975Y1046274D01*
X1280926Y1046230D01*
X1280904Y1046188D01*
X1280875Y1046151D01*
X1280854Y1046089D01*
X1280823Y1046030D01*
X1280815Y1045976D01*
X1280803Y1045939D01*
X1280803Y1045935D01*
X1280803Y1045934D01*
X1280804Y1045899D01*
X1280796Y1045845D01*
X1280796Y1042035D01*
X1280807Y1041970D01*
X1280809Y1041904D01*
X1280827Y1041861D01*
X1280835Y1041814D01*
X1280869Y1041757D01*
X1280894Y1041697D01*
X1280925Y1041662D01*
X1280950Y1041621D01*
X1281001Y1041580D01*
X1281045Y1041531D01*
X1281087Y1041509D01*
X1281124Y1041480D01*
X1281186Y1041459D01*
X1281245Y1041428D01*
X1281299Y1041420D01*
X1281336Y1041408D01*
X1281376Y1041409D01*
X1281430Y1041401D01*
X1283970Y1041401D01*
X1284035Y1041412D01*
G37*
G36*
X560135Y1041412D02*
X560135Y1041412D01*
X560201Y1041414D01*
X560244Y1041432D01*
X560291Y1041440D01*
X560348Y1041474D01*
X560408Y1041499D01*
X560443Y1041530D01*
X560484Y1041555D01*
X560526Y1041606D01*
X560574Y1041650D01*
X560596Y1041692D01*
X560625Y1041729D01*
X560646Y1041791D01*
X560677Y1041850D01*
X560685Y1041904D01*
X560697Y1041941D01*
X560696Y1041981D01*
X560704Y1042035D01*
X560704Y1045845D01*
X560693Y1045910D01*
X560691Y1045976D01*
X560673Y1046019D01*
X560665Y1046066D01*
X560631Y1046123D01*
X560606Y1046183D01*
X560575Y1046218D01*
X560550Y1046259D01*
X560499Y1046301D01*
X560455Y1046349D01*
X560413Y1046371D01*
X560376Y1046400D01*
X560314Y1046421D01*
X560255Y1046452D01*
X560201Y1046460D01*
X560164Y1046472D01*
X560124Y1046471D01*
X560070Y1046479D01*
X557530Y1046479D01*
X557465Y1046468D01*
X557399Y1046466D01*
X557356Y1046448D01*
X557309Y1046440D01*
X557252Y1046406D01*
X557192Y1046381D01*
X557157Y1046350D01*
X557116Y1046325D01*
X557075Y1046274D01*
X557026Y1046230D01*
X557004Y1046188D01*
X556975Y1046151D01*
X556954Y1046089D01*
X556923Y1046030D01*
X556915Y1045976D01*
X556903Y1045939D01*
X556903Y1045935D01*
X556903Y1045934D01*
X556904Y1045899D01*
X556896Y1045845D01*
X556896Y1042035D01*
X556907Y1041970D01*
X556909Y1041904D01*
X556927Y1041861D01*
X556935Y1041814D01*
X556969Y1041757D01*
X556994Y1041697D01*
X557025Y1041662D01*
X557050Y1041621D01*
X557101Y1041580D01*
X557145Y1041531D01*
X557187Y1041509D01*
X557224Y1041480D01*
X557286Y1041459D01*
X557345Y1041428D01*
X557399Y1041420D01*
X557436Y1041408D01*
X557476Y1041409D01*
X557530Y1041401D01*
X560070Y1041401D01*
X560135Y1041412D01*
G37*
G36*
X1309435Y1041412D02*
X1309435Y1041412D01*
X1309501Y1041414D01*
X1309544Y1041432D01*
X1309591Y1041440D01*
X1309648Y1041474D01*
X1309708Y1041499D01*
X1309743Y1041530D01*
X1309784Y1041555D01*
X1309826Y1041606D01*
X1309874Y1041650D01*
X1309896Y1041692D01*
X1309925Y1041729D01*
X1309946Y1041791D01*
X1309977Y1041850D01*
X1309985Y1041904D01*
X1309997Y1041941D01*
X1309996Y1041981D01*
X1310004Y1042035D01*
X1310004Y1045845D01*
X1309993Y1045910D01*
X1309991Y1045976D01*
X1309973Y1046019D01*
X1309965Y1046066D01*
X1309931Y1046123D01*
X1309906Y1046183D01*
X1309875Y1046218D01*
X1309850Y1046259D01*
X1309799Y1046301D01*
X1309755Y1046349D01*
X1309713Y1046371D01*
X1309676Y1046400D01*
X1309614Y1046421D01*
X1309555Y1046452D01*
X1309501Y1046460D01*
X1309464Y1046472D01*
X1309424Y1046471D01*
X1309370Y1046479D01*
X1306830Y1046479D01*
X1306765Y1046468D01*
X1306699Y1046466D01*
X1306656Y1046448D01*
X1306609Y1046440D01*
X1306552Y1046406D01*
X1306492Y1046381D01*
X1306457Y1046350D01*
X1306416Y1046325D01*
X1306375Y1046274D01*
X1306326Y1046230D01*
X1306304Y1046188D01*
X1306275Y1046151D01*
X1306254Y1046089D01*
X1306223Y1046030D01*
X1306215Y1045976D01*
X1306203Y1045939D01*
X1306203Y1045935D01*
X1306203Y1045934D01*
X1306204Y1045899D01*
X1306196Y1045845D01*
X1306196Y1042035D01*
X1306207Y1041970D01*
X1306209Y1041904D01*
X1306227Y1041861D01*
X1306235Y1041814D01*
X1306269Y1041757D01*
X1306294Y1041697D01*
X1306325Y1041662D01*
X1306350Y1041621D01*
X1306401Y1041580D01*
X1306445Y1041531D01*
X1306487Y1041509D01*
X1306524Y1041480D01*
X1306586Y1041459D01*
X1306645Y1041428D01*
X1306699Y1041420D01*
X1306736Y1041408D01*
X1306776Y1041409D01*
X1306830Y1041401D01*
X1309370Y1041401D01*
X1309435Y1041412D01*
G37*
G36*
X534735Y1041412D02*
X534735Y1041412D01*
X534801Y1041414D01*
X534844Y1041432D01*
X534891Y1041440D01*
X534948Y1041474D01*
X535008Y1041499D01*
X535043Y1041530D01*
X535084Y1041555D01*
X535126Y1041606D01*
X535174Y1041650D01*
X535196Y1041692D01*
X535225Y1041729D01*
X535246Y1041791D01*
X535277Y1041850D01*
X535285Y1041904D01*
X535297Y1041941D01*
X535296Y1041981D01*
X535304Y1042035D01*
X535304Y1045845D01*
X535293Y1045910D01*
X535291Y1045976D01*
X535273Y1046019D01*
X535265Y1046066D01*
X535231Y1046123D01*
X535206Y1046183D01*
X535175Y1046218D01*
X535150Y1046259D01*
X535099Y1046301D01*
X535055Y1046349D01*
X535013Y1046371D01*
X534976Y1046400D01*
X534914Y1046421D01*
X534855Y1046452D01*
X534801Y1046460D01*
X534764Y1046472D01*
X534724Y1046471D01*
X534670Y1046479D01*
X532130Y1046479D01*
X532065Y1046468D01*
X531999Y1046466D01*
X531956Y1046448D01*
X531909Y1046440D01*
X531852Y1046406D01*
X531792Y1046381D01*
X531757Y1046350D01*
X531716Y1046325D01*
X531675Y1046274D01*
X531626Y1046230D01*
X531604Y1046188D01*
X531575Y1046151D01*
X531554Y1046089D01*
X531523Y1046030D01*
X531515Y1045976D01*
X531503Y1045939D01*
X531503Y1045935D01*
X531503Y1045934D01*
X531504Y1045899D01*
X531496Y1045845D01*
X531496Y1042035D01*
X531507Y1041970D01*
X531509Y1041904D01*
X531527Y1041861D01*
X531535Y1041814D01*
X531569Y1041757D01*
X531594Y1041697D01*
X531625Y1041662D01*
X531650Y1041621D01*
X531701Y1041580D01*
X531745Y1041531D01*
X531787Y1041509D01*
X531824Y1041480D01*
X531886Y1041459D01*
X531945Y1041428D01*
X531999Y1041420D01*
X532036Y1041408D01*
X532076Y1041409D01*
X532130Y1041401D01*
X534670Y1041401D01*
X534735Y1041412D01*
G37*
G36*
X1360235Y1040142D02*
X1360235Y1040142D01*
X1360301Y1040144D01*
X1360344Y1040162D01*
X1360391Y1040170D01*
X1360448Y1040204D01*
X1360508Y1040229D01*
X1360543Y1040260D01*
X1360584Y1040285D01*
X1360626Y1040336D01*
X1360674Y1040380D01*
X1360696Y1040422D01*
X1360725Y1040459D01*
X1360746Y1040521D01*
X1360777Y1040580D01*
X1360785Y1040634D01*
X1360797Y1040671D01*
X1360796Y1040711D01*
X1360804Y1040765D01*
X1360804Y1044575D01*
X1360793Y1044640D01*
X1360791Y1044706D01*
X1360773Y1044749D01*
X1360765Y1044796D01*
X1360731Y1044853D01*
X1360706Y1044913D01*
X1360675Y1044948D01*
X1360650Y1044989D01*
X1360599Y1045031D01*
X1360555Y1045079D01*
X1360513Y1045101D01*
X1360476Y1045130D01*
X1360414Y1045151D01*
X1360355Y1045182D01*
X1360301Y1045190D01*
X1360264Y1045202D01*
X1360224Y1045201D01*
X1360170Y1045209D01*
X1357630Y1045209D01*
X1357565Y1045198D01*
X1357499Y1045196D01*
X1357456Y1045178D01*
X1357409Y1045170D01*
X1357352Y1045136D01*
X1357292Y1045111D01*
X1357257Y1045080D01*
X1357216Y1045055D01*
X1357175Y1045004D01*
X1357126Y1044960D01*
X1357104Y1044918D01*
X1357075Y1044881D01*
X1357054Y1044819D01*
X1357023Y1044760D01*
X1357015Y1044706D01*
X1357003Y1044669D01*
X1357003Y1044665D01*
X1357003Y1044664D01*
X1357004Y1044629D01*
X1356996Y1044575D01*
X1356996Y1040765D01*
X1357007Y1040700D01*
X1357009Y1040634D01*
X1357027Y1040591D01*
X1357035Y1040544D01*
X1357069Y1040487D01*
X1357094Y1040427D01*
X1357125Y1040392D01*
X1357150Y1040351D01*
X1357201Y1040310D01*
X1357245Y1040261D01*
X1357287Y1040239D01*
X1357324Y1040210D01*
X1357386Y1040189D01*
X1357445Y1040158D01*
X1357499Y1040150D01*
X1357536Y1040138D01*
X1357576Y1040139D01*
X1357630Y1040131D01*
X1360170Y1040131D01*
X1360235Y1040142D01*
G37*
G36*
X610935Y1040142D02*
X610935Y1040142D01*
X611001Y1040144D01*
X611044Y1040162D01*
X611091Y1040170D01*
X611148Y1040204D01*
X611208Y1040229D01*
X611243Y1040260D01*
X611284Y1040285D01*
X611326Y1040336D01*
X611374Y1040380D01*
X611396Y1040422D01*
X611425Y1040459D01*
X611446Y1040521D01*
X611477Y1040580D01*
X611485Y1040634D01*
X611497Y1040671D01*
X611496Y1040711D01*
X611504Y1040765D01*
X611504Y1044575D01*
X611493Y1044640D01*
X611491Y1044706D01*
X611473Y1044749D01*
X611465Y1044796D01*
X611431Y1044853D01*
X611406Y1044913D01*
X611375Y1044948D01*
X611350Y1044989D01*
X611299Y1045031D01*
X611255Y1045079D01*
X611213Y1045101D01*
X611176Y1045130D01*
X611114Y1045151D01*
X611055Y1045182D01*
X611001Y1045190D01*
X610964Y1045202D01*
X610924Y1045201D01*
X610870Y1045209D01*
X608330Y1045209D01*
X608265Y1045198D01*
X608199Y1045196D01*
X608156Y1045178D01*
X608109Y1045170D01*
X608052Y1045136D01*
X607992Y1045111D01*
X607957Y1045080D01*
X607916Y1045055D01*
X607875Y1045004D01*
X607826Y1044960D01*
X607804Y1044918D01*
X607775Y1044881D01*
X607754Y1044819D01*
X607723Y1044760D01*
X607715Y1044706D01*
X607703Y1044669D01*
X607703Y1044665D01*
X607703Y1044664D01*
X607704Y1044629D01*
X607696Y1044575D01*
X607696Y1040765D01*
X607707Y1040700D01*
X607709Y1040634D01*
X607727Y1040591D01*
X607735Y1040544D01*
X607769Y1040487D01*
X607794Y1040427D01*
X607825Y1040392D01*
X607850Y1040351D01*
X607901Y1040310D01*
X607945Y1040261D01*
X607987Y1040239D01*
X608024Y1040210D01*
X608086Y1040189D01*
X608145Y1040158D01*
X608199Y1040150D01*
X608236Y1040138D01*
X608276Y1040139D01*
X608330Y1040131D01*
X610870Y1040131D01*
X610935Y1040142D01*
G37*
G36*
X1360235Y450862D02*
X1360235Y450862D01*
X1360301Y450864D01*
X1360344Y450882D01*
X1360391Y450890D01*
X1360448Y450924D01*
X1360508Y450949D01*
X1360543Y450980D01*
X1360584Y451005D01*
X1360626Y451056D01*
X1360674Y451100D01*
X1360696Y451142D01*
X1360725Y451179D01*
X1360746Y451241D01*
X1360777Y451300D01*
X1360785Y451354D01*
X1360797Y451391D01*
X1360796Y451431D01*
X1360804Y451485D01*
X1360804Y455295D01*
X1360793Y455360D01*
X1360791Y455426D01*
X1360773Y455469D01*
X1360765Y455516D01*
X1360731Y455573D01*
X1360706Y455633D01*
X1360675Y455668D01*
X1360650Y455709D01*
X1360599Y455751D01*
X1360555Y455799D01*
X1360513Y455821D01*
X1360476Y455850D01*
X1360414Y455871D01*
X1360355Y455902D01*
X1360301Y455910D01*
X1360264Y455922D01*
X1360224Y455921D01*
X1360170Y455929D01*
X1357630Y455929D01*
X1357565Y455918D01*
X1357499Y455916D01*
X1357456Y455898D01*
X1357409Y455890D01*
X1357352Y455856D01*
X1357292Y455831D01*
X1357257Y455800D01*
X1357216Y455775D01*
X1357175Y455724D01*
X1357126Y455680D01*
X1357104Y455638D01*
X1357075Y455601D01*
X1357054Y455539D01*
X1357023Y455480D01*
X1357015Y455426D01*
X1357003Y455389D01*
X1357003Y455385D01*
X1357003Y455384D01*
X1357004Y455349D01*
X1356996Y455295D01*
X1356996Y451485D01*
X1357007Y451420D01*
X1357009Y451354D01*
X1357027Y451311D01*
X1357035Y451264D01*
X1357069Y451207D01*
X1357094Y451147D01*
X1357125Y451112D01*
X1357150Y451071D01*
X1357201Y451030D01*
X1357245Y450981D01*
X1357287Y450959D01*
X1357324Y450930D01*
X1357386Y450909D01*
X1357445Y450878D01*
X1357499Y450870D01*
X1357536Y450858D01*
X1357576Y450859D01*
X1357630Y450851D01*
X1360170Y450851D01*
X1360235Y450862D01*
G37*
G36*
X610935Y450862D02*
X610935Y450862D01*
X611001Y450864D01*
X611044Y450882D01*
X611091Y450890D01*
X611148Y450924D01*
X611208Y450949D01*
X611243Y450980D01*
X611284Y451005D01*
X611326Y451056D01*
X611374Y451100D01*
X611396Y451142D01*
X611425Y451179D01*
X611446Y451241D01*
X611477Y451300D01*
X611485Y451354D01*
X611497Y451391D01*
X611496Y451431D01*
X611504Y451485D01*
X611504Y455295D01*
X611493Y455360D01*
X611491Y455426D01*
X611473Y455469D01*
X611465Y455516D01*
X611431Y455573D01*
X611406Y455633D01*
X611375Y455668D01*
X611350Y455709D01*
X611299Y455751D01*
X611255Y455799D01*
X611213Y455821D01*
X611176Y455850D01*
X611114Y455871D01*
X611055Y455902D01*
X611001Y455910D01*
X610964Y455922D01*
X610924Y455921D01*
X610870Y455929D01*
X608330Y455929D01*
X608265Y455918D01*
X608199Y455916D01*
X608156Y455898D01*
X608109Y455890D01*
X608052Y455856D01*
X607992Y455831D01*
X607957Y455800D01*
X607916Y455775D01*
X607875Y455724D01*
X607826Y455680D01*
X607804Y455638D01*
X607775Y455601D01*
X607754Y455539D01*
X607723Y455480D01*
X607715Y455426D01*
X607703Y455389D01*
X607703Y455385D01*
X607703Y455384D01*
X607704Y455349D01*
X607696Y455295D01*
X607696Y451485D01*
X607707Y451420D01*
X607709Y451354D01*
X607727Y451311D01*
X607735Y451264D01*
X607769Y451207D01*
X607794Y451147D01*
X607825Y451112D01*
X607850Y451071D01*
X607901Y451030D01*
X607945Y450981D01*
X607987Y450959D01*
X608024Y450930D01*
X608086Y450909D01*
X608145Y450878D01*
X608199Y450870D01*
X608236Y450858D01*
X608276Y450859D01*
X608330Y450851D01*
X610870Y450851D01*
X610935Y450862D01*
G37*
G36*
X610935Y1029982D02*
X610935Y1029982D01*
X611001Y1029984D01*
X611044Y1030002D01*
X611091Y1030010D01*
X611148Y1030044D01*
X611208Y1030069D01*
X611243Y1030100D01*
X611284Y1030125D01*
X611326Y1030176D01*
X611374Y1030220D01*
X611396Y1030262D01*
X611425Y1030299D01*
X611446Y1030361D01*
X611477Y1030420D01*
X611485Y1030474D01*
X611497Y1030511D01*
X611496Y1030551D01*
X611504Y1030605D01*
X611504Y1034415D01*
X611493Y1034480D01*
X611491Y1034546D01*
X611473Y1034589D01*
X611465Y1034636D01*
X611431Y1034693D01*
X611406Y1034753D01*
X611375Y1034788D01*
X611350Y1034829D01*
X611299Y1034871D01*
X611255Y1034919D01*
X611213Y1034941D01*
X611176Y1034970D01*
X611114Y1034991D01*
X611055Y1035022D01*
X611001Y1035030D01*
X610964Y1035042D01*
X610924Y1035041D01*
X610870Y1035049D01*
X608330Y1035049D01*
X608265Y1035038D01*
X608199Y1035036D01*
X608156Y1035018D01*
X608109Y1035010D01*
X608052Y1034976D01*
X607992Y1034951D01*
X607957Y1034920D01*
X607916Y1034895D01*
X607875Y1034844D01*
X607826Y1034800D01*
X607804Y1034758D01*
X607775Y1034721D01*
X607754Y1034659D01*
X607723Y1034600D01*
X607715Y1034546D01*
X607703Y1034509D01*
X607703Y1034505D01*
X607703Y1034504D01*
X607704Y1034469D01*
X607696Y1034415D01*
X607696Y1030605D01*
X607707Y1030540D01*
X607709Y1030474D01*
X607727Y1030431D01*
X607735Y1030384D01*
X607769Y1030327D01*
X607794Y1030267D01*
X607825Y1030232D01*
X607850Y1030191D01*
X607901Y1030150D01*
X607945Y1030101D01*
X607987Y1030079D01*
X608024Y1030050D01*
X608086Y1030029D01*
X608145Y1029998D01*
X608199Y1029990D01*
X608236Y1029978D01*
X608276Y1029979D01*
X608330Y1029971D01*
X610870Y1029971D01*
X610935Y1029982D01*
G37*
G36*
X1360235Y1029982D02*
X1360235Y1029982D01*
X1360301Y1029984D01*
X1360344Y1030002D01*
X1360391Y1030010D01*
X1360448Y1030044D01*
X1360508Y1030069D01*
X1360543Y1030100D01*
X1360584Y1030125D01*
X1360626Y1030176D01*
X1360674Y1030220D01*
X1360696Y1030262D01*
X1360725Y1030299D01*
X1360746Y1030361D01*
X1360777Y1030420D01*
X1360785Y1030474D01*
X1360797Y1030511D01*
X1360796Y1030551D01*
X1360804Y1030605D01*
X1360804Y1034415D01*
X1360793Y1034480D01*
X1360791Y1034546D01*
X1360773Y1034589D01*
X1360765Y1034636D01*
X1360731Y1034693D01*
X1360706Y1034753D01*
X1360675Y1034788D01*
X1360650Y1034829D01*
X1360599Y1034871D01*
X1360555Y1034919D01*
X1360513Y1034941D01*
X1360476Y1034970D01*
X1360414Y1034991D01*
X1360355Y1035022D01*
X1360301Y1035030D01*
X1360264Y1035042D01*
X1360224Y1035041D01*
X1360170Y1035049D01*
X1357630Y1035049D01*
X1357565Y1035038D01*
X1357499Y1035036D01*
X1357456Y1035018D01*
X1357409Y1035010D01*
X1357352Y1034976D01*
X1357292Y1034951D01*
X1357257Y1034920D01*
X1357216Y1034895D01*
X1357175Y1034844D01*
X1357126Y1034800D01*
X1357104Y1034758D01*
X1357075Y1034721D01*
X1357054Y1034659D01*
X1357023Y1034600D01*
X1357015Y1034546D01*
X1357003Y1034509D01*
X1357003Y1034505D01*
X1357003Y1034504D01*
X1357004Y1034469D01*
X1356996Y1034415D01*
X1356996Y1030605D01*
X1357007Y1030540D01*
X1357009Y1030474D01*
X1357027Y1030431D01*
X1357035Y1030384D01*
X1357069Y1030327D01*
X1357094Y1030267D01*
X1357125Y1030232D01*
X1357150Y1030191D01*
X1357201Y1030150D01*
X1357245Y1030101D01*
X1357287Y1030079D01*
X1357324Y1030050D01*
X1357386Y1030029D01*
X1357445Y1029998D01*
X1357499Y1029990D01*
X1357536Y1029978D01*
X1357576Y1029979D01*
X1357630Y1029971D01*
X1360170Y1029971D01*
X1360235Y1029982D01*
G37*
G36*
X1360235Y440702D02*
X1360235Y440702D01*
X1360301Y440704D01*
X1360344Y440722D01*
X1360391Y440730D01*
X1360448Y440764D01*
X1360508Y440789D01*
X1360543Y440820D01*
X1360584Y440845D01*
X1360626Y440896D01*
X1360674Y440940D01*
X1360696Y440982D01*
X1360725Y441019D01*
X1360746Y441081D01*
X1360777Y441140D01*
X1360785Y441194D01*
X1360797Y441231D01*
X1360796Y441271D01*
X1360804Y441325D01*
X1360804Y445135D01*
X1360793Y445200D01*
X1360791Y445266D01*
X1360773Y445309D01*
X1360765Y445356D01*
X1360731Y445413D01*
X1360706Y445473D01*
X1360675Y445508D01*
X1360650Y445549D01*
X1360599Y445591D01*
X1360555Y445639D01*
X1360513Y445661D01*
X1360476Y445690D01*
X1360414Y445711D01*
X1360355Y445742D01*
X1360301Y445750D01*
X1360264Y445762D01*
X1360224Y445761D01*
X1360170Y445769D01*
X1357630Y445769D01*
X1357565Y445758D01*
X1357499Y445756D01*
X1357456Y445738D01*
X1357409Y445730D01*
X1357352Y445696D01*
X1357292Y445671D01*
X1357257Y445640D01*
X1357216Y445615D01*
X1357175Y445564D01*
X1357126Y445520D01*
X1357104Y445478D01*
X1357075Y445441D01*
X1357054Y445379D01*
X1357023Y445320D01*
X1357015Y445266D01*
X1357003Y445229D01*
X1357003Y445225D01*
X1357003Y445224D01*
X1357004Y445189D01*
X1356996Y445135D01*
X1356996Y441325D01*
X1357007Y441260D01*
X1357009Y441194D01*
X1357027Y441151D01*
X1357035Y441104D01*
X1357069Y441047D01*
X1357094Y440987D01*
X1357125Y440952D01*
X1357150Y440911D01*
X1357201Y440870D01*
X1357245Y440821D01*
X1357287Y440799D01*
X1357324Y440770D01*
X1357386Y440749D01*
X1357445Y440718D01*
X1357499Y440710D01*
X1357536Y440698D01*
X1357576Y440699D01*
X1357630Y440691D01*
X1360170Y440691D01*
X1360235Y440702D01*
G37*
G36*
X610935Y440702D02*
X610935Y440702D01*
X611001Y440704D01*
X611044Y440722D01*
X611091Y440730D01*
X611148Y440764D01*
X611208Y440789D01*
X611243Y440820D01*
X611284Y440845D01*
X611326Y440896D01*
X611374Y440940D01*
X611396Y440982D01*
X611425Y441019D01*
X611446Y441081D01*
X611477Y441140D01*
X611485Y441194D01*
X611497Y441231D01*
X611496Y441271D01*
X611504Y441325D01*
X611504Y445135D01*
X611493Y445200D01*
X611491Y445266D01*
X611473Y445309D01*
X611465Y445356D01*
X611431Y445413D01*
X611406Y445473D01*
X611375Y445508D01*
X611350Y445549D01*
X611299Y445591D01*
X611255Y445639D01*
X611213Y445661D01*
X611176Y445690D01*
X611114Y445711D01*
X611055Y445742D01*
X611001Y445750D01*
X610964Y445762D01*
X610924Y445761D01*
X610870Y445769D01*
X608330Y445769D01*
X608265Y445758D01*
X608199Y445756D01*
X608156Y445738D01*
X608109Y445730D01*
X608052Y445696D01*
X607992Y445671D01*
X607957Y445640D01*
X607916Y445615D01*
X607875Y445564D01*
X607826Y445520D01*
X607804Y445478D01*
X607775Y445441D01*
X607754Y445379D01*
X607723Y445320D01*
X607715Y445266D01*
X607703Y445229D01*
X607703Y445225D01*
X607703Y445224D01*
X607704Y445189D01*
X607696Y445135D01*
X607696Y441325D01*
X607707Y441260D01*
X607709Y441194D01*
X607727Y441151D01*
X607735Y441104D01*
X607769Y441047D01*
X607794Y440987D01*
X607825Y440952D01*
X607850Y440911D01*
X607901Y440870D01*
X607945Y440821D01*
X607987Y440799D01*
X608024Y440770D01*
X608086Y440749D01*
X608145Y440718D01*
X608199Y440710D01*
X608236Y440698D01*
X608276Y440699D01*
X608330Y440691D01*
X610870Y440691D01*
X610935Y440702D01*
G37*
G36*
X763335Y480072D02*
X763335Y480072D01*
X763401Y480074D01*
X763444Y480092D01*
X763491Y480100D01*
X763548Y480134D01*
X763608Y480159D01*
X763643Y480190D01*
X763684Y480215D01*
X763726Y480266D01*
X763774Y480310D01*
X763796Y480352D01*
X763825Y480389D01*
X763846Y480451D01*
X763877Y480510D01*
X763885Y480564D01*
X763897Y480601D01*
X763896Y480641D01*
X763904Y480695D01*
X763904Y484505D01*
X763893Y484570D01*
X763891Y484636D01*
X763873Y484679D01*
X763865Y484726D01*
X763831Y484783D01*
X763806Y484843D01*
X763775Y484878D01*
X763750Y484919D01*
X763699Y484961D01*
X763655Y485009D01*
X763613Y485031D01*
X763576Y485060D01*
X763514Y485081D01*
X763455Y485112D01*
X763401Y485120D01*
X763364Y485132D01*
X763324Y485131D01*
X763270Y485139D01*
X760730Y485139D01*
X760665Y485128D01*
X760599Y485126D01*
X760556Y485108D01*
X760509Y485100D01*
X760452Y485066D01*
X760392Y485041D01*
X760357Y485010D01*
X760316Y484985D01*
X760275Y484934D01*
X760226Y484890D01*
X760204Y484848D01*
X760175Y484811D01*
X760154Y484749D01*
X760123Y484690D01*
X760115Y484636D01*
X760103Y484599D01*
X760103Y484595D01*
X760103Y484594D01*
X760104Y484559D01*
X760096Y484505D01*
X760096Y480695D01*
X760107Y480630D01*
X760109Y480564D01*
X760127Y480521D01*
X760135Y480474D01*
X760169Y480417D01*
X760194Y480357D01*
X760225Y480322D01*
X760250Y480281D01*
X760301Y480240D01*
X760345Y480191D01*
X760387Y480169D01*
X760424Y480140D01*
X760486Y480119D01*
X760545Y480088D01*
X760599Y480080D01*
X760636Y480068D01*
X760676Y480069D01*
X760730Y480061D01*
X763270Y480061D01*
X763335Y480072D01*
G37*
G36*
X14035Y480072D02*
X14035Y480072D01*
X14101Y480074D01*
X14144Y480092D01*
X14191Y480100D01*
X14248Y480134D01*
X14308Y480159D01*
X14343Y480190D01*
X14384Y480215D01*
X14426Y480266D01*
X14474Y480310D01*
X14496Y480352D01*
X14525Y480389D01*
X14546Y480451D01*
X14577Y480510D01*
X14585Y480564D01*
X14597Y480601D01*
X14596Y480641D01*
X14604Y480695D01*
X14604Y484505D01*
X14593Y484570D01*
X14591Y484636D01*
X14573Y484679D01*
X14565Y484726D01*
X14531Y484783D01*
X14506Y484843D01*
X14475Y484878D01*
X14450Y484919D01*
X14399Y484961D01*
X14355Y485009D01*
X14313Y485031D01*
X14276Y485060D01*
X14214Y485081D01*
X14155Y485112D01*
X14101Y485120D01*
X14064Y485132D01*
X14024Y485131D01*
X13970Y485139D01*
X11430Y485139D01*
X11365Y485128D01*
X11299Y485126D01*
X11256Y485108D01*
X11209Y485100D01*
X11152Y485066D01*
X11092Y485041D01*
X11057Y485010D01*
X11016Y484985D01*
X10975Y484934D01*
X10926Y484890D01*
X10904Y484848D01*
X10875Y484811D01*
X10854Y484749D01*
X10823Y484690D01*
X10815Y484636D01*
X10803Y484599D01*
X10803Y484595D01*
X10803Y484594D01*
X10804Y484559D01*
X10796Y484505D01*
X10796Y480695D01*
X10807Y480630D01*
X10809Y480564D01*
X10827Y480521D01*
X10835Y480474D01*
X10869Y480417D01*
X10894Y480357D01*
X10925Y480322D01*
X10950Y480281D01*
X11001Y480240D01*
X11045Y480191D01*
X11087Y480169D01*
X11124Y480140D01*
X11186Y480119D01*
X11245Y480088D01*
X11299Y480080D01*
X11336Y480068D01*
X11376Y480069D01*
X11430Y480061D01*
X13970Y480061D01*
X14035Y480072D01*
G37*
G36*
X230570Y347357D02*
X230570Y347357D01*
X230636Y347359D01*
X230679Y347377D01*
X230726Y347385D01*
X230783Y347419D01*
X230843Y347444D01*
X230878Y347475D01*
X230919Y347500D01*
X230961Y347551D01*
X231009Y347595D01*
X231031Y347637D01*
X231060Y347674D01*
X231081Y347736D01*
X231112Y347795D01*
X231120Y347849D01*
X231132Y347886D01*
X231131Y347926D01*
X231139Y347980D01*
X231139Y350520D01*
X231128Y350585D01*
X231126Y350651D01*
X231108Y350694D01*
X231100Y350741D01*
X231066Y350798D01*
X231041Y350858D01*
X231010Y350893D01*
X230985Y350934D01*
X230934Y350976D01*
X230890Y351024D01*
X230848Y351046D01*
X230811Y351075D01*
X230749Y351096D01*
X230690Y351127D01*
X230636Y351135D01*
X230599Y351147D01*
X230559Y351146D01*
X230505Y351154D01*
X226695Y351154D01*
X226630Y351143D01*
X226564Y351141D01*
X226521Y351123D01*
X226474Y351115D01*
X226417Y351081D01*
X226357Y351056D01*
X226322Y351025D01*
X226281Y351000D01*
X226240Y350949D01*
X226191Y350905D01*
X226169Y350863D01*
X226140Y350826D01*
X226119Y350764D01*
X226088Y350705D01*
X226080Y350651D01*
X226068Y350614D01*
X226068Y350611D01*
X226069Y350574D01*
X226061Y350520D01*
X226061Y347980D01*
X226072Y347915D01*
X226074Y347849D01*
X226092Y347806D01*
X226100Y347759D01*
X226134Y347702D01*
X226159Y347642D01*
X226190Y347607D01*
X226215Y347566D01*
X226266Y347525D01*
X226310Y347476D01*
X226352Y347454D01*
X226389Y347425D01*
X226451Y347404D01*
X226510Y347373D01*
X226564Y347365D01*
X226601Y347353D01*
X226641Y347354D01*
X226695Y347346D01*
X230505Y347346D01*
X230570Y347357D01*
G37*
G36*
X979870Y372757D02*
X979870Y372757D01*
X979936Y372759D01*
X979979Y372777D01*
X980026Y372785D01*
X980083Y372819D01*
X980143Y372844D01*
X980178Y372875D01*
X980219Y372900D01*
X980261Y372951D01*
X980309Y372995D01*
X980331Y373037D01*
X980360Y373074D01*
X980381Y373136D01*
X980412Y373195D01*
X980420Y373249D01*
X980432Y373286D01*
X980431Y373326D01*
X980439Y373380D01*
X980439Y375920D01*
X980428Y375985D01*
X980426Y376051D01*
X980408Y376094D01*
X980400Y376141D01*
X980366Y376198D01*
X980341Y376258D01*
X980310Y376293D01*
X980285Y376334D01*
X980234Y376376D01*
X980190Y376424D01*
X980148Y376446D01*
X980111Y376475D01*
X980049Y376496D01*
X979990Y376527D01*
X979936Y376535D01*
X979899Y376547D01*
X979859Y376546D01*
X979805Y376554D01*
X975995Y376554D01*
X975930Y376543D01*
X975864Y376541D01*
X975821Y376523D01*
X975774Y376515D01*
X975717Y376481D01*
X975657Y376456D01*
X975622Y376425D01*
X975581Y376400D01*
X975540Y376349D01*
X975491Y376305D01*
X975469Y376263D01*
X975440Y376226D01*
X975419Y376164D01*
X975388Y376105D01*
X975380Y376051D01*
X975368Y376014D01*
X975368Y376011D01*
X975369Y375974D01*
X975361Y375920D01*
X975361Y373380D01*
X975372Y373315D01*
X975374Y373249D01*
X975392Y373206D01*
X975400Y373159D01*
X975434Y373102D01*
X975459Y373042D01*
X975490Y373007D01*
X975515Y372966D01*
X975566Y372925D01*
X975610Y372876D01*
X975652Y372854D01*
X975689Y372825D01*
X975751Y372804D01*
X975810Y372773D01*
X975864Y372765D01*
X975901Y372753D01*
X975941Y372754D01*
X975995Y372746D01*
X979805Y372746D01*
X979870Y372757D01*
G37*
G36*
X230570Y372757D02*
X230570Y372757D01*
X230636Y372759D01*
X230679Y372777D01*
X230726Y372785D01*
X230783Y372819D01*
X230843Y372844D01*
X230878Y372875D01*
X230919Y372900D01*
X230961Y372951D01*
X231009Y372995D01*
X231031Y373037D01*
X231060Y373074D01*
X231081Y373136D01*
X231112Y373195D01*
X231120Y373249D01*
X231132Y373286D01*
X231131Y373326D01*
X231139Y373380D01*
X231139Y375920D01*
X231128Y375985D01*
X231126Y376051D01*
X231108Y376094D01*
X231100Y376141D01*
X231066Y376198D01*
X231041Y376258D01*
X231010Y376293D01*
X230985Y376334D01*
X230934Y376376D01*
X230890Y376424D01*
X230848Y376446D01*
X230811Y376475D01*
X230749Y376496D01*
X230690Y376527D01*
X230636Y376535D01*
X230599Y376547D01*
X230559Y376546D01*
X230505Y376554D01*
X226695Y376554D01*
X226630Y376543D01*
X226564Y376541D01*
X226521Y376523D01*
X226474Y376515D01*
X226417Y376481D01*
X226357Y376456D01*
X226322Y376425D01*
X226281Y376400D01*
X226240Y376349D01*
X226191Y376305D01*
X226169Y376263D01*
X226140Y376226D01*
X226119Y376164D01*
X226088Y376105D01*
X226080Y376051D01*
X226068Y376014D01*
X226068Y376011D01*
X226069Y375974D01*
X226061Y375920D01*
X226061Y373380D01*
X226072Y373315D01*
X226074Y373249D01*
X226092Y373206D01*
X226100Y373159D01*
X226134Y373102D01*
X226159Y373042D01*
X226190Y373007D01*
X226215Y372966D01*
X226266Y372925D01*
X226310Y372876D01*
X226352Y372854D01*
X226389Y372825D01*
X226451Y372804D01*
X226510Y372773D01*
X226564Y372765D01*
X226601Y372753D01*
X226641Y372754D01*
X226695Y372746D01*
X230505Y372746D01*
X230570Y372757D01*
G37*
G36*
X979870Y347357D02*
X979870Y347357D01*
X979936Y347359D01*
X979979Y347377D01*
X980026Y347385D01*
X980083Y347419D01*
X980143Y347444D01*
X980178Y347475D01*
X980219Y347500D01*
X980261Y347551D01*
X980309Y347595D01*
X980331Y347637D01*
X980360Y347674D01*
X980381Y347736D01*
X980412Y347795D01*
X980420Y347849D01*
X980432Y347886D01*
X980431Y347926D01*
X980439Y347980D01*
X980439Y350520D01*
X980428Y350585D01*
X980426Y350651D01*
X980408Y350694D01*
X980400Y350741D01*
X980366Y350798D01*
X980341Y350858D01*
X980310Y350893D01*
X980285Y350934D01*
X980234Y350976D01*
X980190Y351024D01*
X980148Y351046D01*
X980111Y351075D01*
X980049Y351096D01*
X979990Y351127D01*
X979936Y351135D01*
X979899Y351147D01*
X979859Y351146D01*
X979805Y351154D01*
X975995Y351154D01*
X975930Y351143D01*
X975864Y351141D01*
X975821Y351123D01*
X975774Y351115D01*
X975717Y351081D01*
X975657Y351056D01*
X975622Y351025D01*
X975581Y351000D01*
X975540Y350949D01*
X975491Y350905D01*
X975469Y350863D01*
X975440Y350826D01*
X975419Y350764D01*
X975388Y350705D01*
X975380Y350651D01*
X975368Y350614D01*
X975368Y350611D01*
X975369Y350574D01*
X975361Y350520D01*
X975361Y347980D01*
X975372Y347915D01*
X975374Y347849D01*
X975392Y347806D01*
X975400Y347759D01*
X975434Y347702D01*
X975459Y347642D01*
X975490Y347607D01*
X975515Y347566D01*
X975566Y347525D01*
X975610Y347476D01*
X975652Y347454D01*
X975689Y347425D01*
X975751Y347404D01*
X975810Y347373D01*
X975864Y347365D01*
X975901Y347353D01*
X975941Y347354D01*
X975995Y347346D01*
X979805Y347346D01*
X979870Y347357D01*
G37*
G36*
X230570Y1038237D02*
X230570Y1038237D01*
X230636Y1038239D01*
X230679Y1038257D01*
X230726Y1038265D01*
X230783Y1038299D01*
X230843Y1038324D01*
X230878Y1038355D01*
X230919Y1038380D01*
X230961Y1038431D01*
X231009Y1038475D01*
X231031Y1038517D01*
X231060Y1038554D01*
X231081Y1038616D01*
X231112Y1038675D01*
X231120Y1038729D01*
X231132Y1038766D01*
X231131Y1038806D01*
X231139Y1038860D01*
X231139Y1041400D01*
X231128Y1041465D01*
X231126Y1041531D01*
X231108Y1041574D01*
X231100Y1041621D01*
X231066Y1041678D01*
X231041Y1041738D01*
X231010Y1041773D01*
X230985Y1041814D01*
X230934Y1041856D01*
X230890Y1041904D01*
X230848Y1041926D01*
X230811Y1041955D01*
X230749Y1041976D01*
X230690Y1042007D01*
X230636Y1042015D01*
X230599Y1042027D01*
X230559Y1042026D01*
X230505Y1042034D01*
X226695Y1042034D01*
X226630Y1042023D01*
X226564Y1042021D01*
X226521Y1042003D01*
X226474Y1041995D01*
X226417Y1041961D01*
X226357Y1041936D01*
X226322Y1041905D01*
X226281Y1041880D01*
X226240Y1041829D01*
X226191Y1041785D01*
X226169Y1041743D01*
X226140Y1041706D01*
X226119Y1041644D01*
X226088Y1041585D01*
X226080Y1041531D01*
X226068Y1041494D01*
X226068Y1041491D01*
X226069Y1041454D01*
X226061Y1041400D01*
X226061Y1038860D01*
X226072Y1038795D01*
X226074Y1038729D01*
X226092Y1038686D01*
X226100Y1038639D01*
X226134Y1038582D01*
X226159Y1038522D01*
X226190Y1038487D01*
X226215Y1038446D01*
X226266Y1038405D01*
X226310Y1038356D01*
X226352Y1038334D01*
X226389Y1038305D01*
X226451Y1038284D01*
X226510Y1038253D01*
X226564Y1038245D01*
X226601Y1038233D01*
X226641Y1038234D01*
X226695Y1038226D01*
X230505Y1038226D01*
X230570Y1038237D01*
G37*
G36*
X979870Y1038237D02*
X979870Y1038237D01*
X979936Y1038239D01*
X979979Y1038257D01*
X980026Y1038265D01*
X980083Y1038299D01*
X980143Y1038324D01*
X980178Y1038355D01*
X980219Y1038380D01*
X980261Y1038431D01*
X980309Y1038475D01*
X980331Y1038517D01*
X980360Y1038554D01*
X980381Y1038616D01*
X980412Y1038675D01*
X980420Y1038729D01*
X980432Y1038766D01*
X980431Y1038806D01*
X980439Y1038860D01*
X980439Y1041400D01*
X980428Y1041465D01*
X980426Y1041531D01*
X980408Y1041574D01*
X980400Y1041621D01*
X980366Y1041678D01*
X980341Y1041738D01*
X980310Y1041773D01*
X980285Y1041814D01*
X980234Y1041856D01*
X980190Y1041904D01*
X980148Y1041926D01*
X980111Y1041955D01*
X980049Y1041976D01*
X979990Y1042007D01*
X979936Y1042015D01*
X979899Y1042027D01*
X979859Y1042026D01*
X979805Y1042034D01*
X975995Y1042034D01*
X975930Y1042023D01*
X975864Y1042021D01*
X975821Y1042003D01*
X975774Y1041995D01*
X975717Y1041961D01*
X975657Y1041936D01*
X975622Y1041905D01*
X975581Y1041880D01*
X975540Y1041829D01*
X975491Y1041785D01*
X975469Y1041743D01*
X975440Y1041706D01*
X975419Y1041644D01*
X975388Y1041585D01*
X975380Y1041531D01*
X975368Y1041494D01*
X975368Y1041491D01*
X975369Y1041454D01*
X975361Y1041400D01*
X975361Y1038860D01*
X975372Y1038795D01*
X975374Y1038729D01*
X975392Y1038686D01*
X975400Y1038639D01*
X975434Y1038582D01*
X975459Y1038522D01*
X975490Y1038487D01*
X975515Y1038446D01*
X975566Y1038405D01*
X975610Y1038356D01*
X975652Y1038334D01*
X975689Y1038305D01*
X975751Y1038284D01*
X975810Y1038253D01*
X975864Y1038245D01*
X975901Y1038233D01*
X975941Y1038234D01*
X975995Y1038226D01*
X979805Y1038226D01*
X979870Y1038237D01*
G37*
G36*
X230570Y1012837D02*
X230570Y1012837D01*
X230636Y1012839D01*
X230679Y1012857D01*
X230726Y1012865D01*
X230783Y1012899D01*
X230843Y1012924D01*
X230878Y1012955D01*
X230919Y1012980D01*
X230961Y1013031D01*
X231009Y1013075D01*
X231031Y1013117D01*
X231060Y1013154D01*
X231081Y1013216D01*
X231112Y1013275D01*
X231120Y1013329D01*
X231132Y1013366D01*
X231131Y1013406D01*
X231139Y1013460D01*
X231139Y1016000D01*
X231128Y1016065D01*
X231126Y1016131D01*
X231108Y1016174D01*
X231100Y1016221D01*
X231066Y1016278D01*
X231041Y1016338D01*
X231010Y1016373D01*
X230985Y1016414D01*
X230934Y1016456D01*
X230890Y1016504D01*
X230848Y1016526D01*
X230811Y1016555D01*
X230749Y1016576D01*
X230690Y1016607D01*
X230636Y1016615D01*
X230599Y1016627D01*
X230559Y1016626D01*
X230505Y1016634D01*
X226695Y1016634D01*
X226630Y1016623D01*
X226564Y1016621D01*
X226521Y1016603D01*
X226474Y1016595D01*
X226417Y1016561D01*
X226357Y1016536D01*
X226322Y1016505D01*
X226281Y1016480D01*
X226240Y1016429D01*
X226191Y1016385D01*
X226169Y1016343D01*
X226140Y1016306D01*
X226119Y1016244D01*
X226088Y1016185D01*
X226080Y1016131D01*
X226068Y1016094D01*
X226068Y1016091D01*
X226069Y1016054D01*
X226061Y1016000D01*
X226061Y1013460D01*
X226072Y1013395D01*
X226074Y1013329D01*
X226092Y1013286D01*
X226100Y1013239D01*
X226134Y1013182D01*
X226159Y1013122D01*
X226190Y1013087D01*
X226215Y1013046D01*
X226266Y1013005D01*
X226310Y1012956D01*
X226352Y1012934D01*
X226389Y1012905D01*
X226451Y1012884D01*
X226510Y1012853D01*
X226564Y1012845D01*
X226601Y1012833D01*
X226641Y1012834D01*
X226695Y1012826D01*
X230505Y1012826D01*
X230570Y1012837D01*
G37*
G36*
X979870Y1012837D02*
X979870Y1012837D01*
X979936Y1012839D01*
X979979Y1012857D01*
X980026Y1012865D01*
X980083Y1012899D01*
X980143Y1012924D01*
X980178Y1012955D01*
X980219Y1012980D01*
X980261Y1013031D01*
X980309Y1013075D01*
X980331Y1013117D01*
X980360Y1013154D01*
X980381Y1013216D01*
X980412Y1013275D01*
X980420Y1013329D01*
X980432Y1013366D01*
X980431Y1013406D01*
X980439Y1013460D01*
X980439Y1016000D01*
X980428Y1016065D01*
X980426Y1016131D01*
X980408Y1016174D01*
X980400Y1016221D01*
X980366Y1016278D01*
X980341Y1016338D01*
X980310Y1016373D01*
X980285Y1016414D01*
X980234Y1016456D01*
X980190Y1016504D01*
X980148Y1016526D01*
X980111Y1016555D01*
X980049Y1016576D01*
X979990Y1016607D01*
X979936Y1016615D01*
X979899Y1016627D01*
X979859Y1016626D01*
X979805Y1016634D01*
X975995Y1016634D01*
X975930Y1016623D01*
X975864Y1016621D01*
X975821Y1016603D01*
X975774Y1016595D01*
X975717Y1016561D01*
X975657Y1016536D01*
X975622Y1016505D01*
X975581Y1016480D01*
X975540Y1016429D01*
X975491Y1016385D01*
X975469Y1016343D01*
X975440Y1016306D01*
X975419Y1016244D01*
X975388Y1016185D01*
X975380Y1016131D01*
X975368Y1016094D01*
X975368Y1016091D01*
X975369Y1016054D01*
X975361Y1016000D01*
X975361Y1013460D01*
X975372Y1013395D01*
X975374Y1013329D01*
X975392Y1013286D01*
X975400Y1013239D01*
X975434Y1013182D01*
X975459Y1013122D01*
X975490Y1013087D01*
X975515Y1013046D01*
X975566Y1013005D01*
X975610Y1012956D01*
X975652Y1012934D01*
X975689Y1012905D01*
X975751Y1012884D01*
X975810Y1012853D01*
X975864Y1012845D01*
X975901Y1012833D01*
X975941Y1012834D01*
X975995Y1012826D01*
X979805Y1012826D01*
X979870Y1012837D01*
G37*
G36*
X979870Y936637D02*
X979870Y936637D01*
X979936Y936639D01*
X979979Y936657D01*
X980026Y936665D01*
X980083Y936699D01*
X980143Y936724D01*
X980178Y936755D01*
X980219Y936780D01*
X980261Y936831D01*
X980309Y936875D01*
X980331Y936917D01*
X980360Y936954D01*
X980381Y937016D01*
X980412Y937075D01*
X980420Y937129D01*
X980432Y937166D01*
X980431Y937206D01*
X980439Y937260D01*
X980439Y939800D01*
X980428Y939865D01*
X980426Y939931D01*
X980408Y939974D01*
X980400Y940021D01*
X980366Y940078D01*
X980341Y940138D01*
X980310Y940173D01*
X980285Y940214D01*
X980234Y940256D01*
X980190Y940304D01*
X980148Y940326D01*
X980111Y940355D01*
X980049Y940376D01*
X979990Y940407D01*
X979936Y940415D01*
X979899Y940427D01*
X979859Y940426D01*
X979805Y940434D01*
X975995Y940434D01*
X975930Y940423D01*
X975864Y940421D01*
X975821Y940403D01*
X975774Y940395D01*
X975717Y940361D01*
X975657Y940336D01*
X975622Y940305D01*
X975581Y940280D01*
X975540Y940229D01*
X975491Y940185D01*
X975469Y940143D01*
X975440Y940106D01*
X975419Y940044D01*
X975388Y939985D01*
X975380Y939931D01*
X975368Y939894D01*
X975368Y939891D01*
X975369Y939854D01*
X975361Y939800D01*
X975361Y937260D01*
X975372Y937195D01*
X975374Y937129D01*
X975392Y937086D01*
X975400Y937039D01*
X975434Y936982D01*
X975459Y936922D01*
X975490Y936887D01*
X975515Y936846D01*
X975566Y936805D01*
X975610Y936756D01*
X975652Y936734D01*
X975689Y936705D01*
X975751Y936684D01*
X975810Y936653D01*
X975864Y936645D01*
X975901Y936633D01*
X975941Y936634D01*
X975995Y936626D01*
X979805Y936626D01*
X979870Y936637D01*
G37*
G36*
X230570Y936637D02*
X230570Y936637D01*
X230636Y936639D01*
X230679Y936657D01*
X230726Y936665D01*
X230783Y936699D01*
X230843Y936724D01*
X230878Y936755D01*
X230919Y936780D01*
X230961Y936831D01*
X231009Y936875D01*
X231031Y936917D01*
X231060Y936954D01*
X231081Y937016D01*
X231112Y937075D01*
X231120Y937129D01*
X231132Y937166D01*
X231131Y937206D01*
X231139Y937260D01*
X231139Y939800D01*
X231128Y939865D01*
X231126Y939931D01*
X231108Y939974D01*
X231100Y940021D01*
X231066Y940078D01*
X231041Y940138D01*
X231010Y940173D01*
X230985Y940214D01*
X230934Y940256D01*
X230890Y940304D01*
X230848Y940326D01*
X230811Y940355D01*
X230749Y940376D01*
X230690Y940407D01*
X230636Y940415D01*
X230599Y940427D01*
X230559Y940426D01*
X230505Y940434D01*
X226695Y940434D01*
X226630Y940423D01*
X226564Y940421D01*
X226521Y940403D01*
X226474Y940395D01*
X226417Y940361D01*
X226357Y940336D01*
X226322Y940305D01*
X226281Y940280D01*
X226240Y940229D01*
X226191Y940185D01*
X226169Y940143D01*
X226140Y940106D01*
X226119Y940044D01*
X226088Y939985D01*
X226080Y939931D01*
X226068Y939894D01*
X226068Y939891D01*
X226069Y939854D01*
X226061Y939800D01*
X226061Y937260D01*
X226072Y937195D01*
X226074Y937129D01*
X226092Y937086D01*
X226100Y937039D01*
X226134Y936982D01*
X226159Y936922D01*
X226190Y936887D01*
X226215Y936846D01*
X226266Y936805D01*
X226310Y936756D01*
X226352Y936734D01*
X226389Y936705D01*
X226451Y936684D01*
X226510Y936653D01*
X226564Y936645D01*
X226601Y936633D01*
X226641Y936634D01*
X226695Y936626D01*
X230505Y936626D01*
X230570Y936637D01*
G37*
G36*
X979870Y448957D02*
X979870Y448957D01*
X979936Y448959D01*
X979979Y448977D01*
X980026Y448985D01*
X980083Y449019D01*
X980143Y449044D01*
X980178Y449075D01*
X980219Y449100D01*
X980261Y449151D01*
X980309Y449195D01*
X980331Y449237D01*
X980360Y449274D01*
X980381Y449336D01*
X980412Y449395D01*
X980420Y449449D01*
X980432Y449486D01*
X980431Y449526D01*
X980439Y449580D01*
X980439Y452120D01*
X980428Y452185D01*
X980426Y452251D01*
X980408Y452294D01*
X980400Y452341D01*
X980366Y452398D01*
X980341Y452458D01*
X980310Y452493D01*
X980285Y452534D01*
X980234Y452576D01*
X980190Y452624D01*
X980148Y452646D01*
X980111Y452675D01*
X980049Y452696D01*
X979990Y452727D01*
X979936Y452735D01*
X979899Y452747D01*
X979859Y452746D01*
X979805Y452754D01*
X975995Y452754D01*
X975930Y452743D01*
X975864Y452741D01*
X975821Y452723D01*
X975774Y452715D01*
X975717Y452681D01*
X975657Y452656D01*
X975622Y452625D01*
X975581Y452600D01*
X975540Y452549D01*
X975491Y452505D01*
X975469Y452463D01*
X975440Y452426D01*
X975419Y452364D01*
X975388Y452305D01*
X975380Y452251D01*
X975368Y452214D01*
X975368Y452211D01*
X975369Y452174D01*
X975361Y452120D01*
X975361Y449580D01*
X975372Y449515D01*
X975374Y449449D01*
X975392Y449406D01*
X975400Y449359D01*
X975434Y449302D01*
X975459Y449242D01*
X975490Y449207D01*
X975515Y449166D01*
X975566Y449125D01*
X975610Y449076D01*
X975652Y449054D01*
X975689Y449025D01*
X975751Y449004D01*
X975810Y448973D01*
X975864Y448965D01*
X975901Y448953D01*
X975941Y448954D01*
X975995Y448946D01*
X979805Y448946D01*
X979870Y448957D01*
G37*
G36*
X230570Y448957D02*
X230570Y448957D01*
X230636Y448959D01*
X230679Y448977D01*
X230726Y448985D01*
X230783Y449019D01*
X230843Y449044D01*
X230878Y449075D01*
X230919Y449100D01*
X230961Y449151D01*
X231009Y449195D01*
X231031Y449237D01*
X231060Y449274D01*
X231081Y449336D01*
X231112Y449395D01*
X231120Y449449D01*
X231132Y449486D01*
X231131Y449526D01*
X231139Y449580D01*
X231139Y452120D01*
X231128Y452185D01*
X231126Y452251D01*
X231108Y452294D01*
X231100Y452341D01*
X231066Y452398D01*
X231041Y452458D01*
X231010Y452493D01*
X230985Y452534D01*
X230934Y452576D01*
X230890Y452624D01*
X230848Y452646D01*
X230811Y452675D01*
X230749Y452696D01*
X230690Y452727D01*
X230636Y452735D01*
X230599Y452747D01*
X230559Y452746D01*
X230505Y452754D01*
X226695Y452754D01*
X226630Y452743D01*
X226564Y452741D01*
X226521Y452723D01*
X226474Y452715D01*
X226417Y452681D01*
X226357Y452656D01*
X226322Y452625D01*
X226281Y452600D01*
X226240Y452549D01*
X226191Y452505D01*
X226169Y452463D01*
X226140Y452426D01*
X226119Y452364D01*
X226088Y452305D01*
X226080Y452251D01*
X226068Y452214D01*
X226068Y452211D01*
X226069Y452174D01*
X226061Y452120D01*
X226061Y449580D01*
X226072Y449515D01*
X226074Y449449D01*
X226092Y449406D01*
X226100Y449359D01*
X226134Y449302D01*
X226159Y449242D01*
X226190Y449207D01*
X226215Y449166D01*
X226266Y449125D01*
X226310Y449076D01*
X226352Y449054D01*
X226389Y449025D01*
X226451Y449004D01*
X226510Y448973D01*
X226564Y448965D01*
X226601Y448953D01*
X226641Y448954D01*
X226695Y448946D01*
X230505Y448946D01*
X230570Y448957D01*
G37*
G36*
X230570Y962037D02*
X230570Y962037D01*
X230636Y962039D01*
X230679Y962057D01*
X230726Y962065D01*
X230783Y962099D01*
X230843Y962124D01*
X230878Y962155D01*
X230919Y962180D01*
X230961Y962231D01*
X231009Y962275D01*
X231031Y962317D01*
X231060Y962354D01*
X231081Y962416D01*
X231112Y962475D01*
X231120Y962529D01*
X231132Y962566D01*
X231131Y962606D01*
X231139Y962660D01*
X231139Y965200D01*
X231128Y965265D01*
X231126Y965331D01*
X231108Y965374D01*
X231100Y965421D01*
X231066Y965478D01*
X231041Y965538D01*
X231010Y965573D01*
X230985Y965614D01*
X230934Y965656D01*
X230890Y965704D01*
X230848Y965726D01*
X230811Y965755D01*
X230749Y965776D01*
X230690Y965807D01*
X230636Y965815D01*
X230599Y965827D01*
X230559Y965826D01*
X230505Y965834D01*
X226695Y965834D01*
X226630Y965823D01*
X226564Y965821D01*
X226521Y965803D01*
X226474Y965795D01*
X226417Y965761D01*
X226357Y965736D01*
X226322Y965705D01*
X226281Y965680D01*
X226240Y965629D01*
X226191Y965585D01*
X226169Y965543D01*
X226140Y965506D01*
X226119Y965444D01*
X226088Y965385D01*
X226080Y965331D01*
X226068Y965294D01*
X226068Y965291D01*
X226069Y965254D01*
X226061Y965200D01*
X226061Y962660D01*
X226072Y962595D01*
X226074Y962529D01*
X226092Y962486D01*
X226100Y962439D01*
X226134Y962382D01*
X226159Y962322D01*
X226190Y962287D01*
X226215Y962246D01*
X226266Y962205D01*
X226310Y962156D01*
X226352Y962134D01*
X226389Y962105D01*
X226451Y962084D01*
X226510Y962053D01*
X226564Y962045D01*
X226601Y962033D01*
X226641Y962034D01*
X226695Y962026D01*
X230505Y962026D01*
X230570Y962037D01*
G37*
G36*
X979870Y987437D02*
X979870Y987437D01*
X979936Y987439D01*
X979979Y987457D01*
X980026Y987465D01*
X980083Y987499D01*
X980143Y987524D01*
X980178Y987555D01*
X980219Y987580D01*
X980261Y987631D01*
X980309Y987675D01*
X980331Y987717D01*
X980360Y987754D01*
X980381Y987816D01*
X980412Y987875D01*
X980420Y987929D01*
X980432Y987966D01*
X980431Y988006D01*
X980439Y988060D01*
X980439Y990600D01*
X980428Y990665D01*
X980426Y990731D01*
X980408Y990774D01*
X980400Y990821D01*
X980366Y990878D01*
X980341Y990938D01*
X980310Y990973D01*
X980285Y991014D01*
X980234Y991056D01*
X980190Y991104D01*
X980148Y991126D01*
X980111Y991155D01*
X980049Y991176D01*
X979990Y991207D01*
X979936Y991215D01*
X979899Y991227D01*
X979859Y991226D01*
X979805Y991234D01*
X975995Y991234D01*
X975930Y991223D01*
X975864Y991221D01*
X975821Y991203D01*
X975774Y991195D01*
X975717Y991161D01*
X975657Y991136D01*
X975622Y991105D01*
X975581Y991080D01*
X975540Y991029D01*
X975491Y990985D01*
X975469Y990943D01*
X975440Y990906D01*
X975419Y990844D01*
X975388Y990785D01*
X975380Y990731D01*
X975368Y990694D01*
X975368Y990691D01*
X975369Y990654D01*
X975361Y990600D01*
X975361Y988060D01*
X975372Y987995D01*
X975374Y987929D01*
X975392Y987886D01*
X975400Y987839D01*
X975434Y987782D01*
X975459Y987722D01*
X975490Y987687D01*
X975515Y987646D01*
X975566Y987605D01*
X975610Y987556D01*
X975652Y987534D01*
X975689Y987505D01*
X975751Y987484D01*
X975810Y987453D01*
X975864Y987445D01*
X975901Y987433D01*
X975941Y987434D01*
X975995Y987426D01*
X979805Y987426D01*
X979870Y987437D01*
G37*
G36*
X979870Y962037D02*
X979870Y962037D01*
X979936Y962039D01*
X979979Y962057D01*
X980026Y962065D01*
X980083Y962099D01*
X980143Y962124D01*
X980178Y962155D01*
X980219Y962180D01*
X980261Y962231D01*
X980309Y962275D01*
X980331Y962317D01*
X980360Y962354D01*
X980381Y962416D01*
X980412Y962475D01*
X980420Y962529D01*
X980432Y962566D01*
X980431Y962606D01*
X980439Y962660D01*
X980439Y965200D01*
X980428Y965265D01*
X980426Y965331D01*
X980408Y965374D01*
X980400Y965421D01*
X980366Y965478D01*
X980341Y965538D01*
X980310Y965573D01*
X980285Y965614D01*
X980234Y965656D01*
X980190Y965704D01*
X980148Y965726D01*
X980111Y965755D01*
X980049Y965776D01*
X979990Y965807D01*
X979936Y965815D01*
X979899Y965827D01*
X979859Y965826D01*
X979805Y965834D01*
X975995Y965834D01*
X975930Y965823D01*
X975864Y965821D01*
X975821Y965803D01*
X975774Y965795D01*
X975717Y965761D01*
X975657Y965736D01*
X975622Y965705D01*
X975581Y965680D01*
X975540Y965629D01*
X975491Y965585D01*
X975469Y965543D01*
X975440Y965506D01*
X975419Y965444D01*
X975388Y965385D01*
X975380Y965331D01*
X975368Y965294D01*
X975368Y965291D01*
X975369Y965254D01*
X975361Y965200D01*
X975361Y962660D01*
X975372Y962595D01*
X975374Y962529D01*
X975392Y962486D01*
X975400Y962439D01*
X975434Y962382D01*
X975459Y962322D01*
X975490Y962287D01*
X975515Y962246D01*
X975566Y962205D01*
X975610Y962156D01*
X975652Y962134D01*
X975689Y962105D01*
X975751Y962084D01*
X975810Y962053D01*
X975864Y962045D01*
X975901Y962033D01*
X975941Y962034D01*
X975995Y962026D01*
X979805Y962026D01*
X979870Y962037D01*
G37*
G36*
X230570Y987437D02*
X230570Y987437D01*
X230636Y987439D01*
X230679Y987457D01*
X230726Y987465D01*
X230783Y987499D01*
X230843Y987524D01*
X230878Y987555D01*
X230919Y987580D01*
X230961Y987631D01*
X231009Y987675D01*
X231031Y987717D01*
X231060Y987754D01*
X231081Y987816D01*
X231112Y987875D01*
X231120Y987929D01*
X231132Y987966D01*
X231131Y988006D01*
X231139Y988060D01*
X231139Y990600D01*
X231128Y990665D01*
X231126Y990731D01*
X231108Y990774D01*
X231100Y990821D01*
X231066Y990878D01*
X231041Y990938D01*
X231010Y990973D01*
X230985Y991014D01*
X230934Y991056D01*
X230890Y991104D01*
X230848Y991126D01*
X230811Y991155D01*
X230749Y991176D01*
X230690Y991207D01*
X230636Y991215D01*
X230599Y991227D01*
X230559Y991226D01*
X230505Y991234D01*
X226695Y991234D01*
X226630Y991223D01*
X226564Y991221D01*
X226521Y991203D01*
X226474Y991195D01*
X226417Y991161D01*
X226357Y991136D01*
X226322Y991105D01*
X226281Y991080D01*
X226240Y991029D01*
X226191Y990985D01*
X226169Y990943D01*
X226140Y990906D01*
X226119Y990844D01*
X226088Y990785D01*
X226080Y990731D01*
X226068Y990694D01*
X226068Y990691D01*
X226069Y990654D01*
X226061Y990600D01*
X226061Y988060D01*
X226072Y987995D01*
X226074Y987929D01*
X226092Y987886D01*
X226100Y987839D01*
X226134Y987782D01*
X226159Y987722D01*
X226190Y987687D01*
X226215Y987646D01*
X226266Y987605D01*
X226310Y987556D01*
X226352Y987534D01*
X226389Y987505D01*
X226451Y987484D01*
X226510Y987453D01*
X226564Y987445D01*
X226601Y987433D01*
X226641Y987434D01*
X226695Y987426D01*
X230505Y987426D01*
X230570Y987437D01*
G37*
G36*
X979870Y423557D02*
X979870Y423557D01*
X979936Y423559D01*
X979979Y423577D01*
X980026Y423585D01*
X980083Y423619D01*
X980143Y423644D01*
X980178Y423675D01*
X980219Y423700D01*
X980261Y423751D01*
X980309Y423795D01*
X980331Y423837D01*
X980360Y423874D01*
X980381Y423936D01*
X980412Y423995D01*
X980420Y424049D01*
X980432Y424086D01*
X980431Y424126D01*
X980439Y424180D01*
X980439Y426720D01*
X980428Y426785D01*
X980426Y426851D01*
X980408Y426894D01*
X980400Y426941D01*
X980366Y426998D01*
X980341Y427058D01*
X980310Y427093D01*
X980285Y427134D01*
X980234Y427176D01*
X980190Y427224D01*
X980148Y427246D01*
X980111Y427275D01*
X980049Y427296D01*
X979990Y427327D01*
X979936Y427335D01*
X979899Y427347D01*
X979859Y427346D01*
X979805Y427354D01*
X975995Y427354D01*
X975930Y427343D01*
X975864Y427341D01*
X975821Y427323D01*
X975774Y427315D01*
X975717Y427281D01*
X975657Y427256D01*
X975622Y427225D01*
X975581Y427200D01*
X975540Y427149D01*
X975491Y427105D01*
X975469Y427063D01*
X975440Y427026D01*
X975419Y426964D01*
X975388Y426905D01*
X975380Y426851D01*
X975368Y426814D01*
X975368Y426811D01*
X975369Y426774D01*
X975361Y426720D01*
X975361Y424180D01*
X975372Y424115D01*
X975374Y424049D01*
X975392Y424006D01*
X975400Y423959D01*
X975434Y423902D01*
X975459Y423842D01*
X975490Y423807D01*
X975515Y423766D01*
X975566Y423725D01*
X975610Y423676D01*
X975652Y423654D01*
X975689Y423625D01*
X975751Y423604D01*
X975810Y423573D01*
X975864Y423565D01*
X975901Y423553D01*
X975941Y423554D01*
X975995Y423546D01*
X979805Y423546D01*
X979870Y423557D01*
G37*
G36*
X230570Y423557D02*
X230570Y423557D01*
X230636Y423559D01*
X230679Y423577D01*
X230726Y423585D01*
X230783Y423619D01*
X230843Y423644D01*
X230878Y423675D01*
X230919Y423700D01*
X230961Y423751D01*
X231009Y423795D01*
X231031Y423837D01*
X231060Y423874D01*
X231081Y423936D01*
X231112Y423995D01*
X231120Y424049D01*
X231132Y424086D01*
X231131Y424126D01*
X231139Y424180D01*
X231139Y426720D01*
X231128Y426785D01*
X231126Y426851D01*
X231108Y426894D01*
X231100Y426941D01*
X231066Y426998D01*
X231041Y427058D01*
X231010Y427093D01*
X230985Y427134D01*
X230934Y427176D01*
X230890Y427224D01*
X230848Y427246D01*
X230811Y427275D01*
X230749Y427296D01*
X230690Y427327D01*
X230636Y427335D01*
X230599Y427347D01*
X230559Y427346D01*
X230505Y427354D01*
X226695Y427354D01*
X226630Y427343D01*
X226564Y427341D01*
X226521Y427323D01*
X226474Y427315D01*
X226417Y427281D01*
X226357Y427256D01*
X226322Y427225D01*
X226281Y427200D01*
X226240Y427149D01*
X226191Y427105D01*
X226169Y427063D01*
X226140Y427026D01*
X226119Y426964D01*
X226088Y426905D01*
X226080Y426851D01*
X226068Y426814D01*
X226068Y426811D01*
X226069Y426774D01*
X226061Y426720D01*
X226061Y424180D01*
X226072Y424115D01*
X226074Y424049D01*
X226092Y424006D01*
X226100Y423959D01*
X226134Y423902D01*
X226159Y423842D01*
X226190Y423807D01*
X226215Y423766D01*
X226266Y423725D01*
X226310Y423676D01*
X226352Y423654D01*
X226389Y423625D01*
X226451Y423604D01*
X226510Y423573D01*
X226564Y423565D01*
X226601Y423553D01*
X226641Y423554D01*
X226695Y423546D01*
X230505Y423546D01*
X230570Y423557D01*
G37*
G36*
X979870Y398157D02*
X979870Y398157D01*
X979936Y398159D01*
X979979Y398177D01*
X980026Y398185D01*
X980083Y398219D01*
X980143Y398244D01*
X980178Y398275D01*
X980219Y398300D01*
X980261Y398351D01*
X980309Y398395D01*
X980331Y398437D01*
X980360Y398474D01*
X980381Y398536D01*
X980412Y398595D01*
X980420Y398649D01*
X980432Y398686D01*
X980431Y398726D01*
X980439Y398780D01*
X980439Y401320D01*
X980428Y401385D01*
X980426Y401451D01*
X980408Y401494D01*
X980400Y401541D01*
X980366Y401598D01*
X980341Y401658D01*
X980310Y401693D01*
X980285Y401734D01*
X980234Y401776D01*
X980190Y401824D01*
X980148Y401846D01*
X980111Y401875D01*
X980049Y401896D01*
X979990Y401927D01*
X979936Y401935D01*
X979899Y401947D01*
X979859Y401946D01*
X979805Y401954D01*
X975995Y401954D01*
X975930Y401943D01*
X975864Y401941D01*
X975821Y401923D01*
X975774Y401915D01*
X975717Y401881D01*
X975657Y401856D01*
X975622Y401825D01*
X975581Y401800D01*
X975540Y401749D01*
X975491Y401705D01*
X975469Y401663D01*
X975440Y401626D01*
X975419Y401564D01*
X975388Y401505D01*
X975380Y401451D01*
X975368Y401414D01*
X975368Y401411D01*
X975369Y401374D01*
X975361Y401320D01*
X975361Y398780D01*
X975372Y398715D01*
X975374Y398649D01*
X975392Y398606D01*
X975400Y398559D01*
X975434Y398502D01*
X975459Y398442D01*
X975490Y398407D01*
X975515Y398366D01*
X975566Y398325D01*
X975610Y398276D01*
X975652Y398254D01*
X975689Y398225D01*
X975751Y398204D01*
X975810Y398173D01*
X975864Y398165D01*
X975901Y398153D01*
X975941Y398154D01*
X975995Y398146D01*
X979805Y398146D01*
X979870Y398157D01*
G37*
G36*
X230570Y398157D02*
X230570Y398157D01*
X230636Y398159D01*
X230679Y398177D01*
X230726Y398185D01*
X230783Y398219D01*
X230843Y398244D01*
X230878Y398275D01*
X230919Y398300D01*
X230961Y398351D01*
X231009Y398395D01*
X231031Y398437D01*
X231060Y398474D01*
X231081Y398536D01*
X231112Y398595D01*
X231120Y398649D01*
X231132Y398686D01*
X231131Y398726D01*
X231139Y398780D01*
X231139Y401320D01*
X231128Y401385D01*
X231126Y401451D01*
X231108Y401494D01*
X231100Y401541D01*
X231066Y401598D01*
X231041Y401658D01*
X231010Y401693D01*
X230985Y401734D01*
X230934Y401776D01*
X230890Y401824D01*
X230848Y401846D01*
X230811Y401875D01*
X230749Y401896D01*
X230690Y401927D01*
X230636Y401935D01*
X230599Y401947D01*
X230559Y401946D01*
X230505Y401954D01*
X226695Y401954D01*
X226630Y401943D01*
X226564Y401941D01*
X226521Y401923D01*
X226474Y401915D01*
X226417Y401881D01*
X226357Y401856D01*
X226322Y401825D01*
X226281Y401800D01*
X226240Y401749D01*
X226191Y401705D01*
X226169Y401663D01*
X226140Y401626D01*
X226119Y401564D01*
X226088Y401505D01*
X226080Y401451D01*
X226068Y401414D01*
X226068Y401411D01*
X226069Y401374D01*
X226061Y401320D01*
X226061Y398780D01*
X226072Y398715D01*
X226074Y398649D01*
X226092Y398606D01*
X226100Y398559D01*
X226134Y398502D01*
X226159Y398442D01*
X226190Y398407D01*
X226215Y398366D01*
X226266Y398325D01*
X226310Y398276D01*
X226352Y398254D01*
X226389Y398225D01*
X226451Y398204D01*
X226510Y398173D01*
X226564Y398165D01*
X226601Y398153D01*
X226641Y398154D01*
X226695Y398146D01*
X230505Y398146D01*
X230570Y398157D01*
G37*
D10*
X139700Y50800D03*
X660400Y101600D03*
X660400Y381000D03*
X152400Y533400D03*
D11*
X49050Y448000D03*
X49050Y390200D03*
D12*
X33549Y431989D02*
X4551Y431989D01*
X33549Y431989D02*
X33549Y423991D01*
X4551Y423991D01*
X4551Y431989D01*
X4551Y426391D02*
X33549Y426391D01*
X33549Y428791D02*
X4551Y428791D01*
X4551Y431191D02*
X33549Y431191D01*
X33549Y449769D02*
X4551Y449769D01*
X33549Y449769D02*
X33549Y441771D01*
X4551Y441771D01*
X4551Y449769D01*
X4551Y444171D02*
X33549Y444171D01*
X33549Y446571D02*
X4551Y446571D01*
X4551Y448971D02*
X33549Y448971D01*
X33549Y414209D02*
X4551Y414209D01*
X33549Y414209D02*
X33549Y406211D01*
X4551Y406211D01*
X4551Y414209D01*
X4551Y408611D02*
X33549Y408611D01*
X33549Y411011D02*
X4551Y411011D01*
X4551Y413411D02*
X33549Y413411D01*
X33549Y396429D02*
X4551Y396429D01*
X33549Y396429D02*
X33549Y388431D01*
X4551Y388431D01*
X4551Y396429D01*
X4551Y390831D02*
X33549Y390831D01*
X33549Y393231D02*
X4551Y393231D01*
X4551Y395631D02*
X33549Y395631D01*
D13*
X401437Y418602D02*
X406791Y418602D01*
X406791Y406898D01*
X401437Y406898D01*
X401437Y418602D01*
X401437Y409292D02*
X406791Y409292D01*
X406791Y411686D02*
X401437Y411686D01*
X401437Y414080D02*
X406791Y414080D01*
X406791Y416474D02*
X401437Y416474D01*
X398663Y418602D02*
X393309Y418602D01*
X398663Y418602D02*
X398663Y406898D01*
X393309Y406898D01*
X393309Y418602D01*
X393309Y409292D02*
X398663Y409292D01*
X398663Y411686D02*
X393309Y411686D01*
X393309Y414080D02*
X398663Y414080D01*
X398663Y416474D02*
X393309Y416474D01*
D14*
X187960Y571500D03*
X213360Y571500D03*
X238760Y571500D03*
X264160Y571500D03*
X289560Y571500D03*
X314960Y571500D03*
X340360Y571500D03*
X365760Y571500D03*
X391160Y571500D03*
X416560Y571500D03*
X279400Y12700D03*
X304800Y12700D03*
X330200Y12700D03*
X355600Y12700D03*
X381000Y12700D03*
X406400Y12700D03*
X431800Y12700D03*
X457200Y12700D03*
X508000Y12700D03*
X533400Y12700D03*
X558800Y12700D03*
X584200Y12700D03*
X609600Y12700D03*
X635000Y12700D03*
X635000Y571500D03*
X609600Y571500D03*
X584200Y571500D03*
X558800Y571500D03*
X533400Y571500D03*
X508000Y571500D03*
X482600Y571500D03*
X457200Y571500D03*
D15*
X488950Y368300D03*
X488950Y381000D03*
X501650Y368300D03*
X501650Y381000D03*
X514350Y368300D03*
X514350Y381000D03*
X527050Y368300D03*
X527050Y381000D03*
X539750Y368300D03*
X539750Y381000D03*
D16*
X88900Y574040D03*
X660400Y63500D03*
D13*
X603748Y455920D02*
X603748Y461528D01*
X615452Y461528D01*
X615452Y455920D01*
X603748Y455920D01*
X603748Y458314D02*
X615452Y458314D01*
X615452Y460708D02*
X603748Y460708D01*
X603748Y451114D02*
X603748Y445506D01*
X603748Y451114D02*
X615452Y451114D01*
X615452Y445506D01*
X603748Y445506D01*
X603748Y447900D02*
X615452Y447900D01*
X615452Y450294D02*
X603748Y450294D01*
X603748Y440700D02*
X603748Y435092D01*
X603748Y440700D02*
X615452Y440700D01*
X615452Y435092D01*
X603748Y435092D01*
X603748Y437486D02*
X615452Y437486D01*
X615452Y439880D02*
X603748Y439880D01*
X590052Y447919D02*
X590052Y453273D01*
X590052Y447919D02*
X578348Y447919D01*
X578348Y453273D01*
X590052Y453273D01*
X590052Y450313D02*
X578348Y450313D01*
X578348Y452707D02*
X590052Y452707D01*
X590052Y456047D02*
X590052Y461401D01*
X590052Y456047D02*
X578348Y456047D01*
X578348Y461401D01*
X590052Y461401D01*
X590052Y458441D02*
X578348Y458441D01*
X578348Y460835D02*
X590052Y460835D01*
D16*
X40640Y242550D03*
X40640Y322550D03*
D13*
X564652Y446649D02*
X564652Y452257D01*
X564652Y446649D02*
X552948Y446649D01*
X552948Y452257D01*
X564652Y452257D01*
X564652Y449043D02*
X552948Y449043D01*
X552948Y451437D02*
X564652Y451437D01*
X564652Y457063D02*
X564652Y462671D01*
X564652Y457063D02*
X552948Y457063D01*
X552948Y462671D01*
X564652Y462671D01*
X564652Y459457D02*
X552948Y459457D01*
X552948Y461851D02*
X564652Y461851D01*
X539252Y452257D02*
X539252Y446649D01*
X527548Y446649D01*
X527548Y452257D01*
X539252Y452257D01*
X539252Y449043D02*
X527548Y449043D01*
X527548Y451437D02*
X539252Y451437D01*
X539252Y457063D02*
X539252Y462671D01*
X539252Y457063D02*
X527548Y457063D01*
X527548Y462671D01*
X539252Y462671D01*
X539252Y459457D02*
X527548Y459457D01*
X527548Y461851D02*
X539252Y461851D01*
D17*
X20320Y111760D03*
X66040Y111760D03*
D13*
X392293Y432298D02*
X397647Y432298D01*
X392293Y432298D02*
X392293Y444002D01*
X397647Y444002D01*
X397647Y432298D01*
X397647Y434692D02*
X392293Y434692D01*
X392293Y437086D02*
X397647Y437086D01*
X397647Y439480D02*
X392293Y439480D01*
X392293Y441874D02*
X397647Y441874D01*
X402453Y432298D02*
X407807Y432298D01*
X402453Y432298D02*
X402453Y444002D01*
X407807Y444002D01*
X407807Y432298D01*
X407807Y434692D02*
X402453Y434692D01*
X402453Y437086D02*
X407807Y437086D01*
X407807Y439480D02*
X402453Y439480D01*
X402453Y441874D02*
X407807Y441874D01*
D14*
X387350Y438150D03*
X412750Y438150D03*
X203200Y127000D03*
X228600Y127000D03*
D18*
X508000Y431800D03*
D13*
X6848Y485003D02*
X6848Y490611D01*
X18552Y490611D01*
X18552Y485003D01*
X6848Y485003D01*
X6848Y487397D02*
X18552Y487397D01*
X18552Y489791D02*
X6848Y489791D01*
X6848Y480197D02*
X6848Y474589D01*
X6848Y480197D02*
X18552Y480197D01*
X18552Y474589D01*
X6848Y474589D01*
X6848Y476983D02*
X18552Y476983D01*
X18552Y479377D02*
X6848Y479377D01*
X488452Y452003D02*
X488452Y446649D01*
X476748Y446649D01*
X476748Y452003D01*
X488452Y452003D01*
X488452Y449043D02*
X476748Y449043D01*
X476748Y451437D02*
X488452Y451437D01*
X488452Y454777D02*
X488452Y460131D01*
X488452Y454777D02*
X476748Y454777D01*
X476748Y460131D01*
X488452Y460131D01*
X488452Y457171D02*
X476748Y457171D01*
X476748Y459565D02*
X488452Y459565D01*
X236611Y355102D02*
X231003Y355102D01*
X236611Y355102D02*
X236611Y343398D01*
X231003Y343398D01*
X231003Y355102D01*
X231003Y345792D02*
X236611Y345792D01*
X236611Y348186D02*
X231003Y348186D01*
X231003Y350580D02*
X236611Y350580D01*
X236611Y352974D02*
X231003Y352974D01*
X226197Y355102D02*
X220589Y355102D01*
X226197Y355102D02*
X226197Y343398D01*
X220589Y343398D01*
X220589Y355102D01*
X220589Y345792D02*
X226197Y345792D01*
X226197Y348186D02*
X220589Y348186D01*
X220589Y350580D02*
X226197Y350580D01*
X226197Y352974D02*
X220589Y352974D01*
X220589Y368798D02*
X226197Y368798D01*
X220589Y368798D02*
X220589Y380502D01*
X226197Y380502D01*
X226197Y368798D01*
X226197Y371192D02*
X220589Y371192D01*
X220589Y373586D02*
X226197Y373586D01*
X226197Y375980D02*
X220589Y375980D01*
X220589Y378374D02*
X226197Y378374D01*
X231003Y368798D02*
X236611Y368798D01*
X231003Y368798D02*
X231003Y380502D01*
X236611Y380502D01*
X236611Y368798D01*
X236611Y371192D02*
X231003Y371192D01*
X231003Y373586D02*
X236611Y373586D01*
X236611Y375980D02*
X231003Y375980D01*
X231003Y378374D02*
X236611Y378374D01*
X226197Y394198D02*
X220589Y394198D01*
X220589Y405902D01*
X226197Y405902D01*
X226197Y394198D01*
X226197Y396592D02*
X220589Y396592D01*
X220589Y398986D02*
X226197Y398986D01*
X226197Y401380D02*
X220589Y401380D01*
X220589Y403774D02*
X226197Y403774D01*
X231003Y394198D02*
X236611Y394198D01*
X231003Y394198D02*
X231003Y405902D01*
X236611Y405902D01*
X236611Y394198D01*
X236611Y396592D02*
X231003Y396592D01*
X231003Y398986D02*
X236611Y398986D01*
X236611Y401380D02*
X231003Y401380D01*
X231003Y403774D02*
X236611Y403774D01*
X226197Y419598D02*
X220589Y419598D01*
X220589Y431302D01*
X226197Y431302D01*
X226197Y419598D01*
X226197Y421992D02*
X220589Y421992D01*
X220589Y424386D02*
X226197Y424386D01*
X226197Y426780D02*
X220589Y426780D01*
X220589Y429174D02*
X226197Y429174D01*
X231003Y419598D02*
X236611Y419598D01*
X231003Y419598D02*
X231003Y431302D01*
X236611Y431302D01*
X236611Y419598D01*
X236611Y421992D02*
X231003Y421992D01*
X231003Y424386D02*
X236611Y424386D01*
X236611Y426780D02*
X231003Y426780D01*
X231003Y429174D02*
X236611Y429174D01*
X226197Y444998D02*
X220589Y444998D01*
X220589Y456702D01*
X226197Y456702D01*
X226197Y444998D01*
X226197Y447392D02*
X220589Y447392D01*
X220589Y449786D02*
X226197Y449786D01*
X226197Y452180D02*
X220589Y452180D01*
X220589Y454574D02*
X226197Y454574D01*
X231003Y444998D02*
X236611Y444998D01*
X231003Y444998D02*
X231003Y456702D01*
X236611Y456702D01*
X236611Y444998D01*
X236611Y447392D02*
X231003Y447392D01*
X231003Y449786D02*
X236611Y449786D01*
X236611Y452180D02*
X231003Y452180D01*
X231003Y454574D02*
X236611Y454574D01*
D10*
X889000Y50800D03*
X1409700Y101600D03*
X1409700Y381000D03*
X901700Y533400D03*
D11*
X798350Y448000D03*
X798350Y390200D03*
D12*
X782849Y431989D02*
X753851Y431989D01*
X782849Y431989D02*
X782849Y423991D01*
X753851Y423991D01*
X753851Y431989D01*
X753851Y426391D02*
X782849Y426391D01*
X782849Y428791D02*
X753851Y428791D01*
X753851Y431191D02*
X782849Y431191D01*
X782849Y449769D02*
X753851Y449769D01*
X782849Y449769D02*
X782849Y441771D01*
X753851Y441771D01*
X753851Y449769D01*
X753851Y444171D02*
X782849Y444171D01*
X782849Y446571D02*
X753851Y446571D01*
X753851Y448971D02*
X782849Y448971D01*
X782849Y414209D02*
X753851Y414209D01*
X782849Y414209D02*
X782849Y406211D01*
X753851Y406211D01*
X753851Y414209D01*
X753851Y408611D02*
X782849Y408611D01*
X782849Y411011D02*
X753851Y411011D01*
X753851Y413411D02*
X782849Y413411D01*
X782849Y396429D02*
X753851Y396429D01*
X782849Y396429D02*
X782849Y388431D01*
X753851Y388431D01*
X753851Y396429D01*
X753851Y390831D02*
X782849Y390831D01*
X782849Y393231D02*
X753851Y393231D01*
X753851Y395631D02*
X782849Y395631D01*
D13*
X1150737Y418602D02*
X1156091Y418602D01*
X1156091Y406898D01*
X1150737Y406898D01*
X1150737Y418602D01*
X1150737Y409292D02*
X1156091Y409292D01*
X1156091Y411686D02*
X1150737Y411686D01*
X1150737Y414080D02*
X1156091Y414080D01*
X1156091Y416474D02*
X1150737Y416474D01*
X1147963Y418602D02*
X1142609Y418602D01*
X1147963Y418602D02*
X1147963Y406898D01*
X1142609Y406898D01*
X1142609Y418602D01*
X1142609Y409292D02*
X1147963Y409292D01*
X1147963Y411686D02*
X1142609Y411686D01*
X1142609Y414080D02*
X1147963Y414080D01*
X1147963Y416474D02*
X1142609Y416474D01*
D14*
X937260Y571500D03*
X962660Y571500D03*
X988060Y571500D03*
X1013460Y571500D03*
X1038860Y571500D03*
X1064260Y571500D03*
X1089660Y571500D03*
X1115060Y571500D03*
X1140460Y571500D03*
X1165860Y571500D03*
X1028700Y12700D03*
X1054100Y12700D03*
X1079500Y12700D03*
X1104900Y12700D03*
X1130300Y12700D03*
X1155700Y12700D03*
X1181100Y12700D03*
X1206500Y12700D03*
X1257300Y12700D03*
X1282700Y12700D03*
X1308100Y12700D03*
X1333500Y12700D03*
X1358900Y12700D03*
X1384300Y12700D03*
X1384300Y571500D03*
X1358900Y571500D03*
X1333500Y571500D03*
X1308100Y571500D03*
X1282700Y571500D03*
X1257300Y571500D03*
X1231900Y571500D03*
X1206500Y571500D03*
D15*
X1238250Y368300D03*
X1238250Y381000D03*
X1250950Y368300D03*
X1250950Y381000D03*
X1263650Y368300D03*
X1263650Y381000D03*
X1276350Y368300D03*
X1276350Y381000D03*
X1289050Y368300D03*
X1289050Y381000D03*
D16*
X838200Y574040D03*
X1409700Y63500D03*
D13*
X1353048Y455920D02*
X1353048Y461528D01*
X1364752Y461528D01*
X1364752Y455920D01*
X1353048Y455920D01*
X1353048Y458314D02*
X1364752Y458314D01*
X1364752Y460708D02*
X1353048Y460708D01*
X1353048Y451114D02*
X1353048Y445506D01*
X1353048Y451114D02*
X1364752Y451114D01*
X1364752Y445506D01*
X1353048Y445506D01*
X1353048Y447900D02*
X1364752Y447900D01*
X1364752Y450294D02*
X1353048Y450294D01*
X1353048Y440700D02*
X1353048Y435092D01*
X1353048Y440700D02*
X1364752Y440700D01*
X1364752Y435092D01*
X1353048Y435092D01*
X1353048Y437486D02*
X1364752Y437486D01*
X1364752Y439880D02*
X1353048Y439880D01*
X1339352Y447919D02*
X1339352Y453273D01*
X1339352Y447919D02*
X1327648Y447919D01*
X1327648Y453273D01*
X1339352Y453273D01*
X1339352Y450313D02*
X1327648Y450313D01*
X1327648Y452707D02*
X1339352Y452707D01*
X1339352Y456047D02*
X1339352Y461401D01*
X1339352Y456047D02*
X1327648Y456047D01*
X1327648Y461401D01*
X1339352Y461401D01*
X1339352Y458441D02*
X1327648Y458441D01*
X1327648Y460835D02*
X1339352Y460835D01*
D16*
X789940Y242550D03*
X789940Y322550D03*
D13*
X1313952Y446649D02*
X1313952Y452257D01*
X1313952Y446649D02*
X1302248Y446649D01*
X1302248Y452257D01*
X1313952Y452257D01*
X1313952Y449043D02*
X1302248Y449043D01*
X1302248Y451437D02*
X1313952Y451437D01*
X1313952Y457063D02*
X1313952Y462671D01*
X1313952Y457063D02*
X1302248Y457063D01*
X1302248Y462671D01*
X1313952Y462671D01*
X1313952Y459457D02*
X1302248Y459457D01*
X1302248Y461851D02*
X1313952Y461851D01*
X1288552Y452257D02*
X1288552Y446649D01*
X1276848Y446649D01*
X1276848Y452257D01*
X1288552Y452257D01*
X1288552Y449043D02*
X1276848Y449043D01*
X1276848Y451437D02*
X1288552Y451437D01*
X1288552Y457063D02*
X1288552Y462671D01*
X1288552Y457063D02*
X1276848Y457063D01*
X1276848Y462671D01*
X1288552Y462671D01*
X1288552Y459457D02*
X1276848Y459457D01*
X1276848Y461851D02*
X1288552Y461851D01*
D17*
X769620Y111760D03*
X815340Y111760D03*
D13*
X1141593Y432298D02*
X1146947Y432298D01*
X1141593Y432298D02*
X1141593Y444002D01*
X1146947Y444002D01*
X1146947Y432298D01*
X1146947Y434692D02*
X1141593Y434692D01*
X1141593Y437086D02*
X1146947Y437086D01*
X1146947Y439480D02*
X1141593Y439480D01*
X1141593Y441874D02*
X1146947Y441874D01*
X1151753Y432298D02*
X1157107Y432298D01*
X1151753Y432298D02*
X1151753Y444002D01*
X1157107Y444002D01*
X1157107Y432298D01*
X1157107Y434692D02*
X1151753Y434692D01*
X1151753Y437086D02*
X1157107Y437086D01*
X1157107Y439480D02*
X1151753Y439480D01*
X1151753Y441874D02*
X1157107Y441874D01*
D14*
X1136650Y438150D03*
X1162050Y438150D03*
X952500Y127000D03*
X977900Y127000D03*
D18*
X1257300Y431800D03*
D13*
X756148Y485003D02*
X756148Y490611D01*
X767852Y490611D01*
X767852Y485003D01*
X756148Y485003D01*
X756148Y487397D02*
X767852Y487397D01*
X767852Y489791D02*
X756148Y489791D01*
X756148Y480197D02*
X756148Y474589D01*
X756148Y480197D02*
X767852Y480197D01*
X767852Y474589D01*
X756148Y474589D01*
X756148Y476983D02*
X767852Y476983D01*
X767852Y479377D02*
X756148Y479377D01*
X1237752Y452003D02*
X1237752Y446649D01*
X1226048Y446649D01*
X1226048Y452003D01*
X1237752Y452003D01*
X1237752Y449043D02*
X1226048Y449043D01*
X1226048Y451437D02*
X1237752Y451437D01*
X1237752Y454777D02*
X1237752Y460131D01*
X1237752Y454777D02*
X1226048Y454777D01*
X1226048Y460131D01*
X1237752Y460131D01*
X1237752Y457171D02*
X1226048Y457171D01*
X1226048Y459565D02*
X1237752Y459565D01*
X985911Y355102D02*
X980303Y355102D01*
X985911Y355102D02*
X985911Y343398D01*
X980303Y343398D01*
X980303Y355102D01*
X980303Y345792D02*
X985911Y345792D01*
X985911Y348186D02*
X980303Y348186D01*
X980303Y350580D02*
X985911Y350580D01*
X985911Y352974D02*
X980303Y352974D01*
X975497Y355102D02*
X969889Y355102D01*
X975497Y355102D02*
X975497Y343398D01*
X969889Y343398D01*
X969889Y355102D01*
X969889Y345792D02*
X975497Y345792D01*
X975497Y348186D02*
X969889Y348186D01*
X969889Y350580D02*
X975497Y350580D01*
X975497Y352974D02*
X969889Y352974D01*
X969889Y368798D02*
X975497Y368798D01*
X969889Y368798D02*
X969889Y380502D01*
X975497Y380502D01*
X975497Y368798D01*
X975497Y371192D02*
X969889Y371192D01*
X969889Y373586D02*
X975497Y373586D01*
X975497Y375980D02*
X969889Y375980D01*
X969889Y378374D02*
X975497Y378374D01*
X980303Y368798D02*
X985911Y368798D01*
X980303Y368798D02*
X980303Y380502D01*
X985911Y380502D01*
X985911Y368798D01*
X985911Y371192D02*
X980303Y371192D01*
X980303Y373586D02*
X985911Y373586D01*
X985911Y375980D02*
X980303Y375980D01*
X980303Y378374D02*
X985911Y378374D01*
X975497Y394198D02*
X969889Y394198D01*
X969889Y405902D01*
X975497Y405902D01*
X975497Y394198D01*
X975497Y396592D02*
X969889Y396592D01*
X969889Y398986D02*
X975497Y398986D01*
X975497Y401380D02*
X969889Y401380D01*
X969889Y403774D02*
X975497Y403774D01*
X980303Y394198D02*
X985911Y394198D01*
X980303Y394198D02*
X980303Y405902D01*
X985911Y405902D01*
X985911Y394198D01*
X985911Y396592D02*
X980303Y396592D01*
X980303Y398986D02*
X985911Y398986D01*
X985911Y401380D02*
X980303Y401380D01*
X980303Y403774D02*
X985911Y403774D01*
X975497Y419598D02*
X969889Y419598D01*
X969889Y431302D01*
X975497Y431302D01*
X975497Y419598D01*
X975497Y421992D02*
X969889Y421992D01*
X969889Y424386D02*
X975497Y424386D01*
X975497Y426780D02*
X969889Y426780D01*
X969889Y429174D02*
X975497Y429174D01*
X980303Y419598D02*
X985911Y419598D01*
X980303Y419598D02*
X980303Y431302D01*
X985911Y431302D01*
X985911Y419598D01*
X985911Y421992D02*
X980303Y421992D01*
X980303Y424386D02*
X985911Y424386D01*
X985911Y426780D02*
X980303Y426780D01*
X980303Y429174D02*
X985911Y429174D01*
X975497Y444998D02*
X969889Y444998D01*
X969889Y456702D01*
X975497Y456702D01*
X975497Y444998D01*
X975497Y447392D02*
X969889Y447392D01*
X969889Y449786D02*
X975497Y449786D01*
X975497Y452180D02*
X969889Y452180D01*
X969889Y454574D02*
X975497Y454574D01*
X980303Y444998D02*
X985911Y444998D01*
X980303Y444998D02*
X980303Y456702D01*
X985911Y456702D01*
X985911Y444998D01*
X985911Y447392D02*
X980303Y447392D01*
X980303Y449786D02*
X985911Y449786D01*
X985911Y452180D02*
X980303Y452180D01*
X980303Y454574D02*
X985911Y454574D01*
D10*
X139700Y640080D03*
X660400Y690880D03*
X660400Y970280D03*
X152400Y1122680D03*
D11*
X49050Y1037280D03*
X49050Y979480D03*
D12*
X33549Y1021269D02*
X4551Y1021269D01*
X33549Y1021269D02*
X33549Y1013271D01*
X4551Y1013271D01*
X4551Y1021269D01*
X4551Y1015671D02*
X33549Y1015671D01*
X33549Y1018071D02*
X4551Y1018071D01*
X4551Y1020471D02*
X33549Y1020471D01*
X33549Y1039049D02*
X4551Y1039049D01*
X33549Y1039049D02*
X33549Y1031051D01*
X4551Y1031051D01*
X4551Y1039049D01*
X4551Y1033451D02*
X33549Y1033451D01*
X33549Y1035851D02*
X4551Y1035851D01*
X4551Y1038251D02*
X33549Y1038251D01*
X33549Y1003489D02*
X4551Y1003489D01*
X33549Y1003489D02*
X33549Y995491D01*
X4551Y995491D01*
X4551Y1003489D01*
X4551Y997891D02*
X33549Y997891D01*
X33549Y1000291D02*
X4551Y1000291D01*
X4551Y1002691D02*
X33549Y1002691D01*
X33549Y985709D02*
X4551Y985709D01*
X33549Y985709D02*
X33549Y977711D01*
X4551Y977711D01*
X4551Y985709D01*
X4551Y980111D02*
X33549Y980111D01*
X33549Y982511D02*
X4551Y982511D01*
X4551Y984911D02*
X33549Y984911D01*
D13*
X401437Y1007882D02*
X406791Y1007882D01*
X406791Y996178D01*
X401437Y996178D01*
X401437Y1007882D01*
X401437Y998572D02*
X406791Y998572D01*
X406791Y1000966D02*
X401437Y1000966D01*
X401437Y1003360D02*
X406791Y1003360D01*
X406791Y1005754D02*
X401437Y1005754D01*
X398663Y1007882D02*
X393309Y1007882D01*
X398663Y1007882D02*
X398663Y996178D01*
X393309Y996178D01*
X393309Y1007882D01*
X393309Y998572D02*
X398663Y998572D01*
X398663Y1000966D02*
X393309Y1000966D01*
X393309Y1003360D02*
X398663Y1003360D01*
X398663Y1005754D02*
X393309Y1005754D01*
D14*
X187960Y1160780D03*
X213360Y1160780D03*
X238760Y1160780D03*
X264160Y1160780D03*
X289560Y1160780D03*
X314960Y1160780D03*
X340360Y1160780D03*
X365760Y1160780D03*
X391160Y1160780D03*
X416560Y1160780D03*
X279400Y601980D03*
X304800Y601980D03*
X330200Y601980D03*
X355600Y601980D03*
X381000Y601980D03*
X406400Y601980D03*
X431800Y601980D03*
X457200Y601980D03*
X508000Y601980D03*
X533400Y601980D03*
X558800Y601980D03*
X584200Y601980D03*
X609600Y601980D03*
X635000Y601980D03*
X635000Y1160780D03*
X609600Y1160780D03*
X584200Y1160780D03*
X558800Y1160780D03*
X533400Y1160780D03*
X508000Y1160780D03*
X482600Y1160780D03*
X457200Y1160780D03*
D15*
X488950Y957580D03*
X488950Y970280D03*
X501650Y957580D03*
X501650Y970280D03*
X514350Y957580D03*
X514350Y970280D03*
X527050Y957580D03*
X527050Y970280D03*
X539750Y957580D03*
X539750Y970280D03*
D16*
X88900Y1163320D03*
X660400Y652780D03*
D13*
X603748Y1045200D02*
X603748Y1050808D01*
X615452Y1050808D01*
X615452Y1045200D01*
X603748Y1045200D01*
X603748Y1047594D02*
X615452Y1047594D01*
X615452Y1049988D02*
X603748Y1049988D01*
X603748Y1040394D02*
X603748Y1034786D01*
X603748Y1040394D02*
X615452Y1040394D01*
X615452Y1034786D01*
X603748Y1034786D01*
X603748Y1037180D02*
X615452Y1037180D01*
X615452Y1039574D02*
X603748Y1039574D01*
X603748Y1029980D02*
X603748Y1024372D01*
X603748Y1029980D02*
X615452Y1029980D01*
X615452Y1024372D01*
X603748Y1024372D01*
X603748Y1026766D02*
X615452Y1026766D01*
X615452Y1029160D02*
X603748Y1029160D01*
X590052Y1037199D02*
X590052Y1042553D01*
X590052Y1037199D02*
X578348Y1037199D01*
X578348Y1042553D01*
X590052Y1042553D01*
X590052Y1039593D02*
X578348Y1039593D01*
X578348Y1041987D02*
X590052Y1041987D01*
X590052Y1045327D02*
X590052Y1050681D01*
X590052Y1045327D02*
X578348Y1045327D01*
X578348Y1050681D01*
X590052Y1050681D01*
X590052Y1047721D02*
X578348Y1047721D01*
X578348Y1050115D02*
X590052Y1050115D01*
D16*
X40640Y831830D03*
X40640Y911830D03*
D13*
X564652Y1035929D02*
X564652Y1041537D01*
X564652Y1035929D02*
X552948Y1035929D01*
X552948Y1041537D01*
X564652Y1041537D01*
X564652Y1038323D02*
X552948Y1038323D01*
X552948Y1040717D02*
X564652Y1040717D01*
X564652Y1046343D02*
X564652Y1051951D01*
X564652Y1046343D02*
X552948Y1046343D01*
X552948Y1051951D01*
X564652Y1051951D01*
X564652Y1048737D02*
X552948Y1048737D01*
X552948Y1051131D02*
X564652Y1051131D01*
X539252Y1041537D02*
X539252Y1035929D01*
X527548Y1035929D01*
X527548Y1041537D01*
X539252Y1041537D01*
X539252Y1038323D02*
X527548Y1038323D01*
X527548Y1040717D02*
X539252Y1040717D01*
X539252Y1046343D02*
X539252Y1051951D01*
X539252Y1046343D02*
X527548Y1046343D01*
X527548Y1051951D01*
X539252Y1051951D01*
X539252Y1048737D02*
X527548Y1048737D01*
X527548Y1051131D02*
X539252Y1051131D01*
D17*
X20320Y701040D03*
X66040Y701040D03*
D13*
X392293Y1021578D02*
X397647Y1021578D01*
X392293Y1021578D02*
X392293Y1033282D01*
X397647Y1033282D01*
X397647Y1021578D01*
X397647Y1023972D02*
X392293Y1023972D01*
X392293Y1026366D02*
X397647Y1026366D01*
X397647Y1028760D02*
X392293Y1028760D01*
X392293Y1031154D02*
X397647Y1031154D01*
X402453Y1021578D02*
X407807Y1021578D01*
X402453Y1021578D02*
X402453Y1033282D01*
X407807Y1033282D01*
X407807Y1021578D01*
X407807Y1023972D02*
X402453Y1023972D01*
X402453Y1026366D02*
X407807Y1026366D01*
X407807Y1028760D02*
X402453Y1028760D01*
X402453Y1031154D02*
X407807Y1031154D01*
D14*
X387350Y1027430D03*
X412750Y1027430D03*
X203200Y716280D03*
X228600Y716280D03*
D18*
X508000Y1021080D03*
D13*
X6848Y1074283D02*
X6848Y1079891D01*
X18552Y1079891D01*
X18552Y1074283D01*
X6848Y1074283D01*
X6848Y1076677D02*
X18552Y1076677D01*
X18552Y1079071D02*
X6848Y1079071D01*
X6848Y1069477D02*
X6848Y1063869D01*
X6848Y1069477D02*
X18552Y1069477D01*
X18552Y1063869D01*
X6848Y1063869D01*
X6848Y1066263D02*
X18552Y1066263D01*
X18552Y1068657D02*
X6848Y1068657D01*
X488452Y1041283D02*
X488452Y1035929D01*
X476748Y1035929D01*
X476748Y1041283D01*
X488452Y1041283D01*
X488452Y1038323D02*
X476748Y1038323D01*
X476748Y1040717D02*
X488452Y1040717D01*
X488452Y1044057D02*
X488452Y1049411D01*
X488452Y1044057D02*
X476748Y1044057D01*
X476748Y1049411D01*
X488452Y1049411D01*
X488452Y1046451D02*
X476748Y1046451D01*
X476748Y1048845D02*
X488452Y1048845D01*
X236611Y944382D02*
X231003Y944382D01*
X236611Y944382D02*
X236611Y932678D01*
X231003Y932678D01*
X231003Y944382D01*
X231003Y935072D02*
X236611Y935072D01*
X236611Y937466D02*
X231003Y937466D01*
X231003Y939860D02*
X236611Y939860D01*
X236611Y942254D02*
X231003Y942254D01*
X226197Y944382D02*
X220589Y944382D01*
X226197Y944382D02*
X226197Y932678D01*
X220589Y932678D01*
X220589Y944382D01*
X220589Y935072D02*
X226197Y935072D01*
X226197Y937466D02*
X220589Y937466D01*
X220589Y939860D02*
X226197Y939860D01*
X226197Y942254D02*
X220589Y942254D01*
X220589Y958078D02*
X226197Y958078D01*
X220589Y958078D02*
X220589Y969782D01*
X226197Y969782D01*
X226197Y958078D01*
X226197Y960472D02*
X220589Y960472D01*
X220589Y962866D02*
X226197Y962866D01*
X226197Y965260D02*
X220589Y965260D01*
X220589Y967654D02*
X226197Y967654D01*
X231003Y958078D02*
X236611Y958078D01*
X231003Y958078D02*
X231003Y969782D01*
X236611Y969782D01*
X236611Y958078D01*
X236611Y960472D02*
X231003Y960472D01*
X231003Y962866D02*
X236611Y962866D01*
X236611Y965260D02*
X231003Y965260D01*
X231003Y967654D02*
X236611Y967654D01*
X226197Y983478D02*
X220589Y983478D01*
X220589Y995182D01*
X226197Y995182D01*
X226197Y983478D01*
X226197Y985872D02*
X220589Y985872D01*
X220589Y988266D02*
X226197Y988266D01*
X226197Y990660D02*
X220589Y990660D01*
X220589Y993054D02*
X226197Y993054D01*
X231003Y983478D02*
X236611Y983478D01*
X231003Y983478D02*
X231003Y995182D01*
X236611Y995182D01*
X236611Y983478D01*
X236611Y985872D02*
X231003Y985872D01*
X231003Y988266D02*
X236611Y988266D01*
X236611Y990660D02*
X231003Y990660D01*
X231003Y993054D02*
X236611Y993054D01*
X226197Y1008878D02*
X220589Y1008878D01*
X220589Y1020582D01*
X226197Y1020582D01*
X226197Y1008878D01*
X226197Y1011272D02*
X220589Y1011272D01*
X220589Y1013666D02*
X226197Y1013666D01*
X226197Y1016060D02*
X220589Y1016060D01*
X220589Y1018454D02*
X226197Y1018454D01*
X231003Y1008878D02*
X236611Y1008878D01*
X231003Y1008878D02*
X231003Y1020582D01*
X236611Y1020582D01*
X236611Y1008878D01*
X236611Y1011272D02*
X231003Y1011272D01*
X231003Y1013666D02*
X236611Y1013666D01*
X236611Y1016060D02*
X231003Y1016060D01*
X231003Y1018454D02*
X236611Y1018454D01*
X226197Y1034278D02*
X220589Y1034278D01*
X220589Y1045982D01*
X226197Y1045982D01*
X226197Y1034278D01*
X226197Y1036672D02*
X220589Y1036672D01*
X220589Y1039066D02*
X226197Y1039066D01*
X226197Y1041460D02*
X220589Y1041460D01*
X220589Y1043854D02*
X226197Y1043854D01*
X231003Y1034278D02*
X236611Y1034278D01*
X231003Y1034278D02*
X231003Y1045982D01*
X236611Y1045982D01*
X236611Y1034278D01*
X236611Y1036672D02*
X231003Y1036672D01*
X231003Y1039066D02*
X236611Y1039066D01*
X236611Y1041460D02*
X231003Y1041460D01*
X231003Y1043854D02*
X236611Y1043854D01*
D10*
X889000Y640080D03*
X1409700Y690880D03*
X1409700Y970280D03*
X901700Y1122680D03*
D11*
X798350Y1037280D03*
X798350Y979480D03*
D12*
X782849Y1021269D02*
X753851Y1021269D01*
X782849Y1021269D02*
X782849Y1013271D01*
X753851Y1013271D01*
X753851Y1021269D01*
X753851Y1015671D02*
X782849Y1015671D01*
X782849Y1018071D02*
X753851Y1018071D01*
X753851Y1020471D02*
X782849Y1020471D01*
X782849Y1039049D02*
X753851Y1039049D01*
X782849Y1039049D02*
X782849Y1031051D01*
X753851Y1031051D01*
X753851Y1039049D01*
X753851Y1033451D02*
X782849Y1033451D01*
X782849Y1035851D02*
X753851Y1035851D01*
X753851Y1038251D02*
X782849Y1038251D01*
X782849Y1003489D02*
X753851Y1003489D01*
X782849Y1003489D02*
X782849Y995491D01*
X753851Y995491D01*
X753851Y1003489D01*
X753851Y997891D02*
X782849Y997891D01*
X782849Y1000291D02*
X753851Y1000291D01*
X753851Y1002691D02*
X782849Y1002691D01*
X782849Y985709D02*
X753851Y985709D01*
X782849Y985709D02*
X782849Y977711D01*
X753851Y977711D01*
X753851Y985709D01*
X753851Y980111D02*
X782849Y980111D01*
X782849Y982511D02*
X753851Y982511D01*
X753851Y984911D02*
X782849Y984911D01*
D13*
X1150737Y1007882D02*
X1156091Y1007882D01*
X1156091Y996178D01*
X1150737Y996178D01*
X1150737Y1007882D01*
X1150737Y998572D02*
X1156091Y998572D01*
X1156091Y1000966D02*
X1150737Y1000966D01*
X1150737Y1003360D02*
X1156091Y1003360D01*
X1156091Y1005754D02*
X1150737Y1005754D01*
X1147963Y1007882D02*
X1142609Y1007882D01*
X1147963Y1007882D02*
X1147963Y996178D01*
X1142609Y996178D01*
X1142609Y1007882D01*
X1142609Y998572D02*
X1147963Y998572D01*
X1147963Y1000966D02*
X1142609Y1000966D01*
X1142609Y1003360D02*
X1147963Y1003360D01*
X1147963Y1005754D02*
X1142609Y1005754D01*
D14*
X937260Y1160780D03*
X962660Y1160780D03*
X988060Y1160780D03*
X1013460Y1160780D03*
X1038860Y1160780D03*
X1064260Y1160780D03*
X1089660Y1160780D03*
X1115060Y1160780D03*
X1140460Y1160780D03*
X1165860Y1160780D03*
X1028700Y601980D03*
X1054100Y601980D03*
X1079500Y601980D03*
X1104900Y601980D03*
X1130300Y601980D03*
X1155700Y601980D03*
X1181100Y601980D03*
X1206500Y601980D03*
X1257300Y601980D03*
X1282700Y601980D03*
X1308100Y601980D03*
X1333500Y601980D03*
X1358900Y601980D03*
X1384300Y601980D03*
X1384300Y1160780D03*
X1358900Y1160780D03*
X1333500Y1160780D03*
X1308100Y1160780D03*
X1282700Y1160780D03*
X1257300Y1160780D03*
X1231900Y1160780D03*
X1206500Y1160780D03*
D15*
X1238250Y957580D03*
X1238250Y970280D03*
X1250950Y957580D03*
X1250950Y970280D03*
X1263650Y957580D03*
X1263650Y970280D03*
X1276350Y957580D03*
X1276350Y970280D03*
X1289050Y957580D03*
X1289050Y970280D03*
D16*
X838200Y1163320D03*
X1409700Y652780D03*
D13*
X1353048Y1045200D02*
X1353048Y1050808D01*
X1364752Y1050808D01*
X1364752Y1045200D01*
X1353048Y1045200D01*
X1353048Y1047594D02*
X1364752Y1047594D01*
X1364752Y1049988D02*
X1353048Y1049988D01*
X1353048Y1040394D02*
X1353048Y1034786D01*
X1353048Y1040394D02*
X1364752Y1040394D01*
X1364752Y1034786D01*
X1353048Y1034786D01*
X1353048Y1037180D02*
X1364752Y1037180D01*
X1364752Y1039574D02*
X1353048Y1039574D01*
X1353048Y1029980D02*
X1353048Y1024372D01*
X1353048Y1029980D02*
X1364752Y1029980D01*
X1364752Y1024372D01*
X1353048Y1024372D01*
X1353048Y1026766D02*
X1364752Y1026766D01*
X1364752Y1029160D02*
X1353048Y1029160D01*
X1339352Y1037199D02*
X1339352Y1042553D01*
X1339352Y1037199D02*
X1327648Y1037199D01*
X1327648Y1042553D01*
X1339352Y1042553D01*
X1339352Y1039593D02*
X1327648Y1039593D01*
X1327648Y1041987D02*
X1339352Y1041987D01*
X1339352Y1045327D02*
X1339352Y1050681D01*
X1339352Y1045327D02*
X1327648Y1045327D01*
X1327648Y1050681D01*
X1339352Y1050681D01*
X1339352Y1047721D02*
X1327648Y1047721D01*
X1327648Y1050115D02*
X1339352Y1050115D01*
D16*
X789940Y831830D03*
X789940Y911830D03*
D13*
X1313952Y1035929D02*
X1313952Y1041537D01*
X1313952Y1035929D02*
X1302248Y1035929D01*
X1302248Y1041537D01*
X1313952Y1041537D01*
X1313952Y1038323D02*
X1302248Y1038323D01*
X1302248Y1040717D02*
X1313952Y1040717D01*
X1313952Y1046343D02*
X1313952Y1051951D01*
X1313952Y1046343D02*
X1302248Y1046343D01*
X1302248Y1051951D01*
X1313952Y1051951D01*
X1313952Y1048737D02*
X1302248Y1048737D01*
X1302248Y1051131D02*
X1313952Y1051131D01*
X1288552Y1041537D02*
X1288552Y1035929D01*
X1276848Y1035929D01*
X1276848Y1041537D01*
X1288552Y1041537D01*
X1288552Y1038323D02*
X1276848Y1038323D01*
X1276848Y1040717D02*
X1288552Y1040717D01*
X1288552Y1046343D02*
X1288552Y1051951D01*
X1288552Y1046343D02*
X1276848Y1046343D01*
X1276848Y1051951D01*
X1288552Y1051951D01*
X1288552Y1048737D02*
X1276848Y1048737D01*
X1276848Y1051131D02*
X1288552Y1051131D01*
D17*
X769620Y701040D03*
X815340Y701040D03*
D13*
X1141593Y1021578D02*
X1146947Y1021578D01*
X1141593Y1021578D02*
X1141593Y1033282D01*
X1146947Y1033282D01*
X1146947Y1021578D01*
X1146947Y1023972D02*
X1141593Y1023972D01*
X1141593Y1026366D02*
X1146947Y1026366D01*
X1146947Y1028760D02*
X1141593Y1028760D01*
X1141593Y1031154D02*
X1146947Y1031154D01*
X1151753Y1021578D02*
X1157107Y1021578D01*
X1151753Y1021578D02*
X1151753Y1033282D01*
X1157107Y1033282D01*
X1157107Y1021578D01*
X1157107Y1023972D02*
X1151753Y1023972D01*
X1151753Y1026366D02*
X1157107Y1026366D01*
X1157107Y1028760D02*
X1151753Y1028760D01*
X1151753Y1031154D02*
X1157107Y1031154D01*
D14*
X1136650Y1027430D03*
X1162050Y1027430D03*
X952500Y716280D03*
X977900Y716280D03*
D18*
X1257300Y1021080D03*
D13*
X756148Y1074283D02*
X756148Y1079891D01*
X767852Y1079891D01*
X767852Y1074283D01*
X756148Y1074283D01*
X756148Y1076677D02*
X767852Y1076677D01*
X767852Y1079071D02*
X756148Y1079071D01*
X756148Y1069477D02*
X756148Y1063869D01*
X756148Y1069477D02*
X767852Y1069477D01*
X767852Y1063869D01*
X756148Y1063869D01*
X756148Y1066263D02*
X767852Y1066263D01*
X767852Y1068657D02*
X756148Y1068657D01*
X1237752Y1041283D02*
X1237752Y1035929D01*
X1226048Y1035929D01*
X1226048Y1041283D01*
X1237752Y1041283D01*
X1237752Y1038323D02*
X1226048Y1038323D01*
X1226048Y1040717D02*
X1237752Y1040717D01*
X1237752Y1044057D02*
X1237752Y1049411D01*
X1237752Y1044057D02*
X1226048Y1044057D01*
X1226048Y1049411D01*
X1237752Y1049411D01*
X1237752Y1046451D02*
X1226048Y1046451D01*
X1226048Y1048845D02*
X1237752Y1048845D01*
X985911Y944382D02*
X980303Y944382D01*
X985911Y944382D02*
X985911Y932678D01*
X980303Y932678D01*
X980303Y944382D01*
X980303Y935072D02*
X985911Y935072D01*
X985911Y937466D02*
X980303Y937466D01*
X980303Y939860D02*
X985911Y939860D01*
X985911Y942254D02*
X980303Y942254D01*
X975497Y944382D02*
X969889Y944382D01*
X975497Y944382D02*
X975497Y932678D01*
X969889Y932678D01*
X969889Y944382D01*
X969889Y935072D02*
X975497Y935072D01*
X975497Y937466D02*
X969889Y937466D01*
X969889Y939860D02*
X975497Y939860D01*
X975497Y942254D02*
X969889Y942254D01*
X969889Y958078D02*
X975497Y958078D01*
X969889Y958078D02*
X969889Y969782D01*
X975497Y969782D01*
X975497Y958078D01*
X975497Y960472D02*
X969889Y960472D01*
X969889Y962866D02*
X975497Y962866D01*
X975497Y965260D02*
X969889Y965260D01*
X969889Y967654D02*
X975497Y967654D01*
X980303Y958078D02*
X985911Y958078D01*
X980303Y958078D02*
X980303Y969782D01*
X985911Y969782D01*
X985911Y958078D01*
X985911Y960472D02*
X980303Y960472D01*
X980303Y962866D02*
X985911Y962866D01*
X985911Y965260D02*
X980303Y965260D01*
X980303Y967654D02*
X985911Y967654D01*
X975497Y983478D02*
X969889Y983478D01*
X969889Y995182D01*
X975497Y995182D01*
X975497Y983478D01*
X975497Y985872D02*
X969889Y985872D01*
X969889Y988266D02*
X975497Y988266D01*
X975497Y990660D02*
X969889Y990660D01*
X969889Y993054D02*
X975497Y993054D01*
X980303Y983478D02*
X985911Y983478D01*
X980303Y983478D02*
X980303Y995182D01*
X985911Y995182D01*
X985911Y983478D01*
X985911Y985872D02*
X980303Y985872D01*
X980303Y988266D02*
X985911Y988266D01*
X985911Y990660D02*
X980303Y990660D01*
X980303Y993054D02*
X985911Y993054D01*
X975497Y1008878D02*
X969889Y1008878D01*
X969889Y1020582D01*
X975497Y1020582D01*
X975497Y1008878D01*
X975497Y1011272D02*
X969889Y1011272D01*
X969889Y1013666D02*
X975497Y1013666D01*
X975497Y1016060D02*
X969889Y1016060D01*
X969889Y1018454D02*
X975497Y1018454D01*
X980303Y1008878D02*
X985911Y1008878D01*
X980303Y1008878D02*
X980303Y1020582D01*
X985911Y1020582D01*
X985911Y1008878D01*
X985911Y1011272D02*
X980303Y1011272D01*
X980303Y1013666D02*
X985911Y1013666D01*
X985911Y1016060D02*
X980303Y1016060D01*
X980303Y1018454D02*
X985911Y1018454D01*
X975497Y1034278D02*
X969889Y1034278D01*
X969889Y1045982D01*
X975497Y1045982D01*
X975497Y1034278D01*
X975497Y1036672D02*
X969889Y1036672D01*
X969889Y1039066D02*
X975497Y1039066D01*
X975497Y1041460D02*
X969889Y1041460D01*
X969889Y1043854D02*
X975497Y1043854D01*
X980303Y1034278D02*
X985911Y1034278D01*
X980303Y1034278D02*
X980303Y1045982D01*
X985911Y1045982D01*
X985911Y1034278D01*
X985911Y1036672D02*
X980303Y1036672D01*
X980303Y1039066D02*
X985911Y1039066D01*
X985911Y1041460D02*
X980303Y1041460D01*
X980303Y1043854D02*
X985911Y1043854D01*
D16*
X-84658Y1146810D03*
X1519758Y1146810D03*
D19*
X-93713Y63500D02*
X-93710Y63722D01*
X-93702Y63944D01*
X-93688Y64166D01*
X-93669Y64388D01*
X-93645Y64608D01*
X-93615Y64829D01*
X-93580Y65048D01*
X-93539Y65267D01*
X-93493Y65484D01*
X-93442Y65700D01*
X-93385Y65915D01*
X-93323Y66129D01*
X-93256Y66340D01*
X-93184Y66551D01*
X-93106Y66759D01*
X-93024Y66965D01*
X-92936Y67169D01*
X-92844Y67372D01*
X-92746Y67571D01*
X-92644Y67768D01*
X-92537Y67963D01*
X-92425Y68155D01*
X-92308Y68344D01*
X-92187Y68531D01*
X-92061Y68714D01*
X-91931Y68894D01*
X-91796Y69071D01*
X-91658Y69244D01*
X-91515Y69414D01*
X-91367Y69581D01*
X-91216Y69744D01*
X-91061Y69903D01*
X-90902Y70058D01*
X-90739Y70209D01*
X-90572Y70357D01*
X-90402Y70500D01*
X-90229Y70638D01*
X-90052Y70773D01*
X-89872Y70903D01*
X-89689Y71029D01*
X-89502Y71150D01*
X-89313Y71267D01*
X-89121Y71379D01*
X-88926Y71486D01*
X-88729Y71588D01*
X-88530Y71686D01*
X-88327Y71778D01*
X-88123Y71866D01*
X-87917Y71948D01*
X-87709Y72026D01*
X-87498Y72098D01*
X-87287Y72165D01*
X-87073Y72227D01*
X-86858Y72284D01*
X-86642Y72335D01*
X-86425Y72381D01*
X-86206Y72422D01*
X-85987Y72457D01*
X-85766Y72487D01*
X-85546Y72511D01*
X-85324Y72530D01*
X-85102Y72544D01*
X-84880Y72552D01*
X-84658Y72555D01*
X-84436Y72552D01*
X-84214Y72544D01*
X-83992Y72530D01*
X-83770Y72511D01*
X-83550Y72487D01*
X-83329Y72457D01*
X-83110Y72422D01*
X-82891Y72381D01*
X-82674Y72335D01*
X-82458Y72284D01*
X-82243Y72227D01*
X-82029Y72165D01*
X-81818Y72098D01*
X-81607Y72026D01*
X-81399Y71948D01*
X-81193Y71866D01*
X-80989Y71778D01*
X-80786Y71686D01*
X-80587Y71588D01*
X-80390Y71486D01*
X-80195Y71379D01*
X-80003Y71267D01*
X-79814Y71150D01*
X-79627Y71029D01*
X-79444Y70903D01*
X-79264Y70773D01*
X-79087Y70638D01*
X-78914Y70500D01*
X-78744Y70357D01*
X-78577Y70209D01*
X-78414Y70058D01*
X-78255Y69903D01*
X-78100Y69744D01*
X-77949Y69581D01*
X-77801Y69414D01*
X-77658Y69244D01*
X-77520Y69071D01*
X-77385Y68894D01*
X-77255Y68714D01*
X-77129Y68531D01*
X-77008Y68344D01*
X-76891Y68155D01*
X-76779Y67963D01*
X-76672Y67768D01*
X-76570Y67571D01*
X-76472Y67372D01*
X-76380Y67169D01*
X-76292Y66965D01*
X-76210Y66759D01*
X-76132Y66551D01*
X-76060Y66340D01*
X-75993Y66129D01*
X-75931Y65915D01*
X-75874Y65700D01*
X-75823Y65484D01*
X-75777Y65267D01*
X-75736Y65048D01*
X-75701Y64829D01*
X-75671Y64608D01*
X-75647Y64388D01*
X-75628Y64166D01*
X-75614Y63944D01*
X-75606Y63722D01*
X-75603Y63500D01*
X-75606Y63278D01*
X-75614Y63056D01*
X-75628Y62834D01*
X-75647Y62612D01*
X-75671Y62392D01*
X-75701Y62171D01*
X-75736Y61952D01*
X-75777Y61733D01*
X-75823Y61516D01*
X-75874Y61300D01*
X-75931Y61085D01*
X-75993Y60871D01*
X-76060Y60660D01*
X-76132Y60449D01*
X-76210Y60241D01*
X-76292Y60035D01*
X-76380Y59831D01*
X-76472Y59628D01*
X-76570Y59429D01*
X-76672Y59232D01*
X-76779Y59037D01*
X-76891Y58845D01*
X-77008Y58656D01*
X-77129Y58469D01*
X-77255Y58286D01*
X-77385Y58106D01*
X-77520Y57929D01*
X-77658Y57756D01*
X-77801Y57586D01*
X-77949Y57419D01*
X-78100Y57256D01*
X-78255Y57097D01*
X-78414Y56942D01*
X-78577Y56791D01*
X-78744Y56643D01*
X-78914Y56500D01*
X-79087Y56362D01*
X-79264Y56227D01*
X-79444Y56097D01*
X-79627Y55971D01*
X-79814Y55850D01*
X-80003Y55733D01*
X-80195Y55621D01*
X-80390Y55514D01*
X-80587Y55412D01*
X-80786Y55314D01*
X-80989Y55222D01*
X-81193Y55134D01*
X-81399Y55052D01*
X-81607Y54974D01*
X-81818Y54902D01*
X-82029Y54835D01*
X-82243Y54773D01*
X-82458Y54716D01*
X-82674Y54665D01*
X-82891Y54619D01*
X-83110Y54578D01*
X-83329Y54543D01*
X-83550Y54513D01*
X-83770Y54489D01*
X-83992Y54470D01*
X-84214Y54456D01*
X-84436Y54448D01*
X-84658Y54445D01*
X-84880Y54448D01*
X-85102Y54456D01*
X-85324Y54470D01*
X-85546Y54489D01*
X-85766Y54513D01*
X-85987Y54543D01*
X-86206Y54578D01*
X-86425Y54619D01*
X-86642Y54665D01*
X-86858Y54716D01*
X-87073Y54773D01*
X-87287Y54835D01*
X-87498Y54902D01*
X-87709Y54974D01*
X-87917Y55052D01*
X-88123Y55134D01*
X-88327Y55222D01*
X-88530Y55314D01*
X-88729Y55412D01*
X-88926Y55514D01*
X-89121Y55621D01*
X-89313Y55733D01*
X-89502Y55850D01*
X-89689Y55971D01*
X-89872Y56097D01*
X-90052Y56227D01*
X-90229Y56362D01*
X-90402Y56500D01*
X-90572Y56643D01*
X-90739Y56791D01*
X-90902Y56942D01*
X-91061Y57097D01*
X-91216Y57256D01*
X-91367Y57419D01*
X-91515Y57586D01*
X-91658Y57756D01*
X-91796Y57929D01*
X-91931Y58106D01*
X-92061Y58286D01*
X-92187Y58469D01*
X-92308Y58656D01*
X-92425Y58845D01*
X-92537Y59037D01*
X-92644Y59232D01*
X-92746Y59429D01*
X-92844Y59628D01*
X-92936Y59831D01*
X-93024Y60035D01*
X-93106Y60241D01*
X-93184Y60449D01*
X-93256Y60660D01*
X-93323Y60871D01*
X-93385Y61085D01*
X-93442Y61300D01*
X-93493Y61516D01*
X-93539Y61733D01*
X-93580Y61952D01*
X-93615Y62171D01*
X-93645Y62392D01*
X-93669Y62612D01*
X-93688Y62834D01*
X-93702Y63056D01*
X-93710Y63278D01*
X-93713Y63500D01*
D20*
X-84658Y63500D03*
M02*
