M48
;GenerationSoftware,Autodesk,EAGLE,9.6.2*%
;CreationDate,2022-05-11T17:34:30Z*%
FMAT,2
ICI,OFF
METRIC,TZ,000.000
T9C0.305
T8C0.350
T7C0.381
T6C0.432
T5C0.650
T4C1.000
T3C1.016
T2C2.032
T1C3.302
%
G90
M71
T1
X140970Y38100
X90170Y53340
X88900Y64008
X140970Y69088
X13970Y64008
X66040Y69088
X66040Y97028
X13970Y5080
X66040Y10160
X66040Y38100
X15240Y53340
X15240Y112268
X140970Y97028
X90170Y112268
X88900Y5080
X140970Y10160
T2
X81534Y70104
X2032Y70104
X6604Y70104
X76962Y11176
X81534Y11176
X76962Y70104
X2032Y11176
X6604Y11176
T3
X135890Y57150
X133350Y57150
X130810Y57150
X128270Y57150
X97790Y71628
X125730Y57150
X123190Y57150
X120650Y57150
X113665Y43815
X116205Y43815
X95250Y12700
X97790Y12700
X18796Y116078
X21336Y116078
X23876Y116078
X26416Y116078
X28956Y116078
X31496Y116078
X34036Y116078
X36576Y116078
X39116Y116078
X41656Y116078
X27940Y60198
X30480Y60198
X33020Y60198
X35560Y60198
X38100Y60198
X40640Y60198
X43180Y60198
X45720Y60198
X50800Y60198
X53340Y60198
X55880Y60198
X58420Y60198
X41275Y43815
X60960Y60198
X63500Y60198
X63500Y116078
X60960Y116078
X58420Y116078
X55880Y116078
X53340Y116078
X50800Y116078
X48260Y116078
X45720Y116078
X28956Y57150
X38735Y102743
X41275Y102743
X20320Y71628
X22860Y71628
X93726Y116078
X96266Y116078
X98806Y116078
X101346Y116078
X103886Y116078
X106426Y116078
X108966Y116078
X111506Y116078
X114046Y116078
X102870Y60198
X105410Y60198
X107950Y60198
X110490Y60198
X113030Y60198
X115570Y60198
X118110Y60198
X120650Y60198
X125730Y60198
X128270Y60198
X130810Y60198
X133350Y60198
X135890Y60198
X138430Y60198
X138430Y116078
X18796Y57150
X21336Y57150
X23876Y57150
X26416Y57150
X31496Y57150
X34036Y57150
X36576Y57150
X39116Y57150
X41656Y57150
X27940Y1270
X30480Y1270
X33020Y1270
X35560Y1270
X38100Y1270
X40640Y1270
X43180Y1270
X45720Y1270
X50800Y1270
X53340Y1270
X55880Y1270
X58420Y1270
X60960Y1270
X63500Y1270
X63500Y57150
X60960Y57150
X58420Y57150
X55880Y57150
X53340Y57150
X50800Y57150
X48260Y57150
X45720Y57150
X135890Y116078
X133350Y116078
X130810Y116078
X128270Y116078
X125730Y116078
X123190Y116078
X120650Y116078
X113665Y102743
X116205Y102743
X95250Y71628
X38735Y43815
X116586Y116078
X20320Y12700
X22860Y12700
X93726Y57150
X96266Y57150
X98806Y57150
X101346Y57150
X103886Y57150
X106426Y57150
X108966Y57150
X111506Y57150
X114046Y57150
X116586Y57150
X102870Y1270
X105410Y1270
X107950Y1270
X110490Y1270
X113030Y1270
X115570Y1270
X118110Y1270
X120650Y1270
X125730Y1270
X128270Y1270
X130810Y1270
X133350Y1270
X135890Y1270
X138430Y1270
X138430Y57150
T4
X4064Y83183
X78994Y32255
X78994Y24255
X4064Y32255
X78994Y83183
X4064Y24255
X78994Y91183
X4064Y91183
T5
X4905Y97948
X4905Y103728
X79835Y39020
X79835Y44800
X4905Y44800
X4905Y39020
X79835Y97948
X79835Y103728
T6
X52705Y95758
X48895Y36830
X48895Y38100
X50165Y36830
X50165Y38100
X51435Y36830
X51435Y38100
X52705Y36830
X52705Y38100
X53975Y36830
X53975Y38100
X52705Y97028
X53975Y95758
X53975Y97028
X127635Y36830
X127635Y38100
X128905Y36830
X128905Y38100
X123825Y36830
X123825Y38100
X125095Y36830
X125095Y38100
X126365Y36830
X126365Y38100
X48895Y95758
X48895Y97028
X50165Y95758
X50165Y97028
X123825Y95758
X123825Y97028
X125095Y95758
X125095Y97028
X126365Y95758
X126365Y97028
X127635Y95758
X127635Y97028
X128905Y95758
X128905Y97028
X51435Y95758
X51435Y97028
T7
X36830Y8636
X36830Y7620
X38100Y39116
X111760Y8636
X111760Y7620
X113030Y39116
X38100Y98044
X17018Y37084
X36830Y67564
X36830Y66548
X102616Y19304
X91948Y37084
X27686Y78232
X17018Y96012
X111760Y67564
X27686Y19304
X111760Y66548
X113030Y98044
X91948Y96012
X102616Y78232
T8
X24511Y42545
X24511Y40005
X24498Y34938
X35528Y45180
X24511Y37465
X24511Y45085
X78105Y37592
X99441Y42545
X99441Y40005
X33274Y100203
X35528Y104108
X99428Y34938
X3175Y96520
X99441Y37465
X24511Y101473
X24511Y98933
X24498Y93866
X24511Y96393
X24511Y104013
X99441Y45085
X108204Y100203
X110458Y45180
X108204Y41275
X78105Y46228
X99441Y104013
X3175Y105156
X99441Y96393
X99428Y93866
X3175Y37592
X99441Y101473
X3175Y46228
X78105Y96520
X78105Y105156
X33274Y41275
X110458Y104108
X99441Y98933
T9
X29210Y20320
X29083Y28829
X30734Y15494
X33020Y21590
X39116Y28956
X18796Y39624
X10160Y19050
X7112Y39624
X7112Y44323
X27940Y25400
X27432Y32766
X33020Y30226
X33020Y22860
X29210Y21336
X31496Y11176
X59690Y41910
X57658Y47244
X59690Y47244
X18542Y13716
X41910Y2794
X48260Y7620
X41910Y7620
X44958Y20066
X34798Y19558
X34798Y15240
X34798Y25146
X26670Y17145
X31115Y28194
X39116Y25908
X29210Y11430
X38735Y11430
X11430Y9652
X34036Y46355
X59690Y13589
X10795Y26670
X7620Y1778
X39751Y32766
X39243Y35306
X34798Y27686
X34163Y36195
X80010Y5334
X107950Y27940
X98552Y6350
X77978Y7620
X79248Y7620
X76708Y7620
X85090Y762
X82550Y762
X93726Y35306
X86614Y46482
X95123Y32004
X113792Y31750
X134620Y26670
X134620Y25400
X134620Y24130
X134620Y22860
X134620Y21590
X134620Y20320
X134620Y19050
X129540Y21590
X129540Y20320
X129540Y19050
X132080Y21590
X132080Y20320
X132080Y19050
X132080Y25400
X132080Y24130
X132080Y26670
X82296Y45466
X82423Y37465
X116840Y11430
X123190Y11430
X121920Y11430
X114300Y15240
X118110Y16510
X114681Y20320
X91440Y19050
X90170Y19050
X88900Y19050
X132080Y39370
X125730Y44704
X134620Y52070
X107696Y49530
X105156Y49530
X110236Y49530
X129540Y52070
X132080Y52070
X101219Y8763
X95250Y1905
X96520Y1905
X97790Y1905
X83820Y22860
X85090Y22860
X83820Y21590
X85090Y21590
X77470Y26670
X77470Y27940
X77470Y29210
X77470Y30480
X86614Y762
X85090Y1778
X99807Y34100
X113792Y32766
X113792Y30734
X82550Y22860
X82550Y21590
X137160Y2540
X134620Y2540
X132080Y2540
X129540Y2540
X127000Y2540
X139700Y2540
X124460Y2540
X121920Y2540
X119380Y2540
X137160Y55880
X134620Y55880
X132080Y55880
X129540Y55880
X127000Y55880
X139700Y55880
X139700Y50165
X137414Y49530
X114300Y2159
X111760Y2159
X109220Y2159
X106680Y2159
X104140Y2159
X101600Y2159
X124460Y56261
X121920Y56261
X119380Y56261
X115316Y56261
X117856Y56261
X112776Y56261
X110236Y56261
X107696Y56261
X105156Y56261
X102616Y56261
X100076Y56261
X97536Y56261
X94996Y56261
X92456Y56261
X88900Y10160
X136525Y34544
X134620Y12700
X131445Y13716
X122682Y21082
X127762Y18415
X125476Y22733
X120523Y27940
X128143Y28702
X131445Y28702
X136779Y39370
X114300Y23622
X116840Y8636
X101727Y18542
X80010Y57150
X80645Y50800
X100076Y51689
X89154Y36449
X103378Y26289
X105029Y14605
X125349Y13589
X91821Y44450
X97536Y54229
X121920Y52070
X119380Y40640
X118999Y34798
X116586Y30734
X92456Y13970
X124460Y49149
X119126Y43942
X103759Y41275
X109855Y42545
X104140Y30861
X94488Y47117
X103632Y36195
X107950Y32893
X114808Y26416
X135128Y48260
X117856Y47879
X85725Y30607
X82550Y31750
X114935Y42672
X88900Y49530
X114935Y46609
X86360Y53594
X92710Y53340
X101600Y43815
X95885Y37465
X93980Y41910
X109728Y45720
X96520Y17780
X83058Y40513
X83058Y42164
X79248Y41148
X87884Y42164
X88138Y57150
X109347Y11176
X120396Y47625
X88646Y48514
X117475Y36322
X115316Y36322
X119253Y31750
X120396Y29464
X130302Y39116
X129286Y39878
X78740Y55118
X132842Y37084
X134874Y37084
X134874Y39624
X134747Y34544
X85090Y2921
X82550Y2921
X85725Y27940
X123190Y2794
X106680Y37465
X91694Y46482
X114046Y18669
X91440Y13462
X89154Y37592
X94996Y49784
X124460Y50038
X137160Y50800
X78740Y53086
X132334Y13208
X91186Y12192
X78740Y54102
X126873Y47752
X129540Y9398
X76200Y21336
X77216Y34036
X87884Y43434
X94488Y43434
X121920Y54356
X97536Y46990
X134366Y49022
X132080Y17526
X134620Y54356
X87884Y45466
X115316Y53340
X135890Y29210
X137160Y53340
X139700Y48768
X115951Y14986
X116510Y39827
X124460Y41808
X132080Y30480
X134366Y29464
X130048Y29464
X128778Y29464
X126238Y28956
X127508Y29464
X121920Y27940
X131064Y36576
X117856Y13208
X85725Y25654
X123190Y20066
X124460Y47752
X125476Y21844
X97536Y49530
X85725Y29464
X84582Y48514
X85090Y36068
X102362Y49530
X105156Y51308
X127254Y19812
X127000Y8382
X127000Y11430
X81026Y21590
X124460Y30480
X119126Y49530
X123190Y43434
X122682Y29718
X118872Y47752
X120120Y26416
X102616Y47879
X120523Y45720
X102870Y22860
X117856Y31242
X118364Y40640
X121920Y18796
X122809Y47117
X125730Y47752
X103530Y12700
X108077Y13970
X107950Y17780
X106045Y25908
X104140Y20320
X104013Y28829
X105664Y15494
X107950Y21590
X114046Y28956
X93726Y39624
X85090Y19050
X82042Y39624
X82042Y44323
X102870Y25400
X102362Y32766
X107950Y30226
X107950Y22860
X104140Y21336
X106426Y11176
X134620Y41910
X132588Y47244
X134620Y47244
X93472Y13716
X116840Y2794
X123190Y7620
X116840Y7620
X119888Y20066
X109728Y19558
X109728Y15240
X109728Y25146
X101600Y17145
X106045Y28194
X114046Y25908
X104140Y11430
X113665Y11430
X86360Y9652
X108966Y46355
X134620Y13589
X85725Y26670
X82550Y1778
X114681Y32766
X114173Y35306
X109728Y27686
X109093Y36195
X5080Y64262
X33020Y86868
X23622Y65278
X3048Y66548
X4318Y66548
X1778Y66548
X10160Y59690
X7620Y59690
X18796Y94234
X11684Y105410
X20193Y90932
X38862Y90678
X59690Y85598
X59690Y84328
X59690Y83058
X59690Y81788
X59690Y80518
X59690Y79248
X59690Y77978
X54610Y80518
X54610Y79248
X54610Y77978
X57150Y80518
X57150Y79248
X57150Y77978
X57150Y84328
X57150Y83058
X57150Y85598
X7366Y104394
X7493Y96393
X41910Y70358
X48260Y70358
X46990Y70358
X39370Y74168
X43180Y75438
X39751Y79248
X16510Y77978
X15240Y77978
X13970Y77978
X57150Y98298
X50800Y103632
X59690Y110998
X32766Y108458
X30226Y108458
X35306Y108458
X54610Y110998
X57150Y110998
X26289Y67691
X20320Y60833
X21590Y60833
X22860Y60833
X8890Y81788
X10160Y81788
X8890Y80518
X10160Y80518
X2540Y85598
X2540Y86868
X2540Y88138
X2540Y89408
X11684Y59690
X10160Y60706
X24877Y93027
X38862Y91694
X38862Y89662
X7620Y81788
X7620Y80518
X62230Y61468
X59690Y61468
X57150Y61468
X54610Y61468
X52070Y61468
X64770Y61468
X49530Y61468
X46990Y61468
X44450Y61468
X62230Y114808
X59690Y114808
X57150Y114808
X54610Y114808
X52070Y114808
X64770Y114808
X64770Y109093
X62484Y108458
X39370Y61087
X36830Y61087
X34290Y61087
X31750Y61087
X29210Y61087
X26670Y61087
X49530Y115189
X46990Y115189
X44450Y115189
X40386Y115189
X42926Y115189
X37846Y115189
X35306Y115189
X32766Y115189
X30226Y115189
X27686Y115189
X25146Y115189
X22606Y115189
X20066Y115189
X17526Y115189
X13970Y69088
X61595Y93472
X59690Y71628
X56515Y72644
X47752Y80010
X52832Y77343
X48260Y2794
X45593Y86868
X53213Y87630
X56515Y87630
X61849Y98298
X39370Y82550
X41910Y67564
X26797Y77470
X5080Y116078
X5715Y109728
X25146Y110617
X14224Y95377
X28448Y85217
X30099Y73533
X50419Y72517
X16891Y103378
X22606Y113157
X46990Y110998
X44450Y99568
X44069Y93726
X41656Y89662
X17526Y72898
X49530Y108077
X44196Y102870
X28829Y100203
X34925Y101473
X29210Y89789
X19558Y106045
X28702Y95123
X33020Y91821
X39878Y85344
X60198Y107188
X42926Y106807
X10795Y89535
X7620Y90678
X40005Y101600
X13970Y108458
X40005Y105537
X11430Y112522
X17780Y112268
X26670Y102743
X20955Y96393
X19050Y100838
X34798Y104648
X21590Y76708
X8128Y99441
X8128Y101092
X4318Y100076
X12954Y101092
X13208Y116078
X34417Y70104
X45466Y106553
X13716Y107442
X42545Y95250
X40386Y95250
X44323Y90678
X45466Y88392
X55372Y98044
X54356Y98806
X3810Y114046
X57912Y96012
X59944Y96012
X59944Y98552
X59817Y93472
X10160Y61849
X7620Y61849
X10795Y86868
X48260Y61722
X31750Y96393
X16764Y105410
X39116Y77597
X5080Y5334
X16510Y72390
X14224Y96520
X20066Y108712
X49530Y108966
X62230Y109728
X3810Y112014
X57404Y72136
X16256Y71120
X3810Y113030
X51943Y106680
X54610Y68326
X1270Y80264
X2286Y92964
X12954Y102362
X19558Y102362
X46990Y113284
X22606Y105918
X59436Y107950
X57150Y76454
X59690Y113284
X12954Y104394
X40386Y112268
X60960Y88138
X62230Y112268
X64770Y107696
X41021Y73914
X41580Y98755
X49530Y100736
X57150Y89408
X59436Y88392
X55118Y88392
X53848Y88392
X51308Y87884
X52578Y88392
X46990Y86868
X56134Y95504
X42926Y72136
X10795Y84582
X33020Y27940
X48260Y78994
X49530Y106680
X50546Y80772
X22606Y108458
X10795Y88392
X9652Y107442
X10160Y94996
X27432Y108458
X30226Y110236
X52324Y78740
X52070Y67310
X52070Y70358
X6096Y80518
X49530Y89408
X44196Y108458
X48260Y102362
X47752Y88646
X43942Y106680
X45190Y85344
X27686Y106807
X45593Y104648
X27940Y81788
X42926Y90170
X43434Y99568
X46990Y77724
X47879Y106045
X50800Y106680
X28600Y71628
X33147Y72898
X33020Y76708
X31115Y84836
X29210Y79248
X29083Y87757
X30734Y74422
X33020Y80518
X39116Y87884
X18796Y98552
X10160Y77978
X7112Y98552
X7112Y103251
X27940Y84328
X27432Y91694
X33020Y89154
X33020Y81788
X29210Y80264
X31496Y70104
X59690Y100838
X57658Y106172
X59690Y106172
X18542Y72644
X41910Y61722
X48260Y66548
X41910Y66548
X44958Y78994
X34798Y78486
X34798Y74168
X34798Y84074
X26670Y76073
X31115Y87122
X39116Y84836
X29210Y70358
X38735Y70358
X23622Y6350
X11430Y68580
X34036Y105283
X59690Y72517
X10795Y85598
X7620Y60706
X39751Y91694
X39243Y94234
X34798Y86614
X34163Y95123
X3048Y7620
X4318Y7620
X1778Y7620
X10160Y762
X7620Y762
X18796Y35306
X11684Y46482
X20193Y32004
X80010Y64262
X38862Y31750
X59690Y26670
X59690Y25400
X107950Y86868
X98552Y65278
X77978Y66548
X79248Y66548
X76708Y66548
X85090Y59690
X82550Y59690
X93726Y94234
X86614Y105410
X95123Y90932
X113792Y90678
X134620Y85598
X134620Y84328
X134620Y83058
X134620Y81788
X134620Y80518
X134620Y79248
X134620Y77978
X129540Y80518
X129540Y79248
X129540Y77978
X132080Y80518
X132080Y79248
X132080Y77978
X132080Y84328
X132080Y83058
X132080Y85598
X82296Y104394
X82423Y96393
X116840Y70358
X123190Y70358
X121920Y70358
X114300Y74168
X118110Y75438
X114681Y79248
X91440Y77978
X90170Y77978
X88900Y77978
X132080Y98298
X125730Y103632
X134620Y110998
X107696Y108458
X105156Y108458
X110236Y108458
X129540Y110998
X132080Y110998
X101219Y67691
X95250Y60833
X96520Y60833
X97790Y60833
X83820Y81788
X85090Y81788
X83820Y80518
X85090Y80518
X77470Y85598
X77470Y86868
X77470Y88138
X77470Y89408
X86614Y59690
X85090Y60706
X99807Y93027
X113792Y91694
X113792Y89662
X82550Y81788
X82550Y80518
X137160Y61468
X134620Y61468
X132080Y61468
X129540Y61468
X127000Y61468
X139700Y61468
X124460Y61468
X121920Y61468
X119380Y61468
X137160Y114808
X134620Y114808
X132080Y114808
X129540Y114808
X127000Y114808
X139700Y114808
X139700Y109093
X137414Y108458
X114300Y61087
X111760Y61087
X109220Y61087
X106680Y61087
X104140Y61087
X101600Y61087
X124460Y115189
X121920Y115189
X119380Y115189
X115316Y115189
X117856Y115189
X112776Y115189
X110236Y115189
X107696Y115189
X105156Y115189
X102616Y115189
X100076Y115189
X97536Y115189
X94996Y115189
X92456Y115189
X88900Y69088
X136525Y93472
X134620Y71628
X131445Y72644
X122682Y80010
X127762Y77343
X125476Y81661
X120523Y86868
X128143Y87630
X131445Y87630
X136779Y98298
X114300Y82550
X116840Y67564
X101727Y77470
X80010Y116078
X80645Y109728
X100076Y110617
X89154Y95377
X103378Y85217
X105029Y73533
X125349Y72517
X91821Y103378
X97536Y113157
X121920Y110998
X119380Y99568
X118999Y93726
X116586Y89662
X92456Y72898
X124460Y108077
X119126Y102870
X103759Y100203
X109855Y101473
X104140Y89789
X94488Y106045
X103632Y95123
X107950Y91821
X114808Y85344
X135128Y107188
X117856Y106807
X85725Y89535
X82550Y90678
X114935Y101600
X88900Y108458
X114935Y105537
X86360Y112522
X92710Y112268
X101600Y102743
X95885Y96393
X93980Y100838
X109728Y104648
X96520Y76708
X83058Y99441
X83058Y101092
X79248Y100076
X87884Y101092
X88138Y116078
X109347Y70104
X120396Y106553
X88646Y107442
X117475Y95250
X115316Y95250
X119253Y90678
X59690Y24130
X130302Y98044
X129286Y98806
X78740Y114046
X132842Y96012
X134874Y96012
X134874Y98552
X134747Y93472
X85090Y61849
X82550Y61849
X85725Y86868
X123190Y61722
X106680Y96393
X91694Y105410
X114046Y77597
X59690Y22860
X91440Y72390
X89154Y96520
X94996Y108712
X124460Y108966
X137160Y109728
X78740Y112014
X132334Y72136
X91186Y71120
X78740Y113030
X126873Y106680
X129540Y68326
X76200Y80264
X77216Y92964
X87884Y102362
X94488Y102362
X121920Y113284
X97536Y105918
X134366Y107950
X132080Y76454
X134620Y113284
X87884Y104394
X115316Y112268
X135890Y88138
X137160Y112268
X139700Y107696
X115951Y73914
X116510Y98755
X124460Y100736
X132080Y89408
X134366Y88392
X130048Y88392
X128778Y88392
X126238Y87884
X127508Y88392
X121920Y86868
X131064Y95504
X117856Y72136
X85725Y84582
X59690Y21590
X123190Y78994
X124460Y106680
X125476Y80772
X97536Y108458
X85725Y88392
X84582Y107442
X85090Y94996
X102362Y108458
X105156Y110236
X127254Y78740
X127000Y67310
X127000Y70358
X81026Y80518
X124460Y89408
X119126Y108458
X123190Y102362
X122682Y88646
X118872Y106680
X120120Y85344
X102616Y106807
X120523Y104648
X102870Y81788
X117856Y90170
X118364Y99568
X121920Y77724
X122809Y106045
X125730Y106680
X103530Y71628
X108077Y72898
X107950Y76708
X106045Y84836
X104140Y79248
X104013Y87757
X105664Y74422
X107950Y80518
X114046Y87884
X93726Y98552
X85090Y77978
X82042Y98552
X82042Y103251
X102870Y84328
X102362Y91694
X107950Y89154
X107950Y81788
X104140Y80264
X106426Y70104
X134620Y100838
X132588Y106172
X134620Y106172
X93472Y72644
X116840Y61722
X123190Y66548
X116840Y66548
X119888Y78994
X109728Y78486
X109728Y74168
X109728Y84074
X101600Y76073
X106045Y87122
X114046Y84836
X104140Y70358
X113665Y70358
X59690Y20320
X86360Y68580
X108966Y105283
X134620Y72517
X85725Y85598
X82550Y60706
X114681Y91694
X114173Y94234
X109728Y86614
X109093Y95123
X59690Y19050
X54610Y21590
X54610Y20320
X54610Y19050
X57150Y21590
X57150Y20320
X57150Y19050
X57150Y25400
X57150Y24130
X57150Y26670
X7366Y45466
X7493Y37465
X41910Y11430
X48260Y11430
X46990Y11430
X39370Y15240
X43180Y16510
X39751Y20320
X16510Y19050
X15240Y19050
X13970Y19050
X57150Y39370
X50800Y44704
X59690Y52070
X32766Y49530
X30226Y49530
X35306Y49530
X54610Y52070
X57150Y52070
X26289Y8763
X20320Y1905
X21590Y1905
X22860Y1905
X8890Y22860
X10160Y22860
X8890Y21590
X10160Y21590
X2540Y26670
X2540Y27940
X2540Y29210
X2540Y30480
X11684Y762
X10160Y1778
X24877Y34100
X38862Y32766
X38862Y30734
X7620Y22860
X7620Y21590
X62230Y2540
X59690Y2540
X57150Y2540
X54610Y2540
X50546Y81661
X52070Y2540
X64770Y2540
X49530Y2540
X46990Y2540
X44450Y2540
X62230Y55880
X59690Y55880
X57150Y55880
X54610Y55880
X52070Y55880
X64770Y55880
X64770Y50165
X62484Y49530
X39370Y2159
X36830Y2159
X34290Y2159
X31750Y2159
X29210Y2159
X26670Y2159
X49530Y56261
X46990Y56261
X44450Y56261
X40386Y56261
X42926Y56261
X37846Y56261
X35306Y56261
X32766Y56261
X30226Y56261
X27686Y56261
X25146Y56261
X22606Y56261
X20066Y56261
X17526Y56261
X13970Y10160
X61595Y34544
X59690Y12700
X56515Y13716
X47752Y21082
X52832Y18415
X50546Y22733
X45593Y27940
X53213Y28702
X56515Y28702
X61849Y39370
X39370Y23622
X41910Y8636
X26797Y18542
X5080Y57150
X5715Y50800
X25146Y51689
X14224Y36449
X28448Y26289
X30099Y14605
X50419Y13589
X16891Y44450
X22606Y54229
X46990Y52070
X44450Y40640
X44069Y34798
X41656Y30734
X17526Y13970
X49530Y49149
X44196Y43942
X28829Y41275
X34925Y42545
X29210Y30861
X19558Y47117
X28702Y36195
X33020Y32893
X39878Y26416
X60198Y48260
X42926Y47879
X10795Y30607
X7620Y31750
X40005Y42672
X13970Y49530
X40005Y46609
X11430Y53594
X17780Y53340
X26670Y43815
X20955Y37465
X19050Y41910
X34798Y45720
X21590Y17780
X8128Y40513
X8128Y42164
X4318Y41148
X12954Y42164
X13208Y57150
X34417Y11176
X45466Y47625
X13716Y48514
X42545Y36322
X40386Y36322
X44323Y31750
X45466Y29464
X55372Y39116
X54356Y39878
X3810Y55118
X57912Y37084
X59944Y37084
X59944Y39624
X59817Y34544
X10160Y2921
X7620Y2921
X10795Y27940
X31750Y37465
X16764Y46482
X39116Y18669
X16510Y13462
X14224Y37592
X20066Y49784
X49530Y50038
X62230Y50800
X3810Y53086
X57404Y13208
X16256Y12192
X3810Y54102
X51943Y47752
X54610Y9398
X1270Y21336
X2286Y34036
X12954Y43434
X19558Y43434
X46990Y54356
X22606Y46990
X59436Y49022
X57150Y17526
X59690Y54356
X12954Y45466
X40386Y53340
X60960Y29210
X62230Y53340
X64770Y48768
X41021Y14986
X41580Y39827
X49530Y41808
X57150Y30480
X59436Y29464
X55118Y29464
X53848Y29464
X51308Y28956
X52578Y29464
X46990Y27940
X56134Y36576
X42926Y13208
X10795Y25654
X48260Y20066
X49530Y47752
X50546Y21844
X22606Y49530
X10795Y29464
X9652Y48514
X10160Y36068
X27432Y49530
X30226Y51308
X52324Y19812
X52070Y8382
X52070Y11430
X6096Y21590
X49530Y30480
X44196Y49530
X48260Y43434
X47752Y29718
X43942Y47752
X45190Y26416
X27686Y47879
X45593Y45720
X27940Y22860
X42926Y31242
X43434Y40640
X46990Y18796
X47879Y47117
X50800Y47752
X28600Y12700
X33147Y13970
X33020Y17780
X31115Y25908
X120396Y88392
M30