G04 EAGLE Gerber RS-274X export*
G75*
%MOMM*%
%FSLAX34Y34*%
%LPD*%
%INSoldermask Bottom*%
%IPPOS*%
%AMOC8*
5,1,8,0,0,1.08239X$1,22.5*%
G01*
%ADD10C,3.454400*%
%ADD11C,0.802400*%
%ADD12C,0.252575*%
%ADD13C,0.251966*%
%ADD14C,2.032000*%
%ADD15C,0.939800*%
%ADD16C,1.152400*%
%ADD17C,2.184400*%
%ADD18C,0.914400*%
%ADD19C,1.270000*%
%ADD20C,1.652400*%

G36*
X534735Y452132D02*
X534735Y452132D01*
X534801Y452134D01*
X534844Y452152D01*
X534891Y452160D01*
X534948Y452194D01*
X535008Y452219D01*
X535043Y452250D01*
X535084Y452275D01*
X535126Y452326D01*
X535174Y452370D01*
X535196Y452412D01*
X535225Y452449D01*
X535246Y452511D01*
X535277Y452570D01*
X535285Y452624D01*
X535297Y452661D01*
X535296Y452701D01*
X535304Y452755D01*
X535304Y456565D01*
X535293Y456630D01*
X535291Y456696D01*
X535273Y456739D01*
X535265Y456786D01*
X535231Y456843D01*
X535206Y456903D01*
X535175Y456938D01*
X535150Y456979D01*
X535099Y457021D01*
X535055Y457069D01*
X535013Y457091D01*
X534976Y457120D01*
X534914Y457141D01*
X534855Y457172D01*
X534801Y457180D01*
X534764Y457192D01*
X534724Y457191D01*
X534670Y457199D01*
X532130Y457199D01*
X532065Y457188D01*
X531999Y457186D01*
X531956Y457168D01*
X531909Y457160D01*
X531852Y457126D01*
X531792Y457101D01*
X531757Y457070D01*
X531716Y457045D01*
X531675Y456994D01*
X531626Y456950D01*
X531604Y456908D01*
X531575Y456871D01*
X531554Y456809D01*
X531523Y456750D01*
X531515Y456696D01*
X531503Y456659D01*
X531503Y456655D01*
X531503Y456654D01*
X531504Y456619D01*
X531496Y456565D01*
X531496Y452755D01*
X531507Y452690D01*
X531509Y452624D01*
X531527Y452581D01*
X531535Y452534D01*
X531569Y452477D01*
X531594Y452417D01*
X531625Y452382D01*
X531650Y452341D01*
X531701Y452300D01*
X531745Y452251D01*
X531787Y452229D01*
X531824Y452200D01*
X531886Y452179D01*
X531945Y452148D01*
X531999Y452140D01*
X532036Y452128D01*
X532076Y452129D01*
X532130Y452121D01*
X534670Y452121D01*
X534735Y452132D01*
G37*
G36*
X1273875Y452132D02*
X1273875Y452132D01*
X1273941Y452134D01*
X1273984Y452152D01*
X1274031Y452160D01*
X1274088Y452194D01*
X1274148Y452219D01*
X1274183Y452250D01*
X1274224Y452275D01*
X1274266Y452326D01*
X1274314Y452370D01*
X1274336Y452412D01*
X1274365Y452449D01*
X1274386Y452511D01*
X1274417Y452570D01*
X1274425Y452624D01*
X1274437Y452661D01*
X1274436Y452701D01*
X1274444Y452755D01*
X1274444Y456565D01*
X1274433Y456630D01*
X1274431Y456696D01*
X1274413Y456739D01*
X1274405Y456786D01*
X1274371Y456843D01*
X1274346Y456903D01*
X1274315Y456938D01*
X1274290Y456979D01*
X1274239Y457021D01*
X1274195Y457069D01*
X1274153Y457091D01*
X1274116Y457120D01*
X1274054Y457141D01*
X1273995Y457172D01*
X1273941Y457180D01*
X1273904Y457192D01*
X1273864Y457191D01*
X1273810Y457199D01*
X1271270Y457199D01*
X1271205Y457188D01*
X1271139Y457186D01*
X1271096Y457168D01*
X1271049Y457160D01*
X1270992Y457126D01*
X1270932Y457101D01*
X1270897Y457070D01*
X1270856Y457045D01*
X1270815Y456994D01*
X1270766Y456950D01*
X1270744Y456908D01*
X1270715Y456871D01*
X1270694Y456809D01*
X1270663Y456750D01*
X1270655Y456696D01*
X1270643Y456659D01*
X1270643Y456655D01*
X1270643Y456654D01*
X1270644Y456619D01*
X1270636Y456565D01*
X1270636Y452755D01*
X1270647Y452690D01*
X1270649Y452624D01*
X1270667Y452581D01*
X1270675Y452534D01*
X1270709Y452477D01*
X1270734Y452417D01*
X1270765Y452382D01*
X1270790Y452341D01*
X1270841Y452300D01*
X1270885Y452251D01*
X1270927Y452229D01*
X1270964Y452200D01*
X1271026Y452179D01*
X1271085Y452148D01*
X1271139Y452140D01*
X1271176Y452128D01*
X1271216Y452129D01*
X1271270Y452121D01*
X1273810Y452121D01*
X1273875Y452132D01*
G37*
G36*
X1299275Y452132D02*
X1299275Y452132D01*
X1299341Y452134D01*
X1299384Y452152D01*
X1299431Y452160D01*
X1299488Y452194D01*
X1299548Y452219D01*
X1299583Y452250D01*
X1299624Y452275D01*
X1299666Y452326D01*
X1299714Y452370D01*
X1299736Y452412D01*
X1299765Y452449D01*
X1299786Y452511D01*
X1299817Y452570D01*
X1299825Y452624D01*
X1299837Y452661D01*
X1299836Y452701D01*
X1299844Y452755D01*
X1299844Y456565D01*
X1299833Y456630D01*
X1299831Y456696D01*
X1299813Y456739D01*
X1299805Y456786D01*
X1299771Y456843D01*
X1299746Y456903D01*
X1299715Y456938D01*
X1299690Y456979D01*
X1299639Y457021D01*
X1299595Y457069D01*
X1299553Y457091D01*
X1299516Y457120D01*
X1299454Y457141D01*
X1299395Y457172D01*
X1299341Y457180D01*
X1299304Y457192D01*
X1299264Y457191D01*
X1299210Y457199D01*
X1296670Y457199D01*
X1296605Y457188D01*
X1296539Y457186D01*
X1296496Y457168D01*
X1296449Y457160D01*
X1296392Y457126D01*
X1296332Y457101D01*
X1296297Y457070D01*
X1296256Y457045D01*
X1296215Y456994D01*
X1296166Y456950D01*
X1296144Y456908D01*
X1296115Y456871D01*
X1296094Y456809D01*
X1296063Y456750D01*
X1296055Y456696D01*
X1296043Y456659D01*
X1296043Y456655D01*
X1296043Y456654D01*
X1296044Y456619D01*
X1296036Y456565D01*
X1296036Y452755D01*
X1296047Y452690D01*
X1296049Y452624D01*
X1296067Y452581D01*
X1296075Y452534D01*
X1296109Y452477D01*
X1296134Y452417D01*
X1296165Y452382D01*
X1296190Y452341D01*
X1296241Y452300D01*
X1296285Y452251D01*
X1296327Y452229D01*
X1296364Y452200D01*
X1296426Y452179D01*
X1296485Y452148D01*
X1296539Y452140D01*
X1296576Y452128D01*
X1296616Y452129D01*
X1296670Y452121D01*
X1299210Y452121D01*
X1299275Y452132D01*
G37*
G36*
X560135Y452132D02*
X560135Y452132D01*
X560201Y452134D01*
X560244Y452152D01*
X560291Y452160D01*
X560348Y452194D01*
X560408Y452219D01*
X560443Y452250D01*
X560484Y452275D01*
X560526Y452326D01*
X560574Y452370D01*
X560596Y452412D01*
X560625Y452449D01*
X560646Y452511D01*
X560677Y452570D01*
X560685Y452624D01*
X560697Y452661D01*
X560696Y452701D01*
X560704Y452755D01*
X560704Y456565D01*
X560693Y456630D01*
X560691Y456696D01*
X560673Y456739D01*
X560665Y456786D01*
X560631Y456843D01*
X560606Y456903D01*
X560575Y456938D01*
X560550Y456979D01*
X560499Y457021D01*
X560455Y457069D01*
X560413Y457091D01*
X560376Y457120D01*
X560314Y457141D01*
X560255Y457172D01*
X560201Y457180D01*
X560164Y457192D01*
X560124Y457191D01*
X560070Y457199D01*
X557530Y457199D01*
X557465Y457188D01*
X557399Y457186D01*
X557356Y457168D01*
X557309Y457160D01*
X557252Y457126D01*
X557192Y457101D01*
X557157Y457070D01*
X557116Y457045D01*
X557075Y456994D01*
X557026Y456950D01*
X557004Y456908D01*
X556975Y456871D01*
X556954Y456809D01*
X556923Y456750D01*
X556915Y456696D01*
X556903Y456659D01*
X556903Y456655D01*
X556903Y456654D01*
X556904Y456619D01*
X556896Y456565D01*
X556896Y452755D01*
X556907Y452690D01*
X556909Y452624D01*
X556927Y452581D01*
X556935Y452534D01*
X556969Y452477D01*
X556994Y452417D01*
X557025Y452382D01*
X557050Y452341D01*
X557101Y452300D01*
X557145Y452251D01*
X557187Y452229D01*
X557224Y452200D01*
X557286Y452179D01*
X557345Y452148D01*
X557399Y452140D01*
X557436Y452128D01*
X557476Y452129D01*
X557530Y452121D01*
X560070Y452121D01*
X560135Y452132D01*
G37*
G36*
X534735Y1041412D02*
X534735Y1041412D01*
X534801Y1041414D01*
X534844Y1041432D01*
X534891Y1041440D01*
X534948Y1041474D01*
X535008Y1041499D01*
X535043Y1041530D01*
X535084Y1041555D01*
X535126Y1041606D01*
X535174Y1041650D01*
X535196Y1041692D01*
X535225Y1041729D01*
X535246Y1041791D01*
X535277Y1041850D01*
X535285Y1041904D01*
X535297Y1041941D01*
X535296Y1041981D01*
X535304Y1042035D01*
X535304Y1045845D01*
X535293Y1045910D01*
X535291Y1045976D01*
X535273Y1046019D01*
X535265Y1046066D01*
X535231Y1046123D01*
X535206Y1046183D01*
X535175Y1046218D01*
X535150Y1046259D01*
X535099Y1046301D01*
X535055Y1046349D01*
X535013Y1046371D01*
X534976Y1046400D01*
X534914Y1046421D01*
X534855Y1046452D01*
X534801Y1046460D01*
X534764Y1046472D01*
X534724Y1046471D01*
X534670Y1046479D01*
X532130Y1046479D01*
X532065Y1046468D01*
X531999Y1046466D01*
X531956Y1046448D01*
X531909Y1046440D01*
X531852Y1046406D01*
X531792Y1046381D01*
X531757Y1046350D01*
X531716Y1046325D01*
X531675Y1046274D01*
X531626Y1046230D01*
X531604Y1046188D01*
X531575Y1046151D01*
X531554Y1046089D01*
X531523Y1046030D01*
X531515Y1045976D01*
X531503Y1045939D01*
X531503Y1045935D01*
X531503Y1045934D01*
X531504Y1045899D01*
X531496Y1045845D01*
X531496Y1042035D01*
X531507Y1041970D01*
X531509Y1041904D01*
X531527Y1041861D01*
X531535Y1041814D01*
X531569Y1041757D01*
X531594Y1041697D01*
X531625Y1041662D01*
X531650Y1041621D01*
X531701Y1041580D01*
X531745Y1041531D01*
X531787Y1041509D01*
X531824Y1041480D01*
X531886Y1041459D01*
X531945Y1041428D01*
X531999Y1041420D01*
X532036Y1041408D01*
X532076Y1041409D01*
X532130Y1041401D01*
X534670Y1041401D01*
X534735Y1041412D01*
G37*
G36*
X1273875Y1041412D02*
X1273875Y1041412D01*
X1273941Y1041414D01*
X1273984Y1041432D01*
X1274031Y1041440D01*
X1274088Y1041474D01*
X1274148Y1041499D01*
X1274183Y1041530D01*
X1274224Y1041555D01*
X1274266Y1041606D01*
X1274314Y1041650D01*
X1274336Y1041692D01*
X1274365Y1041729D01*
X1274386Y1041791D01*
X1274417Y1041850D01*
X1274425Y1041904D01*
X1274437Y1041941D01*
X1274436Y1041981D01*
X1274444Y1042035D01*
X1274444Y1045845D01*
X1274433Y1045910D01*
X1274431Y1045976D01*
X1274413Y1046019D01*
X1274405Y1046066D01*
X1274371Y1046123D01*
X1274346Y1046183D01*
X1274315Y1046218D01*
X1274290Y1046259D01*
X1274239Y1046301D01*
X1274195Y1046349D01*
X1274153Y1046371D01*
X1274116Y1046400D01*
X1274054Y1046421D01*
X1273995Y1046452D01*
X1273941Y1046460D01*
X1273904Y1046472D01*
X1273864Y1046471D01*
X1273810Y1046479D01*
X1271270Y1046479D01*
X1271205Y1046468D01*
X1271139Y1046466D01*
X1271096Y1046448D01*
X1271049Y1046440D01*
X1270992Y1046406D01*
X1270932Y1046381D01*
X1270897Y1046350D01*
X1270856Y1046325D01*
X1270815Y1046274D01*
X1270766Y1046230D01*
X1270744Y1046188D01*
X1270715Y1046151D01*
X1270694Y1046089D01*
X1270663Y1046030D01*
X1270655Y1045976D01*
X1270643Y1045939D01*
X1270643Y1045935D01*
X1270643Y1045934D01*
X1270644Y1045899D01*
X1270636Y1045845D01*
X1270636Y1042035D01*
X1270647Y1041970D01*
X1270649Y1041904D01*
X1270667Y1041861D01*
X1270675Y1041814D01*
X1270709Y1041757D01*
X1270734Y1041697D01*
X1270765Y1041662D01*
X1270790Y1041621D01*
X1270841Y1041580D01*
X1270885Y1041531D01*
X1270927Y1041509D01*
X1270964Y1041480D01*
X1271026Y1041459D01*
X1271085Y1041428D01*
X1271139Y1041420D01*
X1271176Y1041408D01*
X1271216Y1041409D01*
X1271270Y1041401D01*
X1273810Y1041401D01*
X1273875Y1041412D01*
G37*
G36*
X1299275Y1041412D02*
X1299275Y1041412D01*
X1299341Y1041414D01*
X1299384Y1041432D01*
X1299431Y1041440D01*
X1299488Y1041474D01*
X1299548Y1041499D01*
X1299583Y1041530D01*
X1299624Y1041555D01*
X1299666Y1041606D01*
X1299714Y1041650D01*
X1299736Y1041692D01*
X1299765Y1041729D01*
X1299786Y1041791D01*
X1299817Y1041850D01*
X1299825Y1041904D01*
X1299837Y1041941D01*
X1299836Y1041981D01*
X1299844Y1042035D01*
X1299844Y1045845D01*
X1299833Y1045910D01*
X1299831Y1045976D01*
X1299813Y1046019D01*
X1299805Y1046066D01*
X1299771Y1046123D01*
X1299746Y1046183D01*
X1299715Y1046218D01*
X1299690Y1046259D01*
X1299639Y1046301D01*
X1299595Y1046349D01*
X1299553Y1046371D01*
X1299516Y1046400D01*
X1299454Y1046421D01*
X1299395Y1046452D01*
X1299341Y1046460D01*
X1299304Y1046472D01*
X1299264Y1046471D01*
X1299210Y1046479D01*
X1296670Y1046479D01*
X1296605Y1046468D01*
X1296539Y1046466D01*
X1296496Y1046448D01*
X1296449Y1046440D01*
X1296392Y1046406D01*
X1296332Y1046381D01*
X1296297Y1046350D01*
X1296256Y1046325D01*
X1296215Y1046274D01*
X1296166Y1046230D01*
X1296144Y1046188D01*
X1296115Y1046151D01*
X1296094Y1046089D01*
X1296063Y1046030D01*
X1296055Y1045976D01*
X1296043Y1045939D01*
X1296043Y1045935D01*
X1296043Y1045934D01*
X1296044Y1045899D01*
X1296036Y1045845D01*
X1296036Y1042035D01*
X1296047Y1041970D01*
X1296049Y1041904D01*
X1296067Y1041861D01*
X1296075Y1041814D01*
X1296109Y1041757D01*
X1296134Y1041697D01*
X1296165Y1041662D01*
X1296190Y1041621D01*
X1296241Y1041580D01*
X1296285Y1041531D01*
X1296327Y1041509D01*
X1296364Y1041480D01*
X1296426Y1041459D01*
X1296485Y1041428D01*
X1296539Y1041420D01*
X1296576Y1041408D01*
X1296616Y1041409D01*
X1296670Y1041401D01*
X1299210Y1041401D01*
X1299275Y1041412D01*
G37*
G36*
X560135Y1041412D02*
X560135Y1041412D01*
X560201Y1041414D01*
X560244Y1041432D01*
X560291Y1041440D01*
X560348Y1041474D01*
X560408Y1041499D01*
X560443Y1041530D01*
X560484Y1041555D01*
X560526Y1041606D01*
X560574Y1041650D01*
X560596Y1041692D01*
X560625Y1041729D01*
X560646Y1041791D01*
X560677Y1041850D01*
X560685Y1041904D01*
X560697Y1041941D01*
X560696Y1041981D01*
X560704Y1042035D01*
X560704Y1045845D01*
X560693Y1045910D01*
X560691Y1045976D01*
X560673Y1046019D01*
X560665Y1046066D01*
X560631Y1046123D01*
X560606Y1046183D01*
X560575Y1046218D01*
X560550Y1046259D01*
X560499Y1046301D01*
X560455Y1046349D01*
X560413Y1046371D01*
X560376Y1046400D01*
X560314Y1046421D01*
X560255Y1046452D01*
X560201Y1046460D01*
X560164Y1046472D01*
X560124Y1046471D01*
X560070Y1046479D01*
X557530Y1046479D01*
X557465Y1046468D01*
X557399Y1046466D01*
X557356Y1046448D01*
X557309Y1046440D01*
X557252Y1046406D01*
X557192Y1046381D01*
X557157Y1046350D01*
X557116Y1046325D01*
X557075Y1046274D01*
X557026Y1046230D01*
X557004Y1046188D01*
X556975Y1046151D01*
X556954Y1046089D01*
X556923Y1046030D01*
X556915Y1045976D01*
X556903Y1045939D01*
X556903Y1045935D01*
X556903Y1045934D01*
X556904Y1045899D01*
X556896Y1045845D01*
X556896Y1042035D01*
X556907Y1041970D01*
X556909Y1041904D01*
X556927Y1041861D01*
X556935Y1041814D01*
X556969Y1041757D01*
X556994Y1041697D01*
X557025Y1041662D01*
X557050Y1041621D01*
X557101Y1041580D01*
X557145Y1041531D01*
X557187Y1041509D01*
X557224Y1041480D01*
X557286Y1041459D01*
X557345Y1041428D01*
X557399Y1041420D01*
X557436Y1041408D01*
X557476Y1041409D01*
X557530Y1041401D01*
X560070Y1041401D01*
X560135Y1041412D01*
G37*
G36*
X610935Y1040142D02*
X610935Y1040142D01*
X611001Y1040144D01*
X611044Y1040162D01*
X611091Y1040170D01*
X611148Y1040204D01*
X611208Y1040229D01*
X611243Y1040260D01*
X611284Y1040285D01*
X611326Y1040336D01*
X611374Y1040380D01*
X611396Y1040422D01*
X611425Y1040459D01*
X611446Y1040521D01*
X611477Y1040580D01*
X611485Y1040634D01*
X611497Y1040671D01*
X611496Y1040711D01*
X611504Y1040765D01*
X611504Y1044575D01*
X611493Y1044640D01*
X611491Y1044706D01*
X611473Y1044749D01*
X611465Y1044796D01*
X611431Y1044853D01*
X611406Y1044913D01*
X611375Y1044948D01*
X611350Y1044989D01*
X611299Y1045031D01*
X611255Y1045079D01*
X611213Y1045101D01*
X611176Y1045130D01*
X611114Y1045151D01*
X611055Y1045182D01*
X611001Y1045190D01*
X610964Y1045202D01*
X610924Y1045201D01*
X610870Y1045209D01*
X608330Y1045209D01*
X608265Y1045198D01*
X608199Y1045196D01*
X608156Y1045178D01*
X608109Y1045170D01*
X608052Y1045136D01*
X607992Y1045111D01*
X607957Y1045080D01*
X607916Y1045055D01*
X607875Y1045004D01*
X607826Y1044960D01*
X607804Y1044918D01*
X607775Y1044881D01*
X607754Y1044819D01*
X607723Y1044760D01*
X607715Y1044706D01*
X607703Y1044669D01*
X607703Y1044665D01*
X607703Y1044664D01*
X607704Y1044629D01*
X607696Y1044575D01*
X607696Y1040765D01*
X607707Y1040700D01*
X607709Y1040634D01*
X607727Y1040591D01*
X607735Y1040544D01*
X607769Y1040487D01*
X607794Y1040427D01*
X607825Y1040392D01*
X607850Y1040351D01*
X607901Y1040310D01*
X607945Y1040261D01*
X607987Y1040239D01*
X608024Y1040210D01*
X608086Y1040189D01*
X608145Y1040158D01*
X608199Y1040150D01*
X608236Y1040138D01*
X608276Y1040139D01*
X608330Y1040131D01*
X610870Y1040131D01*
X610935Y1040142D01*
G37*
G36*
X1350075Y1040142D02*
X1350075Y1040142D01*
X1350141Y1040144D01*
X1350184Y1040162D01*
X1350231Y1040170D01*
X1350288Y1040204D01*
X1350348Y1040229D01*
X1350383Y1040260D01*
X1350424Y1040285D01*
X1350466Y1040336D01*
X1350514Y1040380D01*
X1350536Y1040422D01*
X1350565Y1040459D01*
X1350586Y1040521D01*
X1350617Y1040580D01*
X1350625Y1040634D01*
X1350637Y1040671D01*
X1350636Y1040711D01*
X1350644Y1040765D01*
X1350644Y1044575D01*
X1350633Y1044640D01*
X1350631Y1044706D01*
X1350613Y1044749D01*
X1350605Y1044796D01*
X1350571Y1044853D01*
X1350546Y1044913D01*
X1350515Y1044948D01*
X1350490Y1044989D01*
X1350439Y1045031D01*
X1350395Y1045079D01*
X1350353Y1045101D01*
X1350316Y1045130D01*
X1350254Y1045151D01*
X1350195Y1045182D01*
X1350141Y1045190D01*
X1350104Y1045202D01*
X1350064Y1045201D01*
X1350010Y1045209D01*
X1347470Y1045209D01*
X1347405Y1045198D01*
X1347339Y1045196D01*
X1347296Y1045178D01*
X1347249Y1045170D01*
X1347192Y1045136D01*
X1347132Y1045111D01*
X1347097Y1045080D01*
X1347056Y1045055D01*
X1347015Y1045004D01*
X1346966Y1044960D01*
X1346944Y1044918D01*
X1346915Y1044881D01*
X1346894Y1044819D01*
X1346863Y1044760D01*
X1346855Y1044706D01*
X1346843Y1044669D01*
X1346843Y1044665D01*
X1346843Y1044664D01*
X1346844Y1044629D01*
X1346836Y1044575D01*
X1346836Y1040765D01*
X1346847Y1040700D01*
X1346849Y1040634D01*
X1346867Y1040591D01*
X1346875Y1040544D01*
X1346909Y1040487D01*
X1346934Y1040427D01*
X1346965Y1040392D01*
X1346990Y1040351D01*
X1347041Y1040310D01*
X1347085Y1040261D01*
X1347127Y1040239D01*
X1347164Y1040210D01*
X1347226Y1040189D01*
X1347285Y1040158D01*
X1347339Y1040150D01*
X1347376Y1040138D01*
X1347416Y1040139D01*
X1347470Y1040131D01*
X1350010Y1040131D01*
X1350075Y1040142D01*
G37*
G36*
X610935Y1029982D02*
X610935Y1029982D01*
X611001Y1029984D01*
X611044Y1030002D01*
X611091Y1030010D01*
X611148Y1030044D01*
X611208Y1030069D01*
X611243Y1030100D01*
X611284Y1030125D01*
X611326Y1030176D01*
X611374Y1030220D01*
X611396Y1030262D01*
X611425Y1030299D01*
X611446Y1030361D01*
X611477Y1030420D01*
X611485Y1030474D01*
X611497Y1030511D01*
X611496Y1030551D01*
X611504Y1030605D01*
X611504Y1034415D01*
X611493Y1034480D01*
X611491Y1034546D01*
X611473Y1034589D01*
X611465Y1034636D01*
X611431Y1034693D01*
X611406Y1034753D01*
X611375Y1034788D01*
X611350Y1034829D01*
X611299Y1034871D01*
X611255Y1034919D01*
X611213Y1034941D01*
X611176Y1034970D01*
X611114Y1034991D01*
X611055Y1035022D01*
X611001Y1035030D01*
X610964Y1035042D01*
X610924Y1035041D01*
X610870Y1035049D01*
X608330Y1035049D01*
X608265Y1035038D01*
X608199Y1035036D01*
X608156Y1035018D01*
X608109Y1035010D01*
X608052Y1034976D01*
X607992Y1034951D01*
X607957Y1034920D01*
X607916Y1034895D01*
X607875Y1034844D01*
X607826Y1034800D01*
X607804Y1034758D01*
X607775Y1034721D01*
X607754Y1034659D01*
X607723Y1034600D01*
X607715Y1034546D01*
X607703Y1034509D01*
X607703Y1034505D01*
X607703Y1034504D01*
X607704Y1034469D01*
X607696Y1034415D01*
X607696Y1030605D01*
X607707Y1030540D01*
X607709Y1030474D01*
X607727Y1030431D01*
X607735Y1030384D01*
X607769Y1030327D01*
X607794Y1030267D01*
X607825Y1030232D01*
X607850Y1030191D01*
X607901Y1030150D01*
X607945Y1030101D01*
X607987Y1030079D01*
X608024Y1030050D01*
X608086Y1030029D01*
X608145Y1029998D01*
X608199Y1029990D01*
X608236Y1029978D01*
X608276Y1029979D01*
X608330Y1029971D01*
X610870Y1029971D01*
X610935Y1029982D01*
G37*
G36*
X1350075Y1029982D02*
X1350075Y1029982D01*
X1350141Y1029984D01*
X1350184Y1030002D01*
X1350231Y1030010D01*
X1350288Y1030044D01*
X1350348Y1030069D01*
X1350383Y1030100D01*
X1350424Y1030125D01*
X1350466Y1030176D01*
X1350514Y1030220D01*
X1350536Y1030262D01*
X1350565Y1030299D01*
X1350586Y1030361D01*
X1350617Y1030420D01*
X1350625Y1030474D01*
X1350637Y1030511D01*
X1350636Y1030551D01*
X1350644Y1030605D01*
X1350644Y1034415D01*
X1350633Y1034480D01*
X1350631Y1034546D01*
X1350613Y1034589D01*
X1350605Y1034636D01*
X1350571Y1034693D01*
X1350546Y1034753D01*
X1350515Y1034788D01*
X1350490Y1034829D01*
X1350439Y1034871D01*
X1350395Y1034919D01*
X1350353Y1034941D01*
X1350316Y1034970D01*
X1350254Y1034991D01*
X1350195Y1035022D01*
X1350141Y1035030D01*
X1350104Y1035042D01*
X1350064Y1035041D01*
X1350010Y1035049D01*
X1347470Y1035049D01*
X1347405Y1035038D01*
X1347339Y1035036D01*
X1347296Y1035018D01*
X1347249Y1035010D01*
X1347192Y1034976D01*
X1347132Y1034951D01*
X1347097Y1034920D01*
X1347056Y1034895D01*
X1347015Y1034844D01*
X1346966Y1034800D01*
X1346944Y1034758D01*
X1346915Y1034721D01*
X1346894Y1034659D01*
X1346863Y1034600D01*
X1346855Y1034546D01*
X1346843Y1034509D01*
X1346843Y1034505D01*
X1346843Y1034504D01*
X1346844Y1034469D01*
X1346836Y1034415D01*
X1346836Y1030605D01*
X1346847Y1030540D01*
X1346849Y1030474D01*
X1346867Y1030431D01*
X1346875Y1030384D01*
X1346909Y1030327D01*
X1346934Y1030267D01*
X1346965Y1030232D01*
X1346990Y1030191D01*
X1347041Y1030150D01*
X1347085Y1030101D01*
X1347127Y1030079D01*
X1347164Y1030050D01*
X1347226Y1030029D01*
X1347285Y1029998D01*
X1347339Y1029990D01*
X1347376Y1029978D01*
X1347416Y1029979D01*
X1347470Y1029971D01*
X1350010Y1029971D01*
X1350075Y1029982D01*
G37*
G36*
X1350075Y450862D02*
X1350075Y450862D01*
X1350141Y450864D01*
X1350184Y450882D01*
X1350231Y450890D01*
X1350288Y450924D01*
X1350348Y450949D01*
X1350383Y450980D01*
X1350424Y451005D01*
X1350466Y451056D01*
X1350514Y451100D01*
X1350536Y451142D01*
X1350565Y451179D01*
X1350586Y451241D01*
X1350617Y451300D01*
X1350625Y451354D01*
X1350637Y451391D01*
X1350636Y451431D01*
X1350644Y451485D01*
X1350644Y455295D01*
X1350633Y455360D01*
X1350631Y455426D01*
X1350613Y455469D01*
X1350605Y455516D01*
X1350571Y455573D01*
X1350546Y455633D01*
X1350515Y455668D01*
X1350490Y455709D01*
X1350439Y455751D01*
X1350395Y455799D01*
X1350353Y455821D01*
X1350316Y455850D01*
X1350254Y455871D01*
X1350195Y455902D01*
X1350141Y455910D01*
X1350104Y455922D01*
X1350064Y455921D01*
X1350010Y455929D01*
X1347470Y455929D01*
X1347405Y455918D01*
X1347339Y455916D01*
X1347296Y455898D01*
X1347249Y455890D01*
X1347192Y455856D01*
X1347132Y455831D01*
X1347097Y455800D01*
X1347056Y455775D01*
X1347015Y455724D01*
X1346966Y455680D01*
X1346944Y455638D01*
X1346915Y455601D01*
X1346894Y455539D01*
X1346863Y455480D01*
X1346855Y455426D01*
X1346843Y455389D01*
X1346843Y455385D01*
X1346843Y455384D01*
X1346844Y455349D01*
X1346836Y455295D01*
X1346836Y451485D01*
X1346847Y451420D01*
X1346849Y451354D01*
X1346867Y451311D01*
X1346875Y451264D01*
X1346909Y451207D01*
X1346934Y451147D01*
X1346965Y451112D01*
X1346990Y451071D01*
X1347041Y451030D01*
X1347085Y450981D01*
X1347127Y450959D01*
X1347164Y450930D01*
X1347226Y450909D01*
X1347285Y450878D01*
X1347339Y450870D01*
X1347376Y450858D01*
X1347416Y450859D01*
X1347470Y450851D01*
X1350010Y450851D01*
X1350075Y450862D01*
G37*
G36*
X610935Y450862D02*
X610935Y450862D01*
X611001Y450864D01*
X611044Y450882D01*
X611091Y450890D01*
X611148Y450924D01*
X611208Y450949D01*
X611243Y450980D01*
X611284Y451005D01*
X611326Y451056D01*
X611374Y451100D01*
X611396Y451142D01*
X611425Y451179D01*
X611446Y451241D01*
X611477Y451300D01*
X611485Y451354D01*
X611497Y451391D01*
X611496Y451431D01*
X611504Y451485D01*
X611504Y455295D01*
X611493Y455360D01*
X611491Y455426D01*
X611473Y455469D01*
X611465Y455516D01*
X611431Y455573D01*
X611406Y455633D01*
X611375Y455668D01*
X611350Y455709D01*
X611299Y455751D01*
X611255Y455799D01*
X611213Y455821D01*
X611176Y455850D01*
X611114Y455871D01*
X611055Y455902D01*
X611001Y455910D01*
X610964Y455922D01*
X610924Y455921D01*
X610870Y455929D01*
X608330Y455929D01*
X608265Y455918D01*
X608199Y455916D01*
X608156Y455898D01*
X608109Y455890D01*
X608052Y455856D01*
X607992Y455831D01*
X607957Y455800D01*
X607916Y455775D01*
X607875Y455724D01*
X607826Y455680D01*
X607804Y455638D01*
X607775Y455601D01*
X607754Y455539D01*
X607723Y455480D01*
X607715Y455426D01*
X607703Y455389D01*
X607703Y455385D01*
X607703Y455384D01*
X607704Y455349D01*
X607696Y455295D01*
X607696Y451485D01*
X607707Y451420D01*
X607709Y451354D01*
X607727Y451311D01*
X607735Y451264D01*
X607769Y451207D01*
X607794Y451147D01*
X607825Y451112D01*
X607850Y451071D01*
X607901Y451030D01*
X607945Y450981D01*
X607987Y450959D01*
X608024Y450930D01*
X608086Y450909D01*
X608145Y450878D01*
X608199Y450870D01*
X608236Y450858D01*
X608276Y450859D01*
X608330Y450851D01*
X610870Y450851D01*
X610935Y450862D01*
G37*
G36*
X1350075Y440702D02*
X1350075Y440702D01*
X1350141Y440704D01*
X1350184Y440722D01*
X1350231Y440730D01*
X1350288Y440764D01*
X1350348Y440789D01*
X1350383Y440820D01*
X1350424Y440845D01*
X1350466Y440896D01*
X1350514Y440940D01*
X1350536Y440982D01*
X1350565Y441019D01*
X1350586Y441081D01*
X1350617Y441140D01*
X1350625Y441194D01*
X1350637Y441231D01*
X1350636Y441271D01*
X1350644Y441325D01*
X1350644Y445135D01*
X1350633Y445200D01*
X1350631Y445266D01*
X1350613Y445309D01*
X1350605Y445356D01*
X1350571Y445413D01*
X1350546Y445473D01*
X1350515Y445508D01*
X1350490Y445549D01*
X1350439Y445591D01*
X1350395Y445639D01*
X1350353Y445661D01*
X1350316Y445690D01*
X1350254Y445711D01*
X1350195Y445742D01*
X1350141Y445750D01*
X1350104Y445762D01*
X1350064Y445761D01*
X1350010Y445769D01*
X1347470Y445769D01*
X1347405Y445758D01*
X1347339Y445756D01*
X1347296Y445738D01*
X1347249Y445730D01*
X1347192Y445696D01*
X1347132Y445671D01*
X1347097Y445640D01*
X1347056Y445615D01*
X1347015Y445564D01*
X1346966Y445520D01*
X1346944Y445478D01*
X1346915Y445441D01*
X1346894Y445379D01*
X1346863Y445320D01*
X1346855Y445266D01*
X1346843Y445229D01*
X1346843Y445225D01*
X1346843Y445224D01*
X1346844Y445189D01*
X1346836Y445135D01*
X1346836Y441325D01*
X1346847Y441260D01*
X1346849Y441194D01*
X1346867Y441151D01*
X1346875Y441104D01*
X1346909Y441047D01*
X1346934Y440987D01*
X1346965Y440952D01*
X1346990Y440911D01*
X1347041Y440870D01*
X1347085Y440821D01*
X1347127Y440799D01*
X1347164Y440770D01*
X1347226Y440749D01*
X1347285Y440718D01*
X1347339Y440710D01*
X1347376Y440698D01*
X1347416Y440699D01*
X1347470Y440691D01*
X1350010Y440691D01*
X1350075Y440702D01*
G37*
G36*
X610935Y440702D02*
X610935Y440702D01*
X611001Y440704D01*
X611044Y440722D01*
X611091Y440730D01*
X611148Y440764D01*
X611208Y440789D01*
X611243Y440820D01*
X611284Y440845D01*
X611326Y440896D01*
X611374Y440940D01*
X611396Y440982D01*
X611425Y441019D01*
X611446Y441081D01*
X611477Y441140D01*
X611485Y441194D01*
X611497Y441231D01*
X611496Y441271D01*
X611504Y441325D01*
X611504Y445135D01*
X611493Y445200D01*
X611491Y445266D01*
X611473Y445309D01*
X611465Y445356D01*
X611431Y445413D01*
X611406Y445473D01*
X611375Y445508D01*
X611350Y445549D01*
X611299Y445591D01*
X611255Y445639D01*
X611213Y445661D01*
X611176Y445690D01*
X611114Y445711D01*
X611055Y445742D01*
X611001Y445750D01*
X610964Y445762D01*
X610924Y445761D01*
X610870Y445769D01*
X608330Y445769D01*
X608265Y445758D01*
X608199Y445756D01*
X608156Y445738D01*
X608109Y445730D01*
X608052Y445696D01*
X607992Y445671D01*
X607957Y445640D01*
X607916Y445615D01*
X607875Y445564D01*
X607826Y445520D01*
X607804Y445478D01*
X607775Y445441D01*
X607754Y445379D01*
X607723Y445320D01*
X607715Y445266D01*
X607703Y445229D01*
X607703Y445225D01*
X607703Y445224D01*
X607704Y445189D01*
X607696Y445135D01*
X607696Y441325D01*
X607707Y441260D01*
X607709Y441194D01*
X607727Y441151D01*
X607735Y441104D01*
X607769Y441047D01*
X607794Y440987D01*
X607825Y440952D01*
X607850Y440911D01*
X607901Y440870D01*
X607945Y440821D01*
X607987Y440799D01*
X608024Y440770D01*
X608086Y440749D01*
X608145Y440718D01*
X608199Y440710D01*
X608236Y440698D01*
X608276Y440699D01*
X608330Y440691D01*
X610870Y440691D01*
X610935Y440702D01*
G37*
G36*
X402020Y1006487D02*
X402020Y1006487D01*
X402086Y1006489D01*
X402129Y1006507D01*
X402176Y1006515D01*
X402233Y1006549D01*
X402293Y1006574D01*
X402328Y1006605D01*
X402369Y1006630D01*
X402411Y1006681D01*
X402459Y1006725D01*
X402481Y1006767D01*
X402510Y1006804D01*
X402531Y1006866D01*
X402562Y1006925D01*
X402570Y1006979D01*
X402582Y1007016D01*
X402581Y1007056D01*
X402589Y1007110D01*
X402589Y1009650D01*
X402578Y1009715D01*
X402576Y1009781D01*
X402558Y1009824D01*
X402550Y1009871D01*
X402516Y1009928D01*
X402491Y1009988D01*
X402460Y1010023D01*
X402435Y1010064D01*
X402384Y1010106D01*
X402340Y1010154D01*
X402298Y1010176D01*
X402261Y1010205D01*
X402199Y1010226D01*
X402140Y1010257D01*
X402086Y1010265D01*
X402049Y1010277D01*
X402009Y1010276D01*
X401955Y1010284D01*
X398145Y1010284D01*
X398080Y1010273D01*
X398014Y1010271D01*
X397971Y1010253D01*
X397924Y1010245D01*
X397867Y1010211D01*
X397807Y1010186D01*
X397772Y1010155D01*
X397731Y1010130D01*
X397690Y1010079D01*
X397641Y1010035D01*
X397619Y1009993D01*
X397590Y1009956D01*
X397569Y1009894D01*
X397538Y1009835D01*
X397530Y1009781D01*
X397518Y1009744D01*
X397518Y1009741D01*
X397519Y1009704D01*
X397511Y1009650D01*
X397511Y1007110D01*
X397522Y1007045D01*
X397524Y1006979D01*
X397542Y1006936D01*
X397550Y1006889D01*
X397584Y1006832D01*
X397609Y1006772D01*
X397640Y1006737D01*
X397665Y1006696D01*
X397716Y1006655D01*
X397760Y1006606D01*
X397802Y1006584D01*
X397839Y1006555D01*
X397901Y1006534D01*
X397960Y1006503D01*
X398014Y1006495D01*
X398051Y1006483D01*
X398091Y1006484D01*
X398145Y1006476D01*
X401955Y1006476D01*
X402020Y1006487D01*
G37*
G36*
X1141160Y1006487D02*
X1141160Y1006487D01*
X1141226Y1006489D01*
X1141269Y1006507D01*
X1141316Y1006515D01*
X1141373Y1006549D01*
X1141433Y1006574D01*
X1141468Y1006605D01*
X1141509Y1006630D01*
X1141551Y1006681D01*
X1141599Y1006725D01*
X1141621Y1006767D01*
X1141650Y1006804D01*
X1141671Y1006866D01*
X1141702Y1006925D01*
X1141710Y1006979D01*
X1141722Y1007016D01*
X1141721Y1007056D01*
X1141729Y1007110D01*
X1141729Y1009650D01*
X1141718Y1009715D01*
X1141716Y1009781D01*
X1141698Y1009824D01*
X1141690Y1009871D01*
X1141656Y1009928D01*
X1141631Y1009988D01*
X1141600Y1010023D01*
X1141575Y1010064D01*
X1141524Y1010106D01*
X1141480Y1010154D01*
X1141438Y1010176D01*
X1141401Y1010205D01*
X1141339Y1010226D01*
X1141280Y1010257D01*
X1141226Y1010265D01*
X1141189Y1010277D01*
X1141149Y1010276D01*
X1141095Y1010284D01*
X1137285Y1010284D01*
X1137220Y1010273D01*
X1137154Y1010271D01*
X1137111Y1010253D01*
X1137064Y1010245D01*
X1137007Y1010211D01*
X1136947Y1010186D01*
X1136912Y1010155D01*
X1136871Y1010130D01*
X1136830Y1010079D01*
X1136781Y1010035D01*
X1136759Y1009993D01*
X1136730Y1009956D01*
X1136709Y1009894D01*
X1136678Y1009835D01*
X1136670Y1009781D01*
X1136658Y1009744D01*
X1136658Y1009741D01*
X1136659Y1009704D01*
X1136651Y1009650D01*
X1136651Y1007110D01*
X1136662Y1007045D01*
X1136664Y1006979D01*
X1136682Y1006936D01*
X1136690Y1006889D01*
X1136724Y1006832D01*
X1136749Y1006772D01*
X1136780Y1006737D01*
X1136805Y1006696D01*
X1136856Y1006655D01*
X1136900Y1006606D01*
X1136942Y1006584D01*
X1136979Y1006555D01*
X1137041Y1006534D01*
X1137100Y1006503D01*
X1137154Y1006495D01*
X1137191Y1006483D01*
X1137231Y1006484D01*
X1137285Y1006476D01*
X1141095Y1006476D01*
X1141160Y1006487D01*
G37*
G36*
X1141160Y417207D02*
X1141160Y417207D01*
X1141226Y417209D01*
X1141269Y417227D01*
X1141316Y417235D01*
X1141373Y417269D01*
X1141433Y417294D01*
X1141468Y417325D01*
X1141509Y417350D01*
X1141551Y417401D01*
X1141599Y417445D01*
X1141621Y417487D01*
X1141650Y417524D01*
X1141671Y417586D01*
X1141702Y417645D01*
X1141710Y417699D01*
X1141722Y417736D01*
X1141721Y417776D01*
X1141729Y417830D01*
X1141729Y420370D01*
X1141718Y420435D01*
X1141716Y420501D01*
X1141698Y420544D01*
X1141690Y420591D01*
X1141656Y420648D01*
X1141631Y420708D01*
X1141600Y420743D01*
X1141575Y420784D01*
X1141524Y420826D01*
X1141480Y420874D01*
X1141438Y420896D01*
X1141401Y420925D01*
X1141339Y420946D01*
X1141280Y420977D01*
X1141226Y420985D01*
X1141189Y420997D01*
X1141149Y420996D01*
X1141095Y421004D01*
X1137285Y421004D01*
X1137220Y420993D01*
X1137154Y420991D01*
X1137111Y420973D01*
X1137064Y420965D01*
X1137007Y420931D01*
X1136947Y420906D01*
X1136912Y420875D01*
X1136871Y420850D01*
X1136830Y420799D01*
X1136781Y420755D01*
X1136759Y420713D01*
X1136730Y420676D01*
X1136709Y420614D01*
X1136678Y420555D01*
X1136670Y420501D01*
X1136658Y420464D01*
X1136658Y420461D01*
X1136659Y420424D01*
X1136651Y420370D01*
X1136651Y417830D01*
X1136662Y417765D01*
X1136664Y417699D01*
X1136682Y417656D01*
X1136690Y417609D01*
X1136724Y417552D01*
X1136749Y417492D01*
X1136780Y417457D01*
X1136805Y417416D01*
X1136856Y417375D01*
X1136900Y417326D01*
X1136942Y417304D01*
X1136979Y417275D01*
X1137041Y417254D01*
X1137100Y417223D01*
X1137154Y417215D01*
X1137191Y417203D01*
X1137231Y417204D01*
X1137285Y417196D01*
X1141095Y417196D01*
X1141160Y417207D01*
G37*
G36*
X402020Y417207D02*
X402020Y417207D01*
X402086Y417209D01*
X402129Y417227D01*
X402176Y417235D01*
X402233Y417269D01*
X402293Y417294D01*
X402328Y417325D01*
X402369Y417350D01*
X402411Y417401D01*
X402459Y417445D01*
X402481Y417487D01*
X402510Y417524D01*
X402531Y417586D01*
X402562Y417645D01*
X402570Y417699D01*
X402582Y417736D01*
X402581Y417776D01*
X402589Y417830D01*
X402589Y420370D01*
X402578Y420435D01*
X402576Y420501D01*
X402558Y420544D01*
X402550Y420591D01*
X402516Y420648D01*
X402491Y420708D01*
X402460Y420743D01*
X402435Y420784D01*
X402384Y420826D01*
X402340Y420874D01*
X402298Y420896D01*
X402261Y420925D01*
X402199Y420946D01*
X402140Y420977D01*
X402086Y420985D01*
X402049Y420997D01*
X402009Y420996D01*
X401955Y421004D01*
X398145Y421004D01*
X398080Y420993D01*
X398014Y420991D01*
X397971Y420973D01*
X397924Y420965D01*
X397867Y420931D01*
X397807Y420906D01*
X397772Y420875D01*
X397731Y420850D01*
X397690Y420799D01*
X397641Y420755D01*
X397619Y420713D01*
X397590Y420676D01*
X397569Y420614D01*
X397538Y420555D01*
X397530Y420501D01*
X397518Y420464D01*
X397518Y420461D01*
X397519Y420424D01*
X397511Y420370D01*
X397511Y417830D01*
X397522Y417765D01*
X397524Y417699D01*
X397542Y417656D01*
X397550Y417609D01*
X397584Y417552D01*
X397609Y417492D01*
X397640Y417457D01*
X397665Y417416D01*
X397716Y417375D01*
X397760Y417326D01*
X397802Y417304D01*
X397839Y417275D01*
X397901Y417254D01*
X397960Y417223D01*
X398014Y417215D01*
X398051Y417203D01*
X398091Y417204D01*
X398145Y417196D01*
X401955Y417196D01*
X402020Y417207D01*
G37*
D10*
X139700Y50800D03*
X660400Y101600D03*
X660400Y381000D03*
X152400Y533400D03*
D11*
X49050Y448000D03*
X49050Y390200D03*
D12*
X33549Y431989D02*
X4551Y431989D01*
X33549Y431989D02*
X33549Y423991D01*
X4551Y423991D01*
X4551Y431989D01*
X4551Y426391D02*
X33549Y426391D01*
X33549Y428791D02*
X4551Y428791D01*
X4551Y431191D02*
X33549Y431191D01*
X33549Y449769D02*
X4551Y449769D01*
X33549Y449769D02*
X33549Y441771D01*
X4551Y441771D01*
X4551Y449769D01*
X4551Y444171D02*
X33549Y444171D01*
X33549Y446571D02*
X4551Y446571D01*
X4551Y448971D02*
X33549Y448971D01*
X33549Y414209D02*
X4551Y414209D01*
X33549Y414209D02*
X33549Y406211D01*
X4551Y406211D01*
X4551Y414209D01*
X4551Y408611D02*
X33549Y408611D01*
X33549Y411011D02*
X4551Y411011D01*
X4551Y413411D02*
X33549Y413411D01*
X33549Y396429D02*
X4551Y396429D01*
X33549Y396429D02*
X33549Y388431D01*
X4551Y388431D01*
X4551Y396429D01*
X4551Y390831D02*
X33549Y390831D01*
X33549Y393231D02*
X4551Y393231D01*
X4551Y395631D02*
X33549Y395631D01*
D13*
X24013Y489448D02*
X18659Y489448D01*
X18659Y501152D01*
X24013Y501152D01*
X24013Y489448D01*
X24013Y491842D02*
X18659Y491842D01*
X18659Y494236D02*
X24013Y494236D01*
X24013Y496630D02*
X18659Y496630D01*
X18659Y499024D02*
X24013Y499024D01*
X26787Y489448D02*
X32141Y489448D01*
X26787Y489448D02*
X26787Y501152D01*
X32141Y501152D01*
X32141Y489448D01*
X32141Y491842D02*
X26787Y491842D01*
X26787Y494236D02*
X32141Y494236D01*
X32141Y496630D02*
X26787Y496630D01*
X26787Y499024D02*
X32141Y499024D01*
D14*
X187960Y571500D03*
X213360Y571500D03*
X238760Y571500D03*
X264160Y571500D03*
X289560Y571500D03*
X314960Y571500D03*
X340360Y571500D03*
X365760Y571500D03*
X391160Y571500D03*
X416560Y571500D03*
X279400Y12700D03*
X304800Y12700D03*
X330200Y12700D03*
X355600Y12700D03*
X381000Y12700D03*
X406400Y12700D03*
X431800Y12700D03*
X457200Y12700D03*
X508000Y12700D03*
X533400Y12700D03*
X558800Y12700D03*
X584200Y12700D03*
X609600Y12700D03*
X635000Y12700D03*
X635000Y571500D03*
X609600Y571500D03*
X584200Y571500D03*
X558800Y571500D03*
X533400Y571500D03*
X508000Y571500D03*
X482600Y571500D03*
X457200Y571500D03*
D15*
X488950Y368300D03*
X488950Y381000D03*
X501650Y368300D03*
X501650Y381000D03*
X514350Y368300D03*
X514350Y381000D03*
X527050Y368300D03*
X527050Y381000D03*
X539750Y368300D03*
X539750Y381000D03*
D16*
X88900Y574040D03*
X660400Y63500D03*
D13*
X603748Y455920D02*
X603748Y461528D01*
X615452Y461528D01*
X615452Y455920D01*
X603748Y455920D01*
X603748Y458314D02*
X615452Y458314D01*
X615452Y460708D02*
X603748Y460708D01*
X603748Y451114D02*
X603748Y445506D01*
X603748Y451114D02*
X615452Y451114D01*
X615452Y445506D01*
X603748Y445506D01*
X603748Y447900D02*
X615452Y447900D01*
X615452Y450294D02*
X603748Y450294D01*
X603748Y440700D02*
X603748Y435092D01*
X603748Y440700D02*
X615452Y440700D01*
X615452Y435092D01*
X603748Y435092D01*
X603748Y437486D02*
X615452Y437486D01*
X615452Y439880D02*
X603748Y439880D01*
X590052Y447919D02*
X590052Y453273D01*
X590052Y447919D02*
X578348Y447919D01*
X578348Y453273D01*
X590052Y453273D01*
X590052Y450313D02*
X578348Y450313D01*
X578348Y452707D02*
X590052Y452707D01*
X590052Y456047D02*
X590052Y461401D01*
X590052Y456047D02*
X578348Y456047D01*
X578348Y461401D01*
X590052Y461401D01*
X590052Y458441D02*
X578348Y458441D01*
X578348Y460835D02*
X590052Y460835D01*
D16*
X40640Y242550D03*
X40640Y322550D03*
D13*
X564652Y446649D02*
X564652Y452257D01*
X564652Y446649D02*
X552948Y446649D01*
X552948Y452257D01*
X564652Y452257D01*
X564652Y449043D02*
X552948Y449043D01*
X552948Y451437D02*
X564652Y451437D01*
X564652Y457063D02*
X564652Y462671D01*
X564652Y457063D02*
X552948Y457063D01*
X552948Y462671D01*
X564652Y462671D01*
X564652Y459457D02*
X552948Y459457D01*
X552948Y461851D02*
X564652Y461851D01*
X539252Y452257D02*
X539252Y446649D01*
X527548Y446649D01*
X527548Y452257D01*
X539252Y452257D01*
X539252Y449043D02*
X527548Y449043D01*
X527548Y451437D02*
X539252Y451437D01*
X539252Y457063D02*
X539252Y462671D01*
X539252Y457063D02*
X527548Y457063D01*
X527548Y462671D01*
X539252Y462671D01*
X539252Y459457D02*
X527548Y459457D01*
X527548Y461851D02*
X539252Y461851D01*
D17*
X20320Y111760D03*
X66040Y111760D03*
D13*
X392039Y413248D02*
X397647Y413248D01*
X392039Y413248D02*
X392039Y424952D01*
X397647Y424952D01*
X397647Y413248D01*
X397647Y415642D02*
X392039Y415642D01*
X392039Y418036D02*
X397647Y418036D01*
X397647Y420430D02*
X392039Y420430D01*
X392039Y422824D02*
X397647Y422824D01*
X402453Y413248D02*
X408061Y413248D01*
X402453Y413248D02*
X402453Y424952D01*
X408061Y424952D01*
X408061Y413248D01*
X408061Y415642D02*
X402453Y415642D01*
X402453Y418036D02*
X408061Y418036D01*
X408061Y420430D02*
X402453Y420430D01*
X402453Y422824D02*
X408061Y422824D01*
D14*
X387350Y444500D03*
X412750Y444500D03*
X203200Y127000D03*
X228600Y127000D03*
D18*
X508000Y431800D03*
D10*
X878840Y50800D03*
X1399540Y101600D03*
X1399540Y381000D03*
X891540Y533400D03*
D11*
X788190Y448000D03*
X788190Y390200D03*
D12*
X772689Y431989D02*
X743691Y431989D01*
X772689Y431989D02*
X772689Y423991D01*
X743691Y423991D01*
X743691Y431989D01*
X743691Y426391D02*
X772689Y426391D01*
X772689Y428791D02*
X743691Y428791D01*
X743691Y431191D02*
X772689Y431191D01*
X772689Y449769D02*
X743691Y449769D01*
X772689Y449769D02*
X772689Y441771D01*
X743691Y441771D01*
X743691Y449769D01*
X743691Y444171D02*
X772689Y444171D01*
X772689Y446571D02*
X743691Y446571D01*
X743691Y448971D02*
X772689Y448971D01*
X772689Y414209D02*
X743691Y414209D01*
X772689Y414209D02*
X772689Y406211D01*
X743691Y406211D01*
X743691Y414209D01*
X743691Y408611D02*
X772689Y408611D01*
X772689Y411011D02*
X743691Y411011D01*
X743691Y413411D02*
X772689Y413411D01*
X772689Y396429D02*
X743691Y396429D01*
X772689Y396429D02*
X772689Y388431D01*
X743691Y388431D01*
X743691Y396429D01*
X743691Y390831D02*
X772689Y390831D01*
X772689Y393231D02*
X743691Y393231D01*
X743691Y395631D02*
X772689Y395631D01*
D13*
X763153Y489448D02*
X757799Y489448D01*
X757799Y501152D01*
X763153Y501152D01*
X763153Y489448D01*
X763153Y491842D02*
X757799Y491842D01*
X757799Y494236D02*
X763153Y494236D01*
X763153Y496630D02*
X757799Y496630D01*
X757799Y499024D02*
X763153Y499024D01*
X765927Y489448D02*
X771281Y489448D01*
X765927Y489448D02*
X765927Y501152D01*
X771281Y501152D01*
X771281Y489448D01*
X771281Y491842D02*
X765927Y491842D01*
X765927Y494236D02*
X771281Y494236D01*
X771281Y496630D02*
X765927Y496630D01*
X765927Y499024D02*
X771281Y499024D01*
D14*
X927100Y571500D03*
X952500Y571500D03*
X977900Y571500D03*
X1003300Y571500D03*
X1028700Y571500D03*
X1054100Y571500D03*
X1079500Y571500D03*
X1104900Y571500D03*
X1130300Y571500D03*
X1155700Y571500D03*
X1018540Y12700D03*
X1043940Y12700D03*
X1069340Y12700D03*
X1094740Y12700D03*
X1120140Y12700D03*
X1145540Y12700D03*
X1170940Y12700D03*
X1196340Y12700D03*
X1247140Y12700D03*
X1272540Y12700D03*
X1297940Y12700D03*
X1323340Y12700D03*
X1348740Y12700D03*
X1374140Y12700D03*
X1374140Y571500D03*
X1348740Y571500D03*
X1323340Y571500D03*
X1297940Y571500D03*
X1272540Y571500D03*
X1247140Y571500D03*
X1221740Y571500D03*
X1196340Y571500D03*
D15*
X1228090Y368300D03*
X1228090Y381000D03*
X1240790Y368300D03*
X1240790Y381000D03*
X1253490Y368300D03*
X1253490Y381000D03*
X1266190Y368300D03*
X1266190Y381000D03*
X1278890Y368300D03*
X1278890Y381000D03*
D16*
X828040Y574040D03*
X1399540Y63500D03*
D13*
X1342888Y455920D02*
X1342888Y461528D01*
X1354592Y461528D01*
X1354592Y455920D01*
X1342888Y455920D01*
X1342888Y458314D02*
X1354592Y458314D01*
X1354592Y460708D02*
X1342888Y460708D01*
X1342888Y451114D02*
X1342888Y445506D01*
X1342888Y451114D02*
X1354592Y451114D01*
X1354592Y445506D01*
X1342888Y445506D01*
X1342888Y447900D02*
X1354592Y447900D01*
X1354592Y450294D02*
X1342888Y450294D01*
X1342888Y440700D02*
X1342888Y435092D01*
X1342888Y440700D02*
X1354592Y440700D01*
X1354592Y435092D01*
X1342888Y435092D01*
X1342888Y437486D02*
X1354592Y437486D01*
X1354592Y439880D02*
X1342888Y439880D01*
X1329192Y447919D02*
X1329192Y453273D01*
X1329192Y447919D02*
X1317488Y447919D01*
X1317488Y453273D01*
X1329192Y453273D01*
X1329192Y450313D02*
X1317488Y450313D01*
X1317488Y452707D02*
X1329192Y452707D01*
X1329192Y456047D02*
X1329192Y461401D01*
X1329192Y456047D02*
X1317488Y456047D01*
X1317488Y461401D01*
X1329192Y461401D01*
X1329192Y458441D02*
X1317488Y458441D01*
X1317488Y460835D02*
X1329192Y460835D01*
D16*
X779780Y242550D03*
X779780Y322550D03*
D13*
X1303792Y446649D02*
X1303792Y452257D01*
X1303792Y446649D02*
X1292088Y446649D01*
X1292088Y452257D01*
X1303792Y452257D01*
X1303792Y449043D02*
X1292088Y449043D01*
X1292088Y451437D02*
X1303792Y451437D01*
X1303792Y457063D02*
X1303792Y462671D01*
X1303792Y457063D02*
X1292088Y457063D01*
X1292088Y462671D01*
X1303792Y462671D01*
X1303792Y459457D02*
X1292088Y459457D01*
X1292088Y461851D02*
X1303792Y461851D01*
X1278392Y452257D02*
X1278392Y446649D01*
X1266688Y446649D01*
X1266688Y452257D01*
X1278392Y452257D01*
X1278392Y449043D02*
X1266688Y449043D01*
X1266688Y451437D02*
X1278392Y451437D01*
X1278392Y457063D02*
X1278392Y462671D01*
X1278392Y457063D02*
X1266688Y457063D01*
X1266688Y462671D01*
X1278392Y462671D01*
X1278392Y459457D02*
X1266688Y459457D01*
X1266688Y461851D02*
X1278392Y461851D01*
D17*
X759460Y111760D03*
X805180Y111760D03*
D13*
X1131179Y413248D02*
X1136787Y413248D01*
X1131179Y413248D02*
X1131179Y424952D01*
X1136787Y424952D01*
X1136787Y413248D01*
X1136787Y415642D02*
X1131179Y415642D01*
X1131179Y418036D02*
X1136787Y418036D01*
X1136787Y420430D02*
X1131179Y420430D01*
X1131179Y422824D02*
X1136787Y422824D01*
X1141593Y413248D02*
X1147201Y413248D01*
X1141593Y413248D02*
X1141593Y424952D01*
X1147201Y424952D01*
X1147201Y413248D01*
X1147201Y415642D02*
X1141593Y415642D01*
X1141593Y418036D02*
X1147201Y418036D01*
X1147201Y420430D02*
X1141593Y420430D01*
X1141593Y422824D02*
X1147201Y422824D01*
D14*
X1126490Y444500D03*
X1151890Y444500D03*
X942340Y127000D03*
X967740Y127000D03*
D18*
X1247140Y431800D03*
D10*
X139700Y640080D03*
X660400Y690880D03*
X660400Y970280D03*
X152400Y1122680D03*
D11*
X49050Y1037280D03*
X49050Y979480D03*
D12*
X33549Y1021269D02*
X4551Y1021269D01*
X33549Y1021269D02*
X33549Y1013271D01*
X4551Y1013271D01*
X4551Y1021269D01*
X4551Y1015671D02*
X33549Y1015671D01*
X33549Y1018071D02*
X4551Y1018071D01*
X4551Y1020471D02*
X33549Y1020471D01*
X33549Y1039049D02*
X4551Y1039049D01*
X33549Y1039049D02*
X33549Y1031051D01*
X4551Y1031051D01*
X4551Y1039049D01*
X4551Y1033451D02*
X33549Y1033451D01*
X33549Y1035851D02*
X4551Y1035851D01*
X4551Y1038251D02*
X33549Y1038251D01*
X33549Y1003489D02*
X4551Y1003489D01*
X33549Y1003489D02*
X33549Y995491D01*
X4551Y995491D01*
X4551Y1003489D01*
X4551Y997891D02*
X33549Y997891D01*
X33549Y1000291D02*
X4551Y1000291D01*
X4551Y1002691D02*
X33549Y1002691D01*
X33549Y985709D02*
X4551Y985709D01*
X33549Y985709D02*
X33549Y977711D01*
X4551Y977711D01*
X4551Y985709D01*
X4551Y980111D02*
X33549Y980111D01*
X33549Y982511D02*
X4551Y982511D01*
X4551Y984911D02*
X33549Y984911D01*
D13*
X24013Y1078728D02*
X18659Y1078728D01*
X18659Y1090432D01*
X24013Y1090432D01*
X24013Y1078728D01*
X24013Y1081122D02*
X18659Y1081122D01*
X18659Y1083516D02*
X24013Y1083516D01*
X24013Y1085910D02*
X18659Y1085910D01*
X18659Y1088304D02*
X24013Y1088304D01*
X26787Y1078728D02*
X32141Y1078728D01*
X26787Y1078728D02*
X26787Y1090432D01*
X32141Y1090432D01*
X32141Y1078728D01*
X32141Y1081122D02*
X26787Y1081122D01*
X26787Y1083516D02*
X32141Y1083516D01*
X32141Y1085910D02*
X26787Y1085910D01*
X26787Y1088304D02*
X32141Y1088304D01*
D14*
X187960Y1160780D03*
X213360Y1160780D03*
X238760Y1160780D03*
X264160Y1160780D03*
X289560Y1160780D03*
X314960Y1160780D03*
X340360Y1160780D03*
X365760Y1160780D03*
X391160Y1160780D03*
X416560Y1160780D03*
X279400Y601980D03*
X304800Y601980D03*
X330200Y601980D03*
X355600Y601980D03*
X381000Y601980D03*
X406400Y601980D03*
X431800Y601980D03*
X457200Y601980D03*
X508000Y601980D03*
X533400Y601980D03*
X558800Y601980D03*
X584200Y601980D03*
X609600Y601980D03*
X635000Y601980D03*
X635000Y1160780D03*
X609600Y1160780D03*
X584200Y1160780D03*
X558800Y1160780D03*
X533400Y1160780D03*
X508000Y1160780D03*
X482600Y1160780D03*
X457200Y1160780D03*
D15*
X488950Y957580D03*
X488950Y970280D03*
X501650Y957580D03*
X501650Y970280D03*
X514350Y957580D03*
X514350Y970280D03*
X527050Y957580D03*
X527050Y970280D03*
X539750Y957580D03*
X539750Y970280D03*
D16*
X88900Y1163320D03*
X660400Y652780D03*
D13*
X603748Y1045200D02*
X603748Y1050808D01*
X615452Y1050808D01*
X615452Y1045200D01*
X603748Y1045200D01*
X603748Y1047594D02*
X615452Y1047594D01*
X615452Y1049988D02*
X603748Y1049988D01*
X603748Y1040394D02*
X603748Y1034786D01*
X603748Y1040394D02*
X615452Y1040394D01*
X615452Y1034786D01*
X603748Y1034786D01*
X603748Y1037180D02*
X615452Y1037180D01*
X615452Y1039574D02*
X603748Y1039574D01*
X603748Y1029980D02*
X603748Y1024372D01*
X603748Y1029980D02*
X615452Y1029980D01*
X615452Y1024372D01*
X603748Y1024372D01*
X603748Y1026766D02*
X615452Y1026766D01*
X615452Y1029160D02*
X603748Y1029160D01*
X590052Y1037199D02*
X590052Y1042553D01*
X590052Y1037199D02*
X578348Y1037199D01*
X578348Y1042553D01*
X590052Y1042553D01*
X590052Y1039593D02*
X578348Y1039593D01*
X578348Y1041987D02*
X590052Y1041987D01*
X590052Y1045327D02*
X590052Y1050681D01*
X590052Y1045327D02*
X578348Y1045327D01*
X578348Y1050681D01*
X590052Y1050681D01*
X590052Y1047721D02*
X578348Y1047721D01*
X578348Y1050115D02*
X590052Y1050115D01*
D16*
X40640Y831830D03*
X40640Y911830D03*
D13*
X564652Y1035929D02*
X564652Y1041537D01*
X564652Y1035929D02*
X552948Y1035929D01*
X552948Y1041537D01*
X564652Y1041537D01*
X564652Y1038323D02*
X552948Y1038323D01*
X552948Y1040717D02*
X564652Y1040717D01*
X564652Y1046343D02*
X564652Y1051951D01*
X564652Y1046343D02*
X552948Y1046343D01*
X552948Y1051951D01*
X564652Y1051951D01*
X564652Y1048737D02*
X552948Y1048737D01*
X552948Y1051131D02*
X564652Y1051131D01*
X539252Y1041537D02*
X539252Y1035929D01*
X527548Y1035929D01*
X527548Y1041537D01*
X539252Y1041537D01*
X539252Y1038323D02*
X527548Y1038323D01*
X527548Y1040717D02*
X539252Y1040717D01*
X539252Y1046343D02*
X539252Y1051951D01*
X539252Y1046343D02*
X527548Y1046343D01*
X527548Y1051951D01*
X539252Y1051951D01*
X539252Y1048737D02*
X527548Y1048737D01*
X527548Y1051131D02*
X539252Y1051131D01*
D17*
X20320Y701040D03*
X66040Y701040D03*
D13*
X392039Y1002528D02*
X397647Y1002528D01*
X392039Y1002528D02*
X392039Y1014232D01*
X397647Y1014232D01*
X397647Y1002528D01*
X397647Y1004922D02*
X392039Y1004922D01*
X392039Y1007316D02*
X397647Y1007316D01*
X397647Y1009710D02*
X392039Y1009710D01*
X392039Y1012104D02*
X397647Y1012104D01*
X402453Y1002528D02*
X408061Y1002528D01*
X402453Y1002528D02*
X402453Y1014232D01*
X408061Y1014232D01*
X408061Y1002528D01*
X408061Y1004922D02*
X402453Y1004922D01*
X402453Y1007316D02*
X408061Y1007316D01*
X408061Y1009710D02*
X402453Y1009710D01*
X402453Y1012104D02*
X408061Y1012104D01*
D14*
X387350Y1033780D03*
X412750Y1033780D03*
X203200Y716280D03*
X228600Y716280D03*
D18*
X508000Y1021080D03*
D10*
X878840Y640080D03*
X1399540Y690880D03*
X1399540Y970280D03*
X891540Y1122680D03*
D11*
X788190Y1037280D03*
X788190Y979480D03*
D12*
X772689Y1021269D02*
X743691Y1021269D01*
X772689Y1021269D02*
X772689Y1013271D01*
X743691Y1013271D01*
X743691Y1021269D01*
X743691Y1015671D02*
X772689Y1015671D01*
X772689Y1018071D02*
X743691Y1018071D01*
X743691Y1020471D02*
X772689Y1020471D01*
X772689Y1039049D02*
X743691Y1039049D01*
X772689Y1039049D02*
X772689Y1031051D01*
X743691Y1031051D01*
X743691Y1039049D01*
X743691Y1033451D02*
X772689Y1033451D01*
X772689Y1035851D02*
X743691Y1035851D01*
X743691Y1038251D02*
X772689Y1038251D01*
X772689Y1003489D02*
X743691Y1003489D01*
X772689Y1003489D02*
X772689Y995491D01*
X743691Y995491D01*
X743691Y1003489D01*
X743691Y997891D02*
X772689Y997891D01*
X772689Y1000291D02*
X743691Y1000291D01*
X743691Y1002691D02*
X772689Y1002691D01*
X772689Y985709D02*
X743691Y985709D01*
X772689Y985709D02*
X772689Y977711D01*
X743691Y977711D01*
X743691Y985709D01*
X743691Y980111D02*
X772689Y980111D01*
X772689Y982511D02*
X743691Y982511D01*
X743691Y984911D02*
X772689Y984911D01*
D13*
X763153Y1078728D02*
X757799Y1078728D01*
X757799Y1090432D01*
X763153Y1090432D01*
X763153Y1078728D01*
X763153Y1081122D02*
X757799Y1081122D01*
X757799Y1083516D02*
X763153Y1083516D01*
X763153Y1085910D02*
X757799Y1085910D01*
X757799Y1088304D02*
X763153Y1088304D01*
X765927Y1078728D02*
X771281Y1078728D01*
X765927Y1078728D02*
X765927Y1090432D01*
X771281Y1090432D01*
X771281Y1078728D01*
X771281Y1081122D02*
X765927Y1081122D01*
X765927Y1083516D02*
X771281Y1083516D01*
X771281Y1085910D02*
X765927Y1085910D01*
X765927Y1088304D02*
X771281Y1088304D01*
D14*
X927100Y1160780D03*
X952500Y1160780D03*
X977900Y1160780D03*
X1003300Y1160780D03*
X1028700Y1160780D03*
X1054100Y1160780D03*
X1079500Y1160780D03*
X1104900Y1160780D03*
X1130300Y1160780D03*
X1155700Y1160780D03*
X1018540Y601980D03*
X1043940Y601980D03*
X1069340Y601980D03*
X1094740Y601980D03*
X1120140Y601980D03*
X1145540Y601980D03*
X1170940Y601980D03*
X1196340Y601980D03*
X1247140Y601980D03*
X1272540Y601980D03*
X1297940Y601980D03*
X1323340Y601980D03*
X1348740Y601980D03*
X1374140Y601980D03*
X1374140Y1160780D03*
X1348740Y1160780D03*
X1323340Y1160780D03*
X1297940Y1160780D03*
X1272540Y1160780D03*
X1247140Y1160780D03*
X1221740Y1160780D03*
X1196340Y1160780D03*
D15*
X1228090Y957580D03*
X1228090Y970280D03*
X1240790Y957580D03*
X1240790Y970280D03*
X1253490Y957580D03*
X1253490Y970280D03*
X1266190Y957580D03*
X1266190Y970280D03*
X1278890Y957580D03*
X1278890Y970280D03*
D16*
X828040Y1163320D03*
X1399540Y652780D03*
D13*
X1342888Y1045200D02*
X1342888Y1050808D01*
X1354592Y1050808D01*
X1354592Y1045200D01*
X1342888Y1045200D01*
X1342888Y1047594D02*
X1354592Y1047594D01*
X1354592Y1049988D02*
X1342888Y1049988D01*
X1342888Y1040394D02*
X1342888Y1034786D01*
X1342888Y1040394D02*
X1354592Y1040394D01*
X1354592Y1034786D01*
X1342888Y1034786D01*
X1342888Y1037180D02*
X1354592Y1037180D01*
X1354592Y1039574D02*
X1342888Y1039574D01*
X1342888Y1029980D02*
X1342888Y1024372D01*
X1342888Y1029980D02*
X1354592Y1029980D01*
X1354592Y1024372D01*
X1342888Y1024372D01*
X1342888Y1026766D02*
X1354592Y1026766D01*
X1354592Y1029160D02*
X1342888Y1029160D01*
X1329192Y1037199D02*
X1329192Y1042553D01*
X1329192Y1037199D02*
X1317488Y1037199D01*
X1317488Y1042553D01*
X1329192Y1042553D01*
X1329192Y1039593D02*
X1317488Y1039593D01*
X1317488Y1041987D02*
X1329192Y1041987D01*
X1329192Y1045327D02*
X1329192Y1050681D01*
X1329192Y1045327D02*
X1317488Y1045327D01*
X1317488Y1050681D01*
X1329192Y1050681D01*
X1329192Y1047721D02*
X1317488Y1047721D01*
X1317488Y1050115D02*
X1329192Y1050115D01*
D16*
X779780Y831830D03*
X779780Y911830D03*
D13*
X1303792Y1035929D02*
X1303792Y1041537D01*
X1303792Y1035929D02*
X1292088Y1035929D01*
X1292088Y1041537D01*
X1303792Y1041537D01*
X1303792Y1038323D02*
X1292088Y1038323D01*
X1292088Y1040717D02*
X1303792Y1040717D01*
X1303792Y1046343D02*
X1303792Y1051951D01*
X1303792Y1046343D02*
X1292088Y1046343D01*
X1292088Y1051951D01*
X1303792Y1051951D01*
X1303792Y1048737D02*
X1292088Y1048737D01*
X1292088Y1051131D02*
X1303792Y1051131D01*
X1278392Y1041537D02*
X1278392Y1035929D01*
X1266688Y1035929D01*
X1266688Y1041537D01*
X1278392Y1041537D01*
X1278392Y1038323D02*
X1266688Y1038323D01*
X1266688Y1040717D02*
X1278392Y1040717D01*
X1278392Y1046343D02*
X1278392Y1051951D01*
X1278392Y1046343D02*
X1266688Y1046343D01*
X1266688Y1051951D01*
X1278392Y1051951D01*
X1278392Y1048737D02*
X1266688Y1048737D01*
X1266688Y1051131D02*
X1278392Y1051131D01*
D17*
X759460Y701040D03*
X805180Y701040D03*
D13*
X1131179Y1002528D02*
X1136787Y1002528D01*
X1131179Y1002528D02*
X1131179Y1014232D01*
X1136787Y1014232D01*
X1136787Y1002528D01*
X1136787Y1004922D02*
X1131179Y1004922D01*
X1131179Y1007316D02*
X1136787Y1007316D01*
X1136787Y1009710D02*
X1131179Y1009710D01*
X1131179Y1012104D02*
X1136787Y1012104D01*
X1141593Y1002528D02*
X1147201Y1002528D01*
X1141593Y1002528D02*
X1141593Y1014232D01*
X1147201Y1014232D01*
X1147201Y1002528D01*
X1147201Y1004922D02*
X1141593Y1004922D01*
X1141593Y1007316D02*
X1147201Y1007316D01*
X1147201Y1009710D02*
X1141593Y1009710D01*
X1141593Y1012104D02*
X1147201Y1012104D01*
D14*
X1126490Y1033780D03*
X1151890Y1033780D03*
X942340Y716280D03*
X967740Y716280D03*
D18*
X1247140Y1021080D03*
D16*
X-74498Y1146810D03*
X1446098Y1146810D03*
D19*
X-83553Y63500D02*
X-83550Y63722D01*
X-83542Y63944D01*
X-83528Y64166D01*
X-83509Y64388D01*
X-83485Y64608D01*
X-83455Y64829D01*
X-83420Y65048D01*
X-83379Y65267D01*
X-83333Y65484D01*
X-83282Y65700D01*
X-83225Y65915D01*
X-83163Y66129D01*
X-83096Y66340D01*
X-83024Y66551D01*
X-82946Y66759D01*
X-82864Y66965D01*
X-82776Y67169D01*
X-82684Y67372D01*
X-82586Y67571D01*
X-82484Y67768D01*
X-82377Y67963D01*
X-82265Y68155D01*
X-82148Y68344D01*
X-82027Y68531D01*
X-81901Y68714D01*
X-81771Y68894D01*
X-81636Y69071D01*
X-81498Y69244D01*
X-81355Y69414D01*
X-81207Y69581D01*
X-81056Y69744D01*
X-80901Y69903D01*
X-80742Y70058D01*
X-80579Y70209D01*
X-80412Y70357D01*
X-80242Y70500D01*
X-80069Y70638D01*
X-79892Y70773D01*
X-79712Y70903D01*
X-79529Y71029D01*
X-79342Y71150D01*
X-79153Y71267D01*
X-78961Y71379D01*
X-78766Y71486D01*
X-78569Y71588D01*
X-78370Y71686D01*
X-78167Y71778D01*
X-77963Y71866D01*
X-77757Y71948D01*
X-77549Y72026D01*
X-77338Y72098D01*
X-77127Y72165D01*
X-76913Y72227D01*
X-76698Y72284D01*
X-76482Y72335D01*
X-76265Y72381D01*
X-76046Y72422D01*
X-75827Y72457D01*
X-75606Y72487D01*
X-75386Y72511D01*
X-75164Y72530D01*
X-74942Y72544D01*
X-74720Y72552D01*
X-74498Y72555D01*
X-74276Y72552D01*
X-74054Y72544D01*
X-73832Y72530D01*
X-73610Y72511D01*
X-73390Y72487D01*
X-73169Y72457D01*
X-72950Y72422D01*
X-72731Y72381D01*
X-72514Y72335D01*
X-72298Y72284D01*
X-72083Y72227D01*
X-71869Y72165D01*
X-71658Y72098D01*
X-71447Y72026D01*
X-71239Y71948D01*
X-71033Y71866D01*
X-70829Y71778D01*
X-70626Y71686D01*
X-70427Y71588D01*
X-70230Y71486D01*
X-70035Y71379D01*
X-69843Y71267D01*
X-69654Y71150D01*
X-69467Y71029D01*
X-69284Y70903D01*
X-69104Y70773D01*
X-68927Y70638D01*
X-68754Y70500D01*
X-68584Y70357D01*
X-68417Y70209D01*
X-68254Y70058D01*
X-68095Y69903D01*
X-67940Y69744D01*
X-67789Y69581D01*
X-67641Y69414D01*
X-67498Y69244D01*
X-67360Y69071D01*
X-67225Y68894D01*
X-67095Y68714D01*
X-66969Y68531D01*
X-66848Y68344D01*
X-66731Y68155D01*
X-66619Y67963D01*
X-66512Y67768D01*
X-66410Y67571D01*
X-66312Y67372D01*
X-66220Y67169D01*
X-66132Y66965D01*
X-66050Y66759D01*
X-65972Y66551D01*
X-65900Y66340D01*
X-65833Y66129D01*
X-65771Y65915D01*
X-65714Y65700D01*
X-65663Y65484D01*
X-65617Y65267D01*
X-65576Y65048D01*
X-65541Y64829D01*
X-65511Y64608D01*
X-65487Y64388D01*
X-65468Y64166D01*
X-65454Y63944D01*
X-65446Y63722D01*
X-65443Y63500D01*
X-65446Y63278D01*
X-65454Y63056D01*
X-65468Y62834D01*
X-65487Y62612D01*
X-65511Y62392D01*
X-65541Y62171D01*
X-65576Y61952D01*
X-65617Y61733D01*
X-65663Y61516D01*
X-65714Y61300D01*
X-65771Y61085D01*
X-65833Y60871D01*
X-65900Y60660D01*
X-65972Y60449D01*
X-66050Y60241D01*
X-66132Y60035D01*
X-66220Y59831D01*
X-66312Y59628D01*
X-66410Y59429D01*
X-66512Y59232D01*
X-66619Y59037D01*
X-66731Y58845D01*
X-66848Y58656D01*
X-66969Y58469D01*
X-67095Y58286D01*
X-67225Y58106D01*
X-67360Y57929D01*
X-67498Y57756D01*
X-67641Y57586D01*
X-67789Y57419D01*
X-67940Y57256D01*
X-68095Y57097D01*
X-68254Y56942D01*
X-68417Y56791D01*
X-68584Y56643D01*
X-68754Y56500D01*
X-68927Y56362D01*
X-69104Y56227D01*
X-69284Y56097D01*
X-69467Y55971D01*
X-69654Y55850D01*
X-69843Y55733D01*
X-70035Y55621D01*
X-70230Y55514D01*
X-70427Y55412D01*
X-70626Y55314D01*
X-70829Y55222D01*
X-71033Y55134D01*
X-71239Y55052D01*
X-71447Y54974D01*
X-71658Y54902D01*
X-71869Y54835D01*
X-72083Y54773D01*
X-72298Y54716D01*
X-72514Y54665D01*
X-72731Y54619D01*
X-72950Y54578D01*
X-73169Y54543D01*
X-73390Y54513D01*
X-73610Y54489D01*
X-73832Y54470D01*
X-74054Y54456D01*
X-74276Y54448D01*
X-74498Y54445D01*
X-74720Y54448D01*
X-74942Y54456D01*
X-75164Y54470D01*
X-75386Y54489D01*
X-75606Y54513D01*
X-75827Y54543D01*
X-76046Y54578D01*
X-76265Y54619D01*
X-76482Y54665D01*
X-76698Y54716D01*
X-76913Y54773D01*
X-77127Y54835D01*
X-77338Y54902D01*
X-77549Y54974D01*
X-77757Y55052D01*
X-77963Y55134D01*
X-78167Y55222D01*
X-78370Y55314D01*
X-78569Y55412D01*
X-78766Y55514D01*
X-78961Y55621D01*
X-79153Y55733D01*
X-79342Y55850D01*
X-79529Y55971D01*
X-79712Y56097D01*
X-79892Y56227D01*
X-80069Y56362D01*
X-80242Y56500D01*
X-80412Y56643D01*
X-80579Y56791D01*
X-80742Y56942D01*
X-80901Y57097D01*
X-81056Y57256D01*
X-81207Y57419D01*
X-81355Y57586D01*
X-81498Y57756D01*
X-81636Y57929D01*
X-81771Y58106D01*
X-81901Y58286D01*
X-82027Y58469D01*
X-82148Y58656D01*
X-82265Y58845D01*
X-82377Y59037D01*
X-82484Y59232D01*
X-82586Y59429D01*
X-82684Y59628D01*
X-82776Y59831D01*
X-82864Y60035D01*
X-82946Y60241D01*
X-83024Y60449D01*
X-83096Y60660D01*
X-83163Y60871D01*
X-83225Y61085D01*
X-83282Y61300D01*
X-83333Y61516D01*
X-83379Y61733D01*
X-83420Y61952D01*
X-83455Y62171D01*
X-83485Y62392D01*
X-83509Y62612D01*
X-83528Y62834D01*
X-83542Y63056D01*
X-83550Y63278D01*
X-83553Y63500D01*
D20*
X-74498Y63500D03*
M02*
