M48
;GenerationSoftware,Autodesk,EAGLE,9.6.2*%
;CreationDate,2022-01-31T18:29:49Z*%
FMAT,2
ICI,OFF
METRIC,TZ,000.000
T9C0.305
T8C0.381
T7C0.400
T6C0.432
T5C0.650
T4C1.000
T3C1.016
T2C2.032
T1C3.302
%
G90
M71
T1
X87884Y5080
X139954Y10160
X139954Y38100
X89154Y53340
X87884Y64008
X139954Y69088
X13970Y64008
X66040Y69088
X66040Y97028
X15240Y112268
X13970Y5080
X66040Y10160
X66040Y38100
X15240Y53340
X139954Y97028
X89154Y112268
T2
X2032Y70104
X6604Y70104
X75946Y11176
X80518Y11176
X75946Y70104
X80518Y70104
X2032Y11176
X6604Y11176
T3
X28956Y57150
X58420Y116078
X55880Y116078
X53340Y116078
X50800Y116078
X96774Y71628
X48260Y116078
X45720Y116078
X109474Y60198
X38735Y103378
X41275Y103378
X20320Y71628
X110490Y57150
X22860Y71628
X92710Y116078
X95250Y116078
X97790Y116078
X100330Y116078
X102870Y116078
X105410Y116078
X107950Y116078
X18796Y116078
X110490Y116078
X113030Y116078
X115570Y116078
X101854Y60198
X104394Y60198
X106934Y60198
X112014Y60198
X114554Y60198
X117094Y60198
X119634Y60198
X124714Y60198
X127254Y60198
X18796Y57150
X21336Y57150
X23876Y57150
X26416Y57150
X129794Y60198
X31496Y57150
X34036Y57150
X36576Y57150
X39116Y57150
X41656Y57150
X27940Y1270
X30480Y1270
X33020Y1270
X35560Y1270
X38100Y1270
X40640Y1270
X43180Y1270
X45720Y1270
X50800Y1270
X53340Y1270
X55880Y1270
X58420Y1270
X60960Y1270
X63500Y1270
X63500Y57150
X60960Y57150
X58420Y57150
X55880Y57150
X53340Y57150
X50800Y57150
X48260Y57150
X45720Y57150
X132334Y60198
X134874Y60198
X137414Y60198
X137414Y116078
X134874Y116078
X127254Y1270
X132334Y116078
X129794Y116078
X127254Y116078
X124714Y116078
X38735Y44450
X41275Y44450
X20320Y12700
X22860Y12700
X122174Y116078
X119634Y116078
X112649Y103378
X115189Y103378
X92710Y57150
X95250Y57150
X97790Y57150
X100330Y57150
X102870Y57150
X105410Y57150
X107950Y57150
X113030Y57150
X115570Y57150
X101854Y1270
X104394Y1270
X106934Y1270
X109474Y1270
X112014Y1270
X114554Y1270
X117094Y1270
X119634Y1270
X124714Y1270
X94234Y71628
X129794Y1270
X132334Y1270
X134874Y1270
X137414Y1270
X137414Y57150
X134874Y57150
X132334Y57150
X129794Y57150
X127254Y57150
X124714Y57150
X122174Y57150
X119634Y57150
X112649Y44450
X115189Y44450
X94234Y12700
X96774Y12700
X21336Y116078
X23876Y116078
X26416Y116078
X28956Y116078
X31496Y116078
X34036Y116078
X36576Y116078
X39116Y116078
X41656Y116078
X27940Y60198
X30480Y60198
X33020Y60198
X35560Y60198
X38100Y60198
X40640Y60198
X43180Y60198
X45720Y60198
X50800Y60198
X53340Y60198
X55880Y60198
X58420Y60198
X60960Y60198
X63500Y60198
X63500Y116078
X60960Y116078
T4
X4064Y83183
X77978Y24255
X77978Y32255
X4064Y91183
X77978Y83183
X77978Y91183
X4064Y24255
X4064Y32255
T5
X78819Y39020
X4905Y103728
X4905Y97948
X78819Y103728
X78819Y97948
X4905Y44800
X4905Y39020
X78819Y44800
T6
X126619Y38100
X127889Y36830
X127889Y38100
X122809Y36830
X122809Y38100
X124079Y36830
X122809Y95758
X122809Y97028
X124079Y97028
X48895Y38100
X125349Y95758
X125349Y97028
X126619Y95758
X126619Y97028
X127889Y95758
X127889Y97028
X48895Y36830
X50165Y36830
X50165Y38100
X51435Y36830
X52705Y36830
X52705Y38100
X53975Y36830
X53975Y38100
X124079Y38100
X48895Y95758
X124079Y95758
X51435Y38100
X125349Y36830
X125349Y38100
X48895Y97028
X50165Y95758
X50165Y97028
X51435Y95758
X51435Y97028
X52705Y95758
X52705Y97028
X53975Y95758
X53975Y97028
X126619Y36830
T7
X1255Y46228
X1255Y37592
X5435Y37592
X5435Y46228
X75169Y46228
X75169Y37592
X75169Y105156
X75169Y96520
X79349Y96520
X79349Y105156
X5435Y96520
X5435Y105156
X79349Y46228
X79349Y37592
X1255Y105156
X1255Y96520
T8
X36830Y7620
X110744Y7620
X36830Y66548
X36830Y67818
X27686Y19304
X101600Y19304
X27686Y78232
X110744Y67818
X110744Y66548
X101600Y78232
X110744Y8890
X36830Y8890
T9
X98044Y40005
X98044Y41275
X115824Y11430
X122174Y11430
X120904Y11430
X113284Y15240
X113284Y16510
X115824Y16510
X113284Y20320
X90424Y19050
X89154Y19050
X87884Y19050
X131064Y39370
X125984Y43434
X133604Y52070
X106680Y49530
X104140Y49530
X109220Y49530
X128524Y52070
X131064Y52070
X101346Y10160
X98044Y37465
X94234Y1905
X95504Y1905
X96774Y1905
X82804Y22860
X84074Y22860
X82804Y21590
X84074Y21590
X76454Y26670
X76454Y27940
X76454Y29210
X76454Y30480
X85598Y762
X84074Y1778
X98791Y34100
X112776Y32766
X112776Y30734
X81534Y22860
X81534Y21590
X87884Y49784
X95504Y17780
X76708Y46228
X81026Y39878
X81026Y44323
X82042Y40386
X82042Y42164
X78232Y41148
X86868Y42164
X85852Y54356
X92964Y40640
X78260Y40160
X108331Y11176
X119380Y47244
X87630Y48514
X116586Y36068
X114300Y36068
X117348Y32258
X119380Y29464
X129286Y39116
X128270Y39878
X108458Y41275
X77724Y55118
X131826Y37084
X133858Y37084
X133858Y39624
X133858Y33782
X84074Y2921
X81534Y2921
X81280Y27940
X122174Y2794
X105918Y36322
X90678Y46482
X90424Y13462
X88138Y37592
X93980Y49784
X123444Y50038
X136144Y50800
X77724Y53086
X131318Y13208
X90170Y12446
X77724Y54102
X125857Y47752
X115824Y9652
X75184Y21336
X76200Y34036
X86868Y43434
X98044Y44704
X120904Y54356
X96520Y46990
X133350Y49022
X131064Y17526
X133604Y54356
X86868Y45466
X99822Y41021
X114300Y53340
X134874Y29210
X136144Y53340
X138684Y48768
X114935Y14859
X115824Y40132
X123444Y41808
X131064Y30480
X133350Y29464
X129032Y29464
X127762Y29464
X125222Y28956
X126492Y29464
X120904Y27940
X130048Y36576
X116840Y14224
X81280Y25654
X109474Y43625
X122174Y20066
X123444Y47752
X124460Y21844
X96520Y49530
X81280Y29210
X83566Y48514
X84074Y36068
X101346Y49530
X104140Y51308
X126238Y19812
X125984Y8382
X125984Y11430
X80010Y21590
X123444Y30480
X118110Y49530
X122174Y43434
X121666Y29718
X117856Y47752
X119104Y26416
X101600Y46990
X119380Y46228
X101600Y22606
X116840Y31242
X117348Y40640
X120904Y18796
X121412Y47752
X124714Y47752
X102514Y12700
X106934Y13970
X106934Y17780
X104902Y25908
X103124Y20320
X103124Y27940
X104648Y15494
X106934Y21590
X113030Y29718
X77978Y47498
X92710Y39624
X84074Y19050
X101854Y25400
X101346Y32766
X106934Y30226
X106934Y22860
X103124Y21336
X105410Y11176
X133604Y41910
X131572Y47244
X133604Y47244
X92456Y13716
X115824Y2794
X122174Y7620
X115824Y7620
X118872Y20066
X108712Y19558
X108712Y15240
X108712Y25146
X100584Y17145
X105156Y27940
X113030Y25908
X103124Y11430
X112649Y11430
X85344Y9652
X90932Y38354
X109220Y46228
X133604Y13970
X81280Y26670
X81534Y1778
X113030Y33782
X113030Y36068
X108712Y27686
X108712Y36195
X5080Y64262
X33020Y86868
X23622Y65278
X3048Y66548
X4318Y66548
X1778Y66548
X10160Y59690
X7620Y59690
X18796Y94234
X11684Y105410
X20193Y90932
X38862Y90678
X59690Y85598
X59690Y84328
X59690Y83058
X59690Y81788
X59690Y80518
X59690Y79248
X59690Y77978
X54610Y80518
X54610Y79248
X54610Y77978
X57150Y80518
X57150Y79248
X57150Y77978
X57150Y84328
X57150Y83058
X57150Y85598
X7366Y104394
X7493Y96393
X24130Y98933
X24130Y100203
X41910Y70358
X48260Y70358
X46990Y70358
X39370Y74168
X39370Y75438
X41910Y75438
X39370Y79248
X16510Y77978
X15240Y77978
X13970Y77978
X57150Y98298
X52070Y102362
X59690Y110998
X32766Y108458
X30226Y108458
X35306Y108458
X54610Y110998
X57150Y110998
X27432Y69088
X24130Y96393
X20320Y60833
X21590Y60833
X22860Y60833
X8890Y81788
X10160Y81788
X8890Y80518
X10160Y80518
X2540Y85598
X2540Y86868
X2540Y88138
X2540Y89408
X11684Y59690
X10160Y60706
X24877Y93027
X38862Y91694
X38862Y89662
X7620Y81788
X7620Y80518
X13970Y108712
X21590Y76708
X2794Y105156
X7112Y98806
X7112Y103251
X8128Y99314
X8128Y101092
X4318Y100076
X12954Y101092
X11938Y113284
X19050Y99568
X4346Y99088
X34417Y70104
X45466Y106172
X13716Y107442
X42672Y94996
X40386Y94996
X43434Y91186
X45466Y88392
X55372Y98044
X54356Y98806
X34544Y100203
X3810Y114046
X57912Y96012
X59944Y96012
X59944Y98552
X59944Y92710
X10160Y61849
X7620Y61849
X7366Y86868
X48260Y61722
X32004Y95250
X16764Y105410
X16510Y72390
X14224Y96520
X20066Y108712
X49530Y108966
X62230Y109728
X3810Y112014
X57404Y72136
X16256Y71374
X3810Y113030
X51943Y106680
X41910Y68580
X1270Y80264
X2286Y92964
X12954Y102362
X24130Y103632
X51308Y28956
X22606Y105918
X59436Y107950
X57150Y76454
X59690Y113284
X12954Y104394
X25908Y99949
X40386Y112268
X60960Y88138
X62230Y112268
X64770Y107696
X41021Y73787
X41910Y99060
X49530Y100736
X57150Y89408
X59436Y88392
X55118Y88392
X53848Y88392
X51308Y87884
X52578Y88392
X46990Y86868
X56134Y95504
X42926Y73152
X7366Y84582
X35560Y102552
X48260Y78994
X49530Y106680
X50546Y80772
X22606Y108458
X7366Y88138
X9652Y107442
X10160Y94996
X27432Y108458
X30226Y110236
X52324Y78740
X52070Y67310
X52070Y70358
X6096Y80518
X49530Y89408
X44196Y108458
X48260Y102362
X47752Y88646
X43942Y106680
X45190Y85344
X27686Y105918
X45466Y105156
X27686Y81534
X42926Y90170
X43434Y99568
X46990Y77724
X47498Y106680
X50800Y106680
X28600Y71628
X33020Y72898
X33020Y76708
X30988Y84836
X29210Y79248
X29210Y86868
X30734Y74422
X33020Y80518
X39116Y88646
X4064Y106426
X18796Y98552
X10160Y77978
X27940Y84328
X27432Y91694
X33020Y89154
X33020Y81788
X29210Y80264
X31496Y70104
X59690Y100838
X57658Y106172
X59690Y106172
X18542Y72644
X41910Y61722
X48260Y66548
X41910Y66548
X44958Y78994
X34798Y78486
X34798Y74168
X34798Y84074
X26670Y76073
X31242Y86868
X39116Y84836
X29210Y70358
X38735Y70358
X5080Y5334
X11430Y68580
X17018Y97282
X35306Y105156
X59690Y72898
X7366Y85598
X7620Y60706
X39116Y92710
X39116Y94996
X34798Y86614
X34798Y95123
X78994Y64262
X33020Y27940
X23622Y6350
X106934Y86868
X97536Y65278
X76962Y66548
X78232Y66548
X75692Y66548
X84074Y59690
X81534Y59690
X92710Y94234
X85598Y105410
X94107Y90932
X112776Y90678
X133604Y85598
X133604Y84328
X133604Y83058
X133604Y81788
X133604Y80518
X133604Y79248
X133604Y77978
X128524Y80518
X128524Y79248
X128524Y77978
X131064Y80518
X131064Y79248
X131064Y77978
X131064Y84328
X131064Y83058
X131064Y85598
X81280Y104394
X81407Y96393
X98044Y98933
X98044Y100203
X115824Y70358
X122174Y70358
X120904Y70358
X113284Y74168
X113284Y75438
X115824Y75438
X113284Y79248
X90424Y77978
X89154Y77978
X87884Y77978
X131064Y98298
X125984Y102362
X133604Y110998
X106680Y108458
X104140Y108458
X109220Y108458
X128524Y110998
X131064Y110998
X101346Y69088
X98044Y96393
X94234Y60833
X95504Y60833
X96774Y60833
X82804Y81788
X84074Y81788
X82804Y80518
X84074Y80518
X76454Y85598
X76454Y86868
X76454Y88138
X76454Y89408
X85598Y59690
X84074Y60706
X98791Y93027
X112776Y91694
X112776Y89662
X81534Y81788
X81534Y80518
X87884Y108712
X95504Y76708
X76708Y105156
X81026Y98806
X81026Y103251
X82042Y99314
X82042Y101092
X78232Y100076
X86868Y101092
X85852Y113284
X92964Y99568
X78260Y99088
X108331Y70104
X119380Y106172
X87630Y107442
X116586Y94996
X114300Y94996
X117348Y91186
X119380Y88392
X129286Y98044
X128270Y98806
X108458Y100203
X77724Y114046
X131826Y96012
X133858Y96012
X133858Y98552
X133858Y92710
X84074Y61849
X81534Y61849
X81280Y86868
X122174Y61722
X105918Y95250
X90678Y105410
X90424Y72390
X88138Y96520
X93980Y108712
X123444Y108966
X136144Y109728
X77724Y112014
X131318Y72136
X90170Y71374
X77724Y113030
X125857Y106680
X115824Y68580
X75184Y80264
X76200Y92964
X86868Y102362
X98044Y103632
X120904Y113284
X96520Y105918
X133350Y107950
X131064Y76454
X133604Y113284
X86868Y104394
X99822Y99949
X114300Y112268
X134874Y88138
X136144Y112268
X138684Y107696
X114935Y73787
X115824Y99060
X123444Y100736
X131064Y89408
X133350Y88392
X129032Y88392
X127762Y88392
X125222Y87884
X126492Y88392
X120904Y86868
X130048Y95504
X116840Y73152
X81280Y84582
X109474Y102552
X122174Y78994
X123444Y106680
X124460Y80772
X96520Y108458
X81280Y88138
X83566Y107442
X84074Y94996
X101346Y108458
X104140Y110236
X126238Y78740
X125984Y67310
X125984Y70358
X80010Y80518
X123444Y89408
X118110Y108458
X122174Y102362
X121666Y88646
X117856Y106680
X119104Y85344
X101600Y105918
X119380Y105156
X101600Y81534
X116840Y90170
X117348Y99568
X120904Y77724
X121412Y106680
X124714Y106680
X102514Y71628
X106934Y72898
X106934Y76708
X104902Y84836
X103124Y79248
X103124Y86868
X104648Y74422
X106934Y80518
X3048Y7620
X77978Y106426
X92710Y98552
X84074Y77978
X101854Y84328
X101346Y91694
X106934Y89154
X106934Y81788
X103124Y80264
X105410Y70104
X133604Y100838
X131572Y106172
X133604Y106172
X92456Y72644
X115824Y61722
X122174Y66548
X115824Y66548
X118872Y78994
X108712Y78486
X108712Y74168
X108712Y84074
X100584Y76073
X105156Y86868
X113030Y84836
X103124Y70358
X112649Y70358
X4318Y7620
X85344Y68580
X90932Y97282
X109220Y105156
X133604Y72898
X81280Y85598
X81534Y60706
X113030Y92710
X113030Y94996
X108712Y86614
X108712Y95123
X1778Y7620
X10160Y762
X7620Y762
X18796Y35306
X11684Y46482
X20193Y32004
X38862Y31750
X59690Y26670
X59690Y25400
X59690Y24130
X59690Y22860
X59690Y21590
X59690Y20320
X59690Y19050
X54610Y21590
X54610Y20320
X54610Y19050
X57150Y21590
X57150Y20320
X57150Y19050
X57150Y25400
X57150Y24130
X57150Y26670
X7366Y45466
X7493Y37465
X24130Y40005
X24130Y41275
X41910Y11430
X48260Y11430
X46990Y11430
X39370Y15240
X39370Y16510
X41910Y16510
X39370Y20320
X16510Y19050
X15240Y19050
X13970Y19050
X57150Y39370
X52070Y43434
X59690Y52070
X32766Y49530
X30226Y49530
X35306Y49530
X54610Y52070
X57150Y52070
X27432Y10160
X24130Y37465
X20320Y1905
X21590Y1905
X22860Y1905
X8890Y22860
X10160Y22860
X8890Y21590
X10160Y21590
X2540Y26670
X2540Y27940
X2540Y29210
X2540Y30480
X11684Y762
X10160Y1778
X24877Y34100
X38862Y32766
X38862Y30734
X7620Y22860
X7620Y21590
X13970Y49784
X21590Y17780
X2794Y46228
X7112Y39878
X7112Y44323
X8128Y40386
X8128Y42164
X4318Y41148
X12954Y42164
X11938Y54356
X19050Y40640
X4346Y40160
X34417Y11176
X45466Y47244
X13716Y48514
X42672Y36068
X40386Y36068
X43434Y32258
X45466Y29464
X55372Y39116
X54356Y39878
X34544Y41275
X3810Y55118
X57912Y37084
X59944Y37084
X59944Y39624
X59944Y33782
X10160Y2921
X7620Y2921
X7366Y27940
X48260Y2794
X32004Y36322
X16764Y46482
X16510Y13462
X14224Y37592
X20066Y49784
X46990Y113284
X49530Y50038
X62230Y50800
X3810Y53086
X57404Y13208
X16256Y12446
X3810Y54102
X51943Y47752
X41910Y9652
X1270Y21336
X2286Y34036
X12954Y43434
X24130Y44704
X46990Y54356
X22606Y46990
X59436Y49022
X57150Y17526
X59690Y54356
X12954Y45466
X25908Y41021
X40386Y53340
X60960Y29210
X62230Y53340
X64770Y48768
X41021Y14859
X41910Y40132
X49530Y41808
X57150Y30480
X59436Y29464
X55118Y29464
X53848Y29464
X52578Y29464
X46990Y27940
X56134Y36576
X42926Y14224
X7366Y25654
X35560Y43625
X48260Y20066
X49530Y47752
X50546Y21844
X22606Y49530
X7366Y29210
X9652Y48514
X10160Y36068
X27432Y49530
X30226Y51308
X52324Y19812
X52070Y8382
X52070Y11430
X6096Y21590
X49530Y30480
X44196Y49530
X48260Y43434
X47752Y29718
X43942Y47752
X45190Y26416
X27686Y46990
X45466Y46228
X27686Y22606
X42926Y31242
X43434Y40640
X46990Y18796
X47498Y47752
X50800Y47752
X28600Y12700
X33020Y13970
X33020Y17780
X30988Y25908
X29210Y20320
X29210Y27940
X30734Y15494
X33020Y21590
X39116Y29718
X4064Y47498
X18796Y39624
X10160Y19050
X27940Y25400
X27432Y32766
X33020Y30226
X33020Y22860
X29210Y21336
X31496Y11176
X59690Y41910
X57658Y47244
X59690Y47244
X18542Y13716
X41910Y2794
X48260Y7620
X41910Y7620
X44958Y20066
X34798Y19558
X34798Y15240
X34798Y25146
X26670Y17145
X31242Y27940
X39116Y25908
X29210Y11430
X38735Y11430
X11430Y9652
X17018Y38354
X35306Y46228
X59690Y13970
X7366Y26670
X7620Y1778
X39116Y33782
X39116Y36068
X34798Y27686
X34798Y36195
X78994Y5334
X106934Y27940
X97536Y6350
X76962Y7620
X78232Y7620
X75692Y7620
X84074Y762
X81534Y762
X92710Y35306
X85598Y46482
X94107Y32004
X112776Y31750
X133604Y26670
X133604Y25400
X133604Y24130
X133604Y22860
X133604Y21590
X133604Y20320
X133604Y19050
X128524Y21590
X128524Y20320
X128524Y19050
X131064Y21590
X131064Y20320
X131064Y19050
X131064Y25400
X131064Y24130
X131064Y26670
X81280Y45466
X81407Y37465
X113030Y88646
M30